ISO-10303-21;
HEADER;
FILE_DESCRIPTION (( 'STEP AP214' ),
    '1' );
FILE_NAME ('BC_Half.STEP',
    '2026-05-04T19:17:23',
    ( '' ),
    ( '' ),
    'SwSTEP 2.0',
    'SolidWorks 2024',
    '' );
FILE_SCHEMA (( 'AUTOMOTIVE_DESIGN' ));
ENDSEC;

DATA;
#1 = VECTOR ( 'NONE', #76, 100.0000000000000142 ) ;
#2 = SHELL_BASED_SURFACE_MODEL ( 'NONE', ( #99 ) );
#3 = ORIENTED_EDGE ( 'NONE', *, *, #72, .T. ) ;
#4 = DIRECTION ( 'NONE',  ( -0.6427876096865434707, -0.7660444431189745718, 0.000000000000000000 ) ) ;
#5 = DIRECTION ( 'NONE',  ( 1.000000000000000000, 9.637352644315578973E-16, 0.000000000000000000 ) ) ;
#6 = APPLICATION_PROTOCOL_DEFINITION ( 'draft international standard', 'automotive_design', 1998, #64 ) ;
#7 = CARTESIAN_POINT ( 'NONE',  ( 0.6807000000000000828, 0.4000000000000000222, 0.000000000000000000 ) ) ;
#8 = AXIS2_PLACEMENT_3D ( 'NONE', #88, #29, #5 ) ;
#9 = ORIENTED_EDGE ( 'NONE', *, *, #111, .T. ) ;
#10 = EDGE_CURVE ( 'NONE', #148, #38, #79, .T. ) ;
#11 = ORIENTED_EDGE ( 'NONE', *, *, #80, .F. ) ;
#12 = EDGE_LOOP ( 'NONE', ( #101, #115, #61, #138, #81, #52, #9, #3, #92, #24, #43, #105 ) ) ;
#13 = VECTOR ( 'NONE', #107, 100.0000000000000142 ) ;
#14 = LINE ( 'NONE', #25, #120 ) ;
#15 = EDGE_CURVE ( 'NONE', #38, #147, #14, .T. ) ;
#16 = CARTESIAN_POINT ( 'NONE',  ( 0.4836978324322092071, 0.3430900555020507392, 0.000000000000000000 ) ) ;
#17 =( LENGTH_UNIT ( ) NAMED_UNIT ( * ) SI_UNIT ( .CENTI., .METRE. ) );
#18 = VECTOR ( 'NONE', #129, 100.0000000000000142 ) ;
#19 = CARTESIAN_POINT ( 'NONE',  ( 0.4784629079268351015, 0.4929986795549152756, 0.000000000000000000 ) ) ;
#20 = CARTESIAN_POINT ( 'NONE',  ( 0.5241730599206443353, 0.5313416976898970301, 0.000000000000000000 ) ) ;
#21 = APPLICATION_CONTEXT ( 'automotive_design' ) ;
#22 = PRODUCT_DEFINITION_SHAPE ( 'NONE', 'NONE',  #71 ) ;
#23 = AXIS2_PLACEMENT_3D ( 'NONE', #97, #106, #143 ) ;
#24 = ORIENTED_EDGE ( 'NONE', *, *, #135, .T. ) ;
#25 = CARTESIAN_POINT ( 'NONE',  ( 0.3687911659643630102, 0.4395081969550322931, 0.000000000000000000 ) ) ;
#26 = CARTESIAN_POINT ( 'NONE',  ( 0.000000000000000000, 0.000000000000000000, 0.000000000000000000 ) ) ;
#27 = CARTESIAN_POINT ( 'NONE',  ( 0.7807000000000000606, 0.000000000000000000, 0.000000000000000000 ) ) ;
#28 = DIRECTION ( 'NONE',  ( -2.168404344971009115E-16, -1.000000000000000000, 0.000000000000000000 ) ) ;
#29 = DIRECTION ( 'NONE',  ( -0.000000000000000000, -0.000000000000000000, -1.000000000000000000 ) ) ;
#30 = CARTESIAN_POINT ( 'NONE',  ( 0.4805568777289846993, 0.4330352299337695277, 0.000000000000000000 ) ) ;
#31 = AXIS2_PLACEMENT_3D ( 'NONE', #7, #109, #98 ) ;
#32 = LINE ( 'NONE', #78, #18 ) ;
#33 = EDGE_CURVE ( 'NONE', #47, #103, #63, .T. ) ;
#34 = DIRECTION ( 'NONE',  ( 1.000000000000000000, 0.000000000000000000, 0.000000000000000000 ) ) ;
#35 = MANIFOLD_SURFACE_SHAPE_REPRESENTATION ( 'BC_Half', ( #2, #77 ), #62 ) ;
#36 = EDGE_CURVE ( 'NONE', #114, #73, #58, .T. ) ;
#37 = VECTOR ( 'NONE', #28, 100.0000000000000000 ) ;
#38 = VERTEX_POINT ( 'NONE', #66 ) ;
#39 = CIRCLE ( 'NONE', #23, 0.1000000000000000888 ) ;
#40 = DIRECTION ( 'NONE',  ( 1.000000000000000000, 0.000000000000000000, 0.000000000000000000 ) ) ;
#41 = DIRECTION ( 'NONE',  ( 1.000000000000000000, 0.000000000000000000, -0.000000000000000000 ) ) ;
#42 = CARTESIAN_POINT ( 'NONE',  ( 0.000000000000000000, 0.000000000000000000, 0.000000000000000000 ) ) ;
#43 = ORIENTED_EDGE ( 'NONE', *, *, #10, .T. ) ;
#44 = EDGE_CURVE ( 'NONE', #102, #56, #39, .T. ) ;
#45 = CARTESIAN_POINT ( 'NONE',  ( 0.7207000000000001183, 0.4000000000000000222, 0.000000000000000000 ) ) ;
#46 = DIRECTION ( 'NONE',  ( 1.000000000000000000, 0.000000000000000000, 0.000000000000000000 ) ) ;
#47 = VERTEX_POINT ( 'NONE', #141 ) ;
#48 = AXIS2_PLACEMENT_3D ( 'NONE', #127, #118, #41 ) ;
#49 = ORIENTED_EDGE ( 'NONE', *, *, #83, .F. ) ;
#50 = CARTESIAN_POINT ( 'NONE',  ( 0.6772100503297506791, 0.4999390827019096761, 0.000000000000000000 ) ) ;
#51 =( NAMED_UNIT ( * ) SI_UNIT ( $, .STERADIAN. ) SOLID_ANGLE_UNIT ( ) );
#52 = ORIENTED_EDGE ( 'NONE', *, *, #83, .T. ) ;
#53 = SHAPE_DEFINITION_REPRESENTATION ( #22, #35 ) ;
#54 = DIRECTION ( 'NONE',  ( 0.000000000000000000, 0.000000000000000000, 1.000000000000000000 ) ) ;
#55 = LINE ( 'NONE', #133, #13 ) ;
#56 = VERTEX_POINT ( 'NONE', #50 ) ;
#57 = PRODUCT_RELATED_PRODUCT_CATEGORY ( 'part', '', ( #100 ) ) ;
#58 = CIRCLE ( 'NONE', #8, 0.09000000000000014932 ) ;
#59 = EDGE_CURVE ( 'NONE', #147, #47, #94, .T. ) ;
#60 = ORIENTED_EDGE ( 'NONE', *, *, #121, .F. ) ;
#61 = ORIENTED_EDGE ( 'NONE', *, *, #36, .T. ) ;
#62 =( GEOMETRIC_REPRESENTATION_CONTEXT ( 3 ) GLOBAL_UNCERTAINTY_ASSIGNED_CONTEXT ( ( #82 ) ) GLOBAL_UNIT_ASSIGNED_CONTEXT ( ( #17, #65, #51 ) ) REPRESENTATION_CONTEXT ( 'NONE', 'WORKASPACE' ) );
#63 = LINE ( 'NONE', #108, #140 ) ;
#64 = APPLICATION_CONTEXT ( 'automotive_design' ) ;
#65 =( NAMED_UNIT ( * ) PLANE_ANGLE_UNIT ( ) SI_UNIT ( $, .RADIAN. ) );
#66 = CARTESIAN_POINT ( 'NONE',  ( 0.3687911659643630102, 0.4395081969550322931, 0.000000000000000000 ) ) ;
#67 = PRODUCT_CONTEXT ( 'NONE', #21, 'mechanical' ) ;
#68 = ADVANCED_FACE ( 'NONE', ( #86 ), #85, .T. ) ;
#69 = CARTESIAN_POINT ( 'NONE',  ( 0.6807000000000000828, 0.4000000000000000222, 0.000000000000000000 ) ) ;
#70 = CARTESIAN_POINT ( 'NONE',  ( 0.7807000000000000606, 0.000000000000000000, 0.000000000000000000 ) ) ;
#71 = PRODUCT_DEFINITION ( 'UNKNOWN', '', #104, #137 ) ;
#72 = EDGE_CURVE ( 'NONE', #149, #102, #128, .T. ) ;
#73 = VERTEX_POINT ( 'NONE', #30 ) ;
#74 = DIRECTION ( 'NONE',  ( 2.168404344971008868E-16, 1.000000000000000000, 0.000000000000000000 ) ) ;
#75 = DIRECTION ( 'NONE',  ( 1.000000000000000000, 0.000000000000000000, 0.000000000000000000 ) ) ;
#76 = DIRECTION ( 'NONE',  ( 0.6427876096865434707, 0.7660444431189745718, -0.000000000000000000 ) ) ;
#77 = AXIS2_PLACEMENT_3D ( 'NONE', #26, #54, #46 ) ;
#78 = CARTESIAN_POINT ( 'NONE',  ( 0.6793040201319002769, 0.4399756330807639282, 0.000000000000000000 ) ) ;
#79 = CIRCLE ( 'NONE', #126, 0.1500000000000001332 ) ;
#80 = EDGE_CURVE ( 'NONE', #73, #93, #32, .T. ) ;
#81 = ORIENTED_EDGE ( 'NONE', *, *, #121, .T. ) ;
#82 = UNCERTAINTY_MEASURE_WITH_UNIT (LENGTH_MEASURE( 1.000000000000000082E-05 ), #17, 'distance_accuracy_value', 'NONE');
#83 = EDGE_CURVE ( 'NONE', #130, #103, #131, .T. ) ;
#84 = EDGE_LOOP ( 'NONE', ( #151, #136, #49, #60, #11, #91 ) ) ;
#85 = PLANE ( 'NONE',  #48 ) ;
#86 = FACE_OUTER_BOUND ( 'NONE', #84, .T. ) ;
#87 = PLANE ( 'NONE',  #31 ) ;
#88 = CARTESIAN_POINT ( 'NONE',  ( 0.4836978324322092071, 0.3430900555020507392, 0.000000000000000000 ) ) ;
#89 = CARTESIAN_POINT ( 'NONE',  ( 0.7807000000000001716, 0.4000000000000000222, 0.000000000000000000 ) ) ;
#90 = AXIS2_PLACEMENT_3D ( 'NONE', #69, #144, #110 ) ;
#91 = ORIENTED_EDGE ( 'NONE', *, *, #36, .F. ) ;
#92 = ORIENTED_EDGE ( 'NONE', *, *, #44, .T. ) ;
#93 = VERTEX_POINT ( 'NONE', #123 ) ;
#94 = LINE ( 'NONE', #139, #124 ) ;
#95 = DIRECTION ( 'NONE',  ( 1.000000000000000000, 0.000000000000000000, 0.000000000000000000 ) ) ;
#96 = CARTESIAN_POINT ( 'NONE',  ( 0.7207000000000001183, 0.4000000000000000222, 0.000000000000000000 ) ) ;
#97 = CARTESIAN_POINT ( 'NONE',  ( 0.6807000000000000828, 0.4000000000000000222, 0.000000000000000000 ) ) ;
#98 = DIRECTION ( 'NONE',  ( 1.000000000000000000, 0.000000000000000000, -0.000000000000000000 ) ) ;
#99 = OPEN_SHELL ( 'NONE', ( #113, #68 ) ) ;
#100 = PRODUCT ( 'BC_Half', 'BC_Half', '', ( #67 ) ) ;
#101 = ORIENTED_EDGE ( 'NONE', *, *, #59, .T. ) ;
#102 = VERTEX_POINT ( 'NONE', #89 ) ;
#103 = VERTEX_POINT ( 'NONE', #112 ) ;
#104 = PRODUCT_DEFINITION_FORMATION_WITH_SPECIFIED_SOURCE ( 'ANY', '', #100, .NOT_KNOWN. ) ;
#105 = ORIENTED_EDGE ( 'NONE', *, *, #15, .T. ) ;
#106 = DIRECTION ( 'NONE',  ( 0.000000000000000000, 0.000000000000000000, 1.000000000000000000 ) ) ;
#107 = DIRECTION ( 'NONE',  ( -0.9993908270190959842, -0.03489949670249371111, 0.000000000000000000 ) ) ;
#108 = CARTESIAN_POINT ( 'NONE',  ( 0.000000000000000000, 0.000000000000000000, 0.000000000000000000 ) ) ;
#109 = DIRECTION ( 'NONE',  ( 0.000000000000000000, 0.000000000000000000, 1.000000000000000000 ) ) ;
#110 = DIRECTION ( 'NONE',  ( 1.000000000000000000, -2.168404344971003346E-15, 0.000000000000000000 ) ) ;
#111 = EDGE_CURVE ( 'NONE', #103, #149, #146, .T. ) ;
#112 = CARTESIAN_POINT ( 'NONE',  ( 0.7207000000000001183, 0.000000000000000000, 0.000000000000000000 ) ) ;
#113 = ADVANCED_FACE ( 'NONE', ( #122 ), #87, .T. ) ;
#114 = VERTEX_POINT ( 'NONE', #145 ) ;
#115 = ORIENTED_EDGE ( 'NONE', *, *, #134, .T. ) ;
#116 = DIRECTION ( 'NONE',  ( 0.000000000000000000, 0.000000000000000000, 1.000000000000000000 ) ) ;
#117 = LINE ( 'NONE', #20, #1 ) ;
#118 = DIRECTION ( 'NONE',  ( 0.000000000000000000, 0.000000000000000000, 1.000000000000000000 ) ) ;
#119 = CARTESIAN_POINT ( 'NONE',  ( 0.000000000000000000, 0.000000000000000000, 0.000000000000000000 ) ) ;
#120 = VECTOR ( 'NONE', #4, 100.0000000000000142 ) ;
#121 = EDGE_CURVE ( 'NONE', #93, #130, #150, .T. ) ;
#122 = FACE_OUTER_BOUND ( 'NONE', #12, .T. ) ;
#123 = CARTESIAN_POINT ( 'NONE',  ( 0.6793040201319002769, 0.4399756330807639282, 0.000000000000000000 ) ) ;
#124 = VECTOR ( 'NONE', #40, 100.0000000000000000 ) ;
#125 = VECTOR ( 'NONE', #74, 100.0000000000000000 ) ;
#126 = AXIS2_PLACEMENT_3D ( 'NONE', #16, #116, #95 ) ;
#127 = CARTESIAN_POINT ( 'NONE',  ( 0.6807000000000000828, 0.4000000000000000222, 0.000000000000000000 ) ) ;
#128 = LINE ( 'NONE', #27, #125 ) ;
#129 = DIRECTION ( 'NONE',  ( 0.9993908270190959842, 0.03489949670249413438, -0.000000000000000000 ) ) ;
#130 = VERTEX_POINT ( 'NONE', #45 ) ;
#131 = LINE ( 'NONE', #96, #37 ) ;
#132 = VECTOR ( 'NONE', #34, 100.0000000000000000 ) ;
#133 = CARTESIAN_POINT ( 'NONE',  ( 0.6772100503297506791, 0.4999390827019095651, 0.000000000000000000 ) ) ;
#134 = EDGE_CURVE ( 'NONE', #47, #114, #117, .T. ) ;
#135 = EDGE_CURVE ( 'NONE', #56, #148, #55, .T. ) ;
#136 = ORIENTED_EDGE ( 'NONE', *, *, #33, .T. ) ;
#137 = PRODUCT_DEFINITION_CONTEXT ( 'detailed design', #64, 'design' ) ;
#138 = ORIENTED_EDGE ( 'NONE', *, *, #80, .T. ) ;
#139 = CARTESIAN_POINT ( 'NONE',  ( 0.000000000000000000, 0.000000000000000000, 0.000000000000000000 ) ) ;
#140 = VECTOR ( 'NONE', #75, 100.0000000000000000 ) ;
#141 = CARTESIAN_POINT ( 'NONE',  ( 0.07832443735993695200, -8.673617379884035472E-17, 0.000000000000000000 ) ) ;
#142 = APPLICATION_PROTOCOL_DEFINITION ( 'draft international standard', 'automotive_design', 1998, #21 ) ;
#143 = DIRECTION ( 'NONE',  ( 1.000000000000000000, 0.000000000000000000, 0.000000000000000000 ) ) ;
#144 = DIRECTION ( 'NONE',  ( -0.000000000000000000, -0.000000000000000000, -1.000000000000000000 ) ) ;
#145 = CARTESIAN_POINT ( 'NONE',  ( 0.4147538325515014446, 0.4009409403738397049, 0.000000000000000000 ) ) ;
#146 = LINE ( 'NONE', #42, #132 ) ;
#147 = VERTEX_POINT ( 'NONE', #119 ) ;
#148 = VERTEX_POINT ( 'NONE', #19 ) ;
#149 = VERTEX_POINT ( 'NONE', #70 ) ;
#150 = CIRCLE ( 'NONE', #90, 0.04000000000000010492 ) ;
#151 = ORIENTED_EDGE ( 'NONE', *, *, #134, .F. ) ;
ENDSEC;
END-ISO-10303-21;
