ISO-10303-21;
HEADER;
FILE_DESCRIPTION (( 'STEP AP214' ),
    '1' );
FILE_NAME ('BCS_0.16.STEP',
    '2026-09-18T15:09:48',
    ( '' ),
    ( '' ),
    'SwSTEP 2.0',
    'SolidWorks 2026',
    '' );
FILE_SCHEMA (( 'AUTOMOTIVE_DESIGN' ));
ENDSEC;

DATA;
#1 = DIRECTION ( 'NONE',  ( 1.000000000000000000, 0.000000000000000000, 0.000000000000000000 ) ) ;
#2 = DIRECTION ( 'NONE',  ( -0.000000000000000000, -0.000000000000000000, -1.000000000000000000 ) ) ;
#3 = LINE ( 'NONE', #195, #156 ) ;
#4 = EDGE_CURVE ( 'NONE', #59, #99, #116, .T. ) ;
#5 = ORIENTED_EDGE ( 'NONE', *, *, #4, .T. ) ;
#6 = ORIENTED_EDGE ( 'NONE', *, *, #97, .F. ) ;
#7 = ADVANCED_FACE ( 'NONE', ( #148 ), #114, .T. ) ;
#8 = ORIENTED_EDGE ( 'NONE', *, *, #231, .F. ) ;
#9 = VERTEX_POINT ( 'NONE', #146 ) ;
#10 = AXIS2_PLACEMENT_3D ( 'NONE', #92, #108, #158 ) ;
#11 = ORIENTED_EDGE ( 'NONE', *, *, #152, .T. ) ;
#12 = CARTESIAN_POINT ( 'NONE',  ( 0.4727903172005901156, 0.4892411498328348429, 0.000000000000000000 ) ) ;
#13 = DIRECTION ( 'NONE',  ( -0.000000000000000000, -0.000000000000000000, -1.000000000000000000 ) ) ;
#14 = VECTOR ( 'NONE', #154, 100.0000000000000000 ) ;
#15 = CARTESIAN_POINT ( 'NONE',  ( 0.7186695260760291859, 0.4325317550950104617, 0.000000000000000000 ) ) ;
#16 = LINE ( 'NONE', #105, #141 ) ;
#17 = DIRECTION ( 'NONE',  ( 1.000000000000000000, 0.000000000000000000, 0.000000000000000000 ) ) ;
#18 = DIRECTION ( 'NONE',  ( 1.000000000000000000, 0.000000000000000000, 0.000000000000000000 ) ) ;
#19 = DIRECTION ( 'NONE',  ( -0.6427876096865434707, -0.7660444431189745718, 0.000000000000000000 ) ) ;
#20 = DIRECTION ( 'NONE',  ( 0.000000000000000000, 0.000000000000000000, 1.000000000000000000 ) ) ;
#21 = PRODUCT_CONTEXT ( 'NONE', #35, 'mechanical' ) ;
#22 = ORIENTED_EDGE ( 'NONE', *, *, #72, .F. ) ;
#23 = ORIENTED_EDGE ( 'NONE', *, *, #231, .T. ) ;
#24 = DIRECTION ( 'NONE',  ( 1.000000000000000000, 0.000000000000000000, -0.000000000000000000 ) ) ;
#25 = VERTEX_POINT ( 'NONE', #62 ) ;
#26 = AXIS2_PLACEMENT_3D ( 'NONE', #89, #20, #54 ) ;
#27 = ADVANCED_FACE ( 'NONE', ( #127 ), #187, .T. ) ;
#28 = LINE ( 'NONE', #208, #56 ) ;
#29 = PRODUCT_DEFINITION_CONTEXT ( 'detailed design', #197, 'design' ) ;
#30 = DIRECTION ( 'NONE',  ( 0.9986295347545741663, 0.05233595624293766596, -0.000000000000000000 ) ) ;
#31 = CARTESIAN_POINT ( 'NONE',  ( 0.6754664043757062641, 0.4998629534754573944, 0.000000000000000000 ) ) ;
#32 = LINE ( 'NONE', #168, #70 ) ;
#33 = DIRECTION ( 'NONE',  ( 0.000000000000000000, -1.000000000000000000, 0.000000000000000000 ) ) ;
#34 = AXIS2_PLACEMENT_3D ( 'NONE', #206, #189, #137 ) ;
#35 = APPLICATION_CONTEXT ( 'automotive_design' ) ;
#36 = CARTESIAN_POINT ( 'NONE',  ( 0.4806407106370307325, 0.3394467196196486736, 0.000000000000000000 ) ) ;
#37 = EDGE_CURVE ( 'NONE', #225, #45, #28, .T. ) ;
#38 = CARTESIAN_POINT ( 'NONE',  ( 0.000000000000000000, 0.000000000000000000, 0.000000000000000000 ) ) ;
#39 = CIRCLE ( 'NONE', #53, 0.08000000000000012657 ) ;
#40 = VERTEX_POINT ( 'NONE', #68 ) ;
#41 = ORIENTED_EDGE ( 'NONE', *, *, #147, .T. ) ;
#42 = VERTEX_POINT ( 'NONE', #64 ) ;
#43 = EDGE_LOOP ( 'NONE', ( #142, #143, #63, #198, #201, #23 ) ) ;
#44 = ADVANCED_FACE ( 'NONE', ( #51 ), #135, .T. ) ;
#45 = VERTEX_POINT ( 'NONE', #50 ) ;
#46 = DIRECTION ( 'NONE',  ( 0.000000000000000000, 0.000000000000000000, 1.000000000000000000 ) ) ;
#47 = EDGE_CURVE ( 'NONE', #125, #9, #113, .T. ) ;
#48 = FACE_OUTER_BOUND ( 'NONE', #77, .T. ) ;
#49 = CARTESIAN_POINT ( 'NONE',  ( 0.6806999999999999718, 0.4000000000000000222, 0.000000000000000000 ) ) ;
#50 = CARTESIAN_POINT ( 'NONE',  ( 0.06527036446661391156, -1.301042606982605321E-16, 0.000000000000000000 ) ) ;
#51 = FACE_OUTER_BOUND ( 'NONE', #226, .T. ) ;
#52 = PLANE ( 'NONE',  #233 ) ;
#53 = AXIS2_PLACEMENT_3D ( 'NONE', #153, #169, #82 ) ;
#54 = DIRECTION ( 'NONE',  ( 1.000000000000000000, 0.000000000000000000, 0.000000000000000000 ) ) ;
#55 = DIRECTION ( 'NONE',  ( 1.000000000000000000, 0.000000000000000000, 0.000000000000000000 ) ) ;
#56 = VECTOR ( 'NONE', #17, 100.0000000000000000 ) ;
#57 =( NAMED_UNIT ( * ) SI_UNIT ( $, .STERADIAN. ) SOLID_ANGLE_UNIT ( ) );
#58 = AXIS2_PLACEMENT_3D ( 'NONE', #216, #218, #55 ) ;
#59 = VERTEX_POINT ( 'NONE', #87 ) ;
#60 = ORIENTED_EDGE ( 'NONE', *, *, #109, .F. ) ;
#61 = ORIENTED_EDGE ( 'NONE', *, *, #112, .T. ) ;
#62 = CARTESIAN_POINT ( 'NONE',  ( 0.5955760415953402775, 0.4956760769760223395, 0.000000000000000000 ) ) ;
#63 = ORIENTED_EDGE ( 'NONE', *, *, #86, .T. ) ;
#64 = CARTESIAN_POINT ( 'NONE',  ( 0.4754071150127369139, 0.4393096730951061013, 0.000000000000000000 ) ) ;
#65 = AXIS2_PLACEMENT_3D ( 'NONE', #36, #2, #214 ) ;
#66 = AXIS2_PLACEMENT_3D ( 'NONE', #227, #83, #118 ) ;
#67 = CARTESIAN_POINT ( 'NONE',  ( 0.5165126154894547073, 0.5377695737867623782, 0.000000000000000000 ) ) ;
#68 = CARTESIAN_POINT ( 'NONE',  ( 0.6157188077310146168, 0.4466630973179145925, 0.000000000000000000 ) ) ;
#69 = CARTESIAN_POINT ( 'NONE',  ( 0.4806407106370307325, 0.3394467196196486736, 0.000000000000000000 ) ) ;
#70 = VECTOR ( 'NONE', #172, 100.0000000000000000 ) ;
#71 = DIRECTION ( 'NONE',  ( 1.000000000000000000, -1.734723475976808475E-15, 0.000000000000000000 ) ) ;
#72 = EDGE_CURVE ( 'NONE', #42, #40, #234, .T. ) ;
#73 = DIRECTION ( 'NONE',  ( 1.000000000000000000, 0.000000000000000000, -0.000000000000000000 ) ) ;
#74 = PRODUCT_RELATED_PRODUCT_CATEGORY ( 'part', '', ( #210 ) ) ;
#75 = APPLICATION_PROTOCOL_DEFINITION ( 'draft international standard', 'automotive_design', 1998, #35 ) ;
#76 =( LENGTH_UNIT ( ) NAMED_UNIT ( * ) SI_UNIT ( .CENTI., .METRE. ) );
#77 = EDGE_LOOP ( 'NONE', ( #79, #61, #220, #98, #5, #11 ) ) ;
#78 = ORIENTED_EDGE ( 'NONE', *, *, #124, .T. ) ;
#79 = ORIENTED_EDGE ( 'NONE', *, *, #209, .T. ) ;
#80 = CARTESIAN_POINT ( 'NONE',  ( 0.000000000000000000, 0.000000000000000000, 0.000000000000000000 ) ) ;
#81 = CARTESIAN_POINT ( 'NONE',  ( 0.6780832021878531179, 0.4499314767377287638, 0.000000000000000000 ) ) ;
#82 = DIRECTION ( 'NONE',  ( 1.000000000000000000, 0.000000000000000000, 0.000000000000000000 ) ) ;
#83 = DIRECTION ( 'NONE',  ( 0.000000000000000000, 0.000000000000000000, 1.000000000000000000 ) ) ;
#84 = CARTESIAN_POINT ( 'NONE',  ( 0.7806999999999999496, 0.000000000000000000, 0.000000000000000000 ) ) ;
#85 = SHELL_BASED_SURFACE_MODEL ( 'NONE', ( #91 ) );
#86 = EDGE_CURVE ( 'NONE', #183, #25, #16, .T. ) ;
#87 = CARTESIAN_POINT ( 'NONE',  ( 0.7306999999999997941, 0.000000000000000000, 0.000000000000000000 ) ) ;
#88 = VECTOR ( 'NONE', #30, 100.0000000000000142 ) ;
#89 = CARTESIAN_POINT ( 'NONE',  ( 0.6806999999999999718, 0.4000000000000000222, 0.000000000000000000 ) ) ;
#90 = EDGE_CURVE ( 'NONE', #125, #40, #139, .T. ) ;
#91 = OPEN_SHELL ( 'NONE', ( #44, #140, #27, #7, #222 ) ) ;
#92 = CARTESIAN_POINT ( 'NONE',  ( 0.6806999999999999718, 0.4000000000000000222, 0.000000000000000000 ) ) ;
#93 = DIRECTION ( 'NONE',  ( 0.000000000000000000, 0.000000000000000000, 1.000000000000000000 ) ) ;
#94 = CIRCLE ( 'NONE', #10, 0.04999999999999996114 ) ;
#95 = ORIENTED_EDGE ( 'NONE', *, *, #194, .T. ) ;
#96 = VERTEX_POINT ( 'NONE', #104 ) ;
#97 = EDGE_CURVE ( 'NONE', #9, #59, #204, .T. ) ;
#98 = ORIENTED_EDGE ( 'NONE', *, *, #97, .T. ) ;
#99 = VERTEX_POINT ( 'NONE', #229 ) ;
#100 = CIRCLE ( 'NONE', #26, 0.09999999999999992228 ) ;
#101 = LINE ( 'NONE', #205, #88 ) ;
#102 = CARTESIAN_POINT ( 'NONE',  ( 0.4040362663251332864, 0.4037254805883030984, 0.000000000000000000 ) ) ;
#103 = LINE ( 'NONE', #132, #166 ) ;
#104 = CARTESIAN_POINT ( 'NONE',  ( 0.3657340441691845911, 0.4358648610726302275, 0.000000000000000000 ) ) ;
#105 = CARTESIAN_POINT ( 'NONE',  ( 0.6754664043757062641, 0.4998629534754573389, 0.000000000000000000 ) ) ;
#106 =( NAMED_UNIT ( * ) PLANE_ANGLE_UNIT ( ) SI_UNIT ( $, .RADIAN. ) );
#107 = AXIS2_PLACEMENT_3D ( 'NONE', #49, #119, #188 ) ;
#108 = DIRECTION ( 'NONE',  ( -0.000000000000000000, -0.000000000000000000, -1.000000000000000000 ) ) ;
#109 = EDGE_CURVE ( 'NONE', #40, #178, #101, .T. ) ;
#110 = VERTEX_POINT ( 'NONE', #102 ) ;
#111 = ORIENTED_EDGE ( 'NONE', *, *, #133, .T. ) ;
#112 = EDGE_CURVE ( 'NONE', #223, #125, #207, .T. ) ;
#113 = CIRCLE ( 'NONE', #215, 0.04999999999999996114 ) ;
#114 = PLANE ( 'NONE',  #224 ) ;
#115 = VERTEX_POINT ( 'NONE', #12 ) ;
#116 = LINE ( 'NONE', #80, #129 ) ;
#117 = CARTESIAN_POINT ( 'NONE',  ( 0.7306999999999999051, 0.4000000000000000222, 0.000000000000000000 ) ) ;
#118 = DIRECTION ( 'NONE',  ( 1.000000000000000000, 0.000000000000000000, -0.000000000000000000 ) ) ;
#119 = DIRECTION ( 'NONE',  ( 0.000000000000000000, 0.000000000000000000, 1.000000000000000000 ) ) ;
#120 = EDGE_CURVE ( 'NONE', #40, #25, #39, .T. ) ;
#121 = DIRECTION ( 'NONE',  ( -0.9986295347545741663, -0.05233595624293683329, 0.000000000000000000 ) ) ;
#122 = LINE ( 'NONE', #84, #14 ) ;
#123 = DIRECTION ( 'NONE',  ( 0.000000000000000000, 0.000000000000000000, 1.000000000000000000 ) ) ;
#124 = EDGE_CURVE ( 'NONE', #45, #110, #151, .T. ) ;
#125 = VERTEX_POINT ( 'NONE', #15 ) ;
#126 = ORIENTED_EDGE ( 'NONE', *, *, #47, .F. ) ;
#127 = FACE_OUTER_BOUND ( 'NONE', #199, .T. ) ;
#128 = ORIENTED_EDGE ( 'NONE', *, *, #175, .T. ) ;
#129 = VECTOR ( 'NONE', #144, 100.0000000000000000 ) ;
#130 = DIRECTION ( 'NONE',  ( -0.000000000000000000, -0.000000000000000000, -1.000000000000000000 ) ) ;
#131 = PRODUCT_DEFINITION_SHAPE ( 'NONE', 'NONE',  #182 ) ;
#132 = CARTESIAN_POINT ( 'NONE',  ( 0.6754664043757062641, 0.4998629534754573389, 0.000000000000000000 ) ) ;
#133 = EDGE_CURVE ( 'NONE', #25, #115, #103, .T. ) ;
#134 = CARTESIAN_POINT ( 'NONE',  ( 0.6806999999999999718, 0.4000000000000000222, 0.000000000000000000 ) ) ;
#135 = PLANE ( 'NONE',  #66 ) ;
#136 =( GEOMETRIC_REPRESENTATION_CONTEXT ( 3 ) GLOBAL_UNCERTAINTY_ASSIGNED_CONTEXT ( ( #177 ) ) GLOBAL_UNIT_ASSIGNED_CONTEXT ( ( #76, #106, #57 ) ) REPRESENTATION_CONTEXT ( 'NONE', 'WORKASPACE' ) );
#137 = DIRECTION ( 'NONE',  ( 1.000000000000000000, 0.000000000000000000, 0.000000000000000000 ) ) ;
#138 = DIRECTION ( 'NONE',  ( 0.000000000000000000, 0.000000000000000000, 1.000000000000000000 ) ) ;
#139 = CIRCLE ( 'NONE', #34, 0.08000000000000012657 ) ;
#140 = ADVANCED_FACE ( 'NONE', ( #48 ), #211, .T. ) ;
#141 = VECTOR ( 'NONE', #121, 100.0000000000000284 ) ;
#142 = ORIENTED_EDGE ( 'NONE', *, *, #112, .F. ) ;
#143 = ORIENTED_EDGE ( 'NONE', *, *, #190, .T. ) ;
#144 = DIRECTION ( 'NONE',  ( 1.000000000000000000, 0.000000000000000000, 0.000000000000000000 ) ) ;
#145 = AXIS2_PLACEMENT_3D ( 'NONE', #149, #46, #186 ) ;
#146 = CARTESIAN_POINT ( 'NONE',  ( 0.7306999999999999051, 0.4000000000000000222, 0.000000000000000000 ) ) ;
#147 = EDGE_CURVE ( 'NONE', #45, #59, #32, .T. ) ;
#148 = FACE_OUTER_BOUND ( 'NONE', #43, .T. ) ;
#149 = CARTESIAN_POINT ( 'NONE',  ( 0.6806999999999999718, 0.4000000000000000222, 0.000000000000000000 ) ) ;
#150 = CIRCLE ( 'NONE', #196, 0.1499999999999999667 ) ;
#151 = LINE ( 'NONE', #67, #161 ) ;
#152 = EDGE_CURVE ( 'NONE', #99, #164, #122, .T. ) ;
#153 = CARTESIAN_POINT ( 'NONE',  ( 0.6754664043757062641, 0.4998629534754573944, 0.000000000000000000 ) ) ;
#154 = DIRECTION ( 'NONE',  ( 0.000000000000000000, 1.000000000000000000, 0.000000000000000000 ) ) ;
#155 = DIRECTION ( 'NONE',  ( -0.9986295347545741663, -0.05233595624293683329, 0.000000000000000000 ) ) ;
#156 = VECTOR ( 'NONE', #19, 100.0000000000000142 ) ;
#157 = FACE_OUTER_BOUND ( 'NONE', #162, .T. ) ;
#158 = DIRECTION ( 'NONE',  ( 1.000000000000000000, 1.734723475976808475E-15, 0.000000000000000000 ) ) ;
#159 = CARTESIAN_POINT ( 'NONE',  ( 0.6754664043757062641, 0.4998629534754573944, 0.000000000000000000 ) ) ;
#160 = ORIENTED_EDGE ( 'NONE', *, *, #165, .T. ) ;
#161 = VECTOR ( 'NONE', #230, 100.0000000000000142 ) ;
#162 = EDGE_LOOP ( 'NONE', ( #163, #8, #60 ) ) ;
#163 = ORIENTED_EDGE ( 'NONE', *, *, #90, .F. ) ;
#164 = VERTEX_POINT ( 'NONE', #232 ) ;
#165 = EDGE_CURVE ( 'NONE', #115, #96, #150, .T. ) ;
#166 = VECTOR ( 'NONE', #155, 100.0000000000000284 ) ;
#167 = ORIENTED_EDGE ( 'NONE', *, *, #72, .T. ) ;
#168 = CARTESIAN_POINT ( 'NONE',  ( 0.000000000000000000, 0.000000000000000000, 0.000000000000000000 ) ) ;
#169 = DIRECTION ( 'NONE',  ( -0.000000000000000000, -0.000000000000000000, -1.000000000000000000 ) ) ;
#170 = AXIS2_PLACEMENT_3D ( 'NONE', #31, #13, #173 ) ;
#171 = DIRECTION ( 'NONE',  ( 0.9986295347545741663, 0.05233595624293766596, -0.000000000000000000 ) ) ;
#172 = DIRECTION ( 'NONE',  ( 1.000000000000000000, 0.000000000000000000, 0.000000000000000000 ) ) ;
#173 = DIRECTION ( 'NONE',  ( 1.000000000000000000, 0.000000000000000000, 0.000000000000000000 ) ) ;
#174 = CARTESIAN_POINT ( 'NONE',  ( 0.7503618819231822057, 0.4717441440601294333, 0.000000000000000000 ) ) ;
#175 = EDGE_CURVE ( 'NONE', #96, #225, #3, .T. ) ;
#176 = CARTESIAN_POINT ( 'NONE',  ( 0.6780832021878531179, 0.4499314767377287638, 0.000000000000000000 ) ) ;
#177 = UNCERTAINTY_MEASURE_WITH_UNIT (LENGTH_MEASURE( 1.000000000000000082E-05 ), #76, 'distance_accuracy_value', 'NONE');
#178 = VERTEX_POINT ( 'NONE', #176 ) ;
#179 = ORIENTED_EDGE ( 'NONE', *, *, #90, .T. ) ;
#180 = ORIENTED_EDGE ( 'NONE', *, *, #124, .F. ) ;
#181 = VECTOR ( 'NONE', #171, 100.0000000000000142 ) ;
#182 = PRODUCT_DEFINITION ( 'UNKNOWN', '', #184, #29 ) ;
#183 = VERTEX_POINT ( 'NONE', #159 ) ;
#184 = PRODUCT_DEFINITION_FORMATION_WITH_SPECIFIED_SOURCE ( 'ANY', '', #210, .NOT_KNOWN. ) ;
#185 = CARTESIAN_POINT ( 'NONE',  ( 0.6806999999999999718, 0.4000000000000000222, 0.000000000000000000 ) ) ;
#186 = DIRECTION ( 'NONE',  ( 1.000000000000000000, 0.000000000000000000, -0.000000000000000000 ) ) ;
#187 = PLANE ( 'NONE',  #145 ) ;
#188 = DIRECTION ( 'NONE',  ( 1.000000000000000000, 0.000000000000000000, -0.000000000000000000 ) ) ;
#189 = DIRECTION ( 'NONE',  ( -0.000000000000000000, -0.000000000000000000, -1.000000000000000000 ) ) ;
#190 = EDGE_CURVE ( 'NONE', #223, #183, #228, .T. ) ;
#191 = APPLICATION_PROTOCOL_DEFINITION ( 'draft international standard', 'automotive_design', 1998, #197 ) ;
#192 = CARTESIAN_POINT ( 'NONE',  ( 0.6806999999999999718, 0.4000000000000000222, 0.000000000000000000 ) ) ;
#193 = AXIS2_PLACEMENT_3D ( 'NONE', #213, #123, #18 ) ;
#194 = EDGE_CURVE ( 'NONE', #110, #42, #200, .T. ) ;
#195 = CARTESIAN_POINT ( 'NONE',  ( 0.3657340441691845356, 0.4358648610726302275, 0.000000000000000000 ) ) ;
#196 = AXIS2_PLACEMENT_3D ( 'NONE', #69, #138, #1 ) ;
#197 = APPLICATION_CONTEXT ( 'automotive_design' ) ;
#198 = ORIENTED_EDGE ( 'NONE', *, *, #120, .F. ) ;
#199 = EDGE_LOOP ( 'NONE', ( #167, #202, #111, #160, #128, #219, #78, #95 ) ) ;
#200 = CIRCLE ( 'NONE', #65, 0.1000000000000000056 ) ;
#201 = ORIENTED_EDGE ( 'NONE', *, *, #109, .T. ) ;
#202 = ORIENTED_EDGE ( 'NONE', *, *, #120, .T. ) ;
#203 = ORIENTED_EDGE ( 'NONE', *, *, #194, .F. ) ;
#204 = LINE ( 'NONE', #117, #221 ) ;
#205 = CARTESIAN_POINT ( 'NONE',  ( 0.6780832021878531179, 0.4499314767377287638, 0.000000000000000000 ) ) ;
#206 = CARTESIAN_POINT ( 'NONE',  ( 0.6754664043757062641, 0.4998629534754573944, 0.000000000000000000 ) ) ;
#207 = CIRCLE ( 'NONE', #170, 0.08000000000000012657 ) ;
#208 = CARTESIAN_POINT ( 'NONE',  ( 0.000000000000000000, 0.000000000000000000, 0.000000000000000000 ) ) ;
#209 = EDGE_CURVE ( 'NONE', #164, #223, #100, .T. ) ;
#210 = PRODUCT ( 'BCS_0.16', 'BCS_0.16', '', ( #21 ) ) ;
#211 = PLANE ( 'NONE',  #107 ) ;
#212 = MANIFOLD_SURFACE_SHAPE_REPRESENTATION ( 'BCS_0.16', ( #85, #58 ), #136 ) ;
#213 = CARTESIAN_POINT ( 'NONE',  ( 0.6806999999999999718, 0.4000000000000000222, 0.000000000000000000 ) ) ;
#214 = DIRECTION ( 'NONE',  ( 1.000000000000000000, 0.000000000000000000, 0.000000000000000000 ) ) ;
#215 = AXIS2_PLACEMENT_3D ( 'NONE', #134, #130, #71 ) ;
#216 = CARTESIAN_POINT ( 'NONE',  ( 0.000000000000000000, 0.000000000000000000, 0.000000000000000000 ) ) ;
#217 = SHAPE_DEFINITION_REPRESENTATION ( #131, #212 ) ;
#218 = DIRECTION ( 'NONE',  ( 0.000000000000000000, 0.000000000000000000, 1.000000000000000000 ) ) ;
#219 = ORIENTED_EDGE ( 'NONE', *, *, #37, .T. ) ;
#220 = ORIENTED_EDGE ( 'NONE', *, *, #47, .T. ) ;
#221 = VECTOR ( 'NONE', #33, 100.0000000000000000 ) ;
#222 = ADVANCED_FACE ( 'NONE', ( #157 ), #52, .T. ) ;
#223 = VERTEX_POINT ( 'NONE', #174 ) ;
#224 = AXIS2_PLACEMENT_3D ( 'NONE', #185, #93, #24 ) ;
#225 = VERTEX_POINT ( 'NONE', #38 ) ;
#226 = EDGE_LOOP ( 'NONE', ( #126, #179, #22, #203, #180, #41, #6 ) ) ;
#227 = CARTESIAN_POINT ( 'NONE',  ( 0.6806999999999999718, 0.4000000000000000222, 0.000000000000000000 ) ) ;
#228 = CIRCLE ( 'NONE', #193, 0.09999999999999992228 ) ;
#229 = CARTESIAN_POINT ( 'NONE',  ( 0.7806999999999999496, 0.000000000000000000, 0.000000000000000000 ) ) ;
#230 = DIRECTION ( 'NONE',  ( 0.6427876096865435818, 0.7660444431189744607, -0.000000000000000000 ) ) ;
#231 = EDGE_CURVE ( 'NONE', #178, #125, #94, .T. ) ;
#232 = CARTESIAN_POINT ( 'NONE',  ( 0.7806999999999999496, 0.4000000000000000222, 0.000000000000000000 ) ) ;
#233 = AXIS2_PLACEMENT_3D ( 'NONE', #192, #235, #73 ) ;
#234 = LINE ( 'NONE', #81, #181 ) ;
#235 = DIRECTION ( 'NONE',  ( 0.000000000000000000, 0.000000000000000000, 1.000000000000000000 ) ) ;
ENDSEC;
END-ISO-10303-21;
