ISO-10303-21;
HEADER;
FILE_DESCRIPTION (( 'STEP AP214' ),
    '1' );
FILE_NAME ('BCS_0.08.STEP',
    '2026-09-14T18:10:50',
    ( '' ),
    ( '' ),
    'SwSTEP 2.0',
    'SolidWorks 2026',
    '' );
FILE_SCHEMA (( 'AUTOMOTIVE_DESIGN' ));
ENDSEC;

DATA;
#1 = VECTOR ( 'NONE', #127, 100.0000000000000142 ) ;
#2 =( BOUNDED_CURVE ( )  B_SPLINE_CURVE ( 3, ( #57, #100, #153, #3 ),
 .UNSPECIFIED., .F., .F. ) 
 B_SPLINE_CURVE_WITH_KNOTS ( ( 4, 4 ),
 ( 3.141592653589790896, 6.283185307179586232 ),
 .UNSPECIFIED. ) 
 CURVE ( )  GEOMETRIC_REPRESENTATION_ITEM ( )  RATIONAL_B_SPLINE_CURVE ( ( 1.000000000000000000, 0.3333333333333325932, 0.3333333333333325932, 1.000000000000000000 ) ) 
 REPRESENTATION_ITEM ( '' )  );
#3 = CARTESIAN_POINT ( 'NONE',  ( 0.5542337412316541423, 0.4935094188235094048, 0.000000000000000000 ) ) ;
#4 = VECTOR ( 'NONE', #72, 100.0000000000000284 ) ;
#5 = DIRECTION ( 'NONE',  ( 1.000000000000000000, 0.000000000000000000, 0.000000000000000000 ) ) ;
#6 = EDGE_CURVE ( 'NONE', #69, #54, #177, .T. ) ;
#7 = VECTOR ( 'NONE', #74, 100.0000000000000284 ) ;
#8 = ORIENTED_EDGE ( 'NONE', *, *, #117, .T. ) ;
#9 = DIRECTION ( 'NONE',  ( -0.6427876096865434707, -0.7660444431189745718, 0.000000000000000000 ) ) ;
#10 = ORIENTED_EDGE ( 'NONE', *, *, #53, .T. ) ;
#11 = ORIENTED_EDGE ( 'NONE', *, *, #66, .F. ) ;
#12 = VERTEX_POINT ( 'NONE', #152 ) ;
#13 = CARTESIAN_POINT ( 'NONE',  ( 0.7206999999999997852, 0.000000000000000000, 0.000000000000000000 ) ) ;
#14 = DIRECTION ( 'NONE',  ( 1.000000000000000000, 0.000000000000000000, -0.000000000000000000 ) ) ;
#15 = CARTESIAN_POINT ( 'NONE',  ( 0.6754664043757062641, 0.4998629534754573389, 0.000000000000000000 ) ) ;
#16 = LINE ( 'NONE', #60, #41 ) ;
#17 = EDGE_CURVE ( 'NONE', #35, #69, #161, .T. ) ;
#18 = EDGE_LOOP ( 'NONE', ( #124, #145 ) ) ;
#19 = LINE ( 'NONE', #134, #34 ) ;
#20 = VECTOR ( 'NONE', #113, 100.0000000000000000 ) ;
#21 = AXIS2_PLACEMENT_3D ( 'NONE', #47, #154, #182 ) ;
#22 = DIRECTION ( 'NONE',  ( 0.000000000000000000, 0.000000000000000000, 1.000000000000000000 ) ) ;
#23 = DIRECTION ( 'NONE',  ( 1.000000000000000000, 0.000000000000000000, 0.000000000000000000 ) ) ;
#24 = DIRECTION ( 'NONE',  ( 1.000000000000000000, 0.000000000000000000, 0.000000000000000000 ) ) ;
#25 = DIRECTION ( 'NONE',  ( 1.000000000000000000, 0.000000000000000000, 0.000000000000000000 ) ) ;
#26 = CARTESIAN_POINT ( 'NONE',  ( 0.6786065617502824443, 0.4399451813901830155, 0.000000000000000000 ) ) ;
#27 = MANIFOLD_SURFACE_SHAPE_REPRESENTATION ( 'BCS_0.08', ( #155, #148 ), #160 ) ;
#28 = APPLICATION_PROTOCOL_DEFINITION ( 'draft international standard', 'automotive_design', 1998, #37 ) ;
#29 = ADVANCED_FACE ( 'NONE', ( #133 ), #67, .T. ) ;
#30 = SHAPE_DEFINITION_REPRESENTATION ( #172, #27 ) ;
#31 = EDGE_CURVE ( 'NONE', #97, #150, #19, .T. ) ;
#32 = VECTOR ( 'NONE', #131, 100.0000000000000000 ) ;
#33 = DIRECTION ( 'NONE',  ( 1.000000000000000000, 0.000000000000000000, 0.000000000000000000 ) ) ;
#34 = VECTOR ( 'NONE', #9, 100.0000000000000142 ) ;
#35 = VERTEX_POINT ( 'NONE', #178 ) ;
#36 = VERTEX_POINT ( 'NONE', #52 ) ;
#37 = APPLICATION_CONTEXT ( 'automotive_design' ) ;
#38 = EDGE_CURVE ( 'NONE', #150, #55, #104, .T. ) ;
#39 = EDGE_LOOP ( 'NONE', ( #95, #94, #179, #10, #163, #164, #110, #122, #83, #56, #84, #181, #136, #8 ) ) ;
#40 = VERTEX_POINT ( 'NONE', #102 ) ;
#41 = VECTOR ( 'NONE', #112, 100.0000000000000284 ) ;
#42 = ORIENTED_EDGE ( 'NONE', *, *, #123, .T. ) ;
#43 = CARTESIAN_POINT ( 'NONE',  ( 0.07832443735993684097, -1.734723475976807094E-16, 0.000000000000000000 ) ) ;
#44 = PLANE ( 'NONE',  #21 ) ;
#45 = LINE ( 'NONE', #115, #78 ) ;
#46 = LINE ( 'NONE', #103, #32 ) ;
#47 = CARTESIAN_POINT ( 'NONE',  ( 0.6806999999999999718, 0.4000000000000000222, 0.000000000000000000 ) ) ;
#48 = APPLICATION_PROTOCOL_DEFINITION ( 'draft international standard', 'automotive_design', 1998, #175 ) ;
#49 = AXIS2_PLACEMENT_3D ( 'NONE', #101, #22, #24 ) ;
#50 = DIRECTION ( 'NONE',  ( 0.000000000000000000, 0.000000000000000000, 1.000000000000000000 ) ) ;
#51 = PRODUCT_RELATED_PRODUCT_CATEGORY ( 'part', '', ( #88 ) ) ;
#52 = CARTESIAN_POINT ( 'NONE',  ( 0.4116967107563230255, 0.3972976044914376392, 0.000000000000000000 ) ) ;
#53 = EDGE_CURVE ( 'NONE', #111, #97, #137, .T. ) ;
#54 = VERTEX_POINT ( 'NONE', #13 ) ;
#55 = VERTEX_POINT ( 'NONE', #43 ) ;
#56 = ORIENTED_EDGE ( 'NONE', *, *, #17, .T. ) ;
#57 = CARTESIAN_POINT ( 'NONE',  ( 0.6341241040120201289, 0.4976962953229444042, 0.000000000000000000 ) ) ;
#58 = LINE ( 'NONE', #26, #1 ) ;
#59 = DIRECTION ( 'NONE',  ( -0.000000000000000000, -0.000000000000000000, -1.000000000000000000 ) ) ;
#60 = CARTESIAN_POINT ( 'NONE',  ( 0.6754664043757062641, 0.4998629534754573389, 0.000000000000000000 ) ) ;
#61 = EDGE_CURVE ( 'NONE', #99, #111, #116, .T. ) ;
#62 = DIRECTION ( 'NONE',  ( 0.000000000000000000, 0.000000000000000000, 1.000000000000000000 ) ) ;
#63 = DIRECTION ( 'NONE',  ( 0.000000000000000000, 0.000000000000000000, 1.000000000000000000 ) ) ;
#64 = CARTESIAN_POINT ( 'NONE',  ( 0.000000000000000000, 0.000000000000000000, 0.000000000000000000 ) ) ;
#65 = AXIS2_PLACEMENT_3D ( 'NONE', #120, #50, #108 ) ;
#66 = EDGE_CURVE ( 'NONE', #55, #36, #171, .T. ) ;
#67 = PLANE ( 'NONE',  #65 ) ;
#68 = PRODUCT_DEFINITION_CONTEXT ( 'detailed design', #37, 'design' ) ;
#69 = VERTEX_POINT ( 'NONE', #73 ) ;
#70 = ORIENTED_EDGE ( 'NONE', *, *, #92, .F. ) ;
#71 = VERTEX_POINT ( 'NONE', #156 ) ;
#72 = DIRECTION ( 'NONE',  ( -0.9986295347545741663, -0.05233595624293683329, 0.000000000000000000 ) ) ;
#73 = CARTESIAN_POINT ( 'NONE',  ( 0.7207000000000000073, 0.4000000000000000222, 0.000000000000000000 ) ) ;
#74 = DIRECTION ( 'NONE',  ( -0.9986295347545741663, -0.05233595624293683329, 0.000000000000000000 ) ) ;
#75 = PRODUCT_DEFINITION_FORMATION_WITH_SPECIFIED_SOURCE ( 'ANY', '', #88, .NOT_KNOWN. ) ;
#76 = DIRECTION ( 'NONE',  ( 1.000000000000000000, 1.927470528863117767E-15, 0.000000000000000000 ) ) ;
#77 = CARTESIAN_POINT ( 'NONE',  ( 0.4806407106370307325, 0.3394467196196486736, 0.000000000000000000 ) ) ;
#78 = VECTOR ( 'NONE', #23, 100.0000000000000000 ) ;
#79 = ADVANCED_FACE ( 'NONE', ( #141 ), #44, .T. ) ;
#80 = EDGE_CURVE ( 'NONE', #71, #99, #16, .T. ) ;
#81 = DIRECTION ( 'NONE',  ( -0.000000000000000000, -0.000000000000000000, -1.000000000000000000 ) ) ;
#82 = DIRECTION ( 'NONE',  ( 0.000000000000000000, -1.000000000000000000, 0.000000000000000000 ) ) ;
#83 = ORIENTED_EDGE ( 'NONE', *, *, #158, .T. ) ;
#84 = ORIENTED_EDGE ( 'NONE', *, *, #6, .T. ) ;
#85 = CARTESIAN_POINT ( 'NONE',  ( 0.4806407106370307325, 0.3394467196196486736, 0.000000000000000000 ) ) ;
#86 = FACE_OUTER_BOUND ( 'NONE', #18, .T. ) ;
#87 = CARTESIAN_POINT ( 'NONE',  ( 0.4727903172005901156, 0.4892411498328348429, 0.000000000000000000 ) ) ;
#88 = PRODUCT ( 'BCS_0.08', 'BCS_0.08', '', ( #105 ) ) ;
#89 = CARTESIAN_POINT ( 'NONE',  ( 0.5241730599206443353, 0.5313416976898969191, 0.000000000000000000 ) ) ;
#90 = LINE ( 'NONE', #142, #20 ) ;
#91 = CIRCLE ( 'NONE', #151, 0.09000000000000006606 ) ;
#92 = EDGE_CURVE ( 'NONE', #36, #180, #91, .T. ) ;
#93 = PRODUCT_DEFINITION ( 'UNKNOWN', '', #75, #68 ) ;
#94 = ORIENTED_EDGE ( 'NONE', *, *, #109, .T. ) ;
#95 = ORIENTED_EDGE ( 'NONE', *, *, #106, .T. ) ;
#96 = EDGE_LOOP ( 'NONE', ( #11, #42, #166, #162, #165, #70 ) ) ;
#97 = VERTEX_POINT ( 'NONE', #114 ) ;
#98 = AXIS2_PLACEMENT_3D ( 'NONE', #85, #62, #25 ) ;
#99 = VERTEX_POINT ( 'NONE', #170 ) ;
#100 = CARTESIAN_POINT ( 'NONE',  ( 0.6383109805114552948, 0.4178059325425782511, 3.388131789017201356E-19 ) ) ;
#101 = CARTESIAN_POINT ( 'NONE',  ( 0.6806999999999999718, 0.4000000000000000222, 0.000000000000000000 ) ) ;
#102 = CARTESIAN_POINT ( 'NONE',  ( 0.7806999999999999496, 0.000000000000000000, 0.000000000000000000 ) ) ;
#103 = CARTESIAN_POINT ( 'NONE',  ( 0.7806999999999999496, 0.000000000000000000, 0.000000000000000000 ) ) ;
#104 = LINE ( 'NONE', #138, #167 ) ;
#105 = PRODUCT_CONTEXT ( 'NONE', #175, 'mechanical' ) ;
#106 = EDGE_CURVE ( 'NONE', #12, #71, #129, .T. ) ;
#107 = VECTOR ( 'NONE', #125, 100.0000000000000000 ) ;
#108 = DIRECTION ( 'NONE',  ( 1.000000000000000000, 0.000000000000000000, -0.000000000000000000 ) ) ;
#109 = EDGE_CURVE ( 'NONE', #71, #99, #2, .T. ) ;
#110 = ORIENTED_EDGE ( 'NONE', *, *, #66, .T. ) ;
#111 = VERTEX_POINT ( 'NONE', #87 ) ;
#112 = DIRECTION ( 'NONE',  ( -0.9986295347545741663, -0.05233595624293683329, 0.000000000000000000 ) ) ;
#113 = DIRECTION ( 'NONE',  ( 1.000000000000000000, 0.000000000000000000, 0.000000000000000000 ) ) ;
#114 = CARTESIAN_POINT ( 'NONE',  ( 0.3657340441691845911, 0.4358648610726302275, 0.000000000000000000 ) ) ;
#115 = CARTESIAN_POINT ( 'NONE',  ( 0.000000000000000000, 0.000000000000000000, 0.000000000000000000 ) ) ;
#116 = LINE ( 'NONE', #140, #4 ) ;
#117 = EDGE_CURVE ( 'NONE', #149, #12, #130, .T. ) ;
#118 = AXIS2_PLACEMENT_3D ( 'NONE', #139, #157, #14 ) ;
#119 = AXIS2_PLACEMENT_3D ( 'NONE', #135, #81, #147 ) ;
#120 = CARTESIAN_POINT ( 'NONE',  ( 0.6806999999999999718, 0.4000000000000000222, 0.000000000000000000 ) ) ;
#121 = CARTESIAN_POINT ( 'NONE',  ( 0.7207000000000000073, 0.4000000000000000222, 0.000000000000000000 ) ) ;
#122 = ORIENTED_EDGE ( 'NONE', *, *, #92, .T. ) ;
#123 = EDGE_CURVE ( 'NONE', #55, #54, #45, .T. ) ;
#124 = ORIENTED_EDGE ( 'NONE', *, *, #109, .F. ) ;
#125 = DIRECTION ( 'NONE',  ( 0.6427876096865435818, 0.7660444431189745718, -0.000000000000000000 ) ) ;
#126 = CARTESIAN_POINT ( 'NONE',  ( 0.000000000000000000, 0.000000000000000000, 0.000000000000000000 ) ) ;
#127 = DIRECTION ( 'NONE',  ( 0.9986295347545741663, 0.05233595624293724963, -0.000000000000000000 ) ) ;
#128 = UNCERTAINTY_MEASURE_WITH_UNIT (LENGTH_MEASURE( 1.000000000000000082E-05 ), #132, 'distance_accuracy_value', 'NONE');
#129 = LINE ( 'NONE', #15, #7 ) ;
#130 = CIRCLE ( 'NONE', #49, 0.09999999999999992228 ) ;
#131 = DIRECTION ( 'NONE',  ( 0.000000000000000000, 1.000000000000000000, 0.000000000000000000 ) ) ;
#132 =( LENGTH_UNIT ( ) NAMED_UNIT ( * ) SI_UNIT ( .CENTI., .METRE. ) );
#133 = FACE_OUTER_BOUND ( 'NONE', #96, .T. ) ;
#134 = CARTESIAN_POINT ( 'NONE',  ( 0.3657340441691845356, 0.4358648610726302275, 0.000000000000000000 ) ) ;
#135 = CARTESIAN_POINT ( 'NONE',  ( 0.6806999999999999718, 0.4000000000000000222, 0.000000000000000000 ) ) ;
#136 = ORIENTED_EDGE ( 'NONE', *, *, #144, .T. ) ;
#137 = CIRCLE ( 'NONE', #98, 0.1499999999999999667 ) ;
#138 = CARTESIAN_POINT ( 'NONE',  ( 0.000000000000000000, 0.000000000000000000, 0.000000000000000000 ) ) ;
#139 = CARTESIAN_POINT ( 'NONE',  ( 0.6806999999999999718, 0.4000000000000000222, 0.000000000000000000 ) ) ;
#140 = CARTESIAN_POINT ( 'NONE',  ( 0.6754664043757062641, 0.4998629534754573389, 0.000000000000000000 ) ) ;
#141 = FACE_OUTER_BOUND ( 'NONE', #39, .T. ) ;
#142 = CARTESIAN_POINT ( 'NONE',  ( 0.000000000000000000, 0.000000000000000000, 0.000000000000000000 ) ) ;
#143 = VECTOR ( 'NONE', #82, 100.0000000000000000 ) ;
#144 = EDGE_CURVE ( 'NONE', #40, #149, #46, .T. ) ;
#145 = ORIENTED_EDGE ( 'NONE', *, *, #80, .T. ) ;
#146 = ADVANCED_FACE ( 'NONE', ( #86 ), #183, .T. ) ;
#147 = DIRECTION ( 'NONE',  ( 1.000000000000000000, 0.000000000000000000, 0.000000000000000000 ) ) ;
#148 = AXIS2_PLACEMENT_3D ( 'NONE', #64, #63, #33 ) ;
#149 = VERTEX_POINT ( 'NONE', #173 ) ;
#150 = VERTEX_POINT ( 'NONE', #126 ) ;
#151 = AXIS2_PLACEMENT_3D ( 'NONE', #77, #59, #76 ) ;
#152 = CARTESIAN_POINT ( 'NONE',  ( 0.6754664043757062641, 0.4998629534754573944, 0.000000000000000000 ) ) ;
#153 = CARTESIAN_POINT ( 'NONE',  ( 0.5584206177310890862, 0.4136190560431431962, 3.388131789017201356E-19 ) ) ;
#154 = DIRECTION ( 'NONE',  ( 0.000000000000000000, 0.000000000000000000, 1.000000000000000000 ) ) ;
#155 = SHELL_BASED_SURFACE_MODEL ( 'NONE', ( #176 ) );
#156 = CARTESIAN_POINT ( 'NONE',  ( 0.6341241040120201289, 0.4976962953229444042, 0.000000000000000000 ) ) ;
#157 = DIRECTION ( 'NONE',  ( 0.000000000000000000, 0.000000000000000000, 1.000000000000000000 ) ) ;
#158 = EDGE_CURVE ( 'NONE', #180, #35, #58, .T. ) ;
#159 =( NAMED_UNIT ( * ) PLANE_ANGLE_UNIT ( ) SI_UNIT ( $, .RADIAN. ) );
#160 =( GEOMETRIC_REPRESENTATION_CONTEXT ( 3 ) GLOBAL_UNCERTAINTY_ASSIGNED_CONTEXT ( ( #128 ) ) GLOBAL_UNIT_ASSIGNED_CONTEXT ( ( #132, #159, #174 ) ) REPRESENTATION_CONTEXT ( 'NONE', 'WORKASPACE' ) );
#161 = CIRCLE ( 'NONE', #119, 0.04000000000000002165 ) ;
#162 = ORIENTED_EDGE ( 'NONE', *, *, #17, .F. ) ;
#163 = ORIENTED_EDGE ( 'NONE', *, *, #31, .T. ) ;
#164 = ORIENTED_EDGE ( 'NONE', *, *, #38, .T. ) ;
#165 = ORIENTED_EDGE ( 'NONE', *, *, #158, .F. ) ;
#166 = ORIENTED_EDGE ( 'NONE', *, *, #6, .F. ) ;
#167 = VECTOR ( 'NONE', #5, 100.0000000000000000 ) ;
#168 = CARTESIAN_POINT ( 'NONE',  ( 0.4759304745751662402, 0.4293233777475604085, 0.000000000000000000 ) ) ;
#169 = EDGE_CURVE ( 'NONE', #54, #40, #90, .T. ) ;
#170 = CARTESIAN_POINT ( 'NONE',  ( 0.5542337412316541423, 0.4935094188235094048, 0.000000000000000000 ) ) ;
#171 = LINE ( 'NONE', #89, #107 ) ;
#172 = PRODUCT_DEFINITION_SHAPE ( 'NONE', 'NONE',  #93 ) ;
#173 = CARTESIAN_POINT ( 'NONE',  ( 0.7806999999999999496, 0.4000000000000000222, 0.000000000000000000 ) ) ;
#174 =( NAMED_UNIT ( * ) SI_UNIT ( $, .STERADIAN. ) SOLID_ANGLE_UNIT ( ) );
#175 = APPLICATION_CONTEXT ( 'automotive_design' ) ;
#176 = OPEN_SHELL ( 'NONE', ( #79, #146, #29 ) ) ;
#177 = LINE ( 'NONE', #121, #143 ) ;
#178 = CARTESIAN_POINT ( 'NONE',  ( 0.6786065617502824443, 0.4399451813901830155, 0.000000000000000000 ) ) ;
#179 = ORIENTED_EDGE ( 'NONE', *, *, #61, .T. ) ;
#180 = VERTEX_POINT ( 'NONE', #168 ) ;
#181 = ORIENTED_EDGE ( 'NONE', *, *, #169, .T. ) ;
#182 = DIRECTION ( 'NONE',  ( 1.000000000000000000, 0.000000000000000000, -0.000000000000000000 ) ) ;
#183 = PLANE ( 'NONE',  #118 ) ;
ENDSEC;
END-ISO-10303-21;
