ISO-10303-21;
HEADER;
FILE_DESCRIPTION (( 'STEP AP214' ),
    '1' );
FILE_NAME ('BCS_2_1.STEP',
    '2026-05-04T19:27:06',
    ( '' ),
    ( '' ),
    'SwSTEP 2.0',
    'SolidWorks 2024',
    '' );
FILE_SCHEMA (( 'AUTOMOTIVE_DESIGN' ));
ENDSEC;

DATA;
#1 = VERTEX_POINT ( 'NONE', #82 ) ;
#2 = PLANE ( 'NONE',  #197 ) ;
#3 = ADVANCED_FACE ( 'NONE', ( #83 ), #2, .T. ) ;
#4 = CARTESIAN_POINT ( 'NONE',  ( 0.000000000000000000, 0.000000000000000000, 0.000000000000000000 ) ) ;
#5 = FACE_OUTER_BOUND ( 'NONE', #87, .T. ) ;
#6 = PLANE ( 'NONE',  #43 ) ;
#7 = MANIFOLD_SURFACE_SHAPE_REPRESENTATION ( 'BCS_2_1', ( #176, #170 ), #9 ) ;
#8 = CARTESIAN_POINT ( 'NONE',  ( 0.6772100503297506791, 0.4999390827019096761, 0.000000000000000000 ) ) ;
#9 =( GEOMETRIC_REPRESENTATION_CONTEXT ( 3 ) GLOBAL_UNCERTAINTY_ASSIGNED_CONTEXT ( ( #192 ) ) GLOBAL_UNIT_ASSIGNED_CONTEXT ( ( #111, #113, #94 ) ) REPRESENTATION_CONTEXT ( 'NONE', 'WORKASPACE' ) );
#10 = LINE ( 'NONE', #124, #57 ) ;
#11 = CARTESIAN_POINT ( 'NONE',  ( 0.5162583780001556155, 0.4943185264531776979, 0.000000000000000000 ) ) ;
#12 = EDGE_CURVE ( 'NONE', #195, #58, #189, .T. ) ;
#13 = VECTOR ( 'NONE', #21, 100.0000000000000142 ) ;
#14 = DIRECTION ( 'NONE',  ( 1.000000000000000000, 0.000000000000000000, 0.000000000000000000 ) ) ;
#15 = ADVANCED_FACE ( 'NONE', ( #157 ), #134, .T. ) ;
#16 = ORIENTED_EDGE ( 'NONE', *, *, #225, .F. ) ;
#17 = VERTEX_POINT ( 'NONE', #230 ) ;
#18 = CIRCLE ( 'NONE', #53, 0.09000000000000014932 ) ;
#19 = VERTEX_POINT ( 'NONE', #116 ) ;
#20 = CARTESIAN_POINT ( 'NONE',  ( 0.6807000000000000828, 0.4000000000000000222, 0.000000000000000000 ) ) ;
#21 = DIRECTION ( 'NONE',  ( -0.9993908270190959842, -0.03489949670249371111, 0.000000000000000000 ) ) ;
#22 = CARTESIAN_POINT ( 'NONE',  ( 0.07832443735993695200, -8.673617379884035472E-17, 0.000000000000000000 ) ) ;
#23 = AXIS2_PLACEMENT_3D ( 'NONE', #140, #224, #166 ) ;
#24 = DIRECTION ( 'NONE',  ( 0.9993908270190959842, 0.03489949670249413438, -0.000000000000000000 ) ) ;
#25 = LINE ( 'NONE', #125, #126 ) ;
#26 = LINE ( 'NONE', #68, #215 ) ;
#27 = VECTOR ( 'NONE', #201, 100.0000000000000000 ) ;
#28 = CARTESIAN_POINT ( 'NONE',  ( 0.6793040201319002769, 0.4399756330807639282, 0.000000000000000000 ) ) ;
#29 = VERTEX_POINT ( 'NONE', #118 ) ;
#30 = CIRCLE ( 'NONE', #81, 0.1500000000000001332 ) ;
#31 = ORIENTED_EDGE ( 'NONE', *, *, #228, .F. ) ;
#32 = APPLICATION_CONTEXT ( 'automotive_design' ) ;
#33 = VERTEX_POINT ( 'NONE', #218 ) ;
#34 = PLANE ( 'NONE',  #229 ) ;
#35 = VERTEX_POINT ( 'NONE', #194 ) ;
#36 = ORIENTED_EDGE ( 'NONE', *, *, #190, .F. ) ;
#37 = PRODUCT ( 'BCS_2_1', 'BCS_2_1', '', ( #153 ) ) ;
#38 =( BOUNDED_CURVE ( )  B_SPLINE_CURVE ( 3, ( #219, #154, #67, #131 ),
 .UNSPECIFIED., .F., .F. ) 
 B_SPLINE_CURVE_WITH_KNOTS ( ( 4, 4 ),
 ( 1.570796326794897668, 2.418858405776376674 ),
 .UNSPECIFIED. ) 
 CURVE ( )  GEOMETRIC_REPRESENTATION_ITEM ( )  RATIONAL_B_SPLINE_CURVE ( ( 1.000000000000000000, 0.9409585518440986007, 0.9409585518440986007, 1.000000000000000000 ) ) 
 REPRESENTATION_ITEM ( '' )  );
#39 = CARTESIAN_POINT ( 'NONE',  ( 0.6772100503297506791, 0.4999390827019095651, 0.000000000000000000 ) ) ;
#40 = CARTESIAN_POINT ( 'NONE',  ( 0.6511864057808670614, 0.4389937443513538540, 0.000000000000000000 ) ) ;
#41 = ADVANCED_FACE ( 'NONE', ( #61 ), #34, .T. ) ;
#42 = CARTESIAN_POINT ( 'NONE',  ( 0.000000000000000000, 0.000000000000000000, 0.000000000000000000 ) ) ;
#43 = AXIS2_PLACEMENT_3D ( 'NONE', #164, #89, #168 ) ;
#44 = LINE ( 'NONE', #105, #121 ) ;
#45 = LINE ( 'NONE', #75, #160 ) ;
#46 = CARTESIAN_POINT ( 'NONE',  ( 0.4836978324322092071, 0.3430900555020507392, 0.000000000000000000 ) ) ;
#47 = EDGE_CURVE ( 'NONE', #19, #1, #30, .T. ) ;
#48 = VECTOR ( 'NONE', #180, 100.0000000000000142 ) ;
#49 = CARTESIAN_POINT ( 'NONE',  ( 0.5454208221467989892, 0.4353003287851091585, 0.000000000000000000 ) ) ;
#50 = DIRECTION ( 'NONE',  ( -0.000000000000000000, -0.000000000000000000, -1.000000000000000000 ) ) ;
#51 = VERTEX_POINT ( 'NONE', #127 ) ;
#52 = ORIENTED_EDGE ( 'NONE', *, *, #228, .T. ) ;
#53 = AXIS2_PLACEMENT_3D ( 'NONE', #46, #50, #211 ) ;
#54 = EDGE_CURVE ( 'NONE', #137, #35, #114, .T. ) ;
#55 = CARTESIAN_POINT ( 'NONE',  ( 0.6807000000000000828, 0.4000000000000000222, 0.000000000000000000 ) ) ;
#56 = ORIENTED_EDGE ( 'NONE', *, *, #54, .F. ) ;
#57 = VECTOR ( 'NONE', #200, 100.0000000000000142 ) ;
#58 = VERTEX_POINT ( 'NONE', #8 ) ;
#59 = ORIENTED_EDGE ( 'NONE', *, *, #225, .T. ) ;
#60 = EDGE_CURVE ( 'NONE', #163, #196, #44, .T. ) ;
#61 = FACE_OUTER_BOUND ( 'NONE', #191, .T. ) ;
#62 = CARTESIAN_POINT ( 'NONE',  ( 0.5454208221467989892, 0.4353003287851091585, 0.000000000000000000 ) ) ;
#63 = LINE ( 'NONE', #181, #48 ) ;
#64 = CARTESIAN_POINT ( 'NONE',  ( 0.6511864057808670614, 0.4389937443513538540, 0.000000000000000000 ) ) ;
#65 = PLANE ( 'NONE',  #85 ) ;
#66 = ORIENTED_EDGE ( 'NONE', *, *, #78, .T. ) ;
#67 = CARTESIAN_POINT ( 'NONE',  ( 0.6681275884162554135, 0.4550196145195167796, 3.388131789017201356E-19 ) ) ;
#68 = CARTESIAN_POINT ( 'NONE',  ( 0.000000000000000000, 0.000000000000000000, 0.000000000000000000 ) ) ;
#69 = DIRECTION ( 'NONE',  ( 0.000000000000000000, 0.000000000000000000, 1.000000000000000000 ) ) ;
#70 = ORIENTED_EDGE ( 'NONE', *, *, #190, .T. ) ;
#71 = PRODUCT_DEFINITION_FORMATION_WITH_SPECIFIED_SOURCE ( 'ANY', '', #37, .NOT_KNOWN. ) ;
#72 = DIRECTION ( 'NONE',  ( 1.000000000000000000, 0.000000000000000000, 0.000000000000000000 ) ) ;
#73 = EDGE_LOOP ( 'NONE', ( #115, #185, #80, #31, #36, #232, #86, #214 ) ) ;
#74 = LINE ( 'NONE', #179, #150 ) ;
#75 = CARTESIAN_POINT ( 'NONE',  ( 0.7807000000000000606, 0.000000000000000000, 0.000000000000000000 ) ) ;
#76 = CARTESIAN_POINT ( 'NONE',  ( 0.6807000000000000828, 0.4000000000000000222, 0.000000000000000000 ) ) ;
#77 = CARTESIAN_POINT ( 'NONE',  ( 0.7207000000000001183, 0.4000000000000000222, 0.000000000000000000 ) ) ;
#78 = EDGE_CURVE ( 'NONE', #33, #196, #178, .T. ) ;
#79 = EDGE_CURVE ( 'NONE', #130, #35, #25, .T. ) ;
#80 = ORIENTED_EDGE ( 'NONE', *, *, #79, .F. ) ;
#81 = AXIS2_PLACEMENT_3D ( 'NONE', #233, #136, #72 ) ;
#82 = CARTESIAN_POINT ( 'NONE',  ( 0.3687911659643630102, 0.4395081969550322931, 0.000000000000000000 ) ) ;
#83 = FACE_OUTER_BOUND ( 'NONE', #101, .T. ) ;
#84 = ORIENTED_EDGE ( 'NONE', *, *, #231, .F. ) ;
#85 = AXIS2_PLACEMENT_3D ( 'NONE', #76, #109, #128 ) ;
#86 = ORIENTED_EDGE ( 'NONE', *, *, #78, .F. ) ;
#87 = EDGE_LOOP ( 'NONE', ( #227, #217, #135, #98, #66, #174, #152, #213 ) ) ;
#88 = FACE_OUTER_BOUND ( 'NONE', #73, .T. ) ;
#89 = DIRECTION ( 'NONE',  ( 0.000000000000000000, 0.000000000000000000, 1.000000000000000000 ) ) ;
#90 = CARTESIAN_POINT ( 'NONE',  ( 0.7807000000000000606, 0.000000000000000000, 0.000000000000000000 ) ) ;
#91 = DIRECTION ( 'NONE',  ( -0.9993908270190959842, -0.03489949670249371111, 0.000000000000000000 ) ) ;
#92 = AXIS2_PLACEMENT_3D ( 'NONE', #159, #173, #14 ) ;
#93 = CARTESIAN_POINT ( 'NONE',  ( 0.000000000000000000, 0.000000000000000000, 0.000000000000000000 ) ) ;
#94 =( NAMED_UNIT ( * ) SI_UNIT ( $, .STERADIAN. ) SOLID_ANGLE_UNIT ( ) );
#95 = ORIENTED_EDGE ( 'NONE', *, *, #47, .T. ) ;
#96 = DIRECTION ( 'NONE',  ( 1.000000000000000000, 0.000000000000000000, -0.000000000000000000 ) ) ;
#97 = PRODUCT_DEFINITION_CONTEXT ( 'detailed design', #188, 'design' ) ;
#98 = ORIENTED_EDGE ( 'NONE', *, *, #162, .T. ) ;
#99 = ORIENTED_EDGE ( 'NONE', *, *, #231, .T. ) ;
#100 = VERTEX_POINT ( 'NONE', #90 ) ;
#101 = EDGE_LOOP ( 'NONE', ( #56, #16 ) ) ;
#102 = DIRECTION ( 'NONE',  ( 1.000000000000000000, 0.000000000000000000, 0.000000000000000000 ) ) ;
#103 = CARTESIAN_POINT ( 'NONE',  ( 0.7807000000000001716, 0.4000000000000000222, 0.000000000000000000 ) ) ;
#104 = VECTOR ( 'NONE', #172, 100.0000000000000142 ) ;
#105 = CARTESIAN_POINT ( 'NONE',  ( 0.000000000000000000, 0.000000000000000000, 0.000000000000000000 ) ) ;
#106 = EDGE_CURVE ( 'NONE', #100, #195, #45, .T. ) ;
#107 =( BOUNDED_CURVE ( )  B_SPLINE_CURVE ( 3, ( #49, #208, #205, #11 ),
 .UNSPECIFIED., .F., .T. ) 
 B_SPLINE_CURVE_WITH_KNOTS ( ( 4, 4 ),
 ( 3.864326901403209114, 4.712388980384689674 ),
 .UNSPECIFIED. ) 
 CURVE ( )  GEOMETRIC_REPRESENTATION_ITEM ( )  RATIONAL_B_SPLINE_CURVE ( ( 1.000000000000000000, 0.9409585518440986007, 0.9409585518440986007, 1.000000000000000000 ) ) 
 REPRESENTATION_ITEM ( '' )  );
#108 = CARTESIAN_POINT ( 'NONE',  ( 0.4805568777289846993, 0.4330352299337695277, 0.000000000000000000 ) ) ;
#109 = DIRECTION ( 'NONE',  ( 0.000000000000000000, 0.000000000000000000, 1.000000000000000000 ) ) ;
#110 = EDGE_CURVE ( 'NONE', #17, #19, #223, .T. ) ;
#111 =( LENGTH_UNIT ( ) NAMED_UNIT ( * ) SI_UNIT ( .CENTI., .METRE. ) );
#112 = ORIENTED_EDGE ( 'NONE', *, *, #110, .T. ) ;
#113 =( NAMED_UNIT ( * ) PLANE_ANGLE_UNIT ( ) SI_UNIT ( $, .RADIAN. ) );
#114 =( BOUNDED_CURVE ( )  B_SPLINE_CURVE ( 3, ( #64, #167, #222, #62 ),
 .UNSPECIFIED., .F., .T. ) 
 B_SPLINE_CURVE_WITH_KNOTS ( ( 4, 4 ),
 ( 2.418858405776376674, 3.864326901403209114 ),
 .UNSPECIFIED. ) 
 CURVE ( )  GEOMETRIC_REPRESENTATION_ITEM ( )  RATIONAL_B_SPLINE_CURVE ( ( 1.000000000000000000, 0.8333333333333330373, 0.8333333333333330373, 1.000000000000000000 ) ) 
 REPRESENTATION_ITEM ( '' )  );
#115 = ORIENTED_EDGE ( 'NONE', *, *, #156, .F. ) ;
#116 = CARTESIAN_POINT ( 'NONE',  ( 0.4784629079268351015, 0.4929986795549152756, 0.000000000000000000 ) ) ;
#117 = CIRCLE ( 'NONE', #23, 0.04000000000000010492 ) ;
#118 = CARTESIAN_POINT ( 'NONE',  ( 0.4147538325515014446, 0.4009409403738397049, 0.000000000000000000 ) ) ;
#119 = DIRECTION ( 'NONE',  ( 0.000000000000000000, 0.000000000000000000, 1.000000000000000000 ) ) ;
#120 = DIRECTION ( 'NONE',  ( 1.000000000000000000, 0.000000000000000000, -0.000000000000000000 ) ) ;
#121 = VECTOR ( 'NONE', #102, 100.0000000000000000 ) ;
#122 = EDGE_CURVE ( 'NONE', #51, #17, #198, .T. ) ;
#123 = DIRECTION ( 'NONE',  ( 2.168404344971008868E-16, 1.000000000000000000, 0.000000000000000000 ) ) ;
#124 = CARTESIAN_POINT ( 'NONE',  ( 0.5241730599206443353, 0.5313416976898970301, 0.000000000000000000 ) ) ;
#125 = CARTESIAN_POINT ( 'NONE',  ( 0.6793040201319002769, 0.4399756330807639282, 0.000000000000000000 ) ) ;
#126 = VECTOR ( 'NONE', #24, 100.0000000000000142 ) ;
#127 = CARTESIAN_POINT ( 'NONE',  ( 0.6761609103232110174, 0.4999024459255766439, 0.000000000000000000 ) ) ;
#128 = DIRECTION ( 'NONE',  ( 1.000000000000000000, 0.000000000000000000, -0.000000000000000000 ) ) ;
#129 = SHAPE_DEFINITION_REPRESENTATION ( #139, #7 ) ;
#130 = VERTEX_POINT ( 'NONE', #108 ) ;
#131 = CARTESIAN_POINT ( 'NONE',  ( 0.6511864057808670614, 0.4389937443513538540, 0.000000000000000000 ) ) ;
#132 = DIRECTION ( 'NONE',  ( 1.000000000000000000, 0.000000000000000000, 0.000000000000000000 ) ) ;
#133 = PRODUCT_RELATED_PRODUCT_CATEGORY ( 'part', '', ( #37 ) ) ;
#134 = PLANE ( 'NONE',  #183 ) ;
#135 = ORIENTED_EDGE ( 'NONE', *, *, #156, .T. ) ;
#136 = DIRECTION ( 'NONE',  ( 0.000000000000000000, 0.000000000000000000, 1.000000000000000000 ) ) ;
#137 = VERTEX_POINT ( 'NONE', #40 ) ;
#138 = EDGE_CURVE ( 'NONE', #196, #100, #143, .T. ) ;
#139 = PRODUCT_DEFINITION_SHAPE ( 'NONE', 'NONE',  #144 ) ;
#140 = CARTESIAN_POINT ( 'NONE',  ( 0.6807000000000000828, 0.4000000000000000222, 0.000000000000000000 ) ) ;
#141 = VECTOR ( 'NONE', #202, 100.0000000000000000 ) ;
#142 = DIRECTION ( 'NONE',  ( -0.9993908270190959842, -0.03489949670249371111, 0.000000000000000000 ) ) ;
#143 = LINE ( 'NONE', #42, #141 ) ;
#144 = PRODUCT_DEFINITION ( 'UNKNOWN', '', #71, #97 ) ;
#145 = CARTESIAN_POINT ( 'NONE',  ( 0.3687911659643630102, 0.4395081969550322931, 0.000000000000000000 ) ) ;
#146 = VECTOR ( 'NONE', #182, 100.0000000000000142 ) ;
#147 = CARTESIAN_POINT ( 'NONE',  ( 0.6772100503297506791, 0.4999390827019095651, 0.000000000000000000 ) ) ;
#148 = APPLICATION_PROTOCOL_DEFINITION ( 'draft international standard', 'automotive_design', 1998, #188 ) ;
#149 = ADVANCED_FACE ( 'NONE', ( #88 ), #6, .T. ) ;
#150 = VECTOR ( 'NONE', #142, 100.0000000000000142 ) ;
#151 = APPLICATION_PROTOCOL_DEFINITION ( 'draft international standard', 'automotive_design', 1998, #32 ) ;
#152 = ORIENTED_EDGE ( 'NONE', *, *, #106, .T. ) ;
#153 = PRODUCT_CONTEXT ( 'NONE', #32, 'mechanical' ) ;
#154 = CARTESIAN_POINT ( 'NONE',  ( 0.6769747739071924064, 0.4765964421969433595, 3.388131789017201356E-19 ) ) ;
#155 = VERTEX_POINT ( 'NONE', #4 ) ;
#156 = EDGE_CURVE ( 'NONE', #137, #175, #63, .T. ) ;
#157 = FACE_OUTER_BOUND ( 'NONE', #186, .T. ) ;
#158 = DIRECTION ( 'NONE',  ( 0.000000000000000000, 0.000000000000000000, 1.000000000000000000 ) ) ;
#159 = CARTESIAN_POINT ( 'NONE',  ( 0.6807000000000000828, 0.4000000000000000222, 0.000000000000000000 ) ) ;
#160 = VECTOR ( 'NONE', #123, 100.0000000000000000 ) ;
#161 = CARTESIAN_POINT ( 'NONE',  ( 0.6807000000000000828, 0.4000000000000000222, 0.000000000000000000 ) ) ;
#162 = EDGE_CURVE ( 'NONE', #175, #33, #117, .T. ) ;
#163 = VERTEX_POINT ( 'NONE', #22 ) ;
#164 = CARTESIAN_POINT ( 'NONE',  ( 0.6807000000000000828, 0.4000000000000000222, 0.000000000000000000 ) ) ;
#165 = CARTESIAN_POINT ( 'NONE',  ( 0.7207000000000001183, 0.000000000000000000, 0.000000000000000000 ) ) ;
#166 = DIRECTION ( 'NONE',  ( 1.000000000000000000, -2.168404344971003346E-15, 0.000000000000000000 ) ) ;
#167 = CARTESIAN_POINT ( 'NONE',  ( 0.6204339165983164817, 0.4099027765249456667, 3.388131789017201356E-19 ) ) ;
#168 = DIRECTION ( 'NONE',  ( 1.000000000000000000, 0.000000000000000000, -0.000000000000000000 ) ) ;
#169 = EDGE_CURVE ( 'NONE', #58, #51, #74, .T. ) ;
#170 = AXIS2_PLACEMENT_3D ( 'NONE', #93, #184, #171 ) ;
#171 = DIRECTION ( 'NONE',  ( 1.000000000000000000, 0.000000000000000000, 0.000000000000000000 ) ) ;
#172 = DIRECTION ( 'NONE',  ( 0.9993908270190959842, 0.03489949670249413438, -0.000000000000000000 ) ) ;
#173 = DIRECTION ( 'NONE',  ( 0.000000000000000000, 0.000000000000000000, 1.000000000000000000 ) ) ;
#174 = ORIENTED_EDGE ( 'NONE', *, *, #138, .T. ) ;
#175 = VERTEX_POINT ( 'NONE', #221 ) ;
#176 = SHELL_BASED_SURFACE_MODEL ( 'NONE', ( #210 ) );
#177 = ORIENTED_EDGE ( 'NONE', *, *, #212, .T. ) ;
#178 = LINE ( 'NONE', #77, #27 ) ;
#179 = CARTESIAN_POINT ( 'NONE',  ( 0.6772100503297506791, 0.4999390827019095651, 0.000000000000000000 ) ) ;
#180 = DIRECTION ( 'NONE',  ( 0.9993908270190959842, 0.03489949670249413438, -0.000000000000000000 ) ) ;
#181 = CARTESIAN_POINT ( 'NONE',  ( 0.6793040201319002769, 0.4399756330807639282, 0.000000000000000000 ) ) ;
#182 = DIRECTION ( 'NONE',  ( -0.6427876096865434707, -0.7660444431189745718, 0.000000000000000000 ) ) ;
#183 = AXIS2_PLACEMENT_3D ( 'NONE', #161, #158, #120 ) ;
#184 = DIRECTION ( 'NONE',  ( 0.000000000000000000, 0.000000000000000000, 1.000000000000000000 ) ) ;
#185 = ORIENTED_EDGE ( 'NONE', *, *, #54, .T. ) ;
#186 = EDGE_LOOP ( 'NONE', ( #187, #207, #84, #59 ) ) ;
#187 = ORIENTED_EDGE ( 'NONE', *, *, #206, .F. ) ;
#188 = APPLICATION_CONTEXT ( 'automotive_design' ) ;
#189 = CIRCLE ( 'NONE', #92, 0.1000000000000000888 ) ;
#190 = EDGE_CURVE ( 'NONE', #163, #29, #10, .T. ) ;
#191 = EDGE_LOOP ( 'NONE', ( #209, #99, #112, #95, #216, #177, #70, #52 ) ) ;
#192 = UNCERTAINTY_MEASURE_WITH_UNIT (LENGTH_MEASURE( 1.000000000000000082E-05 ), #111, 'distance_accuracy_value', 'NONE');
#193 = DIRECTION ( 'NONE',  ( 1.000000000000000000, 0.000000000000000000, -0.000000000000000000 ) ) ;
#194 = CARTESIAN_POINT ( 'NONE',  ( 0.5454208221467989892, 0.4353003287851091585, 0.000000000000000000 ) ) ;
#195 = VERTEX_POINT ( 'NONE', #103 ) ;
#196 = VERTEX_POINT ( 'NONE', #165 ) ;
#197 = AXIS2_PLACEMENT_3D ( 'NONE', #55, #119, #96 ) ;
#198 = LINE ( 'NONE', #39, #13 ) ;
#199 = ADVANCED_FACE ( 'NONE', ( #5 ), #65, .T. ) ;
#200 = DIRECTION ( 'NONE',  ( 0.6427876096865434707, 0.7660444431189745718, -0.000000000000000000 ) ) ;
#201 = DIRECTION ( 'NONE',  ( -2.168404344971009115E-16, -1.000000000000000000, 0.000000000000000000 ) ) ;
#202 = DIRECTION ( 'NONE',  ( 1.000000000000000000, 0.000000000000000000, 0.000000000000000000 ) ) ;
#203 = EDGE_CURVE ( 'NONE', #1, #155, #204, .T. ) ;
#204 = LINE ( 'NONE', #145, #146 ) ;
#205 = CARTESIAN_POINT ( 'NONE',  ( 0.5170722415841368935, 0.4710125227245443025, 3.388131789017201356E-19 ) ) ;
#206 = EDGE_CURVE ( 'NONE', #51, #137, #38, .T. ) ;
#207 = ORIENTED_EDGE ( 'NONE', *, *, #122, .T. ) ;
#208 = CARTESIAN_POINT ( 'NONE',  ( 0.5274029991892373870, 0.4501054035773002782, 3.388131789017201356E-19 ) ) ;
#209 = ORIENTED_EDGE ( 'NONE', *, *, #79, .T. ) ;
#210 = OPEN_SHELL ( 'NONE', ( #149, #199, #41, #15, #3 ) ) ;
#211 = DIRECTION ( 'NONE',  ( 1.000000000000000000, 9.637352644315578973E-16, 0.000000000000000000 ) ) ;
#212 = EDGE_CURVE ( 'NONE', #155, #163, #26, .T. ) ;
#213 = ORIENTED_EDGE ( 'NONE', *, *, #12, .T. ) ;
#214 = ORIENTED_EDGE ( 'NONE', *, *, #162, .F. ) ;
#215 = VECTOR ( 'NONE', #132, 100.0000000000000000 ) ;
#216 = ORIENTED_EDGE ( 'NONE', *, *, #203, .T. ) ;
#217 = ORIENTED_EDGE ( 'NONE', *, *, #206, .T. ) ;
#218 = CARTESIAN_POINT ( 'NONE',  ( 0.7207000000000001183, 0.4000000000000000222, 0.000000000000000000 ) ) ;
#219 = CARTESIAN_POINT ( 'NONE',  ( 0.6761609103232110174, 0.4999024459255766439, 0.000000000000000000 ) ) ;
#220 = VECTOR ( 'NONE', #91, 100.0000000000000142 ) ;
#221 = CARTESIAN_POINT ( 'NONE',  ( 0.6793040201319002769, 0.4399756330807639282, 0.000000000000000000 ) ) ;
#222 = CARTESIAN_POINT ( 'NONE',  ( 0.5781276831446892084, 0.4084254102984478663, 3.388131789017201356E-19 ) ) ;
#223 = LINE ( 'NONE', #147, #220 ) ;
#224 = DIRECTION ( 'NONE',  ( -0.000000000000000000, -0.000000000000000000, -1.000000000000000000 ) ) ;
#225 = EDGE_CURVE ( 'NONE', #35, #137, #226, .T. ) ;
#226 = LINE ( 'NONE', #28, #104 ) ;
#227 = ORIENTED_EDGE ( 'NONE', *, *, #169, .T. ) ;
#228 = EDGE_CURVE ( 'NONE', #29, #130, #18, .T. ) ;
#229 = AXIS2_PLACEMENT_3D ( 'NONE', #20, #69, #193 ) ;
#230 = CARTESIAN_POINT ( 'NONE',  ( 0.5162583780001556155, 0.4943185264531776979, 0.000000000000000000 ) ) ;
#231 = EDGE_CURVE ( 'NONE', #35, #17, #107, .T. ) ;
#232 = ORIENTED_EDGE ( 'NONE', *, *, #60, .T. ) ;
#233 = CARTESIAN_POINT ( 'NONE',  ( 0.4836978324322092071, 0.3430900555020507392, 0.000000000000000000 ) ) ;
ENDSEC;
END-ISO-10303-21;
