ISO-10303-21;
HEADER;
FILE_DESCRIPTION (( 'STEP AP214' ),
    '1' );
FILE_NAME ('BCS_I_0.08.STEP',
    '2026-09-22T21:13:44',
    ( '' ),
    ( '' ),
    'SwSTEP 2.0',
    'SolidWorks 2026',
    '' );
FILE_SCHEMA (( 'AUTOMOTIVE_DESIGN' ));
ENDSEC;

DATA;
#1 = AXIS2_PLACEMENT_3D ( 'NONE', #152, #168, #107 ) ;
#2 = CARTESIAN_POINT ( 'NONE',  ( 0.7806999999999999496, 0.4000000000000000222, 0.000000000000000000 ) ) ;
#3 = VERTEX_POINT ( 'NONE', #147 ) ;
#4 = AXIS2_PLACEMENT_3D ( 'NONE', #53, #90, #61 ) ;
#5 = ORIENTED_EDGE ( 'NONE', *, *, #101, .T. ) ;
#6 = EDGE_CURVE ( 'NONE', #157, #113, #132, .T. ) ;
#7 = CARTESIAN_POINT ( 'NONE',  ( 0.4806407106370307325, 0.3394467196196486736, 0.000000000000000000 ) ) ;
#8 = LINE ( 'NONE', #49, #57 ) ;
#9 = AXIS2_PLACEMENT_3D ( 'NONE', #104, #37, #149 ) ;
#10 = DIRECTION ( 'NONE',  ( 0.000000000000000000, 0.000000000000000000, 1.000000000000000000 ) ) ;
#11 = DIRECTION ( 'NONE',  ( 1.000000000000000000, 0.000000000000000000, 0.000000000000000000 ) ) ;
#12 = CARTESIAN_POINT ( 'NONE',  ( 0.5165126154894547073, 0.5377695737867623782, 0.000000000000000000 ) ) ;
#13 = PRODUCT ( 'BCS_I_0.08', 'BCS_I_0.08', '', ( #141 ) ) ;
#14 = CARTESIAN_POINT ( 'NONE',  ( 0.3657340441691845911, 0.4358648610726302275, 0.000000000000000000 ) ) ;
#15 = APPLICATION_PROTOCOL_DEFINITION ( 'draft international standard', 'automotive_design', 1998, #172 ) ;
#16 = PRODUCT_DEFINITION_FORMATION_WITH_SPECIFIED_SOURCE ( 'ANY', '', #13, .NOT_KNOWN. ) ;
#17 = ORIENTED_EDGE ( 'NONE', *, *, #156, .T. ) ;
#18 = PRODUCT_DEFINITION_SHAPE ( 'NONE', 'NONE',  #174 ) ;
#19 = VERTEX_POINT ( 'NONE', #2 ) ;
#20 = VERTEX_POINT ( 'NONE', #175 ) ;
#21 = AXIS2_PLACEMENT_3D ( 'NONE', #39, #105, #11 ) ;
#22 = ORIENTED_EDGE ( 'NONE', *, *, #29, .T. ) ;
#23 = DIRECTION ( 'NONE',  ( 0.000000000000000000, 0.000000000000000000, 1.000000000000000000 ) ) ;
#24 = CARTESIAN_POINT ( 'NONE',  ( 0.7806999999999999496, 0.000000000000000000, 0.000000000000000000 ) ) ;
#25 = CARTESIAN_POINT ( 'NONE',  ( 0.4040362663251332864, 0.4037254805883030984, 0.000000000000000000 ) ) ;
#26 = EDGE_CURVE ( 'NONE', #20, #83, #56, .T. ) ;
#27 = FACE_OUTER_BOUND ( 'NONE', #68, .T. ) ;
#28 = CARTESIAN_POINT ( 'NONE',  ( 0.4727903172005901156, 0.4892411498328348429, 0.000000000000000000 ) ) ;
#29 = EDGE_CURVE ( 'NONE', #113, #19, #51, .T. ) ;
#30 = AXIS2_PLACEMENT_3D ( 'NONE', #109, #183, #171 ) ;
#31 = CARTESIAN_POINT ( 'NONE',  ( 0.000000000000000000, 0.000000000000000000, 0.000000000000000000 ) ) ;
#32 = CIRCLE ( 'NONE', #181, 0.1499999999999999667 ) ;
#33 = ORIENTED_EDGE ( 'NONE', *, *, #26, .F. ) ;
#34 = ORIENTED_EDGE ( 'NONE', *, *, #26, .T. ) ;
#35 = EDGE_LOOP ( 'NONE', ( #128, #146, #158, #143, #161, #60, #86, #34, #5, #58, #45, #22, #17 ) ) ;
#36 = ORIENTED_EDGE ( 'NONE', *, *, #137, .T. ) ;
#37 = DIRECTION ( 'NONE',  ( -0.000000000000000000, -0.000000000000000000, -1.000000000000000000 ) ) ;
#38 = CARTESIAN_POINT ( 'NONE',  ( 0.06527036446661391156, -1.301042606982605321E-16, 0.000000000000000000 ) ) ;
#39 = CARTESIAN_POINT ( 'NONE',  ( 0.4727903172005901156, 0.4892411498328348429, 0.000000000000000000 ) ) ;
#40 = ADVANCED_FACE ( 'NONE', ( #27 ), #136, .T. ) ;
#41 = DIRECTION ( 'NONE',  ( 1.000000000000000000, 0.000000000000000000, 0.000000000000000000 ) ) ;
#42 = AXIS2_PLACEMENT_3D ( 'NONE', #103, #23, #77 ) ;
#43 = PRODUCT_RELATED_PRODUCT_CATEGORY ( 'part', '', ( #13 ) ) ;
#44 = VECTOR ( 'NONE', #164, 100.0000000000000142 ) ;
#45 = ORIENTED_EDGE ( 'NONE', *, *, #6, .T. ) ;
#46 = ORIENTED_EDGE ( 'NONE', *, *, #101, .F. ) ;
#47 = ORIENTED_EDGE ( 'NONE', *, *, #123, .F. ) ;
#48 = VERTEX_POINT ( 'NONE', #25 ) ;
#49 = CARTESIAN_POINT ( 'NONE',  ( 0.6754664043757062641, 0.4998629534754573389, 0.000000000000000000 ) ) ;
#50 = CARTESIAN_POINT ( 'NONE',  ( 0.6780832021878531179, 0.4499314767377287638, 0.000000000000000000 ) ) ;
#51 = LINE ( 'NONE', #24, #116 ) ;
#52 = DIRECTION ( 'NONE',  ( 1.000000000000000000, 0.000000000000000000, 0.000000000000000000 ) ) ;
#53 = CARTESIAN_POINT ( 'NONE',  ( 0.6806999999999999718, 0.4000000000000000222, 0.000000000000000000 ) ) ;
#54 = LINE ( 'NONE', #31, #130 ) ;
#55 = EDGE_CURVE ( 'NONE', #102, #3, #32, .T. ) ;
#56 = LINE ( 'NONE', #111, #148 ) ;
#57 = VECTOR ( 'NONE', #95, 100.0000000000000284 ) ;
#58 = ORIENTED_EDGE ( 'NONE', *, *, #106, .T. ) ;
#59 = EDGE_CURVE ( 'NONE', #71, #157, #108, .T. ) ;
#60 = ORIENTED_EDGE ( 'NONE', *, *, #78, .T. ) ;
#61 = DIRECTION ( 'NONE',  ( 1.000000000000000000, 0.000000000000000000, 0.000000000000000000 ) ) ;
#62 = DIRECTION ( 'NONE',  ( -0.6427876096865434707, -0.7660444431189745718, 0.000000000000000000 ) ) ;
#63 = CARTESIAN_POINT ( 'NONE',  ( 0.7306999999999999051, 0.4000000000000000222, 0.000000000000000000 ) ) ;
#64 = CARTESIAN_POINT ( 'NONE',  ( 0.6806999999999999718, 0.4000000000000000222, 0.000000000000000000 ) ) ;
#65 = CIRCLE ( 'NONE', #4, 0.09999999999999992228 ) ;
#66 = DIRECTION ( 'NONE',  ( 0.000000000000000000, 0.000000000000000000, 1.000000000000000000 ) ) ;
#67 = EDGE_CURVE ( 'NONE', #173, #144, #74, .T. ) ;
#68 = EDGE_LOOP ( 'NONE', ( #100, #159, #129, #46, #33, #47 ) ) ;
#69 = AXIS2_PLACEMENT_3D ( 'NONE', #64, #10, #166 ) ;
#70 = CARTESIAN_POINT ( 'NONE',  ( 0.000000000000000000, 0.000000000000000000, 0.000000000000000000 ) ) ;
#71 = VERTEX_POINT ( 'NONE', #38 ) ;
#72 = ADVANCED_FACE ( 'NONE', ( #94 ), #153, .T. ) ;
#73 = CARTESIAN_POINT ( 'NONE',  ( 0.7306999999999999051, 0.4000000000000000222, 0.000000000000000000 ) ) ;
#74 = LINE ( 'NONE', #92, #139 ) ;
#75 = CARTESIAN_POINT ( 'NONE',  ( 0.4806407106370307325, 0.3394467196196486736, 0.000000000000000000 ) ) ;
#76 = DIRECTION ( 'NONE',  ( 0.000000000000000000, 0.000000000000000000, 1.000000000000000000 ) ) ;
#77 = DIRECTION ( 'NONE',  ( 1.000000000000000000, 0.000000000000000000, -0.000000000000000000 ) ) ;
#78 = EDGE_CURVE ( 'NONE', #71, #48, #115, .T. ) ;
#79 = VECTOR ( 'NONE', #179, 100.0000000000000000 ) ;
#80 = APPLICATION_PROTOCOL_DEFINITION ( 'draft international standard', 'automotive_design', 1998, #131 ) ;
#81 = AXIS2_PLACEMENT_3D ( 'NONE', #138, #66, #117 ) ;
#82 = DIRECTION ( 'NONE',  ( 1.000000000000000000, 0.000000000000000000, 0.000000000000000000 ) ) ;
#83 = VERTEX_POINT ( 'NONE', #50 ) ;
#84 = EDGE_LOOP ( 'NONE', ( #160, #36, #87 ) ) ;
#85 = EDGE_CURVE ( 'NONE', #110, #3, #112, .T. ) ;
#86 = ORIENTED_EDGE ( 'NONE', *, *, #123, .T. ) ;
#87 = ORIENTED_EDGE ( 'NONE', *, *, #55, .T. ) ;
#88 = ADVANCED_FACE ( 'NONE', ( #176 ), #135, .T. ) ;
#89 = VECTOR ( 'NONE', #114, 100.0000000000000000 ) ;
#90 = DIRECTION ( 'NONE',  ( 0.000000000000000000, 0.000000000000000000, 1.000000000000000000 ) ) ;
#91 = CARTESIAN_POINT ( 'NONE',  ( 0.6754664043757062641, 0.4998629534754573944, 0.000000000000000000 ) ) ;
#92 = CARTESIAN_POINT ( 'NONE',  ( 0.3657340441691845356, 0.4358648610726302275, 0.000000000000000000 ) ) ;
#93 = CIRCLE ( 'NONE', #177, 0.1000000000000000056 ) ;
#94 = FACE_OUTER_BOUND ( 'NONE', #84, .T. ) ;
#95 = DIRECTION ( 'NONE',  ( -0.9986295347545741663, -0.05233595624293683329, 0.000000000000000000 ) ) ;
#96 = CIRCLE ( 'NONE', #81, 0.1499999999999999667 ) ;
#97 =( NAMED_UNIT ( * ) PLANE_ANGLE_UNIT ( ) SI_UNIT ( $, .RADIAN. ) );
#98 = OPEN_SHELL ( 'NONE', ( #88, #72, #40 ) ) ;
#99 = VERTEX_POINT ( 'NONE', #63 ) ;
#100 = ORIENTED_EDGE ( 'NONE', *, *, #78, .F. ) ;
#101 = EDGE_CURVE ( 'NONE', #83, #99, #142, .T. ) ;
#102 = VERTEX_POINT ( 'NONE', #28 ) ;
#103 = CARTESIAN_POINT ( 'NONE',  ( 0.6806999999999999718, 0.4000000000000000222, 0.000000000000000000 ) ) ;
#104 = CARTESIAN_POINT ( 'NONE',  ( 0.6806999999999999718, 0.4000000000000000222, 0.000000000000000000 ) ) ;
#105 = DIRECTION ( 'NONE',  ( -0.000000000000000000, -0.000000000000000000, -1.000000000000000000 ) ) ;
#106 = EDGE_CURVE ( 'NONE', #99, #157, #118, .T. ) ;
#107 = DIRECTION ( 'NONE',  ( 1.000000000000000000, 0.000000000000000000, -0.000000000000000000 ) ) ;
#108 = LINE ( 'NONE', #150, #125 ) ;
#109 = CARTESIAN_POINT ( 'NONE',  ( 0.000000000000000000, 0.000000000000000000, 0.000000000000000000 ) ) ;
#110 = VERTEX_POINT ( 'NONE', #133 ) ;
#111 = CARTESIAN_POINT ( 'NONE',  ( 0.6780832021878531179, 0.4499314767377287638, 0.000000000000000000 ) ) ;
#112 = CIRCLE ( 'NONE', #21, 0.04000000000000002165 ) ;
#113 = VERTEX_POINT ( 'NONE', #182 ) ;
#114 = DIRECTION ( 'NONE',  ( 1.000000000000000000, 0.000000000000000000, 0.000000000000000000 ) ) ;
#115 = LINE ( 'NONE', #12, #44 ) ;
#116 = VECTOR ( 'NONE', #178, 100.0000000000000000 ) ;
#117 = DIRECTION ( 'NONE',  ( 1.000000000000000000, 0.000000000000000000, 0.000000000000000000 ) ) ;
#118 = LINE ( 'NONE', #73, #79 ) ;
#119 = CARTESIAN_POINT ( 'NONE',  ( 0.6754664043757062641, 0.4998629534754573389, 0.000000000000000000 ) ) ;
#120 = EDGE_CURVE ( 'NONE', #126, #110, #165, .T. ) ;
#121 = CARTESIAN_POINT ( 'NONE',  ( 0.000000000000000000, 0.000000000000000000, 0.000000000000000000 ) ) ;
#122 =( NAMED_UNIT ( * ) SI_UNIT ( $, .STERADIAN. ) SOLID_ANGLE_UNIT ( ) );
#123 = EDGE_CURVE ( 'NONE', #48, #20, #93, .T. ) ;
#124 = SHELL_BASED_SURFACE_MODEL ( 'NONE', ( #98 ) );
#125 = VECTOR ( 'NONE', #52, 100.0000000000000000 ) ;
#126 = VERTEX_POINT ( 'NONE', #91 ) ;
#127 = DIRECTION ( 'NONE',  ( 0.9986295347545741663, 0.05233595624293766596, -0.000000000000000000 ) ) ;
#128 = ORIENTED_EDGE ( 'NONE', *, *, #120, .T. ) ;
#129 = ORIENTED_EDGE ( 'NONE', *, *, #106, .F. ) ;
#130 = VECTOR ( 'NONE', #82, 100.0000000000000000 ) ;
#131 = APPLICATION_CONTEXT ( 'automotive_design' ) ;
#132 = LINE ( 'NONE', #70, #89 ) ;
#133 = CARTESIAN_POINT ( 'NONE',  ( 0.5127354985907730534, 0.4913345880825523149, 0.000000000000000000 ) ) ;
#134 = DIRECTION ( 'NONE',  ( -0.000000000000000000, -0.000000000000000000, -1.000000000000000000 ) ) ;
#135 = PLANE ( 'NONE',  #69 ) ;
#136 = PLANE ( 'NONE',  #42 ) ;
#137 = EDGE_CURVE ( 'NONE', #110, #102, #8, .T. ) ;
#138 = CARTESIAN_POINT ( 'NONE',  ( 0.4806407106370307325, 0.3394467196196486736, 0.000000000000000000 ) ) ;
#139 = VECTOR ( 'NONE', #62, 100.0000000000000142 ) ;
#140 = EDGE_CURVE ( 'NONE', #3, #173, #96, .T. ) ;
#141 = PRODUCT_CONTEXT ( 'NONE', #131, 'mechanical' ) ;
#142 = CIRCLE ( 'NONE', #9, 0.04999999999999996114 ) ;
#143 = ORIENTED_EDGE ( 'NONE', *, *, #67, .T. ) ;
#144 = VERTEX_POINT ( 'NONE', #121 ) ;
#145 = UNCERTAINTY_MEASURE_WITH_UNIT (LENGTH_MEASURE( 1.000000000000000082E-05 ), #169, 'distance_accuracy_value', 'NONE');
#146 = ORIENTED_EDGE ( 'NONE', *, *, #85, .T. ) ;
#147 = CARTESIAN_POINT ( 'NONE',  ( 0.4334809214558478785, 0.4818403791849060203, 0.000000000000000000 ) ) ;
#148 = VECTOR ( 'NONE', #127, 100.0000000000000142 ) ;
#149 = DIRECTION ( 'NONE',  ( 1.000000000000000000, 0.000000000000000000, 0.000000000000000000 ) ) ;
#150 = CARTESIAN_POINT ( 'NONE',  ( 0.000000000000000000, 0.000000000000000000, 0.000000000000000000 ) ) ;
#151 = DIRECTION ( 'NONE',  ( 1.000000000000000000, 0.000000000000000000, 0.000000000000000000 ) ) ;
#152 = CARTESIAN_POINT ( 'NONE',  ( 0.6806999999999999718, 0.4000000000000000222, 0.000000000000000000 ) ) ;
#153 = PLANE ( 'NONE',  #1 ) ;
#154 = VECTOR ( 'NONE', #180, 100.0000000000000284 ) ;
#155 = SHAPE_DEFINITION_REPRESENTATION ( #18, #167 ) ;
#156 = EDGE_CURVE ( 'NONE', #19, #126, #65, .T. ) ;
#157 = VERTEX_POINT ( 'NONE', #163 ) ;
#158 = ORIENTED_EDGE ( 'NONE', *, *, #140, .T. ) ;
#159 = ORIENTED_EDGE ( 'NONE', *, *, #59, .T. ) ;
#160 = ORIENTED_EDGE ( 'NONE', *, *, #85, .F. ) ;
#161 = ORIENTED_EDGE ( 'NONE', *, *, #170, .T. ) ;
#162 =( GEOMETRIC_REPRESENTATION_CONTEXT ( 3 ) GLOBAL_UNCERTAINTY_ASSIGNED_CONTEXT ( ( #145 ) ) GLOBAL_UNIT_ASSIGNED_CONTEXT ( ( #169, #97, #122 ) ) REPRESENTATION_CONTEXT ( 'NONE', 'WORKASPACE' ) );
#163 = CARTESIAN_POINT ( 'NONE',  ( 0.7306999999999997941, 0.000000000000000000, 0.000000000000000000 ) ) ;
#164 = DIRECTION ( 'NONE',  ( 0.6427876096865435818, 0.7660444431189744607, -0.000000000000000000 ) ) ;
#165 = LINE ( 'NONE', #119, #154 ) ;
#166 = DIRECTION ( 'NONE',  ( 1.000000000000000000, 0.000000000000000000, -0.000000000000000000 ) ) ;
#167 = MANIFOLD_SURFACE_SHAPE_REPRESENTATION ( 'BCS_I_0.08', ( #124, #30 ), #162 ) ;
#168 = DIRECTION ( 'NONE',  ( 0.000000000000000000, 0.000000000000000000, 1.000000000000000000 ) ) ;
#169 =( LENGTH_UNIT ( ) NAMED_UNIT ( * ) SI_UNIT ( .CENTI., .METRE. ) );
#170 = EDGE_CURVE ( 'NONE', #144, #71, #54, .T. ) ;
#171 = DIRECTION ( 'NONE',  ( 1.000000000000000000, 0.000000000000000000, 0.000000000000000000 ) ) ;
#172 = APPLICATION_CONTEXT ( 'automotive_design' ) ;
#173 = VERTEX_POINT ( 'NONE', #14 ) ;
#174 = PRODUCT_DEFINITION ( 'UNKNOWN', '', #16, #184 ) ;
#175 = CARTESIAN_POINT ( 'NONE',  ( 0.4754071150127369139, 0.4393096730951061013, 0.000000000000000000 ) ) ;
#176 = FACE_OUTER_BOUND ( 'NONE', #35, .T. ) ;
#177 = AXIS2_PLACEMENT_3D ( 'NONE', #7, #134, #41 ) ;
#178 = DIRECTION ( 'NONE',  ( 0.000000000000000000, 1.000000000000000000, 0.000000000000000000 ) ) ;
#179 = DIRECTION ( 'NONE',  ( 0.000000000000000000, -1.000000000000000000, 0.000000000000000000 ) ) ;
#180 = DIRECTION ( 'NONE',  ( -0.9986295347545741663, -0.05233595624293683329, 0.000000000000000000 ) ) ;
#181 = AXIS2_PLACEMENT_3D ( 'NONE', #75, #76, #151 ) ;
#182 = CARTESIAN_POINT ( 'NONE',  ( 0.7806999999999999496, 0.000000000000000000, 0.000000000000000000 ) ) ;
#183 = DIRECTION ( 'NONE',  ( 0.000000000000000000, 0.000000000000000000, 1.000000000000000000 ) ) ;
#184 = PRODUCT_DEFINITION_CONTEXT ( 'detailed design', #172, 'design' ) ;
ENDSEC;
END-ISO-10303-21;
