ISO-10303-21;
HEADER;
FILE_DESCRIPTION (( 'STEP AP214' ),
    '1' );
FILE_NAME ('BCS_I_0.12.STEP',
    '2026-09-22T21:13:59',
    ( '' ),
    ( '' ),
    'SwSTEP 2.0',
    'SolidWorks 2026',
    '' );
FILE_SCHEMA (( 'AUTOMOTIVE_DESIGN' ));
ENDSEC;

DATA;
#1 = CARTESIAN_POINT ( 'NONE',  ( 0.6754664043757062641, 0.4998629534754573389, 0.000000000000000000 ) ) ;
#2 = VERTEX_POINT ( 'NONE', #99 ) ;
#3 = CIRCLE ( 'NONE', #35, 0.1499999999999999667 ) ;
#4 = EDGE_CURVE ( 'NONE', #128, #83, #67, .T. ) ;
#5 = EDGE_CURVE ( 'NONE', #2, #100, #30, .T. ) ;
#6 = DIRECTION ( 'NONE',  ( 0.000000000000000000, 0.000000000000000000, 1.000000000000000000 ) ) ;
#7 = VERTEX_POINT ( 'NONE', #9 ) ;
#8 = CARTESIAN_POINT ( 'NONE',  ( 0.7306999999999999051, 0.4000000000000000222, 0.000000000000000000 ) ) ;
#9 = CARTESIAN_POINT ( 'NONE',  ( 0.4754071150127369139, 0.4393096730951061013, 0.000000000000000000 ) ) ;
#10 = ADVANCED_FACE ( 'NONE', ( #85 ), #89, .T. ) ;
#11 = VECTOR ( 'NONE', #84, 100.0000000000000000 ) ;
#12 = LINE ( 'NONE', #47, #174 ) ;
#13 = CIRCLE ( 'NONE', #147, 0.05999999999999998390 ) ;
#14 = DIRECTION ( 'NONE',  ( 1.000000000000000000, 0.000000000000000000, -0.000000000000000000 ) ) ;
#15 = CARTESIAN_POINT ( 'NONE',  ( 0.5327080892858646610, 0.4923813072074110786, 0.000000000000000000 ) ) ;
#16 = CARTESIAN_POINT ( 'NONE',  ( 0.4727903172005901156, 0.4892411498328348429, 0.000000000000000000 ) ) ;
#17 = DIRECTION ( 'NONE',  ( -0.000000000000000000, -0.000000000000000000, -1.000000000000000000 ) ) ;
#18 = PRODUCT_DEFINITION_CONTEXT ( 'detailed design', #34, 'design' ) ;
#19 = CARTESIAN_POINT ( 'NONE',  ( 0.4806407106370307325, 0.3394467196196486736, 0.000000000000000000 ) ) ;
#20 = DIRECTION ( 'NONE',  ( 1.000000000000000000, 0.000000000000000000, 0.000000000000000000 ) ) ;
#21 = DIRECTION ( 'NONE',  ( 1.000000000000000000, 0.000000000000000000, 0.000000000000000000 ) ) ;
#22 = VECTOR ( 'NONE', #179, 100.0000000000000000 ) ;
#23 = SHAPE_DEFINITION_REPRESENTATION ( #205, #171 ) ;
#24 = EDGE_CURVE ( 'NONE', #139, #63, #213, .T. ) ;
#25 = ORIENTED_EDGE ( 'NONE', *, *, #46, .F. ) ;
#26 = ORIENTED_EDGE ( 'NONE', *, *, #175, .T. ) ;
#27 = PRODUCT_RELATED_PRODUCT_CATEGORY ( 'part', '', ( #225 ) ) ;
#28 = ORIENTED_EDGE ( 'NONE', *, *, #112, .F. ) ;
#29 = ORIENTED_EDGE ( 'NONE', *, *, #96, .F. ) ;
#30 = LINE ( 'NONE', #159, #143 ) ;
#31 = VECTOR ( 'NONE', #55, 100.0000000000000284 ) ;
#32 = DIRECTION ( 'NONE',  ( 0.000000000000000000, 0.000000000000000000, 1.000000000000000000 ) ) ;
#33 = EDGE_LOOP ( 'NONE', ( #28, #66, #190, #188, #152, #51 ) ) ;
#34 = APPLICATION_CONTEXT ( 'automotive_design' ) ;
#35 = AXIS2_PLACEMENT_3D ( 'NONE', #107, #54, #59 ) ;
#36 = DIRECTION ( 'NONE',  ( 1.000000000000000000, 0.000000000000000000, 0.000000000000000000 ) ) ;
#37 = CARTESIAN_POINT ( 'NONE',  ( 0.000000000000000000, 0.000000000000000000, 0.000000000000000000 ) ) ;
#38 = LINE ( 'NONE', #1, #31 ) ;
#39 = ORIENTED_EDGE ( 'NONE', *, *, #217, .T. ) ;
#40 = DIRECTION ( 'NONE',  ( 1.000000000000000000, 0.000000000000000000, 0.000000000000000000 ) ) ;
#41 = AXIS2_PLACEMENT_3D ( 'NONE', #102, #32, #176 ) ;
#42 = VECTOR ( 'NONE', #106, 100.0000000000000142 ) ;
#43 = CARTESIAN_POINT ( 'NONE',  ( 0.000000000000000000, 0.000000000000000000, 0.000000000000000000 ) ) ;
#44 = ORIENTED_EDGE ( 'NONE', *, *, #154, .F. ) ;
#45 = APPLICATION_CONTEXT ( 'automotive_design' ) ;
#46 = EDGE_CURVE ( 'NONE', #7, #111, #12, .T. ) ;
#47 = CARTESIAN_POINT ( 'NONE',  ( 0.6780832021878531179, 0.4499314767377287638, 0.000000000000000000 ) ) ;
#48 = DIRECTION ( 'NONE',  ( 1.000000000000000000, 0.000000000000000000, 0.000000000000000000 ) ) ;
#49 = EDGE_CURVE ( 'NONE', #100, #81, #87, .T. ) ;
#50 = ORIENTED_EDGE ( 'NONE', *, *, #203, .F. ) ;
#51 = ORIENTED_EDGE ( 'NONE', *, *, #145, .T. ) ;
#52 =( GEOMETRIC_REPRESENTATION_CONTEXT ( 3 ) GLOBAL_UNCERTAINTY_ASSIGNED_CONTEXT ( ( #221 ) ) GLOBAL_UNIT_ASSIGNED_CONTEXT ( ( #183, #148, #129 ) ) REPRESENTATION_CONTEXT ( 'NONE', 'WORKASPACE' ) );
#53 = DIRECTION ( 'NONE',  ( 0.000000000000000000, 0.000000000000000000, 1.000000000000000000 ) ) ;
#54 = DIRECTION ( 'NONE',  ( 0.000000000000000000, 0.000000000000000000, 1.000000000000000000 ) ) ;
#55 = DIRECTION ( 'NONE',  ( -0.9986295347545741663, -0.05233595624293683329, 0.000000000000000000 ) ) ;
#56 = CIRCLE ( 'NONE', #120, 0.09999999999999992228 ) ;
#57 = DIRECTION ( 'NONE',  ( -0.000000000000000000, -0.000000000000000000, -1.000000000000000000 ) ) ;
#58 = EDGE_LOOP ( 'NONE', ( #50, #26, #169, #119, #60, #29, #44 ) ) ;
#59 = DIRECTION ( 'NONE',  ( 1.000000000000000000, 0.000000000000000000, 0.000000000000000000 ) ) ;
#60 = ORIENTED_EDGE ( 'NONE', *, *, #130, .T. ) ;
#61 = CARTESIAN_POINT ( 'NONE',  ( 0.6780832021878531179, 0.4499314767377287638, 0.000000000000000000 ) ) ;
#62 = VERTEX_POINT ( 'NONE', #157 ) ;
#63 = VERTEX_POINT ( 'NONE', #228 ) ;
#64 = AXIS2_PLACEMENT_3D ( 'NONE', #78, #105, #126 ) ;
#65 = VECTOR ( 'NONE', #136, 100.0000000000000284 ) ;
#66 = ORIENTED_EDGE ( 'NONE', *, *, #224, .T. ) ;
#67 = LINE ( 'NONE', #173, #65 ) ;
#68 = ADVANCED_FACE ( 'NONE', ( #69 ), #212, .T. ) ;
#69 = FACE_OUTER_BOUND ( 'NONE', #98, .T. ) ;
#70 = PRODUCT_DEFINITION_FORMATION_WITH_SPECIFIED_SOURCE ( 'ANY', '', #225, .NOT_KNOWN. ) ;
#71 = CARTESIAN_POINT ( 'NONE',  ( 0.7806999999999999496, 0.000000000000000000, 0.000000000000000000 ) ) ;
#72 = ORIENTED_EDGE ( 'NONE', *, *, #224, .F. ) ;
#73 = CARTESIAN_POINT ( 'NONE',  ( 0.6806999999999999718, 0.4000000000000000222, 0.000000000000000000 ) ) ;
#74 = PRODUCT_DEFINITION ( 'UNKNOWN', '', #70, #18 ) ;
#75 = DIRECTION ( 'NONE',  ( 0.000000000000000000, 0.000000000000000000, 1.000000000000000000 ) ) ;
#76 = DIRECTION ( 'NONE',  ( 1.000000000000000000, 0.000000000000000000, -0.000000000000000000 ) ) ;
#77 = VECTOR ( 'NONE', #36, 100.0000000000000000 ) ;
#78 = CARTESIAN_POINT ( 'NONE',  ( 0.4806407106370307325, 0.3394467196196486736, 0.000000000000000000 ) ) ;
#79 = VERTEX_POINT ( 'NONE', #88 ) ;
#80 = CIRCLE ( 'NONE', #104, 0.05999999999999998390 ) ;
#81 = VERTEX_POINT ( 'NONE', #210 ) ;
#82 = EDGE_CURVE ( 'NONE', #63, #211, #229, .T. ) ;
#83 = VERTEX_POINT ( 'NONE', #15 ) ;
#84 = DIRECTION ( 'NONE',  ( 0.000000000000000000, -1.000000000000000000, 0.000000000000000000 ) ) ;
#85 = FACE_OUTER_BOUND ( 'NONE', #191, .T. ) ;
#86 = AXIS2_PLACEMENT_3D ( 'NONE', #215, #17, #222 ) ;
#87 = LINE ( 'NONE', #71, #113 ) ;
#88 = CARTESIAN_POINT ( 'NONE',  ( 0.4040362663251332864, 0.4037254805883030984, 0.000000000000000000 ) ) ;
#89 = PLANE ( 'NONE',  #41 ) ;
#90 = DIRECTION ( 'NONE',  ( 1.000000000000000000, 0.000000000000000000, 0.000000000000000000 ) ) ;
#91 = CARTESIAN_POINT ( 'NONE',  ( 0.5085279097262179748, 0.4410454603941289520, 0.000000000000000000 ) ) ;
#92 = DIRECTION ( 'NONE',  ( 1.000000000000000000, 0.000000000000000000, 0.000000000000000000 ) ) ;
#93 = ADVANCED_FACE ( 'NONE', ( #160 ), #230, .T. ) ;
#94 = CARTESIAN_POINT ( 'NONE',  ( 0.6806999999999999718, 0.4000000000000000222, 0.000000000000000000 ) ) ;
#95 = AXIS2_PLACEMENT_3D ( 'NONE', #137, #134, #14 ) ;
#96 = EDGE_CURVE ( 'NONE', #194, #2, #195, .T. ) ;
#97 = APPLICATION_PROTOCOL_DEFINITION ( 'draft international standard', 'automotive_design', 1998, #45 ) ;
#98 = EDGE_LOOP ( 'NONE', ( #109, #25, #72 ) ) ;
#99 = CARTESIAN_POINT ( 'NONE',  ( 0.7306999999999997941, 0.000000000000000000, 0.000000000000000000 ) ) ;
#100 = VERTEX_POINT ( 'NONE', #226 ) ;
#101 = AXIS2_PLACEMENT_3D ( 'NONE', #73, #142, #76 ) ;
#102 = CARTESIAN_POINT ( 'NONE',  ( 0.6806999999999999718, 0.4000000000000000222, 0.000000000000000000 ) ) ;
#103 = CARTESIAN_POINT ( 'NONE',  ( 0.000000000000000000, 0.000000000000000000, 0.000000000000000000 ) ) ;
#104 = AXIS2_PLACEMENT_3D ( 'NONE', #149, #202, #90 ) ;
#105 = DIRECTION ( 'NONE',  ( -0.000000000000000000, -0.000000000000000000, -1.000000000000000000 ) ) ;
#106 = DIRECTION ( 'NONE',  ( 0.9986295347545741663, 0.05233595624293766596, -0.000000000000000000 ) ) ;
#107 = CARTESIAN_POINT ( 'NONE',  ( 0.4806407106370307325, 0.3394467196196486736, 0.000000000000000000 ) ) ;
#108 = CARTESIAN_POINT ( 'NONE',  ( 0.5165126154894547073, 0.5377695737867623782, 0.000000000000000000 ) ) ;
#109 = ORIENTED_EDGE ( 'NONE', *, *, #175, .F. ) ;
#110 = DIRECTION ( 'NONE',  ( -0.000000000000000000, -0.000000000000000000, -1.000000000000000000 ) ) ;
#111 = VERTEX_POINT ( 'NONE', #91 ) ;
#112 = EDGE_CURVE ( 'NONE', #62, #172, #80, .T. ) ;
#113 = VECTOR ( 'NONE', #121, 100.0000000000000000 ) ;
#114 = AXIS2_PLACEMENT_3D ( 'NONE', #19, #219, #180 ) ;
#115 = EDGE_CURVE ( 'NONE', #172, #139, #3, .T. ) ;
#116 = VERTEX_POINT ( 'NONE', #161 ) ;
#117 = EDGE_CURVE ( 'NONE', #79, #62, #187, .T. ) ;
#118 = DIRECTION ( 'NONE',  ( -0.6427876096865434707, -0.7660444431189745718, 0.000000000000000000 ) ) ;
#119 = ORIENTED_EDGE ( 'NONE', *, *, #217, .F. ) ;
#120 = AXIS2_PLACEMENT_3D ( 'NONE', #231, #75, #40 ) ;
#121 = DIRECTION ( 'NONE',  ( 0.000000000000000000, 1.000000000000000000, 0.000000000000000000 ) ) ;
#122 = DIRECTION ( 'NONE',  ( 1.000000000000000000, 0.000000000000000000, -0.000000000000000000 ) ) ;
#123 = CARTESIAN_POINT ( 'NONE',  ( 0.6754664043757062641, 0.4998629534754573944, 0.000000000000000000 ) ) ;
#124 = LINE ( 'NONE', #108, #206 ) ;
#125 = ORIENTED_EDGE ( 'NONE', *, *, #49, .T. ) ;
#126 = DIRECTION ( 'NONE',  ( 1.000000000000000000, 0.000000000000000000, 0.000000000000000000 ) ) ;
#127 = VERTEX_POINT ( 'NONE', #61 ) ;
#128 = VERTEX_POINT ( 'NONE', #123 ) ;
#129 =( NAMED_UNIT ( * ) SI_UNIT ( $, .STERADIAN. ) SOLID_ANGLE_UNIT ( ) );
#130 = EDGE_CURVE ( 'NONE', #211, #2, #144, .T. ) ;
#131 = CIRCLE ( 'NONE', #166, 0.04999999999999996114 ) ;
#132 = ORIENTED_EDGE ( 'NONE', *, *, #112, .T. ) ;
#133 = OPEN_SHELL ( 'NONE', ( #163, #93, #10, #196, #68 ) ) ;
#134 = DIRECTION ( 'NONE',  ( 0.000000000000000000, 0.000000000000000000, 1.000000000000000000 ) ) ;
#135 = EDGE_CURVE ( 'NONE', #81, #128, #56, .T. ) ;
#136 = DIRECTION ( 'NONE',  ( -0.9986295347545741663, -0.05233595624293683329, 0.000000000000000000 ) ) ;
#137 = CARTESIAN_POINT ( 'NONE',  ( 0.6806999999999999718, 0.4000000000000000222, 0.000000000000000000 ) ) ;
#138 = AXIS2_PLACEMENT_3D ( 'NONE', #43, #6, #204 ) ;
#139 = VERTEX_POINT ( 'NONE', #182 ) ;
#140 = ORIENTED_EDGE ( 'NONE', *, *, #203, .T. ) ;
#141 = SHELL_BASED_SURFACE_MODEL ( 'NONE', ( #133 ) );
#142 = DIRECTION ( 'NONE',  ( 0.000000000000000000, 0.000000000000000000, 1.000000000000000000 ) ) ;
#143 = VECTOR ( 'NONE', #48, 100.0000000000000000 ) ;
#144 = LINE ( 'NONE', #37, #77 ) ;
#145 = EDGE_CURVE ( 'NONE', #116, #172, #218, .T. ) ;
#146 = CARTESIAN_POINT ( 'NONE',  ( 0.4806407106370307325, 0.3394467196196486736, 0.000000000000000000 ) ) ;
#147 = AXIS2_PLACEMENT_3D ( 'NONE', #16, #110, #92 ) ;
#148 =( NAMED_UNIT ( * ) PLANE_ANGLE_UNIT ( ) SI_UNIT ( $, .RADIAN. ) );
#149 = CARTESIAN_POINT ( 'NONE',  ( 0.4727903172005901156, 0.4892411498328348429, 0.000000000000000000 ) ) ;
#150 = AXIS2_PLACEMENT_3D ( 'NONE', #146, #57, #20 ) ;
#151 = PRODUCT_CONTEXT ( 'NONE', #45, 'mechanical' ) ;
#152 = ORIENTED_EDGE ( 'NONE', *, *, #199, .T. ) ;
#153 = CARTESIAN_POINT ( 'NONE',  ( 0.3657340441691845356, 0.4358648610726302275, 0.000000000000000000 ) ) ;
#154 = EDGE_CURVE ( 'NONE', #127, #194, #131, .T. ) ;
#155 = AXIS2_PLACEMENT_3D ( 'NONE', #214, #53, #122 ) ;
#156 = ORIENTED_EDGE ( 'NONE', *, *, #115, .T. ) ;
#157 = CARTESIAN_POINT ( 'NONE',  ( 0.4488050389059886069, 0.4342438187600408117, 0.000000000000000000 ) ) ;
#158 = EDGE_CURVE ( 'NONE', #83, #111, #13, .T. ) ;
#159 = CARTESIAN_POINT ( 'NONE',  ( 0.000000000000000000, 0.000000000000000000, 0.000000000000000000 ) ) ;
#160 = FACE_OUTER_BOUND ( 'NONE', #200, .T. ) ;
#161 = CARTESIAN_POINT ( 'NONE',  ( 0.4727903172005901156, 0.4892411498328348429, 0.000000000000000000 ) ) ;
#162 = FACE_OUTER_BOUND ( 'NONE', #58, .T. ) ;
#163 = ADVANCED_FACE ( 'NONE', ( #162 ), #201, .T. ) ;
#164 = CARTESIAN_POINT ( 'NONE',  ( 0.6806999999999999718, 0.4000000000000000222, 0.000000000000000000 ) ) ;
#165 = DIRECTION ( 'NONE',  ( 0.000000000000000000, 0.000000000000000000, 1.000000000000000000 ) ) ;
#166 = AXIS2_PLACEMENT_3D ( 'NONE', #94, #168, #21 ) ;
#167 = ORIENTED_EDGE ( 'NONE', *, *, #154, .T. ) ;
#168 = DIRECTION ( 'NONE',  ( -0.000000000000000000, -0.000000000000000000, -1.000000000000000000 ) ) ;
#169 = ORIENTED_EDGE ( 'NONE', *, *, #117, .F. ) ;
#170 = ORIENTED_EDGE ( 'NONE', *, *, #24, .T. ) ;
#171 = MANIFOLD_SURFACE_SHAPE_REPRESENTATION ( 'BCS_I_0.12', ( #141, #138 ), #52 ) ;
#172 = VERTEX_POINT ( 'NONE', #232 ) ;
#173 = CARTESIAN_POINT ( 'NONE',  ( 0.6754664043757062641, 0.4998629534754573389, 0.000000000000000000 ) ) ;
#174 = VECTOR ( 'NONE', #178, 100.0000000000000142 ) ;
#175 = EDGE_CURVE ( 'NONE', #111, #62, #235, .T. ) ;
#176 = DIRECTION ( 'NONE',  ( 1.000000000000000000, 0.000000000000000000, -0.000000000000000000 ) ) ;
#177 = AXIS2_PLACEMENT_3D ( 'NONE', #164, #165, #233 ) ;
#178 = DIRECTION ( 'NONE',  ( 0.9986295347545741663, 0.05233595624293766596, -0.000000000000000000 ) ) ;
#179 = DIRECTION ( 'NONE',  ( 1.000000000000000000, 0.000000000000000000, 0.000000000000000000 ) ) ;
#180 = DIRECTION ( 'NONE',  ( 1.000000000000000000, 0.000000000000000000, 0.000000000000000000 ) ) ;
#181 = CARTESIAN_POINT ( 'NONE',  ( 0.06527036446661391156, -1.301042606982605321E-16, 0.000000000000000000 ) ) ;
#182 = CARTESIAN_POINT ( 'NONE',  ( 0.3657340441691845911, 0.4358648610726302275, 0.000000000000000000 ) ) ;
#183 =( LENGTH_UNIT ( ) NAMED_UNIT ( * ) SI_UNIT ( .CENTI., .METRE. ) );
#184 = ORIENTED_EDGE ( 'NONE', *, *, #117, .T. ) ;
#185 = FACE_OUTER_BOUND ( 'NONE', #33, .T. ) ;
#186 = APPLICATION_PROTOCOL_DEFINITION ( 'draft international standard', 'automotive_design', 1998, #34 ) ;
#187 = CIRCLE ( 'NONE', #64, 0.1000000000000000056 ) ;
#188 = ORIENTED_EDGE ( 'NONE', *, *, #158, .F. ) ;
#189 = ORIENTED_EDGE ( 'NONE', *, *, #96, .T. ) ;
#190 = ORIENTED_EDGE ( 'NONE', *, *, #46, .T. ) ;
#191 = EDGE_LOOP ( 'NONE', ( #207, #192, #140, #167, #189, #234, #125, #223 ) ) ;
#192 = ORIENTED_EDGE ( 'NONE', *, *, #158, .T. ) ;
#193 = CIRCLE ( 'NONE', #150, 0.1000000000000000056 ) ;
#194 = VERTEX_POINT ( 'NONE', #216 ) ;
#195 = LINE ( 'NONE', #8, #11 ) ;
#196 = ADVANCED_FACE ( 'NONE', ( #185 ), #197, .T. ) ;
#197 = PLANE ( 'NONE',  #177 ) ;
#198 = DIRECTION ( 'NONE',  ( 0.6427876096865435818, 0.7660444431189744607, -0.000000000000000000 ) ) ;
#199 = EDGE_CURVE ( 'NONE', #83, #116, #38, .T. ) ;
#200 = EDGE_LOOP ( 'NONE', ( #184, #132, #156, #170, #208, #39 ) ) ;
#201 = PLANE ( 'NONE',  #101 ) ;
#202 = DIRECTION ( 'NONE',  ( -0.000000000000000000, -0.000000000000000000, -1.000000000000000000 ) ) ;
#203 = EDGE_CURVE ( 'NONE', #111, #127, #227, .T. ) ;
#204 = DIRECTION ( 'NONE',  ( 1.000000000000000000, 0.000000000000000000, 0.000000000000000000 ) ) ;
#205 = PRODUCT_DEFINITION_SHAPE ( 'NONE', 'NONE',  #74 ) ;
#206 = VECTOR ( 'NONE', #198, 100.0000000000000142 ) ;
#207 = ORIENTED_EDGE ( 'NONE', *, *, #4, .T. ) ;
#208 = ORIENTED_EDGE ( 'NONE', *, *, #82, .T. ) ;
#209 = VECTOR ( 'NONE', #118, 100.0000000000000142 ) ;
#210 = CARTESIAN_POINT ( 'NONE',  ( 0.7806999999999999496, 0.4000000000000000222, 0.000000000000000000 ) ) ;
#211 = VERTEX_POINT ( 'NONE', #181 ) ;
#212 = PLANE ( 'NONE',  #95 ) ;
#213 = LINE ( 'NONE', #153, #209 ) ;
#214 = CARTESIAN_POINT ( 'NONE',  ( 0.6806999999999999718, 0.4000000000000000222, 0.000000000000000000 ) ) ;
#215 = CARTESIAN_POINT ( 'NONE',  ( 0.4727903172005901156, 0.4892411498328348429, 0.000000000000000000 ) ) ;
#216 = CARTESIAN_POINT ( 'NONE',  ( 0.7306999999999999051, 0.4000000000000000222, 0.000000000000000000 ) ) ;
#217 = EDGE_CURVE ( 'NONE', #211, #79, #124, .T. ) ;
#218 = CIRCLE ( 'NONE', #114, 0.1499999999999999667 ) ;
#219 = DIRECTION ( 'NONE',  ( 0.000000000000000000, 0.000000000000000000, 1.000000000000000000 ) ) ;
#220 = CARTESIAN_POINT ( 'NONE',  ( 0.6780832021878531179, 0.4499314767377287638, 0.000000000000000000 ) ) ;
#221 = UNCERTAINTY_MEASURE_WITH_UNIT (LENGTH_MEASURE( 1.000000000000000082E-05 ), #183, 'distance_accuracy_value', 'NONE');
#222 = DIRECTION ( 'NONE',  ( 1.000000000000000000, 0.000000000000000000, 0.000000000000000000 ) ) ;
#223 = ORIENTED_EDGE ( 'NONE', *, *, #135, .T. ) ;
#224 = EDGE_CURVE ( 'NONE', #62, #7, #193, .T. ) ;
#225 = PRODUCT ( 'BCS_I_0.12', 'BCS_I_0.12', '', ( #151 ) ) ;
#226 = CARTESIAN_POINT ( 'NONE',  ( 0.7806999999999999496, 0.000000000000000000, 0.000000000000000000 ) ) ;
#227 = LINE ( 'NONE', #220, #42 ) ;
#228 = CARTESIAN_POINT ( 'NONE',  ( 0.000000000000000000, 0.000000000000000000, 0.000000000000000000 ) ) ;
#229 = LINE ( 'NONE', #103, #22 ) ;
#230 = PLANE ( 'NONE',  #155 ) ;
#231 = CARTESIAN_POINT ( 'NONE',  ( 0.6806999999999999718, 0.4000000000000000222, 0.000000000000000000 ) ) ;
#232 = CARTESIAN_POINT ( 'NONE',  ( 0.4147111614221852260, 0.4741808821038801525, 0.000000000000000000 ) ) ;
#233 = DIRECTION ( 'NONE',  ( 1.000000000000000000, 0.000000000000000000, -0.000000000000000000 ) ) ;
#234 = ORIENTED_EDGE ( 'NONE', *, *, #5, .T. ) ;
#235 = CIRCLE ( 'NONE', #86, 0.05999999999999998390 ) ;
ENDSEC;
END-ISO-10303-21;
