ISO-10303-21;
HEADER;
FILE_DESCRIPTION (( 'STEP AP214' ),
    '1' );
FILE_NAME ('BCS_0.04.STEP',
    '2026-09-14T16:18:15',
    ( '' ),
    ( '' ),
    'SwSTEP 2.0',
    'SolidWorks 2026',
    '' );
FILE_SCHEMA (( 'AUTOMOTIVE_DESIGN' ));
ENDSEC;

DATA;
#1 = EDGE_LOOP ( 'NONE', ( #3, #48, #33, #118, #51, #128 ) ) ;
#2 = DIRECTION ( 'NONE',  ( 1.000000000000000000, 0.000000000000000000, 0.000000000000000000 ) ) ;
#3 = ORIENTED_EDGE ( 'NONE', *, *, #17, .F. ) ;
#4 = ORIENTED_EDGE ( 'NONE', *, *, #53, .T. ) ;
#5 = ADVANCED_FACE ( 'NONE', ( #137 ), #97, .T. ) ;
#6 = CARTESIAN_POINT ( 'NONE',  ( 0.6806999999999999718, 0.4000000000000000222, 0.000000000000000000 ) ) ;
#7 = CARTESIAN_POINT ( 'NONE',  ( 0.4116967107563230255, 0.3972976044914376392, 0.000000000000000000 ) ) ;
#8 = VERTEX_POINT ( 'NONE', #149 ) ;
#9 = CARTESIAN_POINT ( 'NONE',  ( 0.6806999999999999718, 0.4000000000000000222, 0.000000000000000000 ) ) ;
#10 = CARTESIAN_POINT ( 'NONE',  ( 0.6806999999999999718, 0.4000000000000000222, 0.000000000000000000 ) ) ;
#11 = CARTESIAN_POINT ( 'NONE',  ( 0.5762997701764629443, 0.4546109565581848422, 3.388131789017201356E-19 ) ) ;
#12 = APPLICATION_PROTOCOL_DEFINITION ( 'draft international standard', 'automotive_design', 1998, #165 ) ;
#13 = CIRCLE ( 'NONE', #98, 0.09999999999999992228 ) ;
#14 = LINE ( 'NONE', #34, #148 ) ;
#15 = PRODUCT_CONTEXT ( 'NONE', #71, 'mechanical' ) ;
#16 = ORIENTED_EDGE ( 'NONE', *, *, #150, .T. ) ;
#17 = EDGE_CURVE ( 'NONE', #50, #66, #99, .T. ) ;
#18 = ORIENTED_EDGE ( 'NONE', *, *, #37, .T. ) ;
#19 = DIRECTION ( 'NONE',  ( -0.000000000000000000, -0.000000000000000000, -1.000000000000000000 ) ) ;
#20 = EDGE_CURVE ( 'NONE', #156, #181, #125, .T. ) ;
#21 = VECTOR ( 'NONE', #46, 100.0000000000000284 ) ;
#22 = PRODUCT ( 'BCS_0.04', 'BCS_0.04', '', ( #15 ) ) ;
#23 = CARTESIAN_POINT ( 'NONE',  ( 0.6754664043757062641, 0.4998629534754573389, 0.000000000000000000 ) ) ;
#24 = DIRECTION ( 'NONE',  ( 0.6427876096865435818, 0.7660444431189745718, -0.000000000000000000 ) ) ;
#25 = ORIENTED_EDGE ( 'NONE', *, *, #107, .T. ) ;
#26 = ADVANCED_FACE ( 'NONE', ( #138 ), #36, .T. ) ;
#27 = VERTEX_POINT ( 'NONE', #179 ) ;
#28 = CARTESIAN_POINT ( 'NONE',  ( 0.6754664043757062641, 0.4998629534754573389, 0.000000000000000000 ) ) ;
#29 = CARTESIAN_POINT ( 'NONE',  ( 0.4806407106370307325, 0.3394467196196486736, 0.000000000000000000 ) ) ;
#30 = ORIENTED_EDGE ( 'NONE', *, *, #182, .T. ) ;
#31 = VECTOR ( 'NONE', #70, 100.0000000000000000 ) ;
#32 = LINE ( 'NONE', #44, #68 ) ;
#33 = ORIENTED_EDGE ( 'NONE', *, *, #20, .F. ) ;
#34 = CARTESIAN_POINT ( 'NONE',  ( 0.3657340441691845356, 0.4358648610726302275, 0.000000000000000000 ) ) ;
#35 = ORIENTED_EDGE ( 'NONE', *, *, #173, .T. ) ;
#36 = PLANE ( 'NONE',  #176 ) ;
#37 = EDGE_CURVE ( 'NONE', #66, #170, #56, .T. ) ;
#38 = CARTESIAN_POINT ( 'NONE',  ( 0.07832443735993684097, -1.734723475976807094E-16, 0.000000000000000000 ) ) ;
#39 = CARTESIAN_POINT ( 'NONE',  ( 0.7806999999999999496, 0.4000000000000000222, 0.000000000000000000 ) ) ;
#40 = VECTOR ( 'NONE', #127, 100.0000000000000284 ) ;
#41 = FACE_OUTER_BOUND ( 'NONE', #69, .T. ) ;
#42 = EDGE_CURVE ( 'NONE', #64, #80, #111, .T. ) ;
#43 = LINE ( 'NONE', #122, #31 ) ;
#44 = CARTESIAN_POINT ( 'NONE',  ( 0.6786065617502824443, 0.4399451813901830155, 0.000000000000000000 ) ) ;
#45 = DIRECTION ( 'NONE',  ( 1.000000000000000000, 0.000000000000000000, 0.000000000000000000 ) ) ;
#46 = DIRECTION ( 'NONE',  ( -0.9986295347545741663, -0.05233595624293683329, 0.000000000000000000 ) ) ;
#47 =( NAMED_UNIT ( * ) SI_UNIT ( $, .STERADIAN. ) SOLID_ANGLE_UNIT ( ) );
#48 = ORIENTED_EDGE ( 'NONE', *, *, #57, .T. ) ;
#49 = VECTOR ( 'NONE', #177, 100.0000000000000284 ) ;
#50 = VERTEX_POINT ( 'NONE', #38 ) ;
#51 = ORIENTED_EDGE ( 'NONE', *, *, #168, .F. ) ;
#52 = ORIENTED_EDGE ( 'NONE', *, *, #17, .T. ) ;
#53 = EDGE_CURVE ( 'NONE', #181, #85, #134, .T. ) ;
#54 = CARTESIAN_POINT ( 'NONE',  ( 0.6786065617502824443, 0.4399451813901830155, 0.000000000000000000 ) ) ;
#55 = CARTESIAN_POINT ( 'NONE',  ( 0.7806999999999999496, 0.000000000000000000, 0.000000000000000000 ) ) ;
#56 = CIRCLE ( 'NONE', #119, 0.09000000000000006606 ) ;
#57 = EDGE_CURVE ( 'NONE', #50, #181, #133, .T. ) ;
#58 = PLANE ( 'NONE',  #132 ) ;
#59 = AXIS2_PLACEMENT_3D ( 'NONE', #6, #19, #100 ) ;
#60 = PRODUCT_DEFINITION_SHAPE ( 'NONE', 'NONE',  #91 ) ;
#61 = DIRECTION ( 'NONE',  ( 0.000000000000000000, 0.000000000000000000, 1.000000000000000000 ) ) ;
#62 = CARTESIAN_POINT ( 'NONE',  ( 0.7207000000000000073, 0.4000000000000000222, 0.000000000000000000 ) ) ;
#63 = APPLICATION_PROTOCOL_DEFINITION ( 'draft international standard', 'automotive_design', 1998, #71 ) ;
#64 = VERTEX_POINT ( 'NONE', #114 ) ;
#65 = PRODUCT_RELATED_PRODUCT_CATEGORY ( 'part', '', ( #22 ) ) ;
#66 = VERTEX_POINT ( 'NONE', #7 ) ;
#67 = ORIENTED_EDGE ( 'NONE', *, *, #42, .T. ) ;
#68 = VECTOR ( 'NONE', #139, 100.0000000000000142 ) ;
#69 = EDGE_LOOP ( 'NONE', ( #16, #106, #30, #35, #109, #110, #52, #18, #86, #25, #104, #4, #171, #144 ) ) ;
#70 = DIRECTION ( 'NONE',  ( 1.000000000000000000, 0.000000000000000000, 0.000000000000000000 ) ) ;
#71 = APPLICATION_CONTEXT ( 'automotive_design' ) ;
#72 = DIRECTION ( 'NONE',  ( 1.000000000000000000, 0.000000000000000000, 0.000000000000000000 ) ) ;
#73 = CARTESIAN_POINT ( 'NONE',  ( 0.6806999999999999718, 0.4000000000000000222, 0.000000000000000000 ) ) ;
#74 = VECTOR ( 'NONE', #161, 100.0000000000000000 ) ;
#75 = DIRECTION ( 'NONE',  ( 0.000000000000000000, 0.000000000000000000, 1.000000000000000000 ) ) ;
#76 = DIRECTION ( 'NONE',  ( 0.000000000000000000, 0.000000000000000000, 1.000000000000000000 ) ) ;
#77 = EDGE_CURVE ( 'NONE', #8, #50, #43, .T. ) ;
#78 = VERTEX_POINT ( 'NONE', #121 ) ;
#79 = OPEN_SHELL ( 'NONE', ( #82, #26, #5 ) ) ;
#80 = VERTEX_POINT ( 'NONE', #164 ) ;
#81 = VECTOR ( 'NONE', #95, 100.0000000000000000 ) ;
#82 = ADVANCED_FACE ( 'NONE', ( #41 ), #58, .T. ) ;
#83 = CARTESIAN_POINT ( 'NONE',  ( 0.5241730599206443353, 0.5313416976898969191, 0.000000000000000000 ) ) ;
#84 = LINE ( 'NONE', #28, #21 ) ;
#85 = VERTEX_POINT ( 'NONE', #174 ) ;
#86 = ORIENTED_EDGE ( 'NONE', *, *, #168, .T. ) ;
#87 =( BOUNDED_CURVE ( )  B_SPLINE_CURVE ( 3, ( #102, #153, #11, #116 ),
 .UNSPECIFIED., .F., .F. ) 
 B_SPLINE_CURVE_WITH_KNOTS ( ( 4, 4 ),
 ( 1.570796326794892339, 4.712388980384694115 ),
 .UNSPECIFIED. ) 
 CURVE ( )  GEOMETRIC_REPRESENTATION_ITEM ( )  RATIONAL_B_SPLINE_CURVE ( ( 1.000000000000000000, 0.3333333333333303727, 0.3333333333333303727, 1.000000000000000000 ) ) 
 REPRESENTATION_ITEM ( '' )  );
#88 = AXIS2_PLACEMENT_3D ( 'NONE', #9, #61, #123 ) ;
#89 = CARTESIAN_POINT ( 'NONE',  ( 0.4759304745751662402, 0.4293233777475604085, 0.000000000000000000 ) ) ;
#90 = AXIS2_PLACEMENT_3D ( 'NONE', #29, #76, #169 ) ;
#91 = PRODUCT_DEFINITION ( 'UNKNOWN', '', #103, #180 ) ;
#92 = SHAPE_DEFINITION_REPRESENTATION ( #60, #96 ) ;
#93 = CARTESIAN_POINT ( 'NONE',  ( 0.6754664043757062641, 0.4998629534754573389, 0.000000000000000000 ) ) ;
#94 = VERTEX_POINT ( 'NONE', #147 ) ;
#95 = DIRECTION ( 'NONE',  ( 1.000000000000000000, 0.000000000000000000, 0.000000000000000000 ) ) ;
#96 = MANIFOLD_SURFACE_SHAPE_REPRESENTATION ( 'BCS_0.04', ( #140, #178 ), #172 ) ;
#97 = PLANE ( 'NONE',  #88 ) ;
#98 = AXIS2_PLACEMENT_3D ( 'NONE', #105, #115, #45 ) ;
#99 = LINE ( 'NONE', #83, #131 ) ;
#100 = DIRECTION ( 'NONE',  ( 1.000000000000000000, 0.000000000000000000, 0.000000000000000000 ) ) ;
#101 = DIRECTION ( 'NONE',  ( 1.000000000000000000, 0.000000000000000000, -0.000000000000000000 ) ) ;
#102 = CARTESIAN_POINT ( 'NONE',  ( 0.6141515133169286322, 0.4966495761980856405, 0.000000000000000000 ) ) ;
#103 = PRODUCT_DEFINITION_FORMATION_WITH_SPECIFIED_SOURCE ( 'ANY', '', #22, .NOT_KNOWN. ) ;
#104 = ORIENTED_EDGE ( 'NONE', *, *, #20, .T. ) ;
#105 = CARTESIAN_POINT ( 'NONE',  ( 0.6806999999999999718, 0.4000000000000000222, 0.000000000000000000 ) ) ;
#106 = ORIENTED_EDGE ( 'NONE', *, *, #166, .T. ) ;
#107 = EDGE_CURVE ( 'NONE', #117, #156, #142, .T. ) ;
#108 = ORIENTED_EDGE ( 'NONE', *, *, #166, .F. ) ;
#109 = ORIENTED_EDGE ( 'NONE', *, *, #157, .T. ) ;
#110 = ORIENTED_EDGE ( 'NONE', *, *, #77, .T. ) ;
#111 = LINE ( 'NONE', #23, #49 ) ;
#112 = CIRCLE ( 'NONE', #90, 0.1499999999999999667 ) ;
#113 = DIRECTION ( 'NONE',  ( 1.000000000000000000, 1.927470528863117767E-15, 0.000000000000000000 ) ) ;
#114 = CARTESIAN_POINT ( 'NONE',  ( 0.6141515133169286322, 0.4966495761980856405, 0.000000000000000000 ) ) ;
#115 = DIRECTION ( 'NONE',  ( 0.000000000000000000, 0.000000000000000000, 1.000000000000000000 ) ) ;
#116 = CARTESIAN_POINT ( 'NONE',  ( 0.5742063319267456389, 0.4945561379483681685, 0.000000000000000000 ) ) ;
#117 = VERTEX_POINT ( 'NONE', #54 ) ;
#118 = ORIENTED_EDGE ( 'NONE', *, *, #107, .F. ) ;
#119 = AXIS2_PLACEMENT_3D ( 'NONE', #124, #160, #113 ) ;
#120 = EDGE_CURVE ( 'NONE', #85, #146, #175, .T. ) ;
#121 = CARTESIAN_POINT ( 'NONE',  ( 0.4727903172005901156, 0.4892411498328348429, 0.000000000000000000 ) ) ;
#122 = CARTESIAN_POINT ( 'NONE',  ( 0.000000000000000000, 0.000000000000000000, 0.000000000000000000 ) ) ;
#123 = DIRECTION ( 'NONE',  ( 1.000000000000000000, 0.000000000000000000, -0.000000000000000000 ) ) ;
#124 = CARTESIAN_POINT ( 'NONE',  ( 0.4806407106370307325, 0.3394467196196486736, 0.000000000000000000 ) ) ;
#125 = LINE ( 'NONE', #62, #154 ) ;
#126 = CARTESIAN_POINT ( 'NONE',  ( 0.7207000000000000073, 0.4000000000000000222, 0.000000000000000000 ) ) ;
#127 = DIRECTION ( 'NONE',  ( -0.9986295347545741663, -0.05233595624293683329, 0.000000000000000000 ) ) ;
#128 = ORIENTED_EDGE ( 'NONE', *, *, #37, .F. ) ;
#129 = DIRECTION ( 'NONE',  ( 0.000000000000000000, 0.000000000000000000, 1.000000000000000000 ) ) ;
#130 = EDGE_LOOP ( 'NONE', ( #108, #67 ) ) ;
#131 = VECTOR ( 'NONE', #24, 100.0000000000000000 ) ;
#132 = AXIS2_PLACEMENT_3D ( 'NONE', #10, #75, #101 ) ;
#133 = LINE ( 'NONE', #163, #162 ) ;
#134 = LINE ( 'NONE', #136, #81 ) ;
#135 = UNCERTAINTY_MEASURE_WITH_UNIT (LENGTH_MEASURE( 1.000000000000000082E-05 ), #143, 'distance_accuracy_value', 'NONE');
#136 = CARTESIAN_POINT ( 'NONE',  ( 0.000000000000000000, 0.000000000000000000, 0.000000000000000000 ) ) ;
#137 = FACE_OUTER_BOUND ( 'NONE', #1, .T. ) ;
#138 = FACE_OUTER_BOUND ( 'NONE', #130, .T. ) ;
#139 = DIRECTION ( 'NONE',  ( 0.9986295347545741663, 0.05233595624293724963, -0.000000000000000000 ) ) ;
#140 = SHELL_BASED_SURFACE_MODEL ( 'NONE', ( #79 ) );
#141 =( NAMED_UNIT ( * ) PLANE_ANGLE_UNIT ( ) SI_UNIT ( $, .RADIAN. ) );
#142 = CIRCLE ( 'NONE', #59, 0.04000000000000002165 ) ;
#143 =( LENGTH_UNIT ( ) NAMED_UNIT ( * ) SI_UNIT ( .CENTI., .METRE. ) );
#144 = ORIENTED_EDGE ( 'NONE', *, *, #159, .T. ) ;
#145 = LINE ( 'NONE', #93, #40 ) ;
#146 = VERTEX_POINT ( 'NONE', #39 ) ;
#147 = CARTESIAN_POINT ( 'NONE',  ( 0.3657340441691845911, 0.4358648610726302275, 0.000000000000000000 ) ) ;
#148 = VECTOR ( 'NONE', #183, 100.0000000000000142 ) ;
#149 = CARTESIAN_POINT ( 'NONE',  ( 0.000000000000000000, 0.000000000000000000, 0.000000000000000000 ) ) ;
#150 = EDGE_CURVE ( 'NONE', #27, #64, #84, .T. ) ;
#151 = DIRECTION ( 'NONE',  ( 0.000000000000000000, -1.000000000000000000, 0.000000000000000000 ) ) ;
#152 = DIRECTION ( 'NONE',  ( 0.000000000000000000, 0.000000000000000000, 1.000000000000000000 ) ) ;
#153 = CARTESIAN_POINT ( 'NONE',  ( 0.6162449515666462707, 0.4567043948079023141, 3.388131789017201356E-19 ) ) ;
#154 = VECTOR ( 'NONE', #151, 100.0000000000000000 ) ;
#155 = CARTESIAN_POINT ( 'NONE',  ( 0.000000000000000000, 0.000000000000000000, 0.000000000000000000 ) ) ;
#156 = VERTEX_POINT ( 'NONE', #126 ) ;
#157 = EDGE_CURVE ( 'NONE', #94, #8, #14, .T. ) ;
#158 = DIRECTION ( 'NONE',  ( 1.000000000000000000, 0.000000000000000000, -0.000000000000000000 ) ) ;
#159 = EDGE_CURVE ( 'NONE', #146, #27, #13, .T. ) ;
#160 = DIRECTION ( 'NONE',  ( -0.000000000000000000, -0.000000000000000000, -1.000000000000000000 ) ) ;
#161 = DIRECTION ( 'NONE',  ( 0.000000000000000000, 1.000000000000000000, 0.000000000000000000 ) ) ;
#162 = VECTOR ( 'NONE', #72, 100.0000000000000000 ) ;
#163 = CARTESIAN_POINT ( 'NONE',  ( 0.000000000000000000, 0.000000000000000000, 0.000000000000000000 ) ) ;
#164 = CARTESIAN_POINT ( 'NONE',  ( 0.5742063319267456389, 0.4945561379483681685, 0.000000000000000000 ) ) ;
#165 = APPLICATION_CONTEXT ( 'automotive_design' ) ;
#166 = EDGE_CURVE ( 'NONE', #64, #80, #87, .T. ) ;
#167 = CARTESIAN_POINT ( 'NONE',  ( 0.7206999999999997852, 0.000000000000000000, 0.000000000000000000 ) ) ;
#168 = EDGE_CURVE ( 'NONE', #170, #117, #32, .T. ) ;
#169 = DIRECTION ( 'NONE',  ( 1.000000000000000000, 0.000000000000000000, 0.000000000000000000 ) ) ;
#170 = VERTEX_POINT ( 'NONE', #89 ) ;
#171 = ORIENTED_EDGE ( 'NONE', *, *, #120, .T. ) ;
#172 =( GEOMETRIC_REPRESENTATION_CONTEXT ( 3 ) GLOBAL_UNCERTAINTY_ASSIGNED_CONTEXT ( ( #135 ) ) GLOBAL_UNIT_ASSIGNED_CONTEXT ( ( #143, #141, #47 ) ) REPRESENTATION_CONTEXT ( 'NONE', 'WORKASPACE' ) );
#173 = EDGE_CURVE ( 'NONE', #78, #94, #112, .T. ) ;
#174 = CARTESIAN_POINT ( 'NONE',  ( 0.7806999999999999496, 0.000000000000000000, 0.000000000000000000 ) ) ;
#175 = LINE ( 'NONE', #55, #74 ) ;
#176 = AXIS2_PLACEMENT_3D ( 'NONE', #73, #152, #158 ) ;
#177 = DIRECTION ( 'NONE',  ( -0.9986295347545741663, -0.05233595624293683329, 0.000000000000000000 ) ) ;
#178 = AXIS2_PLACEMENT_3D ( 'NONE', #155, #129, #2 ) ;
#179 = CARTESIAN_POINT ( 'NONE',  ( 0.6754664043757062641, 0.4998629534754573944, 0.000000000000000000 ) ) ;
#180 = PRODUCT_DEFINITION_CONTEXT ( 'detailed design', #165, 'design' ) ;
#181 = VERTEX_POINT ( 'NONE', #167 ) ;
#182 = EDGE_CURVE ( 'NONE', #80, #78, #145, .T. ) ;
#183 = DIRECTION ( 'NONE',  ( -0.6427876096865434707, -0.7660444431189745718, 0.000000000000000000 ) ) ;
ENDSEC;
END-ISO-10303-21;
