ISO-10303-21;
HEADER;
FILE_DESCRIPTION (( 'STEP AP214' ),
    '1' );
FILE_NAME ('BCS_0.16.STEP',
    '2026-09-14T18:11:40',
    ( '' ),
    ( '' ),
    'SwSTEP 2.0',
    'SolidWorks 2026',
    '' );
FILE_SCHEMA (( 'AUTOMOTIVE_DESIGN' ));
ENDSEC;

DATA;
#1 = VECTOR ( 'NONE', #87, 100.0000000000000000 ) ;
#2 = CARTESIAN_POINT ( 'NONE',  ( 0.6806999999999999718, 0.4000000000000000222, 0.000000000000000000 ) ) ;
#3 = VERTEX_POINT ( 'NONE', #21 ) ;
#4 = VERTEX_POINT ( 'NONE', #6 ) ;
#5 = ORIENTED_EDGE ( 'NONE', *, *, #57, .F. ) ;
#6 = CARTESIAN_POINT ( 'NONE',  ( 0.7806999999999999496, 0.4000000000000000222, 0.000000000000000000 ) ) ;
#7 = ORIENTED_EDGE ( 'NONE', *, *, #115, .T. ) ;
#8 = CARTESIAN_POINT ( 'NONE',  ( 0.4116967107563230255, 0.3972976044914376392, 0.000000000000000000 ) ) ;
#9 = CARTESIAN_POINT ( 'NONE',  ( 0.6752897708803193844, 0.4765014833393337312, 3.388131789017201356E-19 ) ) ;
#10 = VECTOR ( 'NONE', #169, 100.0000000000000142 ) ;
#11 = LINE ( 'NONE', #37, #33 ) ;
#12 = APPLICATION_CONTEXT ( 'automotive_design' ) ;
#13 = DIRECTION ( 'NONE',  ( 1.000000000000000000, 1.927470528863117767E-15, 0.000000000000000000 ) ) ;
#14 = CARTESIAN_POINT ( 'NONE',  ( 0.7806999999999999496, 0.000000000000000000, 0.000000000000000000 ) ) ;
#15 = ADVANCED_FACE ( 'NONE', ( #147 ), #218, .T. ) ;
#16 = FACE_OUTER_BOUND ( 'NONE', #112, .T. ) ;
#17 = CARTESIAN_POINT ( 'NONE',  ( 0.000000000000000000, 0.000000000000000000, 0.000000000000000000 ) ) ;
#18 = VECTOR ( 'NONE', #63, 100.0000000000000000 ) ;
#19 = LINE ( 'NONE', #197, #192 ) ;
#20 = DIRECTION ( 'NONE',  ( 0.9986295347545741663, 0.05233595624293724963, -0.000000000000000000 ) ) ;
#21 = CARTESIAN_POINT ( 'NONE',  ( 0.6786065617502824443, 0.4399451813901830155, 0.000000000000000000 ) ) ;
#22 = AXIS2_PLACEMENT_3D ( 'NONE', #89, #39, #127 ) ;
#23 = EDGE_CURVE ( 'NONE', #4, #148, #221, .T. ) ;
#24 = AXIS2_PLACEMENT_3D ( 'NONE', #150, #58, #48 ) ;
#25 = ORIENTED_EDGE ( 'NONE', *, *, #159, .T. ) ;
#26 = VERTEX_POINT ( 'NONE', #228 ) ;
#27 = PRODUCT ( 'BCS_0.16', 'BCS_0.16', '', ( #215 ) ) ;
#28 = EDGE_LOOP ( 'NONE', ( #7, #60, #131, #46, #79, #187, #82, #133 ) ) ;
#29 = EDGE_LOOP ( 'NONE', ( #185, #25, #203, #200, #151, #96, #184, #61 ) ) ;
#30 = DIRECTION ( 'NONE',  ( 0.000000000000000000, 0.000000000000000000, 1.000000000000000000 ) ) ;
#31 = PLANE ( 'NONE',  #85 ) ;
#32 = CARTESIAN_POINT ( 'NONE',  ( 0.7207000000000000073, 0.4000000000000000222, 0.000000000000000000 ) ) ;
#33 = VECTOR ( 'NONE', #72, 100.0000000000000284 ) ;
#34 = DIRECTION ( 'NONE',  ( 0.000000000000000000, -1.000000000000000000, 0.000000000000000000 ) ) ;
#35 = DIRECTION ( 'NONE',  ( 1.000000000000000000, 0.000000000000000000, -0.000000000000000000 ) ) ;
#36 = EDGE_CURVE ( 'NONE', #77, #114, #157, .T. ) ;
#37 = CARTESIAN_POINT ( 'NONE',  ( 0.6754664043757062641, 0.4998629534754573389, 0.000000000000000000 ) ) ;
#38 = LINE ( 'NONE', #181, #153 ) ;
#39 = DIRECTION ( 'NONE',  ( 0.000000000000000000, 0.000000000000000000, 1.000000000000000000 ) ) ;
#40 = CARTESIAN_POINT ( 'NONE',  ( 0.6786065617502824443, 0.4399451813901830155, 0.000000000000000000 ) ) ;
#41 = ORIENTED_EDGE ( 'NONE', *, *, #182, .T. ) ;
#42 = EDGE_CURVE ( 'NONE', #166, #4, #194, .T. ) ;
#43 = VERTEX_POINT ( 'NONE', #83 ) ;
#44 = VERTEX_POINT ( 'NONE', #209 ) ;
#45 = ORIENTED_EDGE ( 'NONE', *, *, #139, .F. ) ;
#46 = ORIENTED_EDGE ( 'NONE', *, *, #213, .T. ) ;
#47 = CARTESIAN_POINT ( 'NONE',  ( 0.6806999999999999718, 0.4000000000000000222, 0.000000000000000000 ) ) ;
#48 = DIRECTION ( 'NONE',  ( 1.000000000000000000, 0.000000000000000000, -0.000000000000000000 ) ) ;
#49 = CARTESIAN_POINT ( 'NONE',  ( 0.6501615880133083669, 0.4384544434848639538, 0.000000000000000000 ) ) ;
#50 = CARTESIAN_POINT ( 'NONE',  ( 0.6806999999999999718, 0.4000000000000000222, 0.000000000000000000 ) ) ;
#51 = EDGE_CURVE ( 'NONE', #26, #81, #214, .T. ) ;
#52 = DIRECTION ( 'NONE',  ( 1.000000000000000000, 0.000000000000000000, 0.000000000000000000 ) ) ;
#53 = VECTOR ( 'NONE', #137, 100.0000000000000284 ) ;
#54 = APPLICATION_PROTOCOL_DEFINITION ( 'draft international standard', 'automotive_design', 1998, #12 ) ;
#55 = DIRECTION ( 'NONE',  ( 1.000000000000000000, 0.000000000000000000, 0.000000000000000000 ) ) ;
#56 = CARTESIAN_POINT ( 'NONE',  ( 0.5444765719795184866, 0.4329157264910411529, 0.000000000000000000 ) ) ;
#57 = EDGE_CURVE ( 'NONE', #114, #128, #103, .T. ) ;
#58 = DIRECTION ( 'NONE',  ( 0.000000000000000000, 0.000000000000000000, 1.000000000000000000 ) ) ;
#59 = VECTOR ( 'NONE', #232, 100.0000000000000142 ) ;
#60 = ORIENTED_EDGE ( 'NONE', *, *, #129, .T. ) ;
#61 = ORIENTED_EDGE ( 'NONE', *, *, #57, .T. ) ;
#62 =( GEOMETRIC_REPRESENTATION_CONTEXT ( 3 ) GLOBAL_UNCERTAINTY_ASSIGNED_CONTEXT ( ( #155 ) ) GLOBAL_UNIT_ASSIGNED_CONTEXT ( ( #231, #70, #210 ) ) REPRESENTATION_CONTEXT ( 'NONE', 'WORKASPACE' ) );
#63 = DIRECTION ( 'NONE',  ( 0.000000000000000000, 1.000000000000000000, 0.000000000000000000 ) ) ;
#64 = AXIS2_PLACEMENT_3D ( 'NONE', #141, #233, #55 ) ;
#65 = ADVANCED_FACE ( 'NONE', ( #104 ), #88, .T. ) ;
#66 = LINE ( 'NONE', #135, #53 ) ;
#67 = EDGE_CURVE ( 'NONE', #149, #166, #177, .T. ) ;
#68 = CARTESIAN_POINT ( 'NONE',  ( 0.6806999999999999718, 0.4000000000000000222, 0.000000000000000000 ) ) ;
#69 = CARTESIAN_POINT ( 'NONE',  ( 0.6786065617502824443, 0.4399451813901830155, 0.000000000000000000 ) ) ;
#70 =( NAMED_UNIT ( * ) PLANE_ANGLE_UNIT ( ) SI_UNIT ( $, .RADIAN. ) );
#71 = SHELL_BASED_SURFACE_MODEL ( 'NONE', ( #172 ) );
#72 = DIRECTION ( 'NONE',  ( -0.9986295347545741663, -0.05233595624293683329, 0.000000000000000000 ) ) ;
#73 = AXIS2_PLACEMENT_3D ( 'NONE', #205, #190, #52 ) ;
#74 = DIRECTION ( 'NONE',  ( 0.9986295347545741663, 0.05233595624293724963, -0.000000000000000000 ) ) ;
#75 = VECTOR ( 'NONE', #92, 100.0000000000000000 ) ;
#76 = ADVANCED_FACE ( 'NONE', ( #86 ), #134, .T. ) ;
#77 = VERTEX_POINT ( 'NONE', #208 ) ;
#78 = ORIENTED_EDGE ( 'NONE', *, *, #164, .T. ) ;
#79 = ORIENTED_EDGE ( 'NONE', *, *, #146, .T. ) ;
#80 = PRODUCT_DEFINITION_SHAPE ( 'NONE', 'NONE',  #198 ) ;
#81 = VERTEX_POINT ( 'NONE', #226 ) ;
#82 = ORIENTED_EDGE ( 'NONE', *, *, #42, .T. ) ;
#83 = CARTESIAN_POINT ( 'NONE',  ( 0.5444765719795184866, 0.4329157264910411529, 0.000000000000000000 ) ) ;
#84 = CARTESIAN_POINT ( 'NONE',  ( 0.6668205004248388690, 0.4547735372402583187, 3.388131789017201356E-19 ) ) ;
#85 = AXIS2_PLACEMENT_3D ( 'NONE', #50, #175, #136 ) ;
#86 = FACE_OUTER_BOUND ( 'NONE', #29, .T. ) ;
#87 = DIRECTION ( 'NONE',  ( 1.000000000000000000, 0.000000000000000000, 0.000000000000000000 ) ) ;
#88 = PLANE ( 'NONE',  #132 ) ;
#89 = CARTESIAN_POINT ( 'NONE',  ( 0.6806999999999999718, 0.4000000000000000222, 0.000000000000000000 ) ) ;
#90 =( BOUNDED_CURVE ( )  B_SPLINE_CURVE ( 3, ( #171, #9, #84, #156 ),
 .UNSPECIFIED., .F., .T. ) 
 B_SPLINE_CURVE_WITH_KNOTS ( ( 4, 4 ),
 ( 1.570796326794895448, 2.418858405776373566 ),
 .UNSPECIFIED. ) 
 CURVE ( )  GEOMETRIC_REPRESENTATION_ITEM ( )  RATIONAL_B_SPLINE_CURVE ( ( 1.000000000000000000, 0.9409585518440988228, 0.9409585518440988228, 1.000000000000000000 ) ) 
 REPRESENTATION_ITEM ( '' )  );
#91 = MANIFOLD_SURFACE_SHAPE_REPRESENTATION ( 'BCS_0.16', ( #71, #64 ), #62 ) ;
#92 = DIRECTION ( 'NONE',  ( 1.000000000000000000, 0.000000000000000000, 0.000000000000000000 ) ) ;
#93 = VECTOR ( 'NONE', #117, 100.0000000000000000 ) ;
#94 = DIRECTION ( 'NONE',  ( -0.9986295347545741663, -0.05233595624293683329, 0.000000000000000000 ) ) ;
#95 = CIRCLE ( 'NONE', #204, 0.04000000000000002165 ) ;
#96 = ORIENTED_EDGE ( 'NONE', *, *, #189, .T. ) ;
#97 = ORIENTED_EDGE ( 'NONE', *, *, #159, .F. ) ;
#98 = ORIENTED_EDGE ( 'NONE', *, *, #224, .T. ) ;
#99 = EDGE_CURVE ( 'NONE', #128, #43, #229, .T. ) ;
#100 = DIRECTION ( 'NONE',  ( 1.000000000000000000, 0.000000000000000000, -0.000000000000000000 ) ) ;
#101 = CARTESIAN_POINT ( 'NONE',  ( 0.4759304745751662402, 0.4293233777475604085, 0.000000000000000000 ) ) ;
#102 = CARTESIAN_POINT ( 'NONE',  ( 0.7206999999999997852, 0.000000000000000000, 0.000000000000000000 ) ) ;
#103 = CIRCLE ( 'NONE', #162, 0.09000000000000006606 ) ;
#104 = FACE_OUTER_BOUND ( 'NONE', #109, .T. ) ;
#105 = CARTESIAN_POINT ( 'NONE',  ( 0.5262031090410570489, 0.4474040920292609580, 3.388131789017201356E-19 ) ) ;
#106 = LINE ( 'NONE', #122, #195 ) ;
#107 = CARTESIAN_POINT ( 'NONE',  ( 0.6501615880133083669, 0.4384544434848639538, 0.000000000000000000 ) ) ;
#108 = DIRECTION ( 'NONE',  ( 1.000000000000000000, 0.000000000000000000, 0.000000000000000000 ) ) ;
#109 = EDGE_LOOP ( 'NONE', ( #45, #220 ) ) ;
#110 =( BOUNDED_CURVE ( )  B_SPLINE_CURVE ( 3, ( #49, #118, #119, #193 ),
 .UNSPECIFIED., .F., .F. ) 
 B_SPLINE_CURVE_WITH_KNOTS ( ( 4, 4 ),
 ( 2.418858405776373566, 3.864326901403212666 ),
 .UNSPECIFIED. ) 
 CURVE ( )  GEOMETRIC_REPRESENTATION_ITEM ( )  RATIONAL_B_SPLINE_CURVE ( ( 1.000000000000000000, 0.8333333333333314830, 0.8333333333333314830, 1.000000000000000000 ) ) 
 REPRESENTATION_ITEM ( '' )  );
#111 = VECTOR ( 'NONE', #34, 100.0000000000000000 ) ;
#112 = EDGE_LOOP ( 'NONE', ( #168, #78, #97, #41 ) ) ;
#113 = ORIENTED_EDGE ( 'NONE', *, *, #146, .F. ) ;
#114 = VERTEX_POINT ( 'NONE', #8 ) ;
#115 = EDGE_CURVE ( 'NONE', #148, #202, #66, .T. ) ;
#116 = DIRECTION ( 'NONE',  ( -0.000000000000000000, -0.000000000000000000, -1.000000000000000000 ) ) ;
#117 = DIRECTION ( 'NONE',  ( 0.6427876096865435818, 0.7660444431189745718, -0.000000000000000000 ) ) ;
#118 = CARTESIAN_POINT ( 'NONE',  ( 0.6199214899779736943, 0.4088312014135887518, 3.388131789017201356E-19 ) ) ;
#119 = CARTESIAN_POINT ( 'NONE',  ( 0.5776474835644576089, 0.4066157146160595537, 3.388131789017201356E-19 ) ) ;
#120 = AXIS2_PLACEMENT_3D ( 'NONE', #47, #152, #138 ) ;
#121 = CARTESIAN_POINT ( 'NONE',  ( 0.4806407106370307325, 0.3394467196196486736, 0.000000000000000000 ) ) ;
#122 = CARTESIAN_POINT ( 'NONE',  ( 0.000000000000000000, 0.000000000000000000, 0.000000000000000000 ) ) ;
#123 = ADVANCED_FACE ( 'NONE', ( #207 ), #31, .T. ) ;
#124 = PRODUCT_DEFINITION_CONTEXT ( 'detailed design', #12, 'design' ) ;
#125 = PLANE ( 'NONE',  #22 ) ;
#126 = SHAPE_DEFINITION_REPRESENTATION ( #80, #91 ) ;
#127 = DIRECTION ( 'NONE',  ( 1.000000000000000000, 0.000000000000000000, -0.000000000000000000 ) ) ;
#128 = VERTEX_POINT ( 'NONE', #101 ) ;
#129 = EDGE_CURVE ( 'NONE', #202, #183, #90, .T. ) ;
#130 = ORIENTED_EDGE ( 'NONE', *, *, #139, .T. ) ;
#131 = ORIENTED_EDGE ( 'NONE', *, *, #223, .T. ) ;
#132 = AXIS2_PLACEMENT_3D ( 'NONE', #68, #158, #35 ) ;
#133 = ORIENTED_EDGE ( 'NONE', *, *, #23, .T. ) ;
#134 = PLANE ( 'NONE',  #154 ) ;
#135 = CARTESIAN_POINT ( 'NONE',  ( 0.6754664043757062641, 0.4998629534754573389, 0.000000000000000000 ) ) ;
#136 = DIRECTION ( 'NONE',  ( 1.000000000000000000, 0.000000000000000000, -0.000000000000000000 ) ) ;
#137 = DIRECTION ( 'NONE',  ( -0.9986295347545741663, -0.05233595624293683329, 0.000000000000000000 ) ) ;
#138 = DIRECTION ( 'NONE',  ( 1.000000000000000000, 0.000000000000000000, 0.000000000000000000 ) ) ;
#139 = EDGE_CURVE ( 'NONE', #183, #43, #110, .T. ) ;
#140 = CARTESIAN_POINT ( 'NONE',  ( 0.7207000000000000073, 0.4000000000000000222, 0.000000000000000000 ) ) ;
#141 = CARTESIAN_POINT ( 'NONE',  ( 0.000000000000000000, 0.000000000000000000, 0.000000000000000000 ) ) ;
#142 = APPLICATION_PROTOCOL_DEFINITION ( 'draft international standard', 'automotive_design', 1998, #230 ) ;
#143 = LINE ( 'NONE', #17, #75 ) ;
#144 = DIRECTION ( 'NONE',  ( -0.000000000000000000, -0.000000000000000000, -1.000000000000000000 ) ) ;
#145 = PRODUCT_DEFINITION_FORMATION_WITH_SPECIFIED_SOURCE ( 'ANY', '', #27, .NOT_KNOWN. ) ;
#146 = EDGE_CURVE ( 'NONE', #167, #149, #191, .T. ) ;
#147 = FACE_OUTER_BOUND ( 'NONE', #222, .T. ) ;
#148 = VERTEX_POINT ( 'NONE', #173 ) ;
#149 = VERTEX_POINT ( 'NONE', #102 ) ;
#150 = CARTESIAN_POINT ( 'NONE',  ( 0.6806999999999999718, 0.4000000000000000222, 0.000000000000000000 ) ) ;
#151 = ORIENTED_EDGE ( 'NONE', *, *, #174, .T. ) ;
#152 = DIRECTION ( 'NONE',  ( 0.000000000000000000, 0.000000000000000000, 1.000000000000000000 ) ) ;
#153 = VECTOR ( 'NONE', #94, 100.0000000000000284 ) ;
#154 = AXIS2_PLACEMENT_3D ( 'NONE', #188, #30, #100 ) ;
#155 = UNCERTAINTY_MEASURE_WITH_UNIT (LENGTH_MEASURE( 1.000000000000000082E-05 ), #231, 'distance_accuracy_value', 'NONE');
#156 = CARTESIAN_POINT ( 'NONE',  ( 0.6501615880133083669, 0.4384544434848639538, 0.000000000000000000 ) ) ;
#157 = LINE ( 'NONE', #227, #93 ) ;
#158 = DIRECTION ( 'NONE',  ( 0.000000000000000000, 0.000000000000000000, 1.000000000000000000 ) ) ;
#159 = EDGE_CURVE ( 'NONE', #43, #225, #170, .T. ) ;
#160 = CARTESIAN_POINT ( 'NONE',  ( 0.000000000000000000, 0.000000000000000000, 0.000000000000000000 ) ) ;
#161 = CARTESIAN_POINT ( 'NONE',  ( 0.5142885598414712600, 0.4914159805737919329, 0.000000000000000000 ) ) ;
#162 = AXIS2_PLACEMENT_3D ( 'NONE', #121, #116, #13 ) ;
#163 = CARTESIAN_POINT ( 'NONE',  ( 0.7806999999999999496, 0.000000000000000000, 0.000000000000000000 ) ) ;
#164 = EDGE_CURVE ( 'NONE', #202, #225, #11, .T. ) ;
#165 = ORIENTED_EDGE ( 'NONE', *, *, #223, .F. ) ;
#166 = VERTEX_POINT ( 'NONE', #163 ) ;
#167 = VERTEX_POINT ( 'NONE', #140 ) ;
#168 = ORIENTED_EDGE ( 'NONE', *, *, #129, .F. ) ;
#169 = DIRECTION ( 'NONE',  ( 0.9986295347545741663, 0.05233595624293724963, -0.000000000000000000 ) ) ;
#170 =( BOUNDED_CURVE ( )  B_SPLINE_CURVE ( 3, ( #56, #105, #180, #161 ),
 .UNSPECIFIED., .F., .F. ) 
 B_SPLINE_CURVE_WITH_KNOTS ( ( 4, 4 ),
 ( 3.864326901403212666, 4.712388980384690562 ),
 .UNSPECIFIED. ) 
 CURVE ( )  GEOMETRIC_REPRESENTATION_ITEM ( )  RATIONAL_B_SPLINE_CURVE ( ( 1.000000000000000000, 0.9409585518440988228, 0.9409585518440988228, 1.000000000000000000 ) ) 
 REPRESENTATION_ITEM ( '' )  );
#171 = CARTESIAN_POINT ( 'NONE',  ( 0.6740692854022030112, 0.4997897335726618762, 0.000000000000000000 ) ) ;
#172 = OPEN_SHELL ( 'NONE', ( #15, #123, #76, #211, #65 ) ) ;
#173 = CARTESIAN_POINT ( 'NONE',  ( 0.6754664043757062641, 0.4998629534754573944, 0.000000000000000000 ) ) ;
#174 = EDGE_CURVE ( 'NONE', #81, #44, #217, .T. ) ;
#175 = DIRECTION ( 'NONE',  ( 0.000000000000000000, 0.000000000000000000, 1.000000000000000000 ) ) ;
#176 = VECTOR ( 'NONE', #20, 100.0000000000000142 ) ;
#177 = LINE ( 'NONE', #160, #1 ) ;
#178 = CARTESIAN_POINT ( 'NONE',  ( 0.3657340441691845356, 0.4358648610726302275, 0.000000000000000000 ) ) ;
#179 = DIRECTION ( 'NONE',  ( 1.000000000000000000, 0.000000000000000000, 0.000000000000000000 ) ) ;
#180 = CARTESIAN_POINT ( 'NONE',  ( 0.5155090453195876332, 0.4681277303404638435, 3.388131789017201356E-19 ) ) ;
#181 = CARTESIAN_POINT ( 'NONE',  ( 0.6754664043757062641, 0.4998629534754573389, 0.000000000000000000 ) ) ;
#182 = EDGE_CURVE ( 'NONE', #43, #183, #19, .T. ) ;
#183 = VERTEX_POINT ( 'NONE', #107 ) ;
#184 = ORIENTED_EDGE ( 'NONE', *, *, #36, .T. ) ;
#185 = ORIENTED_EDGE ( 'NONE', *, *, #99, .T. ) ;
#186 = ORIENTED_EDGE ( 'NONE', *, *, #213, .F. ) ;
#187 = ORIENTED_EDGE ( 'NONE', *, *, #67, .T. ) ;
#188 = CARTESIAN_POINT ( 'NONE',  ( 0.6806999999999999718, 0.4000000000000000222, 0.000000000000000000 ) ) ;
#189 = EDGE_CURVE ( 'NONE', #44, #77, #106, .T. ) ;
#190 = DIRECTION ( 'NONE',  ( 0.000000000000000000, 0.000000000000000000, 1.000000000000000000 ) ) ;
#191 = LINE ( 'NONE', #32, #111 ) ;
#192 = VECTOR ( 'NONE', #74, 100.0000000000000142 ) ;
#193 = CARTESIAN_POINT ( 'NONE',  ( 0.5444765719795184866, 0.4329157264910411529, 0.000000000000000000 ) ) ;
#194 = LINE ( 'NONE', #14, #18 ) ;
#195 = VECTOR ( 'NONE', #179, 100.0000000000000000 ) ;
#196 = CARTESIAN_POINT ( 'NONE',  ( 0.5142885598414712600, 0.4914159805737919329, 0.000000000000000000 ) ) ;
#197 = CARTESIAN_POINT ( 'NONE',  ( 0.6786065617502824443, 0.4399451813901830155, 0.000000000000000000 ) ) ;
#198 = PRODUCT_DEFINITION ( 'UNKNOWN', '', #145, #124 ) ;
#199 = LINE ( 'NONE', #40, #176 ) ;
#200 = ORIENTED_EDGE ( 'NONE', *, *, #51, .T. ) ;
#201 = ORIENTED_EDGE ( 'NONE', *, *, #99, .F. ) ;
#202 = VERTEX_POINT ( 'NONE', #212 ) ;
#203 = ORIENTED_EDGE ( 'NONE', *, *, #206, .T. ) ;
#204 = AXIS2_PLACEMENT_3D ( 'NONE', #2, #144, #108 ) ;
#205 = CARTESIAN_POINT ( 'NONE',  ( 0.4806407106370307325, 0.3394467196196486736, 0.000000000000000000 ) ) ;
#206 = EDGE_CURVE ( 'NONE', #225, #26, #38, .T. ) ;
#207 = FACE_OUTER_BOUND ( 'NONE', #28, .T. ) ;
#208 = CARTESIAN_POINT ( 'NONE',  ( 0.07832443735993684097, -1.734723475976807094E-16, 0.000000000000000000 ) ) ;
#209 = CARTESIAN_POINT ( 'NONE',  ( 0.000000000000000000, 0.000000000000000000, 0.000000000000000000 ) ) ;
#210 =( NAMED_UNIT ( * ) SI_UNIT ( $, .STERADIAN. ) SOLID_ANGLE_UNIT ( ) );
#211 = ADVANCED_FACE ( 'NONE', ( #16 ), #125, .T. ) ;
#212 = CARTESIAN_POINT ( 'NONE',  ( 0.6740692854022030112, 0.4997897335726618762, 0.000000000000000000 ) ) ;
#213 = EDGE_CURVE ( 'NONE', #3, #167, #95, .T. ) ;
#214 = CIRCLE ( 'NONE', #73, 0.1499999999999999667 ) ;
#215 = PRODUCT_CONTEXT ( 'NONE', #230, 'mechanical' ) ;
#216 = PRODUCT_RELATED_PRODUCT_CATEGORY ( 'part', '', ( #27 ) ) ;
#217 = LINE ( 'NONE', #178, #59 ) ;
#218 = PLANE ( 'NONE',  #24 ) ;
#219 = ORIENTED_EDGE ( 'NONE', *, *, #36, .F. ) ;
#220 = ORIENTED_EDGE ( 'NONE', *, *, #182, .F. ) ;
#221 = CIRCLE ( 'NONE', #120, 0.09999999999999992228 ) ;
#222 = EDGE_LOOP ( 'NONE', ( #165, #130, #201, #5, #219, #98, #113, #186 ) ) ;
#223 = EDGE_CURVE ( 'NONE', #183, #3, #199, .T. ) ;
#224 = EDGE_CURVE ( 'NONE', #77, #149, #143, .T. ) ;
#225 = VERTEX_POINT ( 'NONE', #196 ) ;
#226 = CARTESIAN_POINT ( 'NONE',  ( 0.3657340441691845911, 0.4358648610726302275, 0.000000000000000000 ) ) ;
#227 = CARTESIAN_POINT ( 'NONE',  ( 0.5241730599206443353, 0.5313416976898969191, 0.000000000000000000 ) ) ;
#228 = CARTESIAN_POINT ( 'NONE',  ( 0.4727903172005901156, 0.4892411498328348429, 0.000000000000000000 ) ) ;
#229 = LINE ( 'NONE', #69, #10 ) ;
#230 = APPLICATION_CONTEXT ( 'automotive_design' ) ;
#231 =( LENGTH_UNIT ( ) NAMED_UNIT ( * ) SI_UNIT ( .CENTI., .METRE. ) );
#232 = DIRECTION ( 'NONE',  ( -0.6427876096865434707, -0.7660444431189745718, 0.000000000000000000 ) ) ;
#233 = DIRECTION ( 'NONE',  ( 0.000000000000000000, 0.000000000000000000, 1.000000000000000000 ) ) ;
ENDSEC;
END-ISO-10303-21;
