ISO-10303-21;
HEADER;
FILE_DESCRIPTION (( 'STEP AP214' ),
    '1' );
FILE_NAME ('BCS_I_0.04.STEP',
    '2026-09-22T21:13:31',
    ( '' ),
    ( '' ),
    'SwSTEP 2.0',
    'SolidWorks 2026',
    '' );
FILE_SCHEMA (( 'AUTOMOTIVE_DESIGN' ));
ENDSEC;

DATA;
#1 = VERTEX_POINT ( 'NONE', #3 ) ;
#2 = AXIS2_PLACEMENT_3D ( 'NONE', #178, #141, #123 ) ;
#3 = CARTESIAN_POINT ( 'NONE',  ( 0.000000000000000000, 0.000000000000000000, 0.000000000000000000 ) ) ;
#4 = FACE_OUTER_BOUND ( 'NONE', #162, .T. ) ;
#5 = CARTESIAN_POINT ( 'NONE',  ( 0.06527036446661391156, -1.301042606982605321E-16, 0.000000000000000000 ) ) ;
#6 = AXIS2_PLACEMENT_3D ( 'NONE', #46, #109, #86 ) ;
#7 = DIRECTION ( 'NONE',  ( 0.000000000000000000, 0.000000000000000000, 1.000000000000000000 ) ) ;
#8 = SHELL_BASED_SURFACE_MODEL ( 'NONE', ( #101 ) );
#9 = LINE ( 'NONE', #167, #152 ) ;
#10 = LINE ( 'NONE', #11, #100 ) ;
#11 = CARTESIAN_POINT ( 'NONE',  ( 0.3657340441691845356, 0.4358648610726302275, 0.000000000000000000 ) ) ;
#12 = VECTOR ( 'NONE', #130, 100.0000000000000284 ) ;
#13 = CARTESIAN_POINT ( 'NONE',  ( 0.4040362663251332864, 0.4037254805883030984, 0.000000000000000000 ) ) ;
#14 = EDGE_LOOP ( 'NONE', ( #174, #37, #160, #77, #138, #118, #149, #41, #136, #79, #28, #176, #38 ) ) ;
#15 = VERTEX_POINT ( 'NONE', #60 ) ;
#16 = VERTEX_POINT ( 'NONE', #25 ) ;
#17 = ADVANCED_FACE ( 'NONE', ( #4 ), #104, .T. ) ;
#18 = ORIENTED_EDGE ( 'NONE', *, *, #23, .F. ) ;
#19 = FACE_OUTER_BOUND ( 'NONE', #14, .T. ) ;
#20 = DIRECTION ( 'NONE',  ( 1.000000000000000000, 0.000000000000000000, 0.000000000000000000 ) ) ;
#21 = VECTOR ( 'NONE', #26, 100.0000000000000284 ) ;
#22 = CARTESIAN_POINT ( 'NONE',  ( 0.6806999999999999718, 0.4000000000000000222, 0.000000000000000000 ) ) ;
#23 = EDGE_CURVE ( 'NONE', #29, #27, #182, .T. ) ;
#24 = VECTOR ( 'NONE', #52, 100.0000000000000000 ) ;
#25 = CARTESIAN_POINT ( 'NONE',  ( 0.6780832021878531179, 0.4499314767377287638, 0.000000000000000000 ) ) ;
#26 = DIRECTION ( 'NONE',  ( -0.9986295347545741663, -0.05233595624293683329, 0.000000000000000000 ) ) ;
#27 = VERTEX_POINT ( 'NONE', #161 ) ;
#28 = ORIENTED_EDGE ( 'NONE', *, *, #99, .T. ) ;
#29 = VERTEX_POINT ( 'NONE', #13 ) ;
#30 = CARTESIAN_POINT ( 'NONE',  ( 0.6780832021878531179, 0.4499314767377287638, 0.000000000000000000 ) ) ;
#31 = DIRECTION ( 'NONE',  ( 0.6427876096865435818, 0.7660444431189744607, -0.000000000000000000 ) ) ;
#32 = AXIS2_PLACEMENT_3D ( 'NONE', #133, #154, #80 ) ;
#33 = CARTESIAN_POINT ( 'NONE',  ( 0.4727903172005901156, 0.4892411498328348429, 0.000000000000000000 ) ) ;
#34 = EDGE_CURVE ( 'NONE', #175, #57, #116, .T. ) ;
#35 = LINE ( 'NONE', #97, #98 ) ;
#36 = PRODUCT_RELATED_PRODUCT_CATEGORY ( 'part', '', ( #159 ) ) ;
#37 = ORIENTED_EDGE ( 'NONE', *, *, #88, .T. ) ;
#38 = ORIENTED_EDGE ( 'NONE', *, *, #95, .T. ) ;
#39 = ORIENTED_EDGE ( 'NONE', *, *, #51, .T. ) ;
#40 = VERTEX_POINT ( 'NONE', #102 ) ;
#41 = ORIENTED_EDGE ( 'NONE', *, *, #85, .T. ) ;
#42 = CIRCLE ( 'NONE', #111, 0.1499999999999999667 ) ;
#43 = DIRECTION ( 'NONE',  ( 1.000000000000000000, 0.000000000000000000, 0.000000000000000000 ) ) ;
#44 = ADVANCED_FACE ( 'NONE', ( #90 ), #76, .T. ) ;
#45 = PLANE ( 'NONE',  #2 ) ;
#46 = CARTESIAN_POINT ( 'NONE',  ( 0.000000000000000000, 0.000000000000000000, 0.000000000000000000 ) ) ;
#47 = PRODUCT_DEFINITION_CONTEXT ( 'detailed design', #134, 'design' ) ;
#48 = CARTESIAN_POINT ( 'NONE',  ( 0.000000000000000000, 0.000000000000000000, 0.000000000000000000 ) ) ;
#49 =( NAMED_UNIT ( * ) SI_UNIT ( $, .STERADIAN. ) SOLID_ANGLE_UNIT ( ) );
#50 = AXIS2_PLACEMENT_3D ( 'NONE', #62, #153, #148 ) ;
#51 = EDGE_CURVE ( 'NONE', #56, #115, #72, .T. ) ;
#52 = DIRECTION ( 'NONE',  ( 0.000000000000000000, -1.000000000000000000, 0.000000000000000000 ) ) ;
#53 =( NAMED_UNIT ( * ) PLANE_ANGLE_UNIT ( ) SI_UNIT ( $, .RADIAN. ) );
#54 = AXIS2_PLACEMENT_3D ( 'NONE', #22, #110, #155 ) ;
#55 = ADVANCED_FACE ( 'NONE', ( #19 ), #45, .T. ) ;
#56 = VERTEX_POINT ( 'NONE', #108 ) ;
#57 = VERTEX_POINT ( 'NONE', #166 ) ;
#58 = VERTEX_POINT ( 'NONE', #5 ) ;
#59 = EDGE_CURVE ( 'NONE', #1, #58, #107, .T. ) ;
#60 = CARTESIAN_POINT ( 'NONE',  ( 0.7806999999999999496, 0.000000000000000000, 0.000000000000000000 ) ) ;
#61 = UNCERTAINTY_MEASURE_WITH_UNIT (LENGTH_MEASURE( 1.000000000000000082E-05 ), #71, 'distance_accuracy_value', 'NONE');
#62 = CARTESIAN_POINT ( 'NONE',  ( 0.4806407106370307325, 0.3394467196196486736, 0.000000000000000000 ) ) ;
#63 = DIRECTION ( 'NONE',  ( 1.000000000000000000, 0.000000000000000000, 0.000000000000000000 ) ) ;
#64 = DIRECTION ( 'NONE',  ( 1.000000000000000000, 0.000000000000000000, 0.000000000000000000 ) ) ;
#65 = DIRECTION ( 'NONE',  ( -0.6427876096865434707, -0.7660444431189745718, 0.000000000000000000 ) ) ;
#66 = CARTESIAN_POINT ( 'NONE',  ( 0.4806407106370307325, 0.3394467196196486736, 0.000000000000000000 ) ) ;
#67 = CARTESIAN_POINT ( 'NONE',  ( 0.7306999999999999051, 0.4000000000000000222, 0.000000000000000000 ) ) ;
#68 = DIRECTION ( 'NONE',  ( 0.000000000000000000, 1.000000000000000000, 0.000000000000000000 ) ) ;
#69 = AXIS2_PLACEMENT_3D ( 'NONE', #33, #142, #63 ) ;
#70 = EDGE_CURVE ( 'NONE', #58, #29, #9, .T. ) ;
#71 =( LENGTH_UNIT ( ) NAMED_UNIT ( * ) SI_UNIT ( .CENTI., .METRE. ) );
#72 = CIRCLE ( 'NONE', #105, 0.1499999999999999667 ) ;
#73 = CIRCLE ( 'NONE', #54, 0.04999999999999996114 ) ;
#74 = EDGE_LOOP ( 'NONE', ( #184, #172, #39 ) ) ;
#75 = EDGE_CURVE ( 'NONE', #115, #163, #42, .T. ) ;
#76 = PLANE ( 'NONE',  #32 ) ;
#77 = ORIENTED_EDGE ( 'NONE', *, *, #165, .T. ) ;
#78 = EDGE_CURVE ( 'NONE', #16, #40, #73, .T. ) ;
#79 = ORIENTED_EDGE ( 'NONE', *, *, #140, .T. ) ;
#80 = DIRECTION ( 'NONE',  ( 1.000000000000000000, 0.000000000000000000, -0.000000000000000000 ) ) ;
#81 = VECTOR ( 'NONE', #122, 100.0000000000000142 ) ;
#82 = DIRECTION ( 'NONE',  ( 1.000000000000000000, 0.000000000000000000, 0.000000000000000000 ) ) ;
#83 = LINE ( 'NONE', #30, #81 ) ;
#84 = CARTESIAN_POINT ( 'NONE',  ( 0.7806999999999999496, 0.4000000000000000222, 0.000000000000000000 ) ) ;
#85 = EDGE_CURVE ( 'NONE', #27, #16, #83, .T. ) ;
#86 = DIRECTION ( 'NONE',  ( 1.000000000000000000, 0.000000000000000000, 0.000000000000000000 ) ) ;
#87 = CARTESIAN_POINT ( 'NONE',  ( 0.6754664043757062641, 0.4998629534754573389, 0.000000000000000000 ) ) ;
#88 = EDGE_CURVE ( 'NONE', #57, #115, #131, .T. ) ;
#89 = CARTESIAN_POINT ( 'NONE',  ( 0.6806999999999999718, 0.4000000000000000222, 0.000000000000000000 ) ) ;
#90 = FACE_OUTER_BOUND ( 'NONE', #74, .T. ) ;
#91 = DIRECTION ( 'NONE',  ( 1.000000000000000000, 0.000000000000000000, -0.000000000000000000 ) ) ;
#92 = DIRECTION ( 'NONE',  ( 0.000000000000000000, 0.000000000000000000, 1.000000000000000000 ) ) ;
#93 = DIRECTION ( 'NONE',  ( 0.000000000000000000, 0.000000000000000000, 1.000000000000000000 ) ) ;
#94 = DIRECTION ( 'NONE',  ( 0.000000000000000000, 0.000000000000000000, 1.000000000000000000 ) ) ;
#95 = EDGE_CURVE ( 'NONE', #117, #175, #171, .T. ) ;
#96 = PRODUCT_CONTEXT ( 'NONE', #126, 'mechanical' ) ;
#97 = CARTESIAN_POINT ( 'NONE',  ( 0.000000000000000000, 0.000000000000000000, 0.000000000000000000 ) ) ;
#98 = VECTOR ( 'NONE', #20, 100.0000000000000000 ) ;
#99 = EDGE_CURVE ( 'NONE', #120, #15, #35, .T. ) ;
#100 = VECTOR ( 'NONE', #65, 100.0000000000000142 ) ;
#101 = OPEN_SHELL ( 'NONE', ( #55, #44, #17 ) ) ;
#102 = CARTESIAN_POINT ( 'NONE',  ( 0.7306999999999999051, 0.4000000000000000222, 0.000000000000000000 ) ) ;
#103 = ORIENTED_EDGE ( 'NONE', *, *, #70, .F. ) ;
#104 = PLANE ( 'NONE',  #158 ) ;
#105 = AXIS2_PLACEMENT_3D ( 'NONE', #66, #7, #64 ) ;
#106 = ORIENTED_EDGE ( 'NONE', *, *, #78, .F. ) ;
#107 = LINE ( 'NONE', #48, #135 ) ;
#108 = CARTESIAN_POINT ( 'NONE',  ( 0.4727903172005901156, 0.4892411498328348429, 0.000000000000000000 ) ) ;
#109 = DIRECTION ( 'NONE',  ( 0.000000000000000000, 0.000000000000000000, 1.000000000000000000 ) ) ;
#110 = DIRECTION ( 'NONE',  ( -0.000000000000000000, -0.000000000000000000, -1.000000000000000000 ) ) ;
#111 = AXIS2_PLACEMENT_3D ( 'NONE', #125, #94, #180 ) ;
#112 = CARTESIAN_POINT ( 'NONE',  ( 0.7306999999999997941, 0.000000000000000000, 0.000000000000000000 ) ) ;
#113 = APPLICATION_PROTOCOL_DEFINITION ( 'draft international standard', 'automotive_design', 1998, #134 ) ;
#114 = AXIS2_PLACEMENT_3D ( 'NONE', #177, #93, #43 ) ;
#115 = VERTEX_POINT ( 'NONE', #124 ) ;
#116 = LINE ( 'NONE', #173, #21 ) ;
#117 = VERTEX_POINT ( 'NONE', #84 ) ;
#118 = ORIENTED_EDGE ( 'NONE', *, *, #70, .T. ) ;
#119 = EDGE_CURVE ( 'NONE', #57, #56, #179, .T. ) ;
#120 = VERTEX_POINT ( 'NONE', #112 ) ;
#121 = VECTOR ( 'NONE', #82, 100.0000000000000000 ) ;
#122 = DIRECTION ( 'NONE',  ( 0.9986295347545741663, 0.05233595624293766596, -0.000000000000000000 ) ) ;
#123 = DIRECTION ( 'NONE',  ( 1.000000000000000000, 0.000000000000000000, -0.000000000000000000 ) ) ;
#124 = CARTESIAN_POINT ( 'NONE',  ( 0.4529319407403004094, 0.4868652532943873457, 0.000000000000000000 ) ) ;
#125 = CARTESIAN_POINT ( 'NONE',  ( 0.4806407106370307325, 0.3394467196196486736, 0.000000000000000000 ) ) ;
#126 = APPLICATION_CONTEXT ( 'automotive_design' ) ;
#127 = CARTESIAN_POINT ( 'NONE',  ( 0.000000000000000000, 0.000000000000000000, 0.000000000000000000 ) ) ;
#128 = PRODUCT_DEFINITION_FORMATION_WITH_SPECIFIED_SOURCE ( 'ANY', '', #159, .NOT_KNOWN. ) ;
#129 = LINE ( 'NONE', #127, #121 ) ;
#130 = DIRECTION ( 'NONE',  ( -0.9986295347545741663, -0.05233595624293683329, 0.000000000000000000 ) ) ;
#131 = CIRCLE ( 'NONE', #69, 0.01999999999999996572 ) ;
#132 = ORIENTED_EDGE ( 'NONE', *, *, #147, .T. ) ;
#133 = CARTESIAN_POINT ( 'NONE',  ( 0.6806999999999999718, 0.4000000000000000222, 0.000000000000000000 ) ) ;
#134 = APPLICATION_CONTEXT ( 'automotive_design' ) ;
#135 = VECTOR ( 'NONE', #168, 100.0000000000000000 ) ;
#136 = ORIENTED_EDGE ( 'NONE', *, *, #78, .T. ) ;
#137 = PRODUCT_DEFINITION ( 'UNKNOWN', '', #128, #47 ) ;
#138 = ORIENTED_EDGE ( 'NONE', *, *, #59, .T. ) ;
#139 = VECTOR ( 'NONE', #68, 100.0000000000000000 ) ;
#140 = EDGE_CURVE ( 'NONE', #40, #120, #156, .T. ) ;
#141 = DIRECTION ( 'NONE',  ( 0.000000000000000000, 0.000000000000000000, 1.000000000000000000 ) ) ;
#142 = DIRECTION ( 'NONE',  ( -0.000000000000000000, -0.000000000000000000, -1.000000000000000000 ) ) ;
#143 = CARTESIAN_POINT ( 'NONE',  ( 0.6754664043757062641, 0.4998629534754573944, 0.000000000000000000 ) ) ;
#144 =( GEOMETRIC_REPRESENTATION_CONTEXT ( 3 ) GLOBAL_UNCERTAINTY_ASSIGNED_CONTEXT ( ( #61 ) ) GLOBAL_UNIT_ASSIGNED_CONTEXT ( ( #71, #53, #49 ) ) REPRESENTATION_CONTEXT ( 'NONE', 'WORKASPACE' ) );
#145 = APPLICATION_PROTOCOL_DEFINITION ( 'draft international standard', 'automotive_design', 1998, #126 ) ;
#146 = CARTESIAN_POINT ( 'NONE',  ( 0.7806999999999999496, 0.000000000000000000, 0.000000000000000000 ) ) ;
#147 = EDGE_CURVE ( 'NONE', #58, #120, #129, .T. ) ;
#148 = DIRECTION ( 'NONE',  ( 1.000000000000000000, 0.000000000000000000, 0.000000000000000000 ) ) ;
#149 = ORIENTED_EDGE ( 'NONE', *, *, #23, .T. ) ;
#150 = EDGE_CURVE ( 'NONE', #15, #117, #183, .T. ) ;
#151 = ORIENTED_EDGE ( 'NONE', *, *, #85, .F. ) ;
#152 = VECTOR ( 'NONE', #31, 100.0000000000000142 ) ;
#153 = DIRECTION ( 'NONE',  ( -0.000000000000000000, -0.000000000000000000, -1.000000000000000000 ) ) ;
#154 = DIRECTION ( 'NONE',  ( 0.000000000000000000, 0.000000000000000000, 1.000000000000000000 ) ) ;
#155 = DIRECTION ( 'NONE',  ( 1.000000000000000000, 0.000000000000000000, 0.000000000000000000 ) ) ;
#156 = LINE ( 'NONE', #67, #24 ) ;
#157 = MANIFOLD_SURFACE_SHAPE_REPRESENTATION ( 'BCS_I_0.04', ( #8, #6 ), #144 ) ;
#158 = AXIS2_PLACEMENT_3D ( 'NONE', #89, #92, #91 ) ;
#159 = PRODUCT ( 'BCS_I_0.04', 'BCS_I_0.04', '', ( #96 ) ) ;
#160 = ORIENTED_EDGE ( 'NONE', *, *, #75, .T. ) ;
#161 = CARTESIAN_POINT ( 'NONE',  ( 0.4754071150127369139, 0.4393096730951061013, 0.000000000000000000 ) ) ;
#162 = EDGE_LOOP ( 'NONE', ( #103, #132, #164, #106, #151, #18 ) ) ;
#163 = VERTEX_POINT ( 'NONE', #181 ) ;
#164 = ORIENTED_EDGE ( 'NONE', *, *, #140, .F. ) ;
#165 = EDGE_CURVE ( 'NONE', #163, #1, #10, .T. ) ;
#166 = CARTESIAN_POINT ( 'NONE',  ( 0.4927629078956815012, 0.4902878689576935511, 0.000000000000000000 ) ) ;
#167 = CARTESIAN_POINT ( 'NONE',  ( 0.5165126154894547073, 0.5377695737867623782, 0.000000000000000000 ) ) ;
#168 = DIRECTION ( 'NONE',  ( 1.000000000000000000, 0.000000000000000000, 0.000000000000000000 ) ) ;
#169 = SHAPE_DEFINITION_REPRESENTATION ( #170, #157 ) ;
#170 = PRODUCT_DEFINITION_SHAPE ( 'NONE', 'NONE',  #137 ) ;
#171 = CIRCLE ( 'NONE', #114, 0.09999999999999992228 ) ;
#172 = ORIENTED_EDGE ( 'NONE', *, *, #119, .T. ) ;
#173 = CARTESIAN_POINT ( 'NONE',  ( 0.6754664043757062641, 0.4998629534754573389, 0.000000000000000000 ) ) ;
#174 = ORIENTED_EDGE ( 'NONE', *, *, #34, .T. ) ;
#175 = VERTEX_POINT ( 'NONE', #143 ) ;
#176 = ORIENTED_EDGE ( 'NONE', *, *, #150, .T. ) ;
#177 = CARTESIAN_POINT ( 'NONE',  ( 0.6806999999999999718, 0.4000000000000000222, 0.000000000000000000 ) ) ;
#178 = CARTESIAN_POINT ( 'NONE',  ( 0.6806999999999999718, 0.4000000000000000222, 0.000000000000000000 ) ) ;
#179 = LINE ( 'NONE', #87, #12 ) ;
#180 = DIRECTION ( 'NONE',  ( 1.000000000000000000, 0.000000000000000000, 0.000000000000000000 ) ) ;
#181 = CARTESIAN_POINT ( 'NONE',  ( 0.3657340441691845911, 0.4358648610726302275, 0.000000000000000000 ) ) ;
#182 = CIRCLE ( 'NONE', #50, 0.1000000000000000056 ) ;
#183 = LINE ( 'NONE', #146, #139 ) ;
#184 = ORIENTED_EDGE ( 'NONE', *, *, #88, .F. ) ;
ENDSEC;
END-ISO-10303-21;
