ISO-10303-21;
HEADER;
FILE_DESCRIPTION (( 'STEP AP214' ),
    '1' );
FILE_NAME ('BCS_I_0.16.STEP',
    '2026-09-22T21:14:13',
    ( '' ),
    ( '' ),
    'SwSTEP 2.0',
    'SolidWorks 2026',
    '' );
FILE_SCHEMA (( 'AUTOMOTIVE_DESIGN' ));
ENDSEC;

DATA;
#1 = CARTESIAN_POINT ( 'NONE',  ( 0.6806999999999999718, 0.4000000000000000222, 0.000000000000000000 ) ) ;
#2 = ORIENTED_EDGE ( 'NONE', *, *, #61, .F. ) ;
#3 = EDGE_CURVE ( 'NONE', #174, #89, #81, .T. ) ;
#4 = CARTESIAN_POINT ( 'NONE',  ( 0.6806999999999999718, 0.4000000000000000222, 0.000000000000000000 ) ) ;
#5 = CARTESIAN_POINT ( 'NONE',  ( 0.4806407106370307325, 0.3394467196196486736, 0.000000000000000000 ) ) ;
#6 = DIRECTION ( 'NONE',  ( 1.000000000000000000, 0.000000000000000000, -0.000000000000000000 ) ) ;
#7 = CARTESIAN_POINT ( 'NONE',  ( 0.5377715094695754150, 0.4425780525149202727, 0.000000000000000000 ) ) ;
#8 = CARTESIAN_POINT ( 'NONE',  ( 0.4727903172005901156, 0.4892411498328348429, 0.000000000000000000 ) ) ;
#9 = EDGE_CURVE ( 'NONE', #86, #174, #41, .T. ) ;
#10 = AXIS2_PLACEMENT_3D ( 'NONE', #133, #205, #118 ) ;
#11 = AXIS2_PLACEMENT_3D ( 'NONE', #215, #216, #21 ) ;
#12 = DIRECTION ( 'NONE',  ( 1.000000000000000000, 0.000000000000000000, 0.000000000000000000 ) ) ;
#13 = PRODUCT_DEFINITION_SHAPE ( 'NONE', 'NONE',  #198 ) ;
#14 = CARTESIAN_POINT ( 'NONE',  ( 0.6806999999999999718, 0.4000000000000000222, 0.000000000000000000 ) ) ;
#15 = DIRECTION ( 'NONE',  ( 0.000000000000000000, 0.000000000000000000, 1.000000000000000000 ) ) ;
#16 = ORIENTED_EDGE ( 'NONE', *, *, #157, .T. ) ;
#17 = EDGE_CURVE ( 'NONE', #140, #35, #83, .T. ) ;
#18 = LINE ( 'NONE', #141, #100 ) ;
#19 = VECTOR ( 'NONE', #92, 100.0000000000000000 ) ;
#20 = ORIENTED_EDGE ( 'NONE', *, *, #3, .F. ) ;
#21 = DIRECTION ( 'NONE',  ( 1.000000000000000000, 0.000000000000000000, -0.000000000000000000 ) ) ;
#22 = APPLICATION_PROTOCOL_DEFINITION ( 'draft international standard', 'automotive_design', 1998, #136 ) ;
#23 = DIRECTION ( 'NONE',  ( -0.000000000000000000, -0.000000000000000000, -1.000000000000000000 ) ) ;
#24 = EDGE_CURVE ( 'NONE', #89, #155, #80, .T. ) ;
#25 = EDGE_CURVE ( 'NONE', #155, #140, #113, .T. ) ;
#26 = CIRCLE ( 'NONE', #181, 0.1000000000000000056 ) ;
#27 = VERTEX_POINT ( 'NONE', #191 ) ;
#28 = CARTESIAN_POINT ( 'NONE',  ( 0.4806407106370307325, 0.3394467196196486736, 0.000000000000000000 ) ) ;
#29 = ORIENTED_EDGE ( 'NONE', *, *, #39, .T. ) ;
#30 = CARTESIAN_POINT ( 'NONE',  ( 0.6806999999999999718, 0.4000000000000000222, 0.000000000000000000 ) ) ;
#31 = ORIENTED_EDGE ( 'NONE', *, *, #9, .F. ) ;
#32 = DIRECTION ( 'NONE',  ( 0.6427876096865435818, 0.7660444431189744607, -0.000000000000000000 ) ) ;
#33 =( GEOMETRIC_REPRESENTATION_CONTEXT ( 3 ) GLOBAL_UNCERTAINTY_ASSIGNED_CONTEXT ( ( #77 ) ) GLOBAL_UNIT_ASSIGNED_CONTEXT ( ( #96, #185, #186 ) ) REPRESENTATION_CONTEXT ( 'NONE', 'WORKASPACE' ) );
#34 = CARTESIAN_POINT ( 'NONE',  ( 0.6806999999999999718, 0.4000000000000000222, 0.000000000000000000 ) ) ;
#35 = VERTEX_POINT ( 'NONE', #51 ) ;
#36 = LINE ( 'NONE', #37, #228 ) ;
#37 = CARTESIAN_POINT ( 'NONE',  ( 0.000000000000000000, 0.000000000000000000, 0.000000000000000000 ) ) ;
#38 = AXIS2_PLACEMENT_3D ( 'NONE', #28, #103, #128 ) ;
#39 = EDGE_CURVE ( 'NONE', #214, #89, #131, .T. ) ;
#40 = DIRECTION ( 'NONE',  ( -0.000000000000000000, -0.000000000000000000, -1.000000000000000000 ) ) ;
#41 = CIRCLE ( 'NONE', #180, 0.08000000000000012657 ) ;
#42 = ORIENTED_EDGE ( 'NONE', *, *, #220, .T. ) ;
#43 = VECTOR ( 'NONE', #201, 100.0000000000000142 ) ;
#44 = AXIS2_PLACEMENT_3D ( 'NONE', #56, #169, #6 ) ;
#45 = EDGE_CURVE ( 'NONE', #171, #214, #53, .T. ) ;
#46 = PRODUCT_DEFINITION_CONTEXT ( 'detailed design', #224, 'design' ) ;
#47 = ORIENTED_EDGE ( 'NONE', *, *, #173, .T. ) ;
#48 = CARTESIAN_POINT ( 'NONE',  ( 0.6754664043757062641, 0.4998629534754573389, 0.000000000000000000 ) ) ;
#49 = ORIENTED_EDGE ( 'NONE', *, *, #65, .T. ) ;
#50 = ORIENTED_EDGE ( 'NONE', *, *, #64, .T. ) ;
#51 = CARTESIAN_POINT ( 'NONE',  ( 0.000000000000000000, 0.000000000000000000, 0.000000000000000000 ) ) ;
#52 = EDGE_LOOP ( 'NONE', ( #50, #108, #184, #192, #16, #176, #231, #49 ) ) ;
#53 = LINE ( 'NONE', #123, #82 ) ;
#54 = ORIENTED_EDGE ( 'NONE', *, *, #157, .F. ) ;
#55 = DIRECTION ( 'NONE',  ( 1.000000000000000000, 0.000000000000000000, 0.000000000000000000 ) ) ;
#56 = CARTESIAN_POINT ( 'NONE',  ( 0.6806999999999999718, 0.4000000000000000222, 0.000000000000000000 ) ) ;
#57 = ORIENTED_EDGE ( 'NONE', *, *, #24, .T. ) ;
#58 = DIRECTION ( 'NONE',  ( 1.000000000000000000, 0.000000000000000000, 0.000000000000000000 ) ) ;
#59 = CARTESIAN_POINT ( 'NONE',  ( 0.6780832021878531179, 0.4499314767377287638, 0.000000000000000000 ) ) ;
#60 = DIRECTION ( 'NONE',  ( 1.000000000000000000, 0.000000000000000000, 0.000000000000000000 ) ) ;
#61 = EDGE_CURVE ( 'NONE', #179, #27, #213, .T. ) ;
#62 = DIRECTION ( 'NONE',  ( 1.000000000000000000, 0.000000000000000000, 0.000000000000000000 ) ) ;
#63 = VECTOR ( 'NONE', #74, 100.0000000000000284 ) ;
#64 = EDGE_CURVE ( 'NONE', #230, #86, #94, .T. ) ;
#65 = EDGE_CURVE ( 'NONE', #116, #230, #161, .T. ) ;
#66 = ORIENTED_EDGE ( 'NONE', *, *, #3, .T. ) ;
#67 = CARTESIAN_POINT ( 'NONE',  ( 0.7306999999999997941, 0.000000000000000000, 0.000000000000000000 ) ) ;
#68 = ORIENTED_EDGE ( 'NONE', *, *, #39, .F. ) ;
#69 = AXIS2_PLACEMENT_3D ( 'NONE', #200, #97, #188 ) ;
#70 = VECTOR ( 'NONE', #149, 100.0000000000000000 ) ;
#71 = CARTESIAN_POINT ( 'NONE',  ( 0.5526806799809560466, 0.4934280263322697868, 0.000000000000000000 ) ) ;
#72 = LINE ( 'NONE', #234, #187 ) ;
#73 = ORIENTED_EDGE ( 'NONE', *, *, #45, .T. ) ;
#74 = DIRECTION ( 'NONE',  ( -0.9986295347545741663, -0.05233595624293683329, 0.000000000000000000 ) ) ;
#75 = CARTESIAN_POINT ( 'NONE',  ( 0.3969093791546687289, 0.4639017883319789259, 0.000000000000000000 ) ) ;
#76 = CARTESIAN_POINT ( 'NONE',  ( 0.6780832021878531179, 0.4499314767377287638, 0.000000000000000000 ) ) ;
#77 = UNCERTAINTY_MEASURE_WITH_UNIT (LENGTH_MEASURE( 1.000000000000000082E-05 ), #96, 'distance_accuracy_value', 'NONE');
#78 = ORIENTED_EDGE ( 'NONE', *, *, #220, .F. ) ;
#79 = CARTESIAN_POINT ( 'NONE',  ( 0.6780832021878531179, 0.4499314767377287638, 0.000000000000000000 ) ) ;
#80 = CIRCLE ( 'NONE', #203, 0.08000000000000012657 ) ;
#81 = CIRCLE ( 'NONE', #69, 0.08000000000000012657 ) ;
#82 = VECTOR ( 'NONE', #32, 100.0000000000000142 ) ;
#83 = LINE ( 'NONE', #156, #142 ) ;
#84 = PRODUCT_RELATED_PRODUCT_CATEGORY ( 'part', '', ( #137 ) ) ;
#85 = EDGE_CURVE ( 'NONE', #104, #116, #72, .T. ) ;
#86 = VERTEX_POINT ( 'NONE', #71 ) ;
#87 = ORIENTED_EDGE ( 'NONE', *, *, #218, .T. ) ;
#88 = DIRECTION ( 'NONE',  ( 0.000000000000000000, 0.000000000000000000, 1.000000000000000000 ) ) ;
#89 = VERTEX_POINT ( 'NONE', #199 ) ;
#90 = DIRECTION ( 'NONE',  ( 0.000000000000000000, 0.000000000000000000, 1.000000000000000000 ) ) ;
#91 = CIRCLE ( 'NONE', #204, 0.1499999999999999667 ) ;
#92 = DIRECTION ( 'NONE',  ( 1.000000000000000000, 0.000000000000000000, 0.000000000000000000 ) ) ;
#93 = ADVANCED_FACE ( 'NONE', ( #124 ), #195, .T. ) ;
#94 = LINE ( 'NONE', #48, #63 ) ;
#95 = LINE ( 'NONE', #59, #152 ) ;
#96 =( LENGTH_UNIT ( ) NAMED_UNIT ( * ) SI_UNIT ( .CENTI., .METRE. ) );
#97 = DIRECTION ( 'NONE',  ( -0.000000000000000000, -0.000000000000000000, -1.000000000000000000 ) ) ;
#98 = CARTESIAN_POINT ( 'NONE',  ( 0.000000000000000000, 0.000000000000000000, 0.000000000000000000 ) ) ;
#99 = DIRECTION ( 'NONE',  ( 1.000000000000000000, 2.168404344971005318E-15, 0.000000000000000000 ) ) ;
#100 = VECTOR ( 'NONE', #109, 100.0000000000000284 ) ;
#101 = VERTEX_POINT ( 'NONE', #209 ) ;
#102 = ORIENTED_EDGE ( 'NONE', *, *, #134, .T. ) ;
#103 = DIRECTION ( 'NONE',  ( -0.000000000000000000, -0.000000000000000000, -1.000000000000000000 ) ) ;
#104 = VERTEX_POINT ( 'NONE', #160 ) ;
#105 = DIRECTION ( 'NONE',  ( 1.000000000000000000, 0.000000000000000000, -0.000000000000000000 ) ) ;
#106 = ORIENTED_EDGE ( 'NONE', *, *, #25, .T. ) ;
#107 = DIRECTION ( 'NONE',  ( 0.000000000000000000, 0.000000000000000000, 1.000000000000000000 ) ) ;
#108 = ORIENTED_EDGE ( 'NONE', *, *, #9, .T. ) ;
#109 = DIRECTION ( 'NONE',  ( -0.9986295347545741663, -0.05233595624293683329, 0.000000000000000000 ) ) ;
#110 = EDGE_LOOP ( 'NONE', ( #194, #66, #68, #112, #202, #54, #2 ) ) ;
#111 = ADVANCED_FACE ( 'NONE', ( #126 ), #196, .T. ) ;
#112 = ORIENTED_EDGE ( 'NONE', *, *, #45, .F. ) ;
#113 = CIRCLE ( 'NONE', #10, 0.1499999999999999667 ) ;
#114 = AXIS2_PLACEMENT_3D ( 'NONE', #1, #107, #105 ) ;
#115 = DIRECTION ( 'NONE',  ( 0.9986295347545741663, 0.05233595624293766596, -0.000000000000000000 ) ) ;
#116 = VERTEX_POINT ( 'NONE', #175 ) ;
#117 = EDGE_CURVE ( 'NONE', #219, #155, #91, .T. ) ;
#118 = DIRECTION ( 'NONE',  ( 1.000000000000000000, 0.000000000000000000, 0.000000000000000000 ) ) ;
#119 = VECTOR ( 'NONE', #129, 100.0000000000000000 ) ;
#120 = CARTESIAN_POINT ( 'NONE',  ( 0.4806407106370307325, 0.3394467196196486736, 0.000000000000000000 ) ) ;
#121 = ORIENTED_EDGE ( 'NONE', *, *, #117, .T. ) ;
#122 = VERTEX_POINT ( 'NONE', #67 ) ;
#123 = CARTESIAN_POINT ( 'NONE',  ( 0.5165126154894547073, 0.5377695737867623782, 0.000000000000000000 ) ) ;
#124 = FACE_OUTER_BOUND ( 'NONE', #110, .T. ) ;
#125 = ADVANCED_FACE ( 'NONE', ( #145 ), #144, .T. ) ;
#126 = FACE_OUTER_BOUND ( 'NONE', #232, .T. ) ;
#127 = CARTESIAN_POINT ( 'NONE',  ( 0.4727903172005901156, 0.4892411498328348429, 0.000000000000000000 ) ) ;
#128 = DIRECTION ( 'NONE',  ( 1.000000000000000000, 0.000000000000000000, 0.000000000000000000 ) ) ;
#129 = DIRECTION ( 'NONE',  ( 1.000000000000000000, 0.000000000000000000, 0.000000000000000000 ) ) ;
#130 = PRODUCT_CONTEXT ( 'NONE', #136, 'mechanical' ) ;
#131 = CIRCLE ( 'NONE', #38, 0.1000000000000000056 ) ;
#132 = CARTESIAN_POINT ( 'NONE',  ( 0.000000000000000000, 0.000000000000000000, 0.000000000000000000 ) ) ;
#133 = CARTESIAN_POINT ( 'NONE',  ( 0.4806407106370307325, 0.3394467196196486736, 0.000000000000000000 ) ) ;
#134 = EDGE_CURVE ( 'NONE', #86, #219, #18, .T. ) ;
#135 = EDGE_CURVE ( 'NONE', #122, #104, #212, .T. ) ;
#136 = APPLICATION_CONTEXT ( 'automotive_design' ) ;
#137 = PRODUCT ( 'BCS_I_0.16', 'BCS_I_0.16', '', ( #130 ) ) ;
#138 = ORIENTED_EDGE ( 'NONE', *, *, #24, .F. ) ;
#139 = AXIS2_PLACEMENT_3D ( 'NONE', #98, #166, #60 ) ;
#140 = VERTEX_POINT ( 'NONE', #177 ) ;
#141 = CARTESIAN_POINT ( 'NONE',  ( 0.6754664043757062641, 0.4998629534754573389, 0.000000000000000000 ) ) ;
#142 = VECTOR ( 'NONE', #229, 100.0000000000000142 ) ;
#143 = AXIS2_PLACEMENT_3D ( 'NONE', #30, #90, #55 ) ;
#144 = PLANE ( 'NONE',  #170 ) ;
#145 = FACE_OUTER_BOUND ( 'NONE', #52, .T. ) ;
#146 = CARTESIAN_POINT ( 'NONE',  ( 0.7306999999999999051, 0.4000000000000000222, 0.000000000000000000 ) ) ;
#147 = DIRECTION ( 'NONE',  ( 0.000000000000000000, 0.000000000000000000, 1.000000000000000000 ) ) ;
#148 = LINE ( 'NONE', #146, #70 ) ;
#149 = DIRECTION ( 'NONE',  ( 0.000000000000000000, -1.000000000000000000, 0.000000000000000000 ) ) ;
#150 = FACE_OUTER_BOUND ( 'NONE', #168, .T. ) ;
#151 = OPEN_SHELL ( 'NONE', ( #93, #190, #125, #111, #154 ) ) ;
#152 = VECTOR ( 'NONE', #115, 100.0000000000000142 ) ;
#153 = MANIFOLD_SURFACE_SHAPE_REPRESENTATION ( 'BCS_I_0.16', ( #163, #139 ), #33 ) ;
#154 = ADVANCED_FACE ( 'NONE', ( #162 ), #182, .T. ) ;
#155 = VERTEX_POINT ( 'NONE', #75 ) ;
#156 = CARTESIAN_POINT ( 'NONE',  ( 0.3657340441691845356, 0.4358648610726302275, 0.000000000000000000 ) ) ;
#157 = EDGE_CURVE ( 'NONE', #27, #122, #148, .T. ) ;
#158 = DIRECTION ( 'NONE',  ( 1.000000000000000000, 0.000000000000000000, -0.000000000000000000 ) ) ;
#159 = EDGE_LOOP ( 'NONE', ( #20, #210, #78 ) ) ;
#160 = CARTESIAN_POINT ( 'NONE',  ( 0.7806999999999999496, 0.000000000000000000, 0.000000000000000000 ) ) ;
#161 = CIRCLE ( 'NONE', #143, 0.09999999999999992228 ) ;
#162 = FACE_OUTER_BOUND ( 'NONE', #159, .T. ) ;
#163 = SHELL_BASED_SURFACE_MODEL ( 'NONE', ( #151 ) );
#164 = DIRECTION ( 'NONE',  ( 0.000000000000000000, 1.000000000000000000, 0.000000000000000000 ) ) ;
#165 = CARTESIAN_POINT ( 'NONE',  ( 0.06527036446661391156, -1.301042606982605321E-16, 0.000000000000000000 ) ) ;
#166 = DIRECTION ( 'NONE',  ( 0.000000000000000000, 0.000000000000000000, 1.000000000000000000 ) ) ;
#167 = APPLICATION_PROTOCOL_DEFINITION ( 'draft international standard', 'automotive_design', 1998, #224 ) ;
#168 = EDGE_LOOP ( 'NONE', ( #29, #57, #106, #211, #47, #73 ) ) ;
#169 = DIRECTION ( 'NONE',  ( 0.000000000000000000, 0.000000000000000000, 1.000000000000000000 ) ) ;
#170 = AXIS2_PLACEMENT_3D ( 'NONE', #34, #15, #158 ) ;
#171 = VERTEX_POINT ( 'NONE', #165 ) ;
#172 = EDGE_CURVE ( 'NONE', #171, #122, #36, .T. ) ;
#173 = EDGE_CURVE ( 'NONE', #35, #171, #226, .T. ) ;
#174 = VERTEX_POINT ( 'NONE', #7 ) ;
#175 = CARTESIAN_POINT ( 'NONE',  ( 0.7806999999999999496, 0.4000000000000000222, 0.000000000000000000 ) ) ;
#176 = ORIENTED_EDGE ( 'NONE', *, *, #135, .T. ) ;
#177 = CARTESIAN_POINT ( 'NONE',  ( 0.3657340441691845911, 0.4358648610726302275, 0.000000000000000000 ) ) ;
#178 = DIRECTION ( 'NONE',  ( 1.000000000000000000, 0.000000000000000000, 0.000000000000000000 ) ) ;
#179 = VERTEX_POINT ( 'NONE', #79 ) ;
#180 = AXIS2_PLACEMENT_3D ( 'NONE', #8, #227, #12 ) ;
#181 = AXIS2_PLACEMENT_3D ( 'NONE', #5, #23, #222 ) ;
#182 = PLANE ( 'NONE',  #235 ) ;
#183 = SHAPE_DEFINITION_REPRESENTATION ( #13, #153 ) ;
#184 = ORIENTED_EDGE ( 'NONE', *, *, #206, .T. ) ;
#185 =( NAMED_UNIT ( * ) PLANE_ANGLE_UNIT ( ) SI_UNIT ( $, .RADIAN. ) );
#186 =( NAMED_UNIT ( * ) SI_UNIT ( $, .STERADIAN. ) SOLID_ANGLE_UNIT ( ) );
#187 = VECTOR ( 'NONE', #164, 100.0000000000000000 ) ;
#188 = DIRECTION ( 'NONE',  ( 1.000000000000000000, 0.000000000000000000, 0.000000000000000000 ) ) ;
#189 = AXIS2_PLACEMENT_3D ( 'NONE', #14, #233, #58 ) ;
#190 = ADVANCED_FACE ( 'NONE', ( #150 ), #217, .T. ) ;
#191 = CARTESIAN_POINT ( 'NONE',  ( 0.7306999999999999051, 0.4000000000000000222, 0.000000000000000000 ) ) ;
#192 = ORIENTED_EDGE ( 'NONE', *, *, #61, .T. ) ;
#193 = CARTESIAN_POINT ( 'NONE',  ( 0.000000000000000000, 0.000000000000000000, 0.000000000000000000 ) ) ;
#194 = ORIENTED_EDGE ( 'NONE', *, *, #206, .F. ) ;
#195 = PLANE ( 'NONE',  #114 ) ;
#196 = PLANE ( 'NONE',  #11 ) ;
#197 = CARTESIAN_POINT ( 'NONE',  ( 0.6754664043757062641, 0.4998629534754573944, 0.000000000000000000 ) ) ;
#198 = PRODUCT_DEFINITION ( 'UNKNOWN', '', #207, #46 ) ;
#199 = CARTESIAN_POINT ( 'NONE',  ( 0.4268498813262519564, 0.4237470558114970753, 0.000000000000000000 ) ) ;
#200 = CARTESIAN_POINT ( 'NONE',  ( 0.4727903172005901156, 0.4892411498328348429, 0.000000000000000000 ) ) ;
#201 = DIRECTION ( 'NONE',  ( 0.9986295347545741663, 0.05233595624293766596, -0.000000000000000000 ) ) ;
#202 = ORIENTED_EDGE ( 'NONE', *, *, #172, .T. ) ;
#203 = AXIS2_PLACEMENT_3D ( 'NONE', #208, #40, #99 ) ;
#204 = AXIS2_PLACEMENT_3D ( 'NONE', #120, #88, #178 ) ;
#205 = DIRECTION ( 'NONE',  ( 0.000000000000000000, 0.000000000000000000, 1.000000000000000000 ) ) ;
#206 = EDGE_CURVE ( 'NONE', #174, #179, #95, .T. ) ;
#207 = PRODUCT_DEFINITION_FORMATION_WITH_SPECIFIED_SOURCE ( 'ANY', '', #137, .NOT_KNOWN. ) ;
#208 = CARTESIAN_POINT ( 'NONE',  ( 0.4727903172005901156, 0.4892411498328348429, 0.000000000000000000 ) ) ;
#209 = CARTESIAN_POINT ( 'NONE',  ( 0.4754071150127369139, 0.4393096730951061013, 0.000000000000000000 ) ) ;
#210 = ORIENTED_EDGE ( 'NONE', *, *, #218, .F. ) ;
#211 = ORIENTED_EDGE ( 'NONE', *, *, #17, .T. ) ;
#212 = LINE ( 'NONE', #193, #19 ) ;
#213 = CIRCLE ( 'NONE', #189, 0.04999999999999996114 ) ;
#214 = VERTEX_POINT ( 'NONE', #223 ) ;
#215 = CARTESIAN_POINT ( 'NONE',  ( 0.6806999999999999718, 0.4000000000000000222, 0.000000000000000000 ) ) ;
#216 = DIRECTION ( 'NONE',  ( 0.000000000000000000, 0.000000000000000000, 1.000000000000000000 ) ) ;
#217 = PLANE ( 'NONE',  #44 ) ;
#218 = EDGE_CURVE ( 'NONE', #101, #174, #225, .T. ) ;
#219 = VERTEX_POINT ( 'NONE', #127 ) ;
#220 = EDGE_CURVE ( 'NONE', #89, #101, #26, .T. ) ;
#221 = DIRECTION ( 'NONE',  ( 1.000000000000000000, 0.000000000000000000, -0.000000000000000000 ) ) ;
#222 = DIRECTION ( 'NONE',  ( 1.000000000000000000, 0.000000000000000000, 0.000000000000000000 ) ) ;
#223 = CARTESIAN_POINT ( 'NONE',  ( 0.4040362663251332864, 0.4037254805883030984, 0.000000000000000000 ) ) ;
#224 = APPLICATION_CONTEXT ( 'automotive_design' ) ;
#225 = LINE ( 'NONE', #76, #43 ) ;
#226 = LINE ( 'NONE', #132, #119 ) ;
#227 = DIRECTION ( 'NONE',  ( -0.000000000000000000, -0.000000000000000000, -1.000000000000000000 ) ) ;
#228 = VECTOR ( 'NONE', #62, 100.0000000000000000 ) ;
#229 = DIRECTION ( 'NONE',  ( -0.6427876096865434707, -0.7660444431189745718, 0.000000000000000000 ) ) ;
#230 = VERTEX_POINT ( 'NONE', #197 ) ;
#231 = ORIENTED_EDGE ( 'NONE', *, *, #85, .T. ) ;
#232 = EDGE_LOOP ( 'NONE', ( #138, #42, #87, #31, #102, #121 ) ) ;
#233 = DIRECTION ( 'NONE',  ( -0.000000000000000000, -0.000000000000000000, -1.000000000000000000 ) ) ;
#234 = CARTESIAN_POINT ( 'NONE',  ( 0.7806999999999999496, 0.000000000000000000, 0.000000000000000000 ) ) ;
#235 = AXIS2_PLACEMENT_3D ( 'NONE', #4, #147, #221 ) ;
ENDSEC;
END-ISO-10303-21;
