ISO-10303-21;
HEADER;
FILE_DESCRIPTION (( 'STEP AP214' ),
    '1' );
FILE_NAME ('BCS_0.08.STEP',
    '2026-09-16T17:12:22',
    ( '' ),
    ( '' ),
    'SwSTEP 2.0',
    'SolidWorks 2026',
    '' );
FILE_SCHEMA (( 'AUTOMOTIVE_DESIGN' ));
ENDSEC;

DATA;
#1 = APPLICATION_CONTEXT ( 'automotive_design' ) ;
#2 = AXIS2_PLACEMENT_3D ( 'NONE', #124, #59, #51 ) ;
#3 = ORIENTED_EDGE ( 'NONE', *, *, #86, .T. ) ;
#4 = ORIENTED_EDGE ( 'NONE', *, *, #152, .T. ) ;
#5 = DIRECTION ( 'NONE',  ( 1.000000000000000000, 0.000000000000000000, 0.000000000000000000 ) ) ;
#6 = DIRECTION ( 'NONE',  ( 1.000000000000000000, 0.000000000000000000, 0.000000000000000000 ) ) ;
#7 = ORIENTED_EDGE ( 'NONE', *, *, #100, .T. ) ;
#8 = EDGE_CURVE ( 'NONE', #162, #30, #139, .T. ) ;
#9 = DIRECTION ( 'NONE',  ( -0.9986295347545741663, -0.05233595624293683329, 0.000000000000000000 ) ) ;
#10 = CARTESIAN_POINT ( 'NONE',  ( 0.6780832021878531179, 0.4499314767377287638, 0.000000000000000000 ) ) ;
#11 = CARTESIAN_POINT ( 'NONE',  ( 0.6806999999999999718, 0.4000000000000000222, 0.000000000000000000 ) ) ;
#12 = ADVANCED_FACE ( 'NONE', ( #73 ), #114, .T. ) ;
#13 = DIRECTION ( 'NONE',  ( 0.000000000000000000, 0.000000000000000000, 1.000000000000000000 ) ) ;
#14 = CARTESIAN_POINT ( 'NONE',  ( 0.6754664043757062641, 0.4998629534754573389, 0.000000000000000000 ) ) ;
#15 = EDGE_CURVE ( 'NONE', #20, #174, #121, .T. ) ;
#16 =( NAMED_UNIT ( * ) SI_UNIT ( $, .STERADIAN. ) SOLID_ANGLE_UNIT ( ) );
#17 = VERTEX_POINT ( 'NONE', #132 ) ;
#18 = AXIS2_PLACEMENT_3D ( 'NONE', #99, #45, #161 ) ;
#19 = ORIENTED_EDGE ( 'NONE', *, *, #53, .T. ) ;
#20 = VERTEX_POINT ( 'NONE', #116 ) ;
#21 = ORIENTED_EDGE ( 'NONE', *, *, #15, .T. ) ;
#22 = EDGE_CURVE ( 'NONE', #120, #84, #176, .T. ) ;
#23 = ORIENTED_EDGE ( 'NONE', *, *, #149, .F. ) ;
#24 = PLANE ( 'NONE',  #157 ) ;
#25 = DIRECTION ( 'NONE',  ( 1.000000000000000000, 0.000000000000000000, 0.000000000000000000 ) ) ;
#26 = DIRECTION ( 'NONE',  ( -0.9986295347545741663, -0.05233595624293683329, 0.000000000000000000 ) ) ;
#27 = CARTESIAN_POINT ( 'NONE',  ( 0.000000000000000000, 0.000000000000000000, 0.000000000000000000 ) ) ;
#28 = VECTOR ( 'NONE', #90, 100.0000000000000000 ) ;
#29 = PRODUCT_CONTEXT ( 'NONE', #1, 'mechanical' ) ;
#30 = VERTEX_POINT ( 'NONE', #57 ) ;
#31 = ORIENTED_EDGE ( 'NONE', *, *, #112, .F. ) ;
#32 = CARTESIAN_POINT ( 'NONE',  ( 0.6806999999999999718, 0.4000000000000000222, 0.000000000000000000 ) ) ;
#33 = EDGE_LOOP ( 'NONE', ( #55, #19, #159, #44, #58, #133, #70, #56, #7, #3, #131, #130, #4, #21 ) ) ;
#34 = OPEN_SHELL ( 'NONE', ( #109, #12, #61 ) ) ;
#35 = FACE_OUTER_BOUND ( 'NONE', #33, .T. ) ;
#36 = CARTESIAN_POINT ( 'NONE',  ( 0.5542337412316541423, 0.4935094188235094048, 0.000000000000000000 ) ) ;
#37 = EDGE_CURVE ( 'NONE', #120, #17, #118, .T. ) ;
#38 = CARTESIAN_POINT ( 'NONE',  ( 0.6341241040120201289, 0.4976962953229444042, 0.000000000000000000 ) ) ;
#39 = CARTESIAN_POINT ( 'NONE',  ( 0.6341241040120201289, 0.4976962953229444042, 0.000000000000000000 ) ) ;
#40 = DIRECTION ( 'NONE',  ( 1.000000000000000000, 0.000000000000000000, 0.000000000000000000 ) ) ;
#41 = AXIS2_PLACEMENT_3D ( 'NONE', #108, #79, #138 ) ;
#42 = MANIFOLD_SURFACE_SHAPE_REPRESENTATION ( 'BCS_0.08', ( #63, #95 ), #177 ) ;
#43 = ORIENTED_EDGE ( 'NONE', *, *, #53, .F. ) ;
#44 = ORIENTED_EDGE ( 'NONE', *, *, #8, .T. ) ;
#45 = DIRECTION ( 'NONE',  ( 0.000000000000000000, 0.000000000000000000, 1.000000000000000000 ) ) ;
#46 = VERTEX_POINT ( 'NONE', #38 ) ;
#47 = CARTESIAN_POINT ( 'NONE',  ( 0.3657340441691845356, 0.4358648610726302275, 0.000000000000000000 ) ) ;
#48 = VECTOR ( 'NONE', #134, 100.0000000000000000 ) ;
#49 = CARTESIAN_POINT ( 'NONE',  ( 0.6754664043757062641, 0.4998629534754573389, 0.000000000000000000 ) ) ;
#50 = CARTESIAN_POINT ( 'NONE',  ( 0.4727903172005901156, 0.4892411498328348429, 0.000000000000000000 ) ) ;
#51 = DIRECTION ( 'NONE',  ( 1.000000000000000000, 0.000000000000000000, 0.000000000000000000 ) ) ;
#52 = DIRECTION ( 'NONE',  ( 0.000000000000000000, -1.000000000000000000, 0.000000000000000000 ) ) ;
#53 = EDGE_CURVE ( 'NONE', #46, #164, #150, .T. ) ;
#54 = CIRCLE ( 'NONE', #165, 0.04999999999999996114 ) ;
#55 = ORIENTED_EDGE ( 'NONE', *, *, #68, .T. ) ;
#56 = ORIENTED_EDGE ( 'NONE', *, *, #112, .T. ) ;
#57 = CARTESIAN_POINT ( 'NONE',  ( 0.3657340441691845911, 0.4358648610726302275, 0.000000000000000000 ) ) ;
#58 = ORIENTED_EDGE ( 'NONE', *, *, #126, .T. ) ;
#59 = DIRECTION ( 'NONE',  ( -0.000000000000000000, -0.000000000000000000, -1.000000000000000000 ) ) ;
#60 = VECTOR ( 'NONE', #25, 100.0000000000000000 ) ;
#61 = ADVANCED_FACE ( 'NONE', ( #93 ), #24, .T. ) ;
#62 = CARTESIAN_POINT ( 'NONE',  ( 0.5584206177310890862, 0.4136190560431431407, 3.388131789017201356E-19 ) ) ;
#63 = SHELL_BASED_SURFACE_MODEL ( 'NONE', ( #34 ) );
#64 = CARTESIAN_POINT ( 'NONE',  ( 0.6754664043757062641, 0.4998629534754573389, 0.000000000000000000 ) ) ;
#65 = CARTESIAN_POINT ( 'NONE',  ( 0.6780832021878531179, 0.4499314767377287638, 0.000000000000000000 ) ) ;
#66 = AXIS2_PLACEMENT_3D ( 'NONE', #32, #85, #5 ) ;
#67 = LINE ( 'NONE', #65, #80 ) ;
#68 = EDGE_CURVE ( 'NONE', #174, #46, #153, .T. ) ;
#69 = SHAPE_DEFINITION_REPRESENTATION ( #115, #42 ) ;
#70 = ORIENTED_EDGE ( 'NONE', *, *, #37, .T. ) ;
#71 = ORIENTED_EDGE ( 'NONE', *, *, #100, .F. ) ;
#72 = EDGE_LOOP ( 'NONE', ( #43, #83 ) ) ;
#73 = FACE_OUTER_BOUND ( 'NONE', #72, .T. ) ;
#74 = VERTEX_POINT ( 'NONE', #10 ) ;
#75 = CARTESIAN_POINT ( 'NONE',  ( 0.06527036446661391156, -1.301042606982605321E-16, 0.000000000000000000 ) ) ;
#76 = CARTESIAN_POINT ( 'NONE',  ( 0.000000000000000000, 0.000000000000000000, 0.000000000000000000 ) ) ;
#77 = DIRECTION ( 'NONE',  ( 1.000000000000000000, 0.000000000000000000, 0.000000000000000000 ) ) ;
#78 = CARTESIAN_POINT ( 'NONE',  ( 0.4754071150127369139, 0.4393096730951061013, 0.000000000000000000 ) ) ;
#79 = DIRECTION ( 'NONE',  ( 0.000000000000000000, 0.000000000000000000, 1.000000000000000000 ) ) ;
#80 = VECTOR ( 'NONE', #122, 100.0000000000000142 ) ;
#81 = APPLICATION_PROTOCOL_DEFINITION ( 'draft international standard', 'automotive_design', 1998, #117 ) ;
#82 = EDGE_CURVE ( 'NONE', #89, #120, #94, .T. ) ;
#83 = ORIENTED_EDGE ( 'NONE', *, *, #173, .T. ) ;
#84 = VERTEX_POINT ( 'NONE', #135 ) ;
#85 = DIRECTION ( 'NONE',  ( 0.000000000000000000, 0.000000000000000000, 1.000000000000000000 ) ) ;
#86 = EDGE_CURVE ( 'NONE', #74, #143, #54, .T. ) ;
#87 = CARTESIAN_POINT ( 'NONE',  ( 0.000000000000000000, 0.000000000000000000, 0.000000000000000000 ) ) ;
#88 = VECTOR ( 'NONE', #6, 100.0000000000000000 ) ;
#89 = VERTEX_POINT ( 'NONE', #148 ) ;
#90 = DIRECTION ( 'NONE',  ( 0.000000000000000000, 1.000000000000000000, 0.000000000000000000 ) ) ;
#91 = DIRECTION ( 'NONE',  ( 0.6427876096865435818, 0.7660444431189744607, -0.000000000000000000 ) ) ;
#92 =( LENGTH_UNIT ( ) NAMED_UNIT ( * ) SI_UNIT ( .CENTI., .METRE. ) );
#93 = FACE_OUTER_BOUND ( 'NONE', #146, .T. ) ;
#94 = LINE ( 'NONE', #27, #60 ) ;
#95 = AXIS2_PLACEMENT_3D ( 'NONE', #141, #127, #40 ) ;
#96 = VECTOR ( 'NONE', #9, 100.0000000000000284 ) ;
#97 = VERTEX_POINT ( 'NONE', #78 ) ;
#98 = DIRECTION ( 'NONE',  ( 0.000000000000000000, 0.000000000000000000, 1.000000000000000000 ) ) ;
#99 = CARTESIAN_POINT ( 'NONE',  ( 0.6806999999999999718, 0.4000000000000000222, 0.000000000000000000 ) ) ;
#100 = EDGE_CURVE ( 'NONE', #97, #74, #67, .T. ) ;
#101 = ORIENTED_EDGE ( 'NONE', *, *, #86, .F. ) ;
#102 = ORIENTED_EDGE ( 'NONE', *, *, #37, .F. ) ;
#103 = PRODUCT_DEFINITION_FORMATION_WITH_SPECIFIED_SOURCE ( 'ANY', '', #128, .NOT_KNOWN. ) ;
#104 = VECTOR ( 'NONE', #137, 100.0000000000000142 ) ;
#105 = LINE ( 'NONE', #166, #28 ) ;
#106 = DIRECTION ( 'NONE',  ( -0.9986295347545741663, -0.05233595624293683329, 0.000000000000000000 ) ) ;
#107 = CARTESIAN_POINT ( 'NONE',  ( 0.5542337412316541423, 0.4935094188235094048, 0.000000000000000000 ) ) ;
#108 = CARTESIAN_POINT ( 'NONE',  ( 0.6806999999999999718, 0.4000000000000000222, 0.000000000000000000 ) ) ;
#109 = ADVANCED_FACE ( 'NONE', ( #35 ), #182, .T. ) ;
#110 = CARTESIAN_POINT ( 'NONE',  ( 0.6383109805114554058, 0.4178059325425781401, 3.388131789017201356E-19 ) ) ;
#111 = PRODUCT_DEFINITION_CONTEXT ( 'detailed design', #117, 'design' ) ;
#112 = EDGE_CURVE ( 'NONE', #17, #97, #129, .T. ) ;
#113 = VECTOR ( 'NONE', #26, 100.0000000000000284 ) ;
#114 = PLANE ( 'NONE',  #18 ) ;
#115 = PRODUCT_DEFINITION_SHAPE ( 'NONE', 'NONE',  #163 ) ;
#116 = CARTESIAN_POINT ( 'NONE',  ( 0.7806999999999999496, 0.4000000000000000222, 0.000000000000000000 ) ) ;
#117 = APPLICATION_CONTEXT ( 'automotive_design' ) ;
#118 = LINE ( 'NONE', #136, #172 ) ;
#119 = EDGE_CURVE ( 'NONE', #164, #162, #168, .T. ) ;
#120 = VERTEX_POINT ( 'NONE', #75 ) ;
#121 = CIRCLE ( 'NONE', #66, 0.09999999999999992228 ) ;
#122 = DIRECTION ( 'NONE',  ( 0.9986295347545741663, 0.05233595624293766596, -0.000000000000000000 ) ) ;
#123 = CARTESIAN_POINT ( 'NONE',  ( 0.7806999999999999496, 0.000000000000000000, 0.000000000000000000 ) ) ;
#124 = CARTESIAN_POINT ( 'NONE',  ( 0.4806407106370307325, 0.3394467196196486736, 0.000000000000000000 ) ) ;
#125 = DIRECTION ( 'NONE',  ( 1.000000000000000000, 0.000000000000000000, -0.000000000000000000 ) ) ;
#126 = EDGE_CURVE ( 'NONE', #30, #89, #181, .T. ) ;
#127 = DIRECTION ( 'NONE',  ( 0.000000000000000000, 0.000000000000000000, 1.000000000000000000 ) ) ;
#128 = PRODUCT ( 'BCS_0.08', 'BCS_0.08', '', ( #29 ) ) ;
#129 = CIRCLE ( 'NONE', #2, 0.1000000000000000056 ) ;
#130 = ORIENTED_EDGE ( 'NONE', *, *, #171, .T. ) ;
#131 = ORIENTED_EDGE ( 'NONE', *, *, #149, .T. ) ;
#132 = CARTESIAN_POINT ( 'NONE',  ( 0.4040362663251332864, 0.4037254805883030984, 0.000000000000000000 ) ) ;
#133 = ORIENTED_EDGE ( 'NONE', *, *, #82, .T. ) ;
#134 = DIRECTION ( 'NONE',  ( 1.000000000000000000, 0.000000000000000000, 0.000000000000000000 ) ) ;
#135 = CARTESIAN_POINT ( 'NONE',  ( 0.7306999999999997941, 0.000000000000000000, 0.000000000000000000 ) ) ;
#136 = CARTESIAN_POINT ( 'NONE',  ( 0.5165126154894547073, 0.5377695737867623782, 0.000000000000000000 ) ) ;
#137 = DIRECTION ( 'NONE',  ( -0.6427876096865434707, -0.7660444431189745718, 0.000000000000000000 ) ) ;
#138 = DIRECTION ( 'NONE',  ( 1.000000000000000000, 0.000000000000000000, -0.000000000000000000 ) ) ;
#139 = CIRCLE ( 'NONE', #179, 0.1499999999999999667 ) ;
#140 =( NAMED_UNIT ( * ) PLANE_ANGLE_UNIT ( ) SI_UNIT ( $, .RADIAN. ) );
#141 = CARTESIAN_POINT ( 'NONE',  ( 0.000000000000000000, 0.000000000000000000, 0.000000000000000000 ) ) ;
#142 = ORIENTED_EDGE ( 'NONE', *, *, #22, .T. ) ;
#143 = VERTEX_POINT ( 'NONE', #151 ) ;
#144 = VERTEX_POINT ( 'NONE', #123 ) ;
#145 = VECTOR ( 'NONE', #52, 100.0000000000000000 ) ;
#146 = EDGE_LOOP ( 'NONE', ( #102, #142, #23, #101, #71, #31 ) ) ;
#147 = LINE ( 'NONE', #76, #48 ) ;
#148 = CARTESIAN_POINT ( 'NONE',  ( 0.000000000000000000, 0.000000000000000000, 0.000000000000000000 ) ) ;
#149 = EDGE_CURVE ( 'NONE', #143, #84, #178, .T. ) ;
#150 =( BOUNDED_CURVE ( )  B_SPLINE_CURVE ( 3, ( #39, #110, #62, #36 ),
 .UNSPECIFIED., .F., .F. ) 
 B_SPLINE_CURVE_WITH_KNOTS ( ( 4, 4 ),
 ( 4.712388980384687898, 7.853981633974484566 ),
 .UNSPECIFIED. ) 
 CURVE ( )  GEOMETRIC_REPRESENTATION_ITEM ( )  RATIONAL_B_SPLINE_CURVE ( ( 1.000000000000000000, 0.3333333333333321491, 0.3333333333333321491, 1.000000000000000000 ) ) 
 REPRESENTATION_ITEM ( '' )  );
#151 = CARTESIAN_POINT ( 'NONE',  ( 0.7306999999999999051, 0.4000000000000000222, 0.000000000000000000 ) ) ;
#152 = EDGE_CURVE ( 'NONE', #144, #20, #105, .T. ) ;
#153 = LINE ( 'NONE', #64, #113 ) ;
#154 = VECTOR ( 'NONE', #106, 100.0000000000000284 ) ;
#155 = UNCERTAINTY_MEASURE_WITH_UNIT (LENGTH_MEASURE( 1.000000000000000082E-05 ), #92, 'distance_accuracy_value', 'NONE');
#156 = APPLICATION_PROTOCOL_DEFINITION ( 'draft international standard', 'automotive_design', 1998, #1 ) ;
#157 = AXIS2_PLACEMENT_3D ( 'NONE', #11, #13, #125 ) ;
#158 = PRODUCT_RELATED_PRODUCT_CATEGORY ( 'part', '', ( #128 ) ) ;
#159 = ORIENTED_EDGE ( 'NONE', *, *, #119, .T. ) ;
#160 = DIRECTION ( 'NONE',  ( 1.000000000000000000, 0.000000000000000000, 0.000000000000000000 ) ) ;
#161 = DIRECTION ( 'NONE',  ( 1.000000000000000000, 0.000000000000000000, -0.000000000000000000 ) ) ;
#162 = VERTEX_POINT ( 'NONE', #50 ) ;
#163 = PRODUCT_DEFINITION ( 'UNKNOWN', '', #103, #111 ) ;
#164 = VERTEX_POINT ( 'NONE', #107 ) ;
#165 = AXIS2_PLACEMENT_3D ( 'NONE', #169, #170, #77 ) ;
#166 = CARTESIAN_POINT ( 'NONE',  ( 0.7806999999999999496, 0.000000000000000000, 0.000000000000000000 ) ) ;
#167 = CARTESIAN_POINT ( 'NONE',  ( 0.6754664043757062641, 0.4998629534754573944, 0.000000000000000000 ) ) ;
#168 = LINE ( 'NONE', #14, #96 ) ;
#169 = CARTESIAN_POINT ( 'NONE',  ( 0.6806999999999999718, 0.4000000000000000222, 0.000000000000000000 ) ) ;
#170 = DIRECTION ( 'NONE',  ( -0.000000000000000000, -0.000000000000000000, -1.000000000000000000 ) ) ;
#171 = EDGE_CURVE ( 'NONE', #84, #144, #147, .T. ) ;
#172 = VECTOR ( 'NONE', #91, 100.0000000000000142 ) ;
#173 = EDGE_CURVE ( 'NONE', #46, #164, #180, .T. ) ;
#174 = VERTEX_POINT ( 'NONE', #167 ) ;
#175 = CARTESIAN_POINT ( 'NONE',  ( 0.4806407106370307325, 0.3394467196196486736, 0.000000000000000000 ) ) ;
#176 = LINE ( 'NONE', #87, #88 ) ;
#177 =( GEOMETRIC_REPRESENTATION_CONTEXT ( 3 ) GLOBAL_UNCERTAINTY_ASSIGNED_CONTEXT ( ( #155 ) ) GLOBAL_UNIT_ASSIGNED_CONTEXT ( ( #92, #140, #16 ) ) REPRESENTATION_CONTEXT ( 'NONE', 'WORKASPACE' ) );
#178 = LINE ( 'NONE', #183, #145 ) ;
#179 = AXIS2_PLACEMENT_3D ( 'NONE', #175, #98, #160 ) ;
#180 = LINE ( 'NONE', #49, #154 ) ;
#181 = LINE ( 'NONE', #47, #104 ) ;
#182 = PLANE ( 'NONE',  #41 ) ;
#183 = CARTESIAN_POINT ( 'NONE',  ( 0.7306999999999999051, 0.4000000000000000222, 0.000000000000000000 ) ) ;
ENDSEC;
END-ISO-10303-21;
