ISO-10303-21;
HEADER;
FILE_DESCRIPTION (( 'STEP AP214' ),
    '1' );
FILE_NAME ('BCS_0.12.STEP',
    '2026-09-14T18:11:17',
    ( '' ),
    ( '' ),
    'SwSTEP 2.0',
    'SolidWorks 2026',
    '' );
FILE_SCHEMA (( 'AUTOMOTIVE_DESIGN' ));
ENDSEC;

DATA;
#1 = CARTESIAN_POINT ( 'NONE',  ( 0.6786065617502824443, 0.4399451813901830155, 0.000000000000000000 ) ) ;
#2 = DIRECTION ( 'NONE',  ( 0.9986295347545741663, 0.05233595624293724963, -0.000000000000000000 ) ) ;
#3 = CIRCLE ( 'NONE', #29, 0.09999999999999992228 ) ;
#4 = DIRECTION ( 'NONE',  ( 1.000000000000000000, 0.000000000000000000, 0.000000000000000000 ) ) ;
#5 = DIRECTION ( 'NONE',  ( 1.000000000000000000, 0.000000000000000000, -0.000000000000000000 ) ) ;
#6 = CARTESIAN_POINT ( 'NONE',  ( 0.6806999999999999718, 0.4000000000000000222, 0.000000000000000000 ) ) ;
#7 = CARTESIAN_POINT ( 'NONE',  ( 0.4806407106370307325, 0.3394467196196486736, 0.000000000000000000 ) ) ;
#8 = CARTESIAN_POINT ( 'NONE',  ( 0.6559361563091525849, 0.4636439961874293525, 3.388131789017201356E-19 ) ) ;
#9 = VECTOR ( 'NONE', #4, 100.0000000000000000 ) ;
#10 =( LENGTH_UNIT ( ) NAMED_UNIT ( * ) SI_UNIT ( .CENTI., .METRE. ) );
#11 = EDGE_LOOP ( 'NONE', ( #157, #97, #190, #173, #64, #141, #95, #18 ) ) ;
#12 = EDGE_CURVE ( 'NONE', #169, #208, #48, .T. ) ;
#13 = ORIENTED_EDGE ( 'NONE', *, *, #12, .T. ) ;
#14 = CARTESIAN_POINT ( 'NONE',  ( 0.6754664043757062641, 0.4998629534754573389, 0.000000000000000000 ) ) ;
#15 = LINE ( 'NONE', #172, #92 ) ;
#16 = ORIENTED_EDGE ( 'NONE', *, *, #121, .F. ) ;
#17 = CIRCLE ( 'NONE', #119, 0.04000000000000002165 ) ;
#18 = ORIENTED_EDGE ( 'NONE', *, *, #75, .T. ) ;
#19 = EDGE_CURVE ( 'NONE', #192, #34, #15, .T. ) ;
#20 = OPEN_SHELL ( 'NONE', ( #67, #201, #89, #184 ) ) ;
#21 = LINE ( 'NONE', #147, #46 ) ;
#22 = DIRECTION ( 'NONE',  ( 1.000000000000000000, 0.000000000000000000, 0.000000000000000000 ) ) ;
#23 = DIRECTION ( 'NONE',  ( 1.000000000000000000, 1.927470528863117767E-15, 0.000000000000000000 ) ) ;
#24 = PRODUCT_DEFINITION ( 'UNKNOWN', '', #63, #174 ) ;
#25 = DIRECTION ( 'NONE',  ( -0.000000000000000000, -0.000000000000000000, -1.000000000000000000 ) ) ;
#26 = LINE ( 'NONE', #37, #110 ) ;
#27 = PLANE ( 'NONE',  #159 ) ;
#28 = EDGE_CURVE ( 'NONE', #208, #207, #51, .T. ) ;
#29 = AXIS2_PLACEMENT_3D ( 'NONE', #185, #86, #55 ) ;
#30 = CARTESIAN_POINT ( 'NONE',  ( 0.6786065617502824443, 0.4399451813901830155, 0.000000000000000000 ) ) ;
#31 = CARTESIAN_POINT ( 'NONE',  ( 0.4806407106370307325, 0.3394467196196486736, 0.000000000000000000 ) ) ;
#32 =( BOUNDED_CURVE ( )  B_SPLINE_CURVE ( 3, ( #98, #69, #181, #54 ),
 .UNSPECIFIED., .F., .T. ) 
 B_SPLINE_CURVE_WITH_KNOTS ( ( 4, 4 ),
 ( 4.712388980384689674, 6.283185307179586232 ),
 .UNSPECIFIED. ) 
 CURVE ( )  GEOMETRIC_REPRESENTATION_ITEM ( )  RATIONAL_B_SPLINE_CURVE ( ( 1.000000000000000000, 0.8047378541243649375, 0.8047378541243649375, 1.000000000000000000 ) ) 
 REPRESENTATION_ITEM ( '' )  );
#33 = ORIENTED_EDGE ( 'NONE', *, *, #28, .F. ) ;
#34 = VERTEX_POINT ( 'NONE', #68 ) ;
#35 = UNCERTAINTY_MEASURE_WITH_UNIT (LENGTH_MEASURE( 1.000000000000000082E-05 ), #10, 'distance_accuracy_value', 'NONE');
#36 = EDGE_CURVE ( 'NONE', #140, #109, #47, .T. ) ;
#37 = CARTESIAN_POINT ( 'NONE',  ( 0.000000000000000000, 0.000000000000000000, 0.000000000000000000 ) ) ;
#38 = LINE ( 'NONE', #101, #9 ) ;
#39 = DIRECTION ( 'NONE',  ( 0.6427876096865435818, 0.7660444431189745718, -0.000000000000000000 ) ) ;
#40 = LINE ( 'NONE', #84, #100 ) ;
#41 = AXIS2_PLACEMENT_3D ( 'NONE', #31, #111, #196 ) ;
#42 = CARTESIAN_POINT ( 'NONE',  ( 0.6754664043757062641, 0.4998629534754573944, 0.000000000000000000 ) ) ;
#43 = CARTESIAN_POINT ( 'NONE',  ( 0.7806999999999999496, 0.000000000000000000, 0.000000000000000000 ) ) ;
#44 = AXIS2_PLACEMENT_3D ( 'NONE', #76, #167, #137 ) ;
#45 = APPLICATION_PROTOCOL_DEFINITION ( 'draft international standard', 'automotive_design', 1998, #177 ) ;
#46 = VECTOR ( 'NONE', #85, 100.0000000000000284 ) ;
#47 = CIRCLE ( 'NONE', #41, 0.1499999999999999667 ) ;
#48 = LINE ( 'NONE', #1, #186 ) ;
#49 = VERTEX_POINT ( 'NONE', #156 ) ;
#50 = ORIENTED_EDGE ( 'NONE', *, *, #121, .T. ) ;
#51 = LINE ( 'NONE', #30, #117 ) ;
#52 = EDGE_CURVE ( 'NONE', #65, #80, #53, .T. ) ;
#53 = LINE ( 'NONE', #14, #161 ) ;
#54 = CARTESIAN_POINT ( 'NONE',  ( 0.5342611505365626456, 0.4924626996986506966, 0.000000000000000000 ) ) ;
#55 = DIRECTION ( 'NONE',  ( 1.000000000000000000, 0.000000000000000000, 0.000000000000000000 ) ) ;
#56 = PLANE ( 'NONE',  #153 ) ;
#57 = CARTESIAN_POINT ( 'NONE',  ( 0.6540966947071116255, 0.4987430144478031124, 0.000000000000000000 ) ) ;
#58 = DIRECTION ( 'NONE',  ( 1.000000000000000000, 0.000000000000000000, 0.000000000000000000 ) ) ;
#59 = EDGE_CURVE ( 'NONE', #208, #80, #32, .T. ) ;
#60 =( NAMED_UNIT ( * ) PLANE_ANGLE_UNIT ( ) SI_UNIT ( $, .RADIAN. ) );
#61 = VERTEX_POINT ( 'NONE', #179 ) ;
#62 = PRODUCT_CONTEXT ( 'NONE', #177, 'mechanical' ) ;
#63 = PRODUCT_DEFINITION_FORMATION_WITH_SPECIFIED_SOURCE ( 'ANY', '', #203, .NOT_KNOWN. ) ;
#64 = ORIENTED_EDGE ( 'NONE', *, *, #19, .T. ) ;
#65 = VERTEX_POINT ( 'NONE', #90 ) ;
#66 = DIRECTION ( 'NONE',  ( 0.000000000000000000, -1.000000000000000000, 0.000000000000000000 ) ) ;
#67 = ADVANCED_FACE ( 'NONE', ( #130 ), #115, .T. ) ;
#68 = CARTESIAN_POINT ( 'NONE',  ( 0.7206999999999997852, 0.000000000000000000, 0.000000000000000000 ) ) ;
#69 = CARTESIAN_POINT ( 'NONE',  ( 0.5622200617360396668, 0.4338456233859114275, 3.388131789017201356E-19 ) ) ;
#70 = CARTESIAN_POINT ( 'NONE',  ( 0.4759304745751662402, 0.4293233777475604085, 0.000000000000000000 ) ) ;
#71 = DIRECTION ( 'NONE',  ( 0.000000000000000000, 0.000000000000000000, 1.000000000000000000 ) ) ;
#72 =( BOUNDED_CURVE ( )  B_SPLINE_CURVE ( 3, ( #57, #8, #183, #74 ),
 .UNSPECIFIED., .F., .T. ) 
 B_SPLINE_CURVE_WITH_KNOTS ( ( 4, 4 ),
 ( 3.141592653589791784, 4.712388980384689674 ),
 .UNSPECIFIED. ) 
 CURVE ( )  GEOMETRIC_REPRESENTATION_ITEM ( )  RATIONAL_B_SPLINE_CURVE ( ( 1.000000000000000000, 0.8047378541243646044, 0.8047378541243646044, 1.000000000000000000 ) ) 
 REPRESENTATION_ITEM ( '' )  );
#73 = CARTESIAN_POINT ( 'NONE',  ( 0.000000000000000000, 0.000000000000000000, 0.000000000000000000 ) ) ;
#74 = CARTESIAN_POINT ( 'NONE',  ( 0.5973190799964134268, 0.4356850849879523313, 3.388131789017201356E-19 ) ) ;
#75 = EDGE_CURVE ( 'NONE', #124, #126, #3, .T. ) ;
#76 = CARTESIAN_POINT ( 'NONE',  ( 0.000000000000000000, 0.000000000000000000, 0.000000000000000000 ) ) ;
#77 = PRODUCT_DEFINITION_SHAPE ( 'NONE', 'NONE',  #24 ) ;
#78 = ORIENTED_EDGE ( 'NONE', *, *, #138, .T. ) ;
#79 = DIRECTION ( 'NONE',  ( -0.9986295347545741663, -0.05233595624293683329, 0.000000000000000000 ) ) ;
#80 = VERTEX_POINT ( 'NONE', #150 ) ;
#81 = VERTEX_POINT ( 'NONE', #162 ) ;
#82 = ORIENTED_EDGE ( 'NONE', *, *, #144, .F. ) ;
#83 = VECTOR ( 'NONE', #22, 100.0000000000000000 ) ;
#84 = CARTESIAN_POINT ( 'NONE',  ( 0.3657340441691845356, 0.4358648610726302275, 0.000000000000000000 ) ) ;
#85 = DIRECTION ( 'NONE',  ( -0.9986295347545741663, -0.05233595624293683329, 0.000000000000000000 ) ) ;
#86 = DIRECTION ( 'NONE',  ( 0.000000000000000000, 0.000000000000000000, 1.000000000000000000 ) ) ;
#87 = LINE ( 'NONE', #151, #135 ) ;
#88 = EDGE_CURVE ( 'NONE', #126, #65, #133, .T. ) ;
#89 = ADVANCED_FACE ( 'NONE', ( #105 ), #56, .T. ) ;
#90 = CARTESIAN_POINT ( 'NONE',  ( 0.6540966947071116255, 0.4987430144478031124, 0.000000000000000000 ) ) ;
#91 = SHELL_BASED_SURFACE_MODEL ( 'NONE', ( #20 ) );
#92 = VECTOR ( 'NONE', #66, 100.0000000000000000 ) ;
#93 = EDGE_CURVE ( 'NONE', #34, #61, #38, .T. ) ;
#94 = ORIENTED_EDGE ( 'NONE', *, *, #166, .T. ) ;
#95 = ORIENTED_EDGE ( 'NONE', *, *, #206, .T. ) ;
#96 = ORIENTED_EDGE ( 'NONE', *, *, #59, .F. ) ;
#97 = ORIENTED_EDGE ( 'NONE', *, *, #103, .T. ) ;
#98 = CARTESIAN_POINT ( 'NONE',  ( 0.5973190799964134268, 0.4356850849879523313, 3.388131789017201356E-19 ) ) ;
#99 = DIRECTION ( 'NONE',  ( 1.000000000000000000, 0.000000000000000000, 0.000000000000000000 ) ) ;
#100 = VECTOR ( 'NONE', #112, 100.0000000000000142 ) ;
#101 = CARTESIAN_POINT ( 'NONE',  ( 0.000000000000000000, 0.000000000000000000, 0.000000000000000000 ) ) ;
#102 = PLANE ( 'NONE',  #189 ) ;
#103 = EDGE_CURVE ( 'NONE', #65, #208, #72, .T. ) ;
#104 = CARTESIAN_POINT ( 'NONE',  ( 0.4727903172005901156, 0.4892411498328348429, 0.000000000000000000 ) ) ;
#105 = FACE_OUTER_BOUND ( 'NONE', #127, .T. ) ;
#106 = CARTESIAN_POINT ( 'NONE',  ( 0.5973190799964134268, 0.4356850849879523313, 3.388131789017201356E-19 ) ) ;
#107 = CARTESIAN_POINT ( 'NONE',  ( 0.6806999999999999718, 0.4000000000000000222, 0.000000000000000000 ) ) ;
#108 = EDGE_LOOP ( 'NONE', ( #176, #143, #123, #82, #33, #188, #16 ) ) ;
#109 = VERTEX_POINT ( 'NONE', #129 ) ;
#110 = VECTOR ( 'NONE', #99, 100.0000000000000000 ) ;
#111 = DIRECTION ( 'NONE',  ( 0.000000000000000000, 0.000000000000000000, 1.000000000000000000 ) ) ;
#112 = DIRECTION ( 'NONE',  ( -0.6427876096865434707, -0.7660444431189745718, 0.000000000000000000 ) ) ;
#113 = DIRECTION ( 'NONE',  ( -0.9986295347545741663, -0.05233595624293683329, 0.000000000000000000 ) ) ;
#114 = CARTESIAN_POINT ( 'NONE',  ( 0.6806999999999999718, 0.4000000000000000222, 0.000000000000000000 ) ) ;
#115 = PLANE ( 'NONE',  #136 ) ;
#116 = CARTESIAN_POINT ( 'NONE',  ( 0.6806999999999999718, 0.4000000000000000222, 0.000000000000000000 ) ) ;
#117 = VECTOR ( 'NONE', #2, 100.0000000000000142 ) ;
#118 = SHAPE_DEFINITION_REPRESENTATION ( #77, #178 ) ;
#119 = AXIS2_PLACEMENT_3D ( 'NONE', #114, #164, #58 ) ;
#120 = DIRECTION ( 'NONE',  ( 0.000000000000000000, 0.000000000000000000, 1.000000000000000000 ) ) ;
#121 = EDGE_CURVE ( 'NONE', #49, #169, #191, .T. ) ;
#122 =( GEOMETRIC_REPRESENTATION_CONTEXT ( 3 ) GLOBAL_UNCERTAINTY_ASSIGNED_CONTEXT ( ( #35 ) ) GLOBAL_UNIT_ASSIGNED_CONTEXT ( ( #10, #60, #187 ) ) REPRESENTATION_CONTEXT ( 'NONE', 'WORKASPACE' ) );
#123 = ORIENTED_EDGE ( 'NONE', *, *, #19, .F. ) ;
#124 = VERTEX_POINT ( 'NONE', #197 ) ;
#125 = ORIENTED_EDGE ( 'NONE', *, *, #52, .T. ) ;
#126 = VERTEX_POINT ( 'NONE', #42 ) ;
#127 = EDGE_LOOP ( 'NONE', ( #193, #125, #96 ) ) ;
#128 = EDGE_CURVE ( 'NONE', #155, #34, #165, .T. ) ;
#129 = CARTESIAN_POINT ( 'NONE',  ( 0.3657340441691845911, 0.4358648610726302275, 0.000000000000000000 ) ) ;
#130 = FACE_OUTER_BOUND ( 'NONE', #11, .T. ) ;
#131 = VECTOR ( 'NONE', #152, 100.0000000000000000 ) ;
#132 = DIRECTION ( 'NONE',  ( 1.000000000000000000, 0.000000000000000000, -0.000000000000000000 ) ) ;
#133 = LINE ( 'NONE', #202, #170 ) ;
#134 = DIRECTION ( 'NONE',  ( 0.000000000000000000, 0.000000000000000000, 1.000000000000000000 ) ) ;
#135 = VECTOR ( 'NONE', #39, 100.0000000000000000 ) ;
#136 = AXIS2_PLACEMENT_3D ( 'NONE', #198, #182, #5 ) ;
#137 = DIRECTION ( 'NONE',  ( 1.000000000000000000, 0.000000000000000000, 0.000000000000000000 ) ) ;
#138 = EDGE_CURVE ( 'NONE', #109, #81, #40, .T. ) ;
#139 = ORIENTED_EDGE ( 'NONE', *, *, #59, .T. ) ;
#140 = VERTEX_POINT ( 'NONE', #104 ) ;
#141 = ORIENTED_EDGE ( 'NONE', *, *, #93, .T. ) ;
#142 = EDGE_LOOP ( 'NONE', ( #13, #139, #146, #154, #78, #94, #160, #50 ) ) ;
#143 = ORIENTED_EDGE ( 'NONE', *, *, #128, .T. ) ;
#144 = EDGE_CURVE ( 'NONE', #207, #192, #17, .T. ) ;
#145 = AXIS2_PLACEMENT_3D ( 'NONE', #7, #25, #23 ) ;
#146 = ORIENTED_EDGE ( 'NONE', *, *, #175, .T. ) ;
#147 = CARTESIAN_POINT ( 'NONE',  ( 0.6754664043757062641, 0.4998629534754573389, 0.000000000000000000 ) ) ;
#148 = APPLICATION_CONTEXT ( 'automotive_design' ) ;
#149 = FACE_OUTER_BOUND ( 'NONE', #108, .T. ) ;
#150 = CARTESIAN_POINT ( 'NONE',  ( 0.5342611505365626456, 0.4924626996986506966, 0.000000000000000000 ) ) ;
#151 = CARTESIAN_POINT ( 'NONE',  ( 0.5241730599206443353, 0.5313416976898969191, 0.000000000000000000 ) ) ;
#152 = DIRECTION ( 'NONE',  ( 0.000000000000000000, 1.000000000000000000, 0.000000000000000000 ) ) ;
#153 = AXIS2_PLACEMENT_3D ( 'NONE', #116, #134, #200 ) ;
#154 = ORIENTED_EDGE ( 'NONE', *, *, #36, .T. ) ;
#155 = VERTEX_POINT ( 'NONE', #180 ) ;
#156 = CARTESIAN_POINT ( 'NONE',  ( 0.4116967107563230255, 0.3972976044914376392, 0.000000000000000000 ) ) ;
#157 = ORIENTED_EDGE ( 'NONE', *, *, #88, .T. ) ;
#158 = EDGE_CURVE ( 'NONE', #155, #49, #87, .T. ) ;
#159 = AXIS2_PLACEMENT_3D ( 'NONE', #107, #120, #205 ) ;
#160 = ORIENTED_EDGE ( 'NONE', *, *, #158, .T. ) ;
#161 = VECTOR ( 'NONE', #79, 100.0000000000000284 ) ;
#162 = CARTESIAN_POINT ( 'NONE',  ( 0.000000000000000000, 0.000000000000000000, 0.000000000000000000 ) ) ;
#163 = FACE_OUTER_BOUND ( 'NONE', #142, .T. ) ;
#164 = DIRECTION ( 'NONE',  ( -0.000000000000000000, -0.000000000000000000, -1.000000000000000000 ) ) ;
#165 = LINE ( 'NONE', #73, #83 ) ;
#166 = EDGE_CURVE ( 'NONE', #81, #155, #26, .T. ) ;
#167 = DIRECTION ( 'NONE',  ( 0.000000000000000000, 0.000000000000000000, 1.000000000000000000 ) ) ;
#168 = CARTESIAN_POINT ( 'NONE',  ( 0.6786065617502824443, 0.4399451813901830155, 0.000000000000000000 ) ) ;
#169 = VERTEX_POINT ( 'NONE', #70 ) ;
#170 = VECTOR ( 'NONE', #113, 100.0000000000000284 ) ;
#171 = DIRECTION ( 'NONE',  ( 0.9986295347545741663, 0.05233595624293724963, -0.000000000000000000 ) ) ;
#172 = CARTESIAN_POINT ( 'NONE',  ( 0.7207000000000000073, 0.4000000000000000222, 0.000000000000000000 ) ) ;
#173 = ORIENTED_EDGE ( 'NONE', *, *, #144, .T. ) ;
#174 = PRODUCT_DEFINITION_CONTEXT ( 'detailed design', #148, 'design' ) ;
#175 = EDGE_CURVE ( 'NONE', #80, #140, #21, .T. ) ;
#176 = ORIENTED_EDGE ( 'NONE', *, *, #158, .F. ) ;
#177 = APPLICATION_CONTEXT ( 'automotive_design' ) ;
#178 = MANIFOLD_SURFACE_SHAPE_REPRESENTATION ( 'BCS_0.12', ( #91, #44 ), #122 ) ;
#179 = CARTESIAN_POINT ( 'NONE',  ( 0.7806999999999999496, 0.000000000000000000, 0.000000000000000000 ) ) ;
#180 = CARTESIAN_POINT ( 'NONE',  ( 0.07832443735993684097, -1.734723475976807094E-16, 0.000000000000000000 ) ) ;
#181 = CARTESIAN_POINT ( 'NONE',  ( 0.5361006121386036050, 0.4573636814382768812, 3.388131789017201356E-19 ) ) ;
#182 = DIRECTION ( 'NONE',  ( 0.000000000000000000, 0.000000000000000000, 1.000000000000000000 ) ) ;
#183 = CARTESIAN_POINT ( 'NONE',  ( 0.6324180982567871867, 0.4375245465899932351, 3.388131789017201356E-19 ) ) ;
#184 = ADVANCED_FACE ( 'NONE', ( #149 ), #102, .T. ) ;
#185 = CARTESIAN_POINT ( 'NONE',  ( 0.6806999999999999718, 0.4000000000000000222, 0.000000000000000000 ) ) ;
#186 = VECTOR ( 'NONE', #171, 100.0000000000000142 ) ;
#187 =( NAMED_UNIT ( * ) SI_UNIT ( $, .STERADIAN. ) SOLID_ANGLE_UNIT ( ) );
#188 = ORIENTED_EDGE ( 'NONE', *, *, #12, .F. ) ;
#189 = AXIS2_PLACEMENT_3D ( 'NONE', #6, #71, #132 ) ;
#190 = ORIENTED_EDGE ( 'NONE', *, *, #28, .T. ) ;
#191 = CIRCLE ( 'NONE', #145, 0.09000000000000006606 ) ;
#192 = VERTEX_POINT ( 'NONE', #199 ) ;
#193 = ORIENTED_EDGE ( 'NONE', *, *, #103, .F. ) ;
#194 = PRODUCT_RELATED_PRODUCT_CATEGORY ( 'part', '', ( #203 ) ) ;
#195 = LINE ( 'NONE', #43, #131 ) ;
#196 = DIRECTION ( 'NONE',  ( 1.000000000000000000, 0.000000000000000000, 0.000000000000000000 ) ) ;
#197 = CARTESIAN_POINT ( 'NONE',  ( 0.7806999999999999496, 0.4000000000000000222, 0.000000000000000000 ) ) ;
#198 = CARTESIAN_POINT ( 'NONE',  ( 0.6806999999999999718, 0.4000000000000000222, 0.000000000000000000 ) ) ;
#199 = CARTESIAN_POINT ( 'NONE',  ( 0.7207000000000000073, 0.4000000000000000222, 0.000000000000000000 ) ) ;
#200 = DIRECTION ( 'NONE',  ( 1.000000000000000000, 0.000000000000000000, -0.000000000000000000 ) ) ;
#201 = ADVANCED_FACE ( 'NONE', ( #163 ), #27, .T. ) ;
#202 = CARTESIAN_POINT ( 'NONE',  ( 0.6754664043757062641, 0.4998629534754573389, 0.000000000000000000 ) ) ;
#203 = PRODUCT ( 'BCS_0.12', 'BCS_0.12', '', ( #62 ) ) ;
#204 = APPLICATION_PROTOCOL_DEFINITION ( 'draft international standard', 'automotive_design', 1998, #148 ) ;
#205 = DIRECTION ( 'NONE',  ( 1.000000000000000000, 0.000000000000000000, -0.000000000000000000 ) ) ;
#206 = EDGE_CURVE ( 'NONE', #61, #124, #195, .T. ) ;
#207 = VERTEX_POINT ( 'NONE', #168 ) ;
#208 = VERTEX_POINT ( 'NONE', #106 ) ;
ENDSEC;
END-ISO-10303-21;
