ISO-10303-21;
HEADER;
FILE_DESCRIPTION (( 'STEP AP214' ),
    '1' );
FILE_NAME ('BCS_0.16.STEP',
    '2026-09-16T17:11:19',
    ( '' ),
    ( '' ),
    'SwSTEP 2.0',
    'SolidWorks 2026',
    '' );
FILE_SCHEMA (( 'AUTOMOTIVE_DESIGN' ));
ENDSEC;

DATA;
#1 = ORIENTED_EDGE ( 'NONE', *, *, #222, .T. ) ;
#2 = ORIENTED_EDGE ( 'NONE', *, *, #66, .F. ) ;
#3 = EDGE_LOOP ( 'NONE', ( #52, #21, #18, #179, #217, #1, #133, #184 ) ) ;
#4 = ORIENTED_EDGE ( 'NONE', *, *, #82, .F. ) ;
#5 = ORIENTED_EDGE ( 'NONE', *, *, #148, .T. ) ;
#6 = PLANE ( 'NONE',  #28 ) ;
#7 = LINE ( 'NONE', #30, #39 ) ;
#8 = CARTESIAN_POINT ( 'NONE',  ( 0.6780832021878531179, 0.4499314767377287638, 0.000000000000000000 ) ) ;
#9 = AXIS2_PLACEMENT_3D ( 'NONE', #115, #22, #96 ) ;
#10 = LINE ( 'NONE', #83, #15 ) ;
#11 = CARTESIAN_POINT ( 'NONE',  ( 0.7806999999999999496, 0.000000000000000000, 0.000000000000000000 ) ) ;
#12 = ADVANCED_FACE ( 'NONE', ( #37 ), #196, .T. ) ;
#13 = CIRCLE ( 'NONE', #134, 0.1499999999999999667 ) ;
#14 = APPLICATION_CONTEXT ( 'automotive_design' ) ;
#15 = VECTOR ( 'NONE', #72, 100.0000000000000142 ) ;
#16 = VERTEX_POINT ( 'NONE', #112 ) ;
#17 = EDGE_CURVE ( 'NONE', #58, #200, #181, .T. ) ;
#18 = ORIENTED_EDGE ( 'NONE', *, *, #78, .T. ) ;
#19 = CIRCLE ( 'NONE', #173, 0.04999999999999996114 ) ;
#20 = ORIENTED_EDGE ( 'NONE', *, *, #17, .T. ) ;
#21 = ORIENTED_EDGE ( 'NONE', *, *, #36, .T. ) ;
#22 = DIRECTION ( 'NONE',  ( 0.000000000000000000, 0.000000000000000000, 1.000000000000000000 ) ) ;
#23 = VECTOR ( 'NONE', #44, 100.0000000000000142 ) ;
#24 = FACE_OUTER_BOUND ( 'NONE', #3, .T. ) ;
#25 = CARTESIAN_POINT ( 'NONE',  ( 0.5142885598414712600, 0.4914159805737919329, 0.000000000000000000 ) ) ;
#26 = CARTESIAN_POINT ( 'NONE',  ( 0.5344313259771454883, 0.4424030009156840748, 0.000000000000000000 ) ) ;
#27 = LINE ( 'NONE', #187, #55 ) ;
#28 = AXIS2_PLACEMENT_3D ( 'NONE', #81, #87, #193 ) ;
#29 = APPLICATION_CONTEXT ( 'automotive_design' ) ;
#30 = CARTESIAN_POINT ( 'NONE',  ( 0.6754664043757062641, 0.4998629534754573389, 0.000000000000000000 ) ) ;
#31 = ADVANCED_FACE ( 'NONE', ( #41 ), #76, .T. ) ;
#32 = DIRECTION ( 'NONE',  ( 0.9986295347545741663, 0.05233595624293766596, -0.000000000000000000 ) ) ;
#33 = CIRCLE ( 'NONE', #202, 0.1000000000000000056 ) ;
#34 = ORIENTED_EDGE ( 'NONE', *, *, #66, .T. ) ;
#35 = CARTESIAN_POINT ( 'NONE',  ( 0.5344313259771454883, 0.4424030009156840748, 0.000000000000000000 ) ) ;
#36 = EDGE_CURVE ( 'NONE', #219, #91, #136, .T. ) ;
#37 = FACE_OUTER_BOUND ( 'NONE', #79, .T. ) ;
#38 = VERTEX_POINT ( 'NONE', #128 ) ;
#39 = VECTOR ( 'NONE', #155, 100.0000000000000284 ) ;
#40 = DIRECTION ( 'NONE',  ( 1.000000000000000000, 0.000000000000000000, -0.000000000000000000 ) ) ;
#41 = FACE_OUTER_BOUND ( 'NONE', #135, .T. ) ;
#42 = DIRECTION ( 'NONE',  ( -0.9986295347545741663, -0.05233595624293683329, 0.000000000000000000 ) ) ;
#43 = CARTESIAN_POINT ( 'NONE',  ( 0.000000000000000000, 0.000000000000000000, 0.000000000000000000 ) ) ;
#44 = DIRECTION ( 'NONE',  ( -0.6427876096865434707, -0.7660444431189745718, 0.000000000000000000 ) ) ;
#45 = PRODUCT_RELATED_PRODUCT_CATEGORY ( 'part', '', ( #178 ) ) ;
#46 = CARTESIAN_POINT ( 'NONE',  ( 0.6754664043757062641, 0.4998629534754573389, 0.000000000000000000 ) ) ;
#47 = DIRECTION ( 'NONE',  ( 1.000000000000000000, 0.000000000000000000, 0.000000000000000000 ) ) ;
#48 = LINE ( 'NONE', #120, #194 ) ;
#49 = CARTESIAN_POINT ( 'NONE',  ( 0.6806999999999999718, 0.4000000000000000222, 0.000000000000000000 ) ) ;
#50 = VECTOR ( 'NONE', #42, 100.0000000000000284 ) ;
#51 = ORIENTED_EDGE ( 'NONE', *, *, #127, .F. ) ;
#52 = ORIENTED_EDGE ( 'NONE', *, *, #116, .T. ) ;
#53 = APPLICATION_PROTOCOL_DEFINITION ( 'draft international standard', 'automotive_design', 1998, #14 ) ;
#54 = EDGE_CURVE ( 'NONE', #195, #113, #169, .T. ) ;
#55 = VECTOR ( 'NONE', #80, 100.0000000000000142 ) ;
#56 = VERTEX_POINT ( 'NONE', #70 ) ;
#57 = ORIENTED_EDGE ( 'NONE', *, *, #162, .T. ) ;
#58 = VERTEX_POINT ( 'NONE', #227 ) ;
#59 = VECTOR ( 'NONE', #164, 100.0000000000000000 ) ;
#60 = EDGE_CURVE ( 'NONE', #150, #132, #27, .T. ) ;
#61 = ORIENTED_EDGE ( 'NONE', *, *, #36, .F. ) ;
#62 = LINE ( 'NONE', #188, #224 ) ;
#63 = CARTESIAN_POINT ( 'NONE',  ( 0.000000000000000000, 0.000000000000000000, 0.000000000000000000 ) ) ;
#64 = DIRECTION ( 'NONE',  ( 1.000000000000000000, 0.000000000000000000, 0.000000000000000000 ) ) ;
#65 = PLANE ( 'NONE',  #75 ) ;
#66 = EDGE_CURVE ( 'NONE', #132, #56, #19, .T. ) ;
#67 = CIRCLE ( 'NONE', #105, 0.09999999999999992228 ) ;
#68 = APPLICATION_PROTOCOL_DEFINITION ( 'draft international standard', 'automotive_design', 1998, #29 ) ;
#69 = DIRECTION ( 'NONE',  ( 1.000000000000000000, 0.000000000000000000, 0.000000000000000000 ) ) ;
#70 = CARTESIAN_POINT ( 'NONE',  ( 0.7306999999999999051, 0.4000000000000000222, 0.000000000000000000 ) ) ;
#71 = MANIFOLD_SURFACE_SHAPE_REPRESENTATION ( 'BCS_0.16', ( #231, #92 ), #124 ) ;
#72 = DIRECTION ( 'NONE',  ( 0.9986295347545741663, 0.05233595624293766596, -0.000000000000000000 ) ) ;
#73 = FACE_OUTER_BOUND ( 'NONE', #93, .T. ) ;
#74 = EDGE_LOOP ( 'NONE', ( #51, #163 ) ) ;
#75 = AXIS2_PLACEMENT_3D ( 'NONE', #212, #118, #102 ) ;
#76 = PLANE ( 'NONE',  #9 ) ;
#77 = DIRECTION ( 'NONE',  ( 0.000000000000000000, 0.000000000000000000, 1.000000000000000000 ) ) ;
#78 = EDGE_CURVE ( 'NONE', #91, #146, #7, .T. ) ;
#79 = EDGE_LOOP ( 'NONE', ( #165, #151, #152, #34, #223, #20, #5, #186 ) ) ;
#80 = DIRECTION ( 'NONE',  ( 0.9986295347545741663, 0.05233595624293766596, -0.000000000000000000 ) ) ;
#81 = CARTESIAN_POINT ( 'NONE',  ( 0.6806999999999999718, 0.4000000000000000222, 0.000000000000000000 ) ) ;
#82 = EDGE_CURVE ( 'NONE', #16, #38, #33, .T. ) ;
#83 = CARTESIAN_POINT ( 'NONE',  ( 0.6780832021878531179, 0.4499314767377287638, 0.000000000000000000 ) ) ;
#84 = VECTOR ( 'NONE', #137, 100.0000000000000000 ) ;
#85 = DIRECTION ( 'NONE',  ( -0.9986295347545741663, -0.05233595624293683329, 0.000000000000000000 ) ) ;
#86 = CARTESIAN_POINT ( 'NONE',  ( 0.5713461032236941683, 0.4009448207539934583, 3.388131789017201356E-19 ) ) ;
#87 = DIRECTION ( 'NONE',  ( 0.000000000000000000, 0.000000000000000000, 1.000000000000000000 ) ) ;
#88 = EDGE_CURVE ( 'NONE', #225, #218, #174, .T. ) ;
#89 = VECTOR ( 'NONE', #232, 100.0000000000000142 ) ;
#90 = VERTEX_POINT ( 'NONE', #153 ) ;
#91 = VERTEX_POINT ( 'NONE', #226 ) ;
#92 = AXIS2_PLACEMENT_3D ( 'NONE', #43, #119, #180 ) ;
#93 = EDGE_LOOP ( 'NONE', ( #198, #94, #221, #4, #161, #57, #130, #2 ) ) ;
#94 = ORIENTED_EDGE ( 'NONE', *, *, #127, .T. ) ;
#95 = PRODUCT_DEFINITION_SHAPE ( 'NONE', 'NONE',  #229 ) ;
#96 = DIRECTION ( 'NONE',  ( 1.000000000000000000, 0.000000000000000000, -0.000000000000000000 ) ) ;
#97 = VECTOR ( 'NONE', #85, 100.0000000000000284 ) ;
#98 = EDGE_CURVE ( 'NONE', #146, #195, #13, .T. ) ;
#99 = LINE ( 'NONE', #220, #129 ) ;
#100 = DIRECTION ( 'NONE',  ( 0.000000000000000000, 0.000000000000000000, 1.000000000000000000 ) ) ;
#101 = CARTESIAN_POINT ( 'NONE',  ( 0.6754664043757062641, 0.4998629534754573944, 0.000000000000000000 ) ) ;
#102 = DIRECTION ( 'NONE',  ( 1.000000000000000000, 0.000000000000000000, -0.000000000000000000 ) ) ;
#103 =( LENGTH_UNIT ( ) NAMED_UNIT ( * ) SI_UNIT ( .CENTI., .METRE. ) );
#104 = CARTESIAN_POINT ( 'NONE',  ( 0.6591601148908224905, 0.4489397597553123065, 0.000000000000000000 ) ) ;
#105 = AXIS2_PLACEMENT_3D ( 'NONE', #213, #100, #156 ) ;
#106 = CARTESIAN_POINT ( 'NONE',  ( 0.6806999999999999718, 0.4000000000000000222, 0.000000000000000000 ) ) ;
#107 = FACE_OUTER_BOUND ( 'NONE', #74, .T. ) ;
#108 = CARTESIAN_POINT ( 'NONE',  ( 0.3657340441691845911, 0.4358648610726302275, 0.000000000000000000 ) ) ;
#109 = ADVANCED_FACE ( 'NONE', ( #107 ), #65, .T. ) ;
#110 = CARTESIAN_POINT ( 'NONE',  ( 0.5222258889321542696, 0.4561106607122967782, 3.388131789017201356E-19 ) ) ;
#111 = CARTESIAN_POINT ( 'NONE',  ( 0.06527036446661391156, -1.301042606982605321E-16, 0.000000000000000000 ) ) ;
#112 = CARTESIAN_POINT ( 'NONE',  ( 0.4040362663251332864, 0.4037254805883030984, 0.000000000000000000 ) ) ;
#113 = VERTEX_POINT ( 'NONE', #140 ) ;
#114 = LINE ( 'NONE', #158, #89 ) ;
#115 = CARTESIAN_POINT ( 'NONE',  ( 0.6806999999999999718, 0.4000000000000000222, 0.000000000000000000 ) ) ;
#116 = EDGE_CURVE ( 'NONE', #38, #219, #10, .T. ) ;
#117 = DIRECTION ( 'NONE',  ( 1.000000000000000000, 0.000000000000000000, -0.000000000000000000 ) ) ;
#118 = DIRECTION ( 'NONE',  ( 0.000000000000000000, 0.000000000000000000, 1.000000000000000000 ) ) ;
#119 = DIRECTION ( 'NONE',  ( 0.000000000000000000, 0.000000000000000000, 1.000000000000000000 ) ) ;
#120 = CARTESIAN_POINT ( 'NONE',  ( 0.7806999999999999496, 0.000000000000000000, 0.000000000000000000 ) ) ;
#121 = CARTESIAN_POINT ( 'NONE',  ( 0.6267811205186616386, 0.4038500469049393637, 3.388131789017201356E-19 ) ) ;
#122 = LINE ( 'NONE', #206, #97 ) ;
#123 = EDGE_CURVE ( 'NONE', #218, #91, #122, .T. ) ;
#124 =( GEOMETRIC_REPRESENTATION_CONTEXT ( 3 ) GLOBAL_UNCERTAINTY_ASSIGNED_CONTEXT ( ( #201 ) ) GLOBAL_UNIT_ASSIGNED_CONTEXT ( ( #103, #168, #208 ) ) REPRESENTATION_CONTEXT ( 'NONE', 'WORKASPACE' ) );
#125 = DIRECTION ( 'NONE',  ( -0.000000000000000000, -0.000000000000000000, -1.000000000000000000 ) ) ;
#126 = CARTESIAN_POINT ( 'NONE',  ( 0.6780832021878531179, 0.4499314767377287638, 0.000000000000000000 ) ) ;
#127 = EDGE_CURVE ( 'NONE', #150, #219, #149, .T. ) ;
#128 = CARTESIAN_POINT ( 'NONE',  ( 0.4754071150127369139, 0.4393096730951061013, 0.000000000000000000 ) ) ;
#129 = VECTOR ( 'NONE', #64, 100.0000000000000000 ) ;
#130 = ORIENTED_EDGE ( 'NONE', *, *, #216, .F. ) ;
#131 = EDGE_CURVE ( 'NONE', #218, #150, #171, .T. ) ;
#132 = VERTEX_POINT ( 'NONE', #8 ) ;
#133 = ORIENTED_EDGE ( 'NONE', *, *, #203, .T. ) ;
#134 = AXIS2_PLACEMENT_3D ( 'NONE', #191, #172, #167 ) ;
#135 = EDGE_LOOP ( 'NONE', ( #147, #185, #61, #166 ) ) ;
#136 =( BOUNDED_CURVE ( )  B_SPLINE_CURVE ( 3, ( #35, #110, #141, #25 ),
 .UNSPECIFIED., .F., .T. ) 
 B_SPLINE_CURVE_WITH_KNOTS ( ( 4, 4 ),
 ( 4.037257447447659686, 4.712388980384690562 ),
 .UNSPECIFIED. ) 
 CURVE ( )  GEOMETRIC_REPRESENTATION_ITEM ( )  RATIONAL_B_SPLINE_CURVE ( ( 1.000000000000000000, 0.9623757713646636791, 0.9623757713646636791, 1.000000000000000000 ) ) 
 REPRESENTATION_ITEM ( '' )  );
#137 = DIRECTION ( 'NONE',  ( 1.000000000000000000, 0.000000000000000000, 0.000000000000000000 ) ) ;
#138 = DIRECTION ( 'NONE',  ( 0.000000000000000000, 0.000000000000000000, 1.000000000000000000 ) ) ;
#139 = CARTESIAN_POINT ( 'NONE',  ( 0.6750298642687638795, 0.4814607969204707238, 3.388131789017201356E-19 ) ) ;
#140 = CARTESIAN_POINT ( 'NONE',  ( 0.000000000000000000, 0.000000000000000000, 0.000000000000000000 ) ) ;
#141 = CARTESIAN_POINT ( 'NONE',  ( 0.5152491387080320173, 0.4730870439216007806, 3.388131789017201356E-19 ) ) ;
#142 = CARTESIAN_POINT ( 'NONE',  ( 0.6698658486610701290, 0.4638481431351260120, 3.388131789017201356E-19 ) ) ;
#143 = LINE ( 'NONE', #126, #177 ) ;
#144 = PRODUCT_DEFINITION_FORMATION_WITH_SPECIFIED_SOURCE ( 'ANY', '', #178, .NOT_KNOWN. ) ;
#145 = EDGE_CURVE ( 'NONE', #90, #225, #67, .T. ) ;
#146 = VERTEX_POINT ( 'NONE', #228 ) ;
#147 = ORIENTED_EDGE ( 'NONE', *, *, #131, .F. ) ;
#148 = EDGE_CURVE ( 'NONE', #200, #90, #48, .T. ) ;
#149 =( BOUNDED_CURVE ( )  B_SPLINE_CURVE ( 3, ( #211, #121, #86, #26 ),
 .UNSPECIFIED., .F., .F. ) 
 B_SPLINE_CURVE_WITH_KNOTS ( ( 4, 4 ),
 ( 2.245927859731925658, 4.037257447447659686 ),
 .UNSPECIFIED. ) 
 CURVE ( )  GEOMETRIC_REPRESENTATION_ITEM ( )  RATIONAL_B_SPLINE_CURVE ( ( 1.000000000000000000, 0.7499999999999988898, 0.7499999999999988898, 1.000000000000000000 ) ) 
 REPRESENTATION_ITEM ( '' )  );
#150 = VERTEX_POINT ( 'NONE', #192 ) ;
#151 = ORIENTED_EDGE ( 'NONE', *, *, #131, .T. ) ;
#152 = ORIENTED_EDGE ( 'NONE', *, *, #60, .T. ) ;
#153 = CARTESIAN_POINT ( 'NONE',  ( 0.7806999999999999496, 0.4000000000000000222, 0.000000000000000000 ) ) ;
#154 = DIRECTION ( 'NONE',  ( -0.000000000000000000, -0.000000000000000000, -1.000000000000000000 ) ) ;
#155 = DIRECTION ( 'NONE',  ( -0.9986295347545741663, -0.05233595624293683329, 0.000000000000000000 ) ) ;
#156 = DIRECTION ( 'NONE',  ( 1.000000000000000000, 0.000000000000000000, 0.000000000000000000 ) ) ;
#157 = CARTESIAN_POINT ( 'NONE',  ( 0.4806407106370307325, 0.3394467196196486736, 0.000000000000000000 ) ) ;
#158 = CARTESIAN_POINT ( 'NONE',  ( 0.5165126154894547073, 0.5377695737867623782, 0.000000000000000000 ) ) ;
#159 = OPEN_SHELL ( 'NONE', ( #207, #12, #170, #31, #109 ) ) ;
#160 = AXIS2_PLACEMENT_3D ( 'NONE', #204, #77, #40 ) ;
#161 = ORIENTED_EDGE ( 'NONE', *, *, #203, .F. ) ;
#162 = EDGE_CURVE ( 'NONE', #233, #58, #175, .T. ) ;
#163 = ORIENTED_EDGE ( 'NONE', *, *, #176, .F. ) ;
#164 = DIRECTION ( 'NONE',  ( 1.000000000000000000, 0.000000000000000000, 0.000000000000000000 ) ) ;
#165 = ORIENTED_EDGE ( 'NONE', *, *, #88, .T. ) ;
#166 = ORIENTED_EDGE ( 'NONE', *, *, #176, .T. ) ;
#167 = DIRECTION ( 'NONE',  ( 1.000000000000000000, 0.000000000000000000, 0.000000000000000000 ) ) ;
#168 =( NAMED_UNIT ( * ) PLANE_ANGLE_UNIT ( ) SI_UNIT ( $, .RADIAN. ) );
#169 = LINE ( 'NONE', #209, #23 ) ;
#170 = ADVANCED_FACE ( 'NONE', ( #24 ), #6, .T. ) ;
#171 =( BOUNDED_CURVE ( )  B_SPLINE_CURVE ( 3, ( #230, #139, #142, #104 ),
 .UNSPECIFIED., .F., .T. ) 
 B_SPLINE_CURVE_WITH_KNOTS ( ( 4, 4 ),
 ( 1.570796326794895448, 2.245927859731925658 ),
 .UNSPECIFIED. ) 
 CURVE ( )  GEOMETRIC_REPRESENTATION_ITEM ( )  RATIONAL_B_SPLINE_CURVE ( ( 1.000000000000000000, 0.9623757713646636791, 0.9623757713646636791, 1.000000000000000000 ) ) 
 REPRESENTATION_ITEM ( '' )  );
#172 = DIRECTION ( 'NONE',  ( 0.000000000000000000, 0.000000000000000000, 1.000000000000000000 ) ) ;
#173 = AXIS2_PLACEMENT_3D ( 'NONE', #106, #154, #47 ) ;
#174 = LINE ( 'NONE', #46, #50 ) ;
#175 = LINE ( 'NONE', #63, #84 ) ;
#176 = EDGE_CURVE ( 'NONE', #219, #150, #143, .T. ) ;
#177 = VECTOR ( 'NONE', #32, 100.0000000000000142 ) ;
#178 = PRODUCT ( 'BCS_0.16', 'BCS_0.16', '', ( #199 ) ) ;
#179 = ORIENTED_EDGE ( 'NONE', *, *, #98, .T. ) ;
#180 = DIRECTION ( 'NONE',  ( 1.000000000000000000, 0.000000000000000000, 0.000000000000000000 ) ) ;
#181 = LINE ( 'NONE', #205, #59 ) ;
#182 = DIRECTION ( 'NONE',  ( 0.000000000000000000, -1.000000000000000000, 0.000000000000000000 ) ) ;
#183 = AXIS2_PLACEMENT_3D ( 'NONE', #49, #138, #117 ) ;
#184 = ORIENTED_EDGE ( 'NONE', *, *, #82, .T. ) ;
#185 = ORIENTED_EDGE ( 'NONE', *, *, #123, .T. ) ;
#186 = ORIENTED_EDGE ( 'NONE', *, *, #145, .T. ) ;
#187 = CARTESIAN_POINT ( 'NONE',  ( 0.6780832021878531179, 0.4499314767377287638, 0.000000000000000000 ) ) ;
#188 = CARTESIAN_POINT ( 'NONE',  ( 0.7306999999999999051, 0.4000000000000000222, 0.000000000000000000 ) ) ;
#189 = DIRECTION ( 'NONE',  ( 0.000000000000000000, 1.000000000000000000, 0.000000000000000000 ) ) ;
#190 = CARTESIAN_POINT ( 'NONE',  ( 0.6740692854022030112, 0.4997897335726618762, 0.000000000000000000 ) ) ;
#191 = CARTESIAN_POINT ( 'NONE',  ( 0.4806407106370307325, 0.3394467196196486736, 0.000000000000000000 ) ) ;
#192 = CARTESIAN_POINT ( 'NONE',  ( 0.6591601148908224905, 0.4489397597553123065, 0.000000000000000000 ) ) ;
#193 = DIRECTION ( 'NONE',  ( 1.000000000000000000, 0.000000000000000000, -0.000000000000000000 ) ) ;
#194 = VECTOR ( 'NONE', #189, 100.0000000000000000 ) ;
#195 = VERTEX_POINT ( 'NONE', #108 ) ;
#196 = PLANE ( 'NONE',  #160 ) ;
#197 = CARTESIAN_POINT ( 'NONE',  ( 0.5344313259771454883, 0.4424030009156840748, 0.000000000000000000 ) ) ;
#198 = ORIENTED_EDGE ( 'NONE', *, *, #60, .F. ) ;
#199 = PRODUCT_CONTEXT ( 'NONE', #14, 'mechanical' ) ;
#200 = VERTEX_POINT ( 'NONE', #11 ) ;
#201 = UNCERTAINTY_MEASURE_WITH_UNIT (LENGTH_MEASURE( 1.000000000000000082E-05 ), #103, 'distance_accuracy_value', 'NONE');
#202 = AXIS2_PLACEMENT_3D ( 'NONE', #157, #125, #69 ) ;
#203 = EDGE_CURVE ( 'NONE', #233, #16, #114, .T. ) ;
#204 = CARTESIAN_POINT ( 'NONE',  ( 0.6806999999999999718, 0.4000000000000000222, 0.000000000000000000 ) ) ;
#205 = CARTESIAN_POINT ( 'NONE',  ( 0.000000000000000000, 0.000000000000000000, 0.000000000000000000 ) ) ;
#206 = CARTESIAN_POINT ( 'NONE',  ( 0.6754664043757062641, 0.4998629534754573389, 0.000000000000000000 ) ) ;
#207 = ADVANCED_FACE ( 'NONE', ( #73 ), #214, .T. ) ;
#208 =( NAMED_UNIT ( * ) SI_UNIT ( $, .STERADIAN. ) SOLID_ANGLE_UNIT ( ) );
#209 = CARTESIAN_POINT ( 'NONE',  ( 0.3657340441691845356, 0.4358648610726302275, 0.000000000000000000 ) ) ;
#210 = SHAPE_DEFINITION_REPRESENTATION ( #95, #71 ) ;
#211 = CARTESIAN_POINT ( 'NONE',  ( 0.6591601148908224905, 0.4489397597553123065, 0.000000000000000000 ) ) ;
#212 = CARTESIAN_POINT ( 'NONE',  ( 0.6806999999999999718, 0.4000000000000000222, 0.000000000000000000 ) ) ;
#213 = CARTESIAN_POINT ( 'NONE',  ( 0.6806999999999999718, 0.4000000000000000222, 0.000000000000000000 ) ) ;
#214 = PLANE ( 'NONE',  #183 ) ;
#215 = PRODUCT_DEFINITION_CONTEXT ( 'detailed design', #29, 'design' ) ;
#216 = EDGE_CURVE ( 'NONE', #56, #58, #62, .T. ) ;
#217 = ORIENTED_EDGE ( 'NONE', *, *, #54, .T. ) ;
#218 = VERTEX_POINT ( 'NONE', #190 ) ;
#219 = VERTEX_POINT ( 'NONE', #197 ) ;
#220 = CARTESIAN_POINT ( 'NONE',  ( 0.000000000000000000, 0.000000000000000000, 0.000000000000000000 ) ) ;
#221 = ORIENTED_EDGE ( 'NONE', *, *, #116, .F. ) ;
#222 = EDGE_CURVE ( 'NONE', #113, #233, #99, .T. ) ;
#223 = ORIENTED_EDGE ( 'NONE', *, *, #216, .T. ) ;
#224 = VECTOR ( 'NONE', #182, 100.0000000000000000 ) ;
#225 = VERTEX_POINT ( 'NONE', #101 ) ;
#226 = CARTESIAN_POINT ( 'NONE',  ( 0.5142885598414712600, 0.4914159805737919329, 0.000000000000000000 ) ) ;
#227 = CARTESIAN_POINT ( 'NONE',  ( 0.7306999999999997941, 0.000000000000000000, 0.000000000000000000 ) ) ;
#228 = CARTESIAN_POINT ( 'NONE',  ( 0.4727903172005901156, 0.4892411498328348429, 0.000000000000000000 ) ) ;
#229 = PRODUCT_DEFINITION ( 'UNKNOWN', '', #144, #215 ) ;
#230 = CARTESIAN_POINT ( 'NONE',  ( 0.6740692854022030112, 0.4997897335726618762, 0.000000000000000000 ) ) ;
#231 = SHELL_BASED_SURFACE_MODEL ( 'NONE', ( #159 ) );
#232 = DIRECTION ( 'NONE',  ( 0.6427876096865435818, 0.7660444431189744607, -0.000000000000000000 ) ) ;
#233 = VERTEX_POINT ( 'NONE', #111 ) ;
ENDSEC;
END-ISO-10303-21;
