ISO-10303-21;
HEADER;
FILE_DESCRIPTION (( 'STEP AP214' ),
    '1' );
FILE_NAME ('BCS_0.04.STEP',
    '2026-09-16T17:13:55',
    ( '' ),
    ( '' ),
    'SwSTEP 2.0',
    'SolidWorks 2026',
    '' );
FILE_SCHEMA (( 'AUTOMOTIVE_DESIGN' ));
ENDSEC;

DATA;
#1 = LINE ( 'NONE', #114, #154 ) ;
#2 = ORIENTED_EDGE ( 'NONE', *, *, #34, .F. ) ;
#3 = AXIS2_PLACEMENT_3D ( 'NONE', #45, #175, #76 ) ;
#4 = CARTESIAN_POINT ( 'NONE',  ( 0.4727903172005901156, 0.4892411498328348429, 0.000000000000000000 ) ) ;
#5 = VERTEX_POINT ( 'NONE', #137 ) ;
#6 = DIRECTION ( 'NONE',  ( 1.000000000000000000, 0.000000000000000000, -0.000000000000000000 ) ) ;
#7 = ORIENTED_EDGE ( 'NONE', *, *, #152, .T. ) ;
#8 = DIRECTION ( 'NONE',  ( 1.000000000000000000, 0.000000000000000000, 0.000000000000000000 ) ) ;
#9 = CARTESIAN_POINT ( 'NONE',  ( 0.7806999999999999496, 0.000000000000000000, 0.000000000000000000 ) ) ;
#10 = CARTESIAN_POINT ( 'NONE',  ( 0.4806407106370307325, 0.3394467196196486736, 0.000000000000000000 ) ) ;
#11 = AXIS2_PLACEMENT_3D ( 'NONE', #10, #166, #61 ) ;
#12 = CARTESIAN_POINT ( 'NONE',  ( 0.5742063319267456389, 0.4945561379483681685, 0.000000000000000000 ) ) ;
#13 = CARTESIAN_POINT ( 'NONE',  ( 0.4754071150127369139, 0.4393096730951061013, 0.000000000000000000 ) ) ;
#14 = CARTESIAN_POINT ( 'NONE',  ( 0.6806999999999999718, 0.4000000000000000222, 0.000000000000000000 ) ) ;
#15 = UNCERTAINTY_MEASURE_WITH_UNIT (LENGTH_MEASURE( 1.000000000000000082E-05 ), #132, 'distance_accuracy_value', 'NONE');
#16 = OPEN_SHELL ( 'NONE', ( #85, #104, #53 ) ) ;
#17 = ORIENTED_EDGE ( 'NONE', *, *, #169, .T. ) ;
#18 = EDGE_CURVE ( 'NONE', #80, #145, #89, .T. ) ;
#19 = CARTESIAN_POINT ( 'NONE',  ( 0.5165126154894547073, 0.5377695737867623782, 0.000000000000000000 ) ) ;
#20 = SHAPE_DEFINITION_REPRESENTATION ( #22, #112 ) ;
#21 = CARTESIAN_POINT ( 'NONE',  ( 0.4040362663251332864, 0.4037254805883030984, 0.000000000000000000 ) ) ;
#22 = PRODUCT_DEFINITION_SHAPE ( 'NONE', 'NONE',  #83 ) ;
#23 = CARTESIAN_POINT ( 'NONE',  ( 0.6806999999999999718, 0.4000000000000000222, 0.000000000000000000 ) ) ;
#24 = VERTEX_POINT ( 'NONE', #116 ) ;
#25 = CARTESIAN_POINT ( 'NONE',  ( 0.000000000000000000, 0.000000000000000000, 0.000000000000000000 ) ) ;
#26 = ORIENTED_EDGE ( 'NONE', *, *, #90, .F. ) ;
#27 = DIRECTION ( 'NONE',  ( -0.9986295347545741663, -0.05233595624293683329, 0.000000000000000000 ) ) ;
#28 = EDGE_CURVE ( 'NONE', #164, #80, #172, .T. ) ;
#29 = AXIS2_PLACEMENT_3D ( 'NONE', #165, #179, #139 ) ;
#30 = CARTESIAN_POINT ( 'NONE',  ( 0.5762997701764629443, 0.4546109565581848422, 3.388131789017201356E-19 ) ) ;
#31 = DIRECTION ( 'NONE',  ( -0.9986295347545741663, -0.05233595624293683329, 0.000000000000000000 ) ) ;
#32 = SHELL_BASED_SURFACE_MODEL ( 'NONE', ( #16 ) );
#33 = VECTOR ( 'NONE', #27, 100.0000000000000284 ) ;
#34 = EDGE_CURVE ( 'NONE', #123, #5, #43, .T. ) ;
#35 = APPLICATION_CONTEXT ( 'automotive_design' ) ;
#36 = ORIENTED_EDGE ( 'NONE', *, *, #141, .T. ) ;
#37 = CARTESIAN_POINT ( 'NONE',  ( 0.3657340441691845356, 0.4358648610726302275, 0.000000000000000000 ) ) ;
#38 = DIRECTION ( 'NONE',  ( 1.000000000000000000, 0.000000000000000000, 0.000000000000000000 ) ) ;
#39 = ORIENTED_EDGE ( 'NONE', *, *, #18, .T. ) ;
#40 = ORIENTED_EDGE ( 'NONE', *, *, #102, .T. ) ;
#41 = PRODUCT_RELATED_PRODUCT_CATEGORY ( 'part', '', ( #50 ) ) ;
#42 = VECTOR ( 'NONE', #111, 100.0000000000000000 ) ;
#43 =( BOUNDED_CURVE ( )  B_SPLINE_CURVE ( 3, ( #167, #69, #30, #12 ),
 .UNSPECIFIED., .F., .T. ) 
 B_SPLINE_CURVE_WITH_KNOTS ( ( 4, 4 ),
 ( 4.712388980384685233, 7.853981633974487231 ),
 .UNSPECIFIED. ) 
 CURVE ( )  GEOMETRIC_REPRESENTATION_ITEM ( )  RATIONAL_B_SPLINE_CURVE ( ( 1.000000000000000000, 0.3333333333333303727, 0.3333333333333303727, 1.000000000000000000 ) ) 
 REPRESENTATION_ITEM ( '' )  );
#44 = CARTESIAN_POINT ( 'NONE',  ( 0.000000000000000000, 0.000000000000000000, 0.000000000000000000 ) ) ;
#45 = CARTESIAN_POINT ( 'NONE',  ( 0.000000000000000000, 0.000000000000000000, 0.000000000000000000 ) ) ;
#46 = VECTOR ( 'NONE', #51, 100.0000000000000000 ) ;
#47 = ORIENTED_EDGE ( 'NONE', *, *, #73, .T. ) ;
#48 = DIRECTION ( 'NONE',  ( 0.000000000000000000, 0.000000000000000000, 1.000000000000000000 ) ) ;
#49 = CARTESIAN_POINT ( 'NONE',  ( 0.06527036446661391156, -1.301042606982605321E-16, 0.000000000000000000 ) ) ;
#50 = PRODUCT ( 'BCS_0.04', 'BCS_0.04', '', ( #52 ) ) ;
#51 = DIRECTION ( 'NONE',  ( 0.000000000000000000, 1.000000000000000000, 0.000000000000000000 ) ) ;
#52 = PRODUCT_CONTEXT ( 'NONE', #35, 'mechanical' ) ;
#53 = ADVANCED_FACE ( 'NONE', ( #149 ), #150, .T. ) ;
#54 = VERTEX_POINT ( 'NONE', #160 ) ;
#55 = EDGE_CURVE ( 'NONE', #123, #5, #158, .T. ) ;
#56 = CIRCLE ( 'NONE', #153, 0.04999999999999996114 ) ;
#57 = EDGE_CURVE ( 'NONE', #96, #24, #134, .T. ) ;
#58 = CARTESIAN_POINT ( 'NONE',  ( 0.000000000000000000, 0.000000000000000000, 0.000000000000000000 ) ) ;
#59 = CARTESIAN_POINT ( 'NONE',  ( 0.7306999999999999051, 0.4000000000000000222, 0.000000000000000000 ) ) ;
#60 = DIRECTION ( 'NONE',  ( 1.000000000000000000, 0.000000000000000000, 0.000000000000000000 ) ) ;
#61 = DIRECTION ( 'NONE',  ( 1.000000000000000000, 0.000000000000000000, 0.000000000000000000 ) ) ;
#62 =( GEOMETRIC_REPRESENTATION_CONTEXT ( 3 ) GLOBAL_UNCERTAINTY_ASSIGNED_CONTEXT ( ( #15 ) ) GLOBAL_UNIT_ASSIGNED_CONTEXT ( ( #132, #144, #161 ) ) REPRESENTATION_CONTEXT ( 'NONE', 'WORKASPACE' ) );
#63 = EDGE_LOOP ( 'NONE', ( #163, #7, #91, #94, #26, #65 ) ) ;
#64 = CARTESIAN_POINT ( 'NONE',  ( 0.6754664043757062641, 0.4998629534754573944, 0.000000000000000000 ) ) ;
#65 = ORIENTED_EDGE ( 'NONE', *, *, #18, .F. ) ;
#66 = VERTEX_POINT ( 'NONE', #93 ) ;
#67 = FACE_OUTER_BOUND ( 'NONE', #128, .T. ) ;
#68 = EDGE_LOOP ( 'NONE', ( #2, #178 ) ) ;
#69 = CARTESIAN_POINT ( 'NONE',  ( 0.6162449515666462707, 0.4567043948079023141, 3.388131789017201356E-19 ) ) ;
#70 = CARTESIAN_POINT ( 'NONE',  ( 0.7806999999999999496, 0.000000000000000000, 0.000000000000000000 ) ) ;
#71 = AXIS2_PLACEMENT_3D ( 'NONE', #84, #127, #60 ) ;
#72 = CARTESIAN_POINT ( 'NONE',  ( 0.6141515133169286322, 0.4966495761980856405, 0.000000000000000000 ) ) ;
#73 = EDGE_CURVE ( 'NONE', #24, #164, #130, .T. ) ;
#74 = CARTESIAN_POINT ( 'NONE',  ( 0.6754664043757062641, 0.4998629534754573389, 0.000000000000000000 ) ) ;
#75 = ORIENTED_EDGE ( 'NONE', *, *, #28, .T. ) ;
#76 = DIRECTION ( 'NONE',  ( 1.000000000000000000, 0.000000000000000000, 0.000000000000000000 ) ) ;
#77 = VERTEX_POINT ( 'NONE', #4 ) ;
#78 = ORIENTED_EDGE ( 'NONE', *, *, #115, .T. ) ;
#79 = CARTESIAN_POINT ( 'NONE',  ( 0.6806999999999999718, 0.4000000000000000222, 0.000000000000000000 ) ) ;
#80 = VERTEX_POINT ( 'NONE', #21 ) ;
#81 = AXIS2_PLACEMENT_3D ( 'NONE', #79, #159, #38 ) ;
#82 = VECTOR ( 'NONE', #108, 100.0000000000000142 ) ;
#83 = PRODUCT_DEFINITION ( 'UNKNOWN', '', #88, #151 ) ;
#84 = CARTESIAN_POINT ( 'NONE',  ( 0.4806407106370307325, 0.3394467196196486736, 0.000000000000000000 ) ) ;
#85 = ADVANCED_FACE ( 'NONE', ( #67 ), #118, .T. ) ;
#86 = CIRCLE ( 'NONE', #81, 0.09999999999999992228 ) ;
#87 = LINE ( 'NONE', #142, #103 ) ;
#88 = PRODUCT_DEFINITION_FORMATION_WITH_SPECIFIED_SOURCE ( 'ANY', '', #50, .NOT_KNOWN. ) ;
#89 = CIRCLE ( 'NONE', #11, 0.1000000000000000056 ) ;
#90 = EDGE_CURVE ( 'NONE', #145, #66, #97, .T. ) ;
#91 = ORIENTED_EDGE ( 'NONE', *, *, #169, .F. ) ;
#92 = ORIENTED_EDGE ( 'NONE', *, *, #34, .T. ) ;
#93 = CARTESIAN_POINT ( 'NONE',  ( 0.6780832021878531179, 0.4499314767377287638, 0.000000000000000000 ) ) ;
#94 = ORIENTED_EDGE ( 'NONE', *, *, #171, .F. ) ;
#95 = DIRECTION ( 'NONE',  ( 1.000000000000000000, 0.000000000000000000, 0.000000000000000000 ) ) ;
#96 = VERTEX_POINT ( 'NONE', #174 ) ;
#97 = LINE ( 'NONE', #177, #82 ) ;
#98 = VERTEX_POINT ( 'NONE', #64 ) ;
#99 = CIRCLE ( 'NONE', #71, 0.1499999999999999667 ) ;
#100 = PLANE ( 'NONE',  #110 ) ;
#101 = DIRECTION ( 'NONE',  ( 1.000000000000000000, 0.000000000000000000, 0.000000000000000000 ) ) ;
#102 = EDGE_CURVE ( 'NONE', #147, #133, #135, .T. ) ;
#103 = VECTOR ( 'NONE', #31, 100.0000000000000284 ) ;
#104 = ADVANCED_FACE ( 'NONE', ( #162 ), #100, .T. ) ;
#105 = VERTEX_POINT ( 'NONE', #59 ) ;
#106 = ORIENTED_EDGE ( 'NONE', *, *, #171, .T. ) ;
#107 = APPLICATION_PROTOCOL_DEFINITION ( 'draft international standard', 'automotive_design', 1998, #126 ) ;
#108 = DIRECTION ( 'NONE',  ( 0.9986295347545741663, 0.05233595624293766596, -0.000000000000000000 ) ) ;
#109 = ORIENTED_EDGE ( 'NONE', *, *, #136, .T. ) ;
#110 = AXIS2_PLACEMENT_3D ( 'NONE', #14, #183, #170 ) ;
#111 = DIRECTION ( 'NONE',  ( 1.000000000000000000, 0.000000000000000000, 0.000000000000000000 ) ) ;
#112 = MANIFOLD_SURFACE_SHAPE_REPRESENTATION ( 'BCS_0.04', ( #32, #3 ), #62 ) ;
#113 = CARTESIAN_POINT ( 'NONE',  ( 0.7806999999999999496, 0.4000000000000000222, 0.000000000000000000 ) ) ;
#114 = CARTESIAN_POINT ( 'NONE',  ( 0.7306999999999999051, 0.4000000000000000222, 0.000000000000000000 ) ) ;
#115 = EDGE_CURVE ( 'NONE', #5, #77, #87, .T. ) ;
#116 = CARTESIAN_POINT ( 'NONE',  ( 0.000000000000000000, 0.000000000000000000, 0.000000000000000000 ) ) ;
#117 = ORIENTED_EDGE ( 'NONE', *, *, #125, .T. ) ;
#118 = PLANE ( 'NONE',  #155 ) ;
#119 = DIRECTION ( 'NONE',  ( 0.000000000000000000, -1.000000000000000000, 0.000000000000000000 ) ) ;
#120 = CARTESIAN_POINT ( 'NONE',  ( 0.6754664043757062641, 0.4998629534754573389, 0.000000000000000000 ) ) ;
#121 = CARTESIAN_POINT ( 'NONE',  ( 0.6806999999999999718, 0.4000000000000000222, 0.000000000000000000 ) ) ;
#122 = VECTOR ( 'NONE', #129, 100.0000000000000142 ) ;
#123 = VERTEX_POINT ( 'NONE', #72 ) ;
#124 = VECTOR ( 'NONE', #140, 100.0000000000000284 ) ;
#125 = EDGE_CURVE ( 'NONE', #77, #96, #99, .T. ) ;
#126 = APPLICATION_CONTEXT ( 'automotive_design' ) ;
#127 = DIRECTION ( 'NONE',  ( 0.000000000000000000, 0.000000000000000000, 1.000000000000000000 ) ) ;
#128 = EDGE_LOOP ( 'NONE', ( #36, #92, #78, #117, #157, #47, #75, #39, #148, #106, #17, #109, #40, #131 ) ) ;
#129 = DIRECTION ( 'NONE',  ( 0.6427876096865435818, 0.7660444431189744607, -0.000000000000000000 ) ) ;
#130 = LINE ( 'NONE', #25, #168 ) ;
#131 = ORIENTED_EDGE ( 'NONE', *, *, #181, .T. ) ;
#132 =( LENGTH_UNIT ( ) NAMED_UNIT ( * ) SI_UNIT ( .CENTI., .METRE. ) );
#133 = VERTEX_POINT ( 'NONE', #113 ) ;
#134 = LINE ( 'NONE', #37, #176 ) ;
#135 = LINE ( 'NONE', #9, #46 ) ;
#136 = EDGE_CURVE ( 'NONE', #54, #147, #143, .T. ) ;
#137 = CARTESIAN_POINT ( 'NONE',  ( 0.5742063319267456389, 0.4945561379483681685, 0.000000000000000000 ) ) ;
#138 = VECTOR ( 'NONE', #101, 100.0000000000000000 ) ;
#139 = DIRECTION ( 'NONE',  ( 1.000000000000000000, 0.000000000000000000, -0.000000000000000000 ) ) ;
#140 = DIRECTION ( 'NONE',  ( -0.9986295347545741663, -0.05233595624293683329, 0.000000000000000000 ) ) ;
#141 = EDGE_CURVE ( 'NONE', #98, #123, #182, .T. ) ;
#142 = CARTESIAN_POINT ( 'NONE',  ( 0.6754664043757062641, 0.4998629534754573389, 0.000000000000000000 ) ) ;
#143 = LINE ( 'NONE', #44, #138 ) ;
#144 =( NAMED_UNIT ( * ) PLANE_ANGLE_UNIT ( ) SI_UNIT ( $, .RADIAN. ) );
#145 = VERTEX_POINT ( 'NONE', #13 ) ;
#146 = DIRECTION ( 'NONE',  ( -0.6427876096865434707, -0.7660444431189745718, 0.000000000000000000 ) ) ;
#147 = VERTEX_POINT ( 'NONE', #70 ) ;
#148 = ORIENTED_EDGE ( 'NONE', *, *, #90, .T. ) ;
#149 = FACE_OUTER_BOUND ( 'NONE', #63, .T. ) ;
#150 = PLANE ( 'NONE',  #29 ) ;
#151 = PRODUCT_DEFINITION_CONTEXT ( 'detailed design', #126, 'design' ) ;
#152 = EDGE_CURVE ( 'NONE', #164, #54, #180, .T. ) ;
#153 = AXIS2_PLACEMENT_3D ( 'NONE', #23, #173, #95 ) ;
#154 = VECTOR ( 'NONE', #119, 100.0000000000000000 ) ;
#155 = AXIS2_PLACEMENT_3D ( 'NONE', #121, #48, #6 ) ;
#156 = APPLICATION_PROTOCOL_DEFINITION ( 'draft international standard', 'automotive_design', 1998, #35 ) ;
#157 = ORIENTED_EDGE ( 'NONE', *, *, #57, .T. ) ;
#158 = LINE ( 'NONE', #120, #33 ) ;
#159 = DIRECTION ( 'NONE',  ( 0.000000000000000000, 0.000000000000000000, 1.000000000000000000 ) ) ;
#160 = CARTESIAN_POINT ( 'NONE',  ( 0.7306999999999997941, 0.000000000000000000, 0.000000000000000000 ) ) ;
#161 =( NAMED_UNIT ( * ) SI_UNIT ( $, .STERADIAN. ) SOLID_ANGLE_UNIT ( ) );
#162 = FACE_OUTER_BOUND ( 'NONE', #68, .T. ) ;
#163 = ORIENTED_EDGE ( 'NONE', *, *, #28, .F. ) ;
#164 = VERTEX_POINT ( 'NONE', #49 ) ;
#165 = CARTESIAN_POINT ( 'NONE',  ( 0.6806999999999999718, 0.4000000000000000222, 0.000000000000000000 ) ) ;
#166 = DIRECTION ( 'NONE',  ( -0.000000000000000000, -0.000000000000000000, -1.000000000000000000 ) ) ;
#167 = CARTESIAN_POINT ( 'NONE',  ( 0.6141515133169286322, 0.4966495761980856405, 0.000000000000000000 ) ) ;
#168 = VECTOR ( 'NONE', #8, 100.0000000000000000 ) ;
#169 = EDGE_CURVE ( 'NONE', #105, #54, #1, .T. ) ;
#170 = DIRECTION ( 'NONE',  ( 1.000000000000000000, 0.000000000000000000, -0.000000000000000000 ) ) ;
#171 = EDGE_CURVE ( 'NONE', #66, #105, #56, .T. ) ;
#172 = LINE ( 'NONE', #19, #122 ) ;
#173 = DIRECTION ( 'NONE',  ( -0.000000000000000000, -0.000000000000000000, -1.000000000000000000 ) ) ;
#174 = CARTESIAN_POINT ( 'NONE',  ( 0.3657340441691845911, 0.4358648610726302275, 0.000000000000000000 ) ) ;
#175 = DIRECTION ( 'NONE',  ( 0.000000000000000000, 0.000000000000000000, 1.000000000000000000 ) ) ;
#176 = VECTOR ( 'NONE', #146, 100.0000000000000142 ) ;
#177 = CARTESIAN_POINT ( 'NONE',  ( 0.6780832021878531179, 0.4499314767377287638, 0.000000000000000000 ) ) ;
#178 = ORIENTED_EDGE ( 'NONE', *, *, #55, .T. ) ;
#179 = DIRECTION ( 'NONE',  ( 0.000000000000000000, 0.000000000000000000, 1.000000000000000000 ) ) ;
#180 = LINE ( 'NONE', #58, #42 ) ;
#181 = EDGE_CURVE ( 'NONE', #133, #98, #86, .T. ) ;
#182 = LINE ( 'NONE', #74, #124 ) ;
#183 = DIRECTION ( 'NONE',  ( 0.000000000000000000, 0.000000000000000000, 1.000000000000000000 ) ) ;
ENDSEC;
END-ISO-10303-21;
