ISO-10303-21;
HEADER;
FILE_DESCRIPTION (( 'STEP AP214' ),
    '1' );
FILE_NAME ('BCS_0.12.STEP',
    '2026-09-16T17:12:00',
    ( '' ),
    ( '' ),
    'SwSTEP 2.0',
    'SolidWorks 2026',
    '' );
FILE_SCHEMA (( 'AUTOMOTIVE_DESIGN' ));
ENDSEC;

DATA;
#1 = PLANE ( 'NONE',  #173 ) ;
#2 = EDGE_CURVE ( 'NONE', #175, #33, #90, .T. ) ;
#3 = DIRECTION ( 'NONE',  ( -0.000000000000000000, -0.000000000000000000, -1.000000000000000000 ) ) ;
#4 =( BOUNDED_CURVE ( )  B_SPLINE_CURVE ( 3, ( #208, #30, #171, #13 ),
 .UNSPECIFIED., .F., .F. ) 
 B_SPLINE_CURVE_WITH_KNOTS ( ( 4, 4 ),
 ( 0.5856855434571544006, 1.570796326794898112 ),
 .UNSPECIFIED. ) 
 CURVE ( )  GEOMETRIC_REPRESENTATION_ITEM ( )  RATIONAL_B_SPLINE_CURVE ( ( 1.000000000000000000, 0.9207515637455079283, 0.9207515637455079283, 1.000000000000000000 ) ) 
 REPRESENTATION_ITEM ( '' )  );
#5 = APPLICATION_CONTEXT ( 'automotive_design' ) ;
#6 = CARTESIAN_POINT ( 'NONE',  ( 0.4727903172005901156, 0.4892411498328348429, 0.000000000000000000 ) ) ;
#7 = VECTOR ( 'NONE', #219, 100.0000000000000000 ) ;
#8 = CARTESIAN_POINT ( 'NONE',  ( 0.6780832021878531179, 0.4499314767377287638, 0.000000000000000000 ) ) ;
#9 = CARTESIAN_POINT ( 'NONE',  ( 0.6540966947071116255, 0.4987430144478031124, 0.000000000000000000 ) ) ;
#10 = PRODUCT_RELATED_PRODUCT_CATEGORY ( 'part', '', ( #37 ) ) ;
#11 = MANIFOLD_SURFACE_SHAPE_REPRESENTATION ( 'BCS_0.12', ( #117, #32 ), #131 ) ;
#12 = FACE_OUTER_BOUND ( 'NONE', #55, .T. ) ;
#13 = CARTESIAN_POINT ( 'NONE',  ( 0.5342611505365626456, 0.4924626996986506966, 0.000000000000000000 ) ) ;
#14 = CARTESIAN_POINT ( 'NONE',  ( 0.6806999999999999718, 0.4000000000000000222, 0.000000000000000000 ) ) ;
#15 = CIRCLE ( 'NONE', #88, 0.1499999999999999667 ) ;
#16 = ORIENTED_EDGE ( 'NONE', *, *, #141, .T. ) ;
#17 = VECTOR ( 'NONE', #21, 100.0000000000000142 ) ;
#18 = ORIENTED_EDGE ( 'NONE', *, *, #160, .F. ) ;
#19 = ORIENTED_EDGE ( 'NONE', *, *, #196, .T. ) ;
#20 = ORIENTED_EDGE ( 'NONE', *, *, #116, .T. ) ;
#21 = DIRECTION ( 'NONE',  ( 0.9986295347545741663, 0.05233595624293766596, -0.000000000000000000 ) ) ;
#22 = LINE ( 'NONE', #112, #61 ) ;
#23 = CARTESIAN_POINT ( 'NONE',  ( 0.6754664043757062641, 0.4998629534754573944, 0.000000000000000000 ) ) ;
#24 = DIRECTION ( 'NONE',  ( 0.000000000000000000, -1.000000000000000000, 0.000000000000000000 ) ) ;
#25 = OPEN_SHELL ( 'NONE', ( #82, #132, #53, #86, #203 ) ) ;
#26 = DIRECTION ( 'NONE',  ( 0.000000000000000000, 0.000000000000000000, 1.000000000000000000 ) ) ;
#27 = DIRECTION ( 'NONE',  ( -0.9986295347545741663, -0.05233595624293683329, 0.000000000000000000 ) ) ;
#28 = SHAPE_DEFINITION_REPRESENTATION ( #80, #11 ) ;
#29 = EDGE_CURVE ( 'NONE', #230, #176, #38, .T. ) ;
#30 = CARTESIAN_POINT ( 'NONE',  ( 0.5459847633487088236, 0.4543797430845495922, 3.388131789017201356E-19 ) ) ;
#31 = DIRECTION ( 'NONE',  ( 1.000000000000000000, 0.000000000000000000, 0.000000000000000000 ) ) ;
#32 = AXIS2_PLACEMENT_3D ( 'NONE', #190, #101, #68 ) ;
#33 = VERTEX_POINT ( 'NONE', #6 ) ;
#34 = ORIENTED_EDGE ( 'NONE', *, *, #2, .T. ) ;
#35 = ORIENTED_EDGE ( 'NONE', *, *, #177, .T. ) ;
#36 = VERTEX_POINT ( 'NONE', #201 ) ;
#37 = PRODUCT ( 'BCS_0.12', 'BCS_0.12', '', ( #114 ) ) ;
#38 = LINE ( 'NONE', #8, #156 ) ;
#39 = PLANE ( 'NONE',  #188 ) ;
#40 = CARTESIAN_POINT ( 'NONE',  ( 0.4806407106370307325, 0.3394467196196486736, 0.000000000000000000 ) ) ;
#41 = CARTESIAN_POINT ( 'NONE',  ( 0.7306999999999999051, 0.4000000000000000222, 0.000000000000000000 ) ) ;
#42 = CARTESIAN_POINT ( 'NONE',  ( 0.4806407106370307325, 0.3394467196196486736, 0.000000000000000000 ) ) ;
#43 = VECTOR ( 'NONE', #27, 100.0000000000000284 ) ;
#44 =( NAMED_UNIT ( * ) SI_UNIT ( $, .STERADIAN. ) SOLID_ANGLE_UNIT ( ) );
#45 = LINE ( 'NONE', #225, #213 ) ;
#46 = DIRECTION ( 'NONE',  ( 0.000000000000000000, 1.000000000000000000, 0.000000000000000000 ) ) ;
#47 = PRODUCT_DEFINITION_FORMATION_WITH_SPECIFIED_SOURCE ( 'ANY', '', #37, .NOT_KNOWN. ) ;
#48 = CARTESIAN_POINT ( 'NONE',  ( 0.7306999999999997941, 0.000000000000000000, 0.000000000000000000 ) ) ;
#49 = DIRECTION ( 'NONE',  ( 0.000000000000000000, 0.000000000000000000, 1.000000000000000000 ) ) ;
#50 = EDGE_CURVE ( 'NONE', #229, #175, #145, .T. ) ;
#51 = VERTEX_POINT ( 'NONE', #76 ) ;
#52 = DIRECTION ( 'NONE',  ( -0.9986295347545741663, -0.05233595624293683329, 0.000000000000000000 ) ) ;
#53 = ADVANCED_FACE ( 'NONE', ( #95 ), #39, .T. ) ;
#54 =( BOUNDED_CURVE ( )  B_SPLINE_CURVE ( 3, ( #157, #222, #98, #151 ),
 .UNSPECIFIED., .F., .T. ) 
 B_SPLINE_CURVE_WITH_KNOTS ( ( 4, 4 ),
 ( 4.712388980384687898, 5.697499763722428057 ),
 .UNSPECIFIED. ) 
 CURVE ( )  GEOMETRIC_REPRESENTATION_ITEM ( )  RATIONAL_B_SPLINE_CURVE ( ( 1.000000000000000000, 0.9207515637455083723, 0.9207515637455083723, 1.000000000000000000 ) ) 
 REPRESENTATION_ITEM ( '' )  );
#55 = EDGE_LOOP ( 'NONE', ( #71, #122 ) ) ;
#56 = CIRCLE ( 'NONE', #143, 0.1000000000000000056 ) ;
#57 = ORIENTED_EDGE ( 'NONE', *, *, #164, .T. ) ;
#58 = CARTESIAN_POINT ( 'NONE',  ( 0.7806999999999999496, 0.000000000000000000, 0.000000000000000000 ) ) ;
#59 = EDGE_CURVE ( 'NONE', #227, #158, #22, .T. ) ;
#60 = DIRECTION ( 'NONE',  ( 1.000000000000000000, 0.000000000000000000, -0.000000000000000000 ) ) ;
#61 = VECTOR ( 'NONE', #148, 100.0000000000000142 ) ;
#62 = CARTESIAN_POINT ( 'NONE',  ( 0.6780832021878531179, 0.4499314767377287638, 0.000000000000000000 ) ) ;
#63 = DIRECTION ( 'NONE',  ( 0.000000000000000000, 0.000000000000000000, 1.000000000000000000 ) ) ;
#64 = PRODUCT_DEFINITION ( 'UNKNOWN', '', #47, #168 ) ;
#65 = DIRECTION ( 'NONE',  ( 1.000000000000000000, 0.000000000000000000, 0.000000000000000000 ) ) ;
#66 =( NAMED_UNIT ( * ) PLANE_ANGLE_UNIT ( ) SI_UNIT ( $, .RADIAN. ) );
#67 = AXIS2_PLACEMENT_3D ( 'NONE', #77, #217, #93 ) ;
#68 = DIRECTION ( 'NONE',  ( 1.000000000000000000, 0.000000000000000000, 0.000000000000000000 ) ) ;
#69 = CARTESIAN_POINT ( 'NONE',  ( 0.000000000000000000, 0.000000000000000000, 0.000000000000000000 ) ) ;
#70 = CARTESIAN_POINT ( 'NONE',  ( 0.5636749257205028174, 0.4439355930364753955, 0.000000000000000000 ) ) ;
#71 = ORIENTED_EDGE ( 'NONE', *, *, #186, .F. ) ;
#72 = VERTEX_POINT ( 'NONE', #58 ) ;
#73 = ORIENTED_EDGE ( 'NONE', *, *, #120, .F. ) ;
#74 = CARTESIAN_POINT ( 'NONE',  ( 0.6754664043757062641, 0.4998629534754573389, 0.000000000000000000 ) ) ;
#75 = VECTOR ( 'NONE', #31, 100.0000000000000000 ) ;
#76 = CARTESIAN_POINT ( 'NONE',  ( 0.6299165151474653834, 0.4474071676345210968, 0.000000000000000000 ) ) ;
#77 = CARTESIAN_POINT ( 'NONE',  ( 0.6806999999999999718, 0.4000000000000000222, 0.000000000000000000 ) ) ;
#78 = FACE_OUTER_BOUND ( 'NONE', #161, .T. ) ;
#79 = AXIS2_PLACEMENT_3D ( 'NONE', #146, #63, #202 ) ;
#80 = PRODUCT_DEFINITION_SHAPE ( 'NONE', 'NONE',  #64 ) ;
#81 = FACE_OUTER_BOUND ( 'NONE', #179, .T. ) ;
#82 = ADVANCED_FACE ( 'NONE', ( #130 ), #1, .T. ) ;
#83 = DIRECTION ( 'NONE',  ( 0.000000000000000000, 0.000000000000000000, 1.000000000000000000 ) ) ;
#84 = LINE ( 'NONE', #69, #75 ) ;
#85 = CARTESIAN_POINT ( 'NONE',  ( 0.3657340441691845911, 0.4358648610726302275, 0.000000000000000000 ) ) ;
#86 = ADVANCED_FACE ( 'NONE', ( #81 ), #125, .T. ) ;
#87 = VECTOR ( 'NONE', #144, 100.0000000000000142 ) ;
#88 = AXIS2_PLACEMENT_3D ( 'NONE', #40, #83, #165 ) ;
#89 = ORIENTED_EDGE ( 'NONE', *, *, #186, .T. ) ;
#90 = LINE ( 'NONE', #74, #123 ) ;
#91 = ORIENTED_EDGE ( 'NONE', *, *, #92, .F. ) ;
#92 = EDGE_CURVE ( 'NONE', #51, #197, #126, .T. ) ;
#93 = DIRECTION ( 'NONE',  ( 1.000000000000000000, 0.000000000000000000, 0.000000000000000000 ) ) ;
#94 = CARTESIAN_POINT ( 'NONE',  ( 0.6806999999999999718, 0.4000000000000000222, 0.000000000000000000 ) ) ;
#95 = FACE_OUTER_BOUND ( 'NONE', #211, .T. ) ;
#96 = DIRECTION ( 'NONE',  ( 0.000000000000000000, 0.000000000000000000, 1.000000000000000000 ) ) ;
#97 = DIRECTION ( 'NONE',  ( 0.9986295347545741663, 0.05233595624293766596, -0.000000000000000000 ) ) ;
#98 = CARTESIAN_POINT ( 'NONE',  ( 0.6464180580041725133, 0.4596432290235212825, 3.388131789017201356E-19 ) ) ;
#99 = DIRECTION ( 'NONE',  ( 1.000000000000000000, 0.000000000000000000, -0.000000000000000000 ) ) ;
#100 = EDGE_CURVE ( 'NONE', #197, #106, #115, .T. ) ;
#101 = DIRECTION ( 'NONE',  ( 0.000000000000000000, 0.000000000000000000, 1.000000000000000000 ) ) ;
#102 = PLANE ( 'NONE',  #178 ) ;
#103 = ORIENTED_EDGE ( 'NONE', *, *, #174, .T. ) ;
#104 = EDGE_LOOP ( 'NONE', ( #91, #89, #181, #73, #212, #118, #18, #162 ) ) ;
#105 = VECTOR ( 'NONE', #109, 100.0000000000000284 ) ;
#106 = VERTEX_POINT ( 'NONE', #127 ) ;
#107 = VERTEX_POINT ( 'NONE', #163 ) ;
#108 = CARTESIAN_POINT ( 'NONE',  ( 0.6806999999999999718, 0.4000000000000000222, 0.000000000000000000 ) ) ;
#109 = DIRECTION ( 'NONE',  ( -0.9986295347545741663, -0.05233595624293683329, 0.000000000000000000 ) ) ;
#110 = EDGE_CURVE ( 'NONE', #33, #227, #15, .T. ) ;
#111 = CARTESIAN_POINT ( 'NONE',  ( 0.4040362663251332864, 0.4037254805883030984, 0.000000000000000000 ) ) ;
#112 = CARTESIAN_POINT ( 'NONE',  ( 0.3657340441691845356, 0.4358648610726302275, 0.000000000000000000 ) ) ;
#113 = PLANE ( 'NONE',  #79 ) ;
#114 = PRODUCT_CONTEXT ( 'NONE', #5, 'mechanical' ) ;
#115 = CIRCLE ( 'NONE', #67, 0.04999999999999996114 ) ;
#116 = EDGE_CURVE ( 'NONE', #158, #107, #205, .T. ) ;
#117 = SHELL_BASED_SURFACE_MODEL ( 'NONE', ( #25 ) );
#118 = ORIENTED_EDGE ( 'NONE', *, *, #153, .T. ) ;
#119 = ORIENTED_EDGE ( 'NONE', *, *, #110, .T. ) ;
#120 = EDGE_CURVE ( 'NONE', #138, #230, #56, .T. ) ;
#121 = ORIENTED_EDGE ( 'NONE', *, *, #50, .T. ) ;
#122 = ORIENTED_EDGE ( 'NONE', *, *, #196, .F. ) ;
#123 = VECTOR ( 'NONE', #52, 100.0000000000000284 ) ;
#124 = ORIENTED_EDGE ( 'NONE', *, *, #228, .T. ) ;
#125 = PLANE ( 'NONE',  #209 ) ;
#126 = LINE ( 'NONE', #62, #17 ) ;
#127 = CARTESIAN_POINT ( 'NONE',  ( 0.7306999999999999051, 0.4000000000000000222, 0.000000000000000000 ) ) ;
#128 = CARTESIAN_POINT ( 'NONE',  ( 0.000000000000000000, 0.000000000000000000, 0.000000000000000000 ) ) ;
#129 = APPLICATION_CONTEXT ( 'automotive_design' ) ;
#130 = FACE_OUTER_BOUND ( 'NONE', #104, .T. ) ;
#131 =( GEOMETRIC_REPRESENTATION_CONTEXT ( 3 ) GLOBAL_UNCERTAINTY_ASSIGNED_CONTEXT ( ( #149 ) ) GLOBAL_UNIT_ASSIGNED_CONTEXT ( ( #221, #66, #44 ) ) REPRESENTATION_CONTEXT ( 'NONE', 'WORKASPACE' ) );
#132 = ADVANCED_FACE ( 'NONE', ( #78 ), #113, .T. ) ;
#133 = CARTESIAN_POINT ( 'NONE',  ( 0.5850950418147691234, 0.4312893039954890373, 3.388131789017201356E-19 ) ) ;
#134 = CARTESIAN_POINT ( 'NONE',  ( 0.6780832021878531179, 0.4499314767377287638, 0.000000000000000000 ) ) ;
#135 = VECTOR ( 'NONE', #46, 100.0000000000000000 ) ;
#136 = DIRECTION ( 'NONE',  ( 0.9986295347545741663, 0.05233595624293766596, -0.000000000000000000 ) ) ;
#137 = CARTESIAN_POINT ( 'NONE',  ( 0.5636749257205028174, 0.4439355930364753955, 0.000000000000000000 ) ) ;
#138 = VERTEX_POINT ( 'NONE', #111 ) ;
#139 = VERTEX_POINT ( 'NONE', #23 ) ;
#140 = ORIENTED_EDGE ( 'NONE', *, *, #92, .T. ) ;
#141 = EDGE_CURVE ( 'NONE', #107, #138, #189, .T. ) ;
#142 = ORIENTED_EDGE ( 'NONE', *, *, #174, .F. ) ;
#143 = AXIS2_PLACEMENT_3D ( 'NONE', #42, #3, #169 ) ;
#144 = DIRECTION ( 'NONE',  ( 0.6427876096865435818, 0.7660444431189744607, -0.000000000000000000 ) ) ;
#145 = LINE ( 'NONE', #185, #105 ) ;
#146 = CARTESIAN_POINT ( 'NONE',  ( 0.6806999999999999718, 0.4000000000000000222, 0.000000000000000000 ) ) ;
#147 = VECTOR ( 'NONE', #65, 100.0000000000000000 ) ;
#148 = DIRECTION ( 'NONE',  ( -0.6427876096865434707, -0.7660444431189745718, 0.000000000000000000 ) ) ;
#149 = UNCERTAINTY_MEASURE_WITH_UNIT (LENGTH_MEASURE( 1.000000000000000082E-05 ), #221, 'distance_accuracy_value', 'NONE');
#150 = DIRECTION ( 'NONE',  ( 0.000000000000000000, 0.000000000000000000, 1.000000000000000000 ) ) ;
#151 = CARTESIAN_POINT ( 'NONE',  ( 0.6299165151474653834, 0.4474071676345210968, 0.000000000000000000 ) ) ;
#152 = CARTESIAN_POINT ( 'NONE',  ( 0.6806999999999999718, 0.4000000000000000222, 0.000000000000000000 ) ) ;
#153 = EDGE_CURVE ( 'NONE', #107, #233, #167, .T. ) ;
#154 = DIRECTION ( 'NONE',  ( 0.000000000000000000, 0.000000000000000000, 1.000000000000000000 ) ) ;
#155 = CARTESIAN_POINT ( 'NONE',  ( 0.6099356378498800302, 0.4325911444697561614, 3.388131789017201356E-19 ) ) ;
#156 = VECTOR ( 'NONE', #97, 100.0000000000000142 ) ;
#157 = CARTESIAN_POINT ( 'NONE',  ( 0.6540966947071116255, 0.4987430144478031124, 0.000000000000000000 ) ) ;
#158 = VERTEX_POINT ( 'NONE', #204 ) ;
#159 = ORIENTED_EDGE ( 'NONE', *, *, #218, .T. ) ;
#160 = EDGE_CURVE ( 'NONE', #106, #233, #215, .T. ) ;
#161 = EDGE_LOOP ( 'NONE', ( #210, #35, #34, #119, #231, #20, #16, #214 ) ) ;
#162 = ORIENTED_EDGE ( 'NONE', *, *, #100, .F. ) ;
#163 = CARTESIAN_POINT ( 'NONE',  ( 0.06527036446661391156, -1.301042606982605321E-16, 0.000000000000000000 ) ) ;
#164 = EDGE_CURVE ( 'NONE', #72, #36, #220, .T. ) ;
#165 = DIRECTION ( 'NONE',  ( 1.000000000000000000, 0.000000000000000000, 0.000000000000000000 ) ) ;
#166 = CARTESIAN_POINT ( 'NONE',  ( 0.6806999999999999718, 0.4000000000000000222, 0.000000000000000000 ) ) ;
#167 = LINE ( 'NONE', #128, #147 ) ;
#168 = PRODUCT_DEFINITION_CONTEXT ( 'detailed design', #129, 'design' ) ;
#169 = DIRECTION ( 'NONE',  ( 1.000000000000000000, 0.000000000000000000, 0.000000000000000000 ) ) ;
#170 = CARTESIAN_POINT ( 'NONE',  ( 0.6754664043757062641, 0.4998629534754573389, 0.000000000000000000 ) ) ;
#171 = CARTESIAN_POINT ( 'NONE',  ( 0.5353362973411182058, 0.4719476765615500113, 3.388131789017201356E-19 ) ) ;
#172 = DIRECTION ( 'NONE',  ( 1.000000000000000000, 0.000000000000000000, 0.000000000000000000 ) ) ;
#173 = AXIS2_PLACEMENT_3D ( 'NONE', #108, #150, #60 ) ;
#174 = EDGE_CURVE ( 'NONE', #229, #51, #54, .T. ) ;
#175 = VERTEX_POINT ( 'NONE', #224 ) ;
#176 = VERTEX_POINT ( 'NONE', #137 ) ;
#177 = EDGE_CURVE ( 'NONE', #176, #175, #4, .T. ) ;
#178 = AXIS2_PLACEMENT_3D ( 'NONE', #152, #154, #99 ) ;
#179 = EDGE_LOOP ( 'NONE', ( #198, #19, #142, #121 ) ) ;
#180 = ORIENTED_EDGE ( 'NONE', *, *, #160, .T. ) ;
#181 = ORIENTED_EDGE ( 'NONE', *, *, #29, .F. ) ;
#182 = DIRECTION ( 'NONE',  ( 1.000000000000000000, 0.000000000000000000, -0.000000000000000000 ) ) ;
#183 = AXIS2_PLACEMENT_3D ( 'NONE', #14, #49, #172 ) ;
#184 = DIRECTION ( 'NONE',  ( 1.000000000000000000, 0.000000000000000000, -0.000000000000000000 ) ) ;
#185 = CARTESIAN_POINT ( 'NONE',  ( 0.6754664043757062641, 0.4998629534754573389, 0.000000000000000000 ) ) ;
#186 = EDGE_CURVE ( 'NONE', #51, #176, #226, .T. ) ;
#187 = CARTESIAN_POINT ( 'NONE',  ( 0.5165126154894547073, 0.5377695737867623782, 0.000000000000000000 ) ) ;
#188 = AXIS2_PLACEMENT_3D ( 'NONE', #166, #26, #184 ) ;
#189 = LINE ( 'NONE', #187, #87 ) ;
#190 = CARTESIAN_POINT ( 'NONE',  ( 0.000000000000000000, 0.000000000000000000, 0.000000000000000000 ) ) ;
#191 = APPLICATION_PROTOCOL_DEFINITION ( 'draft international standard', 'automotive_design', 1998, #129 ) ;
#192 = EDGE_CURVE ( 'NONE', #233, #72, #84, .T. ) ;
#193 = VECTOR ( 'NONE', #24, 100.0000000000000000 ) ;
#194 = CARTESIAN_POINT ( 'NONE',  ( 0.6299165151474653834, 0.4474071676345210968, 0.000000000000000000 ) ) ;
#195 = ORIENTED_EDGE ( 'NONE', *, *, #100, .T. ) ;
#196 = EDGE_CURVE ( 'NONE', #176, #51, #45, .T. ) ;
#197 = VERTEX_POINT ( 'NONE', #134 ) ;
#198 = ORIENTED_EDGE ( 'NONE', *, *, #177, .F. ) ;
#199 = ORIENTED_EDGE ( 'NONE', *, *, #192, .T. ) ;
#200 = CARTESIAN_POINT ( 'NONE',  ( 0.7806999999999999496, 0.000000000000000000, 0.000000000000000000 ) ) ;
#201 = CARTESIAN_POINT ( 'NONE',  ( 0.7806999999999999496, 0.4000000000000000222, 0.000000000000000000 ) ) ;
#202 = DIRECTION ( 'NONE',  ( 1.000000000000000000, 0.000000000000000000, -0.000000000000000000 ) ) ;
#203 = ADVANCED_FACE ( 'NONE', ( #12 ), #102, .T. ) ;
#204 = CARTESIAN_POINT ( 'NONE',  ( 0.000000000000000000, 0.000000000000000000, 0.000000000000000000 ) ) ;
#205 = LINE ( 'NONE', #216, #7 ) ;
#206 = APPLICATION_PROTOCOL_DEFINITION ( 'draft international standard', 'automotive_design', 1998, #5 ) ;
#207 = LINE ( 'NONE', #170, #43 ) ;
#208 = CARTESIAN_POINT ( 'NONE',  ( 0.5636749257205028174, 0.4439355930364753955, 0.000000000000000000 ) ) ;
#209 = AXIS2_PLACEMENT_3D ( 'NONE', #94, #96, #182 ) ;
#210 = ORIENTED_EDGE ( 'NONE', *, *, #29, .T. ) ;
#211 = EDGE_LOOP ( 'NONE', ( #124, #103, #140, #195, #180, #199, #57, #159 ) ) ;
#212 = ORIENTED_EDGE ( 'NONE', *, *, #141, .F. ) ;
#213 = VECTOR ( 'NONE', #136, 100.0000000000000142 ) ;
#214 = ORIENTED_EDGE ( 'NONE', *, *, #120, .T. ) ;
#215 = LINE ( 'NONE', #41, #193 ) ;
#216 = CARTESIAN_POINT ( 'NONE',  ( 0.000000000000000000, 0.000000000000000000, 0.000000000000000000 ) ) ;
#217 = DIRECTION ( 'NONE',  ( -0.000000000000000000, -0.000000000000000000, -1.000000000000000000 ) ) ;
#218 = EDGE_CURVE ( 'NONE', #36, #139, #232, .T. ) ;
#219 = DIRECTION ( 'NONE',  ( 1.000000000000000000, 0.000000000000000000, 0.000000000000000000 ) ) ;
#220 = LINE ( 'NONE', #200, #135 ) ;
#221 =( LENGTH_UNIT ( ) NAMED_UNIT ( * ) SI_UNIT ( .CENTI., .METRE. ) );
#222 = CARTESIAN_POINT ( 'NONE',  ( 0.6551718415116672967, 0.4782279913107025382, 3.388131789017201356E-19 ) ) ;
#223 = CARTESIAN_POINT ( 'NONE',  ( 0.4754071150127369139, 0.4393096730951061013, 0.000000000000000000 ) ) ;
#224 = CARTESIAN_POINT ( 'NONE',  ( 0.5342611505365626456, 0.4924626996986506966, 0.000000000000000000 ) ) ;
#225 = CARTESIAN_POINT ( 'NONE',  ( 0.6780832021878531179, 0.4499314767377287638, 0.000000000000000000 ) ) ;
#226 =( BOUNDED_CURVE ( )  B_SPLINE_CURVE ( 3, ( #194, #155, #133, #70 ),
 .UNSPECIFIED., .F., .T. ) 
 B_SPLINE_CURVE_WITH_KNOTS ( ( 4, 4 ),
 ( 5.697499763722428057, 6.868870850636740855 ),
 .UNSPECIFIED. ) 
 CURVE ( )  GEOMETRIC_REPRESENTATION_ITEM ( )  RATIONAL_B_SPLINE_CURVE ( ( 1.000000000000000000, 0.8888888888888868411, 0.8888888888888868411, 1.000000000000000000 ) ) 
 REPRESENTATION_ITEM ( '' )  );
#227 = VERTEX_POINT ( 'NONE', #85 ) ;
#228 = EDGE_CURVE ( 'NONE', #139, #229, #207, .T. ) ;
#229 = VERTEX_POINT ( 'NONE', #9 ) ;
#230 = VERTEX_POINT ( 'NONE', #223 ) ;
#231 = ORIENTED_EDGE ( 'NONE', *, *, #59, .T. ) ;
#232 = CIRCLE ( 'NONE', #183, 0.09999999999999992228 ) ;
#233 = VERTEX_POINT ( 'NONE', #48 ) ;
ENDSEC;
END-ISO-10303-21;
