ISO-10303-21;
HEADER;
FILE_DESCRIPTION (( 'STEP AP214' ),
    '1' );
FILE_NAME ('BCS_0.12.STEP',
    '2026-09-18T15:09:26',
    ( '' ),
    ( '' ),
    'SwSTEP 2.0',
    'SolidWorks 2026',
    '' );
FILE_SCHEMA (( 'AUTOMOTIVE_DESIGN' ));
ENDSEC;

DATA;
#1 = DIRECTION ( 'NONE',  ( 0.000000000000000000, 0.000000000000000000, 1.000000000000000000 ) ) ;
#2 = CARTESIAN_POINT ( 'NONE',  ( 0.6780832021878531179, 0.4499314767377287638, 0.000000000000000000 ) ) ;
#3 = CARTESIAN_POINT ( 'NONE',  ( 0.6806999999999999718, 0.4000000000000000222, 0.000000000000000000 ) ) ;
#4 = PLANE ( 'NONE',  #208 ) ;
#5 =( LENGTH_UNIT ( ) NAMED_UNIT ( * ) SI_UNIT ( .CENTI., .METRE. ) );
#6 = MANIFOLD_SURFACE_SHAPE_REPRESENTATION ( 'BCS_0.12', ( #87, #47 ), #9 ) ;
#7 = CARTESIAN_POINT ( 'NONE',  ( 0.000000000000000000, 0.000000000000000000, 0.000000000000000000 ) ) ;
#8 = DIRECTION ( 'NONE',  ( 1.000000000000000000, 0.000000000000000000, -0.000000000000000000 ) ) ;
#9 =( GEOMETRIC_REPRESENTATION_CONTEXT ( 3 ) GLOBAL_UNCERTAINTY_ASSIGNED_CONTEXT ( ( #66 ) ) GLOBAL_UNIT_ASSIGNED_CONTEXT ( ( #5, #220, #163 ) ) REPRESENTATION_CONTEXT ( 'NONE', 'WORKASPACE' ) );
#10 = EDGE_CURVE ( 'NONE', #178, #141, #231, .T. ) ;
#11 = AXIS2_PLACEMENT_3D ( 'NONE', #182, #145, #92 ) ;
#12 = EDGE_CURVE ( 'NONE', #122, #64, #161, .T. ) ;
#13 = ORIENTED_EDGE ( 'NONE', *, *, #22, .F. ) ;
#14 = EDGE_LOOP ( 'NONE', ( #138, #174, #142, #100, #225, #49, #84 ) ) ;
#15 = DIRECTION ( 'NONE',  ( 1.000000000000000000, 0.000000000000000000, 0.000000000000000000 ) ) ;
#16 = ORIENTED_EDGE ( 'NONE', *, *, #22, .T. ) ;
#17 = VERTEX_POINT ( 'NONE', #31 ) ;
#18 = DIRECTION ( 'NONE',  ( 1.000000000000000000, 0.000000000000000000, 0.000000000000000000 ) ) ;
#19 = CARTESIAN_POINT ( 'NONE',  ( 0.6449624074743720570, 0.4481956894387058576, 0.000000000000000000 ) ) ;
#20 = CARTESIAN_POINT ( 'NONE',  ( 0.6754664043757062641, 0.4998629534754573389, 0.000000000000000000 ) ) ;
#21 = DIRECTION ( 'NONE',  ( 1.000000000000000000, 0.000000000000000000, 0.000000000000000000 ) ) ;
#22 = EDGE_CURVE ( 'NONE', #137, #122, #169, .T. ) ;
#23 = LINE ( 'NONE', #170, #201 ) ;
#24 = FACE_OUTER_BOUND ( 'NONE', #190, .T. ) ;
#25 = EDGE_CURVE ( 'NONE', #224, #65, #126, .T. ) ;
#26 = CIRCLE ( 'NONE', #173, 0.09999999999999992228 ) ;
#27 = DIRECTION ( 'NONE',  ( 1.000000000000000000, -1.734723475976808475E-15, 0.000000000000000000 ) ) ;
#28 = CARTESIAN_POINT ( 'NONE',  ( 0.7806999999999999496, 0.000000000000000000, 0.000000000000000000 ) ) ;
#29 = VECTOR ( 'NONE', #86, 100.0000000000000000 ) ;
#30 = ORIENTED_EDGE ( 'NONE', *, *, #25, .T. ) ;
#31 = CARTESIAN_POINT ( 'NONE',  ( 0.7306999999999999051, 0.4000000000000000222, 0.000000000000000000 ) ) ;
#32 = CARTESIAN_POINT ( 'NONE',  ( 0.6806999999999999718, 0.4000000000000000222, 0.000000000000000000 ) ) ;
#33 = CARTESIAN_POINT ( 'NONE',  ( 0.3657340441691845911, 0.4358648610726302275, 0.000000000000000000 ) ) ;
#34 = CARTESIAN_POINT ( 'NONE',  ( 0.4806407106370307325, 0.3394467196196486736, 0.000000000000000000 ) ) ;
#35 = EDGE_CURVE ( 'NONE', #141, #212, #46, .T. ) ;
#36 = CARTESIAN_POINT ( 'NONE',  ( 0.6806999999999999718, 0.4000000000000000222, 0.000000000000000000 ) ) ;
#37 = FACE_OUTER_BOUND ( 'NONE', #14, .T. ) ;
#38 = DIRECTION ( 'NONE',  ( 1.000000000000000000, 0.000000000000000000, 0.000000000000000000 ) ) ;
#39 = VECTOR ( 'NONE', #168, 100.0000000000000284 ) ;
#40 = AXIS2_PLACEMENT_3D ( 'NONE', #207, #214, #128 ) ;
#41 = AXIS2_PLACEMENT_3D ( 'NONE', #203, #221, #114 ) ;
#42 = CARTESIAN_POINT ( 'NONE',  ( 0.6155486322904317742, 0.4967227961008811032, 0.000000000000000000 ) ) ;
#43 = AXIS2_PLACEMENT_3D ( 'NONE', #150, #218, #72 ) ;
#44 = ORIENTED_EDGE ( 'NONE', *, *, #10, .T. ) ;
#45 = EDGE_CURVE ( 'NONE', #122, #17, #230, .T. ) ;
#46 = LINE ( 'NONE', #191, #101 ) ;
#47 = AXIS2_PLACEMENT_3D ( 'NONE', #131, #1, #38 ) ;
#48 = DIRECTION ( 'NONE',  ( -0.000000000000000000, -0.000000000000000000, -1.000000000000000000 ) ) ;
#49 = ORIENTED_EDGE ( 'NONE', *, *, #116, .T. ) ;
#50 = VERTEX_POINT ( 'NONE', #28 ) ;
#51 = VERTEX_POINT ( 'NONE', #109 ) ;
#52 = CARTESIAN_POINT ( 'NONE',  ( 0.7806999999999999496, 0.000000000000000000, 0.000000000000000000 ) ) ;
#53 = DIRECTION ( 'NONE',  ( 0.9986295347545741663, 0.05233595624293766596, -0.000000000000000000 ) ) ;
#54 = DIRECTION ( 'NONE',  ( 1.000000000000000000, 0.000000000000000000, 0.000000000000000000 ) ) ;
#55 = DIRECTION ( 'NONE',  ( 1.000000000000000000, 0.000000000000000000, -0.000000000000000000 ) ) ;
#56 = EDGE_CURVE ( 'NONE', #64, #210, #177, .T. ) ;
#57 = DIRECTION ( 'NONE',  ( 1.000000000000000000, 0.000000000000000000, 0.000000000000000000 ) ) ;
#58 = EDGE_LOOP ( 'NONE', ( #82, #158, #192 ) ) ;
#59 = CARTESIAN_POINT ( 'NONE',  ( 0.6754664043757062641, 0.4998629534754573389, 0.000000000000000000 ) ) ;
#60 = PRODUCT_DEFINITION ( 'UNKNOWN', '', #202, #189 ) ;
#61 = EDGE_CURVE ( 'NONE', #51, #122, #80, .T. ) ;
#62 = ORIENTED_EDGE ( 'NONE', *, *, #188, .T. ) ;
#63 = VERTEX_POINT ( 'NONE', #233 ) ;
#64 = VERTEX_POINT ( 'NONE', #19 ) ;
#65 = VERTEX_POINT ( 'NONE', #33 ) ;
#66 = UNCERTAINTY_MEASURE_WITH_UNIT (LENGTH_MEASURE( 1.000000000000000082E-05 ), #5, 'distance_accuracy_value', 'NONE');
#67 = AXIS2_PLACEMENT_3D ( 'NONE', #3, #78, #112 ) ;
#68 = DIRECTION ( 'NONE',  ( -0.000000000000000000, -0.000000000000000000, -1.000000000000000000 ) ) ;
#69 = VECTOR ( 'NONE', #21, 100.0000000000000000 ) ;
#70 = EDGE_CURVE ( 'NONE', #65, #178, #110, .T. ) ;
#71 = CARTESIAN_POINT ( 'NONE',  ( 0.3657340441691845356, 0.4358648610726302275, 0.000000000000000000 ) ) ;
#72 = DIRECTION ( 'NONE',  ( 1.000000000000000000, 0.000000000000000000, -0.000000000000000000 ) ) ;
#73 = PLANE ( 'NONE',  #41 ) ;
#74 = DIRECTION ( 'NONE',  ( 1.000000000000000000, 1.445602896647339706E-15, 0.000000000000000000 ) ) ;
#75 = PRODUCT_CONTEXT ( 'NONE', #223, 'mechanical' ) ;
#76 = EDGE_CURVE ( 'NONE', #137, #140, #215, .T. ) ;
#77 = CARTESIAN_POINT ( 'NONE',  ( 0.000000000000000000, 0.000000000000000000, 0.000000000000000000 ) ) ;
#78 = DIRECTION ( 'NONE',  ( 0.000000000000000000, 0.000000000000000000, 1.000000000000000000 ) ) ;
#79 = CARTESIAN_POINT ( 'NONE',  ( 0.6806999999999999718, 0.4000000000000000222, 0.000000000000000000 ) ) ;
#80 = CIRCLE ( 'NONE', #11, 0.04999999999999996114 ) ;
#81 = EDGE_LOOP ( 'NONE', ( #13, #157, #204, #156, #88, #187 ) ) ;
#82 = ORIENTED_EDGE ( 'NONE', *, *, #12, .F. ) ;
#83 = EDGE_CURVE ( 'NONE', #154, #64, #234, .T. ) ;
#84 = ORIENTED_EDGE ( 'NONE', *, *, #115, .F. ) ;
#85 = ORIENTED_EDGE ( 'NONE', *, *, #99, .T. ) ;
#86 = DIRECTION ( 'NONE',  ( 1.000000000000000000, 0.000000000000000000, 0.000000000000000000 ) ) ;
#87 = SHELL_BASED_SURFACE_MODEL ( 'NONE', ( #211 ) );
#88 = ORIENTED_EDGE ( 'NONE', *, *, #155, .T. ) ;
#89 = LINE ( 'NONE', #52, #151 ) ;
#90 = CARTESIAN_POINT ( 'NONE',  ( 0.7335663632417883662, 0.4848831410681018195, 0.000000000000000000 ) ) ;
#91 = PRODUCT ( 'BCS_0.12', 'BCS_0.12', '', ( #75 ) ) ;
#92 = DIRECTION ( 'NONE',  ( 1.000000000000000000, 3.469446951953616950E-15, 0.000000000000000000 ) ) ;
#93 = AXIS2_PLACEMENT_3D ( 'NONE', #229, #160, #139 ) ;
#94 = ADVANCED_FACE ( 'NONE', ( #216 ), #198, .T. ) ;
#95 = CARTESIAN_POINT ( 'NONE',  ( 0.4727903172005901156, 0.4892411498328348429, 0.000000000000000000 ) ) ;
#96 = VECTOR ( 'NONE', #53, 100.0000000000000142 ) ;
#97 = CARTESIAN_POINT ( 'NONE',  ( 0.7011378322749323155, 0.4456321707997957793, 0.000000000000000000 ) ) ;
#98 = DIRECTION ( 'NONE',  ( 0.000000000000000000, 0.000000000000000000, 1.000000000000000000 ) ) ;
#99 = EDGE_CURVE ( 'NONE', #50, #63, #89, .T. ) ;
#100 = ORIENTED_EDGE ( 'NONE', *, *, #164, .F. ) ;
#101 = VECTOR ( 'NONE', #194, 100.0000000000000142 ) ;
#102 = SHAPE_DEFINITION_REPRESENTATION ( #111, #6 ) ;
#103 = DIRECTION ( 'NONE',  ( -0.000000000000000000, -0.000000000000000000, -1.000000000000000000 ) ) ;
#104 = ADVANCED_FACE ( 'NONE', ( #217 ), #197, .T. ) ;
#105 = CARTESIAN_POINT ( 'NONE',  ( 0.6754664043757062641, 0.4998629534754573944, 0.000000000000000000 ) ) ;
#106 = ORIENTED_EDGE ( 'NONE', *, *, #45, .T. ) ;
#107 = ORIENTED_EDGE ( 'NONE', *, *, #83, .T. ) ;
#108 = VECTOR ( 'NONE', #195, 100.0000000000000000 ) ;
#109 = CARTESIAN_POINT ( 'NONE',  ( 0.6780832021878531179, 0.4499314767377287638, 0.000000000000000000 ) ) ;
#110 = LINE ( 'NONE', #71, #146 ) ;
#111 = PRODUCT_DEFINITION_SHAPE ( 'NONE', 'NONE',  #60 ) ;
#112 = DIRECTION ( 'NONE',  ( 1.000000000000000000, 0.000000000000000000, -0.000000000000000000 ) ) ;
#113 = DIRECTION ( 'NONE',  ( 0.000000000000000000, 0.000000000000000000, 1.000000000000000000 ) ) ;
#114 = DIRECTION ( 'NONE',  ( 1.000000000000000000, 0.000000000000000000, -0.000000000000000000 ) ) ;
#115 = EDGE_CURVE ( 'NONE', #17, #124, #133, .T. ) ;
#116 = EDGE_CURVE ( 'NONE', #141, #124, #162, .T. ) ;
#117 = CARTESIAN_POINT ( 'NONE',  ( 0.06527036446661391156, -1.301042606982605321E-16, 0.000000000000000000 ) ) ;
#118 = LINE ( 'NONE', #77, #69 ) ;
#119 = AXIS2_PLACEMENT_3D ( 'NONE', #165, #147, #18 ) ;
#120 = EDGE_CURVE ( 'NONE', #140, #210, #196, .T. ) ;
#121 = AXIS2_PLACEMENT_3D ( 'NONE', #34, #166, #235 ) ;
#122 = VERTEX_POINT ( 'NONE', #97 ) ;
#123 = ADVANCED_FACE ( 'NONE', ( #136 ), #199, .T. ) ;
#124 = VERTEX_POINT ( 'NONE', #184 ) ;
#125 = EDGE_LOOP ( 'NONE', ( #227, #16, #106, #193, #62, #85 ) ) ;
#126 = CIRCLE ( 'NONE', #40, 0.1499999999999999667 ) ;
#127 = ORIENTED_EDGE ( 'NONE', *, *, #200, .T. ) ;
#128 = DIRECTION ( 'NONE',  ( 1.000000000000000000, 0.000000000000000000, 0.000000000000000000 ) ) ;
#129 = CARTESIAN_POINT ( 'NONE',  ( 0.7306999999999999051, 0.4000000000000000222, 0.000000000000000000 ) ) ;
#130 = CARTESIAN_POINT ( 'NONE',  ( 0.4754071150127369139, 0.4393096730951061013, 0.000000000000000000 ) ) ;
#131 = CARTESIAN_POINT ( 'NONE',  ( 0.000000000000000000, 0.000000000000000000, 0.000000000000000000 ) ) ;
#132 = DIRECTION ( 'NONE',  ( 0.000000000000000000, 1.000000000000000000, 0.000000000000000000 ) ) ;
#133 = LINE ( 'NONE', #129, #108 ) ;
#134 = APPLICATION_PROTOCOL_DEFINITION ( 'draft international standard', 'automotive_design', 1998, #180 ) ;
#135 = AXIS2_PLACEMENT_3D ( 'NONE', #32, #48, #27 ) ;
#136 = FACE_OUTER_BOUND ( 'NONE', #125, .T. ) ;
#137 = VERTEX_POINT ( 'NONE', #90 ) ;
#138 = ORIENTED_EDGE ( 'NONE', *, *, #45, .F. ) ;
#139 = DIRECTION ( 'NONE',  ( 1.000000000000000000, 0.000000000000000000, 0.000000000000000000 ) ) ;
#140 = VERTEX_POINT ( 'NONE', #219 ) ;
#141 = VERTEX_POINT ( 'NONE', #117 ) ;
#142 = ORIENTED_EDGE ( 'NONE', *, *, #83, .F. ) ;
#143 = VECTOR ( 'NONE', #57, 100.0000000000000000 ) ;
#144 = ORIENTED_EDGE ( 'NONE', *, *, #56, .T. ) ;
#145 = DIRECTION ( 'NONE',  ( -0.000000000000000000, -0.000000000000000000, -1.000000000000000000 ) ) ;
#146 = VECTOR ( 'NONE', #167, 100.0000000000000142 ) ;
#147 = DIRECTION ( 'NONE',  ( 0.000000000000000000, 0.000000000000000000, 1.000000000000000000 ) ) ;
#148 = DIRECTION ( 'NONE',  ( 0.000000000000000000, 0.000000000000000000, 1.000000000000000000 ) ) ;
#149 = APPLICATION_PROTOCOL_DEFINITION ( 'draft international standard', 'automotive_design', 1998, #223 ) ;
#150 = CARTESIAN_POINT ( 'NONE',  ( 0.6806999999999999718, 0.4000000000000000222, 0.000000000000000000 ) ) ;
#151 = VECTOR ( 'NONE', #132, 100.0000000000000000 ) ;
#152 = DIRECTION ( 'NONE',  ( 0.9986295347545741663, 0.05233595624293766596, -0.000000000000000000 ) ) ;
#153 = VECTOR ( 'NONE', #171, 100.0000000000000284 ) ;
#154 = VERTEX_POINT ( 'NONE', #130 ) ;
#155 = EDGE_CURVE ( 'NONE', #64, #51, #23, .T. ) ;
#156 = ORIENTED_EDGE ( 'NONE', *, *, #56, .F. ) ;
#157 = ORIENTED_EDGE ( 'NONE', *, *, #76, .T. ) ;
#158 = ORIENTED_EDGE ( 'NONE', *, *, #61, .F. ) ;
#159 = ORIENTED_EDGE ( 'NONE', *, *, #164, .T. ) ;
#160 = DIRECTION ( 'NONE',  ( -0.000000000000000000, -0.000000000000000000, -1.000000000000000000 ) ) ;
#161 = CIRCLE ( 'NONE', #222, 0.05999999999999998390 ) ;
#162 = LINE ( 'NONE', #181, #143 ) ;
#163 =( NAMED_UNIT ( * ) SI_UNIT ( $, .STERADIAN. ) SOLID_ANGLE_UNIT ( ) );
#164 = EDGE_CURVE ( 'NONE', #212, #154, #232, .T. ) ;
#165 = CARTESIAN_POINT ( 'NONE',  ( 0.6806999999999999718, 0.4000000000000000222, 0.000000000000000000 ) ) ;
#166 = DIRECTION ( 'NONE',  ( -0.000000000000000000, -0.000000000000000000, -1.000000000000000000 ) ) ;
#167 = DIRECTION ( 'NONE',  ( -0.6427876096865434707, -0.7660444431189745718, 0.000000000000000000 ) ) ;
#168 = DIRECTION ( 'NONE',  ( -0.9986295347545741663, -0.05233595624293683329, 0.000000000000000000 ) ) ;
#169 = CIRCLE ( 'NONE', #93, 0.05999999999999998390 ) ;
#170 = CARTESIAN_POINT ( 'NONE',  ( 0.6780832021878531179, 0.4499314767377287638, 0.000000000000000000 ) ) ;
#171 = DIRECTION ( 'NONE',  ( -0.9986295347545741663, -0.05233595624293683329, 0.000000000000000000 ) ) ;
#172 = ADVANCED_FACE ( 'NONE', ( #37 ), #73, .T. ) ;
#173 = AXIS2_PLACEMENT_3D ( 'NONE', #79, #148, #54 ) ;
#174 = ORIENTED_EDGE ( 'NONE', *, *, #12, .T. ) ;
#175 = CARTESIAN_POINT ( 'NONE',  ( 0.000000000000000000, 0.000000000000000000, 0.000000000000000000 ) ) ;
#176 = CARTESIAN_POINT ( 'NONE',  ( 0.6754664043757062641, 0.4998629534754573944, 0.000000000000000000 ) ) ;
#177 = CIRCLE ( 'NONE', #185, 0.05999999999999998390 ) ;
#178 = VERTEX_POINT ( 'NONE', #7 ) ;
#179 = ORIENTED_EDGE ( 'NONE', *, *, #35, .T. ) ;
#180 = APPLICATION_CONTEXT ( 'automotive_design' ) ;
#181 = CARTESIAN_POINT ( 'NONE',  ( 0.000000000000000000, 0.000000000000000000, 0.000000000000000000 ) ) ;
#182 = CARTESIAN_POINT ( 'NONE',  ( 0.6806999999999999718, 0.4000000000000000222, 0.000000000000000000 ) ) ;
#183 = LINE ( 'NONE', #59, #153 ) ;
#184 = CARTESIAN_POINT ( 'NONE',  ( 0.7306999999999997941, 0.000000000000000000, 0.000000000000000000 ) ) ;
#185 = AXIS2_PLACEMENT_3D ( 'NONE', #105, #103, #74 ) ;
#186 = CARTESIAN_POINT ( 'NONE',  ( 0.4040362663251332864, 0.4037254805883030984, 0.000000000000000000 ) ) ;
#187 = ORIENTED_EDGE ( 'NONE', *, *, #61, .T. ) ;
#188 = EDGE_CURVE ( 'NONE', #124, #50, #118, .T. ) ;
#189 = PRODUCT_DEFINITION_CONTEXT ( 'detailed design', #180, 'design' ) ;
#190 = EDGE_LOOP ( 'NONE', ( #107, #144, #127, #30, #228, #44, #179, #159 ) ) ;
#191 = CARTESIAN_POINT ( 'NONE',  ( 0.5165126154894547073, 0.5377695737867623782, 0.000000000000000000 ) ) ;
#192 = ORIENTED_EDGE ( 'NONE', *, *, #155, .F. ) ;
#193 = ORIENTED_EDGE ( 'NONE', *, *, #115, .T. ) ;
#194 = DIRECTION ( 'NONE',  ( 0.6427876096865435818, 0.7660444431189744607, -0.000000000000000000 ) ) ;
#195 = DIRECTION ( 'NONE',  ( 0.000000000000000000, -1.000000000000000000, 0.000000000000000000 ) ) ;
#196 = LINE ( 'NONE', #20, #39 ) ;
#197 = PLANE ( 'NONE',  #206 ) ;
#198 = PLANE ( 'NONE',  #43 ) ;
#199 = PLANE ( 'NONE',  #67 ) ;
#200 = EDGE_CURVE ( 'NONE', #210, #224, #183, .T. ) ;
#201 = VECTOR ( 'NONE', #152, 100.0000000000000142 ) ;
#202 = PRODUCT_DEFINITION_FORMATION_WITH_SPECIFIED_SOURCE ( 'ANY', '', #91, .NOT_KNOWN. ) ;
#203 = CARTESIAN_POINT ( 'NONE',  ( 0.6806999999999999718, 0.4000000000000000222, 0.000000000000000000 ) ) ;
#204 = ORIENTED_EDGE ( 'NONE', *, *, #120, .T. ) ;
#205 = CARTESIAN_POINT ( 'NONE',  ( 0.6806999999999999718, 0.4000000000000000222, 0.000000000000000000 ) ) ;
#206 = AXIS2_PLACEMENT_3D ( 'NONE', #36, #113, #55 ) ;
#207 = CARTESIAN_POINT ( 'NONE',  ( 0.4806407106370307325, 0.3394467196196486736, 0.000000000000000000 ) ) ;
#208 = AXIS2_PLACEMENT_3D ( 'NONE', #205, #98, #8 ) ;
#209 = PRODUCT_RELATED_PRODUCT_CATEGORY ( 'part', '', ( #91 ) ) ;
#210 = VERTEX_POINT ( 'NONE', #42 ) ;
#211 = OPEN_SHELL ( 'NONE', ( #172, #123, #213, #94, #104 ) ) ;
#212 = VERTEX_POINT ( 'NONE', #186 ) ;
#213 = ADVANCED_FACE ( 'NONE', ( #24 ), #4, .T. ) ;
#214 = DIRECTION ( 'NONE',  ( 0.000000000000000000, 0.000000000000000000, 1.000000000000000000 ) ) ;
#215 = CIRCLE ( 'NONE', #119, 0.09999999999999992228 ) ;
#216 = FACE_OUTER_BOUND ( 'NONE', #81, .T. ) ;
#217 = FACE_OUTER_BOUND ( 'NONE', #58, .T. ) ;
#218 = DIRECTION ( 'NONE',  ( 0.000000000000000000, 0.000000000000000000, 1.000000000000000000 ) ) ;
#219 = CARTESIAN_POINT ( 'NONE',  ( 0.6754664043757062641, 0.4998629534754573944, 0.000000000000000000 ) ) ;
#220 =( NAMED_UNIT ( * ) PLANE_ANGLE_UNIT ( ) SI_UNIT ( $, .RADIAN. ) );
#221 = DIRECTION ( 'NONE',  ( 0.000000000000000000, 0.000000000000000000, 1.000000000000000000 ) ) ;
#222 = AXIS2_PLACEMENT_3D ( 'NONE', #176, #68, #15 ) ;
#223 = APPLICATION_CONTEXT ( 'automotive_design' ) ;
#224 = VERTEX_POINT ( 'NONE', #95 ) ;
#225 = ORIENTED_EDGE ( 'NONE', *, *, #35, .F. ) ;
#226 = EDGE_CURVE ( 'NONE', #63, #137, #26, .T. ) ;
#227 = ORIENTED_EDGE ( 'NONE', *, *, #226, .T. ) ;
#228 = ORIENTED_EDGE ( 'NONE', *, *, #70, .T. ) ;
#229 = CARTESIAN_POINT ( 'NONE',  ( 0.6754664043757062641, 0.4998629534754573944, 0.000000000000000000 ) ) ;
#230 = CIRCLE ( 'NONE', #135, 0.04999999999999996114 ) ;
#231 = LINE ( 'NONE', #175, #29 ) ;
#232 = CIRCLE ( 'NONE', #121, 0.1000000000000000056 ) ;
#233 = CARTESIAN_POINT ( 'NONE',  ( 0.7806999999999999496, 0.4000000000000000222, 0.000000000000000000 ) ) ;
#234 = LINE ( 'NONE', #2, #96 ) ;
#235 = DIRECTION ( 'NONE',  ( 1.000000000000000000, 0.000000000000000000, 0.000000000000000000 ) ) ;
ENDSEC;
END-ISO-10303-21;
