ISO-10303-21;
HEADER;
FILE_DESCRIPTION (( 'STEP AP214' ),
    '1' );
FILE_NAME ('BCS_0.04.STEP',
    '2026-09-18T15:07:44',
    ( '' ),
    ( '' ),
    'SwSTEP 2.0',
    'SolidWorks 2026',
    '' );
FILE_SCHEMA (( 'AUTOMOTIVE_DESIGN' ));
ENDSEC;

DATA;
#1 = FACE_OUTER_BOUND ( 'NONE', #89, .T. ) ;
#2 = AXIS2_PLACEMENT_3D ( 'NONE', #113, #84, #144 ) ;
#3 = DIRECTION ( 'NONE',  ( 0.9986295347545741663, 0.05233595624293766596, -0.000000000000000000 ) ) ;
#4 = CARTESIAN_POINT ( 'NONE',  ( 0.6806999999999999718, 0.4000000000000000222, 0.000000000000000000 ) ) ;
#5 = AXIS2_PLACEMENT_3D ( 'NONE', #133, #68, #101 ) ;
#6 = ORIENTED_EDGE ( 'NONE', *, *, #99, .F. ) ;
#7 = VECTOR ( 'NONE', #180, 100.0000000000000000 ) ;
#8 = EDGE_CURVE ( 'NONE', #37, #45, #81, .T. ) ;
#9 = CARTESIAN_POINT ( 'NONE',  ( 0.3657340441691845911, 0.4358648610726302275, 0.000000000000000000 ) ) ;
#10 = LINE ( 'NONE', #125, #7 ) ;
#11 = DIRECTION ( 'NONE',  ( 1.000000000000000000, 0.000000000000000000, 0.000000000000000000 ) ) ;
#12 = LINE ( 'NONE', #158, #60 ) ;
#13 = LINE ( 'NONE', #36, #29 ) ;
#14 = EDGE_CURVE ( 'NONE', #45, #165, #108, .T. ) ;
#15 = LINE ( 'NONE', #100, #58 ) ;
#16 = CARTESIAN_POINT ( 'NONE',  ( 0.7806999999999999496, 0.000000000000000000, 0.000000000000000000 ) ) ;
#17 =( NAMED_UNIT ( * ) SI_UNIT ( $, .STERADIAN. ) SOLID_ANGLE_UNIT ( ) );
#18 = VERTEX_POINT ( 'NONE', #168 ) ;
#19 = EDGE_LOOP ( 'NONE', ( #6, #79, #164 ) ) ;
#20 = CIRCLE ( 'NONE', #129, 0.1499999999999999667 ) ;
#21 = ORIENTED_EDGE ( 'NONE', *, *, #43, .F. ) ;
#22 = DIRECTION ( 'NONE',  ( 0.000000000000000000, 0.000000000000000000, 1.000000000000000000 ) ) ;
#23 = VERTEX_POINT ( 'NONE', #52 ) ;
#24 = DIRECTION ( 'NONE',  ( 1.000000000000000000, 0.000000000000000000, 0.000000000000000000 ) ) ;
#25 = EDGE_CURVE ( 'NONE', #66, #182, #178, .T. ) ;
#26 =( LENGTH_UNIT ( ) NAMED_UNIT ( * ) SI_UNIT ( .CENTI., .METRE. ) );
#27 = CIRCLE ( 'NONE', #147, 0.09999999999999992228 ) ;
#28 = DIRECTION ( 'NONE',  ( 1.000000000000000000, 0.000000000000000000, -0.000000000000000000 ) ) ;
#29 = VECTOR ( 'NONE', #98, 100.0000000000000284 ) ;
#30 = ORIENTED_EDGE ( 'NONE', *, *, #14, .T. ) ;
#31 = AXIS2_PLACEMENT_3D ( 'NONE', #154, #22, #77 ) ;
#32 = CARTESIAN_POINT ( 'NONE',  ( 0.6954435531162806994, 0.4989071667853618997, 0.000000000000000000 ) ) ;
#33 = ORIENTED_EDGE ( 'NONE', *, *, #43, .T. ) ;
#34 = DIRECTION ( 'NONE',  ( 0.000000000000000000, 0.000000000000000000, 1.000000000000000000 ) ) ;
#35 = EDGE_CURVE ( 'NONE', #117, #104, #156, .T. ) ;
#36 = CARTESIAN_POINT ( 'NONE',  ( 0.6754664043757062641, 0.4998629534754573389, 0.000000000000000000 ) ) ;
#37 = VERTEX_POINT ( 'NONE', #9 ) ;
#38 = DIRECTION ( 'NONE',  ( 0.000000000000000000, 1.000000000000000000, 0.000000000000000000 ) ) ;
#39 = PRODUCT_DEFINITION_FORMATION_WITH_SPECIFIED_SOURCE ( 'ANY', '', #162, .NOT_KNOWN. ) ;
#40 = DIRECTION ( 'NONE',  ( 1.000000000000000000, 0.000000000000000000, 0.000000000000000000 ) ) ;
#41 = AXIS2_PLACEMENT_3D ( 'NONE', #65, #50, #111 ) ;
#42 = ORIENTED_EDGE ( 'NONE', *, *, #167, .T. ) ;
#43 = EDGE_CURVE ( 'NONE', #165, #23, #109, .T. ) ;
#44 = ORIENTED_EDGE ( 'NONE', *, *, #25, .T. ) ;
#45 = VERTEX_POINT ( 'NONE', #141 ) ;
#46 = CARTESIAN_POINT ( 'NONE',  ( 0.7306999999999997941, 0.000000000000000000, 0.000000000000000000 ) ) ;
#47 = DIRECTION ( 'NONE',  ( -0.6427876096865434707, -0.7660444431189745718, 0.000000000000000000 ) ) ;
#48 = ORIENTED_EDGE ( 'NONE', *, *, #163, .T. ) ;
#49 = CARTESIAN_POINT ( 'NONE',  ( 0.6554938136806148785, 0.4988162343505985752, 0.000000000000000000 ) ) ;
#50 = DIRECTION ( 'NONE',  ( -0.000000000000000000, -0.000000000000000000, -1.000000000000000000 ) ) ;
#51 = EDGE_CURVE ( 'NONE', #165, #117, #12, .T. ) ;
#52 = CARTESIAN_POINT ( 'NONE',  ( 0.4040362663251332864, 0.4037254805883030984, 0.000000000000000000 ) ) ;
#53 = CARTESIAN_POINT ( 'NONE',  ( 0.000000000000000000, 0.000000000000000000, 0.000000000000000000 ) ) ;
#54 = CARTESIAN_POINT ( 'NONE',  ( 0.7306999999999999051, 0.4000000000000000222, 0.000000000000000000 ) ) ;
#55 = CARTESIAN_POINT ( 'NONE',  ( 0.6754664043757062641, 0.4998629534754573389, 0.000000000000000000 ) ) ;
#56 = DIRECTION ( 'NONE',  ( 0.000000000000000000, 0.000000000000000000, 1.000000000000000000 ) ) ;
#57 = EDGE_CURVE ( 'NONE', #23, #146, #91, .T. ) ;
#58 = VECTOR ( 'NONE', #3, 100.0000000000000142 ) ;
#59 = AXIS2_PLACEMENT_3D ( 'NONE', #53, #115, #40 ) ;
#60 = VECTOR ( 'NONE', #62, 100.0000000000000000 ) ;
#61 = ORIENTED_EDGE ( 'NONE', *, *, #8, .T. ) ;
#62 = DIRECTION ( 'NONE',  ( 1.000000000000000000, 0.000000000000000000, 0.000000000000000000 ) ) ;
#63 = SHELL_BASED_SURFACE_MODEL ( 'NONE', ( #112 ) );
#64 = CARTESIAN_POINT ( 'NONE',  ( 0.000000000000000000, 0.000000000000000000, 0.000000000000000000 ) ) ;
#65 = CARTESIAN_POINT ( 'NONE',  ( 0.6754664043757062641, 0.4998629534754573944, 0.000000000000000000 ) ) ;
#66 = VERTEX_POINT ( 'NONE', #107 ) ;
#67 = AXIS2_PLACEMENT_3D ( 'NONE', #181, #169, #24 ) ;
#68 = DIRECTION ( 'NONE',  ( 0.000000000000000000, 0.000000000000000000, 1.000000000000000000 ) ) ;
#69 = PLANE ( 'NONE',  #5 ) ;
#70 = VERTEX_POINT ( 'NONE', #170 ) ;
#71 = CARTESIAN_POINT ( 'NONE',  ( 0.4754071150127369139, 0.4393096730951061013, 0.000000000000000000 ) ) ;
#72 = EDGE_CURVE ( 'NONE', #182, #117, #10, .T. ) ;
#73 = VERTEX_POINT ( 'NONE', #49 ) ;
#74 = APPLICATION_CONTEXT ( 'automotive_design' ) ;
#75 =( GEOMETRIC_REPRESENTATION_CONTEXT ( 3 ) GLOBAL_UNCERTAINTY_ASSIGNED_CONTEXT ( ( #149 ) ) GLOBAL_UNIT_ASSIGNED_CONTEXT ( ( #26, #85, #17 ) ) REPRESENTATION_CONTEXT ( 'NONE', 'WORKASPACE' ) );
#76 = VECTOR ( 'NONE', #47, 100.0000000000000142 ) ;
#77 = DIRECTION ( 'NONE',  ( 1.000000000000000000, 0.000000000000000000, 0.000000000000000000 ) ) ;
#78 = ADVANCED_FACE ( 'NONE', ( #1 ), #155, .T. ) ;
#79 = ORIENTED_EDGE ( 'NONE', *, *, #177, .T. ) ;
#80 = ORIENTED_EDGE ( 'NONE', *, *, #136, .T. ) ;
#81 = LINE ( 'NONE', #122, #76 ) ;
#82 = ORIENTED_EDGE ( 'NONE', *, *, #57, .T. ) ;
#83 = CARTESIAN_POINT ( 'NONE',  ( 0.6806999999999999718, 0.4000000000000000222, 0.000000000000000000 ) ) ;
#84 = DIRECTION ( 'NONE',  ( -0.000000000000000000, -0.000000000000000000, -1.000000000000000000 ) ) ;
#85 =( NAMED_UNIT ( * ) PLANE_ANGLE_UNIT ( ) SI_UNIT ( $, .RADIAN. ) );
#86 = APPLICATION_PROTOCOL_DEFINITION ( 'draft international standard', 'automotive_design', 1998, #74 ) ;
#87 = DIRECTION ( 'NONE',  ( -0.9986295347545741663, -0.05233595624293683329, 0.000000000000000000 ) ) ;
#88 = VECTOR ( 'NONE', #11, 100.0000000000000000 ) ;
#89 = EDGE_LOOP ( 'NONE', ( #21, #92, #148, #120, #142, #103 ) ) ;
#90 = EDGE_CURVE ( 'NONE', #134, #37, #20, .T. ) ;
#91 = CIRCLE ( 'NONE', #2, 0.1000000000000000056 ) ;
#92 = ORIENTED_EDGE ( 'NONE', *, *, #51, .T. ) ;
#93 = FACE_OUTER_BOUND ( 'NONE', #95, .T. ) ;
#94 = ORIENTED_EDGE ( 'NONE', *, *, #72, .T. ) ;
#95 = EDGE_LOOP ( 'NONE', ( #173, #105, #42, #152, #61, #30, #33, #82, #80, #44, #94, #102, #48 ) ) ;
#96 = CARTESIAN_POINT ( 'NONE',  ( 0.5165126154894547073, 0.5377695737867623782, 0.000000000000000000 ) ) ;
#97 = CARTESIAN_POINT ( 'NONE',  ( 0.6806999999999999718, 0.4000000000000000222, 0.000000000000000000 ) ) ;
#98 = DIRECTION ( 'NONE',  ( -0.9986295347545741663, -0.05233595624293683329, 0.000000000000000000 ) ) ;
#99 = EDGE_CURVE ( 'NONE', #124, #73, #184, .T. ) ;
#100 = CARTESIAN_POINT ( 'NONE',  ( 0.6780832021878531179, 0.4499314767377287638, 0.000000000000000000 ) ) ;
#101 = DIRECTION ( 'NONE',  ( 1.000000000000000000, 0.000000000000000000, -0.000000000000000000 ) ) ;
#102 = ORIENTED_EDGE ( 'NONE', *, *, #35, .T. ) ;
#103 = ORIENTED_EDGE ( 'NONE', *, *, #57, .F. ) ;
#104 = VERTEX_POINT ( 'NONE', #127 ) ;
#105 = ORIENTED_EDGE ( 'NONE', *, *, #99, .T. ) ;
#106 = PRODUCT_RELATED_PRODUCT_CATEGORY ( 'part', '', ( #162 ) ) ;
#107 = CARTESIAN_POINT ( 'NONE',  ( 0.6780832021878531179, 0.4499314767377287638, 0.000000000000000000 ) ) ;
#108 = LINE ( 'NONE', #140, #88 ) ;
#109 = LINE ( 'NONE', #96, #137 ) ;
#110 = PRODUCT_DEFINITION_SHAPE ( 'NONE', 'NONE',  #145 ) ;
#111 = DIRECTION ( 'NONE',  ( 1.000000000000000000, 0.000000000000000000, 0.000000000000000000 ) ) ;
#112 = OPEN_SHELL ( 'NONE', ( #130, #179, #78 ) ) ;
#113 = CARTESIAN_POINT ( 'NONE',  ( 0.4806407106370307325, 0.3394467196196486736, 0.000000000000000000 ) ) ;
#114 = EDGE_CURVE ( 'NONE', #18, #124, #119, .T. ) ;
#115 = DIRECTION ( 'NONE',  ( 0.000000000000000000, 0.000000000000000000, 1.000000000000000000 ) ) ;
#116 = APPLICATION_PROTOCOL_DEFINITION ( 'draft international standard', 'automotive_design', 1998, #123 ) ;
#117 = VERTEX_POINT ( 'NONE', #46 ) ;
#118 = DIRECTION ( 'NONE',  ( 1.000000000000000000, 0.000000000000000000, 0.000000000000000000 ) ) ;
#119 = CIRCLE ( 'NONE', #31, 0.09999999999999992228 ) ;
#120 = ORIENTED_EDGE ( 'NONE', *, *, #25, .F. ) ;
#121 = DIRECTION ( 'NONE',  ( 1.000000000000000000, 0.000000000000000000, 0.000000000000000000 ) ) ;
#122 = CARTESIAN_POINT ( 'NONE',  ( 0.3657340441691845356, 0.4358648610726302275, 0.000000000000000000 ) ) ;
#123 = APPLICATION_CONTEXT ( 'automotive_design' ) ;
#124 = VERTEX_POINT ( 'NONE', #32 ) ;
#125 = CARTESIAN_POINT ( 'NONE',  ( 0.7306999999999999051, 0.4000000000000000222, 0.000000000000000000 ) ) ;
#126 = DIRECTION ( 'NONE',  ( 1.000000000000000000, 0.000000000000000000, -0.000000000000000000 ) ) ;
#127 = CARTESIAN_POINT ( 'NONE',  ( 0.7806999999999999496, 0.000000000000000000, 0.000000000000000000 ) ) ;
#128 = VECTOR ( 'NONE', #121, 100.0000000000000000 ) ;
#129 = AXIS2_PLACEMENT_3D ( 'NONE', #139, #183, #172 ) ;
#130 = ADVANCED_FACE ( 'NONE', ( #93 ), #69, .T. ) ;
#131 = DIRECTION ( 'NONE',  ( 0.000000000000000000, 0.000000000000000000, 1.000000000000000000 ) ) ;
#132 = CARTESIAN_POINT ( 'NONE',  ( 0.06527036446661391156, -1.301042606982605321E-16, 0.000000000000000000 ) ) ;
#133 = CARTESIAN_POINT ( 'NONE',  ( 0.6806999999999999718, 0.4000000000000000222, 0.000000000000000000 ) ) ;
#134 = VERTEX_POINT ( 'NONE', #161 ) ;
#135 = LINE ( 'NONE', #55, #138 ) ;
#136 = EDGE_CURVE ( 'NONE', #146, #66, #15, .T. ) ;
#137 = VECTOR ( 'NONE', #157, 100.0000000000000142 ) ;
#138 = VECTOR ( 'NONE', #87, 100.0000000000000284 ) ;
#139 = CARTESIAN_POINT ( 'NONE',  ( 0.4806407106370307325, 0.3394467196196486736, 0.000000000000000000 ) ) ;
#140 = CARTESIAN_POINT ( 'NONE',  ( 0.000000000000000000, 0.000000000000000000, 0.000000000000000000 ) ) ;
#141 = CARTESIAN_POINT ( 'NONE',  ( 0.000000000000000000, 0.000000000000000000, 0.000000000000000000 ) ) ;
#142 = ORIENTED_EDGE ( 'NONE', *, *, #136, .F. ) ;
#143 = MANIFOLD_SURFACE_SHAPE_REPRESENTATION ( 'BCS_0.04', ( #63, #59 ), #75 ) ;
#144 = DIRECTION ( 'NONE',  ( 1.000000000000000000, 0.000000000000000000, 0.000000000000000000 ) ) ;
#145 = PRODUCT_DEFINITION ( 'UNKNOWN', '', #39, #160 ) ;
#146 = VERTEX_POINT ( 'NONE', #71 ) ;
#147 = AXIS2_PLACEMENT_3D ( 'NONE', #4, #56, #118 ) ;
#148 = ORIENTED_EDGE ( 'NONE', *, *, #72, .F. ) ;
#149 = UNCERTAINTY_MEASURE_WITH_UNIT (LENGTH_MEASURE( 1.000000000000000082E-05 ), #26, 'distance_accuracy_value', 'NONE');
#150 = SHAPE_DEFINITION_REPRESENTATION ( #110, #143 ) ;
#151 = EDGE_CURVE ( 'NONE', #70, #73, #135, .T. ) ;
#152 = ORIENTED_EDGE ( 'NONE', *, *, #90, .T. ) ;
#153 = AXIS2_PLACEMENT_3D ( 'NONE', #83, #34, #126 ) ;
#154 = CARTESIAN_POINT ( 'NONE',  ( 0.6806999999999999718, 0.4000000000000000222, 0.000000000000000000 ) ) ;
#155 = PLANE ( 'NONE',  #153 ) ;
#156 = LINE ( 'NONE', #64, #128 ) ;
#157 = DIRECTION ( 'NONE',  ( 0.6427876096865435818, 0.7660444431189744607, -0.000000000000000000 ) ) ;
#158 = CARTESIAN_POINT ( 'NONE',  ( 0.000000000000000000, 0.000000000000000000, 0.000000000000000000 ) ) ;
#159 = FACE_OUTER_BOUND ( 'NONE', #19, .T. ) ;
#160 = PRODUCT_DEFINITION_CONTEXT ( 'detailed design', #74, 'design' ) ;
#161 = CARTESIAN_POINT ( 'NONE',  ( 0.4727903172005901156, 0.4892411498328348429, 0.000000000000000000 ) ) ;
#162 = PRODUCT ( 'BCS_0.04', 'BCS_0.04', '', ( #175 ) ) ;
#163 = EDGE_CURVE ( 'NONE', #104, #18, #176, .T. ) ;
#164 = ORIENTED_EDGE ( 'NONE', *, *, #151, .T. ) ;
#165 = VERTEX_POINT ( 'NONE', #132 ) ;
#166 = AXIS2_PLACEMENT_3D ( 'NONE', #97, #131, #28 ) ;
#167 = EDGE_CURVE ( 'NONE', #73, #134, #13, .T. ) ;
#168 = CARTESIAN_POINT ( 'NONE',  ( 0.7806999999999999496, 0.4000000000000000222, 0.000000000000000000 ) ) ;
#169 = DIRECTION ( 'NONE',  ( -0.000000000000000000, -0.000000000000000000, -1.000000000000000000 ) ) ;
#170 = CARTESIAN_POINT ( 'NONE',  ( 0.6754664043757062641, 0.4998629534754573944, 0.000000000000000000 ) ) ;
#171 = VECTOR ( 'NONE', #38, 100.0000000000000000 ) ;
#172 = DIRECTION ( 'NONE',  ( 1.000000000000000000, 0.000000000000000000, 0.000000000000000000 ) ) ;
#173 = ORIENTED_EDGE ( 'NONE', *, *, #114, .T. ) ;
#174 = PLANE ( 'NONE',  #166 ) ;
#175 = PRODUCT_CONTEXT ( 'NONE', #123, 'mechanical' ) ;
#176 = LINE ( 'NONE', #16, #171 ) ;
#177 = EDGE_CURVE ( 'NONE', #124, #70, #27, .T. ) ;
#178 = CIRCLE ( 'NONE', #67, 0.04999999999999996114 ) ;
#179 = ADVANCED_FACE ( 'NONE', ( #159 ), #174, .T. ) ;
#180 = DIRECTION ( 'NONE',  ( 0.000000000000000000, -1.000000000000000000, 0.000000000000000000 ) ) ;
#181 = CARTESIAN_POINT ( 'NONE',  ( 0.6806999999999999718, 0.4000000000000000222, 0.000000000000000000 ) ) ;
#182 = VERTEX_POINT ( 'NONE', #54 ) ;
#183 = DIRECTION ( 'NONE',  ( 0.000000000000000000, 0.000000000000000000, 1.000000000000000000 ) ) ;
#184 = CIRCLE ( 'NONE', #41, 0.01999999999999996572 ) ;
ENDSEC;
END-ISO-10303-21;
