ISO-10303-21;
HEADER;
FILE_DESCRIPTION (( 'STEP AP214' ),
    '1' );
FILE_NAME ('BCS_0.08.STEP',
    '2026-09-18T15:08:23',
    ( '' ),
    ( '' ),
    'SwSTEP 2.0',
    'SolidWorks 2026',
    '' );
FILE_SCHEMA (( 'AUTOMOTIVE_DESIGN' ));
ENDSEC;

DATA;
#1 = SHELL_BASED_SURFACE_MODEL ( 'NONE', ( #135 ) );
#2 = ORIENTED_EDGE ( 'NONE', *, *, #26, .T. ) ;
#3 = PLANE ( 'NONE',  #103 ) ;
#4 = VERTEX_POINT ( 'NONE', #147 ) ;
#5 = ORIENTED_EDGE ( 'NONE', *, *, #80, .T. ) ;
#6 = ORIENTED_EDGE ( 'NONE', *, *, #141, .F. ) ;
#7 = DIRECTION ( 'NONE',  ( 0.000000000000000000, 0.000000000000000000, 1.000000000000000000 ) ) ;
#8 = CARTESIAN_POINT ( 'NONE',  ( 0.6806999999999999718, 0.4000000000000000222, 0.000000000000000000 ) ) ;
#9 = CARTESIAN_POINT ( 'NONE',  ( 0.06527036446661391156, -1.301042606982605321E-16, 0.000000000000000000 ) ) ;
#10 = DIRECTION ( 'NONE',  ( 1.000000000000000000, 0.000000000000000000, 0.000000000000000000 ) ) ;
#11 = LINE ( 'NONE', #121, #155 ) ;
#12 = APPLICATION_PROTOCOL_DEFINITION ( 'draft international standard', 'automotive_design', 1998, #124 ) ;
#13 = EDGE_CURVE ( 'NONE', #71, #17, #14, .T. ) ;
#14 = CIRCLE ( 'NONE', #82, 0.09999999999999992228 ) ;
#15 = CARTESIAN_POINT ( 'NONE',  ( 0.6754664043757062641, 0.4998629534754573389, 0.000000000000000000 ) ) ;
#16 = CIRCLE ( 'NONE', #85, 0.1499999999999999667 ) ;
#17 = VERTEX_POINT ( 'NONE', #43 ) ;
#18 = ORIENTED_EDGE ( 'NONE', *, *, #53, .F. ) ;
#19 = VERTEX_POINT ( 'NONE', #105 ) ;
#20 = VERTEX_POINT ( 'NONE', #28 ) ;
#21 = CARTESIAN_POINT ( 'NONE',  ( 0.5165126154894547073, 0.5377695737867623782, 0.000000000000000000 ) ) ;
#22 = DIRECTION ( 'NONE',  ( 1.000000000000000000, 0.000000000000000000, -0.000000000000000000 ) ) ;
#23 = DIRECTION ( 'NONE',  ( 0.000000000000000000, 0.000000000000000000, 1.000000000000000000 ) ) ;
#24 = CARTESIAN_POINT ( 'NONE',  ( 0.7306999999999999051, 0.4000000000000000222, 0.000000000000000000 ) ) ;
#25 = DIRECTION ( 'NONE',  ( 1.000000000000000000, 0.000000000000000000, 0.000000000000000000 ) ) ;
#26 = EDGE_CURVE ( 'NONE', #17, #20, #140, .T. ) ;
#27 = DIRECTION ( 'NONE',  ( 1.000000000000000000, 0.000000000000000000, 0.000000000000000000 ) ) ;
#28 = CARTESIAN_POINT ( 'NONE',  ( 0.6355212229855232708, 0.4977695152257398670, 0.000000000000000000 ) ) ;
#29 = ORIENTED_EDGE ( 'NONE', *, *, #141, .T. ) ;
#30 = ORIENTED_EDGE ( 'NONE', *, *, #129, .T. ) ;
#31 = CARTESIAN_POINT ( 'NONE',  ( 0.4806407106370307325, 0.3394467196196486736, 0.000000000000000000 ) ) ;
#32 = DIRECTION ( 'NONE',  ( 0.000000000000000000, -1.000000000000000000, 0.000000000000000000 ) ) ;
#33 = DIRECTION ( 'NONE',  ( 0.000000000000000000, 1.000000000000000000, 0.000000000000000000 ) ) ;
#34 = DIRECTION ( 'NONE',  ( -0.9986295347545741663, -0.05233595624293683329, 0.000000000000000000 ) ) ;
#35 = FACE_OUTER_BOUND ( 'NONE', #44, .T. ) ;
#36 = SHAPE_DEFINITION_REPRESENTATION ( #68, #154 ) ;
#37 = PRODUCT_DEFINITION_CONTEXT ( 'detailed design', #124, 'design' ) ;
#38 = CARTESIAN_POINT ( 'NONE',  ( 0.6780832021878531179, 0.4499314767377287638, 0.000000000000000000 ) ) ;
#39 = AXIS2_PLACEMENT_3D ( 'NONE', #8, #153, #46 ) ;
#40 = VERTEX_POINT ( 'NONE', #38 ) ;
#41 = EDGE_CURVE ( 'NONE', #104, #51, #115, .T. ) ;
#42 = VECTOR ( 'NONE', #136, 100.0000000000000000 ) ;
#43 = CARTESIAN_POINT ( 'NONE',  ( 0.6754664043757062641, 0.4998629534754573944, 0.000000000000000000 ) ) ;
#44 = EDGE_LOOP ( 'NONE', ( #18, #128, #2 ) ) ;
#45 = ADVANCED_FACE ( 'NONE', ( #142 ), #3, .T. ) ;
#46 = DIRECTION ( 'NONE',  ( 1.000000000000000000, 0.000000000000000000, 0.000000000000000000 ) ) ;
#47 = PLANE ( 'NONE',  #169 ) ;
#48 = DIRECTION ( 'NONE',  ( -0.000000000000000000, -0.000000000000000000, -1.000000000000000000 ) ) ;
#49 = LINE ( 'NONE', #95, #166 ) ;
#50 = ADVANCED_FACE ( 'NONE', ( #35 ), #47, .T. ) ;
#51 = VERTEX_POINT ( 'NONE', #9 ) ;
#52 = CARTESIAN_POINT ( 'NONE',  ( 0.6806999999999999718, 0.4000000000000000222, 0.000000000000000000 ) ) ;
#53 = EDGE_CURVE ( 'NONE', #71, #20, #172, .T. ) ;
#54 = VECTOR ( 'NONE', #33, 100.0000000000000000 ) ;
#55 = ORIENTED_EDGE ( 'NONE', *, *, #58, .T. ) ;
#56 = VERTEX_POINT ( 'NONE', #134 ) ;
#57 = DIRECTION ( 'NONE',  ( 1.000000000000000000, 0.000000000000000000, 0.000000000000000000 ) ) ;
#58 = EDGE_CURVE ( 'NONE', #177, #19, #75, .T. ) ;
#59 = CARTESIAN_POINT ( 'NONE',  ( 0.6806999999999999718, 0.4000000000000000222, 0.000000000000000000 ) ) ;
#60 = LINE ( 'NONE', #24, #151 ) ;
#61 = PRODUCT_DEFINITION_FORMATION_WITH_SPECIFIED_SOURCE ( 'ANY', '', #100, .NOT_KNOWN. ) ;
#62 = CARTESIAN_POINT ( 'NONE',  ( 0.4727903172005901156, 0.4892411498328348429, 0.000000000000000000 ) ) ;
#63 = DIRECTION ( 'NONE',  ( -0.6427876096865434707, -0.7660444431189745718, 0.000000000000000000 ) ) ;
#64 = VECTOR ( 'NONE', #126, 100.0000000000000284 ) ;
#65 = CARTESIAN_POINT ( 'NONE',  ( 0.000000000000000000, 0.000000000000000000, 0.000000000000000000 ) ) ;
#66 = VECTOR ( 'NONE', #63, 100.0000000000000142 ) ;
#67 = ORIENTED_EDGE ( 'NONE', *, *, #41, .T. ) ;
#68 = PRODUCT_DEFINITION_SHAPE ( 'NONE', 'NONE',  #98 ) ;
#69 = ORIENTED_EDGE ( 'NONE', *, *, #145, .T. ) ;
#70 = ORIENTED_EDGE ( 'NONE', *, *, #53, .T. ) ;
#71 = VERTEX_POINT ( 'NONE', #110 ) ;
#72 = DIRECTION ( 'NONE',  ( 1.000000000000000000, 0.000000000000000000, 0.000000000000000000 ) ) ;
#73 = DIRECTION ( 'NONE',  ( 0.6427876096865435818, 0.7660444431189744607, -0.000000000000000000 ) ) ;
#74 = CARTESIAN_POINT ( 'NONE',  ( 0.000000000000000000, 0.000000000000000000, 0.000000000000000000 ) ) ;
#75 = LINE ( 'NONE', #165, #42 ) ;
#76 = CIRCLE ( 'NONE', #39, 0.04999999999999996114 ) ;
#77 = EDGE_CURVE ( 'NONE', #88, #177, #60, .T. ) ;
#78 = CARTESIAN_POINT ( 'NONE',  ( 0.6806999999999999718, 0.4000000000000000222, 0.000000000000000000 ) ) ;
#79 = CARTESIAN_POINT ( 'NONE',  ( 0.3657340441691845911, 0.4358648610726302275, 0.000000000000000000 ) ) ;
#80 = EDGE_CURVE ( 'NONE', #20, #102, #11, .T. ) ;
#81 = APPLICATION_PROTOCOL_DEFINITION ( 'draft international standard', 'automotive_design', 1998, #171 ) ;
#82 = AXIS2_PLACEMENT_3D ( 'NONE', #176, #173, #72 ) ;
#83 = ORIENTED_EDGE ( 'NONE', *, *, #150, .T. ) ;
#84 = DIRECTION ( 'NONE',  ( 1.000000000000000000, 0.000000000000000000, 0.000000000000000000 ) ) ;
#85 = AXIS2_PLACEMENT_3D ( 'NONE', #161, #184, #10 ) ;
#86 = ORIENTED_EDGE ( 'NONE', *, *, #127, .T. ) ;
#87 = VERTEX_POINT ( 'NONE', #96 ) ;
#88 = VERTEX_POINT ( 'NONE', #111 ) ;
#89 = AXIS2_PLACEMENT_3D ( 'NONE', #162, #137, #119 ) ;
#90 = EDGE_CURVE ( 'NONE', #19, #56, #182, .T. ) ;
#91 = LINE ( 'NONE', #74, #93 ) ;
#92 = DIRECTION ( 'NONE',  ( 0.000000000000000000, 0.000000000000000000, 1.000000000000000000 ) ) ;
#93 = VECTOR ( 'NONE', #25, 100.0000000000000000 ) ;
#94 = EDGE_CURVE ( 'NONE', #160, #104, #179, .T. ) ;
#95 = CARTESIAN_POINT ( 'NONE',  ( 0.6780832021878531179, 0.4499314767377287638, 0.000000000000000000 ) ) ;
#96 = CARTESIAN_POINT ( 'NONE',  ( 0.4754071150127369139, 0.4393096730951061013, 0.000000000000000000 ) ) ;
#97 = CARTESIAN_POINT ( 'NONE',  ( 0.3657340441691845356, 0.4358648610726302275, 0.000000000000000000 ) ) ;
#98 = PRODUCT_DEFINITION ( 'UNKNOWN', '', #61, #37 ) ;
#99 = AXIS2_PLACEMENT_3D ( 'NONE', #78, #92, #122 ) ;
#100 = PRODUCT ( 'BCS_0.08', 'BCS_0.08', '', ( #125 ) ) ;
#101 = CARTESIAN_POINT ( 'NONE',  ( 0.000000000000000000, 0.000000000000000000, 0.000000000000000000 ) ) ;
#102 = VERTEX_POINT ( 'NONE', #62 ) ;
#103 = AXIS2_PLACEMENT_3D ( 'NONE', #52, #138, #123 ) ;
#104 = VERTEX_POINT ( 'NONE', #152 ) ;
#105 = CARTESIAN_POINT ( 'NONE',  ( 0.7806999999999999496, 0.000000000000000000, 0.000000000000000000 ) ) ;
#106 = AXIS2_PLACEMENT_3D ( 'NONE', #109, #7, #57 ) ;
#107 = ORIENTED_EDGE ( 'NONE', *, *, #77, .F. ) ;
#108 = FACE_OUTER_BOUND ( 'NONE', #146, .T. ) ;
#109 = CARTESIAN_POINT ( 'NONE',  ( 0.6806999999999999718, 0.4000000000000000222, 0.000000000000000000 ) ) ;
#110 = CARTESIAN_POINT ( 'NONE',  ( 0.7150232168611965200, 0.4939250594053539167, 0.000000000000000000 ) ) ;
#111 = CARTESIAN_POINT ( 'NONE',  ( 0.7306999999999999051, 0.4000000000000000222, 0.000000000000000000 ) ) ;
#112 = ADVANCED_FACE ( 'NONE', ( #108 ), #183, .T. ) ;
#113 = ORIENTED_EDGE ( 'NONE', *, *, #127, .F. ) ;
#114 = PRODUCT_RELATED_PRODUCT_CATEGORY ( 'part', '', ( #100 ) ) ;
#115 = LINE ( 'NONE', #101, #131 ) ;
#116 = ORIENTED_EDGE ( 'NONE', *, *, #164, .F. ) ;
#117 = EDGE_LOOP ( 'NONE', ( #116, #83, #107, #130, #113, #6 ) ) ;
#118 = CIRCLE ( 'NONE', #143, 0.1000000000000000056 ) ;
#119 = DIRECTION ( 'NONE',  ( 1.000000000000000000, 0.000000000000000000, 0.000000000000000000 ) ) ;
#120 = VECTOR ( 'NONE', #73, 100.0000000000000142 ) ;
#121 = CARTESIAN_POINT ( 'NONE',  ( 0.6754664043757062641, 0.4998629534754573389, 0.000000000000000000 ) ) ;
#122 = DIRECTION ( 'NONE',  ( 1.000000000000000000, 0.000000000000000000, -0.000000000000000000 ) ) ;
#123 = DIRECTION ( 'NONE',  ( 1.000000000000000000, 0.000000000000000000, -0.000000000000000000 ) ) ;
#124 = APPLICATION_CONTEXT ( 'automotive_design' ) ;
#125 = PRODUCT_CONTEXT ( 'NONE', #171, 'mechanical' ) ;
#126 = DIRECTION ( 'NONE',  ( -0.9986295347545741663, -0.05233595624293683329, 0.000000000000000000 ) ) ;
#127 = EDGE_CURVE ( 'NONE', #87, #40, #49, .T. ) ;
#128 = ORIENTED_EDGE ( 'NONE', *, *, #13, .T. ) ;
#129 = EDGE_CURVE ( 'NONE', #102, #160, #16, .T. ) ;
#130 = ORIENTED_EDGE ( 'NONE', *, *, #145, .F. ) ;
#131 = VECTOR ( 'NONE', #84, 100.0000000000000000 ) ;
#132 = CARTESIAN_POINT ( 'NONE',  ( 0.7306999999999997941, 0.000000000000000000, 0.000000000000000000 ) ) ;
#133 = AXIS2_PLACEMENT_3D ( 'NONE', #65, #139, #27 ) ;
#134 = CARTESIAN_POINT ( 'NONE',  ( 0.7806999999999999496, 0.4000000000000000222, 0.000000000000000000 ) ) ;
#135 = OPEN_SHELL ( 'NONE', ( #112, #50, #45 ) ) ;
#136 = DIRECTION ( 'NONE',  ( 1.000000000000000000, 0.000000000000000000, 0.000000000000000000 ) ) ;
#137 = DIRECTION ( 'NONE',  ( -0.000000000000000000, -0.000000000000000000, -1.000000000000000000 ) ) ;
#138 = DIRECTION ( 'NONE',  ( 0.000000000000000000, 0.000000000000000000, 1.000000000000000000 ) ) ;
#139 = DIRECTION ( 'NONE',  ( 0.000000000000000000, 0.000000000000000000, 1.000000000000000000 ) ) ;
#140 = LINE ( 'NONE', #15, #64 ) ;
#141 = EDGE_CURVE ( 'NONE', #4, #87, #118, .T. ) ;
#142 = FACE_OUTER_BOUND ( 'NONE', #117, .T. ) ;
#143 = AXIS2_PLACEMENT_3D ( 'NONE', #31, #48, #167 ) ;
#144 = ORIENTED_EDGE ( 'NONE', *, *, #94, .T. ) ;
#145 = EDGE_CURVE ( 'NONE', #40, #88, #76, .T. ) ;
#146 = EDGE_LOOP ( 'NONE', ( #174, #70, #5, #30, #144, #67, #175, #29, #86, #69, #159, #55, #158 ) ) ;
#147 = CARTESIAN_POINT ( 'NONE',  ( 0.4040362663251332864, 0.4037254805883030984, 0.000000000000000000 ) ) ;
#148 = LINE ( 'NONE', #21, #120 ) ;
#149 = DIRECTION ( 'NONE',  ( 0.9986295347545741663, 0.05233595624293766596, -0.000000000000000000 ) ) ;
#150 = EDGE_CURVE ( 'NONE', #51, #177, #91, .T. ) ;
#151 = VECTOR ( 'NONE', #32, 100.0000000000000000 ) ;
#152 = CARTESIAN_POINT ( 'NONE',  ( 0.000000000000000000, 0.000000000000000000, 0.000000000000000000 ) ) ;
#153 = DIRECTION ( 'NONE',  ( -0.000000000000000000, -0.000000000000000000, -1.000000000000000000 ) ) ;
#154 = MANIFOLD_SURFACE_SHAPE_REPRESENTATION ( 'BCS_0.08', ( #1, #133 ), #178 ) ;
#155 = VECTOR ( 'NONE', #34, 100.0000000000000284 ) ;
#156 =( NAMED_UNIT ( * ) PLANE_ANGLE_UNIT ( ) SI_UNIT ( $, .RADIAN. ) );
#157 = UNCERTAINTY_MEASURE_WITH_UNIT (LENGTH_MEASURE( 1.000000000000000082E-05 ), #163, 'distance_accuracy_value', 'NONE');
#158 = ORIENTED_EDGE ( 'NONE', *, *, #90, .T. ) ;
#159 = ORIENTED_EDGE ( 'NONE', *, *, #77, .T. ) ;
#160 = VERTEX_POINT ( 'NONE', #79 ) ;
#161 = CARTESIAN_POINT ( 'NONE',  ( 0.4806407106370307325, 0.3394467196196486736, 0.000000000000000000 ) ) ;
#162 = CARTESIAN_POINT ( 'NONE',  ( 0.6754664043757062641, 0.4998629534754573944, 0.000000000000000000 ) ) ;
#163 =( LENGTH_UNIT ( ) NAMED_UNIT ( * ) SI_UNIT ( .CENTI., .METRE. ) );
#164 = EDGE_CURVE ( 'NONE', #51, #4, #148, .T. ) ;
#165 = CARTESIAN_POINT ( 'NONE',  ( 0.000000000000000000, 0.000000000000000000, 0.000000000000000000 ) ) ;
#166 = VECTOR ( 'NONE', #149, 100.0000000000000142 ) ;
#167 = DIRECTION ( 'NONE',  ( 1.000000000000000000, 0.000000000000000000, 0.000000000000000000 ) ) ;
#168 =( NAMED_UNIT ( * ) SI_UNIT ( $, .STERADIAN. ) SOLID_ANGLE_UNIT ( ) );
#169 = AXIS2_PLACEMENT_3D ( 'NONE', #59, #23, #22 ) ;
#170 = CIRCLE ( 'NONE', #106, 0.09999999999999992228 ) ;
#171 = APPLICATION_CONTEXT ( 'automotive_design' ) ;
#172 = CIRCLE ( 'NONE', #89, 0.04000000000000002165 ) ;
#173 = DIRECTION ( 'NONE',  ( 0.000000000000000000, 0.000000000000000000, 1.000000000000000000 ) ) ;
#174 = ORIENTED_EDGE ( 'NONE', *, *, #181, .T. ) ;
#175 = ORIENTED_EDGE ( 'NONE', *, *, #164, .T. ) ;
#176 = CARTESIAN_POINT ( 'NONE',  ( 0.6806999999999999718, 0.4000000000000000222, 0.000000000000000000 ) ) ;
#177 = VERTEX_POINT ( 'NONE', #132 ) ;
#178 =( GEOMETRIC_REPRESENTATION_CONTEXT ( 3 ) GLOBAL_UNCERTAINTY_ASSIGNED_CONTEXT ( ( #157 ) ) GLOBAL_UNIT_ASSIGNED_CONTEXT ( ( #163, #156, #168 ) ) REPRESENTATION_CONTEXT ( 'NONE', 'WORKASPACE' ) );
#179 = LINE ( 'NONE', #97, #66 ) ;
#180 = CARTESIAN_POINT ( 'NONE',  ( 0.7806999999999999496, 0.000000000000000000, 0.000000000000000000 ) ) ;
#181 = EDGE_CURVE ( 'NONE', #56, #71, #170, .T. ) ;
#182 = LINE ( 'NONE', #180, #54 ) ;
#183 = PLANE ( 'NONE',  #99 ) ;
#184 = DIRECTION ( 'NONE',  ( 0.000000000000000000, 0.000000000000000000, 1.000000000000000000 ) ) ;
ENDSEC;
END-ISO-10303-21;
