$MeshFormat
2.2 0 8
$EndMeshFormat
$PhysicalNames
6
0 5 "separation-inf"
0 6 "separation-sup"
1 3 "pressure"
1 4 "fixed"
2 1 "body"
2 2 "cover"
$EndPhysicalNames
$Nodes
1104
1 0 0 0
2 0.7832443735993695 -8.673617379884035e-16 0
3 4.147538325515015 4.009409403738397 0
4 4.805568777289847 4.330352299337695 0
5 6.793040201319003 4.399756330807639 0
6 7.207000000000001 4 0
7 7.207000000000001 0 0
8 7.807 0 0
9 7.807000000000002 4 0
10 6.772100503297507 4.999390827019097 0
11 4.784629079268351 4.929986795549153 0
12 3.68791165964363 4.395081969550323 0
13 0.1566488747198739 0 0
14 0.3132977494397479 0 0
15 0.4699466241596219 0 0
16 0.6265954988794957 0 0
17 0.8992545098723221 0.1382554966806335 0
18 1.015264646145275 0.2765109933612679 0
19 1.131274782418228 0.4147664900419024 0
20 1.247284918691182 0.5530219867225368 0
21 1.363295054964135 0.6912774834031712 0
22 1.479305191237088 0.8295329800838056 0
23 1.595315327510042 0.96778847676444 0
24 1.711325463782995 1.106043973445074 0
25 1.827335600055948 1.244299470125708 0
26 1.943345736328901 1.382554966806342 0
27 2.059355872601853 1.520810463486976 0
28 2.175366008874807 1.65906596016761 0
29 2.291376145147759 1.797321456848244 0
30 2.407386281420712 1.935576953528878 0
31 2.523396417693665 2.073832450209511 0
32 2.639406553966618 2.212087946890145 0
33 2.755416690239571 2.35034344357078 0
34 2.871426826512525 2.488598940251415 0
35 2.987436962785479 2.62685443693205 0
36 3.103447099058432 2.765109933612684 0
37 3.219457235331386 2.90336543029332 0
38 3.335467371604339 3.041620926973954 0
39 3.451477507877293 3.179876423654589 0
40 3.567487644150246 3.318131920335223 0
41 3.6834977804232 3.456387417015859 0
42 3.799507916696154 3.594642913696493 0
43 3.915518052969107 3.732898410377128 0
44 4.03152818924206 3.871153907057763 0
45 4.253670413365278 4.116285031803575 0
46 4.376139745938581 4.203964462258109 0
47 4.511516211248213 4.269991976114471 0
48 4.656008195290729 4.312518279659919 0
49 4.986247997656134 4.336661756744054 0
50 5.16692721802242 4.342971214150412 0
51 5.347606438388707 4.34928067155677 0
52 5.528285658754993 4.355590128963129 0
53 5.70896487912128 4.361899586369487 0
54 5.889644099487566 4.368209043775846 0
55 6.070323319853852 4.374518501182204 0
56 6.251002540220139 4.380827958588563 0
57 6.431681760586427 4.387137415994922 0
58 6.612360980952714 4.39344687340128 0
59 6.950347179818123 4.373432170598881 0
60 7.084863348183601 4.28773592013546 0
61 7.175201941380978 4.156292451395709 0
62 7.207000000000001 3.818181818181818 0
63 7.207000000000001 3.636363636363635 0
64 7.207000000000001 3.454545454545453 0
65 7.207000000000001 3.272727272727271 0
66 7.207000000000001 3.090909090909088 0
67 7.207000000000001 2.909090909090906 0
68 7.207000000000001 2.727272727272724 0
69 7.207000000000001 2.545454545454541 0
70 7.207000000000001 2.363636363636359 0
71 7.207000000000001 2.181818181818177 0
72 7.207000000000001 1.999999999999995 0
73 7.207 1.818181818181812 0
74 7.207 1.63636363636363 0
75 7.207 1.454545454545447 0
76 7.207 1.272727272727265 0
77 7.207 1.090909090909083 0
78 7.207 0.9090909090909021 0
79 7.207 0.7272727272727217 0
80 7.207 0.545454545454541 0
81 7.207 0.3636363636363606 0
82 7.207 0.1818181818181808 0
83 7.357000000000001 0 0
84 7.507000000000001 0 0
85 7.657000000000001 0 0
86 7.807 0.1818181818181823 0
87 7.807 0.3636363636363646 0
88 7.807 0.545454545454547 0
89 7.807 0.7272727272727292 0
90 7.807 0.9090909090909116 0
91 7.807 1.090909090909094 0
92 7.807 1.272727272727276 0
93 7.807 1.454545454545459 0
94 7.807 1.636363636363641 0
95 7.807 1.818181818181823 0
96 7.807 2.000000000000005 0
97 7.807000000000001 2.181818181818188 0
98 7.807000000000001 2.36363636363637 0
99 7.807000000000001 2.545454545454553 0
100 7.807000000000001 2.727272727272735 0
101 7.807000000000001 2.909090909090917 0
102 7.807000000000001 3.090909090909098 0
103 7.807000000000001 3.272727272727278 0
104 7.807000000000001 3.454545454545459 0
105 7.807000000000001 3.636363636363639 0
106 7.807000000000001 3.818181818181819 0
107 7.791126851461645 4.177466448187235 0
108 7.744011319535616 4.349298993789168 0
109 7.667149147895367 4.510042589765675 0
110 7.56298042587575 4.654594222165703 0
111 7.434812124672102 4.778364911924159 0
112 7.286713113250251 4.877425397954581 0
113 7.123384986823562 4.948630876638884 0
114 6.950012808614561 4.989720837697265 0
115 6.59142128293122 4.993081369612737 0
116 6.410742062564934 4.986771912206379 0
117 6.230062842198647 4.98046245480002 0
118 6.049383621832361 4.974152997393662 0
119 5.868704401466075 4.967843539987303 0
120 5.688025181099788 4.961534082580945 0
121 5.507345960733502 4.955224625174586 0
122 5.326666740367216 4.948915167768228 0
123 5.145987520000928 4.942605710361869 0
124 4.965308299634639 4.936296252955511 0
125 4.606021298067302 4.913013523732254 0
126 4.430717622107593 4.874836925445529 0
127 4.261225971602599 4.816003160728103 0
128 4.099971119073331 4.737353914085198 0
129 3.949260000195546 4.640014353225606 0
130 3.811248710438117 4.52537703224669 0
131 3.568946767397061 4.253305131822893 0
132 3.449981875150493 4.111528294095463 0
133 3.331016982903924 3.969751456368033 0
134 3.212052090657355 3.827974618640603 0
135 3.093087198410786 3.686197780913174 0
136 2.974122306164217 3.544420943185744 0
137 2.855157413917649 3.402644105458314 0
138 2.73619252167108 3.260867267730884 0
139 2.617227629424511 3.119090430003454 0
140 2.498262737177943 2.977313592276025 0
141 2.379297844931374 2.835536754548595 0
142 2.260332952684805 2.693759916821165 0
143 2.141368060438237 2.551983079093735 0
144 2.022403168191668 2.410206241366306 0
145 1.903438275945099 2.268429403638876 0
146 1.78447338369853 2.126652565911446 0
147 1.665508491451962 1.984875728184016 0
148 1.546543599205393 1.843098890456586 0
149 1.427578706958824 1.701322052729157 0
150 1.308613814712256 1.559545215001727 0
151 1.189648922465687 1.417768377274297 0
152 1.070684030219118 1.275991539546868 0
153 0.9517191379725496 1.134214701819438 0
154 0.8327542457259809 0.9924378640920084 0
155 0.7137893534794122 0.8506610263645786 0
156 0.5948244612328435 0.7088841886371489 0
157 0.4758595689862748 0.5671073509097191 0
158 0.3568946767397061 0.4253305131822893 0
159 0.237929784493137 0.2835536754548587 0
160 0.1189648922465691 0.1417768377274298 0
161 0.9667802486393882 0 0
162 1.150316123679407 0 0
163 1.333851998719426 0 0
164 1.517387873759444 0 0
165 1.700923748799463 0 0
166 1.884459623839481 0 0
167 2.0679954988795 0 0
168 2.251531373919518 0 0
169 2.435067248959537 0 0
170 2.618603123999556 0 0
171 2.802138999039575 0 0
172 2.985674874079593 0 0
173 3.169210749119612 0 0
174 3.35274662415963 0 0
175 3.536282499199649 0 0
176 3.719818374239668 0 0
177 3.903354249279686 0 0
178 4.086890124319703 0 0
179 4.270425999359721 0 0
180 4.453961874399738 0 0
181 4.637497749439755 0 0
182 4.821033624479774 0 0
183 5.004569499519791 0 0
184 5.188105374559808 0 0
185 5.371641249599826 0 0
186 5.555177124639843 0 0
187 5.738712999679861 0 0
188 5.922248874719878 0 0
189 6.105784749759896 0 0
190 6.289320624799913 0 0
191 6.472856499839931 0 0
192 6.656392374879949 0 0
193 6.839928249919966 0 0
194 7.023464124959983 0 0
195 4.396192262363709 4.359898953648914 0
196 4.111918051518885 4.168215338127203 0
197 4.720625134860915 4.454672102989885 0
198 7.092740114333377 4.448522116660129 0
199 7.342423148506777 4.116371104907548 0
200 6.687185534192008 4.840894702447567 0
201 0.539423095449636 0.4029834656286111 0
202 5.793840338906421 4.521527109845837 0
203 6.155198779638993 4.534146024658554 0
204 5.070009334858428 4.490863920638428 0
205 5.432481898173847 4.50890819503312 0
206 7.659717544226848 3.736121673675741 0
207 7.364459164324442 0.4545454545454501 0
208 7.649540835675559 3.363636363636369 0
209 7.364459164324442 0.8181818181818135 0
210 7.650722208471388 2.820228015886884 0
211 7.364459164324443 1.181818181818175 0
212 7.649540835675557 2.454545454545462 0
213 7.649540835675557 1.727272727272732 0
214 7.649540835675557 2.090909090909096 0
215 3.856140705806928 3.902476003950377 0
216 3.621770076221411 3.625982890465048 0
217 7.4851099267566 4.499331804858091 0
218 3.389749803675505 3.349471897103778 0
219 3.157729531129597 3.072960903742509 0
220 2.931436069347363 2.781743112338809 0
221 2.693705463231782 2.496831883140251 0
222 2.460001654798729 2.217933308296533 0
223 0.9777082302907996 0.4518689215357545 0
224 2.231905712811627 1.976941034359507 0
225 1.176260031207763 0.7188239331028097 0
226 1.997589288962975 1.692224416711838 0
227 1.415921615892824 0.9989989179006611 0
228 1.764901392874789 1.414912465365929 0
229 1.372055099879717 1.386156609574732 0
230 7.006574205886143 4.859536271910541 0
231 4.138462938551035 4.567620973425184 0
232 4.384824081494651 4.6858757610662 0
233 6.519361317849607 4.545028035966529 0
234 6.325866602779793 4.827144388730029 0
235 4.874606460355135 4.767652190842105 0
236 5.603149721314647 4.801906559104596 0
237 5.96450816204722 4.814525473917312 0
238 5.241791280582074 4.789287644291877 0
239 7.364459164324444 1.545454545454539 0
240 7.35819689340541 3.180356612028854 0
241 7.651968515773333 0.2631609846368708 0
242 7.364459164324444 3.545454545454544 0
243 7.649540835675557 0.6363636363636385 0
244 7.364459164324444 2.272727272727268 0
245 7.649540835675557 1.000000000000003 0
246 7.358196893405409 2.637825206152962 0
247 7.649540835675557 1.363636363636366 0
248 7.364459164324444 1.909090909090903 0
249 3.749332749918803 4.222743437886635 0
250 6.916377965069848 4.539043111056863 0
251 7.652329283815943 4.08575947797939 0
252 3.51152248442583 3.944522518378901 0
253 7.249459947355415 4.304147776591413 0
254 7.436806260768989 0.127058654415233 0
255 3.276312068567095 3.662254990951506 0
256 7.282361961394725 4.695123267995196 0
257 3.040978768025585 3.380723431003332 0
258 2.805501422779736 3.099112365143572 0
259 2.557360880851666 2.806933527474557 0
260 2.319328961864915 2.523465927474848 0
261 2.081268431619648 2.240022232381217 0
262 0.891109376724164 0.8213197312057501 0
263 1.843292995152638 1.956507025239245 0
264 1.129761060132876 1.105853150367046 0
265 1.605312265353176 1.672996172372619 0
266 7.4164328426674 4.263030264733782 0
267 0.5436224708242499 0.1353558282642702 0
268 7.353578111958404 3.920860995594201 0
269 7.282707480146215 4.492507200464422 0
270 4.546890568149388 4.44478153387476 0
271 4.628035359023015 4.59479916018733 0
272 4.230729695781713 4.292658095982649 0
273 4.073225320327301 4.298907332255119 0
274 6.729077458446798 4.54642572879685 0
275 7.056287996600787 4.616420443672341 0
276 6.806815709361734 4.69045020343593 0
277 3.92294183761497 4.21896789297095 0
278 3.979024207161198 4.052321604401784 0
279 4.888611708146936 4.473058293444097 0
280 4.418724533175568 4.518456935118492 0
281 0.7196028535740746 0.1709028159590309 0
282 4.258903803549419 4.444412855640187 0
283 3.930781001440196 4.380338987380862 0
284 0.6524737608544324 0.5392679473531352 0
285 0.7076162633243142 0.3648878649931429 0
286 0.7704190624358187 0.6805609278026181 0
287 0.9676145750946459 0.6520854621757572 0
288 7.359447085786546 3.73682428485434 0
289 6.510460993974943 4.836244728464127 0
290 0.4217278494434771 0.2601111140020325 0
291 3.630511419332787 4.085569988130706 0
292 7.487681296590651 4.023002277696771 0
293 7.50578651142357 3.829041056348347 0
294 1.009077654158578 0.9649886859534678 0
295 1.199904288402721 0.9327727459663446 0
296 1.722943281433738 1.815995506052779 0
297 1.789733699636896 1.635108977155689 0
298 2.68401499261151 2.954218362418889 0
299 2.747747992069398 2.797229655027304 0
300 1.960836396068479 2.099379871527092 0
301 2.025597096909626 1.916866251577094 0
302 2.437012773373494 2.666220601017049 0
303 2.502102162960378 2.510951785240269 0
304 3.15941171649219 3.524446498778353 0
305 2.199024747313717 2.382916118359177 0
306 2.26087530038702 2.193432498901933 0
307 3.393919631241502 3.805576214497131 0
308 1.485634409207535 1.531826849209552 0
309 1.553261957788535 1.354259800250929 0
310 1.407304996862463 1.198892090465621 0
311 1.243356075684894 1.246052359611224 0
312 2.92481393362839 3.243464271564191 0
313 6.336791288608753 4.53856180044769 0
314 5.058199604957598 4.784808105267174 0
315 6.145441889576885 4.820993965049907 0
316 7.654925802751472 0.4529510731970543 0
317 7.364459164324446 0.636363636363634 0
318 7.364459164324446 2.090909090909085 0
319 7.649540835675556 2.27272727272728 0
320 7.649540835675556 1.545454545454549 0
321 5.251756105664898 4.500694565500407 0
322 5.783828941680934 4.808216016510954 0
323 7.653405492045508 2.638750867019544 0
324 7.65091910393736 2.998294835245792 0
325 7.499837800702233 2.909147747916053 0
326 7.649540835675559 0.8181818181818215 0
327 7.653968121934955 3.547035151143336 0
328 5.613161118540134 4.515217652439479 0
329 7.361389527571314 2.454669737690802 0
330 7.649540835675556 1.909090909090914 0
331 5.422470500948361 4.795597101698236 0
332 7.361389527571315 3.363512080491012 0
333 7.653438307956504 3.179487789987427 0
334 5.974519559272706 4.527836567252196 0
335 7.364459164324443 1.363636363636358 0
336 7.364459164324444 1.727272727272721 0
337 7.364459164324444 0.9999999999999933 0
338 7.649540835675558 1.181818181818183 0
339 3.738987997276861 3.763309722267955 0
340 3.505759939948459 3.487727393784412 0
341 3.273739667402552 3.211216400423143 0
342 3.048748136268076 2.9271573538621 0
343 6.621048376494515 4.683680491600413 0
344 4.794243298761309 4.608434052202959 0
345 4.704110601634513 4.762828750241601 0
346 7.362731082925079 0.2627545337579504 0
347 4.971313954657152 4.628531507285162 0
348 7.577328014370025 0.1231343928843609 0
349 6.425801830829382 4.685144658832034 0
350 3.810207593334419 4.065438789669852 0
351 7.508014094295721 0.3689339499035071 0
352 6.241532833314246 4.680081991473829 0
353 5.155034478349685 4.640547277107591 0
354 6.060062579054478 4.674268385705562 0
355 5.698495030110534 4.661716834475216 0
356 5.879209101845382 4.668015064617846 0
357 5.517815809744246 4.655407377068856 0
358 5.336891678910519 4.648407026783348 0
359 7.508396404616061 3.641503694336961 0
360 7.503114205400127 2.728264700101968 0
361 7.503152490629623 3.090002376317567 0
362 4.23789718700861 4.672254217881585 0
363 7.507 0.5454545454545401 0
364 7.50745900902039 3.45564485129825 0
365 7.5055295107098 3.272106678959913 0
366 7.507 0.7272727272727271 0
367 7.506999999999998 0.9090909090909052 0
368 7.507 1.272727272727269 0
369 7.506999999999999 1.090909090909086 0
370 7.507000000000001 1.636363636363637 0
371 7.507000000000001 1.454545454545455 0
372 7.505441159016319 2.54628205485785 0
373 7.506999999999998 2.181818181818178 0
374 7.507 1.818181818181817 0
375 7.506999999999996 2.36363636363636 0
376 7.507 1.999999999999999 0
377 7.351867480281001 2.999803448507166 0
378 7.354502729964795 2.818567456506963 0
379 3.687739623261131 3.924027206735232 0
380 6.855026941198008 4.852497589887597 0
381 7.66151370558264 3.915984982667703 0
382 3.571262817050978 3.784370796167052 0
383 0.26598038879707 0.1392163062618321 0
384 3.454016598826367 3.645208036634783 0
385 3.33789913300663 3.506012771473665 0
386 3.219173185457897 3.366657671509052 0
387 3.105482451764667 3.227591211984777 0
388 7.12825948989862 4.756120651957871 0
389 7.409594383769078 4.623984281481514 0
390 4.542417777339234 4.741858360030529 0
391 0.8559501434648853 0.3119293933601819 0
392 2.987483484513462 3.086781236617571 0
393 7.659846527007863 4.230129171227366 0
394 7.553937346562204 4.344551088350486 0
395 2.867488682931591 2.941040347568041 0
396 0.8174592308681241 0.5093406683641204 0
397 2.805421369682278 2.640068500900433 0
398 2.623891773694833 2.653039325466644 0
399 2.568844301926678 2.359115815134836 0
400 2.370668065947139 2.365850235489634 0
401 2.11209658755928 2.085328377749368 0
402 2.37671307342235 2.079543249059272 0
403 1.100028507540523 0.5581133587157523 0
404 1.048793185117574 0.8179981116808257 0
405 1.279249607395156 1.096513852862179 0
406 1.875831272419175 1.803340435347329 0
407 1.639768744972185 1.521820852870943 0
408 2.144366850541359 1.808483823932859 0
409 1.326937236340906 0.8342812120913585 0
410 1.910985198081082 1.529122257905354 0
411 1.682769031377688 1.247447387565131 0
412 1.560983065535758 1.145571774398643 0
413 0.5931777129485081 0.2668277998658239 0
414 7.183518826867655 4.591016664057153 0
415 7.389258749635705 4.391010887808059 0
416 0.4029150165328339 0.1069366497056272 0
417 7.520495320155835 4.163109513605882 0
418 3.992742017093885 4.509755068291234 0
419 4.503212531799788 4.603623404185404 0
420 7.507263995447593 0.2306452473223235 0
421 4.12619591914258 4.430267694934367 0
422 7.700059306028672 0.1136227118678823 0
423 7.314107468738814 0.1143262739982722 0
424 3.806463447162233 4.3402191377822 0
425 4.292688027488879 4.571065043334018 0
426 6.961557051335856 4.719011378653524 0
427 3.734334609304519 3.285644408498248 0
428 7.043053475275807 2.088680362964514 0
429 5.096172590347006 0.1590074912761743 0
430 3.296494679852024 2.739273902464229 0
431 5.266981340785934 4.196763301446555 0
432 4.362716315007301 0.1552319196201912 0
433 7.041094485055982 2.820320136858519 0
434 2.817210198907881 2.174115244027831 0
435 5.829214937411364 0.1422098356612969 0
436 3.630759159945285 0.1572349777565698 0
437 7.055617489500119 1.371946259804629 0
438 5.990758206967768 4.219460334454704 0
439 2.35219485793637 1.616947569070942 0
440 4.202164225313203 3.84429341765081 0
441 3.076849437393354 0.1612690030839139 0
442 7.045642079874797 3.36624580257255 0
443 6.373318270457178 0.1717738386348868 0
444 2.525028929491238 0.1622869541237661 0
445 2.001304127123256 1.212508932054031 0
446 4.757393990692575 4.191371476893888 0
447 7.055088265127173 0.8182065730895776 0
448 6.519957283190832 4.232194016655248 0
449 1.959085731269789 0.1769582733346931 0
450 3.98623255823866 0.1537506834771509 0
451 4.729160736572097 0.1589348623804567 0
452 5.462282349536633 0.1586659993861428 0
453 7.050241273947438 3.730348179243073 0
454 7.041338017149622 1.749118072154971 0
455 7.054400483933865 2.45263840801981 0
456 3.993723512585111 3.576732715192153 0
457 5.603354640733844 4.195005287821206 0
458 3.51320521207908 3.010280950205399 0
459 3.062498725022972 2.448475956665127 0
460 2.585519686961629 1.906320632033357 0
461 1.772390862043061 0.9387776939758323 0
462 6.746855256785777 0.1422009309164345 0
463 1.530470456840519 0.6522945534550448 0
464 7.01619926169212 4.143778669114509 0
465 1.606665078388532 0.1574832645897333 0
466 4.39544571471475 4.05945058528888 0
467 7.05681060958047 0.4551541869182563 0
468 1.302078605924569 0.3891573514943096 0
469 6.846096750481063 4.250834036118611 0
470 1.242139191386722 0.1529089008135784 0
471 7.059678401917679 3.902110381352672 0
472 6.900748302989762 3.82634945144952 0
473 6.888113985186945 3.6468703248586 0
474 6.737111452608787 3.747330090926973 0
475 6.72499473565349 3.566431751444433 0
476 6.574528474869914 3.667659778952194 0
477 6.562025246440909 3.486650864755692 0
478 6.411636231899887 3.588013335852664 0
479 6.399065661651904 3.407096245797315 0
480 6.248727333911151 3.508454442761549 0
481 6.236153707133959 3.327542088605131 0
482 6.08580713842204 3.428894647408913 0
483 6.073335804860519 3.248135779923378 0
484 5.923432235022181 3.348139101778068 0
485 5.910373423946326 3.168505335970995 0
486 5.760905185421575 3.26827329869409 0
487 5.747852857007027 3.089052306362305 0
488 5.598046995165243 3.189879590302795 0
489 5.585480068297954 3.009884446436849 0
490 5.735235658627288 2.909039087706092 0
491 5.572860393789775 2.829699011712701 0
492 5.722839929290096 2.728704971394923 0
493 5.560259630817887 2.649294515416276 0
494 5.710393287426715 2.548191996410278 0
495 5.547745254594208 2.468701829596427 0
496 5.397551759943383 2.569892254004907 0
497 5.384993562311934 2.389187359290806 0
498 5.535278804413927 2.287964866511935 0
499 5.37238390865249 2.208357616568787 0
500 5.522861961589612 2.107018012533886 0
501 5.359772293917993 2.027370369487972 0
502 5.209306298974388 2.128794551259346 0
503 5.19663506563535 1.947736290002195 0
504 5.04607246092252 2.049218149559596 0
505 5.033444198695995 1.868061469856604 0
506 4.882825834685132 1.969586785763513 0
507 5.510313390981025 1.925914183422231 0
508 4.870056310628701 1.788667448874053 0
509 4.720016149386762 1.889946367699775 0
510 4.706917964845863 1.708683866030541 0
511 4.55757112174603 1.810568363742971 0
512 5.019872904350098 1.687432022099551 0
513 4.733912544079247 2.071345871417117 0
514 4.543589197438077 1.628954104584034 0
515 4.393863967950207 1.730941083994045 0
516 5.435716232524544 3.110802258052959 0
517 4.380153509948634 1.549723595675094 0
518 4.230235662427896 1.650927101303851 0
519 4.216714177616018 1.469716437181341 0
520 4.067755495068448 1.571560101729608 0
521 4.244787042066084 1.832712394805157 0
522 5.673495350426768 2.005648943043461 0
523 5.660963364166751 1.824427780951447 0
524 4.529032977230509 1.4484318647444 0
525 4.053400661689832 1.390270483182366 0
526 3.90385153928114 1.491947835321429 0
527 5.824253459182316 1.904226666713225 0
528 5.811705659911357 1.722894391606483 0
529 3.889830884819911 1.310668129421604 0
530 3.739064103845791 1.411539680938989 0
531 5.87302069736266 2.627694736381646 0
532 3.726253460109037 1.230420806136904 0
533 3.575556247172568 1.33174743576968 0
534 3.756323830441413 1.594525616376992 0
535 3.562564206329061 1.150934894038997 0
536 3.413344744528566 1.25288251409498 0
537 4.038020828736631 1.209393616523472 0
538 5.975074512269212 1.802729904381011 0
539 5.962513551477286 1.621311457182448 0
540 5.799084655840798 1.541449395923096 0
541 5.950068086158896 1.439796944319801 0
542 5.786449840581978 1.359876148035102 0
543 5.937600506208253 1.258113363511219 0
544 5.773717399601531 1.178071592669304 0
545 5.924984911000261 1.076258122182175 0
546 6.088885863727667 1.156334494446907 0
547 3.399541471620931 1.070654702116363 0
548 3.248663693791856 1.172251398559996 0
549 5.448195820094396 3.290945757460549 0
550 5.285938023056083 3.211763465123811 0
551 3.264428618679901 1.354860079829151 0
552 6.223570691592101 3.146949830831146 0
553 6.125883591442244 1.701197628624866 0
554 6.138424251374451 1.882586421766002 0
555 5.761102923496564 0.9961611493730542 0
556 5.609765180425601 1.098064410842791 0
557 3.235880361649764 0.9905974217664664 0
558 3.084962223118767 1.092295575527547 0
559 6.076286686600146 0.9743877830685705 0
560 6.240184269256952 1.054514056318696 0
561 5.298967981288359 3.390949240138852 0
562 5.136180878574278 3.312728367122314 0
563 5.123632064601454 3.132528730545071 0
564 4.973725018029659 3.233382181084591 0
565 4.961256588971326 3.053236335685057 0
566 4.811853067661137 3.154206166891066 0
567 4.798922735714244 2.973930843339835 0
568 4.649480101262408 3.074938474399153 0
569 4.63647888649687 2.894574216069461 0
570 4.824839399723682 3.3341547987313 0
571 3.072257060371311 0.9106767529750424 0
572 2.921387465772347 1.012487630057738 0
573 3.549201393031412 0.969575689114806 0
574 4.486522770368647 2.995661986123149 0
575 4.473841306936087 2.81524396608731 0
576 5.597143262550014 0.9160393374056923 0
577 5.44579312778823 1.018042739775834 0
578 5.14698119439125 3.489891495921426 0
579 5.23478775424124 2.490450520145231 0
580 5.457364972863958 3.469533030034644 0
581 2.934065653088797 1.193899430949175 0
582 2.770655649095433 1.114170796311249 0
583 2.757917545970924 0.9327887786448152 0
584 3.223266605068381 0.8088226763720332 0
585 6.289224488744504 1.781070669077769 0
586 6.301736362881112 1.962429073077112 0
587 5.433064338558649 0.836014187238967 0
588 5.281691861000821 0.9379796352925842 0
589 4.323857639945087 2.916334551461176 0
590 4.311271812685838 2.735866903122846 0
591 5.929081860619005 3.525323313985638 0
592 6.231100981970848 0.8776501147671789 0
593 6.549444056867468 3.305737792905914 0
594 4.500993800942814 3.176639487864434 0
595 6.075701209761044 0.7979647660992661 0
596 4.161273690683954 2.837002661904997 0
597 4.148672726434744 2.656489144460568 0
598 6.392080853469734 0.953545696297704 0
599 6.403909855240532 1.134846051748127 0
600 4.623868894727124 2.714112331954442 0
601 5.634853967453759 1.46167730611728 0
602 4.29875501984097 2.55530192743229 0
603 4.136069155467725 2.475879461291718 0
604 3.985977134966887 2.577121000987964 0
605 3.97334786123468 2.396482739412501 0
606 6.379670746602365 0.7486441719418075 0
607 2.607145768764997 1.034542437918824 0
608 2.594202896727952 0.8531907956607263 0
609 2.745122697971401 0.7512968157910418 0
610 5.265568019428702 0.7628137029969109 0
611 5.116976460034036 0.859047444297417 0
612 5.130169251768391 1.040217397449301 0
613 4.966044729607775 0.9602154631613895 0
614 4.953291013169892 0.7780043976401751 0
615 4.801929867721249 0.8799969944311838 0
616 6.150848540689531 2.063834200402087 0
617 6.314143386067957 2.143610488535202 0
618 5.585689981026872 0.7430981230160532 0
619 6.452566231145066 1.8609397101786 0
620 3.823233016187703 2.497712230119509 0
621 3.810618875441 2.317078351742711 0
622 6.261329106946729 3.68933958784754 0
623 6.440055951759862 1.679531054508703 0
624 4.286229900692354 2.374627252240527 0
625 4.978880907703616 1.142143070901954 0
626 5.142862586447139 1.222104679309005 0
627 2.783318791100045 1.295430912202492 0
628 4.789181775308807 0.6977282827152393 0
629 4.637725941944975 0.799864893166832 0
630 6.555359407042149 1.033043243032064 0
631 6.567402437020242 1.21480026128582 0
632 4.173860998566687 3.017411716130259 0
633 3.660484354221826 2.418302773736412 0
634 3.647822991239908 2.237661000463377 0
635 3.798039491490024 2.136382870095441 0
636 3.635210006868622 2.056955063153734 0
637 3.484997699825095 2.158254930284953 0
638 3.472355382684974 1.977560240509098 0
639 2.581137954910783 0.6723082601217882 0
640 2.430440862938454 0.7736562180283677 0
641 2.729377450957323 0.5794179044135084 0
642 2.413529661142916 0.6005782997658673 0
643 2.266114736033494 0.6952593288951792 0
644 4.622439155471739 0.6227485562225996 0
645 4.473056866161226 0.7206440752983143 0
646 4.486151538032654 0.9021326777580834 0
647 4.321885575237404 0.822152274888337 0
648 4.309128974446914 0.63988176792656 0
649 4.157666448812339 0.7420275480790908 0
650 3.322201213775883 2.078871877187828 0
651 3.309526569544513 1.898165265366761 0
652 4.011340206780264 2.938125114852985 0
653 5.860581099973264 2.447079197021175 0
654 6.023301602761801 2.526679318174352 0
655 5.111071690934201 2.952383817108394 0
656 6.035712660896342 2.707363260553152 0
657 6.186097386311174 2.606320562135775 0
658 6.718930640808424 1.113012938137815 0
659 4.938791362625114 0.5977986208599382 0
660 2.249402949013095 0.5216551239170215 0
661 2.102179169068568 0.6158964983028712 0
662 6.60341199759679 1.75941614552532 0
663 6.615895270940187 1.940820381350002 0
664 3.673133332991508 2.598870200614744 0
665 2.279818361642092 0.8753846306438708 0
666 4.145048236010956 0.5599306939857502 0
667 3.993649893970051 0.6622685629025216 0
668 6.706524402713594 0.9312188566633148 0
669 3.159393167568406 1.999469770105891 0
670 3.143240325853591 1.819730773602796 0
671 6.586560609754132 3.848570046866367 0
672 3.296329159765557 1.717549059322709 0
673 3.785461784252742 1.955578804152682 0
674 4.00628826733105 0.8442508081805462 0
675 2.947840467977557 1.377022108269983 0
676 2.797394916000841 1.478626387952471 0
677 2.633210526033936 1.397261513706582 0
678 4.991561484079407 1.323969424286859 0
679 5.45820987881973 1.200066311854291 0
680 5.058878128122733 2.230213571298719 0
681 5.836656818318958 2.085494476754529 0
682 6.588209275447783 1.578136989679498 0
683 6.42716642919968 1.498245018088603 0
684 4.448917094606434 2.454112277630672 0
685 5.497527407795326 1.744759510581004 0
686 3.059570038113924 0.7289820936102798 0
687 3.213551183239383 0.6311526816329951 0
688 3.37501714619721 0.7075768442716566 0
689 3.365438269087713 0.5298822507439431 0
690 3.526137705799472 0.6049992230549144 0
691 3.057835009458397 0.5628266148611329 0
692 6.198448491968511 2.786969054254657 0
693 6.348985435042457 2.685954053675523 0
694 6.337040254534106 2.505297784093929 0
695 6.49965798362166 2.584834080967022 0
696 6.511980648571783 2.765795535484781 0
697 6.67122977003542 2.663944655297858 0
698 6.644200944774575 2.484414318189738 0
699 6.685029002983173 2.84492500988773 0
700 6.525867863042398 2.946239498337542 0
701 6.689052376892506 3.025930922860473 0
702 4.827988243928155 1.244032581019931 0
703 5.155862286519937 1.404079196721788 0
704 4.436292349419487 2.273703146792779 0
705 4.273629301446896 2.193948022946554 0
706 4.598443134668246 2.353653742249766 0
707 3.948047549520292 2.035573615407962 0
708 4.335428752012923 1.004129773561097 0
709 4.498976475767051 1.084102456626078 0
710 3.842569344593234 0.7643753152708639 0
711 3.335482586438201 2.258266509866384 0
712 2.999580112986352 1.920982575608626 0
713 3.830655087054568 0.5885683242899313 0
714 6.75510735312487 1.310272303746677 0
715 4.027228090983755 3.118223802325669 0
716 4.187171411780787 3.198003599773977 0
717 3.512069492935802 2.515966959103817 0
718 2.647992650366313 1.568833221610986 0
719 2.810884924379856 1.690003583964353 0
720 3.127157992273081 1.640248888195855 0
721 3.875168408766683 3.040160084826004 0
722 3.85095390117876 2.858949392104613 0
723 6.011452437747815 2.346051602288406 0
724 5.247709674785987 2.671130676135653 0
725 5.084872661053238 2.59174837341489 0
726 6.048080237425559 2.887651935988615 0
727 4.842171289454108 1.42628448557409 0
728 4.423106970832889 2.093344875142717 0
729 3.934549561092632 1.855035486649232 0
730 4.350420818645508 1.186996828378265 0
731 3.858556103146127 0.9478773536208127 0
732 6.763374960527034 1.846200899052889 0
733 4.296438712773375 0.4573622501016272 0
734 6.771887266317103 2.022312981304145 0
735 6.627004094702965 2.122309485230091 0
736 6.786971803268717 2.219417645396809 0
737 2.08774303254997 0.4394210669743446 0
738 1.938836108428086 0.535984786086483 0
739 2.245561825808482 0.3347060630382446 0
740 1.954522791542317 0.7116346051151607 0
741 3.530585706213814 0.4301652839469976 0
742 3.362016043837205 0.3406520404132625 0
743 6.875444261274306 1.014240318407494 0
744 4.03646935366476 3.29874361138181 0
745 4.206404682599945 3.372826128030447 0
746 3.498207113041128 2.709245074126144 0
747 6.796829808194314 2.528974974484833 0
748 4.151444220778039 0.3733599526481526 0
749 1.80035808008043 0.6476199365505444 0
750 1.775777142606745 0.455176210388534 0
751 6.843029587657189 2.925067818027443 0
752 6.854332326015247 3.105875777185024 0
753 6.928902899708087 1.928273691403053 0
754 3.00215680064229 2.127300947886085 0
755 6.875572635267997 3.464912353360663 0
756 7.024257800844307 3.005396898462549 0
757 6.858273174354368 2.707654605317413 0
758 6.850808224703905 0.8296743400771422 0
759 6.69293228662617 0.7493860998535506 0
760 6.838313712116138 0.6476023245430653 0
761 6.680181134283019 0.5674106726085144 0
762 6.832991435701629 0.4656188692264926 0
763 6.670633092593173 0.3958251277397355 0
764 6.527951728286538 0.4882463909952239 0
765 3.696739015781899 2.97778880922844 0
766 6.52300857651383 0.3097417563705416 0
767 6.361233413120022 0.4073294455314467 0
768 6.191717071442273 0.2696204228289663 0
769 6.167296899015337 0.4505533216908013 0
770 6.03181948073543 0.3264332649578492 0
771 5.984256559572648 0.5075949612140622 0
772 5.860617986337495 0.3842063180698898 0
773 5.804979814128637 0.5514678402326796 0
774 5.67290783312975 0.4313774577328466 0
775 6.283037814383576 0.5885132655446106 0
776 6.913998068639338 4.005325158011241 0
777 3.280952909285916 1.536905971333063 0
778 3.445161561832268 1.617220352628079 0
779 7.051786010873449 2.63122107153748 0
780 2.482718011646411 1.498308192099319 0
781 2.470078818575411 1.31756191166036 0
782 2.329439748331591 1.420884140535897 0
783 2.311318575097468 1.238320750901855 0
784 2.144810848033986 1.349798743317681 0
785 4.985927842022825 3.411983684123953 0
786 4.837375508624464 3.512015941716566 0
787 4.678145808152626 3.434284584720029 0
788 4.691416941431202 3.611108481301257 0
789 4.84860719734097 3.686999068261077 0
790 4.705029229824183 3.784808529148258 0
791 4.859927367273262 3.860350277558578 0
792 4.532975136264729 3.534838614403663 0
793 5.005103624424679 3.76369694032422 0
794 5.01554880074714 3.93779757714386 0
795 5.16176672348983 3.840877174785269 0
796 4.712230407036257 3.948016726820452 0
797 4.565216838747509 3.873244764774944 0
798 4.559595721501399 4.032143892475284 0
799 5.180116961607601 4.040530817984946 0
800 5.319843850275542 3.918474049016092 0
801 5.312678139844266 3.743667963022637 0
802 5.468098542107706 3.819119797234091 0
803 5.495042720843897 4.020371889097006 0
804 5.629202109853775 3.897771979028633 0
805 5.616851645824748 3.718748861282668 0
806 5.778014087229881 3.798631017730997 0
807 5.792273565286864 3.980025565775966 0
808 5.940411879361302 3.876721813326745 0
809 5.013083983995096 4.127463181110636 0
810 5.772616966782841 3.623215833370505 0
811 4.516557309897441 3.356340940740475 0
812 4.369786777776021 3.456096656014715 0
813 4.389415619882295 3.629751026697433 0
814 4.196219954653467 3.555954788129818 0
815 4.548004298428262 3.707229363372788 0
816 4.383495143361817 3.808524223441353 0
817 4.352903192498388 3.276116342926 0
818 6.163508315577224 2.245155032831393 0
819 3.771405473479204 1.775906249653359 0
820 7.037499233795038 3.187538970567428 0
821 1.425141460067362 0.1468991915491364 0
822 1.482540842404072 0.3222636909438159 0
823 7.045594995712863 3.549880958490662 0
824 2.115750312896203 0.7955599104665394 0
825 2.140698553815278 0.9765099544894174 0
826 1.95963979456076 0.9086400016046645 0
827 2.298943700606431 1.056812362919101 0
828 2.444632533857953 0.9550092129891352 0
829 4.021674404797912 1.027018718138267 0
830 1.775451218148438 0.155225097043505 0
831 5.306583439876992 1.302151061375465 0
832 5.32005941127883 1.484138754443472 0
833 3.097751020615877 1.273843698760385 0
834 3.114087744885261 1.45835906924645 0
835 2.96008385752571 1.564918438358233 0
836 4.171771850518066 0.9242562642317482 0
837 3.68563200003919 2.779300057858986 0
838 4.098867406202819 3.714715164902429 0
839 3.179398358089046 2.182404688830056 0
840 4.513624655014674 1.266513789146857 0
841 4.664213970573231 1.164111299561704 0
842 5.470522153796212 1.382025750787125 0
843 2.159763436399519 0.1589467302904621 0
844 2.34090751318417 0.1636044783864263 0
845 2.445724231591409 0.3224770493758831 0
846 2.614176867003686 0.3228319176536032 0
847 2.708455753401647 0.1640802425451962 0
848 2.797338950494926 0.3167585476300729 0
849 2.892607982687305 0.1670273705073528 0
850 2.982476351600398 0.3106423244823722 0
851 3.162624806393829 0.3113464492829277 0
852 3.260989162393629 0.1652884069020151 0
853 3.449101262242927 0.1576270778724522 0
854 3.836271863830309 2.678289108747856 0
855 5.987464007086327 1.983975137480339 0
856 6.252342578588089 1.236605220854336 0
857 6.101089014877878 1.33820324657243 0
858 3.810599801089904 0.1577249748334815 0
859 3.890607578530346 0.3053008493323199 0
860 3.699553593977576 0.3244229483110121 0
861 4.895861169567896 2.150738372006368 0
862 4.909287949229414 2.331742772589197 0
863 6.424116385987632 3.768912087689477 0
864 6.273858666859109 3.870070606136875 0
865 6.103749891947701 3.786806446639481 0
866 6.105110190285973 3.956581883496412 0
867 6.264275331681861 4.062454006618737 0
868 6.092247501798893 3.607075259207411 0
869 6.431662153152807 3.947347327651761 0
870 6.596030856914568 4.059186426143038 0
871 4.337551635683734 3.096694614046499 0
872 4.166362837851908 0.1807376038029433 0
873 4.850770338600944 4.050185929933289 0
874 4.545813336619021 0.1582730356512263 0
875 4.653904450283369 0.3224049454660012 0
876 4.82848577099374 0.3190372597665299 0
877 4.913914290709508 0.1591613585803895 0
878 5.005838475371753 0.3125543261655617 0
879 5.187833230328581 0.3170975363705448 0
880 5.095078337007672 0.4911813763371287 0
881 5.295307974353776 0.4788872163815139 0
882 5.370666725960832 0.3184479042275123 0
883 5.470079730593065 0.4715025566226165 0
884 4.455729920205421 0.3418283765094232 0
885 5.279450253388781 0.158869821876729 0
886 6.932898948087053 0.1744870372422134 0
887 3.498063741645741 2.33809085447513 0
888 3.354632673935765 2.424010838669329 0
889 5.645000958287973 0.1504588034392729 0
890 4.814904771883429 1.062082555268265 0
891 1.940678988083701 0.3625824080306983 0
892 4.25999598505947 2.014227535378331 0
893 5.294218357616884 1.120093637509413 0
894 6.464790534542783 2.042286690655292 0
895 6.476692077514991 2.223323200149117 0
896 6.865536463278119 1.188386078369412 0
897 7.054352543117862 2.280813989890836 0
898 6.896965199567 2.370335635002649 0
899 5.410404995172792 2.750407254855294 0
900 4.650650427653765 0.9820484794686912 0
901 5.685751302340401 2.186728954157355 0
902 2.620275527672935 1.215906067427238 0
903 6.754314622854758 1.65787760320547 0
904 6.361516736384535 2.866422667319218 0
905 5.431365101463808 4.197131930602875 0
906 3.999081587312487 2.757662737176497 0
907 5.798034295310161 4.174720983209591 0
908 3.886772702096298 3.410645617221209 0
909 3.622317377878644 3.153228725010389 0
910 6.716291271873547 3.385639325884846 0
911 6.167136975587951 4.2286719653347 0
912 6.345932709089017 4.232675343884504 0
913 3.399916089330778 2.874685186304703 0
914 3.173934381030368 2.60969827416425 0
915 6.579126843466714 1.39790846621521 0
916 7.05301003588751 1.550480418962959 0
917 6.882798727402312 1.475291452709245 0
918 2.929569036383865 2.311014711179358 0
919 2.698908492284557 2.043201704257639 0
920 2.749749832000555 1.876144040273623 0
921 6.386508623188349 3.226230277101659 0
922 5.885356014162045 2.808147429487776 0
923 4.123480335246296 2.295255616363594 0
924 5.273401087136 3.031650890448743 0
925 2.467122250585833 1.772945042451553 0
926 6.276661252621777 1.599735637767043 0
927 3.622313844005371 1.876554489051767 0
928 5.072190518159813 2.411014511918871 0
929 4.786329534606401 2.793664711279463 0
930 4.773678325768455 2.613354611105574 0
931 5.004830951621096 1.50582419989307 0
932 5.6223143971287 1.279888152040143 0
933 3.960733747858648 2.215918515027698 0
934 4.461344431662318 2.634721848165354 0
935 6.542842617131847 0.8475158439135022 0
936 5.222196535039727 2.30971183007197 0
937 1.883512282438405 1.080881282712222 0
938 6.113365897815546 1.519749646927179 0
939 4.948700140456104 2.873094680992441 0
940 6.748697782164372 3.931473894184788 0
941 5.34706136744724 1.846436096899325 0
942 2.457786205383753 1.136428729947651 0
943 5.100967481976189 0.6839773793827422 0
944 5.423158234292111 2.930703943944932 0
945 5.91475106349206 0.895755561426018 0
946 5.746550370739859 0.8223628080615568 0
947 3.458997201918352 1.797607575119418 0
948 4.45898450729827 0.5414501576139066 0
949 5.698006917259719 2.367548282993021 0
950 5.183676272228365 1.767101036748091 0
951 5.647789751335896 1.643119865866946 0
952 7.057221800043509 0.6364021134822275 0
953 5.608579583603642 3.368598394519077 0
954 1.664829903414965 0.7743920936039297 0
955 4.763314341184616 0.4956001148465412 0
956 2.908728385067459 0.8309740546519517 0
957 3.386737312577409 0.8888453074484559 0
958 1.423881546819754 0.5197101779617759 0
959 5.484141530733113 1.563656259135438 0
960 4.611153392725576 2.533984624246365 0
961 5.999526460683498 2.164979154865175 0
962 6.542040999190602 0.664392236728101 0
963 3.537811236920665 0.786944476842101 0
964 4.110543179003383 2.11526815366865 0
965 6.878915077973539 3.285079198518858 0
966 2.897542742920222 0.65508014516793 0
967 6.174296262668163 2.425681015101829 0
968 5.848662506053943 2.26631361134661 0
969 5.898037460376226 2.988410651513728 0
970 5.260682164959083 2.851462143450115 0
971 6.264320500239245 1.418264909020301 0
972 6.32578143561796 2.324534610127301 0
973 4.99575971908061 3.588736069114469 0
974 6.415593265684822 1.316856139119251 0
975 5.098173313057369 2.772202336885406 0
976 6.629301160817525 2.306867653664603 0
977 5.411766921380201 0.6396959125248656 0
978 4.664078706012249 3.255108361952118 0
979 4.93590599337333 2.693047283986906 0
980 6.060641302095716 3.067761825138277 0
981 7.053129451998391 0.9966995771348737 0
982 6.765960556848531 4.102958792858323 0
983 6.485445642813469 2.404878607865285 0
984 6.210937540795819 2.967069293182154 0
985 4.922940101244462 2.512350995781356 0
986 5.333902265664288 1.665469272070234 0
987 6.374085647715082 3.046543954315415 0
988 6.53731772144689 3.126117776135881 0
989 5.16970068194377 1.585674080329368 0
990 4.76059537129532 2.433406571901561 0
991 3.979501686459984 0.458708808652676 0
992 6.704225471844866 3.205730132248499 0
993 4.856524865427298 1.608486018801427 0
994 4.747648247252549 2.252205637605193 0
995 4.693129721961804 1.528552583562863 0
996 4.585205256163032 2.172597330124002 0
997 4.67886013036957 1.346078483861997 0
998 4.571747879565567 1.991650007557849 0
999 4.408512161203374 1.912240710103512 0
1000 1.593266869397274 0.47601187337178 0
1001 4.096910172130849 1.934891551755094 0
1002 4.365654991142682 1.369291409074543 0
1003 4.082578216472326 1.753440443585491 0
1004 3.919410685972527 1.673735955552686 0
1005 4.202184884347774 1.289306762229777 0
1006 2.988355729721505 1.747647506894209 0
1007 3.607824272841844 1.696122650974817 0
1008 4.186583589843136 1.106850327177105 0
1009 3.429917504220387 1.435824130438493 0
1010 5.91005456479514 0.6943746224975382 0
1011 3.87467827100549 1.130346067237944 0
1012 3.711406166118439 1.050344849712641 0
1013 5.552060400088271 0.3123460213507303 0
1014 3.592630281675108 1.514810997629314 0
1015 2.552716861954839 0.4838249440564315 0
1016 5.156035849886024 3.665516775137894 0
1017 5.305649869283567 3.568172494892818 0
1018 3.696108071644416 0.8677312404869153 0
1019 3.683576324189996 0.6856825046330086 0
1020 3.680366268315203 0.5113978689454948 0
1021 5.767613089855761 3.447162247573374 0
1022 7.02636773274556 1.179642178155664 0
1023 5.93602036462327 3.702962280710129 0
1024 3.194109230722257 2.350207794092747 0
1025 6.028090769315199 0.1591423167729169 0
1026 6.113969055055893 0.6242356135020035 0
1027 7.07155735562041 0.279064523198334 0
1028 5.946774780882705 4.047957863910273 0
1029 2.892253543434789 0.4680815769054392 0
1030 5.461911843842877 3.647079092563274 0
1031 1.066405663903845 0.1366778011483305 0
1032 4.882613017646919 4.207206928803912 0
1033 5.614156350462305 3.54572290989059 0
1034 2.62974032891097 1.741414692068037 0
1035 6.564624437359941 0.1444910997042905 0
1036 1.674722927618863 0.3088162270248596 0
1037 6.711911364459287 1.48389736311122 0
1038 2.161774650422023 1.158904985742153 0
1039 6.688038604579696 4.248060773461341 0
1040 2.861022401260469 2.004753162181319 0
1041 6.797536769217056 0.2990614277623616 0
1042 3.89391098392487 3.218113388364637 0
1043 5.603766328902492 0.5774598596340939 0
1044 6.917908044688668 1.637929589132546 0
1045 3.343079985428978 2.579506068850053 0
1046 4.286538401323209 0.3017040205364672 0
1047 3.556910764889931 2.867227123839841 0
1048 5.656841711568077 4.051293537257514 0
1049 6.431571666805817 4.106771424190658 0
1050 3.215180881836097 0.4703977447688539 0
1051 4.304370976655083 3.962050932647799 0
1052 4.613678551048292 4.183177867231734 0
1053 1.815974890306311 0.7882762254411486 0
1054 4.913284458878595 0.4432472192705634 0
1055 5.746349949852083 0.2799015675125811 0
1056 7.085458878426703 1.916850788940869 0
1057 4.254037622045932 3.709679160405092 0
1058 4.594839748607672 0.4657149686434194 0
1059 2.073388919258478 0.288005672703318 0
1060 5.338669994995357 4.074654397629494 0
1061 6.226104475043403 0.7244716810733651 0
1062 4.491275188890247 4.149745756673695 0
1063 4.065964758075467 3.444254866399265 0
1064 2.208463819633229 1.514319169969756 0
1065 5.718689600449091 0.6674937037899453 0
1066 6.893909188552191 2.099989322393793 0
1067 3.811689192655793 0.4345489294371023 0
1068 6.197552687279904 0.1169217251408603 0
1069 3.539377704865875 0.2821823446608596 0
1070 6.885804849437351 1.768236966584378 0
1071 6.094811097081251 4.103025210762965 0
1072 5.236099699591712 0.6150187341648814 0
1073 1.170196346273951 0.2725167992573874 0
1074 3.073546430172086 2.283880819730674 0
1075 3.770660278078828 3.147649838140433 0
1076 7.072354735115092 0.1341914937942068 0
1077 6.750853783324426 2.382002045347726 0
1078 2.517172629171625 1.634241632074351 0
1079 5.125069236598225 4.210223994498238 0
1080 2.029158031000149 1.073057870344071 0
1081 2.713114049780785 0.4335639345901248 0
1082 7.083698875060825 4.034863781073161 0
1083 4.442278352900202 3.94344289522226 0
1084 2.382104530767785 0.4571448513284602 0
1085 6.946664327968942 0.5469379531620442 0
1086 6.892646458754168 4.134938619316646 0
1087 4.696910194960648 4.078486573871793 0
1088 1.663364459291266 0.5976636978793444 0
1089 6.969174268585335 4.254562610377975 0
1090 6.918160098912422 1.310101653179916 0
1091 6.657111744979929 0.2562276848329104 0
1092 6.937184153267967 2.536118114756242 0
1093 6.951136113621505 0.7314141340278306 0
1094 6.935050441956315 2.21184739112972 0
1095 4.033417596220137 0.286984347972949 0
1096 5.918297583857644 0.2588109688214484 0
1097 1.333779093380016 0.2538251454773572 0
1098 6.426095496088867 0.5836599404240363 0
1099 3.223141571778776 2.478841364572548 0
1100 6.943610841003712 0.368638535640903 0
1101 3.078236961302288 0.4198291760471484 0
1102 1.819997020266782 0.2892956020121287 0
1103 2.88918716531044 1.85000078163539 0
1104 6.958720351769362 0.9096614998129282 0
$EndNodes
$Elements
2208
1 15 2 6 9 9
2 15 2 5 10 10
3 1 2 4 1 1 13
4 1 2 4 1 13 14
5 1 2 4 1 14 15
6 1 2 4 1 15 16
7 1 2 4 1 16 2
8 1 2 4 7 7 83
9 1 2 4 7 83 84
10 1 2 4 7 84 85
11 1 2 4 7 85 8
12 1 2 3 8 8 86
13 1 2 3 8 86 87
14 1 2 3 8 87 88
15 1 2 3 8 88 89
16 1 2 3 8 89 90
17 1 2 3 8 90 91
18 1 2 3 8 91 92
19 1 2 3 8 92 93
20 1 2 3 8 93 94
21 1 2 3 8 94 95
22 1 2 3 8 95 96
23 1 2 3 8 96 97
24 1 2 3 8 97 98
25 1 2 3 8 98 99
26 1 2 3 8 99 100
27 1 2 3 8 100 101
28 1 2 3 8 101 102
29 1 2 3 8 102 103
30 1 2 3 8 103 104
31 1 2 3 8 104 105
32 1 2 3 8 105 106
33 1 2 3 8 106 9
34 1 2 3 9 9 107
35 1 2 3 9 107 108
36 1 2 3 9 108 109
37 1 2 3 9 109 110
38 1 2 3 9 110 111
39 1 2 3 9 111 112
40 1 2 3 9 112 113
41 1 2 3 9 113 114
42 1 2 3 9 114 10
43 1 2 3 10 10 115
44 1 2 3 10 115 116
45 1 2 3 10 116 117
46 1 2 3 10 117 118
47 1 2 3 10 118 119
48 1 2 3 10 119 120
49 1 2 3 10 120 121
50 1 2 3 10 121 122
51 1 2 3 10 122 123
52 1 2 3 10 123 124
53 1 2 3 10 124 11
54 1 2 3 11 11 125
55 1 2 3 11 125 126
56 1 2 3 11 126 127
57 1 2 3 11 127 128
58 1 2 3 11 128 129
59 1 2 3 11 129 130
60 1 2 3 11 130 12
61 1 2 3 12 12 131
62 1 2 3 12 131 132
63 1 2 3 12 132 133
64 1 2 3 12 133 134
65 1 2 3 12 134 135
66 1 2 3 12 135 136
67 1 2 3 12 136 137
68 1 2 3 12 137 138
69 1 2 3 12 138 139
70 1 2 3 12 139 140
71 1 2 3 12 140 141
72 1 2 3 12 141 142
73 1 2 3 12 142 143
74 1 2 3 12 143 144
75 1 2 3 12 144 145
76 1 2 3 12 145 146
77 1 2 3 12 146 147
78 1 2 3 12 147 148
79 1 2 3 12 148 149
80 1 2 3 12 149 150
81 1 2 3 12 150 151
82 1 2 3 12 151 152
83 1 2 3 12 152 153
84 1 2 3 12 153 154
85 1 2 3 12 154 155
86 1 2 3 12 155 156
87 1 2 3 12 156 157
88 1 2 3 12 157 158
89 1 2 3 12 158 159
90 1 2 3 12 159 160
91 1 2 3 12 160 1
92 1 2 4 13 2 161
93 1 2 4 13 161 162
94 1 2 4 13 162 163
95 1 2 4 13 163 164
96 1 2 4 13 164 165
97 1 2 4 13 165 166
98 1 2 4 13 166 167
99 1 2 4 13 167 168
100 1 2 4 13 168 169
101 1 2 4 13 169 170
102 1 2 4 13 170 171
103 1 2 4 13 171 172
104 1 2 4 13 172 173
105 1 2 4 13 173 174
106 1 2 4 13 174 175
107 1 2 4 13 175 176
108 1 2 4 13 176 177
109 1 2 4 13 177 178
110 1 2 4 13 178 179
111 1 2 4 13 179 180
112 1 2 4 13 180 181
113 1 2 4 13 181 182
114 1 2 4 13 182 183
115 1 2 4 13 183 184
116 1 2 4 13 184 185
117 1 2 4 13 185 186
118 1 2 4 13 186 187
119 1 2 4 13 187 188
120 1 2 4 13 188 189
121 1 2 4 13 189 190
122 1 2 4 13 190 191
123 1 2 4 13 191 192
124 1 2 4 13 192 193
125 1 2 4 13 193 194
126 1 2 4 13 194 7
127 2 2 1 1 200 343 276
128 2 2 1 1 256 414 269
129 2 2 1 1 269 415 217
130 2 2 1 1 269 389 256
131 2 2 1 1 217 389 269
132 2 2 1 1 266 417 394
133 2 2 1 1 198 275 250
134 2 2 1 1 253 269 198
135 2 2 1 1 199 266 253
136 2 2 1 1 224 402 306
137 2 2 1 1 287 403 225
138 2 2 1 1 306 401 224
139 2 2 1 1 225 404 287
140 2 2 1 1 125 345 11
141 2 2 1 1 58 274 233
142 2 2 1 1 11 345 235
143 2 2 1 1 199 253 61
144 2 2 1 1 198 250 59
145 2 2 1 1 60 253 198
146 2 2 1 1 249 350 277
147 2 2 1 1 45 272 196
148 2 2 1 1 47 270 195
149 2 2 1 1 399 400 222
150 2 2 1 1 299 395 298
151 2 2 1 1 275 414 388
152 2 2 1 1 303 400 399
153 2 2 1 1 309 412 411
154 2 2 1 1 394 415 266
155 2 2 1 1 388 426 275
156 2 2 1 1 310 412 309
157 2 2 1 1 394 417 393
158 2 2 1 1 391 396 285
159 2 2 1 1 276 380 200
160 2 2 1 1 288 359 293
161 2 2 1 1 223 396 391
162 2 2 1 1 270 280 195
163 2 2 1 1 272 273 196
164 2 2 1 1 301 406 226
165 2 2 1 1 226 408 301
166 2 2 1 1 227 405 295
167 2 2 1 1 295 409 227
168 2 2 1 1 160 1 13
169 2 2 1 1 274 343 233
170 2 2 1 1 230 426 388
171 2 2 1 1 292 381 251
172 2 2 1 1 276 343 274
173 2 2 1 1 235 345 344
174 2 2 1 1 299 398 397
175 2 2 1 1 397 398 221
176 2 2 1 1 293 381 292
177 2 2 1 1 3 278 44
178 2 2 1 1 273 421 283
179 2 2 1 1 16 281 267
180 2 2 1 1 297 407 228
181 2 2 1 1 220 395 299
182 2 2 1 1 293 359 206
183 2 2 1 1 6 268 199
184 2 2 1 1 2 281 16
185 2 2 1 1 228 410 297
186 2 2 1 1 277 350 278
187 2 2 1 1 268 292 199
188 2 2 1 1 5 274 58
189 2 2 1 1 344 347 235
190 2 2 1 1 44 278 215
191 2 2 1 1 283 421 418
192 2 2 1 1 228 407 309
193 2 2 1 1 199 417 266
194 2 2 1 1 277 424 249
195 2 2 1 1 289 349 343
196 2 2 1 1 309 411 228
197 2 2 1 1 345 390 271
198 2 2 1 1 288 293 268
199 2 2 1 1 390 419 271
200 2 2 1 1 292 417 199
201 2 2 1 1 270 419 280
202 2 2 1 1 310 405 227
203 2 2 1 1 4 279 197
204 2 2 1 1 282 425 231
205 2 2 1 1 227 412 310
206 2 2 1 1 388 414 256
207 2 2 1 1 271 419 270
208 2 2 1 1 46 272 45
209 2 2 1 1 48 270 47
210 2 2 1 1 226 406 297
211 2 2 1 1 217 415 394
212 2 2 1 1 49 279 4
213 2 2 1 1 297 410 226
214 2 2 1 1 280 282 195
215 2 2 1 1 281 391 285
216 2 2 1 1 13 383 160
217 2 2 1 1 289 343 200
218 2 2 1 1 14 383 13
219 2 2 1 1 343 349 233
220 2 2 1 1 17 281 2
221 2 2 1 1 62 268 6
222 2 2 1 1 295 404 225
223 2 2 1 1 224 401 301
224 2 2 1 1 196 278 3
225 2 2 1 1 155 286 262
226 2 2 1 1 159 383 290
227 2 2 1 1 286 287 262
228 2 2 1 1 225 409 295
229 2 2 1 1 275 426 250
230 2 2 1 1 267 413 290
231 2 2 1 1 301 408 224
232 2 2 1 1 242 288 63
233 2 2 1 1 287 396 223
234 2 2 1 1 272 421 273
235 2 2 1 1 158 201 157
236 2 2 1 1 127 232 126
237 2 2 1 1 129 231 128
238 2 2 1 1 115 200 10
239 2 2 1 1 252 291 132
240 2 2 1 1 234 289 116
241 2 2 1 1 131 249 12
242 2 2 1 1 278 350 215
243 2 2 1 1 264 311 152
244 2 2 1 1 201 284 157
245 2 2 1 1 201 285 284
246 2 2 1 1 285 413 281
247 2 2 1 1 125 390 345
248 2 2 1 1 279 344 197
249 2 2 1 1 112 256 111
250 2 2 1 1 107 251 9
251 2 2 1 1 114 230 113
252 2 2 1 1 110 217 109
253 2 2 1 1 156 286 155
254 2 2 1 1 273 277 196
255 2 2 1 1 294 295 264
256 2 2 1 1 265 297 296
257 2 2 1 1 261 306 305
258 2 2 1 1 115 289 200
259 2 2 1 1 259 299 298
260 2 2 1 1 298 395 258
261 2 2 1 1 284 286 156
262 2 2 1 1 152 311 151
263 2 2 1 1 158 290 201
264 2 2 1 1 159 290 158
265 2 2 1 1 153 294 264
266 2 2 1 1 265 296 148
267 2 2 1 1 145 300 261
268 2 2 1 1 259 298 140
269 2 2 1 1 257 304 136
270 2 2 1 1 141 302 259
271 2 2 1 1 133 307 252
272 2 2 1 1 261 305 144
273 2 2 1 1 149 308 265
274 2 2 1 1 258 312 138
275 2 2 1 1 333 365 361
276 2 2 1 1 360 372 323
277 2 2 1 1 222 400 306
278 2 2 1 1 383 416 290
279 2 2 1 1 229 309 308
280 2 2 1 1 260 303 302
281 2 2 1 1 263 301 300
282 2 2 1 1 347 353 314
283 2 2 1 1 206 381 293
284 2 2 1 1 58 233 57
285 2 2 1 1 204 279 49
286 2 2 1 1 56 313 203
287 2 2 1 1 229 310 309
288 2 2 1 1 11 235 124
289 2 2 1 1 233 313 57
290 2 2 1 1 262 294 154
291 2 2 1 1 139 298 258
292 2 2 1 1 229 308 150
293 2 2 1 1 147 296 263
294 2 2 1 1 143 305 260
295 2 2 1 1 255 307 134
296 2 2 1 1 260 302 142
297 2 2 1 1 137 312 257
298 2 2 1 1 263 300 146
299 2 2 1 1 135 304 255
300 2 2 1 1 131 291 249
301 2 2 1 1 106 381 206
302 2 2 1 1 143 260 142
303 2 2 1 1 137 257 136
304 2 2 1 1 139 258 138
305 2 2 1 1 151 229 150
306 2 2 1 1 153 264 152
307 2 2 1 1 145 261 144
308 2 2 1 1 147 263 146
309 2 2 1 1 155 262 154
310 2 2 1 1 133 252 132
311 2 2 1 1 149 265 148
312 2 2 1 1 141 259 140
313 2 2 1 1 135 255 134
314 2 2 1 1 123 314 238
315 2 2 1 1 116 289 115
316 2 2 1 1 279 347 344
317 2 2 1 1 87 316 241
318 2 2 1 1 132 291 131
319 2 2 1 1 157 284 156
320 2 2 1 1 148 296 147
321 2 2 1 1 154 294 153
322 2 2 1 1 146 300 145
323 2 2 1 1 134 307 133
324 2 2 1 1 140 298 139
325 2 2 1 1 136 304 135
326 2 2 1 1 142 302 141
327 2 2 1 1 144 305 143
328 2 2 1 1 150 308 149
329 2 2 1 1 138 312 137
330 2 2 1 1 117 234 116
331 2 2 1 1 151 311 229
332 2 2 1 1 237 315 118
333 2 2 1 1 87 241 86
334 2 2 1 1 117 315 234
335 2 2 1 1 282 421 272
336 2 2 1 1 243 316 88
337 2 2 1 1 88 316 87
338 2 2 1 1 57 313 56
339 2 2 1 1 235 314 124
340 2 2 1 1 118 315 117
341 2 2 1 1 124 314 123
342 2 2 1 1 80 317 79
343 2 2 1 1 207 317 80
344 2 2 1 1 203 334 55
345 2 2 1 1 99 323 212
346 2 2 1 1 71 318 244
347 2 2 1 1 97 319 214
348 2 2 1 1 202 328 53
349 2 2 1 1 55 334 54
350 2 2 1 1 213 320 94
351 2 2 1 1 98 319 97
352 2 2 1 1 54 202 53
353 2 2 1 1 65 332 64
354 2 2 1 1 75 239 74
355 2 2 1 1 77 337 211
356 2 2 1 1 99 212 98
357 2 2 1 1 78 337 77
358 2 2 1 1 56 203 55
359 2 2 1 1 214 330 96
360 2 2 1 1 123 238 122
361 2 2 1 1 205 321 51
362 2 2 1 1 54 334 202
363 2 2 1 1 119 237 118
364 2 2 1 1 77 211 76
365 2 2 1 1 101 210 100
366 2 2 1 1 122 331 121
367 2 2 1 1 73 248 72
368 2 2 1 1 74 336 73
369 2 2 1 1 96 330 95
370 2 2 1 1 53 328 52
371 2 2 1 1 94 320 93
372 2 2 1 1 121 236 120
373 2 2 1 1 64 332 242
374 2 2 1 1 248 318 72
375 2 2 1 1 104 208 103
376 2 2 1 1 50 321 204
377 2 2 1 1 52 205 51
378 2 2 1 1 89 326 243
379 2 2 1 1 103 333 102
380 2 2 1 1 50 204 49
381 2 2 1 1 240 332 65
382 2 2 1 1 100 323 99
383 2 2 1 1 210 323 100
384 2 2 1 1 119 322 237
385 2 2 1 1 238 331 122
386 2 2 1 1 75 335 239
387 2 2 1 1 211 335 76
388 2 2 1 1 81 207 80
389 2 2 1 1 72 318 71
390 2 2 1 1 97 214 96
391 2 2 1 1 69 329 246
392 2 2 1 1 73 336 248
393 2 2 1 1 95 330 213
394 2 2 1 1 106 206 105
395 2 2 1 1 52 328 205
396 2 2 1 1 66 240 65
397 2 2 1 1 69 246 68
398 2 2 1 1 71 244 70
399 2 2 1 1 79 317 209
400 2 2 1 1 95 213 94
401 2 2 1 1 212 319 98
402 2 2 1 1 102 324 101
403 2 2 1 1 104 327 208
404 2 2 1 1 120 322 119
405 2 2 1 1 79 209 78
406 2 2 1 1 93 320 247
407 2 2 1 1 209 337 78
408 2 2 1 1 51 321 50
409 2 2 1 1 91 245 90
410 2 2 1 1 93 247 92
411 2 2 1 1 105 327 104
412 2 2 1 1 89 243 88
413 2 2 1 1 76 335 75
414 2 2 1 1 239 336 74
415 2 2 1 1 206 327 105
416 2 2 1 1 236 322 120
417 2 2 1 1 64 242 63
418 2 2 1 1 208 333 103
419 2 2 1 1 101 324 210
420 2 2 1 1 70 329 69
421 2 2 1 1 244 329 70
422 2 2 1 1 324 325 210
423 2 2 1 1 90 326 89
424 2 2 1 1 247 338 92
425 2 2 1 1 245 326 90
426 2 2 1 1 121 331 236
427 2 2 1 1 92 338 91
428 2 2 1 1 91 338 245
429 2 2 1 1 102 333 324
430 2 2 1 1 258 392 312
431 2 2 1 1 229 311 310
432 2 2 1 1 63 288 62
433 2 2 1 1 26 228 25
434 2 2 1 1 42 216 41
435 2 2 1 1 34 221 33
436 2 2 1 1 38 219 37
437 2 2 1 1 23 227 22
438 2 2 1 1 32 222 31
439 2 2 1 1 28 226 27
440 2 2 1 1 44 215 43
441 2 2 1 1 39 341 38
442 2 2 1 1 36 220 35
443 2 2 1 1 19 223 18
444 2 2 1 1 40 218 39
445 2 2 1 1 21 225 20
446 2 2 1 1 43 339 42
447 2 2 1 1 41 340 40
448 2 2 1 1 30 224 29
449 2 2 1 1 37 342 36
450 2 2 1 1 223 403 287
451 2 2 1 1 306 402 222
452 2 2 1 1 250 426 276
453 2 2 1 1 42 339 216
454 2 2 1 1 218 341 39
455 2 2 1 1 38 341 219
456 2 2 1 1 215 339 43
457 2 2 1 1 40 340 218
458 2 2 1 1 219 342 37
459 2 2 1 1 216 340 41
460 2 2 1 1 36 342 220
461 2 2 1 1 231 425 362
462 2 2 1 1 82 346 81
463 2 2 1 1 283 424 277
464 2 2 1 1 258 395 392
465 2 2 1 1 6 199 61
466 2 2 1 1 60 198 59
467 2 2 1 1 59 250 5
468 2 2 1 1 61 253 60
469 2 2 1 1 312 387 257
470 2 2 1 1 221 398 303
471 2 2 1 1 290 413 201
472 2 2 1 1 268 293 292
473 2 2 1 1 204 347 279
474 2 2 1 1 62 288 268
475 2 2 1 1 198 414 275
476 2 2 1 1 269 414 198
477 2 2 1 1 4 197 48
478 2 2 1 1 45 196 3
479 2 2 1 1 47 195 46
480 2 2 1 1 204 353 347
481 2 2 1 1 253 415 269
482 2 2 1 1 286 396 287
483 2 2 1 1 235 347 314
484 2 2 1 1 266 415 253
485 2 2 1 1 257 386 304
486 2 2 1 1 16 267 15
487 2 2 1 1 361 365 240
488 2 2 1 1 246 372 360
489 2 2 1 1 312 392 387
490 2 2 1 1 276 426 380
491 2 2 1 1 291 379 350
492 2 2 1 1 160 383 159
493 2 2 1 1 130 424 283
494 2 2 1 1 231 421 282
495 2 2 1 1 303 399 221
496 2 2 1 1 197 270 48
497 2 2 1 1 195 272 46
498 2 2 1 1 210 360 323
499 2 2 1 1 333 361 324
500 2 2 1 1 66 377 240
501 2 2 1 1 246 378 68
502 2 2 1 1 291 350 249
503 2 2 1 1 273 283 277
504 2 2 1 1 304 385 255
505 2 2 1 1 257 387 386
506 2 2 1 1 277 278 196
507 2 2 1 1 250 274 5
508 2 2 1 1 234 349 289
509 2 2 1 1 287 404 262
510 2 2 1 1 259 398 299
511 2 2 1 1 261 401 306
512 2 2 1 1 81 346 207
513 2 2 1 1 250 276 274
514 2 2 1 1 359 364 327
515 2 2 1 1 195 282 272
516 2 2 1 1 349 352 313
517 2 2 1 1 197 271 270
518 2 2 1 1 265 407 297
519 2 2 1 1 242 359 288
520 2 2 1 1 197 344 271
521 2 2 1 1 295 405 264
522 2 2 1 1 311 405 310
523 2 2 1 1 303 398 302
524 2 2 1 1 281 413 267
525 2 2 1 1 252 379 291
526 2 2 1 1 260 400 303
527 2 2 1 1 306 400 305
528 2 2 1 1 233 349 313
529 2 2 1 1 255 384 307
530 2 2 1 1 294 404 295
531 2 2 1 1 263 406 301
532 2 2 1 1 301 401 300
533 2 2 1 1 304 386 385
534 2 2 1 1 297 406 296
535 2 2 1 1 309 407 308
536 2 2 1 1 232 425 280
537 2 2 1 1 344 345 271
538 2 2 1 1 234 352 349
539 2 2 1 1 307 382 252
540 2 2 1 1 223 391 18
541 2 2 1 1 299 397 220
542 2 2 1 1 283 418 130
543 2 2 1 1 85 348 84
544 2 2 1 1 350 379 215
545 2 2 1 1 127 362 232
546 2 2 1 1 231 362 128
547 2 2 1 1 285 396 284
548 2 2 1 1 242 364 359
549 2 2 1 1 313 352 203
550 2 2 1 1 84 254 83
551 2 2 1 1 206 359 327
552 2 2 1 1 114 380 230
553 2 2 1 1 315 354 352
554 2 2 1 1 255 385 384
555 2 2 1 1 315 352 234
556 2 2 1 1 34 397 221
557 2 2 1 1 220 397 35
558 2 2 1 1 316 351 241
559 2 2 1 1 314 353 238
560 2 2 1 1 17 391 281
561 2 2 1 1 321 358 353
562 2 2 1 1 221 399 33
563 2 2 1 1 32 399 222
564 2 2 1 1 316 363 351
565 2 2 1 1 352 354 203
566 2 2 1 1 351 363 207
567 2 2 1 1 222 402 31
568 2 2 1 1 30 402 224
569 2 2 1 1 353 358 238
570 2 2 1 1 237 354 315
571 2 2 1 1 19 403 223
572 2 2 1 1 225 403 20
573 2 2 1 1 321 353 204
574 2 2 1 1 354 356 334
575 2 2 1 1 224 408 29
576 2 2 1 1 28 408 226
577 2 2 1 1 21 409 225
578 2 2 1 1 227 409 22
579 2 2 1 1 237 356 354
580 2 2 1 1 203 354 334
581 2 2 1 1 26 410 228
582 2 2 1 1 226 410 27
583 2 2 1 1 228 411 25
584 2 2 1 1 23 412 227
585 2 2 1 1 355 357 328
586 2 2 1 1 236 357 355
587 2 2 1 1 202 355 328
588 2 2 1 1 322 356 237
589 2 2 1 1 331 357 236
590 2 2 1 1 236 355 322
591 2 2 1 1 238 358 331
592 2 2 1 1 328 357 205
593 2 2 1 1 331 358 357
594 2 2 1 1 205 358 321
595 2 2 1 1 334 356 202
596 2 2 1 1 202 356 355
597 2 2 1 1 355 356 322
598 2 2 1 1 357 358 205
599 2 2 1 1 307 384 382
600 2 2 1 1 360 378 246
601 2 2 1 1 240 377 361
602 2 2 1 1 325 360 210
603 2 2 1 1 324 361 325
604 2 2 1 1 380 426 230
605 2 2 1 1 243 363 316
606 2 2 1 1 86 422 8
607 2 2 1 1 10 380 114
608 2 2 1 1 243 366 363
609 2 2 1 1 363 366 317
610 2 2 1 1 207 363 317
611 2 2 1 1 377 378 325
612 2 2 1 1 213 374 370
613 2 2 1 1 247 371 368
614 2 2 1 1 372 375 212
615 2 2 1 1 368 371 335
616 2 2 1 1 370 374 336
617 2 2 1 1 368 369 338
618 2 2 1 1 373 376 214
619 2 2 1 1 329 375 372
620 2 2 1 1 214 376 330
621 2 2 1 1 319 375 373
622 2 2 1 1 213 370 320
623 2 2 1 1 338 369 245
624 2 2 1 1 326 366 243
625 2 2 1 1 319 373 214
626 2 2 1 1 329 372 246
627 2 2 1 1 212 375 319
628 2 2 1 1 240 365 332
629 2 2 1 1 245 367 326
630 2 2 1 1 332 365 364
631 2 2 1 1 332 364 242
632 2 2 1 1 245 369 367
633 2 2 1 1 335 371 239
634 2 2 1 1 211 369 368
635 2 2 1 1 247 368 338
636 2 2 1 1 336 374 248
637 2 2 1 1 364 365 208
638 2 2 1 1 211 368 335
639 2 2 1 1 326 367 366
640 2 2 1 1 327 364 208
641 2 2 1 1 208 365 333
642 2 2 1 1 318 376 373
643 2 2 1 1 323 372 212
644 2 2 1 1 317 366 209
645 2 2 1 1 318 373 244
646 2 2 1 1 337 369 211
647 2 2 1 1 373 375 244
648 2 2 1 1 330 374 213
649 2 2 1 1 239 370 336
650 2 2 1 1 320 371 247
651 2 2 1 1 209 367 337
652 2 2 1 1 366 367 209
653 2 2 1 1 244 375 329
654 2 2 1 1 248 376 318
655 2 2 1 1 367 369 337
656 2 2 1 1 239 371 370
657 2 2 1 1 330 376 374
658 2 2 1 1 370 371 320
659 2 2 1 1 374 376 248
660 2 2 1 1 67 378 377
661 2 2 1 1 67 377 66
662 2 2 1 1 68 378 67
663 2 2 1 1 7 423 82
664 2 2 1 1 9 381 106
665 2 2 1 1 128 362 127
666 2 2 1 1 200 380 10
667 2 2 1 1 252 382 379
668 2 2 1 1 346 351 207
669 2 2 1 1 12 424 130
670 2 2 1 1 215 379 339
671 2 2 1 1 346 423 254
672 2 2 1 1 82 423 346
673 2 2 1 1 251 381 9
674 2 2 1 1 379 382 339
675 2 2 1 1 126 390 125
676 2 2 1 1 339 382 216
677 2 2 1 1 280 419 232
678 2 2 1 1 15 416 14
679 2 2 1 1 232 390 126
680 2 2 1 1 290 416 267
681 2 2 1 1 107 393 251
682 2 2 1 1 112 388 256
683 2 2 1 1 216 384 340
684 2 2 1 1 256 389 111
685 2 2 1 1 382 384 216
686 2 2 1 1 230 388 113
687 2 2 1 1 110 389 217
688 2 2 1 1 217 394 109
689 2 2 1 1 84 348 254
690 2 2 1 1 340 385 218
691 2 2 1 1 384 385 340
692 2 2 1 1 325 378 360
693 2 2 1 1 361 377 325
694 2 2 1 1 130 418 129
695 2 2 1 1 218 386 341
696 2 2 1 1 385 386 218
697 2 2 1 1 280 425 282
698 2 2 1 1 18 391 17
699 2 2 1 1 108 393 107
700 2 2 1 1 113 388 112
701 2 2 1 1 111 389 110
702 2 2 1 1 341 387 219
703 2 2 1 1 109 394 108
704 2 2 1 1 386 387 341
705 2 2 1 1 284 396 286
706 2 2 1 1 302 398 259
707 2 2 1 1 219 392 342
708 2 2 1 1 387 392 219
709 2 2 1 1 264 405 311
710 2 2 1 1 8 422 85
711 2 2 1 1 342 395 220
712 2 2 1 1 35 397 34
713 2 2 1 1 392 395 342
714 2 2 1 1 83 423 7
715 2 2 1 1 300 401 261
716 2 2 1 1 305 400 260
717 2 2 1 1 241 422 86
718 2 2 1 1 308 407 265
719 2 2 1 1 33 399 32
720 2 2 1 1 262 404 294
721 2 2 1 1 296 406 263
722 2 2 1 1 31 402 30
723 2 2 1 1 20 403 19
724 2 2 1 1 29 408 28
725 2 2 1 1 22 409 21
726 2 2 1 1 27 410 26
727 2 2 1 1 251 417 292
728 2 2 1 1 25 411 24
729 2 2 1 1 24 412 23
730 2 2 1 1 201 413 285
731 2 2 1 1 411 412 24
732 2 2 1 1 267 416 15
733 2 2 1 1 362 425 232
734 2 2 1 1 254 420 346
735 2 2 1 1 129 418 231
736 2 2 1 1 14 416 383
737 2 2 1 1 348 422 241
738 2 2 1 1 249 424 12
739 2 2 1 1 108 394 393
740 2 2 1 1 346 420 351
741 2 2 1 1 393 417 251
742 2 2 1 1 418 421 231
743 2 2 1 1 351 420 241
744 2 2 1 1 232 419 390
745 2 2 1 1 241 420 348
746 2 2 1 1 85 422 348
747 2 2 1 1 254 423 83
748 2 2 1 1 348 420 254
749 2 2 2 2 457 905 803
750 2 2 2 2 771 1026 1010
751 2 2 2 2 767 768 443
752 2 2 2 2 814 838 456
753 2 2 2 2 803 1048 457
754 2 2 2 2 746 913 430
755 2 2 2 2 981 1022 743
756 2 2 2 2 743 1022 896
757 2 2 2 2 456 1063 814
758 2 2 2 2 870 1039 448
759 2 2 2 2 766 767 443
760 2 2 2 2 697 757 699
761 2 2 2 2 982 1039 870
762 2 2 2 2 66 756 67
763 2 2 2 2 876 955 875
764 2 2 2 2 430 1045 746
765 2 2 2 2 903 1037 917
766 2 2 2 2 917 1044 903
767 2 2 2 2 807 1028 907
768 2 2 2 2 1010 1026 595
769 2 2 2 2 754 918 434
770 2 2 2 2 822 958 468
771 2 2 2 2 751 757 433
772 2 2 2 2 433 756 751
773 2 2 2 2 907 1048 807
774 2 2 2 2 955 1058 875
775 2 2 2 2 884 948 733
776 2 2 2 2 26 784 27
777 2 2 2 2 67 756 433
778 2 2 2 2 860 1020 741
779 2 2 2 2 747 757 697
780 2 2 2 2 699 757 751
781 2 2 2 2 771 1010 773
782 2 2 2 2 445 784 26
783 2 2 2 2 754 1074 918
784 2 2 2 2 49 1032 809
785 2 2 2 2 908 1042 744
786 2 2 2 2 883 977 881
787 2 2 2 2 883 1013 774
788 2 2 2 2 741 1069 860
789 2 2 2 2 66 820 756
790 2 2 2 2 770 1025 768
791 2 2 2 2 822 1000 958
792 2 2 2 2 809 1079 49
793 2 2 2 2 917 1037 714
794 2 2 2 2 175 853 174
795 2 2 2 2 454 1056 753
796 2 2 2 2 884 1058 948
797 2 2 2 2 753 1070 454
798 2 2 2 2 744 1063 908
799 2 2 2 2 820 965 752
800 2 2 2 2 920 1034 719
801 2 2 2 2 714 1090 917
802 2 2 2 2 865 1023 868
803 2 2 2 2 719 1103 920
804 2 2 2 2 977 1072 881
805 2 2 2 2 910 992 965
806 2 2 2 2 1025 1068 768
807 2 2 2 2 846 1015 845
808 2 2 2 2 774 1043 883
809 2 2 2 2 911 1071 867
810 2 2 2 2 873 1032 446
811 2 2 2 2 68 779 69
812 2 2 2 2 773 1043 774
813 2 2 2 2 670 1006 720
814 2 2 2 2 865 866 808
815 2 2 2 2 439 782 780
816 2 2 2 2 816 1051 440
817 2 2 2 2 867 912 911
818 2 2 2 2 161 17 2
819 2 2 2 2 756 820 752
820 2 2 2 2 446 1087 873
821 2 2 2 2 907 1028 438
822 2 2 2 2 765 909 458
823 2 2 2 2 748 1095 872
824 2 2 2 2 866 1028 808
825 2 2 2 2 457 1048 907
826 2 2 2 2 808 1023 865
827 2 2 2 2 773 1065 1043
828 2 2 2 2 872 1046 748
829 2 2 2 2 174 853 852
830 2 2 2 2 767 769 768
831 2 2 2 2 880 943 659
832 2 2 2 2 826 937 461
833 2 2 2 2 468 1097 822
834 2 2 2 2 448 1049 870
835 2 2 2 2 436 853 175
836 2 2 2 2 844 845 739
837 2 2 2 2 843 844 739
838 2 2 2 2 675 835 676
839 2 2 2 2 442 823 755
840 2 2 2 2 965 992 752
841 2 2 2 2 1015 1084 845
842 2 2 2 2 747 1092 757
843 2 2 2 2 172 849 171
844 2 2 2 2 433 779 68
845 2 2 2 2 69 779 455
846 2 2 2 2 427 1042 908
847 2 2 2 2 910 965 755
848 2 2 2 2 954 1088 749
849 2 2 2 2 755 965 442
850 2 2 2 2 441 851 850
851 2 2 2 2 720 1006 835
852 2 2 2 2 757 1092 779
853 2 2 2 2 440 1057 816
854 2 2 2 2 747 1077 898
855 2 2 2 2 867 1071 866
856 2 2 2 2 439 1064 782
857 2 2 2 2 852 853 742
858 2 2 2 2 441 850 849
859 2 2 2 2 851 852 742
860 2 2 2 2 63 823 64
861 2 2 2 2 171 849 847
862 2 2 2 2 733 1046 884
863 2 2 2 2 1021 1033 953
864 2 2 2 2 536 1009 551
865 2 2 2 2 444 846 845
866 2 2 2 2 765 1075 909
867 2 2 2 2 712 1006 670
868 2 2 2 2 753 1056 428
869 2 2 2 2 444 845 844
870 2 2 2 2 777 834 551
871 2 2 2 2 6 471 62
872 2 2 2 2 812 814 745
873 2 2 2 2 746 1047 913
874 2 2 2 2 720 834 777
875 2 2 2 2 745 817 812
876 2 2 2 2 914 1045 430
877 2 2 2 2 898 1092 747
878 2 2 2 2 428 1066 753
879 2 2 2 2 441 849 172
880 2 2 2 2 676 835 719
881 2 2 2 2 171 847 170
882 2 2 2 2 834 835 675
883 2 2 2 2 58 1039 5
884 2 2 2 2 868 1023 591
885 2 2 2 2 578 1017 1016
886 2 2 2 2 434 1040 754
887 2 2 2 2 811 817 594
888 2 2 2 2 174 852 173
889 2 2 2 2 442 965 820
890 2 2 2 2 64 823 442
891 2 2 2 2 526 1004 534
892 2 2 2 2 853 1069 742
893 2 2 2 2 757 779 433
894 2 2 2 2 551 1009 777
895 2 2 2 2 431 1079 799
896 2 2 2 2 742 1069 741
897 2 2 2 2 891 1102 449
898 2 2 2 2 44 440 3
899 2 2 2 2 792 815 813
900 2 2 2 2 453 823 63
901 2 2 2 2 958 1000 463
902 2 2 2 2 784 1064 27
903 2 2 2 2 776 982 940
904 2 2 2 2 515 999 521
905 2 2 2 2 812 817 811
906 2 2 2 2 796 798 797
907 2 2 2 2 767 775 769
908 2 2 2 2 170 847 444
909 2 2 2 2 908 1063 456
910 2 2 2 2 769 770 768
911 2 2 2 2 594 978 811
912 2 2 2 2 472 940 474
913 2 2 2 2 173 852 441
914 2 2 2 2 1016 1017 801
915 2 2 2 2 445 1038 784
916 2 2 2 2 466 1083 798
917 2 2 2 2 5 1039 469
918 2 2 2 2 776 940 472
919 2 2 2 2 791 796 790
920 2 2 2 2 810 1021 591
921 2 2 2 2 914 1099 1045
922 2 2 2 2 875 1058 884
923 2 2 2 2 534 1004 819
924 2 2 2 2 815 816 813
925 2 2 2 2 703 989 931
926 2 2 2 2 785 786 570
927 2 2 2 2 789 790 788
928 2 2 2 2 836 1008 829
929 2 2 2 2 788 815 792
930 2 2 2 2 786 789 788
931 2 2 2 2 786 788 787
932 2 2 2 2 716 871 817
933 2 2 2 2 720 835 834
934 2 2 2 2 880 1072 943
935 2 2 2 2 841 997 840
936 2 2 2 2 444 847 846
937 2 2 2 2 568 978 594
938 2 2 2 2 951 959 601
939 2 2 2 2 789 791 790
940 2 2 2 2 797 816 815
941 2 2 2 2 456 838 43
942 2 2 2 2 591 1023 810
943 2 2 2 2 521 999 892
944 2 2 2 2 827 942 783
945 2 2 2 2 786 973 789
946 2 2 2 2 578 785 562
947 2 2 2 2 796 797 790
948 2 2 2 2 791 873 796
949 2 2 2 2 471 472 453
950 2 2 2 2 786 787 570
951 2 2 2 2 441 852 851
952 2 2 2 2 533 1009 536
953 2 2 2 2 471 776 472
954 2 2 2 2 601 959 842
955 2 2 2 2 465 822 821
956 2 2 2 2 564 570 566
957 2 2 2 2 716 817 745
958 2 2 2 2 828 942 827
959 2 2 2 2 1006 1103 719
960 2 2 2 2 723 961 818
961 2 2 2 2 842 932 601
962 2 2 2 2 564 785 570
963 2 2 2 2 817 871 594
964 2 2 2 2 631 974 599
965 2 2 2 2 931 989 512
966 2 2 2 2 769 771 770
967 2 2 2 2 749 1053 954
968 2 2 2 2 810 1033 1021
969 2 2 2 2 840 997 524
970 2 2 2 2 829 1008 537
971 2 2 2 2 841 890 702
972 2 2 2 2 607 828 608
973 2 2 2 2 465 821 164
974 2 2 2 2 442 820 65
975 2 2 2 2 685 959 951
976 2 2 2 2 882 885 452
977 2 2 2 2 714 915 631
978 2 2 2 2 65 820 66
979 2 2 2 2 818 961 616
980 2 2 2 2 665 825 824
981 2 2 2 2 841 900 890
982 2 2 2 2 608 828 640
983 2 2 2 2 665 824 643
984 2 2 2 2 787 978 570
985 2 2 2 2 484 486 485
986 2 2 2 2 449 830 166
987 2 2 2 2 775 1098 606
988 2 2 2 2 765 837 722
989 2 2 2 2 967 972 694
990 2 2 2 2 788 792 787
991 2 2 2 2 578 973 785
992 2 2 2 2 486 487 485
993 2 2 2 2 837 854 722
994 2 2 2 2 824 826 740
995 2 2 2 2 551 834 833
996 2 2 2 2 755 823 473
997 2 2 2 2 847 848 846
998 2 2 2 2 679 932 842
999 2 2 2 2 163 821 470
1000 2 2 2 2 581 833 675
1001 2 2 2 2 829 1011 731
1002 2 2 2 2 429 885 879
1003 2 2 2 2 163 470 162
1004 2 2 2 2 890 900 615
1005 2 2 2 2 671 870 869
1006 2 2 2 2 879 885 882
1007 2 2 2 2 429 878 877
1008 2 2 2 2 429 879 878
1009 2 2 2 2 168 844 843
1010 2 2 2 2 167 843 449
1011 2 2 2 2 708 836 647
1012 2 2 2 2 558 833 581
1013 2 2 2 2 831 893 679
1014 2 2 2 2 818 972 967
1015 2 2 2 2 474 940 671
1016 2 2 2 2 607 942 828
1017 2 2 2 2 679 842 831
1018 2 2 2 2 429 877 183
1019 2 2 2 2 833 834 675
1020 2 2 2 2 612 893 626
1021 2 2 2 2 482 868 591
1022 2 2 2 2 789 973 793
1023 2 2 2 2 825 826 824
1024 2 2 2 2 661 740 738
1025 2 2 2 2 562 785 564
1026 2 2 2 2 915 974 631
1027 2 2 2 2 669 839 754
1028 2 2 2 2 486 488 487
1029 2 2 2 2 193 886 462
1030 2 2 2 2 165 830 465
1031 2 2 2 2 976 983 895
1032 2 2 2 2 717 888 887
1033 2 2 2 2 62 471 453
1034 2 2 2 2 818 967 723
1035 2 2 2 2 740 749 738
1036 2 2 2 2 864 869 867
1037 2 2 2 2 561 578 562
1038 2 2 2 2 643 824 661
1039 2 2 2 2 665 827 825
1040 2 2 2 2 527 855 681
1041 2 2 2 2 165 465 164
1042 2 2 2 2 729 1003 1001
1043 2 2 2 2 863 869 864
1044 2 2 2 2 640 665 643
1045 2 2 2 2 680 928 862
1046 2 2 2 2 858 860 436
1047 2 2 2 2 604 906 854
1048 2 2 2 2 647 836 649
1049 2 2 2 2 661 824 740
1050 2 2 2 2 543 857 541
1051 2 2 2 2 863 864 622
1052 2 2 2 2 626 893 831
1053 2 2 2 2 183 877 182
1054 2 2 2 2 451 875 874
1055 2 2 2 2 167 449 166
1056 2 2 2 2 680 862 861
1057 2 2 2 2 879 880 878
1058 2 2 2 2 480 868 482
1059 2 2 2 2 840 1002 730
1060 2 2 2 2 176 858 436
1061 2 2 2 2 961 968 681
1062 2 2 2 2 520 1004 526
1063 2 2 2 2 632 871 716
1064 2 2 2 2 680 861 504
1065 2 2 2 2 444 844 169
1066 2 2 2 2 620 854 664
1067 2 2 2 2 542 932 544
1068 2 2 2 2 581 627 582
1069 2 2 2 2 478 863 622
1070 2 2 2 2 588 893 612
1071 2 2 2 2 864 865 622
1072 2 2 2 2 546 857 543
1073 2 2 2 2 717 887 633
1074 2 2 2 2 771 772 770
1075 2 2 2 2 178 872 450
1076 2 2 2 2 164 821 163
1077 2 2 2 2 640 828 665
1078 2 2 2 2 558 581 572
1079 2 2 2 2 538 855 527
1080 2 2 2 2 676 718 677
1081 2 2 2 2 168 843 167
1082 2 2 2 2 675 676 627
1083 2 2 2 2 633 887 634
1084 2 2 2 2 194 886 193
1085 2 2 2 2 664 854 837
1086 2 2 2 2 486 953 488
1087 2 2 2 2 856 857 546
1088 2 2 2 2 451 874 181
1089 2 2 2 2 581 582 572
1090 2 2 2 2 450 859 858
1091 2 2 2 2 811 978 787
1092 2 2 2 2 536 551 548
1093 2 2 2 2 718 780 677
1094 2 2 2 2 589 871 632
1095 2 2 2 2 650 839 669
1096 2 2 2 2 854 906 722
1097 2 2 2 2 170 444 169
1098 2 2 2 2 1011 1012 731
1099 2 2 2 2 709 900 841
1100 2 2 2 2 864 866 865
1101 2 2 2 2 452 885 185
1102 2 2 2 2 548 833 558
1103 2 2 2 2 676 677 627
1104 2 2 2 2 874 884 432
1105 2 2 2 2 646 900 709
1106 2 2 2 2 781 902 677
1107 2 2 2 2 781 942 902
1108 2 2 2 2 604 854 620
1109 2 2 2 2 166 830 165
1110 2 2 2 2 677 902 627
1111 2 2 2 2 709 730 708
1112 2 2 2 2 435 889 187
1113 2 2 2 2 669 754 712
1114 2 2 2 2 502 936 680
1115 2 2 2 2 601 932 542
1116 2 2 2 2 193 462 192
1117 2 2 2 2 859 860 858
1118 2 2 2 2 674 731 710
1119 2 2 2 2 875 884 874
1120 2 2 2 2 626 678 625
1121 2 2 2 2 674 829 731
1122 2 2 2 2 526 534 530
1123 2 2 2 2 581 675 627
1124 2 2 2 2 646 708 647
1125 2 2 2 2 551 833 548
1126 2 2 2 2 637 711 650
1127 2 2 2 2 626 703 678
1128 2 2 2 2 451 876 875
1129 2 2 2 2 646 709 708
1130 2 2 2 2 879 881 880
1131 2 2 2 2 560 856 546
1132 2 2 2 2 709 840 730
1133 2 2 2 2 671 869 863
1134 2 2 2 2 612 626 625
1135 2 2 2 2 173 441 172
1136 2 2 2 2 597 906 604
1137 2 2 2 2 582 902 607
1138 2 2 2 2 711 839 650
1139 2 2 2 2 887 888 711
1140 2 2 2 2 735 895 894
1141 2 2 2 2 771 773 772
1142 2 2 2 2 782 784 783
1143 2 2 2 2 678 727 702
1144 2 2 2 2 586 894 617
1145 2 2 2 2 504 861 506
1146 2 2 2 2 780 782 781
1147 2 2 2 2 649 674 667
1148 2 2 2 2 515 521 518
1149 2 2 2 2 612 625 613
1150 2 2 2 2 664 746 717
1151 2 2 2 2 169 844 168
1152 2 2 2 2 450 858 177
1153 2 2 2 2 617 818 616
1154 2 2 2 2 476 863 478
1155 2 2 2 2 676 719 718
1156 2 2 2 2 598 599 560
1157 2 2 2 2 629 646 645
1158 2 2 2 2 491 899 493
1159 2 2 2 2 500 901 498
1160 2 2 2 2 783 942 781
1161 2 2 2 2 613 890 615
1162 2 2 2 2 634 887 637
1163 2 2 2 2 671 863 476
1164 2 2 2 2 506 861 513
1165 2 2 2 2 661 738 737
1166 2 2 2 2 432 872 179
1167 2 2 2 2 474 671 476
1168 2 2 2 2 620 664 633
1169 2 2 2 2 894 895 617
1170 2 2 2 2 176 436 175
1171 2 2 2 2 180 874 432
1172 2 2 2 2 619 894 586
1173 2 2 2 2 831 832 703
1174 2 2 2 2 506 513 509
1175 2 2 2 2 630 631 599
1176 2 2 2 2 556 679 577
1177 2 2 2 2 493 899 496
1178 2 2 2 2 586 616 554
1179 2 2 2 2 588 612 611
1180 2 2 2 2 502 680 504
1181 2 2 2 2 615 900 629
1182 2 2 2 2 658 896 714
1183 2 2 2 2 664 717 633
1184 2 2 2 2 178 450 177
1185 2 2 2 2 184 885 429
1186 2 2 2 2 632 715 652
1187 2 2 2 2 191 443 190
1188 2 2 2 2 598 630 599
1189 2 2 2 2 599 856 560
1190 2 2 2 2 616 961 855
1191 2 2 2 2 640 643 642
1192 2 2 2 2 62 453 63
1193 2 2 2 2 554 855 538
1194 2 2 2 2 589 632 596
1195 2 2 2 2 186 889 452
1196 2 2 2 2 180 432 179
1197 2 2 2 2 637 887 711
1198 2 2 2 2 586 617 616
1199 2 2 2 2 522 901 500
1200 2 2 2 2 743 896 658
1201 2 2 2 2 658 714 631
1202 2 2 2 2 674 710 667
1203 2 2 2 2 182 451 181
1204 2 2 2 2 649 836 674
1205 2 2 2 2 511 999 515
1206 2 2 2 2 664 837 746
1207 2 2 2 2 849 850 848
1208 2 2 2 2 527 681 522
1209 2 2 2 2 678 702 625
1210 2 2 2 2 616 855 554
1211 2 2 2 2 71 897 428
1212 2 2 2 2 726 922 656
1213 2 2 2 2 646 647 645
1214 2 2 2 2 630 658 631
1215 2 2 2 2 478 622 480
1216 2 2 2 2 703 931 678
1217 2 2 2 2 716 744 715
1218 2 2 2 2 669 712 670
1219 2 2 2 2 715 721 652
1220 2 2 2 2 184 429 183
1221 2 2 2 2 632 652 596
1222 2 2 2 2 182 877 451
1223 2 2 2 2 650 669 651
1224 2 2 2 2 186 452 185
1225 2 2 2 2 582 607 583
1226 2 2 2 2 496 899 724
1227 2 2 2 2 865 868 622
1228 2 2 2 2 482 591 484
1229 2 2 2 2 969 980 485
1230 2 2 2 2 188 435 187
1231 2 2 2 2 632 716 715
1232 2 2 2 2 643 661 660
1233 2 2 2 2 177 858 176
1234 2 2 2 2 496 724 579
1235 2 2 2 2 663 894 619
1236 2 2 2 2 537 1008 1005
1237 2 2 2 2 568 594 574
1238 2 2 2 2 558 572 571
1239 2 2 2 2 637 650 638
1240 2 2 2 2 553 554 538
1241 2 2 2 2 64 442 65
1242 2 2 2 2 681 901 522
1243 2 2 2 2 476 478 477
1244 2 2 2 2 612 613 611
1245 2 2 2 2 179 872 178
1246 2 2 2 2 629 900 646
1247 2 2 2 2 574 871 589
1248 2 2 2 2 622 868 480
1249 2 2 2 2 864 867 866
1250 2 2 2 2 734 735 663
1251 2 2 2 2 478 480 479
1252 2 2 2 2 668 743 658
1253 2 2 2 2 181 874 180
1254 2 2 2 2 185 885 184
1255 2 2 2 2 679 893 577
1256 2 2 2 2 882 883 881
1257 2 2 2 2 735 894 663
1258 2 2 2 2 455 898 897
1259 2 2 2 2 187 889 186
1260 2 2 2 2 877 878 876
1261 2 2 2 2 594 871 574
1262 2 2 2 2 585 586 554
1263 2 2 2 2 626 831 703
1264 2 2 2 2 67 433 68
1265 2 2 2 2 455 897 70
1266 2 2 2 2 474 476 475
1267 2 2 2 2 627 902 582
1268 2 2 2 2 716 745 744
1269 2 2 2 2 548 558 557
1270 2 2 2 2 693 904 692
1271 2 2 2 2 536 548 547
1272 2 2 2 2 477 910 475
1273 2 2 2 2 662 663 619
1274 2 2 2 2 831 842 832
1275 2 2 2 2 732 734 663
1276 2 2 2 2 847 849 848
1277 2 2 2 2 69 455 70
1278 2 2 2 2 577 893 588
1279 2 2 2 2 620 633 621
1280 2 2 2 2 608 640 639
1281 2 2 2 2 721 765 722
1282 2 2 2 2 734 736 735
1283 2 2 2 2 533 536 535
1284 2 2 2 2 604 620 605
1285 2 2 2 2 696 904 693
1286 2 2 2 2 530 533 532
1287 2 2 2 2 478 479 477
1288 2 2 2 2 699 700 696
1289 2 2 2 2 526 530 529
1290 2 2 2 2 71 428 72
1291 2 2 2 2 476 477 475
1292 2 2 2 2 592 598 560
1293 2 2 2 2 634 637 636
1294 2 2 2 2 593 910 477
1295 2 2 2 2 544 932 556
1296 2 2 2 2 553 585 554
1297 2 2 2 2 520 526 525
1298 2 2 2 2 674 836 829
1299 2 2 2 2 680 936 928
1300 2 2 2 2 709 841 840
1301 2 2 2 2 723 968 961
1302 2 2 2 2 724 725 579
1303 2 2 2 2 518 520 519
1304 2 2 2 2 70 897 71
1305 2 2 2 2 780 781 677
1306 2 2 2 2 773 774 772
1307 2 2 2 2 700 904 696
1308 2 2 2 2 515 518 517
1309 2 2 2 2 597 604 603
1310 2 2 2 2 589 596 590
1311 2 2 2 2 662 732 663
1312 2 2 2 2 668 758 743
1313 2 2 2 2 480 482 481
1314 2 2 2 2 782 783 781
1315 2 2 2 2 630 668 658
1316 2 2 2 2 732 753 734
1317 2 2 2 2 509 511 510
1318 2 2 2 2 559 560 546
1319 2 2 2 2 511 515 514
1320 2 2 2 2 561 562 550
1321 2 2 2 2 585 619 586
1322 2 2 2 2 574 589 575
1323 2 2 2 2 506 509 508
1324 2 2 2 2 699 701 700
1325 2 2 2 2 50 431 51
1326 2 2 2 2 482 484 483
1327 2 2 2 2 662 903 732
1328 2 2 2 2 647 649 648
1329 2 2 2 2 721 722 652
1330 2 2 2 2 480 481 479
1331 2 2 2 2 625 890 613
1332 2 2 2 2 504 506 505
1333 2 2 2 2 649 667 666
1334 2 2 2 2 613 615 614
1335 2 2 2 2 51 905 52
1336 2 2 2 2 669 670 651
1337 2 2 2 2 615 629 628
1338 2 2 2 2 650 651 638
1339 2 2 2 2 879 882 881
1340 2 2 2 2 431 905 51
1341 2 2 2 2 568 574 569
1342 2 2 2 2 502 504 503
1343 2 2 2 2 488 549 516
1344 2 2 2 2 665 828 827
1345 2 2 2 2 451 877 876
1346 2 2 2 2 629 645 644
1347 2 2 2 2 539 553 538
1348 2 2 2 2 549 561 550
1349 2 2 2 2 483 552 481
1350 2 2 2 2 52 457 53
1351 2 2 2 2 73 454 74
1352 2 2 2 2 633 634 621
1353 2 2 2 2 596 906 597
1354 2 2 2 2 40 427 41
1355 2 2 2 2 41 908 42
1356 2 2 2 2 588 611 610
1357 2 2 2 2 577 588 587
1358 2 2 2 2 42 456 43
1359 2 2 2 2 637 638 636
1360 2 2 2 2 549 580 561
1361 2 2 2 2 556 577 576
1362 2 2 2 2 1002 1005 730
1363 2 2 2 2 692 726 656
1364 2 2 2 2 695 696 693
1365 2 2 2 2 620 621 605
1366 2 2 2 2 53 907 54
1367 2 2 2 2 479 593 477
1368 2 2 2 2 549 550 516
1369 2 2 2 2 604 605 603
1370 2 2 2 2 55 911 56
1371 2 2 2 2 552 921 481
1372 2 2 2 2 488 953 549
1373 2 2 2 2 52 905 457
1374 2 2 2 2 39 909 40
1375 2 2 2 2 596 597 590
1376 2 2 2 2 623 662 619
1377 2 2 2 2 566 568 567
1378 2 2 2 2 697 699 696
1379 2 2 2 2 582 583 572
1380 2 2 2 2 564 566 565
1381 2 2 2 2 499 502 501
1382 2 2 2 2 54 438 55
1383 2 2 2 2 545 546 543
1384 2 2 2 2 562 564 563
1385 2 2 2 2 751 752 701
1386 2 2 2 2 38 458 39
1387 2 2 2 2 482 483 481
1388 2 2 2 2 528 538 527
1389 2 2 2 2 682 903 662
1390 2 2 2 2 544 556 555
1391 2 2 2 2 540 601 542
1392 2 2 2 2 493 496 495
1393 2 2 2 2 562 563 550
1394 2 2 2 2 496 579 497
1395 2 2 2 2 56 912 57
1396 2 2 2 2 74 916 75
1397 2 2 2 2 540 951 601
1398 2 2 2 2 589 590 575
1399 2 2 2 2 484 485 483
1400 2 2 2 2 856 971 857
1401 2 2 2 2 427 908 41
1402 2 2 2 2 574 575 569
1403 2 2 2 2 457 907 53
1404 2 2 2 2 475 910 755
1405 2 2 2 2 37 913 38
1406 2 2 2 2 704 706 684
1407 2 2 2 2 42 908 456
1408 2 2 2 2 654 656 531
1409 2 2 2 2 488 516 489
1410 2 2 2 2 523 527 522
1411 2 2 2 2 702 890 625
1412 2 2 2 2 699 751 701
1413 2 2 2 2 652 906 596
1414 2 2 2 2 857 938 541
1415 2 2 2 2 630 935 668
1416 2 2 2 2 585 623 619
1417 2 2 2 2 481 921 479
1418 2 2 2 2 57 448 58
1419 2 2 2 2 40 909 427
1420 2 2 2 2 624 684 602
1421 2 2 2 2 695 698 697
1422 2 2 2 2 695 697 696
1423 2 2 2 2 550 924 516
1424 2 2 2 2 36 430 37
1425 2 2 2 2 657 692 656
1426 2 2 2 2 623 682 662
1427 2 2 2 2 530 532 529
1428 2 2 2 2 698 747 697
1429 2 2 2 2 518 519 517
1430 2 2 2 2 526 529 525
1431 2 2 2 2 816 1083 1051
1432 2 2 2 2 507 522 500
1433 2 2 2 2 710 713 667
1434 2 2 2 2 592 606 598
1435 2 2 2 2 613 614 611
1436 2 2 2 2 35 914 36
1437 2 2 2 2 725 928 579
1438 2 2 2 2 528 539 538
1439 2 2 2 2 647 648 645
1440 2 2 2 2 520 525 519
1441 2 2 2 2 688 963 957
1442 2 2 2 2 34 459 35
1443 2 2 2 2 599 974 856
1444 2 2 2 2 559 592 560
1445 2 2 2 2 509 510 508
1446 2 2 2 2 454 916 74
1447 2 2 2 2 678 931 727
1448 2 2 2 2 475 755 473
1449 2 2 2 2 751 756 752
1450 2 2 2 2 54 907 438
1451 2 2 2 2 75 437 76
1452 2 2 2 2 479 921 593
1453 2 2 2 2 536 547 535
1454 2 2 2 2 511 514 510
1455 2 2 2 2 33 918 34
1456 2 2 2 2 548 557 547
1457 2 2 2 2 558 571 557
1458 2 2 2 2 568 569 567
1459 2 2 2 2 698 983 976
1460 2 2 2 2 533 535 532
1461 2 2 2 2 438 911 55
1462 2 2 2 2 726 980 969
1463 2 2 2 2 515 517 514
1464 2 2 2 2 556 932 679
1465 2 2 2 2 957 963 573
1466 2 2 2 2 32 434 33
1467 2 2 2 2 901 949 498
1468 2 2 2 2 607 608 583
1469 2 2 2 2 657 693 692
1470 2 2 2 2 504 505 503
1471 2 2 2 2 902 942 607
1472 2 2 2 2 506 508 505
1473 2 2 2 2 749 750 738
1474 2 2 2 2 566 567 565
1475 2 2 2 2 673 707 635
1476 2 2 2 2 458 909 39
1477 2 2 2 2 722 906 652
1478 2 2 2 2 597 603 602
1479 2 2 2 2 564 565 563
1480 2 2 2 2 474 475 473
1481 2 2 2 2 606 935 598
1482 2 2 2 2 634 636 635
1483 2 2 2 2 911 912 56
1484 2 2 2 2 694 695 693
1485 2 2 2 2 683 915 682
1486 2 2 2 2 768 1068 443
1487 2 2 2 2 494 531 492
1488 2 2 2 2 759 760 758
1489 2 2 2 2 615 628 614
1490 2 2 2 2 640 642 639
1491 2 2 2 2 623 683 682
1492 2 2 2 2 657 694 693
1493 2 2 2 2 528 540 539
1494 2 2 2 2 624 705 704
1495 2 2 2 2 649 666 648
1496 2 2 2 2 629 644 628
1497 2 2 2 2 597 602 590
1498 2 2 2 2 502 503 501
1499 2 2 2 2 31 919 32
1500 2 2 2 2 598 935 630
1501 2 2 2 2 530 1014 533
1502 2 2 2 2 588 610 587
1503 2 2 2 2 624 704 684
1504 2 2 2 2 577 587 576
1505 2 2 2 2 705 892 728
1506 2 2 2 2 575 600 569
1507 2 2 2 2 832 989 703
1508 2 2 2 2 565 655 563
1509 2 2 2 2 634 635 621
1510 2 2 2 2 670 720 672
1511 2 2 2 2 492 922 490
1512 2 2 2 2 539 938 553
1513 2 2 2 2 496 497 495
1514 2 2 2 2 673 819 729
1515 2 2 2 2 563 924 550
1516 2 2 2 2 545 559 546
1517 2 2 2 2 556 576 555
1518 2 2 2 2 654 657 656
1519 2 2 2 2 38 913 458
1520 2 2 2 2 689 690 688
1521 2 2 2 2 30 460 31
1522 2 2 2 2 523 528 527
1523 2 2 2 2 603 624 602
1524 2 2 2 2 653 654 531
1525 2 2 2 2 540 541 539
1526 2 2 2 2 488 489 487
1527 2 2 2 2 705 728 704
1528 2 2 2 2 569 929 567
1529 2 2 2 2 553 926 585
1530 2 2 2 2 57 912 448
1531 2 2 2 2 916 917 437
1532 2 2 2 2 777 778 672
1533 2 2 2 2 684 934 602
1534 2 2 2 2 579 936 497
1535 2 2 2 2 764 767 766
1536 2 2 2 2 656 922 531
1537 2 2 2 2 643 660 642
1538 2 2 2 2 507 685 523
1539 2 2 2 2 29 925 30
1540 2 2 2 2 499 936 502
1541 2 2 2 2 668 759 758
1542 2 2 2 2 673 729 707
1543 2 2 2 2 507 523 522
1544 2 2 2 2 636 673 635
1545 2 2 2 2 430 913 37
1546 2 2 2 2 605 923 603
1547 2 2 2 2 497 498 495
1548 2 2 2 2 491 944 899
1549 2 2 2 2 75 916 437
1550 2 2 2 2 461 1053 826
1551 2 2 2 2 638 927 636
1552 2 2 2 2 614 943 611
1553 2 2 2 2 494 653 531
1554 2 2 2 2 78 447 79
1555 2 2 2 2 670 672 651
1556 2 2 2 2 928 936 579
1557 2 2 2 2 28 439 29
1558 2 2 2 2 687 688 584
1559 2 2 2 2 497 499 498
1560 2 2 2 2 648 948 645
1561 2 2 2 2 653 723 654
1562 2 2 2 2 493 495 494
1563 2 2 2 2 491 493 492
1564 2 2 2 2 508 512 505
1565 2 2 2 2 36 914 430
1566 2 2 2 2 540 542 541
1567 2 2 2 2 611 943 610
1568 2 2 2 2 499 500 498
1569 2 2 2 2 661 737 660
1570 2 2 2 2 583 956 572
1571 2 2 2 2 493 494 492
1572 2 2 2 2 587 618 576
1573 2 2 2 2 585 926 623
1574 2 2 2 2 499 501 500
1575 2 2 2 2 501 507 500
1576 2 2 2 2 459 914 35
1577 2 2 2 2 628 659 614
1578 2 2 2 2 531 922 492
1579 2 2 2 2 517 524 514
1580 2 2 2 2 655 924 563
1581 2 2 2 2 489 491 490
1582 2 2 2 2 553 938 926
1583 2 2 2 2 621 933 605
1584 2 2 2 2 542 543 541
1585 2 2 2 2 542 544 543
1586 2 2 2 2 491 492 490
1587 2 2 2 2 544 555 545
1588 2 2 2 2 761 762 760
1589 2 2 2 2 489 490 487
1590 2 2 2 2 645 948 644
1591 2 2 2 2 668 935 759
1592 2 2 2 2 544 545 543
1593 2 2 2 2 34 918 459
1594 2 2 2 2 624 923 705
1595 2 2 2 2 720 777 672
1596 2 2 2 2 603 923 624
1597 2 2 2 2 600 929 569
1598 2 2 2 2 559 595 592
1599 2 2 2 2 590 934 575
1600 2 2 2 2 666 748 733
1601 2 2 2 2 434 918 33
1602 2 2 2 2 666 733 648
1603 2 2 2 2 707 933 635
1604 2 2 2 2 529 537 525
1605 2 2 2 2 541 938 539
1606 2 2 2 2 600 930 929
1607 2 2 2 2 924 944 516
1608 2 2 2 2 25 445 26
1609 2 2 2 2 571 686 584
1610 2 2 2 2 516 944 489
1611 2 2 2 2 706 960 684
1612 2 2 2 2 673 927 819
1613 2 2 2 2 689 741 690
1614 2 2 2 2 636 927 673
1615 2 2 2 2 931 993 727
1616 2 2 2 2 623 926 683
1617 2 2 2 2 855 961 681
1618 2 2 2 2 602 934 590
1619 2 2 2 2 575 934 600
1620 2 2 2 2 79 952 80
1621 2 2 2 2 32 919 434
1622 2 2 2 2 497 936 499
1623 2 2 2 2 635 933 621
1624 2 2 2 2 689 742 741
1625 2 2 2 2 761 764 763
1626 2 2 2 2 659 943 614
1627 2 2 2 2 547 573 535
1628 2 2 2 2 565 939 655
1629 2 2 2 2 651 947 638
1630 2 2 2 2 567 939 565
1631 2 2 2 2 24 937 25
1632 2 2 2 2 686 691 687
1633 2 2 2 2 687 689 688
1634 2 2 2 2 605 933 923
1635 2 2 2 2 571 584 557
1636 2 2 2 2 733 948 648
1637 2 2 2 2 929 939 567
1638 2 2 2 2 524 997 995
1639 2 2 2 2 572 956 571
1640 2 2 2 2 460 919 31
1641 2 2 2 2 764 766 763
1642 2 2 2 2 507 941 685
1643 2 2 2 2 503 941 501
1644 2 2 2 2 528 951 540
1645 2 2 2 2 759 761 760
1646 2 2 2 2 549 953 580
1647 2 2 2 2 23 461 24
1648 2 2 2 2 685 951 523
1649 2 2 2 2 608 639 609
1650 2 2 2 2 686 687 584
1651 2 2 2 2 489 944 491
1652 2 2 2 2 80 467 81
1653 2 2 2 2 899 970 724
1654 2 2 2 2 501 941 507
1655 2 2 2 2 728 998 996
1656 2 2 2 2 726 969 922
1657 2 2 2 2 498 949 495
1658 2 2 2 2 778 947 672
1659 2 2 2 2 609 956 583
1660 2 2 2 2 576 946 555
1661 2 2 2 2 22 954 23
1662 2 2 2 2 523 951 528
1663 2 2 2 2 495 949 494
1664 2 2 2 2 638 947 927
1665 2 2 2 2 545 945 559
1666 2 2 2 2 494 949 653
1667 2 2 2 2 505 950 503
1668 2 2 2 2 30 925 460
1669 2 2 2 2 608 609 583
1670 2 2 2 2 555 945 545
1671 2 2 2 2 736 976 735
1672 2 2 2 2 21 463 22
1673 2 2 2 2 806 807 804
1674 2 2 2 2 672 947 651
1675 2 2 2 2 705 964 892
1676 2 2 2 2 738 891 737
1677 2 2 2 2 681 968 901
1678 2 2 2 2 724 975 725
1679 2 2 2 2 460 920 919
1680 2 2 2 2 512 950 505
1681 2 2 2 2 618 946 576
1682 2 2 2 2 688 957 584
1683 2 2 2 2 842 959 832
1684 2 2 2 2 761 763 762
1685 2 2 2 2 439 925 29
1686 2 2 2 2 559 945 595
1687 2 2 2 2 856 974 971
1688 2 2 2 2 644 955 628
1689 2 2 2 2 639 641 609
1690 2 2 2 2 684 960 934
1691 2 2 2 2 895 972 617
1692 2 2 2 2 934 960 600
1693 2 2 2 2 555 946 945
1694 2 2 2 2 628 955 659
1695 2 2 2 2 503 950 941
1696 2 2 2 2 790 815 788
1697 2 2 2 2 571 956 686
1698 2 2 2 2 20 958 21
1699 2 2 2 2 557 957 547
1700 2 2 2 2 447 952 79
1701 2 2 2 2 600 960 930
1702 2 2 2 2 993 995 727
1703 2 2 2 2 657 967 694
1704 2 2 2 2 584 957 557
1705 2 2 2 2 547 957 573
1706 2 2 2 2 606 962 935
1707 2 2 2 2 19 468 20
1708 2 2 2 2 723 967 654
1709 2 2 2 2 737 739 660
1710 2 2 2 2 25 937 445
1711 2 2 2 2 806 808 807
1712 2 2 2 2 686 966 691
1713 2 2 2 2 959 986 832
1714 2 2 2 2 690 963 688
1715 2 2 2 2 930 985 979
1716 2 2 2 2 761 962 764
1717 2 2 2 2 80 952 467
1718 2 2 2 2 928 985 862
1719 2 2 2 2 933 964 923
1720 2 2 2 2 461 937 24
1721 2 2 2 2 935 962 759
1722 2 2 2 2 472 474 473
1723 2 2 2 2 970 975 724
1724 2 2 2 2 707 964 933
1725 2 2 2 2 949 968 653
1726 2 2 2 2 901 968 949
1727 2 2 2 2 750 891 738
1728 2 2 2 2 785 973 786
1729 2 2 2 2 924 970 944
1730 2 2 2 2 23 954 461
1731 2 2 2 2 923 964 705
1732 2 2 2 2 463 954 22
1733 2 2 2 2 654 967 657
1734 2 2 2 2 805 810 806
1735 2 2 2 2 759 962 761
1736 2 2 2 2 938 971 926
1737 2 2 2 2 653 968 723
1738 2 2 2 2 944 970 899
1739 2 2 2 2 922 969 490
1740 2 2 2 2 671 940 870
1741 2 2 2 2 617 972 818
1742 2 2 2 2 802 805 804
1743 2 2 2 2 702 997 841
1744 2 2 2 2 805 806 804
1745 2 2 2 2 21 958 463
1746 2 2 2 2 792 813 812
1747 2 2 2 2 587 977 618
1748 2 2 2 2 490 969 487
1749 2 2 2 2 473 823 453
1750 2 2 2 2 655 970 924
1751 2 2 2 2 566 978 568
1752 2 2 2 2 694 983 695
1753 2 2 2 2 485 980 483
1754 2 2 2 2 975 979 725
1755 2 2 2 2 930 979 929
1756 2 2 2 2 986 989 832
1757 2 2 2 2 926 971 683
1758 2 2 2 2 857 971 938
1759 2 2 2 2 641 966 609
1760 2 2 2 2 735 976 895
1761 2 2 2 2 570 978 566
1762 2 2 2 2 802 804 803
1763 2 2 2 2 609 966 956
1764 2 2 2 2 468 958 20
1765 2 2 2 2 971 974 683
1766 2 2 2 2 956 966 686
1767 2 2 2 2 655 975 970
1768 2 2 2 2 895 983 972
1769 2 2 2 2 78 981 447
1770 2 2 2 2 802 803 800
1771 2 2 2 2 904 984 692
1772 2 2 2 2 683 974 915
1773 2 2 2 2 487 969 485
1774 2 2 2 2 443 1035 766
1775 2 2 2 2 939 975 655
1776 2 2 2 2 610 977 587
1777 2 2 2 2 979 985 725
1778 2 2 2 2 904 987 984
1779 2 2 2 2 972 983 694
1780 2 2 2 2 861 994 513
1781 2 2 2 2 795 801 800
1782 2 2 2 2 713 991 667
1783 2 2 2 2 700 987 904
1784 2 2 2 2 706 994 990
1785 2 2 2 2 801 802 800
1786 2 2 2 2 941 986 685
1787 2 2 2 2 701 988 700
1788 2 2 2 2 685 986 959
1789 2 2 2 2 666 991 748
1790 2 2 2 2 573 1018 1012
1791 2 2 2 2 470 1031 162
1792 2 2 2 2 929 979 939
1793 2 2 2 2 692 984 726
1794 2 2 2 2 939 979 975
1795 2 2 2 2 77 981 78
1796 2 2 2 2 483 980 552
1797 2 2 2 2 778 1014 1007
1798 2 2 2 2 509 998 511
1799 2 2 2 2 508 993 512
1800 2 2 2 2 752 992 701
1801 2 2 2 2 512 993 931
1802 2 2 2 2 700 988 987
1803 2 2 2 2 792 812 811
1804 2 2 2 2 1001 1003 521
1805 2 2 2 2 43 838 44
1806 2 2 2 2 695 983 698
1807 2 2 2 2 819 1007 534
1808 2 2 2 2 701 992 988
1809 2 2 2 2 995 997 727
1810 2 2 2 2 524 995 514
1811 2 2 2 2 725 985 928
1812 2 2 2 2 706 990 960
1813 2 2 2 2 984 987 552
1814 2 2 2 2 728 996 704
1815 2 2 2 2 789 793 791
1816 2 2 2 2 799 809 794
1817 2 2 2 2 996 998 513
1818 2 2 2 2 552 987 921
1819 2 2 2 2 813 814 812
1820 2 2 2 2 708 1008 836
1821 2 2 2 2 518 1003 520
1822 2 2 2 2 950 986 941
1823 2 2 2 2 985 990 862
1824 2 2 2 2 1005 1008 730
1825 2 2 2 2 524 1002 840
1826 2 2 2 2 990 994 862
1827 2 2 2 2 977 1043 618
1828 2 2 2 2 889 1013 452
1829 2 2 2 2 729 1001 707
1830 2 2 2 2 792 811 787
1831 2 2 2 2 987 988 921
1832 2 2 2 2 726 984 980
1833 2 2 2 2 921 988 593
1834 2 2 2 2 794 873 791
1835 2 2 2 2 793 794 791
1836 2 2 2 2 517 1002 524
1837 2 2 2 2 537 1011 829
1838 2 2 2 2 814 1063 745
1839 2 2 2 2 797 815 790
1840 2 2 2 2 950 989 986
1841 2 2 2 2 512 989 950
1842 2 2 2 2 980 984 552
1843 2 2 2 2 667 991 666
1844 2 2 2 2 799 1060 431
1845 2 2 2 2 537 1005 525
1846 2 2 2 2 988 992 593
1847 2 2 2 2 593 992 910
1848 2 2 2 2 960 990 930
1849 2 2 2 2 994 996 513
1850 2 2 2 2 795 800 799
1851 2 2 2 2 882 1013 883
1852 2 2 2 2 930 990 985
1853 2 2 2 2 883 1043 977
1854 2 2 2 2 927 1007 819
1855 2 2 2 2 892 1001 521
1856 2 2 2 2 809 873 794
1857 2 2 2 2 561 1017 578
1858 2 2 2 2 510 993 508
1859 2 2 2 2 964 1001 892
1860 2 2 2 2 529 1011 537
1861 2 2 2 2 778 1007 947
1862 2 2 2 2 862 994 861
1863 2 2 2 2 472 473 453
1864 2 2 2 2 721 1075 765
1865 2 2 2 2 510 995 993
1866 2 2 2 2 514 995 510
1867 2 2 2 2 946 1010 945
1868 2 2 2 2 573 1012 535
1869 2 2 2 2 795 799 794
1870 2 2 2 2 704 996 706
1871 2 2 2 2 727 997 702
1872 2 2 2 2 486 1021 953
1873 2 2 2 2 763 1041 762
1874 2 2 2 2 798 1062 466
1875 2 2 2 2 513 998 509
1876 2 2 2 2 998 999 511
1877 2 2 2 2 639 1015 641
1878 2 2 2 2 799 1079 809
1879 2 2 2 2 892 999 728
1880 2 2 2 2 1007 1014 534
1881 2 2 2 2 940 982 870
1882 2 2 2 2 973 1016 793
1883 2 2 2 2 793 795 794
1884 2 2 2 2 449 1102 830
1885 2 2 2 2 591 1021 484
1886 2 2 2 2 819 1004 729
1887 2 2 2 2 835 1006 719
1888 2 2 2 2 533 1014 1009
1889 2 2 2 2 1012 1018 731
1890 2 2 2 2 519 1002 517
1891 2 2 2 2 706 996 994
1892 2 2 2 2 521 1003 518
1893 2 2 2 2 1003 1004 520
1894 2 2 2 2 707 1001 964
1895 2 2 2 2 519 1005 1002
1896 2 2 2 2 888 1024 711
1897 2 2 2 2 525 1005 519
1898 2 2 2 2 793 1016 795
1899 2 2 2 2 437 1022 76
1900 2 2 2 2 730 1008 708
1901 2 2 2 2 947 1007 927
1902 2 2 2 2 534 1014 530
1903 2 2 2 2 822 1036 1000
1904 2 2 2 2 1000 1036 750
1905 2 2 2 2 777 1009 778
1906 2 2 2 2 578 1016 973
1907 2 2 2 2 659 1054 880
1908 2 2 2 2 728 999 998
1909 2 2 2 2 1027 1100 886
1910 2 2 2 2 810 1023 806
1911 2 2 2 2 188 1025 435
1912 2 2 2 2 452 1013 882
1913 2 2 2 2 532 1011 529
1914 2 2 2 2 463 1088 954
1915 2 2 2 2 77 1022 981
1916 2 2 2 2 945 1010 595
1917 2 2 2 2 532 1012 1011
1918 2 2 2 2 535 1012 532
1919 2 2 2 2 5 469 59
1920 2 2 2 2 729 1004 1003
1921 2 2 2 2 81 1027 82
1922 2 2 2 2 731 1018 710
1923 2 2 2 2 719 1034 718
1924 2 2 2 2 60 464 61
1925 2 2 2 2 905 1060 803
1926 2 2 2 2 642 1015 639
1927 2 2 2 2 4 1032 49
1928 2 2 2 2 1018 1019 710
1929 2 2 2 2 886 1100 1041
1930 2 2 2 2 830 1036 465
1931 2 2 2 2 763 1091 1041
1932 2 2 2 2 710 1019 713
1933 2 2 2 2 795 1016 801
1934 2 2 2 2 1019 1020 713
1935 2 2 2 2 827 1038 825
1936 2 2 2 2 801 1030 802
1937 2 2 2 2 580 1017 561
1938 2 2 2 2 462 1035 192
1939 2 2 2 2 714 1037 915
1940 2 2 2 2 963 1018 573
1941 2 2 2 2 458 1047 765
1942 2 2 2 2 191 1035 443
1943 2 2 2 2 826 1080 937
1944 2 2 2 2 963 1019 1018
1945 2 2 2 2 925 1034 460
1946 2 2 2 2 484 1021 486
1947 2 2 2 2 162 1031 161
1948 2 2 2 2 690 1020 1019
1949 2 2 2 2 690 1019 963
1950 2 2 2 2 741 1020 690
1951 2 2 2 2 953 1033 580
1952 2 2 2 2 682 1037 903
1953 2 2 2 2 1009 1014 778
1954 2 2 2 2 606 1061 775
1955 2 2 2 2 881 1072 880
1956 2 2 2 2 76 1022 77
1957 2 2 2 2 809 1032 873
1958 2 2 2 2 580 1033 1030
1959 2 2 2 2 991 1095 748
1960 2 2 2 2 711 1024 839
1961 2 2 2 2 806 1023 808
1962 2 2 2 2 1017 1030 801
1963 2 2 2 2 715 1042 721
1964 2 2 2 2 775 1026 769
1965 2 2 2 2 641 1029 966
1966 2 2 2 2 898 1077 736
1967 2 2 2 2 784 1038 783
1968 2 2 2 2 470 1073 1031
1969 2 2 2 2 48 446 4
1970 2 2 2 2 859 1095 991
1971 2 2 2 2 469 1039 982
1972 2 2 2 2 769 1026 771
1973 2 2 2 2 966 1029 691
1974 2 2 2 2 746 1045 717
1975 2 2 2 2 189 1025 188
1976 2 2 2 2 916 1044 917
1977 2 2 2 2 44 838 440
1978 2 2 2 2 920 1040 919
1979 2 2 2 2 1029 1101 691
1980 2 2 2 2 776 1082 464
1981 2 2 2 2 876 1054 955
1982 2 2 2 2 580 1030 1017
1983 2 2 2 2 873 1087 796
1984 2 2 2 2 889 1055 1013
1985 2 2 2 2 467 1027 81
1986 2 2 2 2 742 1050 851
1987 2 2 2 2 45 466 46
1988 2 2 2 2 437 1090 1022
1989 2 2 2 2 826 1053 740
1990 2 2 2 2 814 1057 838
1991 2 2 2 2 808 1028 807
1992 2 2 2 2 17 1031 18
1993 2 2 2 2 850 1101 1029
1994 2 2 2 2 850 1029 848
1995 2 2 2 2 884 1046 432
1996 2 2 2 2 798 1083 797
1997 2 2 2 2 449 1059 891
1998 2 2 2 2 802 1030 805
1999 2 2 2 2 689 1050 742
2000 2 2 2 2 1026 1061 595
2001 2 2 2 2 739 1059 843
2002 2 2 2 2 691 1050 687
2003 2 2 2 2 946 1065 1010
2004 2 2 2 2 804 1048 803
2005 2 2 2 2 428 1056 72
2006 2 2 2 2 73 1056 454
2007 2 2 2 2 845 1084 739
2008 2 2 2 2 816 1057 813
2009 2 2 2 2 880 1054 878
2010 2 2 2 2 1030 1033 805
2011 2 2 2 2 644 1058 955
2012 2 2 2 2 805 1033 810
2013 2 2 2 2 460 1034 920
2014 2 2 2 2 7 1076 194
2015 2 2 2 2 82 1076 7
2016 2 2 2 2 595 1061 592
2017 2 2 2 2 822 1097 821
2018 2 2 2 2 753 1066 734
2019 2 2 2 2 443 1068 190
2020 2 2 2 2 465 1036 822
2021 2 2 2 2 28 1064 439
2022 2 2 2 2 1013 1055 774
2023 2 2 2 2 471 1082 776
2024 2 2 2 2 192 1035 191
2025 2 2 2 2 1022 1090 896
2026 2 2 2 2 767 1098 775
2027 2 2 2 2 736 1077 976
2028 2 2 2 2 800 1060 799
2029 2 2 2 2 49 1079 50
2030 2 2 2 2 1010 1065 773
2031 2 2 2 2 825 1080 826
2032 2 2 2 2 903 1070 732
2033 2 2 2 2 872 1095 450
2034 2 2 2 2 896 1090 714
2035 2 2 2 2 839 1074 754
2036 2 2 2 2 765 1047 837
2037 2 2 2 2 764 1098 767
2038 2 2 2 2 897 1094 428
2039 2 2 2 2 610 1072 977
2040 2 2 2 2 19 1073 468
2041 2 2 2 2 161 1031 17
2042 2 2 2 2 739 1084 660
2043 2 2 2 2 782 1064 784
2044 2 2 2 2 3 1051 45
2045 2 2 2 2 915 1037 682
2046 2 2 2 2 606 1098 962
2047 2 2 2 2 698 1077 747
2048 2 2 2 2 919 1040 434
2049 2 2 2 2 783 1038 827
2050 2 2 2 2 870 1049 869
2051 2 2 2 2 737 1059 739
2052 2 2 2 2 446 1032 4
2053 2 2 2 2 886 1041 462
2054 2 2 2 2 754 1040 712
2055 2 2 2 2 1041 1091 462
2056 2 2 2 2 448 1039 58
2057 2 2 2 2 867 1049 912
2058 2 2 2 2 918 1074 459
2059 2 2 2 2 744 1042 715
2060 2 2 2 2 642 1084 1015
2061 2 2 2 2 641 1081 1029
2062 2 2 2 2 189 1068 1025
2063 2 2 2 2 432 1046 872
2064 2 2 2 2 749 1088 750
2065 2 2 2 2 713 1067 991
2066 2 2 2 2 717 1045 888
2067 2 2 2 2 454 1044 916
2068 2 2 2 2 748 1046 733
2069 2 2 2 2 1073 1097 468
2070 2 2 2 2 1029 1081 848
2071 2 2 2 2 991 1067 859
2072 2 2 2 2 860 1067 1020
2073 2 2 2 2 750 1088 1000
2074 2 2 2 2 869 1049 867
2075 2 2 2 2 866 1071 1028
2076 2 2 2 2 459 1074 1024
2077 2 2 2 2 837 1047 746
2078 2 2 2 2 925 1078 1034
2079 2 2 2 2 1045 1099 888
2080 2 2 2 2 1044 1070 903
2081 2 2 2 2 455 1092 898
2082 2 2 2 2 860 1069 436
2083 2 2 2 2 45 1051 466
2084 2 2 2 2 431 1060 905
2085 2 2 2 2 1000 1088 463
2086 2 2 2 2 954 1053 461
2087 2 2 2 2 459 1099 914
2088 2 2 2 2 440 1051 3
2089 2 2 2 2 913 1047 458
2090 2 2 2 2 428 1094 1066
2091 2 2 2 2 61 1082 6
2092 2 2 2 2 807 1048 804
2093 2 2 2 2 780 1078 439
2094 2 2 2 2 435 1055 889
2095 2 2 2 2 912 1049 448
2096 2 2 2 2 687 1050 689
2097 2 2 2 2 740 1053 749
2098 2 2 2 2 891 1059 737
2099 2 2 2 2 838 1057 440
2100 2 2 2 2 878 1054 876
2101 2 2 2 2 47 1052 48
2102 2 2 2 2 776 1086 982
2103 2 2 2 2 1038 1080 825
2104 2 2 2 2 439 1078 925
2105 2 2 2 2 774 1055 772
2106 2 2 2 2 72 1056 73
2107 2 2 2 2 955 1054 659
2108 2 2 2 2 736 1094 898
2109 2 2 2 2 750 1102 891
2110 2 2 2 2 948 1058 644
2111 2 2 2 2 6 1082 471
2112 2 2 2 2 843 1059 449
2113 2 2 2 2 813 1057 814
2114 2 2 2 2 1031 1073 18
2115 2 2 2 2 920 1103 1040
2116 2 2 2 2 1024 1099 459
2117 2 2 2 2 803 1060 800
2118 2 2 2 2 464 1082 61
2119 2 2 2 2 1034 1078 718
2120 2 2 2 2 592 1061 606
2121 2 2 2 2 46 1062 47
2122 2 2 2 2 745 1063 744
2123 2 2 2 2 464 1086 776
2124 2 2 2 2 27 1064 28
2125 2 2 2 2 618 1065 946
2126 2 2 2 2 435 1096 1055
2127 2 2 2 2 734 1066 736
2128 2 2 2 2 859 1067 860
2129 2 2 2 2 190 1068 189
2130 2 2 2 2 982 1086 469
2131 2 2 2 2 436 1069 853
2132 2 2 2 2 1055 1096 772
2133 2 2 2 2 797 1083 816
2134 2 2 2 2 796 1087 798
2135 2 2 2 2 1020 1067 713
2136 2 2 2 2 1027 1076 82
2137 2 2 2 2 762 1100 1085
2138 2 2 2 2 1042 1075 721
2139 2 2 2 2 1015 1081 641
2140 2 2 2 2 48 1052 446
2141 2 2 2 2 732 1070 753
2142 2 2 2 2 766 1091 763
2143 2 2 2 2 438 1071 911
2144 2 2 2 2 943 1072 610
2145 2 2 2 2 18 1073 19
2146 2 2 2 2 691 1101 1050
2147 2 2 2 2 194 1076 886
2148 2 2 2 2 909 1075 427
2149 2 2 2 2 1036 1102 750
2150 2 2 2 2 1051 1083 466
2151 2 2 2 2 718 1078 780
2152 2 2 2 2 50 1079 431
2153 2 2 2 2 775 1061 1026
2154 2 2 2 2 848 1081 846
2155 2 2 2 2 466 1062 46
2156 2 2 2 2 762 1085 760
2157 2 2 2 2 937 1080 445
2158 2 2 2 2 976 1077 698
2159 2 2 2 2 851 1101 850
2160 2 2 2 2 1025 1096 435
2161 2 2 2 2 830 1102 1036
2162 2 2 2 2 660 1084 642
2163 2 2 2 2 779 1092 455
2164 2 2 2 2 1040 1103 712
2165 2 2 2 2 462 1091 1035
2166 2 2 2 2 1085 1093 760
2167 2 2 2 2 952 1085 467
2168 2 2 2 2 846 1081 1015
2169 2 2 2 2 760 1093 758
2170 2 2 2 2 1093 1104 758
2171 2 2 2 2 821 1097 470
2172 2 2 2 2 917 1090 437
2173 2 2 2 2 952 1093 1085
2174 2 2 2 2 888 1099 1024
2175 2 2 2 2 447 1104 1093
2176 2 2 2 2 450 1095 859
2177 2 2 2 2 898 1094 897
2178 2 2 2 2 758 1104 743
2179 2 2 2 2 772 1096 770
2180 2 2 2 2 447 1093 952
2181 2 2 2 2 962 1098 764
2182 2 2 2 2 981 1104 447
2183 2 2 2 2 59 1089 60
2184 2 2 2 2 743 1104 981
2185 2 2 2 2 1085 1100 467
2186 2 2 2 2 1024 1074 839
2187 2 2 2 2 454 1070 1044
2188 2 2 2 2 1028 1071 438
2189 2 2 2 2 886 1076 1027
2190 2 2 2 2 445 1080 1038
2191 2 2 2 2 1043 1065 618
2192 2 2 2 2 470 1097 1073
2193 2 2 2 2 712 1103 1006
2194 2 2 2 2 469 1089 59
2195 2 2 2 2 60 1089 464
2196 2 2 2 2 1035 1091 766
2197 2 2 2 2 770 1096 1025
2198 2 2 2 2 47 1062 1052
2199 2 2 2 2 1052 1062 798
2200 2 2 2 2 1041 1100 762
2201 2 2 2 2 427 1075 1042
2202 2 2 2 2 467 1100 1027
2203 2 2 2 2 798 1087 1052
2204 2 2 2 2 1052 1087 446
2205 2 2 2 2 1086 1089 469
2206 2 2 2 2 464 1089 1086
2207 2 2 2 2 1050 1101 851
2208 2 2 2 2 1066 1094 736
$EndElements
