$MeshFormat
2.2 0 8
$EndMeshFormat
$PhysicalNames
6
0 5 "separation-inf"
0 6 "separation-sup"
1 3 "pressure"
1 4 "fixed"
2 1 "body"
2 2 "cover"
$EndPhysicalNames
$Nodes
734
1 0 0 0
2 0.06527036446661391 -1.301042606982605e-16 0
3 0.4040362663251333 0.4037254805883031 0
4 0.4754071150127369 0.4393096730951061 0
5 0.6780832021878531 0.4499314767377288 0
6 0.7306999999999999 0.4 0
7 0.7306999999999998 0 0
8 0.7806999999999999 0 0
9 0.7806999999999999 0.4 0
10 0.6754664043757063 0.4998629534754574 0
11 0.4727903172005901 0.4892411498328348 0
12 0.3657340441691846 0.4358648610726302 0
13 0.02175678815553795 0 0
14 0.04351357631107589 0 0
15 0.07999931672133226 0.01755328176470861 0
16 0.09472826897605052 0.03510656352941743 0
17 0.1094572212307687 0.05265984529412632 0
18 0.124186173485487 0.07021312705883515 0
19 0.1389151257402052 0.08776640882354403 0
20 0.1536440779949235 0.1053196905882529 0
21 0.1683730302496417 0.1228729723529617 0
22 0.1831019825043599 0.1404262541176706 0
23 0.1978309347590781 0.1579795358823794 0
24 0.2125598870137964 0.1755328176470882 0
25 0.2272888392685146 0.193086099411797 0
26 0.2420177915232327 0.2106393811765058 0
27 0.2567467437779509 0.2281926629412146 0
28 0.2714756960326691 0.2457459447059234 0
29 0.2862046482873873 0.2632992264706322 0
30 0.3009336005421055 0.280852508235341 0
31 0.3156625527968239 0.29840579000005 0
32 0.3303915050515422 0.3159590717647589 0
33 0.3451204573062605 0.3335123535294678 0
34 0.3598494095609788 0.3510656352941767 0
35 0.3745783618156969 0.3686189170588855 0
36 0.3893073140704152 0.3861721988235943 0
37 0.4187313157060478 0.4179784127077235 0
38 0.4360209293260504 0.4289401557798515 0
39 0.4551805158164786 0.4361513135110431 0
40 0.4979266802544164 0.440489873499842 0
41 0.520446245496096 0.4416700739045778 0
42 0.5429658107377755 0.4428502743093137 0
43 0.5654853759794551 0.4440304747140495 0
44 0.5880049412211348 0.4452106751187854 0
45 0.6105245064628143 0.4463908755235212 0
46 0.6330440717044939 0.4475710759282571 0
47 0.6555636369461734 0.4487512763329929 0
48 0.6980058528538748 0.4469095667961241 0
49 0.7151177287846878 0.4362687185506142 0
50 0.7266395605074449 0.4197371928192132 0
51 0.7306999999999999 0.3777777777777778 0
52 0.7306999999999999 0.3555555555555555 0
53 0.7306999999999999 0.3333333333333333 0
54 0.7306999999999999 0.3111111111111111 0
55 0.7306999999999999 0.2888888888888889 0
56 0.7306999999999999 0.2666666666666666 0
57 0.7306999999999999 0.2444444444444443 0
58 0.7306999999999999 0.222222222222222 0
59 0.7306999999999999 0.1999999999999998 0
60 0.7306999999999999 0.1777777777777776 0
61 0.7306999999999999 0.1555555555555554 0
62 0.7306999999999999 0.1333333333333332 0
63 0.7306999999999999 0.1111111111111111 0
64 0.7306999999999999 0.08888888888888891 0
65 0.7306999999999999 0.06666666666666676 0
66 0.7306999999999999 0.04444444444444462 0
67 0.7306999999999999 0.02222222222222242 0
68 0.7473666666666665 0 0
69 0.7640333333333332 0 0
70 0.7806999999999999 0.02222222222222225 0
71 0.7806999999999999 0.04444444444444449 0
72 0.7806999999999999 0.06666666666666672 0
73 0.7806999999999999 0.08888888888888896 0
74 0.7806999999999999 0.1111111111111112 0
75 0.7806999999999999 0.1333333333333334 0
76 0.7806999999999999 0.1555555555555557 0
77 0.7806999999999999 0.177777777777778 0
78 0.7806999999999999 0.2000000000000003 0
79 0.7806999999999999 0.2222222222222225 0
80 0.7806999999999999 0.2444444444444447 0
81 0.7806999999999999 0.2666666666666668 0
82 0.7806999999999999 0.2888888888888889 0
83 0.7806999999999999 0.3111111111111111 0
84 0.7806999999999999 0.3333333333333333 0
85 0.7806999999999999 0.3555555555555554 0
86 0.7806999999999999 0.3777777777777776 0
87 0.7780236201460451 0.4229807084675019 0
88 0.7701377407666337 0.4447313148315632 0
89 0.7574644740358012 0.4640875613985023 0
90 0.7406821894687915 0.4800133548011204 0
91 0.7206892024319744 0.4916562255869974 0
92 0.6985556894798641 0.4983929588598628 0
93 0.6529468391340267 0.4986827530707215 0
94 0.6304272738923472 0.4975025526659857 0
95 0.6079077086506677 0.4963223522612499 0
96 0.5853881434089883 0.495142151856514 0
97 0.5628685781673086 0.4939619514517782 0
98 0.540349012925629 0.4927817510470424 0
99 0.5178294476839493 0.4916015506423065 0
100 0.4953098824422698 0.4904213502375707 0
101 0.4524477974770149 0.4867734301902434 0
102 0.4326314298734859 0.4815562159967983 0
103 0.4137110386705602 0.4736868738599528 0
104 0.3960397269295293 0.4633122659015873 0
105 0.3799472866830139 0.4506260089338758 0
106 0.3511046824024172 0.4184302666297251 0
107 0.3364753206356498 0.4009956721868199 0
108 0.3218459588688825 0.3835610777439147 0
109 0.3072165971021151 0.3661264833010095 0
110 0.2925872353353478 0.3486918888581043 0
111 0.2779578735685805 0.3312572944151992 0
112 0.2633285118018131 0.313822699972294 0
113 0.2486991500350458 0.2963881055293889 0
114 0.2340697882682784 0.2789535110864836 0
115 0.219440426501511 0.2615189166435784 0
116 0.2048110647347436 0.2440843222006732 0
117 0.1901817029679762 0.2266497277577679 0
118 0.1755523412012088 0.2092151333148627 0
119 0.1609229794344414 0.1917805388719575 0
120 0.146293617667674 0.1743459444290522 0
121 0.1316642559009066 0.156911349986147 0
122 0.1170348941341392 0.1394767555432417 0
123 0.1024055323673718 0.1220421611003365 0
124 0.08777617060060444 0.1046075666574313 0
125 0.07314680883383701 0.08717297221452608 0
126 0.05851744706706957 0.06973837777162079 0
127 0.04388808530030225 0.05230378332871566 0
128 0.02925872353353487 0.03486918888581042 0
129 0.01462936176676743 0.01743459444290513 0
130 0.08821621396776522 0 0
131 0.1111620634689165 0 0
132 0.1341079129700678 0 0
133 0.1570537624712191 0 0
134 0.1799996119723704 0 0
135 0.2029454614735217 0 0
136 0.225891310974673 0 0
137 0.2488371604758243 0 0
138 0.2717830099769756 0 0
139 0.2947288594781268 0 0
140 0.317674708979278 0 0
141 0.3406205584804292 0 0
142 0.3635664079815804 0 0
143 0.3865122574827317 0 0
144 0.4094581069838829 0 0
145 0.432403956485034 0 0
146 0.4553498059861853 0 0
147 0.4782956554873365 0 0
148 0.5012415049884876 0 0
149 0.5241873544896389 0 0
150 0.5471332039907901 0 0
151 0.5700790534919413 0 0
152 0.5930249029930925 0 0
153 0.6159707524942437 0 0
154 0.638916601995395 0 0
155 0.6618624514965461 0 0
156 0.6848083009976974 0 0
157 0.7077541504988486 0 0
158 0.7548997343987959 0.01500890214539807 0
159 0.4863547582385807 0.4583209170635529 0
160 0.3974109703309082 0.4221912471297815 0
161 0.4391169147308111 0.448184241965751 0
162 0.7324145492119493 0.4396369912816539 0
163 0.7157770357177079 0.4564084619358606 0
164 0.7471776585983709 0.3850061387055182 0
165 0.6646952628033527 0.4671516339850278 0
166 0.6907334615029265 0.4636417292695973 0
167 0.7483043699714428 0.4079396862078386 0
168 0.7614549910270125 0.3222222222222222 0
169 0.7614549910270125 0.2777777777777779 0
170 0.7499450089729873 0.1222222222222222 0
171 0.7499450089729873 0.07777777777777772 0
172 0.7614549910270125 0.2333333333333335 0
173 0.7614549910270124 0.1888888888888892 0
174 0.4171087989106687 0.4389133664495658 0
175 0.6233802143143152 0.4656882195769481 0
176 0.5306839445848779 0.4617626896884213 0
177 0.5758023404680165 0.475721623925946 0
178 0.3720793103391256 0.4149437899311467 0
179 0.3442594414445011 0.379608976034194 0
180 0.3150007179109664 0.3447397871483837 0
181 0.2857419943774316 0.3098705982625733 0
182 0.2557629604889809 0.2753373152606666 0
183 0.05673837601525056 0.01770399041596382 0
184 0.2257529527418013 0.2407169338893858 0
185 0.1958222405973345 0.2059782096916382 0
186 0.1664847937517352 0.1710017172249359 0
187 0.1390043031921537 0.1397702706372542 0
188 0.11138512236457 0.1033905062959065 0
189 0.08020718028307305 0.06512432895343595 0
190 0.4617886222715537 0.4532225297004204 0
191 0.7623924079107297 0.3661119880690422 0
192 0.7499450089729874 0.3444444444444444 0
193 0.7499450089729873 0.1666666666666664 0
194 0.7499450089729874 0.2999999999999999 0
195 0.7614549910270124 0.09999999999999992 0
196 0.7641453897058919 0.05945334658984264 0
197 0.7499450089729874 0.2555555555555554 0
198 0.7614549910270124 0.1444444444444445 0
199 0.7499450089729874 0.2111111111111109 0
200 0.642915376838726 0.4788307098190324 0
201 0.5077838550188962 0.47225494079587 0
202 0.3667412500150322 0.3901512047649541 0
203 0.3377580471566168 0.3547252916873744 0
204 0.3083221611284749 0.3196453795624972 0
205 0.2788593990988973 0.2845780341683757 0
206 0.2498092274249799 0.2493232798907777 0
207 0.22109515995032 0.2139885476081114 0
208 0.191613215606829 0.1789888360360878 0
209 0.07311361851230336 0.03933934558206953 0
210 0.1624825069976021 0.1444891537801642 0
211 0.5961892310779201 0.4642211216244395 0
212 0.552725097164696 0.4739445485381165 0
213 0.1261764549598972 0.1220251346278289 0
214 0.09679743998749146 0.08626500650032159 0
215 0.7630504659579871 0.03444698791455825 0
216 0.3969726914924024 0.4437878136086847 0
217 0.7371068961998412 0.4595489972443664 0
218 0.7067098852492533 0.4762065657780352 0
219 0.4246467251743368 0.4595681443594757 0
220 0.03465129459292993 0.01667414027971759 0
221 0.4684383044351018 0.4713057929644272 0
222 0.7594205253470863 0.4259824953398568 0
223 0.44567928506965 0.4668130675901793 0
224 0.382428860602927 0.4334827441352238 0
225 0.6813618249824795 0.4814214677035438 0
226 0.7497200965429872 0.4429590100204478 0
227 0.3863016719446625 0.4036504021073994 0
228 0.7437423212490434 0.03046487056554842 0
229 0.7655429017202739 0.3900374150407022 0
230 0.4861354234670877 0.4763088301788512 0
231 0.7441508375843394 0.3660327482693816 0
232 0.7673296061958557 0.3444444444444443 0
233 0.7440703938041442 0.3222222222222222 0
234 0.7440703938041442 0.2777777777777777 0
235 0.7673296061958556 0.1666666666666669 0
236 0.7673890779411783 0.07855733598463521 0
237 0.7673296061958557 0.1222222222222224 0
238 0.7440703938041442 0.2333333333333331 0
239 0.7440703938041443 0.09999999999999992 0
240 0.7673296061958557 0.2555555555555556 0
241 0.7673296061958557 0.3 0
242 0.7461966822637923 0.05316516991573478 0
243 0.7440703938041441 0.1444444444444444 0
244 0.7440703938041442 0.1888888888888886 0
245 0.7673296061958557 0.2111111111111114 0
246 0.6634771416268582 0.4851899036107566 0
247 0.7666027660002785 0.4100044101184812 0
248 0.04981655547818931 0.03558025680592003 0
249 0.6436156760686736 0.4612923995114792 0
250 0.5084982846185963 0.4542111970830641 0
251 0.7241930418135136 0.472766721069276 0
252 0.6088142446740965 0.479024614485851 0
253 0.5297774085614493 0.4790604274638202 0
254 0.5731287087902264 0.459321947348491 0
255 0.5529977874514062 0.4563819869196784 0
256 0.06124923491481438 0.05259109234324288 0
257 0.0928541448787692 0.05242112286845124 0
258 0.1041678470528006 0.06901709409543222 0
259 0.1204521391870651 0.08724302758148056 0
260 0.1352783411085274 0.1048705080405121 0
261 0.1492029751825203 0.1228735586316099 0
262 0.1489685642604136 0.1572463544767849 0
263 0.1804196416242759 0.1578533407799776 0
264 0.2099350958137633 0.1926914490595887 0
265 0.1781987575725479 0.1921394830608513 0
266 0.2394069635080114 0.2277862960857804 0
267 0.3536962171103521 0.4014006675592344 0
268 0.2074422361995815 0.2270214639420838 0
269 0.268876402822293 0.2628831807647073 0
270 0.2983434137566069 0.2979821030963689 0
271 0.2366881540116547 0.2619013981040492 0
272 0.3278079963109536 0.3330830630807654 0
273 0.3572701504853329 0.3681860607178972 0
274 0.2659365110087691 0.2967792855467474 0
275 0.2951873071909232 0.3316551262701772 0
276 0.3244405425581173 0.3665289202743395 0
277 0.741481744462901 0.01353919898663386 0
278 0.7686767067380232 0.01433562245643571 0
279 0.743299820316182 0.4272510751338021 0
280 0.6226889636740306 0.4834736897618134 0
281 0.5948203336559378 0.4820863728308001 0
282 0.4091435772250631 0.455542955735037 0
283 0.7114549910270124 0.2111111111111109 0
284 0.3670559369387989 0.3300778024429427 0
285 0.5127167114259195 0.02092577680866237 0
286 0.5326940225988446 0.4228134577209622 0
287 0.4211044849269722 0.0202617559681092 0
288 0.3049186819595796 0.2576986129292483 0
289 0.7114365529940391 0.3004646976650436 0
290 0.6045085006590685 0.01913221331806592 0
291 0.3518166644155772 0.01951819741558447 0
292 0.7110902749245985 0.144978311424679 0
293 0.2680085734481784 0.206135537802503 0
294 0.4082275919376427 0.3812118260092655 0
295 0.6005580655260161 0.4263799588156074 0
296 0.2832476267603314 0.01987592483860579 0
297 0.219755314988668 0.1543466160334694 0
298 0.7130372748397636 0.3659309053649938 0
299 0.7115066051031492 0.07952765236882692 0
300 0.2144183862240974 0.01987168857941152 0
301 0.4673394991769576 0.4186033246075892 0
302 0.6493109277053237 0.01889221042264111 0
303 0.645359831314063 0.4287331704826204 0
304 0.3382286168522071 0.2944267840586903 0
305 0.4667215063955412 0.02091070373923093 0
306 0.5586061410391986 0.01930338114855001 0
307 0.1894800711001382 0.1190459932746729 0
308 0.7095461396676995 0.2557465301550351 0
309 0.1609699722500357 0.08311491638380936 0
310 0.6973465459208547 0.4267698234108777 0
311 0.1685224955729235 0.01986912009580089 0
312 0.4367119903238068 0.4089292962869898 0
313 0.6977523177754117 0.0180833560371837 0
314 0.1307055150406694 0.04931832161028737 0
315 0.7118106967436277 0.4050181207033055 0
316 0.1226872010234181 0.01915759723839916 0
317 0.6665842880666135 0.4305623985852677 0
318 0.6575869619847968 0.4101401288387641 0
319 0.6352759327974139 0.4086998961072603 0
320 0.6478566098017747 0.3898901522568845 0
321 0.6253179746495575 0.3885462246145632 0
322 0.6377982875913767 0.3698713013820388 0
323 0.6153947528846001 0.3684216212193415 0
324 0.6278524516670405 0.3497738461383643 0
325 0.6054599050498336 0.3483027971605844 0
326 0.6181197105362534 0.3295408542444355 0
327 0.5956308750696555 0.328205313353986 0
328 0.6082403099507581 0.3093796818316621 0
329 0.5856805587885092 0.308267763176829 0
330 0.5981206899404753 0.2893392028000458 0
331 0.5756071853998256 0.288103429550875 0
332 0.5881276040524394 0.2691733911873333 0
333 0.5656453044093726 0.2677052312321149 0
334 0.5783315845648827 0.2487909840002508 0
335 0.5556893144413413 0.2474243580853061 0
336 0.5684387332430136 0.2284562857853124 0
337 0.5457015589963777 0.2271522948555364 0
338 0.558311510555998 0.2082994590641039 0
339 0.5356714210969438 0.2068867363466511 0
340 0.5230912262716038 0.2258162792978237 0
341 0.5130576274321459 0.2054283294233369 0
342 0.553050133080766 0.2870187309277702 0
343 0.5004651666567196 0.2243916102309156 0
344 0.4904197148421705 0.2039419067385829 0
345 0.5482464399209341 0.1880726442565206 0
346 0.4778095333725962 0.2228375556650415 0
347 0.4677492549470502 0.2024462891156636 0
348 0.4803784719062019 0.1835388602355651 0
349 0.4576777822364055 0.1820465095221731 0
350 0.5708737237532076 0.189481340894977 0
351 0.5608198933083811 0.1692773113889842 0
352 0.4450396016519079 0.2009726781248156 0
353 0.4349520004611762 0.1805522643006086 0
354 0.4703234046652654 0.1631212639507844 0
355 0.5834150567658586 0.1707411725182678 0
356 0.5734036191484477 0.1504532962045474 0
357 0.4222981023192189 0.1995115087516389 0
358 0.4122026416096928 0.1790579020183981 0
359 0.5959907174578871 0.1519427638998868 0
360 0.6007759221057182 0.2502601567669867 0
361 0.4878728785070783 0.2434693490005856 0
362 0.6059781953391576 0.1722411699540124 0
363 0.5860007943544348 0.1316281991444634 0
364 0.5633756638490107 0.1301272766942776 0
365 0.6087227909508585 0.1330596666485788 0
366 0.3995359277652178 0.1980308577026263 0
367 0.3894319318476486 0.1775673042926542 0
368 0.4021204904761509 0.1585843454664798 0
369 0.3793264189025033 0.1570892004642057 0
370 0.3920289956817071 0.1380919614566359 0
371 0.3692154969606858 0.1365961651667408 0
372 0.4096411763559419 0.2184926480875098 0
373 0.3666502594175454 0.1760961274140229 0
374 0.3819152645881262 0.1175915021399253 0
375 0.3590967687554621 0.1160956546169847 0
376 0.4047306931960324 0.1190924437737502 0
377 0.5830421712823324 0.347135137583127 0
378 0.3463951014085251 0.1351096184847885 0
379 0.3362683565124323 0.1145976247553274 0
380 0.6211256321514806 0.2902633845526303 0
381 0.3235583498122483 0.1336285951185571 0
382 0.3138774282834849 0.1135362234421138 0
383 0.5760106042220347 0.1112537808959107 0
384 0.5533906361566755 0.1097983578241413 0
385 0.3868634816284718 0.2170138385840102 0
386 0.3969793242143971 0.2374790712115725 0
387 0.3946200792299731 0.09857616729391783 0
388 0.4174540962289113 0.1000764519098991 0
389 0.3007865953838529 0.1322111379869315 0
390 0.2914928030855731 0.113671801826089 0
391 0.3264138768831167 0.09529106189103781 0
392 0.3108608903344715 0.1526840312318099 0
393 0.640965717992429 0.3304812852949588 0
394 0.5407495208303295 0.1286390613405723 0
395 0.5309515185470471 0.1081489685800194 0
396 0.4197518901875753 0.2389346205439444 0
397 0.4070950659325775 0.2579333594281439 0
398 0.4298628316015027 0.2593946830044436 0
399 0.4172087629791099 0.2783781197193057 0
400 0.4399586908367824 0.2798357782233638 0
401 0.427315567067015 0.2988056654138697 0
402 0.4500383649828996 0.3002978536785254 0
403 0.5660440132743285 0.0909113029984352 0
404 0.5886835744409546 0.0923842782352654 0
405 0.4374499540576048 0.3192401935337564 0
406 0.4601518675761456 0.3206988779759431 0
407 0.472723233454618 0.3017935800992638 0
408 0.4827594214052989 0.3221420649061333 0
409 0.4702474506946154 0.3409859846871787 0
410 0.4927502178145877 0.3423810352145028 0
411 0.3741880783323841 0.236006288688536 0
412 0.2880105934396348 0.1511979315889868 0
413 0.4802798038082734 0.3611612493654429 0
414 0.5027002225767119 0.3625977627566727 0
415 0.5152746990626008 0.3438390302288428 0
416 0.5251934694509509 0.3640881187174809 0
417 0.4073331622986848 0.07955230900559562 0
418 0.4301685773408208 0.08105639604268688 0
419 0.440285780775671 0.1015754089325231 0
420 0.4529970333752855 0.08256862564923301 0
421 0.4630682820540368 0.1031178495773113 0
422 0.4758034416636161 0.08408816152583032 0
423 0.3844937655834524 0.07805082707904987 0
424 0.4953276279895311 0.3032747928728256 0
425 0.4930116350053015 0.1646284547514831 0
426 0.3944398354511636 0.2769223160735241 0
427 0.5785957793406747 0.0728088399681926 0
428 0.6012843269198573 0.07448366738523088 0
429 0.5560790088303229 0.07057111500806335 0
430 0.6606550062506058 0.3707858132235233 0
431 0.2981405986570933 0.1717215399239134 0
432 0.4578222822283451 0.3597904335736349 0
433 0.4426400825471195 0.06168747281192655 0
434 0.4146836507841868 0.3177680078167942 0
435 0.6029344500402563 0.3875135449372544 0
436 0.490200943473579 0.3812341313445523 0
437 0.6113734720321369 0.09404647856876225 0
438 0.6239764554214777 0.07576731000122666 0
439 0.6340268062144493 0.09553811306377891 0
440 0.6465942492023048 0.07728175709990603 0
441 0.6565864846866474 0.09703844672286388 0
442 0.6440384767874731 0.1156904812473626 0
443 0.6665508928287188 0.1171707466205526 0
444 0.6540180942590437 0.1358827034285685 0
445 0.3209851651954237 0.1732077399897764 0
446 0.308275991745333 0.1922475893758226 0
447 0.3311432885998323 0.1936809701372925 0
448 0.4829899910089421 0.1442042306435484 0
449 0.4603133097486252 0.1426788915817679 0
450 0.5377950289331805 0.3453323366542389 0
451 0.5477469531948824 0.3655908462863035 0
452 0.5278442669169141 0.3250677574056266 0
453 0.5382233300018745 0.1677707606811898 0
454 0.3184482652354355 0.2127067841727983 0
455 0.3972106879715678 0.0590133778610038 0
456 0.4248375497822002 0.3382058518691948 0
457 0.4857304450842514 0.104764306975791 0
458 0.4985059389964862 0.08572498227437086 0
459 0.4884971858270288 0.06510886971582119 0
460 0.5111664517831145 0.06810384669968134 0
461 0.3743406685353823 0.05776786075130957 0
462 0.6689516755240749 0.07839558498337995 0
463 0.2761543899193811 0.1698041689748377 0
464 0.2661868438977265 0.1502263520493031 0
465 0.5504848764372434 0.3263995017572396 0
466 0.48532902026153 0.2829399689664329 0
467 0.5079221762454049 0.2844440945779353 0
468 0.6571345492228026 0.05561037367119309 0
469 0.6798756327296126 0.05997884615047899 0
470 0.465207596830354 0.2418322476872286 0
471 0.364078804357204 0.2155300206567822 0
472 0.3513803362456179 0.2345318676917341 0
473 0.3615067473894144 0.2550300392583489 0
474 0.3616338028484981 0.07656282094917971 0
475 0.3507359859099084 0.05752646397131422 0
476 0.5056357194453835 0.1458067686949961 0
477 0.5351112082638451 0.384268842241154 0
478 0.5577330417107347 0.3857956911788659 0
479 0.3864906699265714 0.03906222908089535 0
480 0.6757915347075458 0.1369272832054109 0
481 0.6638485233631914 0.1559737327112248 0
482 0.6882202959771544 0.1184993388113088 0
483 0.6414308530242153 0.1546151276266777 0
484 0.651460466094764 0.1747065029634853 0
485 0.6738578823307126 0.1761652022223592 0
486 0.6614286744013432 0.1948285698217908 0
487 0.6390501570326261 0.1933891543982465 0
488 0.6490021270979507 0.213502575237632 0
489 0.6266052008681763 0.2120671504992355 0
490 0.6363919908091131 0.2322613541435929 0
491 0.6589169195349028 0.2336221239166168 0
492 0.6463201360974211 0.252364994539292 0
493 0.6686614728054362 0.2537987740680364 0
494 0.6564139405901954 0.2723561604813708 0
495 0.6776657592459729 0.2732764164661211 0
496 0.6662219529898604 0.2922806943575853 0
497 0.6796105253454751 0.2360057782664651 0
498 0.4010386686923887 0.3385071300851844 0
499 0.6143784089064434 0.05464691832517926 0
500 0.2558090380149867 0.1693221853769135 0
501 0.5688151969532667 0.05108056633885993 0
502 0.5422648853880057 0.05312287845465014 0
503 0.2955685795897129 0.2112907107502225 0
504 0.6823692712570896 0.1968645354909899 0
505 0.6944781929649086 0.1810542480822927 0
506 0.67180240307754 0.04213665291834012 0
507 0.3393561161148414 0.2537568154896361 0
508 0.3929716185415691 0.3152956487485921 0
509 0.5040495439073587 0.04489589148096862 0
510 0.3057101532843972 0.2318213592427311 0
511 0.4782318418624896 0.04250212158711708 0
512 0.6799373223998122 0.4118123998489746 0
513 0.4152111166809679 0.3597829719288658 0
514 0.6336077476730161 0.2713158138844508 0
515 0.5703424635222241 0.3666056468781159 0
516 0.6141572739090555 0.2307537546670848 0
517 0.604116335569378 0.2106519571585611 0
518 0.690606110274624 0.2913643510162113 0
519 0.6761042547698221 0.3116106288664071 0
520 0.6538262629268631 0.3111157552656636 0
521 0.6635554301005183 0.331302033135543 0
522 0.6894136496723157 0.3324364538897091 0
523 0.6739247060050205 0.3509892826471974 0
524 0.5404538615853169 0.3061802366052705 0
525 0.5914155105543137 0.2295466794221997 0
526 0.4979156052566437 0.2640345869422045 0
527 0.5205425149620833 0.2655825795250208 0
528 0.4752806308884919 0.2624593239733759 0
529 0.4364904106631602 0.3585559644236841 0
530 0.4679881432573541 0.3797763827451865 0
531 0.4784104138356938 0.3996453831352771 0
532 0.5001867567627413 0.4011407260268526 0
533 0.5210463976875235 0.08781921379918334 0
534 0.4471517244608099 0.3773087192101889 0
535 0.4478332525003452 0.3395795510105654 0
536 0.5804294903621651 0.3865655927242024 0
537 0.5679800658237273 0.4055088033526409 0
538 0.6312075520748522 0.3103174363914948 0
539 0.5125938617224608 0.3826954938085755 0
540 0.6786933367946035 0.09858756545791403 0
541 0.6997397206839514 0.09986381810193079 0
542 0.6229039912657106 0.4274264743030738 0
543 0.6272727382879745 0.01884204180160892 0
544 0.6365605051971153 0.03982579574666095 0
545 0.5105277448920552 0.2451709157635755 0
546 0.6214080376828272 0.1142461816080587 0
547 0.5631448102588301 0.3071662653687156 0
548 0.6894865334459077 0.1566114108231122 0
549 0.6186236460592821 0.1533822016245869 0
550 0.6705264684588242 0.2153641034657518 0
551 0.6129786782179257 0.4075076466126633 0
552 0.5815512973661466 0.01862770088418864 0
553 0.5923313177294189 0.0386635758797958 0
554 0.6507919332678318 0.3505339269702709 0
555 0.6818984737128688 0.3725899286045151 0
556 0.6704387249102333 0.391032462538034 0
557 0.6930610294857349 0.3934362620813903 0
558 0.5604494556317163 0.3464862889271568 0
559 0.3488888185300137 0.274623704209702 0
560 0.5224818424032525 0.4027968047661023 0
561 0.4525943582044319 0.2608270768067269 0
562 0.4956482057281922 0.1253908678876256 0
563 0.5305050589032695 0.2857017183055635 0
564 0.3519059279436753 0.3129082666864827 0
565 0.6106584023072779 0.2704878385374492 0
566 0.5356631726657209 0.01878682954120103 0
567 0.5275711295928263 0.03774260370557242 0
568 0.4503034546334888 0.1221672063972937 0
569 0.4275322918312498 0.120619853088814 0
570 0.4148070075811714 0.1396166907187325 0
571 0.4323983469670451 0.2199299628609979 0
572 0.3336904640552754 0.1541555520041636 0
573 0.145588108696198 0.01847171000404241 0
574 0.1534439597774906 0.0407652866103228 0
575 0.1793853657747472 0.03990849660555351 0
576 0.1685148681653326 0.05959768064026577 0
577 0.1916587870704535 0.05945038822550675 0
578 0.2028591801616849 0.03974464986067416 0
579 0.2144007802426434 0.05958568398276187 0
580 0.2035954893733247 0.0790613161696222 0
581 0.2259516904284041 0.07940156085724054 0
582 0.2373272400175088 0.05960603538305453 0
583 0.2487813703907352 0.07946768998986053 0
584 0.2373121143772299 0.09931521254242248 0
585 0.2602315395124956 0.05963361553373081 0
586 0.2487764481445791 0.03977273222919481 0
587 0.2709745938578805 0.07907891350448065 0
588 0.283036103812431 0.05957662735079738 0
589 0.2932468346111179 0.07802805823861347 0
590 0.3055004320731776 0.05926465048727203 0
591 0.2593738729525694 0.09791497249443998 0
592 0.2463705228126443 0.1211793099912268 0
593 0.225821331553058 0.1191756416320075 0
594 0.3243238732327804 0.2726693901461446 0
595 0.2149744326556348 0.09897190102503683 0
596 0.2373577029165624 0.0198725288247682 0
597 0.2602944862569333 0.01987848964310768 0
598 0.4902094606778555 0.02153908226932982 0
599 0.454736456068667 0.04106796802769003 0
600 0.4437638258421216 0.02066500013224037 0
601 0.2945398845230807 0.03969735441867994 0
602 0.3170237255950036 0.0394842531733689 0
603 0.3060588512774086 0.01984451997921288 0
604 0.328666297177503 0.01963334421178137 0
605 0.1913550835298909 0.01989899252357341 0
606 0.2074615238976922 0.134899071429204 0
607 0.3438385235622335 0.174634770607995 0
608 0.1749070919177546 0.1009866411736081 0
609 0.2258566229511794 0.03974221980997755 0
610 0.2788064252254707 0.1314673116457418 0
611 0.2716876815016419 0.03973912400235285 0
612 0.3716840536717881 0.2751752890142929 0
613 0.2854227465466428 0.1907629543057605 0
614 0.5986998789472078 0.1127697641835066 0
615 0.3565193773844615 0.1556135723569861 0
616 0.5030431458832871 0.1850360616628284 0
617 0.4248742224842832 0.1601096035000412 0
618 0.6233773070696287 0.2513006553141035 0
619 0.711530236550705 0.3222462106275117 0
620 0.7114378182938711 0.2791378044714514 0
621 0.3717898296134198 0.09707908027733342 0
622 0.4199264212512532 0.06050589189096733 0
623 0.4092801594624458 0.04001037313665068 0
624 0.7115510183714575 0.3440503002269707 0
625 0.3843155174986208 0.2564243939457364 0
626 0.3767683146761521 0.196548974023818 0
627 0.510434928252155 0.4213008254164264 0
628 0.6313736497939499 0.1344793936973055 0
629 0.4551212483111969 0.2213897322402179 0
630 0.404741244155042 0.2971752664724494 0
631 0.7118296064915391 0.2319205233924346 0
632 0.5331188233353914 0.2459839938247109 0
633 0.4476101421691188 0.1616326005091376 0
634 0.6437338480677113 0.2912748741555326 0
635 0.4654843402240344 0.06283720321960307 0
636 0.5178945881295537 0.304703292492229 0
637 0.5053145371368855 0.3235511551861524 0
638 0.4626813228283379 0.281404206592894 0
639 0.7105108554193552 0.1205697444277731 0
640 0.5256426923077289 0.1866014485072186 0
641 0.6290064439344335 0.173312513685513 0
642 0.3490049904560584 0.09577808553210554 0
643 0.7127809527070659 0.05505866000209814 0
644 0.4424893786836844 0.2403847205239266 0
645 0.5431320088953703 0.2663833754964622 0
646 0.5508195495356304 0.1489692836303313 0
647 0.5929338721902353 0.3674240567504377 0
648 0.3381680017605267 0.07687874601328304 0
649 0.6165598532164664 0.19200641921859 0
650 0.3539696166469141 0.1950966290559677 0
651 0.382412633888801 0.2946736847719825 0
652 0.4550016669316422 0.3993948483002649 0
653 0.1465368916869711 0.065989693437563 0
654 0.4375734047413229 0.1411374742992978 0
655 0.5156382820424084 0.166224306254854 0
656 0.5935144585920616 0.1908463086481382 0
657 0.341278896668304 0.2141095726249001 0
658 0.3297420822304147 0.2326413192203574 0
659 0.4730089480429228 0.1237205588438897 0
660 0.5811117120446621 0.2095470051622154 0
661 0.5282229956599012 0.1474091713786668 0
662 0.2440597024981758 0.1479356897061403 0
663 0.5451954538715205 0.404255662397693 0
664 0.5182436031540261 0.1270156396125455 0
665 0.3807541722545552 0.3475727487430815 0
666 0.5083543515329211 0.1064773298549226 0
667 0.5554254648207378 0.4241464313376457 0
668 0.375198438173978 0.01942502458997697 0
669 0.5435456741601623 0.08931344103118466 0
670 0.578232059913104 0.4254199155312148 0
671 0.4320109069708775 0.04099969491759192 0
672 0.5730721245780478 0.327276711694509 0
673 0.5905188016471991 0.4064825769955972 0
674 0.5329499048132865 0.07081542951774711 0
675 0.398200094163778 0.01970071060486578 0
676 0.1009387192076828 0.01725009687371576 0
677 0.2805500935373232 0.2270830478052105 0
678 0.689031814564684 0.2554268875552638 0
679 0.6933231056247944 0.04121868333801876 0
680 0.2488543810157479 0.1893963165010536 0
681 0.6896696518909796 0.08027920932464033 0
682 0.4882842322157835 0.4200816342968489 0
683 0.3628976168797898 0.03870881175193375 0
684 0.7132863441574202 0.03284317332156089 0
685 0.6734575511772403 0.02232711692597722 0
686 0.339020580647117 0.03893074849903416 0
687 0.7126832283783955 0.1900213173199435 0
688 0.7117820220202898 0.166898540565763 0
689 0.6931455256404698 0.218878228999041 0
690 0.1820113342572555 0.07877036154101968 0
691 0.6947396192463097 0.3570833019972256 0
692 0.7129869323242597 0.3864443345295724 0
693 0.3607741811403131 0.2938595043110177 0
694 0.3266881799054001 0.05833242663923949 0
695 0.2340035570756221 0.1712858617998397 0
696 0.6357288335900287 0.06062643096883324 0
697 0.3948528709086111 0.3636442987748129 0
698 0.3155823620621363 0.07734070834119861 0
699 0.695476225610863 0.311687223321429 0
700 0.4216220474414875 0.3980413829761361 0
701 0.2897718546202713 0.2451296382307491 0
702 0.6150102941560042 0.03422210901426209 0
703 0.3032459590206449 0.09579171667651998 0
704 0.1954365592292394 0.09834478870858565 0
705 0.4500509203149872 0.4184037876971477 0
706 0.6950198988949123 0.1355172177384568 0
707 0.2816510648416189 0.09634138728044561 0
708 0.5910810059699322 0.05833671357945175 0
709 0.3727330417902046 0.3124967726480923 0
710 0.4275877626499305 0.377850348613141 0
711 0.2281487391536746 0.1366621671758954 0
712 0.2696575246444891 0.1155389114590566 0
713 0.2677925785748519 0.1867023975543554 0
714 0.1137291845722728 0.03469277096537338 0
715 0.5696878812454786 0.03208747761712538 0
716 0.2610162038157012 0.1332695149702938 0
717 0.2075017102824016 0.1150218132019342 0
718 0.716038562486336 0.0146297503161934 0
719 0.6832449088949527 0.434633019293591 0
720 0.6958982797879936 0.4105926110534386 0
721 0.6956575284093703 0.2709903979328165 0
722 0.5504347344807494 0.03535395613432657 0
723 0.6976247210676937 0.0651611798612981 0
724 0.7174074765523222 0.09999604233658477 0
725 0.3217435419893257 0.2492115974798192 0
726 0.7110004674561984 0.4210403133420805 0
727 0.4368236847155151 0.3922012271307059 0
728 0.6565218391718564 0.03585662707754766 0
729 0.6967452151383385 0.2406377943607789 0
730 0.6991446659217874 0.3750969465155395 0
731 0.1341072015800508 0.0320674350201855 0
732 0.69948260176501 0.2002437569057559 0
733 0.3841771662916162 0.3309196701830637 0
734 0.523599419649396 0.0552292591551512 0
$EndNodes
$Elements
1468
1 15 2 6 9 9
2 15 2 5 10 10
3 1 2 4 1 1 13
4 1 2 4 1 13 14
5 1 2 4 1 14 2
6 1 2 4 7 7 68
7 1 2 4 7 68 69
8 1 2 4 7 69 8
9 1 2 3 8 8 70
10 1 2 3 8 70 71
11 1 2 3 8 71 72
12 1 2 3 8 72 73
13 1 2 3 8 73 74
14 1 2 3 8 74 75
15 1 2 3 8 75 76
16 1 2 3 8 76 77
17 1 2 3 8 77 78
18 1 2 3 8 78 79
19 1 2 3 8 79 80
20 1 2 3 8 80 81
21 1 2 3 8 81 82
22 1 2 3 8 82 83
23 1 2 3 8 83 84
24 1 2 3 8 84 85
25 1 2 3 8 85 86
26 1 2 3 8 86 9
27 1 2 3 9 9 87
28 1 2 3 9 87 88
29 1 2 3 9 88 89
30 1 2 3 9 89 90
31 1 2 3 9 90 91
32 1 2 3 9 91 92
33 1 2 3 9 92 10
34 1 2 3 10 10 93
35 1 2 3 10 93 94
36 1 2 3 10 94 95
37 1 2 3 10 95 96
38 1 2 3 10 96 97
39 1 2 3 10 97 98
40 1 2 3 10 98 99
41 1 2 3 10 99 100
42 1 2 3 10 100 11
43 1 2 3 11 11 101
44 1 2 3 11 101 102
45 1 2 3 11 102 103
46 1 2 3 11 103 104
47 1 2 3 11 104 105
48 1 2 3 11 105 12
49 1 2 3 12 12 106
50 1 2 3 12 106 107
51 1 2 3 12 107 108
52 1 2 3 12 108 109
53 1 2 3 12 109 110
54 1 2 3 12 110 111
55 1 2 3 12 111 112
56 1 2 3 12 112 113
57 1 2 3 12 113 114
58 1 2 3 12 114 115
59 1 2 3 12 115 116
60 1 2 3 12 116 117
61 1 2 3 12 117 118
62 1 2 3 12 118 119
63 1 2 3 12 119 120
64 1 2 3 12 120 121
65 1 2 3 12 121 122
66 1 2 3 12 122 123
67 1 2 3 12 123 124
68 1 2 3 12 124 125
69 1 2 3 12 125 126
70 1 2 3 12 126 127
71 1 2 3 12 127 128
72 1 2 3 12 128 129
73 1 2 3 12 129 1
74 1 2 4 13 2 130
75 1 2 4 13 130 131
76 1 2 4 13 131 132
77 1 2 4 13 132 133
78 1 2 4 13 133 134
79 1 2 4 13 134 135
80 1 2 4 13 135 136
81 1 2 4 13 136 137
82 1 2 4 13 137 138
83 1 2 4 13 138 139
84 1 2 4 13 139 140
85 1 2 4 13 140 141
86 1 2 4 13 141 142
87 1 2 4 13 142 143
88 1 2 4 13 143 144
89 1 2 4 13 144 145
90 1 2 4 13 145 146
91 1 2 4 13 146 147
92 1 2 4 13 147 148
93 1 2 4 13 148 149
94 1 2 4 13 149 150
95 1 2 4 13 150 151
96 1 2 4 13 151 152
97 1 2 4 13 152 153
98 1 2 4 13 153 154
99 1 2 4 13 154 155
100 1 2 4 13 155 156
101 1 2 4 13 156 157
102 1 2 4 13 157 7
103 2 2 2 1 101 223 221
104 2 2 2 1 92 225 218
105 2 2 2 1 218 225 166
106 2 2 2 1 159 190 4
107 2 2 2 1 221 223 190
108 2 2 2 1 219 223 102
109 2 2 2 1 103 219 102
110 2 2 2 1 160 224 178
111 2 2 2 1 178 227 160
112 2 2 2 1 162 163 49
113 2 2 2 1 159 221 190
114 2 2 2 1 163 166 48
115 2 2 2 1 215 242 228
116 2 2 2 1 162 217 163
117 2 2 2 1 196 242 215
118 2 2 2 1 158 278 215
119 2 2 2 1 212 254 177
120 2 2 2 1 212 255 254
121 2 2 2 1 163 218 166
122 2 2 2 1 183 220 14
123 2 2 2 1 164 229 167
124 2 2 2 1 229 247 167
125 2 2 2 1 6 167 50
126 2 2 2 1 5 166 165
127 2 2 2 1 129 1 13
128 2 2 2 1 189 256 209
129 2 2 2 1 209 257 189
130 2 2 2 1 161 174 38
131 2 2 2 1 37 174 160
132 2 2 2 1 101 221 11
133 2 2 2 1 2 183 14
134 2 2 2 1 4 190 39
135 2 2 2 1 174 216 160
136 2 2 2 1 215 278 70
137 2 2 2 1 183 248 220
138 2 2 2 1 210 263 186
139 2 2 2 1 186 262 210
140 2 2 2 1 167 279 50
141 2 2 2 1 202 227 178
142 2 2 2 1 208 264 185
143 2 2 2 1 185 265 208
144 2 2 2 1 161 219 174
145 2 2 2 1 200 249 165
146 2 2 2 1 7 277 67
147 2 2 2 1 70 278 8
148 2 2 2 1 207 266 184
149 2 2 2 1 184 268 207
150 2 2 2 1 5 165 47
151 2 2 2 1 191 229 164
152 2 2 2 1 159 250 201
153 2 2 2 1 10 225 92
154 2 2 2 1 40 159 4
155 2 2 2 1 228 277 158
156 2 2 2 1 206 269 182
157 2 2 2 1 164 231 191
158 2 2 2 1 182 271 206
159 2 2 2 1 106 178 12
160 2 2 2 1 161 223 219
161 2 2 2 1 260 261 213
162 2 2 2 1 178 267 202
163 2 2 2 1 213 261 187
164 2 2 2 1 165 246 200
165 2 2 2 1 205 270 181
166 2 2 2 1 166 225 165
167 2 2 2 1 181 274 205
168 2 2 2 1 259 260 188
169 2 2 2 1 188 260 213
170 2 2 2 1 92 218 91
171 2 2 2 1 51 164 6
172 2 2 2 1 201 230 159
173 2 2 2 1 191 231 192
174 2 2 2 1 258 259 214
175 2 2 2 1 192 232 191
176 2 2 2 1 214 259 188
177 2 2 2 1 204 272 180
178 2 2 2 1 168 232 192
179 2 2 2 1 192 233 168
180 2 2 2 1 172 238 199
181 2 2 2 1 173 244 193
182 2 2 2 1 197 240 169
183 2 2 2 1 193 235 173
184 2 2 2 1 199 245 172
185 2 2 2 1 198 243 170
186 2 2 2 1 169 234 197
187 2 2 2 1 195 237 170
188 2 2 2 1 195 239 171
189 2 2 2 1 168 233 194
190 2 2 2 1 170 239 195
191 2 2 2 1 196 236 171
192 2 2 2 1 170 237 198
193 2 2 2 1 194 241 168
194 2 2 2 1 194 234 169
195 2 2 2 1 197 238 172
196 2 2 2 1 198 235 193
197 2 2 2 1 171 242 196
198 2 2 2 1 171 236 195
199 2 2 2 1 169 241 194
200 2 2 2 1 172 240 197
201 2 2 2 1 193 243 198
202 2 2 2 1 199 244 173
203 2 2 2 1 173 245 199
204 2 2 2 1 180 275 204
205 2 2 2 1 160 227 3
206 2 2 2 1 257 258 189
207 2 2 2 1 15 183 2
208 2 2 2 1 189 258 214
209 2 2 2 1 175 249 200
210 2 2 2 1 201 250 176
211 2 2 2 1 94 200 93
212 2 2 2 1 203 273 179
213 2 2 2 1 176 253 201
214 2 2 2 1 36 202 35
215 2 2 2 1 100 201 99
216 2 2 2 1 179 276 203
217 2 2 2 1 16 209 15
218 2 2 2 1 86 191 85
219 2 2 2 1 209 248 183
220 2 2 2 1 26 207 25
221 2 2 2 1 24 208 23
222 2 2 2 1 34 203 33
223 2 2 2 1 32 204 31
224 2 2 2 1 30 205 29
225 2 2 2 1 28 206 27
226 2 2 2 1 53 192 52
227 2 2 2 1 212 253 176
228 2 2 2 1 176 255 212
229 2 2 2 1 177 254 211
230 2 2 2 1 164 167 6
231 2 2 2 1 22 210 21
232 2 2 2 1 175 211 45
233 2 2 2 1 46 175 45
234 2 2 2 1 97 212 177
235 2 2 2 1 42 176 41
236 2 2 2 1 97 177 96
237 2 2 2 1 59 199 58
238 2 2 2 1 78 173 77
239 2 2 2 1 63 170 62
240 2 2 2 1 82 169 81
241 2 2 2 1 65 171 64
242 2 2 2 1 84 168 83
243 2 2 2 1 72 196 71
244 2 2 2 1 74 195 73
245 2 2 2 1 98 212 97
246 2 2 2 1 76 198 75
247 2 2 2 1 57 197 56
248 2 2 2 1 55 194 54
249 2 2 2 1 61 193 60
250 2 2 2 1 45 211 44
251 2 2 2 1 80 172 79
252 2 2 2 1 39 161 38
253 2 2 2 1 37 160 3
254 2 2 2 1 38 174 37
255 2 2 2 1 126 189 125
256 2 2 2 1 120 186 119
257 2 2 2 1 114 182 113
258 2 2 2 1 116 184 115
259 2 2 2 1 108 179 107
260 2 2 2 1 122 187 121
261 2 2 2 1 118 185 117
262 2 2 2 1 110 180 109
263 2 2 2 1 124 188 123
264 2 2 2 1 112 181 111
265 2 2 2 1 123 213 122
266 2 2 2 1 125 214 124
267 2 2 2 1 15 209 183
268 2 2 2 1 188 213 123
269 2 2 2 1 189 214 125
270 2 2 2 1 122 213 187
271 2 2 2 1 124 214 188
272 2 2 2 1 71 215 70
273 2 2 2 1 209 256 248
274 2 2 2 1 162 279 226
275 2 2 2 1 39 190 161
276 2 2 2 1 179 273 202
277 2 2 2 1 202 267 179
278 2 2 2 1 102 223 101
279 2 2 2 1 129 220 128
280 2 2 2 1 180 272 203
281 2 2 2 1 200 280 175
282 2 2 2 1 49 163 48
283 2 2 2 1 50 162 49
284 2 2 2 1 105 216 104
285 2 2 2 1 48 166 5
286 2 2 2 1 203 276 180
287 2 2 2 1 226 279 222
288 2 2 2 1 196 215 71
289 2 2 2 1 211 281 177
290 2 2 2 1 181 270 204
291 2 2 2 1 204 275 181
292 2 2 2 1 220 248 128
293 2 2 2 1 182 269 205
294 2 2 2 1 178 224 12
295 2 2 2 1 36 227 202
296 2 2 2 1 205 274 182
297 2 2 2 1 184 266 206
298 2 2 2 1 215 228 158
299 2 2 2 1 206 271 184
300 2 2 2 1 185 264 207
301 2 2 2 1 207 268 185
302 2 2 2 1 90 217 89
303 2 2 2 1 186 263 208
304 2 2 2 1 86 229 191
305 2 2 2 1 202 273 35
306 2 2 2 1 201 253 99
307 2 2 2 1 208 265 186
308 2 2 2 1 191 232 85
309 2 2 2 1 16 257 209
310 2 2 2 1 187 261 210
311 2 2 2 1 192 231 52
312 2 2 2 1 46 249 175
313 2 2 2 1 176 250 41
314 2 2 2 1 53 233 192
315 2 2 2 1 208 263 23
316 2 2 2 1 84 232 168
317 2 2 2 1 24 264 208
318 2 2 2 1 207 264 25
319 2 2 2 1 206 266 27
320 2 2 2 1 26 266 207
321 2 2 2 1 28 269 206
322 2 2 2 1 205 269 29
323 2 2 2 1 204 270 31
324 2 2 2 1 30 270 205
325 2 2 2 1 203 272 33
326 2 2 2 1 32 272 204
327 2 2 2 1 34 273 203
328 2 2 2 1 72 236 196
329 2 2 2 1 57 238 197
330 2 2 2 1 194 233 54
331 2 2 2 1 199 238 58
332 2 2 2 1 170 243 62
333 2 2 2 1 169 240 81
334 2 2 2 1 80 240 172
335 2 2 2 1 63 239 170
336 2 2 2 1 195 236 73
337 2 2 2 1 82 241 169
338 2 2 2 1 173 235 77
339 2 2 2 1 171 239 64
340 2 2 2 1 55 234 194
341 2 2 2 1 74 237 195
342 2 2 2 1 59 244 199
343 2 2 2 1 78 245 173
344 2 2 2 1 197 234 56
345 2 2 2 1 76 235 198
346 2 2 2 1 193 244 60
347 2 2 2 1 168 241 83
348 2 2 2 1 198 237 75
349 2 2 2 1 61 243 193
350 2 2 2 1 172 245 79
351 2 2 2 1 65 242 171
352 2 2 2 1 210 261 21
353 2 2 2 1 22 263 210
354 2 2 2 1 165 249 47
355 2 2 2 1 40 250 159
356 2 2 2 1 95 280 94
357 2 2 2 1 211 254 44
358 2 2 2 1 42 255 176
359 2 2 2 1 98 253 212
360 2 2 2 1 96 281 95
361 2 2 2 1 179 267 107
362 2 2 2 1 210 262 187
363 2 2 2 1 126 256 189
364 2 2 2 1 120 262 186
365 2 2 2 1 187 262 121
366 2 2 2 1 186 265 119
367 2 2 2 1 118 265 185
368 2 2 2 1 116 268 184
369 2 2 2 1 185 268 117
370 2 2 2 1 114 271 182
371 2 2 2 1 184 271 115
372 2 2 2 1 182 274 113
373 2 2 2 1 112 274 181
374 2 2 2 1 110 275 180
375 2 2 2 1 181 275 111
376 2 2 2 1 108 276 179
377 2 2 2 1 180 276 109
378 2 2 2 1 14 220 13
379 2 2 2 1 106 267 178
380 2 2 2 1 51 231 164
381 2 2 2 1 11 230 100
382 2 2 2 1 67 277 228
383 2 2 2 1 13 220 129
384 2 2 2 1 88 222 87
385 2 2 2 1 69 158 68
386 2 2 2 1 91 251 90
387 2 2 2 1 12 224 105
388 2 2 2 1 3 227 36
389 2 2 2 1 190 223 161
390 2 2 2 1 200 246 93
391 2 2 2 1 216 224 160
392 2 2 2 1 105 224 216
393 2 2 2 1 252 280 95
394 2 2 2 1 95 281 252
395 2 2 2 1 100 230 201
396 2 2 2 1 104 282 103
397 2 2 2 1 162 226 217
398 2 2 2 1 93 246 10
399 2 2 2 1 89 226 88
400 2 2 2 1 87 247 9
401 2 2 2 1 174 282 216
402 2 2 2 1 67 228 66
403 2 2 2 1 221 230 11
404 2 2 2 1 9 229 86
405 2 2 2 1 228 242 66
406 2 2 2 1 103 282 219
407 2 2 2 1 217 226 89
408 2 2 2 1 52 231 51
409 2 2 2 1 85 232 84
410 2 2 2 1 77 235 76
411 2 2 2 1 64 239 63
412 2 2 2 1 54 233 53
413 2 2 2 1 81 240 80
414 2 2 2 1 58 238 57
415 2 2 2 1 56 234 55
416 2 2 2 1 75 237 74
417 2 2 2 1 60 244 59
418 2 2 2 1 66 242 65
419 2 2 2 1 83 241 82
420 2 2 2 1 79 245 78
421 2 2 2 1 73 236 72
422 2 2 2 1 62 243 61
423 2 2 2 1 128 248 127
424 2 2 2 1 47 249 46
425 2 2 2 1 41 250 40
426 2 2 2 1 218 251 91
427 2 2 2 1 248 256 127
428 2 2 2 1 44 254 43
429 2 2 2 1 43 255 42
430 2 2 2 1 99 253 98
431 2 2 2 1 254 255 43
432 2 2 2 1 175 252 211
433 2 2 2 1 17 258 257
434 2 2 2 1 18 259 258
435 2 2 2 1 19 260 259
436 2 2 2 1 20 261 260
437 2 2 2 1 17 257 16
438 2 2 2 1 167 247 222
439 2 2 2 1 127 256 126
440 2 2 2 1 18 258 17
441 2 2 2 1 19 259 18
442 2 2 2 1 20 260 19
443 2 2 2 1 21 261 20
444 2 2 2 1 23 263 22
445 2 2 2 1 25 264 24
446 2 2 2 1 27 266 26
447 2 2 2 1 107 267 106
448 2 2 2 1 121 262 120
449 2 2 2 1 29 269 28
450 2 2 2 1 31 270 30
451 2 2 2 1 33 272 32
452 2 2 2 1 35 273 34
453 2 2 2 1 119 265 118
454 2 2 2 1 117 268 116
455 2 2 2 1 115 271 114
456 2 2 2 1 113 274 112
457 2 2 2 1 111 275 110
458 2 2 2 1 109 276 108
459 2 2 2 1 219 282 174
460 2 2 2 1 94 280 200
461 2 2 2 1 177 281 96
462 2 2 2 1 88 226 222
463 2 2 2 1 217 251 163
464 2 2 2 1 9 247 229
465 2 2 2 1 222 247 87
466 2 2 2 1 68 277 7
467 2 2 2 1 8 278 69
468 2 2 2 1 69 278 158
469 2 2 2 1 158 277 68
470 2 2 2 1 90 251 217
471 2 2 2 1 10 246 225
472 2 2 2 1 50 279 162
473 2 2 2 1 216 282 104
474 2 2 2 1 163 251 218
475 2 2 2 1 222 279 167
476 2 2 2 1 159 230 221
477 2 2 2 1 225 246 165
478 2 2 2 1 175 280 252
479 2 2 2 1 252 281 211
480 2 2 1 2 293 613 503
481 2 2 1 2 503 677 293
482 2 2 1 2 509 598 285
483 2 2 1 2 498 697 665
484 2 2 1 2 513 697 498
485 2 2 1 2 679 685 313
486 2 2 1 2 506 685 679
487 2 2 1 2 619 624 522
488 2 2 1 2 292 688 548
489 2 2 1 2 511 598 509
490 2 2 1 2 662 711 592
491 2 2 1 2 574 653 314
492 2 2 1 2 305 598 511
493 2 2 1 2 592 716 662
494 2 2 1 2 518 620 289
495 2 2 1 2 559 594 507
496 2 2 1 2 285 567 509
497 2 2 1 2 544 696 499
498 2 2 1 2 594 725 507
499 2 2 1 2 624 691 522
500 2 2 1 2 499 702 544
501 2 2 1 2 576 653 574
502 2 2 1 2 511 599 305
503 2 2 1 2 548 706 292
504 2 2 1 2 510 677 503
505 2 2 1 2 4 682 40
506 2 2 1 2 518 721 620
507 2 2 1 2 501 722 715
508 2 2 1 2 502 722 501
509 2 2 1 2 548 688 505
510 2 2 1 2 510 701 677
511 2 2 1 2 301 652 531
512 2 2 1 2 25 695 680
513 2 2 1 2 522 699 619
514 2 2 1 2 130 15 2
515 2 2 1 2 468 696 544
516 2 2 1 2 599 635 433
517 2 2 1 2 288 701 510
518 2 2 1 2 288 725 594
519 2 2 1 2 687 688 60
520 2 2 1 2 511 635 599
521 2 2 1 2 430 554 523
522 2 2 1 2 523 555 430
523 2 2 1 2 523 554 521
524 2 2 1 2 521 554 393
525 2 2 1 2 510 725 288
526 2 2 1 2 592 711 593
527 2 2 1 2 520 521 393
528 2 2 1 2 47 317 5
529 2 2 1 2 703 707 589
530 2 2 1 2 600 671 287
531 2 2 1 2 553 708 501
532 2 2 1 2 544 728 468
533 2 2 1 2 514 634 380
534 2 2 1 2 501 715 553
535 2 2 1 2 380 565 514
536 2 2 1 2 304 594 559
537 2 2 1 2 556 557 512
538 2 2 1 2 301 682 4
539 2 2 1 2 541 639 482
540 2 2 1 2 390 707 703
541 2 2 1 2 320 556 318
542 2 2 1 2 309 653 576
543 2 2 1 2 393 538 520
544 2 2 1 2 328 538 326
545 2 2 1 2 683 686 291
546 2 2 1 2 336 525 334
547 2 2 1 2 331 547 342
548 2 2 1 2 631 689 283
549 2 2 1 2 342 547 524
550 2 2 1 2 380 634 538
551 2 2 1 2 465 672 558
552 2 2 1 2 680 695 500
553 2 2 1 2 492 618 490
554 2 2 1 2 515 647 536
555 2 2 1 2 301 705 652
556 2 2 1 2 536 647 435
557 2 2 1 2 318 556 512
558 2 2 1 2 310 719 512
559 2 2 1 2 515 558 377
560 2 2 1 2 360 525 516
561 2 2 1 2 377 647 515
562 2 2 1 2 334 525 360
563 2 2 1 2 565 618 514
564 2 2 1 2 541 681 299
565 2 2 1 2 314 731 574
566 2 2 1 2 516 618 360
567 2 2 1 2 553 702 499
568 2 2 1 2 294 697 513
569 2 2 1 2 287 671 623
570 2 2 1 2 326 538 393
571 2 2 1 2 505 688 687
572 2 2 1 2 380 538 328
573 2 2 1 2 329 547 331
574 2 2 1 2 336 660 525
575 2 2 1 2 513 710 294
576 2 2 1 2 599 600 305
577 2 2 1 2 430 556 320
578 2 2 1 2 533 666 458
579 2 2 1 2 41 627 286
580 2 2 1 2 143 675 668
581 2 2 1 2 524 563 342
582 2 2 1 2 576 690 309
583 2 2 1 2 433 671 599
584 2 2 1 2 558 672 377
585 2 2 1 2 514 618 492
586 2 2 1 2 490 618 516
587 2 2 1 2 527 645 563
588 2 2 1 2 631 729 689
589 2 2 1 2 599 671 600
590 2 2 1 2 340 545 343
591 2 2 1 2 365 628 549
592 2 2 1 2 593 711 606
593 2 2 1 2 477 663 560
594 2 2 1 2 549 628 483
595 2 2 1 2 526 528 361
596 2 2 1 2 499 708 553
597 2 2 1 2 563 645 342
598 2 2 1 2 361 528 470
599 2 2 1 2 146 600 145
600 2 2 1 2 303 317 47
601 2 2 1 2 538 634 520
602 2 2 1 2 6 692 51
603 2 2 1 2 395 666 533
604 2 2 1 2 36 294 3
605 2 2 1 2 546 628 365
606 2 2 1 2 545 632 527
607 2 2 1 2 475 694 686
608 2 2 1 2 555 556 430
609 2 2 1 2 632 645 527
610 2 2 1 2 560 663 286
611 2 2 1 2 361 545 526
612 2 2 1 2 549 641 362
613 2 2 1 2 555 557 556
614 2 2 1 2 338 660 336
615 2 2 1 2 561 638 400
616 2 2 1 2 517 656 649
617 2 2 1 2 456 535 529
618 2 2 1 2 343 545 361
619 2 2 1 2 477 539 416
620 2 2 1 2 432 534 529
621 2 2 1 2 405 535 456
622 2 2 1 2 649 656 362
623 2 2 1 2 286 627 560
624 2 2 1 2 528 561 470
625 2 2 1 2 537 673 670
626 2 2 1 2 318 512 317
627 2 2 1 2 457 659 421
628 2 2 1 2 365 614 546
629 2 2 1 2 525 660 517
630 2 2 1 2 529 535 432
631 2 2 1 2 360 618 565
632 2 2 1 2 40 627 41
633 2 2 1 2 436 531 530
634 2 2 1 2 517 660 656
635 2 2 1 2 305 600 146
636 2 2 1 2 145 600 287
637 2 2 1 2 641 649 362
638 2 2 1 2 340 632 545
639 2 2 1 2 483 641 549
640 2 2 1 2 436 530 413
641 2 2 1 2 530 534 432
642 2 2 1 2 477 560 539
643 2 2 1 2 528 638 561
644 2 2 1 2 303 318 317
645 2 2 1 2 295 551 542
646 2 2 1 2 410 413 409
647 2 2 1 2 443 540 482
648 2 2 1 2 540 541 482
649 2 2 1 2 531 682 301
650 2 2 1 2 568 654 569
651 2 2 1 2 562 659 457
652 2 2 1 2 406 535 405
653 2 2 1 2 606 717 593
654 2 2 1 2 295 542 45
655 2 2 1 2 408 409 406
656 2 2 1 2 648 694 475
657 2 2 1 2 414 436 413
658 2 2 1 2 413 530 432
659 2 2 1 2 667 670 43
660 2 2 1 2 141 604 140
661 2 2 1 2 530 652 534
662 2 2 1 2 475 686 683
663 2 2 1 2 398 561 400
664 2 2 1 2 157 313 156
665 2 2 1 2 441 540 443
666 2 2 1 2 546 614 437
667 2 2 1 2 153 543 290
668 2 2 1 2 547 672 465
669 2 2 1 2 536 673 537
670 2 2 1 2 302 544 543
671 2 2 1 2 462 540 441
672 2 2 1 2 321 551 435
673 2 2 1 2 668 675 479
674 2 2 1 2 480 548 481
675 2 2 1 2 449 654 568
676 2 2 1 2 383 614 363
677 2 2 1 2 440 441 439
678 2 2 1 2 526 545 527
679 2 2 1 2 396 644 398
680 2 2 1 2 290 553 552
681 2 2 1 2 440 462 441
682 2 2 1 2 359 549 362
683 2 2 1 2 504 550 486
684 2 2 1 2 45 542 46
685 2 2 1 2 557 692 315
686 2 2 1 2 363 614 365
687 2 2 1 2 456 529 513
688 2 2 1 2 416 539 414
689 2 2 1 2 441 443 442
690 2 2 1 2 413 432 409
691 2 2 1 2 291 604 141
692 2 2 1 2 443 482 480
693 2 2 1 2 443 480 444
694 2 2 1 2 438 439 437
695 2 2 1 2 302 543 154
696 2 2 1 2 322 554 430
697 2 2 1 2 155 302 154
698 2 2 1 2 290 552 152
699 2 2 1 2 491 550 497
700 2 2 1 2 408 410 409
701 2 2 1 2 438 440 439
702 2 2 1 2 140 604 603
703 2 2 1 2 319 551 321
704 2 2 1 2 436 532 531
705 2 2 1 2 296 603 601
706 2 2 1 2 572 615 607
707 2 2 1 2 601 603 602
708 2 2 1 2 451 558 515
709 2 2 1 2 441 442 439
710 2 2 1 2 350 660 338
711 2 2 1 2 296 611 597
712 2 2 1 2 485 505 504
713 2 2 1 2 365 549 359
714 2 2 1 2 443 444 442
715 2 2 1 2 359 362 355
716 2 2 1 2 527 563 467
717 2 2 1 2 398 644 561
718 2 2 1 2 569 570 376
719 2 2 1 2 485 504 486
720 2 2 1 2 330 565 380
721 2 2 1 2 428 437 404
722 2 2 1 2 491 497 493
723 2 2 1 2 486 550 488
724 2 2 1 2 601 611 296
725 2 2 1 2 488 550 491
726 2 2 1 2 402 406 405
727 2 2 1 2 607 615 373
728 2 2 1 2 400 402 401
729 2 2 1 2 481 485 484
730 2 2 1 2 388 569 376
731 2 2 1 2 450 558 451
732 2 2 1 2 491 493 492
733 2 2 1 2 480 481 444
734 2 2 1 2 566 567 285
735 2 2 1 2 563 636 467
736 2 2 1 2 402 407 406
737 2 2 1 2 400 638 402
738 2 2 1 2 370 570 368
739 2 2 1 2 596 597 586
740 2 2 1 2 493 495 494
741 2 2 1 2 322 430 320
742 2 2 1 2 428 438 437
743 2 2 1 2 393 554 324
744 2 2 1 2 407 408 406
745 2 2 1 2 33 564 284
746 2 2 1 2 495 518 496
747 2 2 1 2 488 491 490
748 2 2 1 2 376 570 370
749 2 2 1 2 153 290 152
750 2 2 1 2 324 554 322
751 2 2 1 2 597 611 586
752 2 2 1 2 407 424 408
753 2 2 1 2 315 692 6
754 2 2 1 2 465 558 450
755 2 2 1 2 524 636 563
756 2 2 1 2 151 552 306
757 2 2 1 2 46 303 47
758 2 2 1 2 450 451 416
759 2 2 1 2 485 486 484
760 2 2 1 2 409 535 406
761 2 2 1 2 458 666 457
762 2 2 1 2 360 565 332
763 2 2 1 2 326 393 324
764 2 2 1 2 439 546 437
765 2 2 1 2 451 515 478
766 2 2 1 2 154 543 153
767 2 2 1 2 422 457 421
768 2 2 1 2 481 548 485
769 2 2 1 2 332 565 330
770 2 2 1 2 515 536 478
771 2 2 1 2 451 478 477
772 2 2 1 2 398 400 399
773 2 2 1 2 473 625 612
774 2 2 1 2 330 380 328
775 2 2 1 2 596 609 300
776 2 2 1 2 586 609 596
777 2 2 1 2 415 450 416
778 2 2 1 2 519 522 521
779 2 2 1 2 420 421 419
780 2 2 1 2 491 492 490
781 2 2 1 2 460 533 458
782 2 2 1 2 402 405 401
783 2 2 1 2 352 571 357
784 2 2 1 2 493 494 492
785 2 2 1 2 578 605 300
786 2 2 1 2 44 295 45
787 2 2 1 2 524 547 465
788 2 2 1 2 356 359 355
789 2 2 1 2 152 552 151
790 2 2 1 2 396 398 397
791 2 2 1 2 149 566 285
792 2 2 1 2 452 465 450
793 2 2 1 2 526 527 467
794 2 2 1 2 351 355 350
795 2 2 1 2 33 284 34
796 2 2 1 2 151 306 150
797 2 2 1 2 372 571 396
798 2 2 1 2 466 467 424
799 2 2 1 2 451 477 416
800 2 2 1 2 495 496 494
801 2 2 1 2 304 564 32
802 2 2 1 2 612 625 426
803 2 2 1 2 321 322 320
804 2 2 1 2 404 614 383
805 2 2 1 2 357 571 372
806 2 2 1 2 419 569 388
807 2 2 1 2 306 566 150
808 2 2 1 2 572 607 445
809 2 2 1 2 518 519 496
810 2 2 1 2 421 568 419
811 2 2 1 2 372 396 386
812 2 2 1 2 485 548 505
813 2 2 1 2 311 574 573
814 2 2 1 2 468 469 462
815 2 2 1 2 435 673 536
816 2 2 1 2 363 365 359
817 2 2 1 2 344 616 341
818 2 2 1 2 422 458 457
819 2 2 1 2 420 422 421
820 2 2 1 2 418 419 388
821 2 2 1 2 392 572 445
822 2 2 1 2 32 564 33
823 2 2 1 2 334 360 332
824 2 2 1 2 445 447 446
825 2 2 1 2 311 573 133
826 2 2 1 2 421 659 568
827 2 2 1 2 378 572 381
828 2 2 1 2 300 609 578
829 2 2 1 2 31 304 32
830 2 2 1 2 41 286 42
831 2 2 1 2 300 605 135
832 2 2 1 2 296 597 138
833 2 2 1 2 392 445 431
834 2 2 1 2 311 605 575
835 2 2 1 2 381 572 392
836 2 2 1 2 400 401 399
837 2 2 1 2 591 592 584
838 2 2 1 2 575 576 574
839 2 2 1 2 575 605 578
840 2 2 1 2 581 595 580
841 2 2 1 2 583 591 584
842 2 2 1 2 311 575 574
843 2 2 1 2 396 397 386
844 2 2 1 2 345 350 338
845 2 2 1 2 522 523 521
846 2 2 1 2 31 594 304
847 2 2 1 2 288 594 30
848 2 2 1 2 46 542 303
849 2 2 1 2 418 420 419
850 2 2 1 2 132 573 316
851 2 2 1 2 587 591 583
852 2 2 1 2 398 399 397
853 2 2 1 2 132 316 131
854 2 2 1 2 579 581 580
855 2 2 1 2 285 598 148
856 2 2 1 2 579 580 577
857 2 2 1 2 481 484 483
858 2 2 1 2 583 584 581
859 2 2 1 2 445 446 431
860 2 2 1 2 588 589 587
861 2 2 1 2 415 416 414
862 2 2 1 2 448 476 425
863 2 2 1 2 150 566 149
864 2 2 1 2 134 311 133
865 2 2 1 2 137 597 596
866 2 2 1 2 378 615 572
867 2 2 1 2 136 596 300
868 2 2 1 2 139 603 296
869 2 2 1 2 603 604 602
870 2 2 1 2 585 587 583
871 2 2 1 2 136 300 135
872 2 2 1 2 582 583 581
873 2 2 1 2 138 597 137
874 2 2 1 2 575 577 576
875 2 2 1 2 407 466 424
876 2 2 1 2 133 573 132
877 2 2 1 2 147 598 305
878 2 2 1 2 486 488 487
879 2 2 1 2 149 285 148
880 2 2 1 2 592 593 584
881 2 2 1 2 140 603 139
882 2 2 1 2 415 452 450
883 2 2 1 2 452 524 465
884 2 2 1 2 139 296 138
885 2 2 1 2 137 596 136
886 2 2 1 2 147 305 146
887 2 2 1 2 148 598 147
888 2 2 1 2 142 291 141
889 2 2 1 2 145 287 144
890 2 2 1 2 578 579 577
891 2 2 1 2 536 537 478
892 2 2 1 2 134 605 311
893 2 2 1 2 584 595 581
894 2 2 1 2 30 594 31
895 2 2 1 2 135 605 134
896 2 2 1 2 348 616 344
897 2 2 1 2 579 582 581
898 2 2 1 2 447 454 446
899 2 2 1 2 445 607 447
900 2 2 1 2 588 590 589
901 2 2 1 2 585 588 587
902 2 2 1 2 568 569 419
903 2 2 1 2 582 585 583
904 2 2 1 2 381 392 389
905 2 2 1 2 29 288 30
906 2 2 1 2 593 595 584
907 2 2 1 2 26 293 27
908 2 2 1 2 488 490 489
909 2 2 1 2 466 526 467
910 2 2 1 2 570 617 368
911 2 2 1 2 579 609 582
912 2 2 1 2 23 297 24
913 2 2 1 2 467 636 424
914 2 2 1 2 22 606 23
915 2 2 1 2 437 614 404
916 2 2 1 2 21 307 22
917 2 2 1 2 20 608 21
918 2 2 1 2 19 309 20
919 2 2 1 2 423 474 461
920 2 2 1 2 354 425 348
921 2 2 1 2 575 578 577
922 2 2 1 2 463 500 464
923 2 2 1 2 410 637 415
924 2 2 1 2 392 431 412
925 2 2 1 2 323 324 322
926 2 2 1 2 17 314 18
927 2 2 1 2 411 625 473
928 2 2 1 2 582 609 586
929 2 2 1 2 319 321 320
930 2 2 1 2 23 606 297
931 2 2 1 2 463 464 412
932 2 2 1 2 374 376 370
933 2 2 1 2 569 654 570
934 2 2 1 2 578 609 579
935 2 2 1 2 442 546 439
936 2 2 1 2 307 606 22
937 2 2 1 2 392 412 389
938 2 2 1 2 21 608 307
939 2 2 1 2 446 613 431
940 2 2 1 2 343 361 346
941 2 2 1 2 431 463 412
942 2 2 1 2 309 608 20
943 2 2 1 2 459 460 458
944 2 2 1 2 607 650 447
945 2 2 1 2 582 586 585
946 2 2 1 2 412 610 389
947 2 2 1 2 601 602 590
948 2 2 1 2 464 610 412
949 2 2 1 2 389 610 390
950 2 2 1 2 588 601 590
951 2 2 1 2 503 613 446
952 2 2 1 2 387 388 376
953 2 2 1 2 389 390 382
954 2 2 1 2 352 629 571
955 2 2 1 2 371 378 375
956 2 2 1 2 325 326 324
957 2 2 1 2 454 510 503
958 2 2 1 2 381 389 382
959 2 2 1 2 585 611 588
960 2 2 1 2 417 418 388
961 2 2 1 2 423 621 474
962 2 2 1 2 454 503 446
963 2 2 1 2 372 386 385
964 2 2 1 2 357 372 366
965 2 2 1 2 474 475 461
966 2 2 1 2 321 323 322
967 2 2 1 2 329 330 328
968 2 2 1 2 427 428 404
969 2 2 1 2 473 559 507
970 2 2 1 2 586 611 585
971 2 2 1 2 345 351 350
972 2 2 1 2 327 328 326
973 2 2 1 2 367 373 369
974 2 2 1 2 411 473 472
975 2 2 1 2 431 613 463
976 2 2 1 2 448 562 476
977 2 2 1 2 440 468 462
978 2 2 1 2 418 433 420
979 2 2 1 2 588 611 601
980 2 2 1 2 403 404 383
981 2 2 1 2 425 616 348
982 2 2 1 2 405 456 434
983 2 2 1 2 374 387 376
984 2 2 1 2 371 375 374
985 2 2 1 2 354 448 425
986 2 2 1 2 351 356 355
987 2 2 1 2 382 391 379
988 2 2 1 2 378 381 379
989 2 2 1 2 410 414 413
990 2 2 1 2 519 521 520
991 2 2 1 2 423 461 455
992 2 2 1 2 369 371 370
993 2 2 1 2 367 368 358
994 2 2 1 2 461 479 455
995 2 2 1 2 381 382 379
996 2 2 1 2 447 657 454
997 2 2 1 2 473 612 559
998 2 2 1 2 378 379 375
999 2 2 1 2 331 332 330
1000 2 2 1 2 387 423 417
1001 2 2 1 2 571 644 396
1002 2 2 1 2 371 374 370
1003 2 2 1 2 358 617 353
1004 2 2 1 2 411 471 385
1005 2 2 1 2 369 370 368
1006 2 2 1 2 387 417 388
1007 2 2 1 2 422 459 458
1008 2 2 1 2 399 426 397
1009 2 2 1 2 417 622 418
1010 2 2 1 2 486 487 484
1011 2 2 1 2 367 369 368
1012 2 2 1 2 386 411 385
1013 2 2 1 2 423 455 417
1014 2 2 1 2 372 385 366
1015 2 2 1 2 473 507 472
1016 2 2 1 2 54 289 55
1017 2 2 1 2 650 657 447
1018 2 2 1 2 481 483 444
1019 2 2 1 2 371 615 378
1020 2 2 1 2 369 615 371
1021 2 2 1 2 366 367 358
1022 2 2 1 2 411 472 471
1023 2 2 1 2 355 656 350
1024 2 2 1 2 373 615 369
1025 2 2 1 2 418 622 433
1026 2 2 1 2 361 470 346
1027 2 2 1 2 531 652 530
1028 2 2 1 2 357 366 358
1029 2 2 1 2 53 619 54
1030 2 2 1 2 356 363 359
1031 2 2 1 2 55 620 56
1032 2 2 1 2 494 514 492
1033 2 2 1 2 368 617 358
1034 2 2 1 2 347 352 349
1035 2 2 1 2 561 644 470
1036 2 2 1 2 456 513 498
1037 2 2 1 2 52 624 53
1038 2 2 1 2 357 358 353
1039 2 2 1 2 375 621 374
1040 2 2 1 2 455 622 417
1041 2 2 1 2 347 348 344
1042 2 2 1 2 319 320 318
1043 2 2 1 2 349 354 348
1044 2 2 1 2 323 325 324
1045 2 2 1 2 364 394 384
1046 2 2 1 2 51 298 52
1047 2 2 1 2 405 434 401
1048 2 2 1 2 488 489 487
1049 2 2 1 2 56 308 57
1050 2 2 1 2 490 516 489
1051 2 2 1 2 454 658 510
1052 2 2 1 2 367 626 373
1053 2 2 1 2 337 340 339
1054 2 2 1 2 352 357 353
1055 2 2 1 2 428 499 438
1056 2 2 1 2 347 349 348
1057 2 2 1 2 327 329 328
1058 2 2 1 2 470 644 629
1059 2 2 1 2 354 449 448
1060 2 2 1 2 335 632 337
1061 2 2 1 2 519 520 496
1062 2 2 1 2 329 331 330
1063 2 2 1 2 386 625 411
1064 2 2 1 2 374 621 387
1065 2 2 1 2 479 623 455
1066 2 2 1 2 325 327 326
1067 2 2 1 2 629 644 571
1068 2 2 1 2 387 621 423
1069 2 2 1 2 397 625 386
1070 2 2 1 2 459 509 460
1071 2 2 1 2 402 638 407
1072 2 2 1 2 433 635 420
1073 2 2 1 2 542 551 319
1074 2 2 1 2 57 631 58
1075 2 2 1 2 352 353 349
1076 2 2 1 2 471 626 385
1077 2 2 1 2 455 623 622
1078 2 2 1 2 366 626 367
1079 2 2 1 2 466 528 526
1080 2 2 1 2 333 334 332
1081 2 2 1 2 452 636 524
1082 2 2 1 2 325 377 327
1083 2 2 1 2 403 427 404
1084 2 2 1 2 459 511 509
1085 2 2 1 2 331 333 332
1086 2 2 1 2 442 628 546
1087 2 2 1 2 426 625 397
1088 2 2 1 2 385 626 366
1089 2 2 1 2 420 635 422
1090 2 2 1 2 337 339 338
1091 2 2 1 2 498 508 434
1092 2 2 1 2 58 283 59
1093 2 2 1 2 346 347 344
1094 2 2 1 2 456 498 434
1095 2 2 1 2 391 648 642
1096 2 2 1 2 335 337 336
1097 2 2 1 2 343 346 344
1098 2 2 1 2 335 336 334
1099 2 2 1 2 339 345 338
1100 2 2 1 2 337 338 336
1101 2 2 1 2 621 642 474
1102 2 2 1 2 391 642 379
1103 2 2 1 2 408 637 410
1104 2 2 1 2 394 395 384
1105 2 2 1 2 340 343 341
1106 2 2 1 2 476 655 425
1107 2 2 1 2 375 642 621
1108 2 2 1 2 484 641 483
1109 2 2 1 2 657 658 454
1110 2 2 1 2 333 335 334
1111 2 2 1 2 54 619 289
1112 2 2 1 2 331 342 333
1113 2 2 1 2 399 630 426
1114 2 2 1 2 289 620 55
1115 2 2 1 2 401 630 399
1116 2 2 1 2 321 435 323
1117 2 2 1 2 422 635 459
1118 2 2 1 2 340 341 339
1119 2 2 1 2 337 632 340
1120 2 2 1 2 470 629 346
1121 2 2 1 2 617 633 353
1122 2 2 1 2 347 629 352
1123 2 2 1 2 345 453 351
1124 2 2 1 2 349 633 354
1125 2 2 1 2 343 344 341
1126 2 2 1 2 346 629 347
1127 2 2 1 2 379 642 375
1128 2 2 1 2 415 637 452
1129 2 2 1 2 353 633 349
1130 2 2 1 2 403 429 427
1131 2 2 1 2 53 624 619
1132 2 2 1 2 364 383 363
1133 2 2 1 2 384 403 383
1134 2 2 1 2 429 501 427
1135 2 2 1 2 429 502 501
1136 2 2 1 2 40 682 627
1137 2 2 1 2 434 630 401
1138 2 2 1 2 62 639 63
1139 2 2 1 2 516 525 517
1140 2 2 1 2 407 638 466
1141 2 2 1 2 56 620 308
1142 2 2 1 2 516 517 489
1143 2 2 1 2 496 634 494
1144 2 2 1 2 459 635 511
1145 2 2 1 2 642 648 474
1146 2 2 1 2 354 633 449
1147 2 2 1 2 298 624 52
1148 2 2 1 2 444 628 442
1149 2 2 1 2 364 384 383
1150 2 2 1 2 424 637 408
1151 2 2 1 2 508 630 434
1152 2 2 1 2 19 653 309
1153 2 2 1 2 487 641 484
1154 2 2 1 2 61 292 62
1155 2 2 1 2 314 653 18
1156 2 2 1 2 356 364 363
1157 2 2 1 2 494 634 514
1158 2 2 1 2 308 631 57
1159 2 2 1 2 452 637 636
1160 2 2 1 2 640 655 453
1161 2 2 1 2 616 640 341
1162 2 2 1 2 520 634 496
1163 2 2 1 2 64 299 65
1164 2 2 1 2 466 638 528
1165 2 2 1 2 483 628 444
1166 2 2 1 2 339 640 345
1167 2 2 1 2 364 646 394
1168 2 2 1 2 58 631 283
1169 2 2 1 2 341 640 339
1170 2 2 1 2 468 506 469
1171 2 2 1 2 335 645 632
1172 2 2 1 2 345 640 453
1173 2 2 1 2 325 647 377
1174 2 2 1 2 474 648 475
1175 2 2 1 2 65 643 66
1176 2 2 1 2 616 655 640
1177 2 2 1 2 351 646 356
1178 2 2 1 2 333 645 335
1179 2 2 1 2 323 647 325
1180 2 2 1 2 414 539 436
1181 2 2 1 2 342 645 333
1182 2 2 1 2 551 673 435
1183 2 2 1 2 373 650 607
1184 2 2 1 2 630 651 426
1185 2 2 1 2 453 646 351
1186 2 2 1 2 303 542 319
1187 2 2 1 2 356 646 364
1188 2 2 1 2 426 651 612
1189 2 2 1 2 435 647 323
1190 2 2 1 2 636 637 424
1191 2 2 1 2 489 649 487
1192 2 2 1 2 568 659 449
1193 2 2 1 2 626 650 373
1194 2 2 1 2 18 653 19
1195 2 2 1 2 508 651 630
1196 2 2 1 2 517 649 489
1197 2 2 1 2 617 654 633
1198 2 2 1 2 633 654 449
1199 2 2 1 2 292 639 62
1200 2 2 1 2 471 650 626
1201 2 2 1 2 471 657 650
1202 2 2 1 2 487 649 641
1203 2 2 1 2 533 669 395
1204 2 2 1 2 449 659 448
1205 2 2 1 2 410 415 414
1206 2 2 1 2 362 656 355
1207 2 2 1 2 570 654 617
1208 2 2 1 2 479 675 623
1209 2 2 1 2 522 691 523
1210 2 2 1 2 623 675 287
1211 2 2 1 2 472 657 471
1212 2 2 1 2 425 655 616
1213 2 2 1 2 656 660 350
1214 2 2 1 2 299 643 65
1215 2 2 1 2 478 663 477
1216 2 2 1 2 472 658 657
1217 2 2 1 2 432 535 409
1218 2 2 1 2 507 658 472
1219 2 2 1 2 476 661 655
1220 2 2 1 2 648 698 694
1221 2 2 1 2 537 670 667
1222 2 2 1 2 560 627 532
1223 2 2 1 2 669 674 429
1224 2 2 1 2 284 665 34
1225 2 2 1 2 448 659 562
1226 2 2 1 2 500 662 464
1227 2 2 1 2 539 560 532
1228 2 2 1 2 646 661 394
1229 2 2 1 2 453 661 646
1230 2 2 1 2 436 539 532
1231 2 2 1 2 562 664 476
1232 2 2 1 2 143 668 142
1233 2 2 1 2 476 664 661
1234 2 2 1 2 303 319 318
1235 2 2 1 2 655 661 453
1236 2 2 1 2 286 667 42
1237 2 2 1 2 661 664 394
1238 2 2 1 2 43 670 44
1239 2 2 1 2 395 669 384
1240 2 2 1 2 403 669 429
1241 2 2 1 2 293 713 613
1242 2 2 1 2 329 672 547
1243 2 2 1 2 537 663 478
1244 2 2 1 2 622 671 433
1245 2 2 1 2 562 666 664
1246 2 2 1 2 394 664 395
1247 2 2 1 2 512 719 317
1248 2 2 1 2 327 672 329
1249 2 2 1 2 685 728 302
1250 2 2 1 2 533 674 669
1251 2 2 1 2 34 665 35
1252 2 2 1 2 144 675 143
1253 2 2 1 2 663 667 286
1254 2 2 1 2 457 666 562
1255 2 2 1 2 500 695 662
1256 2 2 1 2 662 695 297
1257 2 2 1 2 42 667 43
1258 2 2 1 2 664 666 395
1259 2 2 1 2 299 724 541
1260 2 2 1 2 142 668 291
1261 2 2 1 2 670 673 295
1262 2 2 1 2 540 681 541
1263 2 2 1 2 679 684 643
1264 2 2 1 2 391 698 648
1265 2 2 1 2 384 669 403
1266 2 2 1 2 497 678 493
1267 2 2 1 2 50 315 6
1268 2 2 1 2 460 674 533
1269 2 2 1 2 309 690 608
1270 2 2 1 2 44 670 295
1271 2 2 1 2 48 310 49
1272 2 2 1 2 293 677 27
1273 2 2 1 2 541 724 639
1274 2 2 1 2 295 673 551
1275 2 2 1 2 469 681 462
1276 2 2 1 2 537 667 663
1277 2 2 1 2 25 680 26
1278 2 2 1 2 623 671 622
1279 2 2 1 2 532 682 531
1280 2 2 1 2 377 672 327
1281 2 2 1 2 313 685 156
1282 2 2 1 2 39 301 4
1283 2 2 1 2 291 686 604
1284 2 2 1 2 316 676 131
1285 2 2 1 2 155 685 302
1286 2 2 1 2 461 683 479
1287 2 2 1 2 429 674 502
1288 2 2 1 2 37 312 38
1289 2 2 1 2 643 723 679
1290 2 2 1 2 504 689 550
1291 2 2 1 2 287 675 144
1292 2 2 1 2 643 684 66
1293 2 2 1 2 59 687 60
1294 2 2 1 2 506 728 685
1295 2 2 1 2 60 688 61
1296 2 2 1 2 577 690 576
1297 2 2 1 2 479 683 668
1298 2 2 1 2 651 693 612
1299 2 2 1 2 131 676 130
1300 2 2 1 2 27 677 28
1301 2 2 1 2 15 676 16
1302 2 2 1 2 567 722 502
1303 2 2 1 2 493 678 495
1304 2 2 1 2 567 734 509
1305 2 2 1 2 316 714 676
1306 2 2 1 2 506 679 469
1307 2 2 1 2 690 704 608
1308 2 2 1 2 24 695 25
1309 2 2 1 2 529 710 513
1310 2 2 1 2 26 680 293
1311 2 2 1 2 499 696 438
1312 2 2 1 2 462 681 540
1313 2 2 1 2 440 696 468
1314 2 2 1 2 290 702 553
1315 2 2 1 2 519 699 522
1316 2 2 1 2 544 702 543
1317 2 2 1 2 668 683 291
1318 2 2 1 2 480 706 548
1319 2 2 1 2 66 684 67
1320 2 2 1 2 29 701 288
1321 2 2 1 2 475 683 461
1322 2 2 1 2 665 697 35
1323 2 2 1 2 627 682 532
1324 2 2 1 2 315 720 557
1325 2 2 1 2 589 707 587
1326 2 2 1 2 679 723 469
1327 2 2 1 2 512 720 310
1328 2 2 1 2 509 734 460
1329 2 2 1 2 553 715 552
1330 2 2 1 2 523 691 555
1331 2 2 1 2 557 720 512
1332 2 2 1 2 428 708 499
1333 2 2 1 2 501 708 427
1334 2 2 1 2 298 691 624
1335 2 2 1 2 652 705 312
1336 2 2 1 2 463 713 500
1337 2 2 1 2 156 685 155
1338 2 2 1 2 17 714 314
1339 2 2 1 2 566 722 567
1340 2 2 1 2 591 712 592
1341 2 2 1 2 574 731 573
1342 2 2 1 2 604 686 602
1343 2 2 1 2 130 676 15
1344 2 2 1 2 36 697 294
1345 2 2 1 2 283 687 59
1346 2 2 1 2 495 721 518
1347 2 2 1 2 639 724 63
1348 2 2 1 2 550 689 497
1349 2 2 1 2 64 724 299
1350 2 2 1 2 662 716 464
1351 2 2 1 2 658 725 510
1352 2 2 1 2 651 709 693
1353 2 2 1 2 289 699 518
1354 2 2 1 2 61 688 292
1355 2 2 1 2 390 703 382
1356 2 2 1 2 580 690 577
1357 2 2 1 2 502 734 567
1358 2 2 1 2 7 718 157
1359 2 2 1 2 639 706 482
1360 2 2 1 2 67 718 7
1361 2 2 1 2 559 693 304
1362 2 2 1 2 304 693 564
1363 2 2 1 2 677 701 28
1364 2 2 1 2 686 694 602
1365 2 2 1 2 313 684 679
1366 2 2 1 2 3 700 37
1367 2 2 1 2 608 704 307
1368 2 2 1 2 51 692 298
1369 2 2 1 2 612 693 559
1370 2 2 1 2 620 721 308
1371 2 2 1 2 689 729 497
1372 2 2 1 2 500 713 680
1373 2 2 1 2 505 732 504
1374 2 2 1 2 712 716 592
1375 2 2 1 2 292 706 639
1376 2 2 1 2 602 694 590
1377 2 2 1 2 317 719 5
1378 2 2 1 2 606 711 297
1379 2 2 1 2 694 698 590
1380 2 2 1 2 580 704 690
1381 2 2 1 2 297 695 24
1382 2 2 1 2 704 717 307
1383 2 2 1 2 308 721 678
1384 2 2 1 2 37 700 312
1385 2 2 1 2 438 696 440
1386 2 2 1 2 710 727 700
1387 2 2 1 2 714 731 314
1388 2 2 1 2 35 697 36
1389 2 2 1 2 468 728 506
1390 2 2 1 2 619 699 289
1391 2 2 1 2 590 698 589
1392 2 2 1 2 294 710 700
1393 2 2 1 2 674 734 502
1394 2 2 1 2 508 709 651
1395 2 2 1 2 382 703 391
1396 2 2 1 2 693 709 564
1397 2 2 1 2 294 700 3
1398 2 2 1 2 676 714 16
1399 2 2 1 2 5 719 48
1400 2 2 1 2 687 732 505
1401 2 2 1 2 518 699 519
1402 2 2 1 2 298 730 691
1403 2 2 1 2 543 702 290
1404 2 2 1 2 508 733 709
1405 2 2 1 2 652 727 534
1406 2 2 1 2 28 701 29
1407 2 2 1 2 308 729 631
1408 2 2 1 2 312 727 652
1409 2 2 1 2 595 704 580
1410 2 2 1 2 307 717 606
1411 2 2 1 2 48 719 310
1412 2 2 1 2 691 730 555
1413 2 2 1 2 482 706 480
1414 2 2 1 2 38 705 39
1415 2 2 1 2 587 707 591
1416 2 2 1 2 595 717 704
1417 2 2 1 2 534 710 529
1418 2 2 1 2 564 709 284
1419 2 2 1 2 610 712 390
1420 2 2 1 2 427 708 428
1421 2 2 1 2 678 729 308
1422 2 2 1 2 709 733 284
1423 2 2 1 2 157 718 313
1424 2 2 1 2 504 732 689
1425 2 2 1 2 39 705 301
1426 2 2 1 2 312 705 38
1427 2 2 1 2 613 713 463
1428 2 2 1 2 299 723 643
1429 2 2 1 2 16 714 17
1430 2 2 1 2 297 711 662
1431 2 2 1 2 552 715 306
1432 2 2 1 2 680 713 293
1433 2 2 1 2 715 722 306
1434 2 2 1 2 498 733 508
1435 2 2 1 2 464 716 610
1436 2 2 1 2 593 717 595
1437 2 2 1 2 469 723 681
1438 2 2 1 2 555 730 557
1439 2 2 1 2 306 722 566
1440 2 2 1 2 497 729 678
1441 2 2 1 2 302 728 544
1442 2 2 1 2 63 724 64
1443 2 2 1 2 665 733 498
1444 2 2 1 2 284 733 665
1445 2 2 1 2 573 731 316
1446 2 2 1 2 391 703 698
1447 2 2 1 2 507 725 658
1448 2 2 1 2 49 726 50
1449 2 2 1 2 610 716 712
1450 2 2 1 2 681 723 299
1451 2 2 1 2 313 718 684
1452 2 2 1 2 698 703 589
1453 2 2 1 2 50 726 315
1454 2 2 1 2 460 734 674
1455 2 2 1 2 310 726 49
1456 2 2 1 2 678 721 495
1457 2 2 1 2 684 718 67
1458 2 2 1 2 689 732 283
1459 2 2 1 2 557 730 692
1460 2 2 1 2 316 731 714
1461 2 2 1 2 692 730 298
1462 2 2 1 2 315 726 720
1463 2 2 1 2 720 726 310
1464 2 2 1 2 390 712 707
1465 2 2 1 2 283 732 687
1466 2 2 1 2 534 727 710
1467 2 2 1 2 707 712 591
1468 2 2 1 2 700 727 312
$EndElements
