$MeshFormat
2.2 0 8
$EndMeshFormat
$PhysicalNames
7
0 6 "separation-inf"
0 7 "separation-sup"
1 4 "pressure"
1 5 "fixed"
2 1 "body"
2 2 "cover"
2 3 "scar"
$EndPhysicalNames
$Nodes
1084
1 0.6754664043757063 0.4998629534754574 0
2 0.6141515133169286 0.4966495761980856 0
3 0.5742063319267456 0.4945561379483682 0
4 0.4727903172005901 0.4892411498328348 0
5 0.3657340441691846 0.4358648610726302 0
6 0 0 0
7 0.07832443735993684 -1.734723475976807e-16 0
8 0.411696710756323 0.3972976044914376 0
9 0.4759304745751662 0.4293233777475604 0
10 0.6786065617502824 0.439945181390183 0
11 0.7207 0.4 0
12 0.7206999999999998 0 0
13 0.7806999999999999 0 0
14 0.7806999999999999 0.4 0
15 0.6601376816110118 0.4990596091561144 0
16 0.6448089588463174 0.4982562648367715 0
17 0.629480236081623 0.4974529205174286 0
18 0.6090418204678582 0.4822202464303536 1.197885362155366e-19
19 0.5952256417466958 0.4756302663781354 1.694065894508593e-19
20 0.5807963090103558 0.4807399619001524 1.19788536215536e-19
21 0.5573036628057197 0.4936703065957793 0
22 0.5404009936846939 0.4927844752431904 0
23 0.523498324563668 0.4918986438906015 0
24 0.5065956554426421 0.4910128125380127 0
25 0.4896929863216162 0.4901269811854237 0
26 0.4553304392647099 0.4872959338991283 0
27 0.4382177408617575 0.4833226788186971 0
28 0.4216869558889431 0.4773758855023666 0
29 0.4059648361705108 0.4695371257711422 0
30 0.3912670411160414 0.4599139234402445 0
31 0.3777951795327663 0.4486382794211359 0
32 0.3539361717766302 0.4218047042638357 0
33 0.3421382993840759 0.4077445474550412 0
34 0.3303404269915215 0.3936843906462466 0
35 0.3185425545989671 0.3796242338374521 0
36 0.3067446822064128 0.3655640770286576 0
37 0.2949468098138585 0.351503920219863 0
38 0.2831489374213041 0.3374437634110685 0
39 0.2713510650287497 0.3233836066022739 0
40 0.2595531926361954 0.3093234497934794 0
41 0.247755320243641 0.2952632929846847 0
42 0.2359574478510866 0.2812031361758902 0
43 0.2241595754585322 0.2671429793670956 0
44 0.2123617030659778 0.2530828225583009 0
45 0.2005638306734234 0.2390226657495064 0
46 0.188765958280869 0.2249625089407118 0
47 0.1769680858883146 0.2109023521319172 0
48 0.1651702134957603 0.1968421953231227 0
49 0.153372341103206 0.1827820385143283 0
50 0.1415744687106517 0.1687218817055337 0
51 0.1297765963180974 0.1546617248967392 0
52 0.1179787239255431 0.1406015680879448 0
53 0.1061808515329888 0.1265414112791503 0
54 0.09438297914043453 0.1124812544703558 0
55 0.08258510674788017 0.09842109766156132 0
56 0.07078723435532586 0.0843609408527668 0
57 0.05898936196277155 0.07030078404397233 0
58 0.04719148957021724 0.05624062723517786 0
59 0.03539361717766293 0.04218047042638334 0
60 0.02359574478510867 0.02812031361758888 0
61 0.01179787239255431 0.01406015680879436 0
62 0.01566488747198735 0 0
63 0.03132977494397473 0 0
64 0.04699466241596211 0 0
65 0.0626595498879495 0 0
66 0.09023058998123634 0.01418920016040826 0
67 0.1021367426025359 0.02837840032081673 0
68 0.1140428952238354 0.04256760048122532 0
69 0.1259490478451349 0.0567568006416338 0
70 0.1378552004664345 0.07094600080204233 0
71 0.149761353087734 0.08513520096245086 0
72 0.1616675057090335 0.0993244011228594 0
73 0.173573658330333 0.1135136012832679 0
74 0.1854798109516325 0.1277028014436764 0
75 0.1973859635729321 0.1418920016040849 0
76 0.2092921161942316 0.1560812017644935 0
77 0.2211982688155311 0.1702704019249019 0
78 0.2331044214368306 0.1844596020853105 0
79 0.2450105740581301 0.198648802245719 0
80 0.2569167266794297 0.2128380024061275 0
81 0.2688228793007292 0.227027202566536 0
82 0.2807290319220287 0.2412164027269445 0
83 0.2926351845433281 0.2554056028873529 0
84 0.3045413371646276 0.2695948030477613 0
85 0.316447489785927 0.2837840032081698 0
86 0.3283536424072264 0.2979732033685782 0
87 0.3402597950285259 0.3121624035289866 0
88 0.3521659476498253 0.3263516036893951 0
89 0.3640721002711248 0.3405408038498036 0
90 0.3759782528924244 0.354730004010212 0
91 0.3878844055137239 0.3689192041706206 0
92 0.3997905581350234 0.3831084043310291 0
93 0.4249222551991461 0.4101252433989161 0
94 0.4404829074571483 0.4199908121638312 0
95 0.4577265352985337 0.4264808541219037 0
96 0.4943555734092677 0.4302889962605261 0
97 0.5127806722433692 0.4312546147734918 0
98 0.5312057710774708 0.4322202332864575 0
99 0.5496308699115723 0.4331858517994232 0
100 0.5680559687456738 0.4341514703123889 0
101 0.5864810675797753 0.4351170888253546 0
102 0.6049061664138767 0.4360827073383203 0
103 0.6233312652479782 0.4370483258512859 0
104 0.6417563640820796 0.4380139443642516 0
105 0.660181462916181 0.4389795628772173 0
106 0.6945446822830998 0.4375276534368993 0
107 0.7082341830277502 0.4290149748404914 0
108 0.717451648405956 0.4157897542553707 0
109 0.7207 0.3818181818181818 0
110 0.7207 0.3636363636363637 0
111 0.7207 0.3454545454545456 0
112 0.7207 0.3272727272727274 0
113 0.7207 0.3090909090909092 0
114 0.7207 0.290909090909091 0
115 0.7207 0.2727272727272728 0
116 0.7207 0.2545454545454546 0
117 0.7207 0.2363636363636365 0
118 0.7207 0.2181818181818183 0
119 0.7207 0.2000000000000001 0
120 0.7207 0.1818181818181819 0
121 0.7207 0.1636363636363637 0
122 0.7207 0.1454545454545455 0
123 0.7207 0.1272727272727273 0
124 0.7207 0.1090909090909091 0
125 0.7207 0.09090909090909099 0
126 0.7207 0.07272727272727275 0
127 0.7207 0.05454545454545456 0
128 0.7207 0.03636363636363638 0
129 0.7207 0.01818181818181819 0
130 0.7356999999999998 0 0
131 0.7506999999999998 0 0
132 0.7656999999999998 0 0
133 0.7806999999999999 0.01818181818181816 0
134 0.7806999999999999 0.03636363636363633 0
135 0.7806999999999999 0.05454545454545447 0
136 0.7806999999999999 0.07272727272727263 0
137 0.7806999999999999 0.09090909090909081 0
138 0.7806999999999999 0.109090909090909 0
139 0.7806999999999999 0.1272727272727272 0
140 0.7806999999999999 0.1454545454545454 0
141 0.7806999999999999 0.1636363636363636 0
142 0.7806999999999999 0.1818181818181818 0
143 0.7806999999999999 0.2 0
144 0.7806999999999999 0.2181818181818181 0
145 0.7806999999999999 0.2363636363636363 0
146 0.7806999999999999 0.2545454545454545 0
147 0.7806999999999999 0.2727272727272727 0
148 0.7806999999999999 0.2909090909090909 0
149 0.7806999999999999 0.309090909090909 0
150 0.7806999999999999 0.3272727272727273 0
151 0.7806999999999999 0.3454545454545455 0
152 0.7806999999999999 0.3636363636363636 0
153 0.7806999999999999 0.3818181818181818 0
154 0.7790780848522558 0.4179374585937456 0
155 0.7742649515839531 0.4352930564713867 0
156 0.7664167300702113 0.4515038074910052 0
157 0.7557880032981501 0.4660438623999005 0
158 0.7427235491268263 0.4784415664919572 0
159 0.7276471562785896 0.4882947592858924 0
160 0.7110478773521176 0.4952838199287833 0
161 0.6934641647860601 0.499182035154126 0
162 0.6008364528535343 0.4959517634481798 0
163 0.58752139239014 0.495253950698274 0
164 0.09667802486393864 0 0
165 0.1150316123679404 0 0
166 0.1333851998719423 0 0
167 0.151738787375944 0 0
168 0.1700923748799458 0 0
169 0.1884459623839476 0 0
170 0.2067995498879495 0 0
171 0.2251531373919513 0 0
172 0.2435067248959531 0 0
173 0.2618603123999549 0 0
174 0.2802138999039567 0 0
175 0.2985674874079585 0 0
176 0.3169210749119603 0 0
177 0.3352746624159621 0 0
178 0.3536282499199639 0 0
179 0.3719818374239657 0 0
180 0.3903354249279674 0 0
181 0.4086890124319691 0 0
182 0.4270425999359708 0 0
183 0.4453961874399726 0 0
184 0.4637497749439743 0 0
185 0.482103362447976 0 0
186 0.5004569499519776 0 0
187 0.5188105374559795 0 0
188 0.5371641249599813 0 0
189 0.5555177124639832 0 0
190 0.5738712999679849 0 0
191 0.5922248874719869 0 0
192 0.6105784749759887 0 0
193 0.6289320624799905 0 0
194 0.6472856499839923 0 0
195 0.6656392374879941 0 0
196 0.683992824991996 0 0
197 0.7023464124959978 0 0
198 0.6680531923628181 0.4849095119963082 0
199 0.7113538937767031 0.4456883710327617 0
200 0.6351077229896616 0.482174150332627 0
201 0.7340904006144194 0.4117434492543804 0
202 0.4814579735137895 0.4753444488366604 0
203 0.5165256503064706 0.477328370956448 0
204 0.5520091699254435 0.4780712143734164 0
205 0.05187389153973021 0.03951864964188984 0
206 0.4069498763275912 0.4519968607089055 0
207 0.4355985778580992 0.4671901101573644 0
208 0.3722845426408666 0.4201023005013627 0
209 0.7361233972183399 0.3546744734619178 0
210 0.7364459164324443 0.1 0
211 0.7364459164324444 0.2272727272727274 0
212 0.7354637943963654 0.04584385495552334 0
213 0.7649540835675557 0.2999999999999999 0
214 0.7652030223433592 0.1545454545454544 0
215 0.7361969776566407 0.2636363636363637 0
216 0.7364459164324444 0.1909090909090909 0
217 0.3484158161654076 0.3904972118480848 0
218 0.3248200713802987 0.3623768982304956 0
219 0.3012243265951901 0.3342565846129066 0
220 0.2776285818100814 0.3061362709953175 0
221 0.7480735347285661 0.4503383175056984 0
222 0.2540328370249725 0.2780159573777282 0
223 0.2304370922398638 0.249895643760139 0
224 0.2068413474547549 0.2217753301425498 0
225 0.1832456026696465 0.1936550165249611 0
226 0.1596498578845376 0.1655347029073717 0
227 0.1360541130994289 0.1374143892897829 0
228 0.1124583683143205 0.1092940756721941 0
229 0.08702071412552492 0.08164160080542177 0
230 0.7650496016159851 0.3911271148319533 0
231 0.6977455642579831 0.4840812611982461 0
232 0.4643168769531122 0.443531675172515 0
233 0.4064923599130329 0.4148800525045417 0
234 0.09569830939009905 0.0455676758997608 0
235 0.765204204825338 0.0818165624264896 0
236 0.7364459164324444 0.3181818181818183 0
237 0.7651968515773333 0.02631609846368682 0
238 0.7649540835675556 0.1181818181818179 0
239 0.7364459164324444 0.1363636363636364 0
240 0.7649540835675556 0.3363636363636364 0
241 0.7649540835675556 0.2454545454545454 0
242 0.7649540835675556 0.209090909090909 0
243 0.6678855049150226 0.4546966944557409 0
244 0.6078408205549445 0.4669600960908849 0
245 0.381901175201433 0.3863250573118305 0
246 0.5016523211128217 0.4464482168474025 0
247 0.357893371637064 0.3578819794347076 0
248 0.334576563129825 0.3294315267086652 0
249 0.5842527317193202 0.463430399110887 0
250 0.3108113892171908 0.3011601793406701 0
251 0.7436806260768988 0.01270586544152319 0
252 0.2870472479147343 0.2728879655098553 0
253 0.2632805206063865 0.2446105727175202 0
254 0.725029357957103 0.4307791382253483 0
255 0.2395137396284382 0.2163332249593261 0
256 0.2157527479107114 0.1880583683131264 0
257 0.7613688308657109 0.4233445823727628 0
258 0.5411680395070882 0.4497892558585294 0
259 0.1919964074192322 0.1597869577028085 0
260 0.6341442049349261 0.4524696134170509 0
261 0.7260387097773727 0.4717736422760033 0
262 0.1682420305551221 0.1315138994134887 0
263 0.6954457342024893 0.4516286918699677 0
264 0.1444840849137335 0.1032364868057568 0
265 0.1207271718825231 0.0749582077352059 0
266 0.05482710615195652 0.01356619049816565 0
267 0.7354455823525834 0.3911989016830748 0
268 0.4458225418945865 0.438788997530938 0
269 0.4290128530159135 0.4311684208958506 0
270 0.7286136900666932 0.4481654535642534 0
271 0.7431678860476674 0.4264144773089174 0
272 0.5684185643296492 0.4701357617354502 0
273 0.62006602347614 0.4725124772635292 0
274 0.7495700277981376 0.4007571584125353 0
275 0.5694980467762556 0.4534529522822338 0
276 0.07051734083435002 0.01668536890892841 0
277 0.4830183177567112 0.4451663276532291 0
278 0.4528568409606367 0.4576723030836113 0
279 0.7105192248833307 0.4624092683529002 0
280 0.3944556464369706 0.4007094418441453 0
281 0.5555954927682381 0.460109700162142 0
282 0.6510287312816654 0.4536015457000941 0
283 0.6598414630470582 0.4694113084599777 0
284 0.6747415519277162 0.4713588456882209 0
285 0.5967168706816999 0.4520309508150416 0
286 0.4730625303116641 0.4596560876683629 0
287 0.08375303416065905 0.03089374415698093 0
288 0.07893510628611244 0.04919115481008324 0
289 0.04179221098257657 0.02561979674204889 0
290 0.5207187209248898 0.4476210185735258 0
291 0.5270431203467392 0.4637349724905184 0
292 0.6440637408956328 0.4680911505240176 0
293 0.7358716096663733 0.3729845506543149 0
294 0.7507009955400067 0.3638617948468357 0
295 0.3598121014188709 0.4052678616457802 0
296 0.3699800243267138 0.3719807274903261 0
297 0.1083240445419296 0.06041207585218417 0
298 0.2516676113283793 0.2305528061851218 0
299 0.275416106385209 0.258791731456104 0
300 0.1804401173711395 0.1458307324559202 0
301 0.1567003699982658 0.1175881414456114 0
302 0.2279222428474711 0.2023124822184551 0
303 0.3229128829787304 0.3152660867236826 0
304 0.346118454085846 0.3436790876121146 0
305 0.2991641078265235 0.2870298461066648 0
306 0.2041796470578193 0.1740722813136151 0
307 0.1329612325410537 0.08934381384227885 0
308 0.7653630534770708 0.0454981583525001 0
309 0.09075967965614484 0.0638744528216027 0
310 0.7651832779044689 0.06384641376715755 0
311 0.7502838949339506 0.07316985782587204 0
312 0.7649540835675557 0.3181818181818181 0
313 0.7650944072302444 0.1363636363636361 0
314 0.7652445121393265 0.1727272727272726 0
315 0.7505542199287407 0.1636363636363636 0
316 0.7364459164324444 0.3000000000000001 0
317 0.7361554878606734 0.2818181818181819 0
318 0.7508457800712593 0.2727272727272728 0
319 0.7363055927697554 0.2454545454545455 0
320 0.7364459164324444 0.2090909090909091 0
321 0.7649540835675557 0.2272727272727273 0
322 0.7364459164324444 0.1181818181818182 0
323 0.7650962072526296 0.1909090909090908 0
324 0.7362447266715604 0.3363714727895635 0
325 0.7650944620786664 0.09999992974317568 0
326 0.1714477302770923 0.1795948597161673 0
327 0.2658307094175269 0.2920761141865225 0
328 0.3366179437728533 0.3764370550392904 0
329 0.09991984025938794 0.09572710433385445 0
330 0.2894264542026356 0.3201964278041126 0
331 0.1242562407068742 0.1233542324809888 0
332 0.2186392198473089 0.2358354869513453 0
333 0.3130221989877441 0.348316741421701 0
334 0.1478519854919831 0.1514745460985775 0
335 0.242234964632418 0.2639558005689344 0
336 0.1950434750621988 0.2077151733337561 0
337 0.4989333977227506 0.4761592822026134 0
338 0.3899219821864222 0.4184006251958055 0
339 0.4023218643037111 0.4336227054129207 0
340 0.6520021266254167 0.4836503325509694 0
341 0.6168709482304071 0.4546587974765457 0
342 0.7361328051444966 0.0263310690187919 0
343 0.4912267689520435 0.4608606651649753 0
344 0.7577328014370024 0.01231343928843592 0
345 0.7502907573612958 0.3825642816275604 0
346 0.6827305329256758 0.4857538710830154 0
347 0.7655712105187289 0.3547911809686983 0
348 0.7504627564376418 0.03720525183859752 0
349 0.7655524636330846 0.3732549759362649 0
350 0.5093499965609526 0.4620254210392473 0
351 0.7356311318868288 0.08189182593443411 0
352 0.7502853125936559 0.05486652999582153 0
353 0.735737092754946 0.1739549913503075 0
354 0.7656629072450539 0.2624086450133287 0
355 0.7656629072450539 0.2830459004412167 0
356 0.7357370927549461 0.1533177359224195 0
357 0.7507157355860319 0.3455558809505632 0
358 0.7355106889684668 0.06384079933072978 0
359 0.7506999999999999 0.2181818181818182 0
360 0.7506997000350111 0.3090909090909091 0
361 0.7506999999999999 0.3272727272727274 0
362 0.7507 0.1999999999999999 0
363 0.7506999999999998 0.109090909090909 0
364 0.7506999999999999 0.2363636363636365 0
365 0.7507 0.1272727272727271 0
366 0.7507018815421397 0.09090909090909044 0
367 0.7506982002100669 0.290909090909091 0
368 0.7507017997899332 0.1454545454545453 0
369 0.7506982002100669 0.2545454545454545 0
370 0.750701799789933 0.1818181818181817 0
371 0.3772326514395037 0.4032529006098138 0
372 0.5337632152470126 0.4783488715584946 0
373 0.7643119756899219 0.4081987407307304 0
374 0.3650658834176118 0.3886627617618462 0
375 0.4195239804350035 0.4595635403531912 0
376 0.3531899971255805 0.3744290037231415 0
377 0.02641752783028328 0.01377268291408945 0
378 0.0673640233935886 0.03626560382217114 0
379 0.465023045544203 0.4747474711942516 0
380 0.3413471131935757 0.3602970873068975 0
381 0.3295626352207531 0.3462012135604255 0
382 0.4319958201977286 0.4499670729517153 0
383 0.3177960904830617 0.3321159875414944 0
384 0.3059679292416315 0.3180464861118442 0
385 0.2940892087298113 0.3041018277238554 0
386 0.2822525174951263 0.2900533642949949 0
387 0.3846664843726719 0.4343837288489026 0
388 0.2703148432815895 0.2763336055240059 0
389 0.2585328207454963 0.2621314075194965 0
390 0.2466509678124927 0.2482704603382249 0
391 0.7116279361317681 0.4782950984339517 0
392 0.7371197113966624 0.4623426175669467 0
393 0.75625284240879 0.4378138122506923 0
394 0.2348630827415504 0.2340494356237884 0
395 0.2229901907120047 0.2202047153124844 0
396 0.2112171657448702 0.2058775028801001 0
397 0.4494053288978813 0.4740456994306105 0
398 0.1993325119801276 0.1921363704467866 0
399 0.1875571450694949 0.1777789946943471 0
400 0.1756779316168601 0.1640654257411303 0
401 0.1639033251666641 0.1496753578360422 0
402 0.1520264496222025 0.1359918811955161 0
403 0.1402478724907078 0.1215725702832291 0
404 0.06308080504080504 0.05438762886289056 0
405 0.1283780659961554 0.1079157368099455 0
406 0.1165498781279793 0.0934976123865382 0
407 0.1041261907579062 0.07877617096873846 0
408 0.07492881690444753 0.06729276036612297 0
409 0.6973525420151285 0.4680989804000013 0
410 0.6217972684390719 0.4862982880657634 0
411 0.04027225646495058 0.01059173403086078 0
412 0.7391483419841622 0.4393147219100307 0
413 0.5567896835417656 0.4461378460829434 0
414 0.5662940973086413 0.4838265825826257 0
415 0.6826941817872314 0.4586284394294973 0
416 0.4156617392959741 0.4261353746235115 0
417 0.5424968157692666 0.466140476117113 0
418 0.4160847505748403 0.4411915742876918 0
419 0.7503076126787327 0.4150391666236301 0
420 0.3931380231000393 0.4460200948597354 0
421 0.7506579772390535 0.02311702080240996 0
422 0.5960090161756652 0.4645129280987372 0
423 0.05650618794989748 0.02636355345323738 0
424 0.7700059306028672 0.01136227118678818 0
425 0.731382686244279 0.01144375052842667 0
426 0.5817043717506114 0.4475631093244418 0
427 0.686912319843771 0.4751286189857341 0
428 0.6310912863032839 0.4655074115597071 0
429 0.7221176510751142 0.4586719485693294 0
430 0.5946545934739043 0.4865265165265635 0
431 0.7047874076784312 0.2092040556270083 0
432 0.5091273057216866 0.0154332847812787 0
433 0.3730441234170703 0.3227203892813735 0
434 0.5228294718230129 0.4157808203724037 0
435 0.3227826212735732 0.2663783724965855 0
436 0.4340774452660813 0.01464029310896642 0
437 0.7034188941868171 0.2819284703925189 0
438 0.5827967790999298 0.01574920176971256 0
439 0.275481033759814 0.2084445492825228 0
440 0.3631627839327128 0.01695059252265563 0
441 0.7051231132256979 0.1381407280520118 0
442 0.5967005855888926 0.4194895171947085 0
443 0.2406255729967736 0.167368780744321 0
444 0.4053037559565451 0.3660945243093878 0
445 0.3089615190125369 0.01645609313776886 0
446 0.7049540835675557 0.3363636363636365 0
447 0.6392890645930774 0.01398717389030923 0
448 0.204138904898138 0.1243419823504236 0
449 0.253303902387865 0.01558924799970401 0
450 0.4691263053583845 0.4117652119265948 0
451 0.7066737688885565 0.08213764449477112 0
452 0.6518313748713048 0.4226081822519213 0
453 0.1691008356298621 0.08244455943493689 0
454 0.5598559346368722 0.4176263291487195 0
455 0.2990264807456929 0.2383309027624035 0
456 0.345655748735981 0.2949605272988748 0
457 0.5450395583588029 0.01869409932818755 0
458 0.4719057845856274 0.01396637169581982 0
459 0.3995122186799682 0.01589467302904607 0
460 0.7054619157995771 0.2451165680259629 0
461 0.7045739132741966 0.171567737679887 0
462 0.2165530482087237 0.01516828364471901 0
463 0.7062973012346285 0.3720692915716236 0
464 0.6750770589420733 0.01480702461436528 0
465 0.1792691686319468 0.01589467302904618 0
466 0.4293458649665158 0.3928407835073868 0
467 0.6940283416315207 0.4213801928353898 0
468 0.1441705582728178 0.05354113410560601 0
469 0.704842839291497 0.04635363253761104 0
470 0.1424188509559775 0.01488031137391599 0
471 0.7055313810269865 0.4039765353003415 0
472 0.1199454609551945 0.02556534523631976 0
473 0.669222422536885 0.4241398329758421 0
474 0.6618346378447131 0.4074322506454544 0
475 0.6435906093727435 0.4062151551171177 0
476 0.6537881228111111 0.3909511501535092 0
477 0.6354639900985161 0.3897271959056319 0
478 0.6456994343086231 0.3744662203824363 0
479 0.6274233199331535 0.373199963748496 0
480 0.6376085559540439 0.3579757992537521 0
481 0.6193542606871498 0.3567192181377173 0
482 0.6295308567787939 0.34151374156541 0
483 0.6112717697837418 0.3402601104427755 0
484 0.6214578431422134 0.3250510080104855 0
485 0.6031988548135245 0.3238007967844788 0
486 0.6133854967587823 0.3085927426842323 0
487 0.5951207225781051 0.3073463214123777 0
488 0.6053154934041198 0.292138674531481 0
489 0.5870361420924555 0.2908966448715473 0
490 0.597241911283817 0.2756816391424455 0
491 0.5789722269840215 0.2744351506078313 0
492 0.5891719092382961 0.2592226150877635 0
493 0.5708888077202074 0.2579818951177797 0
494 0.5810999360004263 0.2427648171603793 0
495 0.562818332072752 0.2415205228216005 0
496 0.5730272824130855 0.2263012375473332 0
497 0.5547384582422041 0.2250601559978228 0
498 0.5649549060957665 0.2098396381507067 0
499 0.5466573850270496 0.2085846237685422 0
500 0.5364454145169464 0.2238315261987118 0
501 0.5283534148270848 0.2073322567849923 0
502 0.5607251969671276 0.2732616359650151 0
503 0.5181308003028409 0.2226000304114396 0
504 0.510036049025397 0.2060967202400828 0
505 0.5568872567984527 0.193358151925809 0
506 0.4997972099288585 0.2213560919134363 0
507 0.4917075810352493 0.2048592410343735 0
508 0.5019495418184378 0.1895984891793706 0
509 0.4836186730915205 0.188360265240535 0
510 0.4938633261792888 0.1731049068191077 0
511 0.4755312634815609 0.1718620016764562 0
512 0.4652832320228154 0.1871211111345735 0
513 0.4571904837777497 0.1706098931121806 0
514 0.4469378974224842 0.1858799139427074 0
515 0.4388407303452294 0.1693567543323531 0
516 0.4857782924375519 0.1566106182256629 0
517 0.5751761299571522 0.1946125861071121 0
518 0.5671090943636631 0.1781513708318323 0
519 0.4285803089956129 0.184632029061477 0
520 0.420483551173037 0.16810669089845 0
521 0.4366829084706125 0.2011605563565618 0
522 0.430745718937815 0.1528325262467289 0
523 0.4123873122516372 0.1515805679392769 0
524 0.5853897900634645 0.1793950483345894 0
525 0.5773238584981093 0.16294250483377 0
526 0.4021219580180672 0.1668552245558971 0
527 0.3940206880296633 0.150322585683728 0
528 0.5849972756867059 0.322671725643903 0
529 0.422653260903084 0.1363107703563 0
530 0.5955990157509381 0.1641827659869955 0
531 0.5875369593545618 0.1477363203337604 0
532 0.3837503977837712 0.1656047483284812 0
533 0.375646176599871 0.1490640214312893 0
534 0.5993872041961359 0.2439415766792956 0
535 0.6058052984600374 0.1489734789488673 0
536 0.5977473505722889 0.1325306281794101 0
537 0.5794753536335447 0.1312921588257521 0
538 0.5896889625126434 0.1160907512315393 0
539 0.5714130821076904 0.1148472458253157 0
540 0.6079563839927831 0.1173297799352669 0
541 0.6138659668795899 0.1654117161691061 0
542 0.3653680870926077 0.1643564024198736 0
543 0.3572658743912708 0.1478094993594707 0
544 0.3675435127551347 0.1325202025427912 0
545 0.3491678936405985 0.1312635047627487 0
546 0.3734739944960997 0.1809002421361607 0
547 0.3594465405241121 0.1159809742034196 0
548 0.3410720798932949 0.1147212007580687 0
549 0.3307921911306325 0.1299999476135087 0
550 0.3226950050884343 0.1134585425125716 0
551 0.5079015815253164 0.2378640619898164 0
552 0.4895526914938161 0.2366167059098499 0
553 0.4976555421079487 0.2531271049631048 0
554 0.4793001574674512 0.2518838643669951 0
555 0.4874052107903436 0.2684030678700091 0
556 0.4690400558998433 0.2671574522635634 0
557 0.4771508573208024 0.2836893603368401 0
558 0.4587728980332012 0.2824415308853924 0
559 0.466890046033369 0.2989802171135843 0
560 0.4852652475476695 0.3002201742157335 0
561 0.4750067688998275 0.3155127401352236 0
562 0.493381234734385 0.3167492594889771 0
563 0.3329756865007623 0.09817913850534565 0
564 0.3145989649237864 0.09690904308751536 0
565 0.5999005845421183 0.1008934990419372 0
566 0.6181599987242971 0.102138292183515 0
567 0.3043177800407607 0.1121972020652107 0
568 0.2962204421600825 0.09564171191742732 0
569 0.6235954497397138 0.2933388767160429 0
570 0.3550837353248035 0.1796541504028508 0
571 0.3631934841643408 0.19621348773947 0
572 0.4485055218550324 0.2977415103513065 0
573 0.4403863451167452 0.2811909712296721 0
574 0.4831271057008046 0.3320411211263963 0
575 0.5014971132572474 0.3332803724590475 0
576 0.6262097194005652 0.1185998844271506 0
577 0.559052418393254 0.1616779452412311 0
578 0.6011850327885202 0.3556079869190151 0
579 0.610113261990255 0.08569500084498693 0
580 0.628370861630515 0.08694428974968249 0
581 0.5918438756336952 0.08444998232442091 0
582 0.2859365364253053 0.1109209643591937 0
583 0.2778399117639375 0.09437874726585349 0
584 0.2940103019145787 0.1274503869168931 0
585 0.6397409171050953 0.3262949749747373 0
586 0.3248817134425623 0.08163333727856836 0
587 0.3432469578062349 0.08290007170558689 0
588 0.4912434402579005 0.3485712992055582 0
589 0.5096131496409323 0.3498084911443574 0
590 0.4647563001081877 0.3308310312992174 0
591 0.5117512612095142 0.3179877988758655 0
592 0.2881236813240384 0.07909055467365622 0
593 0.2697511744813296 0.07782672751998565 0
594 0.2675860858376206 0.1092276795059078 0
595 0.4301096773594899 0.2965007382996563 0
596 0.421987834536663 0.2799409625097397 0
597 0.344791334330472 0.194963920094796 0
598 0.3529130278063702 0.2115370043762435 0
599 0.3713111426988693 0.2127667390726379 0
600 0.4322797445854348 0.2646435791753073 0
601 0.4138695168510598 0.2633778385076011 0
602 0.361034486704731 0.2281114078155875 0
603 0.3351602078660357 0.06637105027769952 0
604 0.3535112793591549 0.06763323796163451 0
605 0.4993576524175881 0.3650833947480617 0
606 0.5177328835106682 0.3663351252076438 0
607 0.5279890743833744 0.35104560036375 0
608 0.5361056357067053 0.3675697995998291 0
609 0.5934542285176572 0.1958450251251336 0
610 0.3778090640031045 0.1172271814560331 0
611 0.6020629802721195 0.06924703476958749 0
612 0.5838134826533478 0.06798630998764565 0
613 0.4410075436105306 0.1375622893595483 0
614 0.4329161460228301 0.1210463903738213 0
615 0.4512607854069957 0.1222984610871181 0
616 0.4431739107782729 0.1057880751262975 0
617 0.4615131846747627 0.107037661546484 0
618 0.4534249308554371 0.09052950989958819 0
619 0.4717582019369232 0.09178565116175774 0
620 0.4350640314791395 0.08924860136207569 0
621 0.463650311333949 0.07525804616837817 0
622 0.4819740523044715 0.07650904635534894 0
623 0.4900777592506009 0.09303159173333087 0
624 0.5003189310748837 0.07778489737596744 0
625 0.508399801393596 0.09427651004314019 0
626 0.5186374132524765 0.07903941970002815 0
627 0.5041054749283947 0.1578549101363157 0
628 0.3366746538262659 0.178393019251569 0
629 0.505760152194216 0.269635886338869 0
630 0.4809843690992389 0.3638703032761696 0
631 0.4035801916311247 0.2786922254704995 0
632 0.2800328497334126 0.06255046552413479 0
633 0.655916914206642 0.3592351299378143 0
634 0.2616657846874135 0.06128134287833542 0
635 0.2513814254524235 0.07655471805536329 0
636 0.2432976322779046 0.06000809035132781 0
637 0.2330061032315629 0.07528663544038511 0
638 0.3263764466455959 0.193710339979356 0
639 0.318256976958464 0.1771268093689115 0
640 0.2249173215428955 0.05873338853553572 0
641 0.4921997758974022 0.06161693491754017 0
642 0.5267142683246585 0.09551847402944436 0
643 0.5164826817746579 0.1107882191308993 0
644 0.5463569710010056 0.3522820930518653 0
645 0.5544740408698677 0.3688038385499033 0
646 0.5369454764395066 0.08028754437121977 0
647 0.5288741494517981 0.06381116720707541 0
648 0.4183130196442393 0.1999131837562498 0
649 0.4712139394874429 0.2353746226533985 0
650 0.426422101360468 0.2164271751413004 0
651 0.3794458340113264 0.2293439942194997 0
652 0.3691618779349759 0.244690480785892 0
653 0.2146148583018397 0.0740194742962082 0
654 0.2070306214358811 0.05779640722736301 0
655 0.3433315937882651 0.2266498802179981 0
656 0.345425545871306 0.05111221111074388 0
657 0.3637715811504622 0.05237216805583078 0
658 0.3718575182067813 0.06888870022726573 0
659 0.3821055243988701 0.05298146839052015 0
660 0.3901974211783509 0.07003286746225679 0
661 0.4004435610598269 0.05411208077981239 0
662 0.3270821055566034 0.04984956537757368 0
663 0.222713212558906 0.09058596814121334 0
664 0.5939372298838376 0.05387017005520561 0
665 0.6122762302519682 0.05422332964710291 0
666 0.5757244562067366 0.05154601233179817 0
667 0.6172311911058058 0.3884952868380291 0
668 0.2043015369595136 0.08931746018082348 0
669 0.5073662699843215 0.381675022911142 0
670 0.4960172832461768 0.1413326594219487 0
671 0.5143464683600816 0.1426111964910434 0
672 0.6240600630501761 0.1502162470830333 0
673 0.6321086003484047 0.1666362451941532 0
674 0.6422947876419512 0.1514643178099375 0
675 0.6503423418233359 0.1678643408268183 0
676 0.6401621612510924 0.1830336618751597 0
677 0.6583811000263347 0.1842614229625798 0
678 0.6482131762427024 0.1994173252787942 0
679 0.6605141015607496 0.1527065046608428 0
680 0.6664235279824423 0.2006458280044591 0
681 0.6562617217529548 0.2158050079573815 0
682 0.6380477727932846 0.2146105861770095 0
683 0.6460941147168845 0.2309641706643251 0
684 0.6643115536253208 0.2321866786454139 0
685 0.6541502037173668 0.2473547165930098 0
686 0.6524798398969665 0.1363121716484853 0
687 0.5382437805716394 0.3357664436028318 0
688 0.4145411147547971 0.1197672107600786 0
689 0.5348172972582943 0.1121388801733181 0
690 0.5224254992006759 0.1590973755305853 0
691 0.5326836399861876 0.1439081070046893 0
692 0.5442219421449817 0.3840955642825131 0
693 0.5625953128660046 0.385327036586351 0
694 0.6359335326625967 0.2461397547102108 0
695 0.6439853212729392 0.2625245775642308 0
696 0.6622077072320113 0.2637422120963692 0
697 0.6520450071840357 0.2789174542676922 0
698 0.573594851555208 0.08311526437873096 0
699 0.4382357452040044 0.3130591189265703 0
700 0.4198226371110177 0.3118197262365188 0
701 0.4279516140742325 0.3283919663242005 0
702 0.4095274088968689 0.3271505714962581 0
703 0.4022738356012517 0.3111547454283001 0
704 0.2719273904642837 0.0462988717076489 0
705 0.2903231573738578 0.04741127296359104 0
706 0.6721192489596319 0.3920970551603036 0
707 0.5646807873708652 0.3534928499821989 0
708 0.6701133956261525 0.2801996889181553 0
709 0.6600838891862872 0.2953066865296137 0
710 0.6773993689964003 0.296120909257328 0
711 0.6680054588601918 0.3116120192235462 0
712 0.3079506124537178 0.1924546379972957 0
713 0.2998302607506236 0.1758643892548856 0
714 0.3101695169587327 0.1605526476404043 0
715 0.2917364627663313 0.1592853874052674 0
716 0.2814014892694214 0.1745997079250415 0
717 0.2737812570991927 0.1583464542551711 0
718 0.6705226475896122 0.1376328118225338 0
719 0.6626319586904551 0.1211825018343969 0
720 0.3371163512472407 0.03470885718781691 0
721 0.3166431400379258 0.2084450677163106 0
722 0.2351952681048697 0.04369224647167519 0
723 0.6038052331084224 0.03737733616476435 0
724 0.6785249117374738 0.1540486944050784 0
725 0.6257533719989941 0.2613099260102761 0
726 0.4085562158603514 0.07126247381198586 0
727 0.4188127727648465 0.05600521765094207 0
728 0.3982888531601858 0.08660938483413938 0
729 0.6798241500072164 0.1230330890860963 0
730 0.6726736712612132 0.1061036734268282 0
731 0.6545964650828164 0.1047451181242913 0
732 0.6648233024069935 0.08956627937448736 0
733 0.4695993657650427 0.1235573398801171 0
734 0.3697006634963494 0.1006842252978234 0
735 0.679039837118679 0.2657400480014658 0
736 0.4080673220593535 0.2151929878936149 0
737 0.5612021654155031 0.1300505212176069 0
738 0.399953059147864 0.1986640109360745 0
739 0.4447889946067422 0.2176651052511094 0
740 0.547210697351765 0.06512018995389302 0
741 0.5381167599288863 0.04908361388707588 0
742 0.5208068468566546 0.04733471516002913 0
743 0.4345134458534162 0.2329015681240316 0
744 0.3875699732499395 0.2458585813626844 0
745 0.377277378212732 0.2611776513457706 0
746 0.358857923960301 0.2600109444166553 0
747 0.6760337239479723 0.1851238436650077 0
748 0.2811745808086683 0.03135149220839534 0
749 0.6910306944742017 0.107485312085818 0
750 0.6879354041681137 0.3109166789430622 0
751 0.6760578934814481 0.3277079050586975 0
752 0.3690922512793394 0.2763737860715528 0
753 0.6216720999307528 0.03921127361650678 0
754 0.6304253119786273 0.05538552354956372 0
755 0.6398065209129988 0.04128811922582487 0
756 0.6486497100395479 0.0567589064387074 0
757 0.6588485392209111 0.04249544752100676 0
758 0.6670294861284325 0.05801441210872699 0
759 0.675719835161228 0.04216955400543476 0
760 0.6872440773041139 0.05638493971420194 0
761 0.4114626810912749 0.04029595367394384 0
762 0.4290498016277957 0.04152322760357247 0
763 0.437168747176377 0.05750953537699038 0
764 0.4473279529487122 0.04303432265311868 0
765 0.2626786879265978 0.1728933827919843 0
766 0.4177382687796206 0.3426510267739039 0
767 0.4361050489039648 0.3447929228882967 0
768 0.39940382834479 0.341350869202753 0
769 0.3740341443478426 0.03711728418413435 0
770 0.531041629908789 0.03210882109686192 0
771 0.6144563495414748 0.0223780347981945 0
772 0.2970523429771982 0.2078207103446034 0
773 0.6870300018494587 0.2008018138255859 0
774 0.4238887703924691 0.3600965359907559 0
775 0.4442889022683519 0.3613032263777929 0
776 0.3186308396956898 0.03335929967782453 0
777 0.2128416234854618 0.1065122903612461 0
778 0.2310537175466372 0.106251197077987 0
779 0.19178943019547 0.1069335719506354 0
780 0.2696756253761162 0.1880879963614395 0
781 0.3520484372576517 0.2775704516332941 0
782 0.3398344278496593 0.2597546397753369 0
783 0.3271896748689287 0.01742308992434755 0
784 0.6499503560999044 0.3104630773428405 0
785 0.1861058649502866 0.08790497729826485 0
786 0.6750321125292307 0.07359600191012455 0
787 0.4554913632258947 0.0588506394762876 0
788 0.466755148837349 0.04372760270905751 0
789 0.4602748707173318 0.02865691197878806 0
790 0.5523423858551062 0.4006216550862303 0
791 0.5705798784501528 0.4019018126664026 0
792 0.5809299441865683 0.3865201936846656 0
793 0.5337230356875541 0.3996800248544505 0
794 0.4166458204252805 0.08791245358101057 0
795 0.4064227249322199 0.1032019839384817 0
796 0.5245836100600837 0.1273789082865145 0
797 0.5062533879157647 0.1260715504788374 0
798 0.6640069654244533 0.375675755202119 0
799 0.6738789637935382 0.3606019991795053 0
800 0.6660066671380255 0.3437374540430741 0
801 0.6869041726320013 0.3447287339184638 0
802 0.6809538254374876 0.3775353905379842 0
803 0.6904155657210189 0.3943450981423627 0
804 0.6804260909249266 0.4100890239260825 0
805 0.3086435312271008 0.04866710354505832 0
806 0.4740472237072251 0.06011721767032269 0
807 0.4863197766069203 0.04573181504380808 0
808 0.6334624139140286 0.4215788611668288 0
809 0.62527561980894 0.4050319168104191 0
810 0.606977838885986 0.4038831009348177 0
811 0.6150904439006633 0.4204964781821309 0
812 0.4776874260994257 0.1400768107312507 0
813 0.5531302552143488 0.1135992931156429 0
814 0.5552738976674316 0.08163162758003295 0
815 0.5571653195318773 0.04813313147834775 0
816 0.6478002184108453 0.3426028732180736 0
817 0.1313955155895128 0.04010316210238241 0
818 0.1491023117274649 0.03338704398270087 0
819 0.1621309148438285 0.04984883188516331 0
820 0.1686711006297431 0.03295664727520725 0
821 0.1799447736714798 0.04626771381084149 0
822 0.1735412607831236 0.06322152783557528 0
823 0.2561720420371864 0.154814754300932 0
824 0.2389230774739153 0.1477375385017787 0
825 0.2515293709023744 0.1397094569967109 0
826 0.2383280776060264 0.1317555786337108 0
827 0.2207012346579145 0.1402884401357951 0
828 0.6385442842870342 0.07179854263826363 0
829 0.6684237404902789 0.1690593566884373 0
830 0.6859902572475824 0.1699188952797052 0
831 0.6954411311854105 0.1545824983777456 0
832 0.6568809354599241 0.07298706866980781 0
833 0.6818138693067732 0.09038406774885954 0
834 0.4545000478263495 0.3461028072510083 0
835 0.616005936014354 0.133784443440205 0
836 0.4452992356789228 0.07402140772063659 0
837 0.6718719718325969 0.2488350568472634 0
838 0.6810177390903234 0.2338637370650509 0
839 0.6743495470240194 0.2169141472799516 0
840 0.6036585774919384 0.1806241407104474 0
841 0.6117240855072043 0.197045692634435 0
842 0.6015192671909734 0.2122678839931446 0
843 0.6578357604411945 0.01467392838873716 0
844 0.5565671092356509 0.3369834229126717 0
845 0.5484616825847438 0.3204754657521371 0
846 0.5748157629832595 0.3380550802917234 0
847 0.5301454018361338 0.3192532857933459 0
848 0.5403960529711211 0.3039902901667477 0
849 0.5586580041481118 0.3050838709175235 0
850 0.5506163503394942 0.2886985145119255 0
851 0.5322418976889256 0.2874274014715368 0
852 0.298405777158365 0.0638601547655856 0
853 0.3065073904511393 0.08037298124420111 0
854 0.6155246269999841 0.2769250105372232 0
855 0.4981612843814907 0.1095370352511506 0
856 0.6074506394482179 0.2604586576784821 0
857 0.3513406795110003 0.09943784395997352 0
858 0.3859160862173658 0.1337805266121784 0
859 0.3978170184037051 0.2304828903817122 0
860 0.6925979920417648 0.01713079533502737 0
861 0.2535435408304039 0.04528463564501339 0
862 0.6176883412935886 0.2449043573170077 0
863 0.3549573347466245 0.03537923376730939 0
864 0.3813489973224647 0.01915185655528667 0
865 0.3933613622445344 0.0349715564230893 0
866 0.5727904028638399 0.3700007898906901 0
867 0.5910879739519265 0.3710720927033027 0
868 0.5036436700882362 0.3014691418314011 0
869 0.449097515357835 0.1540900709365197 0
870 0.2168313483846857 0.04249229559947498 0
871 0.1980770037264413 0.04422232371765267 0
872 0.5913119054314281 0.2274905214295286 0
873 0.4955199980450417 0.2849323055371987 0
874 0.5138892850217095 0.2861826850990118 0
875 0.524107862336389 0.2708845137717214 0
876 0.5160070146738076 0.2543754371003338 0
877 0.5343205379842981 0.2555772183757651 0
878 0.5121885543503431 0.174343266856034 0
879 0.5305091459415804 0.1755928287867548 0
880 0.2872547762389305 0.2239245108974108 0
881 0.6197932954607334 0.2134584746606528 0
882 0.6316523314365036 0.3098229257059461 0
883 0.5644351587513344 0.01631647794996693 0
884 0.5730013302433651 0.03380764772880346 0
885 0.3285804373233996 0.1618308523530826 0
886 0.5450384393318052 0.09693004457853849 0
887 0.3100894362894497 0.2529118951922593 0
888 0.31665219290556 0.2388856605602203 0
889 0.4593497935597693 0.1388246081137601 0
890 0.5407582954784608 0.1604028269080779 0
891 0.3584975040411905 0.3089446717491798 0
892 0.3763883714408663 0.3043222571013257 0
893 0.5413475469105604 0.4166896134009905 0
894 0.5152583222433622 0.3986631853237617 0
895 0.5048403634455061 0.4140393756731723 0
896 0.4970459170651125 0.396938712761354 0
897 0.5202698321525893 0.1908367062935521 0
898 0.6219208496595532 0.1818240582456416 0
899 0.526223982400571 0.2390873721307201 0
900 0.6364028276150425 0.1034046186705614 0
901 0.634252002161491 0.135050815849998 0
902 0.5832406199343438 0.2110594820588265 0
903 0.5198696378820706 0.3345232940160299 0
904 0.3961761477988988 0.1184905755610084 0
905 0.426924470564153 0.0726599482506069 0
906 0.5220330314650686 0.3027344332132544 0
907 0.6337965611799665 0.2777363997310911 0
908 0.4042824349925743 0.1350420394854284 0
909 0.4910259762900898 0.01501984122166999 0
910 0.4977836958654993 0.03056037989234106 0
911 0.4879273143578788 0.1248031883541562 0
912 0.361602148845248 0.08416145328959651 0
913 0.6202988217350865 0.0705489535331979 0
914 0.4674391291189821 0.1553456671326384 0
915 0.4798405197903509 0.1082947639793396 0
916 0.4247939580654233 0.1044941191902943 0
917 0.3168050062147387 0.06510897209336491 0
918 0.5105318621165815 0.0629661464122746 0
919 0.4162472781508079 0.01446929416864873 0
920 0.4506824181439589 0.2659124731483907 0
921 0.6465957248389627 0.08822621285606863 0
922 0.156058880009643 0.06771588330826589 0
923 0.5385869158611416 0.1921007284849985 0
924 0.2594753359847777 0.0930308175234108 0
925 0.4550383857439894 0.2023835348984325 0
926 0.7048997530200953 0.1911996756139701 0
927 0.7053759212754217 0.2624077614088758 0
928 0.706347763671364 0.2272352554573135 0
929 0.2716159815835901 0.01549559825722541 0
930 0.3799487905966086 0.08537880452400937 0
931 0.7049649991680589 0.3009850022806471 0
932 0.5692708940373244 0.1464900586644978 0
933 0.2351289949677993 0.01520707479201439 0
934 0.1974272354956992 0.01527236262971743 0
935 0.581631799572991 0.09963353183391943 0
936 0.7052099328018135 0.06434346314098549 0
937 0.7050173821386169 0.354136487898717 0
938 0.7049540835675557 0.3181818181818183 0
939 0.4566281091668651 0.3142828681694739 0
940 0.4102187564408776 0.183382877028814 0
941 0.2885652274311485 0.1912119985276314 0
942 0.3469756716262073 0.163101955097219 0
943 0.3388849622729128 0.1465460905168178 0
944 0.3508799501683367 0.2436467096660687 0
945 0.3124120763368252 0.1287255830629817 0
946 0.3352988484992477 0.2098619828812219 0
947 0.6444288021412228 0.119882518425814 0
948 0.4814679866971086 0.2201157651326265 0
949 0.6579269185159184 0.3270697173101615 0
950 0.1609155811279448 0.01589467302904601 0
951 0.5258545349278384 0.3828625917427183 0
952 0.4733754923853102 0.2036153181496908 0
953 0.4609657973925867 0.2506476787767491 0
954 0.3910969997501355 0.325902548734696 0
955 0.2842465748753179 0.1431061337097307 0
956 0.4118511562146683 0.2953513302819031 0
957 0.5633482233085239 0.09834750246201002 0
958 0.1967435170017863 0.07308524871782768 0
959 0.4463628108806007 0.3295767858097945 0
960 0.6299768901524284 0.1982316331452821 0
961 0.5783313971710259 0.4185751901833243 0
962 0.2411375964583384 0.0916804636257606 0
963 0.3918536778195056 0.1821279471571101 0
964 0.6419016401185809 0.2940858282393187 0
965 0.3880520410593137 0.1019144765953593 0
966 0.3815658096929927 0.197439156516595 0
967 0.5488171878060921 0.176880642029784 0
968 0.5445385454002163 0.2402759587082539 0
969 0.4728701383532548 0.347361508807059 0
970 0.4631292447346947 0.2188850621142617 0
971 0.3204967373127712 0.1452737284725478 0
972 0.5526154613464087 0.2567673226810886 0
973 0.4626095671270477 0.362752490684004 0
974 0.4707562358865242 0.3792032997272581 0
975 0.4532227834286963 0.3782432413800436 0
976 0.4616292517631067 0.3949656609184067 0
977 0.3896933643356852 0.2139816298366891 0
978 0.3924211556857459 0.2957980753913032 0
979 0.2493459277449968 0.1066356407918748 0
980 0.5423849058890288 0.2720714357378459 0
981 0.550990393220523 0.1452187245529683 0
982 0.4242154838583565 0.2481478556493742 0
983 0.4528798276573553 0.2341459450912308 0
984 0.3021412398541244 0.1439872496484912 0
985 0.5429012268591568 0.1287157390584567 0
986 0.6278793345344545 0.2297792622246703 0
987 0.5565997338677475 0.03064867121612869 0
988 0.2756564974098898 0.1261466718124425 0
989 0.6095977300203936 0.2285945868882285 0
990 0.4425894529151848 0.2493998499941806 0
991 0.5688386887861699 0.2896444904092381 0
992 0.4161658222099634 0.2316845679173575 0
993 0.4890477909981374 0.3803906299736528 0
994 0.5768997219166971 0.306168711093776 0
995 0.5667332594258615 0.3215730461019558 0
996 0.5930549108224867 0.3391657604597493 0
997 0.565463784161061 0.06625542261840811 0
998 0.5829358117968163 0.3545657600411132 0
999 0.4059595617244811 0.2469549303141116 0
1000 0.3956808518640119 0.2622711171844588 0
1001 0.6092430824932057 0.37208211570556 0
1002 0.3862271374070207 0.2774965634396646 0
1003 0.7063246443790393 0.1181336057028033 0
1004 0.479089096789294 0.3957792894767361 0
1005 0.5887827267958839 0.4029613267584531 0
1006 0.2995207202956351 0.0320148260534886 0
1007 0.5991276675655223 0.3874361221564809 0
1008 0.4183114900433909 0.3786284444367294 0
1009 0.3337971023670288 0.24096240416346 0
1010 0.4867312884404552 0.4130224939743239 0
1011 0.6866868022599469 0.2815914057087809 0
1012 0.5266812269947316 0.01571443764574976 0
1013 0.1074145716153622 0.01308122639342846 0
1014 0.2900090315020576 0.01588633494281311 0
1015 0.7063317588267579 0.02797694333112943 0
1016 0.6877313488860102 0.1392131277443267 0
1017 0.2244104303923997 0.1210555495029165 0
1018 0.7069422719306806 0.09989964452544836 0
1019 0.3455106787814133 0.01815429384577966 0
1020 0.2628170392441745 0.0307628055351935 0
1021 0.6901603861252943 0.2516978243555683 0
1022 0.364314218859268 0.2927655980532364 0
1023 0.7061189502547157 0.3888914826228853 0
1024 0.6914861633366928 0.2207304409364245 0
1025 0.3068969811450037 0.2232669379486869 0
1026 0.599385148942728 0.01588709389959686 0
1027 0.3333883876889978 0.2814196696130222 0
1028 0.6913022805707095 0.3650049689109136 0
1029 0.5039019187990685 0.0463738566570091 0
1030 0.3818690634462974 0.3396154666333953 0
1031 0.4522535810695935 0.4093080274927232 0
1032 0.1886469798859642 0.03065102442636652 0
1033 0.2449021477852839 0.03031226084547373 0
1034 0.2503170577541918 0.1836062587857376 0
1035 0.4356525282840915 0.3778072165700367 0
1036 0.2562025848999593 0.1241746069782318 0
1037 0.5888989838865029 0.0291249268993149 0
1038 0.6920330474454623 0.07641457031304005 0
1039 0.6919142481157768 0.03641262818926244 0
1040 0.4790108754838029 0.02961048709024744 0
1041 0.22639430555819 0.02952281175760307 0
1042 0.6919287814783704 0.3275783317912095 0
1043 0.4449502060515835 0.3940364143453105 0
1044 0.515141613955914 0.03090536329426397 0
1045 0.2674652904250632 0.1425565951703438 0
1046 0.1901158059725718 0.05942074155627147 0
1047 0.2073216535432841 0.02955485029592231 0
1048 0.6673805730877438 0.0288594834488729 0
1049 0.4523976524561074 0.01458005074595109 0
1050 0.2261480540276732 0.156349272614258 0
1051 0.326094044627558 0.224446378244548 0
1052 0.691536341744085 0.1843002957810012 0
1053 0.6485489324497379 0.02786526602623951 0
1054 0.3923692000004147 0.3540506176108374 0
1055 0.4401535014711606 0.02912182250473261 0
1056 0.1763152569600778 0.09912330266737146 0
1057 0.1247792704235547 0.01225027177126975 0
1058 0.2594837111276642 0.1985942224855352 0
1059 0.7072354735115088 0.01341914937942057 0
1060 0.378719753482464 0.2901871996776875 0
1061 0.6304157861669479 0.0261511603528089 0
1062 0.6825661723996339 0.4275652319275997 0
1063 0.4230913091895057 0.02777717224091708 0
1064 0.6940131255616104 0.1256613968716804 0
1065 0.6920810937558673 0.2943084933164675 0
1066 0.7100856690457394 0.1545931659502128 0
1067 0.6936431829057043 0.4088446432832463 0
1068 0.6247343475514959 0.01250327380826255 0
1069 0.7049788208413763 0.4168477091953679 0
1070 0.6805379414697174 0.02787589711859256 0
1071 0.6929707970539022 0.2695579627767226 0
1072 0.1829225601580121 0.07442144962352787 0
1073 0.4087349698712183 0.02668172990712903 0
1074 0.3244919291818415 0.2523630460723167 0
1075 0.1337681051637273 0.02602947937240729 0
1076 0.387748891130215 0.3125011273187485 0
1077 0.6948285590271474 0.3805964297255883 0
1078 0.6953845207065598 0.2363636363636364 0
1079 0.6962245238422864 0.0916413048692975 0
1080 0.4382278480117118 0.4057534367257337 0
1081 0.5860774989665325 0.04219907785726884 0
1082 0.4078091660277268 0.3525719450769925 0
1083 0.23939902416022 0.117183808458336 0
1084 0.5444977605481859 0.03600713623104312 0
$EndNodes
$Elements
2168
1 15 2 7 1 1
2 15 2 6 14 14
3 1 2 4 1 1 15
4 1 2 4 1 15 16
5 1 2 4 1 16 17
6 1 2 4 1 17 2
7 1 2 4 3 3 21
8 1 2 4 3 21 22
9 1 2 4 3 22 23
10 1 2 4 3 23 24
11 1 2 4 3 24 25
12 1 2 4 3 25 4
13 1 2 4 4 4 26
14 1 2 4 4 26 27
15 1 2 4 4 27 28
16 1 2 4 4 28 29
17 1 2 4 4 29 30
18 1 2 4 4 30 31
19 1 2 4 4 31 5
20 1 2 4 5 5 32
21 1 2 4 5 32 33
22 1 2 4 5 33 34
23 1 2 4 5 34 35
24 1 2 4 5 35 36
25 1 2 4 5 36 37
26 1 2 4 5 37 38
27 1 2 4 5 38 39
28 1 2 4 5 39 40
29 1 2 4 5 40 41
30 1 2 4 5 41 42
31 1 2 4 5 42 43
32 1 2 4 5 43 44
33 1 2 4 5 44 45
34 1 2 4 5 45 46
35 1 2 4 5 46 47
36 1 2 4 5 47 48
37 1 2 4 5 48 49
38 1 2 4 5 49 50
39 1 2 4 5 50 51
40 1 2 4 5 51 52
41 1 2 4 5 52 53
42 1 2 4 5 53 54
43 1 2 4 5 54 55
44 1 2 4 5 55 56
45 1 2 4 5 56 57
46 1 2 4 5 57 58
47 1 2 4 5 58 59
48 1 2 4 5 59 60
49 1 2 4 5 60 61
50 1 2 4 5 61 6
51 1 2 5 6 6 62
52 1 2 5 6 62 63
53 1 2 5 6 63 64
54 1 2 5 6 64 65
55 1 2 5 6 65 7
56 1 2 5 12 12 130
57 1 2 5 12 130 131
58 1 2 5 12 131 132
59 1 2 5 12 132 13
60 1 2 4 13 13 133
61 1 2 4 13 133 134
62 1 2 4 13 134 135
63 1 2 4 13 135 136
64 1 2 4 13 136 137
65 1 2 4 13 137 138
66 1 2 4 13 138 139
67 1 2 4 13 139 140
68 1 2 4 13 140 141
69 1 2 4 13 141 142
70 1 2 4 13 142 143
71 1 2 4 13 143 144
72 1 2 4 13 144 145
73 1 2 4 13 145 146
74 1 2 4 13 146 147
75 1 2 4 13 147 148
76 1 2 4 13 148 149
77 1 2 4 13 149 150
78 1 2 4 13 150 151
79 1 2 4 13 151 152
80 1 2 4 13 152 153
81 1 2 4 13 153 14
82 1 2 4 14 14 154
83 1 2 4 14 154 155
84 1 2 4 14 155 156
85 1 2 4 14 156 157
86 1 2 4 14 157 158
87 1 2 4 14 158 159
88 1 2 4 14 159 160
89 1 2 4 14 160 161
90 1 2 4 14 161 1
91 1 2 4 15 2 162
92 1 2 4 15 162 163
93 1 2 4 15 163 3
94 1 2 5 16 7 164
95 1 2 5 16 164 165
96 1 2 5 16 165 166
97 1 2 5 16 166 167
98 1 2 5 16 167 168
99 1 2 5 16 168 169
100 1 2 5 16 169 170
101 1 2 5 16 170 171
102 1 2 5 16 171 172
103 1 2 5 16 172 173
104 1 2 5 16 173 174
105 1 2 5 16 174 175
106 1 2 5 16 175 176
107 1 2 5 16 176 177
108 1 2 5 16 177 178
109 1 2 5 16 178 179
110 1 2 5 16 179 180
111 1 2 5 16 180 181
112 1 2 5 16 181 182
113 1 2 5 16 182 183
114 1 2 5 16 183 184
115 1 2 5 16 184 185
116 1 2 5 16 185 186
117 1 2 5 16 186 187
118 1 2 5 16 187 188
119 1 2 5 16 188 189
120 1 2 5 16 189 190
121 1 2 5 16 190 191
122 1 2 5 16 191 192
123 1 2 5 16 192 193
124 1 2 5 16 193 194
125 1 2 5 16 194 195
126 1 2 5 16 195 196
127 1 2 5 16 196 197
128 1 2 5 16 197 12
129 2 2 2 1 341 428 273
130 2 2 2 1 244 341 273
131 2 2 2 1 94 269 93
132 2 2 2 1 269 416 93
133 2 2 2 1 208 387 5
134 2 2 2 1 201 271 254
135 2 2 2 1 254 270 199
136 2 2 2 1 106 263 10
137 2 2 2 1 297 407 309
138 2 2 2 1 378 404 205
139 2 2 2 1 221 392 270
140 2 2 2 1 244 422 285
141 2 2 2 1 270 412 221
142 2 2 2 1 201 254 108
143 2 2 2 1 107 254 199
144 2 2 2 1 288 404 378
145 2 2 2 1 283 284 198
146 2 2 2 1 285 341 244
147 2 2 2 1 263 415 10
148 2 2 2 1 207 382 278
149 2 2 2 1 283 340 292
150 2 2 2 1 204 281 272
151 2 2 2 1 198 340 283
152 2 2 2 1 291 350 290
153 2 2 2 1 278 382 268
154 2 2 2 1 393 412 271
155 2 2 2 1 257 393 271
156 2 2 2 1 61 6 62
157 2 2 2 1 274 345 230
158 2 2 2 1 309 407 229
159 2 2 2 1 268 269 94
160 2 2 2 1 284 346 198
161 2 2 2 1 273 428 200
162 2 2 2 1 203 350 291
163 2 2 2 1 292 340 200
164 2 2 2 1 391 409 279
165 2 2 2 1 65 276 266
166 2 2 2 1 267 274 201
167 2 2 2 1 338 387 208
168 2 2 2 1 7 276 65
169 2 2 2 1 246 277 96
170 2 2 2 1 286 379 278
171 2 2 2 1 11 267 201
172 2 2 2 1 286 343 202
173 2 2 2 1 282 292 260
174 2 2 2 1 95 268 94
175 2 2 2 1 102 341 285
176 2 2 2 1 260 428 341
177 2 2 2 1 272 414 204
178 2 2 2 1 92 280 245
179 2 2 2 1 379 397 278
180 2 2 2 1 200 428 292
181 2 2 2 1 267 345 274
182 2 2 2 1 231 409 391
183 2 2 2 1 5 387 31
184 2 2 2 1 104 282 260
185 2 2 2 1 277 343 286
186 2 2 2 1 375 418 382
187 2 2 2 1 147 355 354
188 2 2 2 1 121 356 353
189 2 2 2 1 152 349 347
190 2 2 2 1 392 429 270
191 2 2 2 1 208 371 338
192 2 2 2 1 338 371 280
193 2 2 2 1 200 410 273
194 2 2 2 1 10 243 105
195 2 2 2 1 246 343 277
196 2 2 2 1 261 391 279
197 2 2 2 1 100 426 275
198 2 2 2 1 221 412 393
199 2 2 2 1 96 277 9
200 2 2 2 1 271 419 257
201 2 2 2 1 66 276 7
202 2 2 2 1 8 280 92
203 2 2 2 1 243 283 282
204 2 2 2 1 288 408 404
205 2 2 2 1 62 377 61
206 2 2 2 1 276 423 266
207 2 2 2 1 284 427 346
208 2 2 2 1 309 408 288
209 2 2 2 1 234 288 287
210 2 2 2 1 63 377 62
211 2 2 2 1 258 291 290
212 2 2 2 1 206 418 375
213 2 2 2 1 234 287 67
214 2 2 2 1 109 267 11
215 2 2 2 1 258 413 281
216 2 2 2 1 347 349 294
217 2 2 2 1 230 373 274
218 2 2 2 1 277 286 232
219 2 2 2 1 354 355 318
220 2 2 2 1 353 356 315
221 2 2 2 1 104 260 103
222 2 2 2 1 258 290 98
223 2 2 2 1 290 350 246
224 2 2 2 1 243 284 283
225 2 2 2 1 154 373 14
226 2 2 2 1 209 294 293
227 2 2 2 1 60 377 289
228 2 2 2 1 297 309 234
229 2 2 2 1 59 205 58
230 2 2 2 1 102 285 101
231 2 2 2 1 209 293 110
232 2 2 2 1 308 352 348
233 2 2 2 1 409 427 415
234 2 2 2 1 275 413 100
235 2 2 2 1 105 282 104
236 2 2 2 1 14 230 153
237 2 2 2 1 232 286 278
238 2 2 2 1 283 292 282
239 2 2 2 1 9 277 232
240 2 2 2 1 97 290 246
241 2 2 2 1 232 278 268
242 2 2 2 1 159 261 158
243 2 2 2 1 155 257 154
244 2 2 2 1 59 289 205
245 2 2 2 1 243 282 105
246 2 2 2 1 161 231 160
247 2 2 2 1 157 221 156
248 2 2 2 1 232 268 95
249 2 2 2 1 97 246 96
250 2 2 2 1 99 258 98
251 2 2 2 1 9 232 95
252 2 2 2 1 32 208 5
253 2 2 2 1 60 289 59
254 2 2 2 1 126 358 351
255 2 2 2 1 98 290 97
256 2 2 2 1 270 429 199
257 2 2 2 1 217 295 33
258 2 2 2 1 234 309 288
259 2 2 2 1 245 296 91
260 2 2 2 1 93 233 8
261 2 2 2 1 68 297 234
262 2 2 2 1 253 298 81
263 2 2 2 1 82 299 253
264 2 2 2 1 74 300 262
265 2 2 2 1 255 302 79
266 2 2 2 1 88 304 248
267 2 2 2 1 86 303 250
268 2 2 2 1 256 306 77
269 2 2 2 1 84 305 252
270 2 2 2 1 72 301 264
271 2 2 2 1 70 307 265
272 2 2 2 1 233 280 8
273 2 2 2 1 281 417 258
274 2 2 2 1 134 308 237
275 2 2 2 1 294 345 293
276 2 2 2 1 90 296 247
277 2 2 2 1 265 297 69
278 2 2 2 1 78 302 256
279 2 2 2 1 252 299 83
280 2 2 2 1 80 298 255
281 2 2 2 1 259 300 75
282 2 2 2 1 250 305 85
283 2 2 2 1 262 301 73
284 2 2 2 1 264 307 71
285 2 2 2 1 248 303 87
286 2 2 2 1 247 304 89
287 2 2 2 1 76 306 259
288 2 2 2 1 134 237 133
289 2 2 2 1 92 245 91
290 2 2 2 1 80 255 79
291 2 2 2 1 68 234 67
292 2 2 2 1 82 253 81
293 2 2 2 1 76 259 75
294 2 2 2 1 74 262 73
295 2 2 2 1 86 250 85
296 2 2 2 1 78 256 77
297 2 2 2 1 72 264 71
298 2 2 2 1 70 265 69
299 2 2 2 1 90 247 89
300 2 2 2 1 88 248 87
301 2 2 2 1 84 252 83
302 2 2 2 1 288 378 287
303 2 2 2 1 91 296 90
304 2 2 2 1 69 297 68
305 2 2 2 1 81 298 80
306 2 2 2 1 75 300 74
307 2 2 2 1 83 299 82
308 2 2 2 1 89 304 88
309 2 2 2 1 85 305 84
310 2 2 2 1 71 307 70
311 2 2 2 1 79 302 78
312 2 2 2 1 87 303 86
313 2 2 2 1 77 306 76
314 2 2 2 1 73 301 72
315 2 2 2 1 135 308 134
316 2 2 2 1 235 310 136
317 2 2 2 1 235 311 310
318 2 2 2 1 135 310 308
319 2 2 2 1 136 310 135
320 2 2 2 1 116 319 215
321 2 2 2 1 144 321 242
322 2 2 2 1 215 317 115
323 2 2 2 1 124 322 123
324 2 2 2 1 211 319 117
325 2 2 2 1 116 215 115
326 2 2 2 1 118 211 117
327 2 2 2 1 140 313 139
328 2 2 2 1 150 312 149
329 2 2 2 1 314 315 214
330 2 2 2 1 138 325 137
331 2 2 2 1 241 321 145
332 2 2 2 1 113 236 112
333 2 2 2 1 114 316 113
334 2 2 2 1 115 317 114
335 2 2 2 1 128 212 127
336 2 2 2 1 139 238 138
337 2 2 2 1 119 320 118
338 2 2 2 1 123 239 122
339 2 2 2 1 120 216 119
340 2 2 2 1 143 323 142
341 2 2 2 1 144 242 143
342 2 2 2 1 242 323 143
343 2 2 2 1 146 241 145
344 2 2 2 1 151 240 150
345 2 2 2 1 215 318 317
346 2 2 2 1 214 313 140
347 2 2 2 1 111 324 209
348 2 2 2 1 149 312 213
349 2 2 2 1 216 320 119
350 2 2 2 1 137 325 235
351 2 2 2 1 238 325 138
352 2 2 2 1 141 314 214
353 2 2 2 1 149 213 148
354 2 2 2 1 113 316 236
355 2 2 2 1 114 317 316
356 2 2 2 1 123 322 239
357 2 2 2 1 210 322 124
358 2 2 2 1 139 313 238
359 2 2 2 1 118 320 211
360 2 2 2 1 142 323 314
361 2 2 2 1 112 324 111
362 2 2 2 1 141 214 140
363 2 2 2 1 117 319 116
364 2 2 2 1 137 235 136
365 2 2 2 1 142 314 141
366 2 2 2 1 125 210 124
367 2 2 2 1 240 312 150
368 2 2 2 1 145 321 144
369 2 2 2 1 111 209 110
370 2 2 2 1 236 324 112
371 2 2 2 1 55 329 54
372 2 2 2 1 41 327 40
373 2 2 2 1 46 224 45
374 2 2 2 1 50 226 49
375 2 2 2 1 42 222 41
376 2 2 2 1 44 223 43
377 2 2 2 1 40 220 39
378 2 2 2 1 48 225 47
379 2 2 2 1 56 229 55
380 2 2 2 1 52 227 51
381 2 2 2 1 35 328 34
382 2 2 2 1 54 228 53
383 2 2 2 1 38 219 37
384 2 2 2 1 34 217 33
385 2 2 2 1 37 333 36
386 2 2 2 1 36 218 35
387 2 2 2 1 51 334 50
388 2 2 2 1 49 326 48
389 2 2 2 1 39 330 38
390 2 2 2 1 43 335 42
391 2 2 2 1 53 331 52
392 2 2 2 1 45 332 44
393 2 2 2 1 47 336 46
394 2 2 2 1 67 287 66
395 2 2 2 1 33 295 32
396 2 2 2 1 233 339 338
397 2 2 2 1 226 326 49
398 2 2 2 1 40 327 220
399 2 2 2 1 54 329 228
400 2 2 2 1 229 329 55
401 2 2 2 1 218 328 35
402 2 2 2 1 223 335 43
403 2 2 2 1 220 330 39
404 2 2 2 1 224 332 45
405 2 2 2 1 36 333 218
406 2 2 2 1 34 328 217
407 2 2 2 1 222 327 41
408 2 2 2 1 227 334 51
409 2 2 2 1 50 334 226
410 2 2 2 1 219 333 37
411 2 2 2 1 52 331 227
412 2 2 2 1 38 330 219
413 2 2 2 1 46 336 224
414 2 2 2 1 228 331 53
415 2 2 2 1 48 326 225
416 2 2 2 1 44 332 223
417 2 2 2 1 42 335 222
418 2 2 2 1 225 336 47
419 2 2 2 1 110 293 109
420 2 2 2 1 280 371 245
421 2 2 2 1 291 372 203
422 2 2 2 1 265 407 297
423 2 2 2 1 15 198 1
424 2 2 2 1 30 206 29
425 2 2 2 1 28 207 27
426 2 2 2 1 307 406 265
427 2 2 2 1 129 342 128
428 2 2 2 1 32 295 208
429 2 2 2 1 103 341 102
430 2 2 2 1 10 415 243
431 2 2 2 1 377 411 289
432 2 2 2 1 257 373 154
433 2 2 2 1 233 338 280
434 2 2 2 1 4 202 25
435 2 2 2 1 279 429 261
436 2 2 2 1 25 337 24
437 2 2 2 1 22 204 21
438 2 2 2 1 24 203 23
439 2 2 2 1 201 419 271
440 2 2 2 1 406 407 265
441 2 2 2 1 11 201 108
442 2 2 2 1 107 199 106
443 2 2 2 1 348 352 212
444 2 2 2 1 264 405 307
445 2 2 2 1 108 254 107
446 2 2 2 1 16 340 15
447 2 2 2 1 274 419 201
448 2 2 2 1 405 406 307
449 2 2 2 1 301 403 264
450 2 2 2 1 209 357 294
451 2 2 2 1 294 349 345
452 2 2 2 1 1 346 161
453 2 2 2 1 249 426 285
454 2 2 2 1 15 340 198
455 2 2 2 1 199 263 106
456 2 2 2 1 109 293 267
457 2 2 2 1 202 337 25
458 2 2 2 1 403 405 264
459 2 2 2 1 65 266 64
460 2 2 2 1 24 337 203
461 2 2 2 1 17 200 16
462 2 2 2 1 262 402 301
463 2 2 2 1 351 358 311
464 2 2 2 1 268 382 269
465 2 2 2 1 66 287 276
466 2 2 2 1 199 429 279
467 2 2 2 1 152 347 151
468 2 2 2 1 300 401 262
469 2 2 2 1 402 403 301
470 2 2 2 1 199 279 263
471 2 2 2 1 153 349 152
472 2 2 2 1 278 397 207
473 2 2 2 1 61 377 60
474 2 2 2 1 260 341 103
475 2 2 2 1 310 352 308
476 2 2 2 1 126 351 125
477 2 2 2 1 122 356 121
478 2 2 2 1 148 355 147
479 2 2 2 1 121 353 120
480 2 2 2 1 147 354 146
481 2 2 2 1 401 402 262
482 2 2 2 1 259 400 300
483 2 2 2 1 235 366 311
484 2 2 2 1 212 358 127
485 2 2 2 1 314 370 315
486 2 2 2 1 215 369 318
487 2 2 2 1 318 367 317
488 2 2 2 1 315 368 214
489 2 2 2 1 205 404 58
490 2 2 2 1 20 249 19
491 2 2 2 1 19 244 18
492 2 2 2 1 400 401 300
493 2 2 2 1 306 399 259
494 2 2 2 1 14 373 230
495 2 2 2 1 200 340 16
496 2 2 2 1 256 398 306
497 2 2 2 1 399 400 259
498 2 2 2 1 271 412 254
499 2 2 2 1 254 412 270
500 2 2 2 1 244 273 18
501 2 2 2 1 292 428 260
502 2 2 2 1 415 427 284
503 2 2 2 1 272 281 275
504 2 2 2 1 128 342 212
505 2 2 2 1 99 413 258
506 2 2 2 1 398 399 306
507 2 2 2 1 202 379 286
508 2 2 2 1 302 396 256
509 2 2 2 1 202 343 337
510 2 2 2 1 294 357 347
511 2 2 2 1 255 395 302
512 2 2 2 1 378 423 276
513 2 2 2 1 198 346 1
514 2 2 2 1 246 350 343
515 2 2 2 1 396 398 256
516 2 2 2 1 293 345 267
517 2 2 2 1 204 417 281
518 2 2 2 1 395 396 302
519 2 2 2 1 298 394 255
520 2 2 2 1 253 390 298
521 2 2 2 1 132 344 131
522 2 2 2 1 101 426 100
523 2 2 2 1 203 372 23
524 2 2 2 1 22 372 204
525 2 2 2 1 230 349 153
526 2 2 2 1 394 395 255
527 2 2 2 1 20 272 249
528 2 2 2 1 151 347 240
529 2 2 2 1 299 389 253
530 2 2 2 1 131 251 130
531 2 2 2 1 390 394 298
532 2 2 2 1 206 420 339
533 2 2 2 1 345 349 230
534 2 2 2 1 308 348 237
535 2 2 2 1 229 408 309
536 2 2 2 1 56 408 229
537 2 2 2 1 252 388 299
538 2 2 2 1 93 416 233
539 2 2 2 1 389 390 253
540 2 2 2 1 261 429 392
541 2 2 2 1 305 386 252
542 2 2 2 1 272 275 249
543 2 2 2 1 388 389 299
544 2 2 2 1 311 366 351
545 2 2 2 1 352 358 212
546 2 2 2 1 355 367 318
547 2 2 2 1 315 370 353
548 2 2 2 1 356 368 315
549 2 2 2 1 318 369 354
550 2 2 2 1 258 417 291
551 2 2 2 1 311 352 310
552 2 2 2 1 125 351 210
553 2 2 2 1 250 385 305
554 2 2 2 1 120 353 216
555 2 2 2 1 239 356 122
556 2 2 2 1 146 354 241
557 2 2 2 1 213 355 148
558 2 2 2 1 204 414 21
559 2 2 2 1 409 415 263
560 2 2 2 1 343 350 337
561 2 2 2 1 386 388 252
562 2 2 2 1 303 384 250
563 2 2 2 1 133 424 13
564 2 2 2 1 357 361 240
565 2 2 2 1 324 361 357
566 2 2 2 1 339 418 206
567 2 2 2 1 324 357 209
568 2 2 2 1 127 358 126
569 2 2 2 1 210 366 363
570 2 2 2 1 216 370 362
571 2 2 2 1 365 368 239
572 2 2 2 1 241 369 364
573 2 2 2 1 360 367 213
574 2 2 2 1 320 362 359
575 2 2 2 1 360 361 236
576 2 2 2 1 359 362 242
577 2 2 2 1 240 361 312
578 2 2 2 1 238 363 325
579 2 2 2 1 238 365 363
580 2 2 2 1 312 361 360
581 2 2 2 1 236 361 324
582 2 2 2 1 322 365 239
583 2 2 2 1 320 359 211
584 2 2 2 1 316 360 236
585 2 2 2 1 321 364 359
586 2 2 2 1 211 364 319
587 2 2 2 1 241 364 321
588 2 2 2 1 321 359 242
589 2 2 2 1 216 362 320
590 2 2 2 1 363 365 322
591 2 2 2 1 312 360 213
592 2 2 2 1 359 364 211
593 2 2 2 1 242 362 323
594 2 2 2 1 313 365 238
595 2 2 2 1 210 363 322
596 2 2 2 1 363 366 325
597 2 2 2 1 362 370 323
598 2 2 2 1 364 369 319
599 2 2 2 1 313 368 365
600 2 2 2 1 316 367 360
601 2 2 2 1 325 366 235
602 2 2 2 1 319 369 215
603 2 2 2 1 323 370 314
604 2 2 2 1 214 368 313
605 2 2 2 1 317 367 316
606 2 2 2 1 12 425 129
607 2 2 2 1 385 386 305
608 2 2 2 1 337 350 203
609 2 2 2 1 248 383 303
610 2 2 2 1 295 371 208
611 2 2 2 1 304 381 248
612 2 2 2 1 384 385 250
613 2 2 2 1 161 346 231
614 2 2 2 1 4 379 202
615 2 2 2 1 342 348 212
616 2 2 2 1 383 384 303
617 2 2 2 1 275 426 249
618 2 2 2 1 295 374 371
619 2 2 2 1 245 374 296
620 2 2 2 1 285 422 249
621 2 2 2 1 247 380 304
622 2 2 2 1 374 376 296
623 2 2 2 1 381 383 248
624 2 2 2 1 296 376 247
625 2 2 2 1 371 374 245
626 2 2 2 1 23 372 22
627 2 2 2 1 380 381 304
628 2 2 2 1 342 425 251
629 2 2 2 1 129 425 342
630 2 2 2 1 26 379 4
631 2 2 2 1 217 374 295
632 2 2 2 1 376 380 247
633 2 2 2 1 289 411 266
634 2 2 2 1 217 376 374
635 2 2 2 1 17 410 200
636 2 2 2 1 287 378 276
637 2 2 2 1 29 375 28
638 2 2 2 1 328 376 217
639 2 2 2 1 328 380 376
640 2 2 2 1 218 380 328
641 2 2 2 1 333 381 218
642 2 2 2 1 218 381 380
643 2 2 2 1 28 375 207
644 2 2 2 1 206 375 29
645 2 2 2 1 347 357 240
646 2 2 2 1 333 383 381
647 2 2 2 1 219 383 333
648 2 2 2 1 155 393 257
649 2 2 2 1 159 391 261
650 2 2 2 1 261 392 158
651 2 2 2 1 231 391 160
652 2 2 2 1 330 384 219
653 2 2 2 1 221 393 156
654 2 2 2 1 219 384 383
655 2 2 2 1 157 392 221
656 2 2 2 1 131 344 251
657 2 2 2 1 330 385 384
658 2 2 2 1 339 387 338
659 2 2 2 1 220 385 330
660 2 2 2 1 327 386 220
661 2 2 2 1 311 358 352
662 2 2 2 1 351 366 210
663 2 2 2 1 220 386 385
664 2 2 2 1 239 368 356
665 2 2 2 1 353 370 216
666 2 2 2 1 213 367 355
667 2 2 2 1 354 369 241
668 2 2 2 1 207 397 27
669 2 2 2 1 327 388 386
670 2 2 2 1 222 388 327
671 2 2 2 1 335 389 222
672 2 2 2 1 222 389 388
673 2 2 2 1 64 411 63
674 2 2 2 1 335 390 389
675 2 2 2 1 223 390 335
676 2 2 2 1 3 414 20
677 2 2 2 1 332 394 223
678 2 2 2 1 223 394 390
679 2 2 2 1 156 393 155
680 2 2 2 1 160 391 159
681 2 2 2 1 158 392 157
682 2 2 2 1 224 395 332
683 2 2 2 1 332 395 394
684 2 2 2 1 27 397 26
685 2 2 2 1 336 396 224
686 2 2 2 1 224 396 395
687 2 2 2 1 225 398 336
688 2 2 2 1 336 398 396
689 2 2 2 1 326 399 225
690 2 2 2 1 225 399 398
691 2 2 2 1 13 424 132
692 2 2 2 1 226 400 326
693 2 2 2 1 326 400 399
694 2 2 2 1 130 425 12
695 2 2 2 1 372 417 204
696 2 2 2 1 334 401 226
697 2 2 2 1 226 401 400
698 2 2 2 1 21 414 3
699 2 2 2 1 227 402 334
700 2 2 2 1 334 402 401
701 2 2 2 1 58 404 57
702 2 2 2 1 18 410 2
703 2 2 2 1 331 403 227
704 2 2 2 1 227 403 402
705 2 2 2 1 31 420 30
706 2 2 2 1 237 424 133
707 2 2 2 1 228 405 331
708 2 2 2 1 331 405 403
709 2 2 2 1 266 423 289
710 2 2 2 1 329 406 228
711 2 2 2 1 228 406 405
712 2 2 2 1 382 418 269
713 2 2 2 1 229 407 329
714 2 2 2 1 329 407 406
715 2 2 2 1 266 411 64
716 2 2 2 1 404 408 57
717 2 2 2 1 281 413 275
718 2 2 2 1 273 410 18
719 2 2 2 1 57 408 56
720 2 2 2 1 20 414 272
721 2 2 2 1 251 421 342
722 2 2 2 1 2 410 17
723 2 2 2 1 375 382 207
724 2 2 2 1 100 413 99
725 2 2 2 1 373 419 274
726 2 2 2 1 26 397 379
727 2 2 2 1 289 423 205
728 2 2 2 1 279 409 263
729 2 2 2 1 243 415 284
730 2 2 2 1 344 424 237
731 2 2 2 1 257 419 373
732 2 2 2 1 291 417 372
733 2 2 2 1 233 416 339
734 2 2 2 1 285 426 101
735 2 2 2 1 63 411 377
736 2 2 2 1 342 421 348
737 2 2 2 1 387 420 31
738 2 2 2 1 30 420 206
739 2 2 2 1 339 420 387
740 2 2 2 1 249 422 19
741 2 2 2 1 348 421 237
742 2 2 2 1 19 422 244
743 2 2 2 1 237 421 344
744 2 2 2 1 132 424 344
745 2 2 2 1 346 427 231
746 2 2 2 1 251 425 130
747 2 2 2 1 344 421 251
748 2 2 2 1 205 423 378
749 2 2 2 1 416 418 339
750 2 2 2 1 231 427 409
751 2 2 2 1 269 418 416
752 2 2 3 2 163 3 20
753 2 2 3 2 18 2 162
754 2 2 3 2 20 430 163
755 2 2 3 2 162 430 18
756 2 2 3 2 19 430 20
757 2 2 3 2 18 430 19
758 2 2 3 2 163 430 162
759 2 2 1 3 448 827 75
760 2 2 1 3 789 1040 788
761 2 2 1 3 73 779 74
762 2 2 1 3 74 779 448
763 2 2 1 3 760 1039 469
764 2 2 1 3 769 863 440
765 2 2 1 3 439 941 772
766 2 2 1 3 815 884 666
767 2 2 1 3 446 937 801
768 2 2 1 3 773 926 431
769 2 2 1 3 781 1022 456
770 2 2 1 3 469 936 760
771 2 2 1 3 815 987 884
772 2 2 1 3 75 827 76
773 2 2 1 3 458 1040 789
774 2 2 1 3 782 1027 435
775 2 2 1 3 470 950 818
776 2 2 1 3 440 864 769
777 2 2 1 3 443 823 765
778 2 2 1 3 752 1022 781
779 2 2 1 3 178 1019 177
780 2 2 1 3 765 1034 443
781 2 2 1 3 781 1027 782
782 2 2 1 3 780 941 439
783 2 2 1 3 659 865 661
784 2 2 1 3 180 864 179
785 2 2 1 3 934 1047 1032
786 2 2 1 3 176 783 445
787 2 2 1 3 988 1045 1036
788 2 2 1 3 789 1055 1049
789 2 2 1 3 1049 1055 436
790 2 2 1 3 448 1017 827
791 2 2 1 3 759 1039 760
792 2 2 1 3 931 938 750
793 2 2 1 3 1032 1047 871
794 2 2 1 3 1036 1045 825
795 2 2 1 3 448 779 777
796 2 2 1 3 92 1008 8
797 2 2 1 3 445 783 776
798 2 2 1 3 818 950 820
799 2 2 1 3 723 1026 771
800 2 2 1 3 772 880 439
801 2 2 1 3 773 1052 926
802 2 2 1 3 723 1037 1026
803 2 2 1 3 177 1019 783
804 2 2 1 3 1029 1044 742
805 2 2 1 3 661 865 761
806 2 2 1 3 177 783 176
807 2 2 1 3 937 1028 801
808 2 2 1 3 771 1026 192
809 2 2 1 3 801 1042 446
810 2 2 1 3 755 1061 1053
811 2 2 1 3 9 1010 96
812 2 2 1 3 459 864 180
813 2 2 1 3 179 864 440
814 2 2 1 3 770 1012 457
815 2 2 1 3 1053 1061 447
816 2 2 1 3 780 1034 765
817 2 2 1 3 750 1065 931
818 2 2 1 3 769 865 659
819 2 2 1 3 192 1068 771
820 2 2 1 3 457 1084 770
821 2 2 1 3 721 1051 1025
822 2 2 1 3 780 1058 1034
823 2 2 1 3 7 164 66
824 2 2 1 3 910 1044 1029
825 2 2 1 3 8 1008 466
826 2 2 1 3 105 473 10
827 2 2 1 3 975 1043 1035
828 2 2 1 3 788 1040 807
829 2 2 1 3 826 1036 825
830 2 2 1 3 73 1056 779
831 2 2 1 3 1006 1014 445
832 2 2 1 3 431 1024 773
833 2 2 1 3 440 1019 178
834 2 2 1 3 776 1006 445
835 2 2 1 3 863 1019 440
836 2 2 1 3 450 1010 9
837 2 2 1 3 96 1010 895
838 2 2 1 3 748 1014 1006
839 2 2 1 3 444 1008 92
840 2 2 1 3 459 865 864
841 2 2 1 3 820 950 465
842 2 2 1 3 818 1075 470
843 2 2 1 3 1025 1051 888
844 2 2 1 3 96 895 97
845 2 2 1 3 777 1017 448
846 2 2 1 3 434 894 793
847 2 2 1 3 831 1016 441
848 2 2 1 3 793 893 434
849 2 2 1 3 1035 1043 466
850 2 2 1 3 927 1021 460
851 2 2 1 3 467 1062 804
852 2 2 1 3 826 1083 1036
853 2 2 1 3 790 893 793
854 2 2 1 3 910 1029 807
855 2 2 1 3 976 1004 450
856 2 2 1 3 751 801 800
857 2 2 1 3 954 1030 433
858 2 2 1 3 800 949 751
859 2 2 1 3 816 949 800
860 2 2 1 3 433 1076 954
861 2 2 1 3 454 893 790
862 2 2 1 3 830 831 461
863 2 2 1 3 474 804 473
864 2 2 1 3 807 1040 910
865 2 2 1 3 11 1023 109
866 2 2 1 3 97 895 434
867 2 2 1 3 790 791 454
868 2 2 1 3 774 1008 444
869 2 2 1 3 810 811 442
870 2 2 1 3 791 961 454
871 2 2 1 3 803 804 706
872 2 2 1 3 802 803 706
873 2 2 1 3 669 951 894
874 2 2 1 3 894 951 793
875 2 2 1 3 778 1017 777
876 2 2 1 3 452 473 105
877 2 2 1 3 961 1005 442
878 2 2 1 3 927 1071 1021
879 2 2 1 3 815 997 740
880 2 2 1 3 585 949 816
881 2 2 1 3 585 882 784
882 2 2 1 3 706 804 474
883 2 2 1 3 864 865 769
884 2 2 1 3 732 832 786
885 2 2 1 3 689 985 796
886 2 2 1 3 569 964 882
887 2 2 1 3 784 949 585
888 2 2 1 3 786 833 732
889 2 2 1 3 882 964 784
890 2 2 1 3 814 957 886
891 2 2 1 3 471 1023 11
892 2 2 1 3 698 957 814
893 2 2 1 3 689 886 813
894 2 2 1 3 854 856 725
895 2 2 1 3 434 895 894
896 2 2 1 3 854 907 569
897 2 2 1 3 886 957 813
898 2 2 1 3 894 896 669
899 2 2 1 3 907 964 569
900 2 2 1 3 725 907 854
901 2 2 1 3 622 806 641
902 2 2 1 3 534 862 856
903 2 2 1 3 442 1005 810
904 2 2 1 3 813 985 689
905 2 2 1 3 442 811 102
906 2 2 1 3 730 833 749
907 2 2 1 3 1055 1063 436
908 2 2 1 3 791 1005 961
909 2 2 1 3 856 862 725
910 2 2 1 3 441 1066 831
911 2 2 1 3 666 997 815
912 2 2 1 3 809 811 810
913 2 2 1 3 850 980 502
914 2 2 1 3 732 833 730
915 2 2 1 3 732 921 832
916 2 2 1 3 620 916 794
917 2 2 1 3 866 998 867
918 2 2 1 3 851 980 850
919 2 2 1 3 794 916 795
920 2 2 1 3 867 998 578
921 2 2 1 3 795 916 688
922 2 2 1 3 452 474 473
923 2 2 1 3 689 796 643
924 2 2 1 3 727 905 726
925 2 2 1 3 102 811 103
926 2 2 1 3 874 875 851
927 2 2 1 3 806 807 641
928 2 2 1 3 477 809 667
929 2 2 1 3 788 807 806
930 2 2 1 3 621 806 622
931 2 2 1 3 846 995 528
932 2 2 1 3 621 836 787
933 2 2 1 3 787 806 621
934 2 2 1 3 844 995 846
935 2 2 1 3 796 797 643
936 2 2 1 3 651 977 859
937 2 2 1 3 872 989 534
938 2 2 1 3 688 904 795
939 2 2 1 3 633 798 478
940 2 2 1 3 851 906 874
941 2 2 1 3 633 799 798
942 2 2 1 3 794 905 620
943 2 2 1 3 670 797 671
944 2 2 1 3 453 922 822
945 2 2 1 3 787 836 763
946 2 2 1 3 874 906 868
947 2 2 1 3 798 802 706
948 2 2 1 3 841 960 881
949 2 2 1 3 836 905 763
950 2 2 1 3 955 984 715
951 2 2 1 3 809 810 667
952 2 2 1 3 670 911 797
953 2 2 1 3 832 921 828
954 2 2 1 3 900 921 731
955 2 2 1 3 900 947 576
956 2 2 1 3 475 809 477
957 2 2 1 3 812 911 670
958 2 2 1 3 103 811 808
959 2 2 1 3 875 980 851
960 2 2 1 3 731 921 732
961 2 2 1 3 890 967 879
962 2 2 1 3 578 998 996
963 2 2 1 3 763 905 727
964 2 2 1 3 671 797 796
965 2 2 1 3 733 911 812
966 2 2 1 3 850 991 849
967 2 2 1 3 1015 1039 860
968 2 2 1 3 726 905 794
969 2 2 1 3 528 995 994
970 2 2 1 3 881 960 682
971 2 2 1 3 610 965 904
972 2 2 1 3 731 947 900
973 2 2 1 3 534 989 862
974 2 2 1 3 103 808 104
975 2 2 1 3 501 923 499
976 2 2 1 3 472 817 68
977 2 2 1 3 895 896 894
978 2 2 1 3 724 830 829
979 2 2 1 3 859 977 736
980 2 2 1 3 805 852 705
981 2 2 1 3 503 899 551
982 2 2 1 3 478 798 476
983 2 2 1 3 872 902 842
984 2 2 1 3 724 831 830
985 2 2 1 3 812 889 733
986 2 2 1 3 991 994 849
987 2 2 1 3 834 959 590
988 2 2 1 3 71 922 453
989 2 2 1 3 868 906 591
990 2 2 1 3 724 829 679
991 2 2 1 3 585 816 482
992 2 2 1 3 786 832 758
993 2 2 1 3 484 882 585
994 2 2 1 3 847 903 591
995 2 2 1 3 580 913 828
996 2 2 1 3 897 923 501
997 2 2 1 3 817 818 468
998 2 2 1 3 688 908 904
999 2 2 1 3 773 839 680
1000 2 2 1 3 633 800 799
1001 2 2 1 3 576 901 835
1002 2 2 1 3 551 899 876
1003 2 2 1 3 504 897 501
1004 2 2 1 3 535 835 672
1005 2 2 1 3 799 802 798
1006 2 2 1 3 577 967 890
1007 2 2 1 3 629 875 874
1008 2 2 1 3 767 959 834
1009 2 2 1 3 805 917 852
1010 2 2 1 3 196 860 464
1011 2 2 1 3 982 990 600
1012 2 2 1 3 804 1062 473
1013 2 2 1 3 680 839 681
1014 2 2 1 3 633 816 800
1015 2 2 1 3 564 853 586
1016 2 2 1 3 684 838 837
1017 2 2 1 3 576 947 901
1018 2 2 1 3 740 997 814
1019 2 2 1 3 454 961 100
1020 2 2 1 3 904 965 795
1021 2 2 1 3 904 908 858
1022 2 2 1 3 852 917 853
1023 2 2 1 3 541 840 530
1024 2 2 1 3 568 853 564
1025 2 2 1 3 828 921 580
1026 2 2 1 3 818 820 819
1027 2 2 1 3 803 1023 471
1028 2 2 1 3 758 832 756
1029 2 2 1 3 679 829 675
1030 2 2 1 3 620 905 836
1031 2 2 1 3 500 899 503
1032 2 2 1 3 800 801 799
1033 2 2 1 3 476 798 706
1034 2 2 1 3 629 874 873
1035 2 2 1 3 499 923 505
1036 2 2 1 3 584 984 955
1037 2 2 1 3 436 1063 919
1038 2 2 1 3 840 898 841
1039 2 2 1 3 443 824 823
1040 2 2 1 3 551 876 553
1041 2 2 1 3 490 856 854
1042 2 2 1 3 684 837 685
1043 2 2 1 3 194 843 447
1044 2 2 1 3 759 760 758
1045 2 2 1 3 618 836 621
1046 2 2 1 3 67 472 68
1047 2 2 1 3 69 817 468
1048 2 2 1 3 844 846 707
1049 2 2 1 3 889 914 869
1050 2 2 1 3 536 835 535
1051 2 2 1 3 898 960 841
1052 2 2 1 3 818 819 468
1053 2 2 1 3 812 914 889
1054 2 2 1 3 620 836 618
1055 2 2 1 3 488 854 569
1056 2 2 1 3 819 922 468
1057 2 2 1 3 591 906 847
1058 2 2 1 3 480 633 478
1059 2 2 1 3 707 866 645
1060 2 2 1 3 496 902 872
1061 2 2 1 3 644 844 707
1062 2 2 1 3 625 855 623
1063 2 2 1 3 634 861 704
1064 2 2 1 3 480 816 633
1065 2 2 1 3 797 855 643
1066 2 2 1 3 476 706 474
1067 2 2 1 3 822 922 819
1068 2 2 1 3 630 973 969
1069 2 2 1 3 530 840 524
1070 2 2 1 3 508 897 504
1071 2 2 1 3 587 857 563
1072 2 2 1 3 482 816 480
1073 2 2 1 3 197 860 196
1074 2 2 1 3 858 908 527
1075 2 2 1 3 756 832 828
1076 2 2 1 3 484 585 482
1077 2 2 1 3 824 825 823
1078 2 2 1 3 640 870 722
1079 2 2 1 3 623 915 619
1080 2 2 1 3 629 873 555
1081 2 2 1 3 494 872 534
1082 2 2 1 3 760 786 758
1083 2 2 1 3 541 898 840
1084 2 2 1 3 591 903 575
1085 2 2 1 3 676 898 673
1086 2 2 1 3 681 839 684
1087 2 2 1 3 104 452 105
1088 2 2 1 3 673 898 541
1089 2 2 1 3 696 735 708
1090 2 2 1 3 757 758 756
1091 2 2 1 3 579 913 580
1092 2 2 1 3 855 915 623
1093 2 2 1 3 657 863 769
1094 2 2 1 3 866 867 792
1095 2 2 1 3 533 858 527
1096 2 2 1 3 697 907 695
1097 2 2 1 3 555 873 557
1098 2 2 1 3 553 876 629
1099 2 2 1 3 835 901 672
1100 2 2 1 3 69 468 70
1101 2 2 1 3 611 913 579
1102 2 2 1 3 757 759 758
1103 2 2 1 3 464 843 195
1104 2 2 1 3 477 478 476
1105 2 2 1 3 891 892 433
1106 2 2 1 3 674 675 673
1107 2 2 1 3 672 673 541
1108 2 2 1 3 674 679 675
1109 2 2 1 3 842 902 609
1110 2 2 1 3 672 674 673
1111 2 2 1 3 196 464 195
1112 2 2 1 3 609 902 517
1113 2 2 1 3 747 773 680
1114 2 2 1 3 562 868 591
1115 2 2 1 3 535 672 541
1116 2 2 1 3 607 903 687
1117 2 2 1 3 677 747 680
1118 2 2 1 3 687 903 847
1119 2 2 1 3 488 569 486
1120 2 2 1 3 68 817 69
1121 2 2 1 3 535 541 530
1122 2 2 1 3 733 889 615
1123 2 2 1 3 718 724 679
1124 2 2 1 3 643 855 625
1125 2 2 1 3 796 985 691
1126 2 2 1 3 828 913 754
1127 2 2 1 3 767 834 775
1128 2 2 1 3 693 866 792
1129 2 2 1 3 820 821 819
1130 2 2 1 3 563 857 548
1131 2 2 1 3 566 576 540
1132 2 2 1 3 755 756 754
1133 2 2 1 3 687 844 644
1134 2 2 1 3 580 900 566
1135 2 2 1 3 654 870 640
1136 2 2 1 3 685 837 696
1137 2 2 1 3 629 876 875
1138 2 2 1 3 756 828 754
1139 2 2 1 3 857 912 734
1140 2 2 1 3 636 861 634
1141 2 2 1 3 840 841 609
1142 2 2 1 3 524 840 609
1143 2 2 1 3 71 453 72
1144 2 2 1 3 438 884 883
1145 2 2 1 3 479 480 478
1146 2 2 1 3 515 869 513
1147 2 2 1 3 439 880 81
1148 2 2 1 3 592 853 568
1149 2 2 1 3 645 866 693
1150 2 2 1 3 876 877 875
1151 2 2 1 3 490 854 488
1152 2 2 1 3 644 707 645
1153 2 2 1 3 510 878 508
1154 2 2 1 3 684 839 838
1155 2 2 1 3 704 748 705
1156 2 2 1 3 438 883 190
1157 2 2 1 3 814 886 646
1158 2 2 1 3 722 861 636
1159 2 2 1 3 599 977 651
1160 2 2 1 3 534 856 492
1161 2 2 1 3 524 609 517
1162 2 2 1 3 607 687 644
1163 2 2 1 3 829 830 747
1164 2 2 1 3 101 442 102
1165 2 2 1 3 714 885 639
1166 2 2 1 3 492 856 490
1167 2 2 1 3 691 981 890
1168 2 2 1 3 848 849 845
1169 2 2 1 3 494 534 492
1170 2 2 1 3 615 889 613
1171 2 2 1 3 912 930 734
1172 2 2 1 3 634 704 632
1173 2 2 1 3 686 718 679
1174 2 2 1 3 687 845 844
1175 2 2 1 3 873 874 868
1176 2 2 1 3 607 644 608
1177 2 2 1 3 84 887 435
1178 2 2 1 3 710 750 711
1179 2 2 1 3 730 749 729
1180 2 2 1 3 455 888 887
1181 2 2 1 3 531 535 530
1182 2 2 1 3 719 729 718
1183 2 2 1 3 525 530 524
1184 2 2 1 3 639 885 628
1185 2 2 1 3 518 524 517
1186 2 2 1 3 675 677 676
1187 2 2 1 3 640 722 636
1188 2 2 1 3 677 680 678
1189 2 2 1 3 486 882 484
1190 2 2 1 3 675 829 677
1191 2 2 1 3 593 632 592
1192 2 2 1 3 88 891 433
1193 2 2 1 3 693 792 791
1194 2 2 1 3 560 868 562
1195 2 2 1 3 824 826 825
1196 2 2 1 3 651 859 744
1197 2 2 1 3 695 907 725
1198 2 2 1 3 540 835 536
1199 2 2 1 3 565 566 540
1200 2 2 1 3 696 708 697
1201 2 2 1 3 708 710 709
1202 2 2 1 3 562 591 575
1203 2 2 1 3 848 850 849
1204 2 2 1 3 74 448 75
1205 2 2 1 3 696 837 735
1206 2 2 1 3 587 912 857
1207 2 2 1 3 776 783 720
1208 2 2 1 3 704 705 632
1209 2 2 1 3 194 447 193
1210 2 2 1 3 496 872 494
1211 2 2 1 3 656 863 657
1212 2 2 1 3 586 603 587
1213 2 2 1 3 662 720 656
1214 2 2 1 3 557 873 560
1215 2 2 1 3 547 610 544
1216 2 2 1 3 753 754 665
1217 2 2 1 3 878 897 508
1218 2 2 1 3 481 482 480
1219 2 2 1 3 853 917 586
1220 2 2 1 3 619 915 617
1221 2 2 1 3 547 734 610
1222 2 2 1 3 646 886 642
1223 2 2 1 3 671 691 690
1224 2 2 1 3 654 871 870
1225 2 2 1 3 564 586 563
1226 2 2 1 3 586 587 563
1227 2 2 1 3 505 517 498
1228 2 2 1 3 544 858 533
1229 2 2 1 3 502 980 972
1230 2 2 1 3 869 914 513
1231 2 2 1 3 603 656 604
1232 2 2 1 3 767 775 774
1233 2 2 1 3 522 869 515
1234 2 2 1 3 569 882 486
1235 2 2 1 3 690 890 879
1236 2 2 1 3 434 893 98
1237 2 2 1 3 613 889 869
1238 2 2 1 3 720 863 656
1239 2 2 1 3 583 592 568
1240 2 2 1 3 670 671 627
1241 2 2 1 3 560 873 868
1242 2 2 1 3 755 757 756
1243 2 2 1 3 477 479 478
1244 2 2 1 3 614 615 613
1245 2 2 1 3 593 634 632
1246 2 2 1 3 657 769 659
1247 2 2 1 3 603 604 587
1248 2 2 1 3 626 642 625
1249 2 2 1 3 538 540 536
1250 2 2 1 3 529 613 522
1251 2 2 1 3 671 690 627
1252 2 2 1 3 681 684 683
1253 2 2 1 3 685 696 695
1254 2 2 1 3 82 880 455
1255 2 2 1 3 691 890 690
1256 2 2 1 3 91 444 92
1257 2 2 1 3 589 607 606
1258 2 2 1 3 658 912 604
1259 2 2 1 3 656 657 604
1260 2 2 1 3 99 454 100
1261 2 2 1 3 713 714 639
1262 2 2 1 3 753 755 754
1263 2 2 1 3 624 625 623
1264 2 2 1 3 195 843 194
1265 2 2 1 3 566 900 576
1266 2 2 1 3 626 646 642
1267 2 2 1 3 516 627 510
1268 2 2 1 3 740 814 646
1269 2 2 1 3 624 626 625
1270 2 2 1 3 545 547 544
1271 2 2 1 3 616 617 615
1272 2 2 1 3 642 886 689
1273 2 2 1 3 483 484 482
1274 2 2 1 3 677 829 747
1275 2 2 1 3 189 883 457
1276 2 2 1 3 662 776 720
1277 2 2 1 3 899 968 877
1278 2 2 1 3 613 869 522
1279 2 2 1 3 529 614 613
1280 2 2 1 3 644 645 608
1281 2 2 1 3 576 835 540
1282 2 2 1 3 550 563 548
1283 2 2 1 3 622 624 623
1284 2 2 1 3 579 580 566
1285 2 2 1 3 455 887 83
1286 2 2 1 3 77 443 78
1287 2 2 1 3 876 899 877
1288 2 2 1 3 80 439 81
1289 2 2 1 3 885 942 628
1290 2 2 1 3 191 438 190
1291 2 2 1 3 604 912 587
1292 2 2 1 3 618 619 617
1293 2 2 1 3 614 616 615
1294 2 2 1 3 99 893 454
1295 2 2 1 3 603 662 656
1296 2 2 1 3 621 622 619
1297 2 2 1 3 622 623 619
1298 2 2 1 3 456 891 87
1299 2 2 1 3 841 881 842
1300 2 2 1 3 674 686 679
1301 2 2 1 3 661 761 727
1302 2 2 1 3 847 848 845
1303 2 2 1 3 589 903 607
1304 2 2 1 3 82 455 83
1305 2 2 1 3 516 670 627
1306 2 2 1 3 548 857 547
1307 2 2 1 3 617 733 615
1308 2 2 1 3 583 593 592
1309 2 2 1 3 610 904 858
1310 2 2 1 3 610 858 544
1311 2 2 1 3 671 796 691
1312 2 2 1 3 761 762 727
1313 2 2 1 3 505 518 517
1314 2 2 1 3 543 544 533
1315 2 2 1 3 616 618 617
1316 2 2 1 3 618 621 619
1317 2 2 1 3 189 457 188
1318 2 2 1 3 517 902 498
1319 2 2 1 3 485 486 484
1320 2 2 1 3 657 659 658
1321 2 2 1 3 675 676 673
1322 2 2 1 3 642 689 643
1323 2 2 1 3 575 903 589
1324 2 2 1 3 84 435 85
1325 2 2 1 3 88 433 89
1326 2 2 1 3 86 456 87
1327 2 2 1 3 607 608 606
1328 2 2 1 3 560 562 561
1329 2 2 1 3 498 902 496
1330 2 2 1 3 764 788 787
1331 2 2 1 3 764 789 788
1332 2 2 1 3 632 852 592
1333 2 2 1 3 734 965 610
1334 2 2 1 3 659 661 660
1335 2 2 1 3 647 740 646
1336 2 2 1 3 762 764 763
1337 2 2 1 3 557 560 559
1338 2 2 1 3 741 815 740
1339 2 2 1 3 661 727 726
1340 2 2 1 3 487 488 486
1341 2 2 1 3 550 564 563
1342 2 2 1 3 523 529 522
1343 2 2 1 3 690 879 878
1344 2 2 1 3 81 880 82
1345 2 2 1 3 518 525 524
1346 2 2 1 3 190 883 189
1347 2 2 1 3 553 629 555
1348 2 2 1 3 525 531 530
1349 2 2 1 3 531 536 535
1350 2 2 1 3 545 548 547
1351 2 2 1 3 558 920 556
1352 2 2 1 3 562 575 574
1353 2 2 1 3 674 901 686
1354 2 2 1 3 622 641 624
1355 2 2 1 3 479 481 480
1356 2 2 1 3 187 432 186
1357 2 2 1 3 686 719 718
1358 2 2 1 3 852 853 592
1359 2 2 1 3 547 857 734
1360 2 2 1 3 83 887 84
1361 2 2 1 3 841 842 609
1362 2 2 1 3 677 678 676
1363 2 2 1 3 512 925 514
1364 2 2 1 3 87 891 88
1365 2 2 1 3 719 730 729
1366 2 2 1 3 653 958 654
1367 2 2 1 3 538 565 540
1368 2 2 1 3 489 490 488
1369 2 2 1 3 788 806 787
1370 2 2 1 3 934 1032 465
1371 2 2 1 3 475 477 476
1372 2 2 1 3 627 878 510
1373 2 2 1 3 665 913 611
1374 2 2 1 3 764 787 763
1375 2 2 1 3 596 600 573
1376 2 2 1 3 104 808 452
1377 2 2 1 3 520 522 515
1378 2 2 1 3 680 681 678
1379 2 2 1 3 580 921 900
1380 2 2 1 3 432 909 186
1381 2 2 1 3 659 660 658
1382 2 2 1 3 661 726 660
1383 2 2 1 3 672 901 674
1384 2 2 1 3 642 643 625
1385 2 2 1 3 762 763 727
1386 2 2 1 3 701 767 766
1387 2 2 1 3 511 516 510
1388 2 2 1 3 491 492 490
1389 2 2 1 3 573 920 558
1390 2 2 1 3 185 909 458
1391 2 2 1 3 657 658 604
1392 2 2 1 3 713 715 714
1393 2 2 1 3 754 913 665
1394 2 2 1 3 98 893 99
1395 2 2 1 3 626 647 646
1396 2 2 1 3 543 545 544
1397 2 2 1 3 651 744 652
1398 2 2 1 3 97 434 98
1399 2 2 1 3 493 494 492
1400 2 2 1 3 509 510 508
1401 2 2 1 3 994 995 849
1402 2 2 1 3 647 741 740
1403 2 2 1 3 687 847 845
1404 2 2 1 3 599 651 602
1405 2 2 1 3 616 620 618
1406 2 2 1 3 751 949 711
1407 2 2 1 3 641 918 624
1408 2 2 1 3 969 973 834
1409 2 2 1 3 521 739 650
1410 2 2 1 3 684 685 683
1411 2 2 1 3 529 688 614
1412 2 2 1 3 432 910 909
1413 2 2 1 3 705 852 632
1414 2 2 1 3 507 508 504
1415 2 2 1 3 710 711 709
1416 2 2 1 3 481 483 482
1417 2 2 1 3 186 909 185
1418 2 2 1 3 617 915 733
1419 2 2 1 3 696 697 695
1420 2 2 1 3 690 878 627
1421 2 2 1 3 708 709 697
1422 2 2 1 3 879 897 878
1423 2 2 1 3 647 918 742
1424 2 2 1 3 520 523 522
1425 2 2 1 3 529 908 688
1426 2 2 1 3 575 589 588
1427 2 2 1 3 742 770 741
1428 2 2 1 3 514 925 521
1429 2 2 1 3 797 911 855
1430 2 2 1 3 495 496 494
1431 2 2 1 3 185 458 184
1432 2 2 1 3 523 908 529
1433 2 2 1 3 626 918 647
1434 2 2 1 3 499 505 498
1435 2 2 1 3 509 511 510
1436 2 2 1 3 497 498 496
1437 2 2 1 3 565 579 566
1438 2 2 1 3 616 916 620
1439 2 2 1 3 767 774 766
1440 2 2 1 3 562 574 561
1441 2 2 1 3 560 561 559
1442 2 2 1 3 726 794 728
1443 2 2 1 3 847 906 848
1444 2 2 1 3 848 851 850
1445 2 2 1 3 483 485 484
1446 2 2 1 3 571 599 598
1447 2 2 1 3 635 636 634
1448 2 2 1 3 688 916 614
1449 2 2 1 3 600 920 573
1450 2 2 1 3 516 812 670
1451 2 2 1 3 664 665 611
1452 2 2 1 3 575 588 574
1453 2 2 1 3 614 916 616
1454 2 2 1 3 691 985 981
1455 2 2 1 3 647 742 741
1456 2 2 1 3 848 906 851
1457 2 2 1 3 527 908 523
1458 2 2 1 3 596 601 600
1459 2 2 1 3 653 654 640
1460 2 2 1 3 70 922 71
1461 2 2 1 3 750 751 711
1462 2 2 1 3 723 753 665
1463 2 2 1 3 485 487 486
1464 2 2 1 3 567 568 564
1465 2 2 1 3 637 640 636
1466 2 2 1 3 511 914 516
1467 2 2 1 3 537 538 536
1468 2 2 1 3 549 550 548
1469 2 2 1 3 468 922 70
1470 2 2 1 3 497 499 498
1471 2 2 1 3 586 917 603
1472 2 2 1 3 487 489 488
1473 2 2 1 3 542 942 543
1474 2 2 1 3 507 509 508
1475 2 2 1 3 645 693 692
1476 2 2 1 3 624 918 626
1477 2 2 1 3 662 805 776
1478 2 2 1 3 582 583 568
1479 2 2 1 3 589 606 605
1480 2 2 1 3 726 728 660
1481 2 2 1 3 516 914 812
1482 2 2 1 3 733 915 911
1483 2 2 1 3 493 495 494
1484 2 2 1 3 489 491 490
1485 2 2 1 3 739 743 650
1486 2 2 1 3 794 795 728
1487 2 2 1 3 495 497 496
1488 2 2 1 3 526 527 523
1489 2 2 1 3 491 493 492
1490 2 2 1 3 521 925 739
1491 2 2 1 3 532 533 527
1492 2 2 1 3 911 915 855
1493 2 2 1 3 693 791 790
1494 2 2 1 3 183 436 182
1495 2 2 1 3 182 919 181
1496 2 2 1 3 711 949 784
1497 2 2 1 3 939 959 699
1498 2 2 1 3 638 639 628
1499 2 2 1 3 581 698 612
1500 2 2 1 3 181 459 180
1501 2 2 1 3 824 827 826
1502 2 2 1 3 664 723 665
1503 2 2 1 3 542 543 533
1504 2 2 1 3 744 745 652
1505 2 2 1 3 589 605 588
1506 2 2 1 3 612 664 611
1507 2 2 1 3 651 652 602
1508 2 2 1 3 879 923 897
1509 2 2 1 3 712 713 639
1510 2 2 1 3 537 539 538
1511 2 2 1 3 612 666 664
1512 2 2 1 3 518 577 525
1513 2 2 1 3 597 628 570
1514 2 2 1 3 603 917 662
1515 2 2 1 3 179 440 178
1516 2 2 1 3 879 967 923
1517 2 2 1 3 663 778 777
1518 2 2 1 3 531 537 536
1519 2 2 1 3 716 717 715
1520 2 2 1 3 513 914 511
1521 2 2 1 3 658 930 912
1522 2 2 1 3 599 602 598
1523 2 2 1 3 581 612 611
1524 2 2 1 3 512 513 511
1525 2 2 1 3 519 520 515
1526 2 2 1 3 581 611 579
1527 2 2 1 3 590 959 939
1528 2 2 1 3 550 567 564
1529 2 2 1 3 593 635 634
1530 2 2 1 3 660 930 658
1531 2 2 1 3 557 559 558
1532 2 2 1 3 514 515 513
1533 2 2 1 3 723 771 753
1534 2 2 1 3 974 976 975
1535 2 2 1 3 736 738 648
1536 2 2 1 3 555 557 556
1537 2 2 1 3 545 549 548
1538 2 2 1 3 606 669 605
1539 2 2 1 3 537 737 539
1540 2 2 1 3 701 959 767
1541 2 2 1 3 765 823 717
1542 2 2 1 3 176 445 175
1543 2 2 1 3 737 813 539
1544 2 2 1 3 645 692 608
1545 2 2 1 3 118 431 119
1546 2 2 1 3 174 929 173
1547 2 2 1 3 553 555 554
1548 2 2 1 3 520 526 523
1549 2 2 1 3 731 732 730
1550 2 2 1 3 509 512 511
1551 2 2 1 3 119 926 120
1552 2 2 1 3 681 683 682
1553 2 2 1 3 781 782 746
1554 2 2 1 3 551 553 552
1555 2 2 1 3 662 917 805
1556 2 2 1 3 605 630 588
1557 2 2 1 3 570 942 542
1558 2 2 1 3 117 928 118
1559 2 2 1 3 120 461 121
1560 2 2 1 3 685 695 694
1561 2 2 1 3 539 957 935
1562 2 2 1 3 497 500 499
1563 2 2 1 3 506 507 504
1564 2 2 1 3 728 930 660
1565 2 2 1 3 116 460 117
1566 2 2 1 3 122 441 123
1567 2 2 1 3 500 501 499
1568 2 2 1 3 503 504 501
1569 2 2 1 3 554 649 552
1570 2 2 1 3 503 551 506
1571 2 2 1 3 173 449 172
1572 2 2 1 3 521 650 648
1573 2 2 1 3 526 532 527
1574 2 2 1 3 595 596 573
1575 2 2 1 3 713 716 715
1576 2 2 1 3 968 972 877
1577 2 2 1 3 115 927 116
1578 2 2 1 3 436 919 182
1579 2 2 1 3 779 785 668
1580 2 2 1 3 528 996 846
1581 2 2 1 3 514 521 519
1582 2 2 1 3 532 542 533
1583 2 2 1 3 565 581 579
1584 2 2 1 3 567 582 568
1585 2 2 1 3 572 573 558
1586 2 2 1 3 702 703 700
1587 2 2 1 3 181 919 459
1588 2 2 1 3 935 957 698
1589 2 2 1 3 572 699 595
1590 2 2 1 3 114 437 115
1591 2 2 1 3 693 790 692
1592 2 2 1 3 597 638 628
1593 2 2 1 3 638 712 639
1594 2 2 1 3 583 924 593
1595 2 2 1 3 514 519 515
1596 2 2 1 3 172 933 171
1597 2 2 1 3 512 514 513
1598 2 2 1 3 635 637 636
1599 2 2 1 3 745 752 746
1600 2 2 1 3 668 958 653
1601 2 2 1 3 113 931 114
1602 2 2 1 3 539 935 538
1603 2 2 1 3 532 546 542
1604 2 2 1 3 808 809 475
1605 2 2 1 3 596 631 601
1606 2 2 1 3 681 682 678
1607 2 2 1 3 543 943 545
1608 2 2 1 3 650 736 648
1609 2 2 1 3 571 598 597
1610 2 2 1 3 477 667 479
1611 2 2 1 3 546 571 570
1612 2 2 1 3 602 655 598
1613 2 2 1 3 638 721 712
1614 2 2 1 3 719 731 730
1615 2 2 1 3 582 594 583
1616 2 2 1 3 491 502 493
1617 2 2 1 3 519 940 520
1618 2 2 1 3 95 450 9
1619 2 2 1 3 699 701 700
1620 2 2 1 3 521 648 519
1621 2 2 1 3 574 590 561
1622 2 2 1 3 790 793 692
1623 2 2 1 3 821 822 819
1624 2 2 1 3 551 552 506
1625 2 2 1 3 553 554 552
1626 2 2 1 3 100 961 101
1627 2 2 1 3 685 694 683
1628 2 2 1 3 663 962 778
1629 2 2 1 3 745 746 652
1630 2 2 1 3 502 991 850
1631 2 2 1 3 555 556 554
1632 2 2 1 3 559 572 558
1633 2 2 1 3 557 558 556
1634 2 2 1 3 171 462 170
1635 2 2 1 3 712 941 713
1636 2 2 1 3 716 765 717
1637 2 2 1 3 503 506 504
1638 2 2 1 3 485 528 487
1639 2 2 1 3 716 780 765
1640 2 2 1 3 581 935 698
1641 2 2 1 3 996 998 846
1642 2 2 1 3 577 932 525
1643 2 2 1 3 546 570 542
1644 2 2 1 3 701 766 702
1645 2 2 1 3 531 932 537
1646 2 2 1 3 500 503 501
1647 2 2 1 3 571 597 570
1648 2 2 1 3 170 934 169
1649 2 2 1 3 885 943 942
1650 2 2 1 3 525 932 531
1651 2 2 1 3 572 595 573
1652 2 2 1 3 721 772 712
1653 2 2 1 3 112 938 113
1654 2 2 1 3 590 969 834
1655 2 2 1 3 481 578 483
1656 2 2 1 3 572 939 699
1657 2 2 1 3 725 862 694
1658 2 2 1 3 972 980 877
1659 2 2 1 3 550 945 567
1660 2 2 1 3 567 584 582
1661 2 2 1 3 715 984 714
1662 2 2 1 3 538 935 565
1663 2 2 1 3 549 945 550
1664 2 2 1 3 752 781 746
1665 2 2 1 3 169 465 168
1666 2 2 1 3 507 952 509
1667 2 2 1 3 714 971 885
1668 2 2 1 3 628 942 570
1669 2 2 1 3 537 932 737
1670 2 2 1 3 637 653 640
1671 2 2 1 3 125 451 126
1672 2 2 1 3 743 990 982
1673 2 2 1 3 606 951 669
1674 2 2 1 3 699 700 595
1675 2 2 1 3 608 951 606
1676 2 2 1 3 565 935 581
1677 2 2 1 3 766 768 702
1678 2 2 1 3 738 940 648
1679 2 2 1 3 520 940 526
1680 2 2 1 3 695 725 694
1681 2 2 1 3 545 943 549
1682 2 2 1 3 676 960 898
1683 2 2 1 3 111 446 112
1684 2 2 1 3 782 944 746
1685 2 2 1 3 593 924 635
1686 2 2 1 3 701 702 700
1687 2 2 1 3 431 926 119
1688 2 2 1 3 901 947 686
1689 2 2 1 3 862 989 986
1690 2 2 1 3 561 939 559
1691 2 2 1 3 594 924 583
1692 2 2 1 3 713 941 716
1693 2 2 1 3 512 952 925
1694 2 2 1 3 118 928 431
1695 2 2 1 3 509 952 512
1696 2 2 1 3 711 784 709
1697 2 2 1 3 648 940 519
1698 2 2 1 3 974 975 973
1699 2 2 1 3 808 811 809
1700 2 2 1 3 120 926 461
1701 2 2 1 3 942 943 543
1702 2 2 1 3 168 950 167
1703 2 2 1 3 692 951 608
1704 2 2 1 3 842 989 872
1705 2 2 1 3 173 929 449
1706 2 2 1 3 460 928 117
1707 2 2 1 3 649 948 552
1708 2 2 1 3 717 955 715
1709 2 2 1 3 772 941 712
1710 2 2 1 3 559 939 572
1711 2 2 1 3 506 948 507
1712 2 2 1 3 963 966 546
1713 2 2 1 3 567 945 584
1714 2 2 1 3 652 944 602
1715 2 2 1 3 813 957 539
1716 2 2 1 3 637 663 653
1717 2 2 1 3 126 936 127
1718 2 2 1 3 116 927 460
1719 2 2 1 3 663 777 668
1720 2 2 1 3 554 953 649
1721 2 2 1 3 686 947 719
1722 2 2 1 3 930 965 734
1723 2 2 1 3 110 937 111
1724 2 2 1 3 571 966 599
1725 2 2 1 3 948 952 507
1726 2 2 1 3 678 960 676
1727 2 2 1 3 101 961 442
1728 2 2 1 3 793 951 692
1729 2 2 1 3 655 946 598
1730 2 2 1 3 716 941 780
1731 2 2 1 3 598 946 597
1732 2 2 1 3 167 470 166
1733 2 2 1 3 596 956 631
1734 2 2 1 3 920 953 556
1735 2 2 1 3 437 927 115
1736 2 2 1 3 449 933 172
1737 2 2 1 3 663 668 653
1738 2 2 1 3 8 466 93
1739 2 2 1 3 702 954 703
1740 2 2 1 3 595 956 596
1741 2 2 1 3 602 944 655
1742 2 2 1 3 777 779 668
1743 2 2 1 3 597 946 638
1744 2 2 1 3 703 956 700
1745 2 2 1 3 638 946 721
1746 2 2 1 3 785 958 668
1747 2 2 1 3 552 948 506
1748 2 2 1 3 746 944 652
1749 2 2 1 3 114 931 437
1750 2 2 1 3 590 939 561
1751 2 2 1 3 697 964 907
1752 2 2 1 3 475 476 474
1753 2 2 1 3 109 463 110
1754 2 2 1 3 556 953 554
1755 2 2 1 3 127 469 128
1756 2 2 1 3 171 933 462
1757 2 2 1 3 719 947 731
1758 2 2 1 3 738 966 963
1759 2 2 1 3 728 965 930
1760 2 2 1 3 768 954 702
1761 2 2 1 3 113 938 931
1762 2 2 1 3 699 959 701
1763 2 2 1 3 682 960 678
1764 2 2 1 3 505 967 518
1765 2 2 1 3 532 963 546
1766 2 2 1 3 462 934 170
1767 2 2 1 3 700 956 595
1768 2 2 1 3 500 968 899
1769 2 2 1 3 169 934 465
1770 2 2 1 3 923 967 505
1771 2 2 1 3 709 964 697
1772 2 2 1 3 940 963 526
1773 2 2 1 3 973 975 775
1774 2 2 1 3 497 968 500
1775 2 2 1 3 446 938 112
1776 2 2 1 3 630 969 588
1777 2 2 1 3 970 983 739
1778 2 2 1 3 630 974 973
1779 2 2 1 3 526 963 532
1780 2 2 1 3 465 950 168
1781 2 2 1 3 896 993 669
1782 2 2 1 3 795 965 728
1783 2 2 1 3 738 963 940
1784 2 2 1 3 574 969 590
1785 2 2 1 3 451 936 126
1786 2 2 1 3 925 970 739
1787 2 2 1 3 884 987 883
1788 2 2 1 3 578 1001 867
1789 2 2 1 3 637 962 663
1790 2 2 1 3 635 962 637
1791 2 2 1 3 111 937 446
1792 2 2 1 3 924 962 635
1793 2 2 1 3 502 972 493
1794 2 2 1 3 784 964 709
1795 2 2 1 3 495 968 497
1796 2 2 1 3 167 950 470
1797 2 2 1 3 588 969 574
1798 2 2 1 3 682 986 881
1799 2 2 1 3 518 967 577
1800 2 2 1 3 943 971 549
1801 2 2 1 3 546 966 571
1802 2 2 1 3 127 936 469
1803 2 2 1 3 463 937 110
1804 2 2 1 3 986 989 881
1805 2 2 1 3 714 984 971
1806 2 2 1 3 834 973 775
1807 2 2 1 3 649 983 970
1808 2 2 1 3 683 986 682
1809 2 2 1 3 962 979 778
1810 2 2 1 3 493 972 495
1811 2 2 1 3 890 981 577
1812 2 2 1 3 739 983 743
1813 2 2 1 3 495 972 968
1814 2 2 1 3 885 971 943
1815 2 2 1 3 862 986 694
1816 2 2 1 3 966 977 599
1817 2 2 1 3 549 971 945
1818 2 2 1 3 600 990 920
1819 2 2 1 3 649 970 948
1820 2 2 1 3 577 981 932
1821 2 2 1 3 877 980 875
1822 2 2 1 3 948 970 952
1823 2 2 1 3 736 977 738
1824 2 2 1 3 924 979 962
1825 2 2 1 3 594 979 924
1826 2 2 1 3 814 997 698
1827 2 2 1 3 584 988 582
1828 2 2 1 3 452 808 475
1829 2 2 1 3 956 978 631
1830 2 2 1 3 955 988 584
1831 2 2 1 3 952 970 925
1832 2 2 1 3 601 982 600
1833 2 2 1 3 703 978 956
1834 2 2 1 3 932 981 737
1835 2 2 1 3 845 995 844
1836 2 2 1 3 743 992 650
1837 2 2 1 3 738 977 966
1838 2 2 1 3 981 985 737
1839 2 2 1 3 982 992 743
1840 2 2 1 3 971 984 945
1841 2 2 1 3 669 993 605
1842 2 2 1 3 737 985 813
1843 2 2 1 3 953 983 649
1844 2 2 1 3 491 991 502
1845 2 2 1 3 945 984 584
1846 2 2 1 3 694 986 683
1847 2 2 1 3 528 994 487
1848 2 2 1 3 707 998 866
1849 2 2 1 3 883 987 457
1850 2 2 1 3 698 997 612
1851 2 2 1 3 881 989 842
1852 2 2 1 3 582 988 594
1853 2 2 1 3 983 990 743
1854 2 2 1 3 485 996 528
1855 2 2 1 3 578 996 483
1856 2 2 1 3 667 1007 1001
1857 2 2 1 3 751 1042 801
1858 2 2 1 3 920 990 953
1859 2 2 1 3 736 992 859
1860 2 2 1 3 953 990 983
1861 2 2 1 3 748 1006 705
1862 2 2 1 3 489 991 491
1863 2 2 1 3 792 1007 1005
1864 2 2 1 3 650 992 736
1865 2 2 1 3 123 1003 124
1866 2 2 1 3 605 993 630
1867 2 2 1 3 667 1001 479
1868 2 2 1 3 630 993 974
1869 2 2 1 3 487 994 489
1870 2 2 1 3 481 1001 578
1871 2 2 1 3 489 994 991
1872 2 2 1 3 859 999 744
1873 2 2 1 3 849 995 845
1874 2 2 1 3 744 1000 745
1875 2 2 1 3 999 1000 744
1876 2 2 1 3 805 1006 776
1877 2 2 1 3 982 999 992
1878 2 2 1 3 1000 1002 745
1879 2 2 1 3 745 1002 752
1880 2 2 1 3 444 1082 774
1881 2 2 1 3 456 1027 781
1882 2 2 1 3 483 996 485
1883 2 2 1 3 612 997 666
1884 2 2 1 3 992 999 859
1885 2 2 1 3 452 475 474
1886 2 2 1 3 846 998 707
1887 2 2 1 3 993 1004 974
1888 2 2 1 3 896 1004 993
1889 2 2 1 3 936 1038 760
1890 2 2 1 3 978 1076 892
1891 2 2 1 3 1001 1007 867
1892 2 2 1 3 601 1000 999
1893 2 2 1 3 1005 1007 810
1894 2 2 1 3 479 1001 481
1895 2 2 1 3 631 1000 601
1896 2 2 1 3 631 1002 1000
1897 2 2 1 3 601 999 982
1898 2 2 1 3 441 1003 123
1899 2 2 1 3 867 1007 792
1900 2 2 1 3 978 1002 631
1901 2 2 1 3 974 1004 976
1902 2 2 1 3 439 1058 780
1903 2 2 1 3 705 1006 805
1904 2 2 1 3 929 1014 748
1905 2 2 1 3 772 1025 880
1906 2 2 1 3 792 1005 791
1907 2 2 1 3 1004 1010 450
1908 2 2 1 3 810 1007 667
1909 2 2 1 3 987 1084 457
1910 2 2 1 3 735 1011 708
1911 2 2 1 3 724 1016 831
1912 2 2 1 3 457 1012 188
1913 2 2 1 3 187 1012 432
1914 2 2 1 3 67 1013 472
1915 2 2 1 3 929 1020 449
1916 2 2 1 3 944 1009 655
1917 2 2 1 3 729 1016 718
1918 2 2 1 3 108 471 11
1919 2 2 1 3 445 1014 175
1920 2 2 1 3 174 1014 929
1921 2 2 1 3 128 1015 129
1922 2 2 1 3 1003 1018 124
1923 2 2 1 3 106 467 107
1924 2 2 1 3 748 1020 929
1925 2 2 1 3 892 1076 433
1926 2 2 1 3 720 1019 863
1927 2 2 1 3 125 1018 451
1928 2 2 1 3 1012 1044 432
1929 2 2 1 3 749 1018 1003
1930 2 2 1 3 768 1030 954
1931 2 2 1 3 1020 1033 449
1932 2 2 1 3 704 1020 748
1933 2 2 1 3 838 1021 837
1934 2 2 1 3 66 1013 67
1935 2 2 1 3 465 1032 820
1936 2 2 1 3 456 1022 891
1937 2 2 1 3 831 1066 461
1938 2 2 1 3 749 1064 729
1939 2 2 1 3 880 1025 455
1940 2 2 1 3 435 1027 85
1941 2 2 1 3 86 1027 456
1942 2 2 1 3 192 1026 191
1943 2 2 1 3 801 1028 799
1944 2 2 1 3 1039 1070 860
1945 2 2 1 3 976 1043 975
1946 2 2 1 3 807 1029 641
1947 2 2 1 3 895 1010 896
1948 2 2 1 3 1009 1051 655
1949 2 2 1 3 918 1029 742
1950 2 2 1 3 786 1038 833
1951 2 2 1 3 782 1009 944
1952 2 2 1 3 433 1030 89
1953 2 2 1 3 871 1046 821
1954 2 2 1 3 1003 1064 749
1955 2 2 1 3 443 1034 78
1956 2 2 1 3 775 1035 774
1957 2 2 1 3 708 1011 710
1958 2 2 1 3 165 1013 164
1959 2 2 1 3 188 1012 187
1960 2 2 1 3 896 1010 1004
1961 2 2 1 3 789 1049 458
1962 2 2 1 3 175 1014 174
1963 2 2 1 3 469 1015 128
1964 2 2 1 3 718 1016 724
1965 2 2 1 3 988 1036 594
1966 2 2 1 3 449 1033 933
1967 2 2 1 3 910 1040 909
1968 2 2 1 3 1013 1057 472
1969 2 2 1 3 770 1044 1012
1970 2 2 1 3 785 1056 453
1971 2 2 1 3 471 1067 803
1972 2 2 1 3 827 1017 826
1973 2 2 1 3 464 1048 843
1974 2 2 1 3 825 1045 823
1975 2 2 1 3 450 1031 976
1976 2 2 1 3 773 1024 839
1977 2 2 1 3 823 1045 717
1978 2 2 1 3 654 1046 871
1979 2 2 1 3 1033 1041 933
1980 2 2 1 3 888 1051 1009
1981 2 2 1 3 955 1045 988
1982 2 2 1 3 12 1059 197
1983 2 2 1 3 747 1052 773
1984 2 2 1 3 458 1049 184
1985 2 2 1 3 183 1049 436
1986 2 2 1 3 129 1059 12
1987 2 2 1 3 839 1024 838
1988 2 2 1 3 443 1050 824
1989 2 2 1 3 774 1035 1008
1990 2 2 1 3 77 1050 443
1991 2 2 1 3 463 1028 937
1992 2 2 1 3 768 1054 1030
1993 2 2 1 3 946 1051 721
1994 2 2 1 3 164 1013 66
1995 2 2 1 3 124 1018 125
1996 2 2 1 3 94 1031 95
1997 2 2 1 3 95 1031 450
1998 2 2 1 3 817 1075 818
1999 2 2 1 3 453 1056 72
2000 2 2 1 3 91 1054 444
2001 2 2 1 3 804 1067 467
2002 2 2 1 3 764 1055 789
2003 2 2 1 3 1048 1053 843
2004 2 2 1 3 80 1058 439
2005 2 2 1 3 783 1019 720
2006 2 2 1 3 741 1084 815
2007 2 2 1 3 888 1074 887
2008 2 2 1 3 753 1061 755
2009 2 2 1 3 892 1060 978
2010 2 2 1 3 664 1081 723
2011 2 2 1 3 470 1057 166
2012 2 2 1 3 774 1082 766
2013 2 2 1 3 815 1084 987
2014 2 2 1 3 459 1073 865
2015 2 2 1 3 461 1066 121
2016 2 2 1 3 122 1066 441
2017 2 2 1 3 703 1076 978
2018 2 2 1 3 710 1065 750
2019 2 2 1 3 938 1042 750
2020 2 2 1 3 861 1020 704
2021 2 2 1 3 837 1021 735
2022 2 2 1 3 933 1041 462
2023 2 2 1 3 742 1044 770
2024 2 2 1 3 843 1053 447
2025 2 2 1 3 821 1032 871
2026 2 2 1 3 778 1083 1017
2027 2 2 1 3 721 1025 772
2028 2 2 1 3 461 1052 830
2029 2 2 1 3 473 1062 10
2030 2 2 1 3 891 1022 892
2031 2 2 1 3 821 1046 822
2032 2 2 1 3 928 1024 431
2033 2 2 1 3 451 1038 936
2034 2 2 1 3 1002 1060 752
2035 2 2 1 3 779 1056 785
2036 2 2 1 3 926 1052 461
2037 2 2 1 3 455 1025 888
2038 2 2 1 3 827 1050 76
2039 2 2 1 3 1041 1047 462
2040 2 2 1 3 109 1023 463
2041 2 2 1 3 861 1033 1020
2042 2 2 1 3 1009 1074 888
2043 2 2 1 3 1038 1079 833
2044 2 2 1 3 884 1081 666
2045 2 2 1 3 191 1026 438
2046 2 2 1 3 1008 1035 466
2047 2 2 1 3 193 1068 192
2048 2 2 1 3 85 1027 86
2049 2 2 1 3 799 1028 802
2050 2 2 1 3 931 1065 437
2051 2 2 1 3 1021 1071 735
2052 2 2 1 3 641 1029 918
2053 2 2 1 3 89 1030 90
2054 2 2 1 3 463 1077 1028
2055 2 2 1 3 820 1032 821
2056 2 2 1 3 1026 1037 438
2057 2 2 1 3 722 1033 861
2058 2 2 1 3 78 1034 79
2059 2 2 1 3 462 1047 934
2060 2 2 1 3 975 1035 775
2061 2 2 1 3 470 1075 1057
2062 2 2 1 3 865 1073 761
2063 2 2 1 3 1017 1083 826
2064 2 2 1 3 594 1036 979
2065 2 2 1 3 1024 1078 838
2066 2 2 1 3 722 1041 1033
2067 2 2 1 3 723 1081 1037
2068 2 2 1 3 1046 1072 822
2069 2 2 1 3 438 1037 884
2070 2 2 1 3 760 1038 786
2071 2 2 1 3 435 1074 782
2072 2 2 1 3 437 1065 1011
2073 2 2 1 3 446 1042 938
2074 2 2 1 3 909 1040 458
2075 2 2 1 3 10 1062 106
2076 2 2 1 3 1054 1082 444
2077 2 2 1 3 1028 1077 802
2078 2 2 1 3 870 1041 722
2079 2 2 1 3 750 1042 751
2080 2 2 1 3 752 1060 1022
2081 2 2 1 3 1030 1054 90
2082 2 2 1 3 928 1078 1024
2083 2 2 1 3 803 1067 804
2084 2 2 1 3 870 1047 1041
2085 2 2 1 3 437 1071 927
2086 2 2 1 3 1034 1058 79
2087 2 2 1 3 453 1072 785
2088 2 2 1 3 165 1057 1013
2089 2 2 1 3 432 1044 910
2090 2 2 1 3 106 1062 467
2091 2 2 1 3 717 1045 955
2092 2 2 1 3 958 1046 654
2093 2 2 1 3 871 1047 870
2094 2 2 1 3 466 1080 93
2095 2 2 1 3 757 1048 759
2096 2 2 1 3 833 1079 749
2097 2 2 1 3 469 1039 1015
2098 2 2 1 3 1036 1083 979
2099 2 2 1 3 184 1049 183
2100 2 2 1 3 76 1050 77
2101 2 2 1 3 822 1072 453
2102 2 2 1 3 824 1050 827
2103 2 2 1 3 451 1079 1038
2104 2 2 1 3 830 1052 747
2105 2 2 1 3 655 1051 946
2106 2 2 1 3 757 1053 1048
2107 2 2 1 3 1011 1071 437
2108 2 2 1 3 860 1070 464
2109 2 2 1 3 838 1078 1021
2110 2 2 1 3 755 1053 757
2111 2 2 1 3 958 1072 1046
2112 2 2 1 3 1015 1059 129
2113 2 2 1 3 90 1054 91
2114 2 2 1 3 762 1055 764
2115 2 2 1 3 72 1056 73
2116 2 2 1 3 782 1074 1009
2117 2 2 1 3 802 1077 803
2118 2 2 1 3 166 1057 165
2119 2 2 1 3 197 1059 860
2120 2 2 1 3 79 1058 80
2121 2 2 1 3 762 1063 1055
2122 2 2 1 3 919 1073 459
2123 2 2 1 3 771 1061 753
2124 2 2 1 3 729 1064 1016
2125 2 2 1 3 761 1063 762
2126 2 2 1 3 447 1068 193
2127 2 2 1 3 441 1064 1003
2128 2 2 1 3 978 1060 1002
2129 2 2 1 3 121 1066 122
2130 2 2 1 3 735 1071 1011
2131 2 2 1 3 1031 1043 976
2132 2 2 1 3 472 1075 817
2133 2 2 1 3 887 1074 435
2134 2 2 1 3 1018 1079 451
2135 2 2 1 3 785 1072 958
2136 2 2 1 3 954 1076 703
2137 2 2 1 3 93 1080 94
2138 2 2 1 3 460 1078 928
2139 2 2 1 3 770 1084 741
2140 2 2 1 3 666 1081 664
2141 2 2 1 3 766 1082 768
2142 2 2 1 3 749 1079 1018
2143 2 2 1 3 107 1069 108
2144 2 2 1 3 979 1083 778
2145 2 2 1 3 860 1059 1015
2146 2 2 1 3 1016 1064 441
2147 2 2 1 3 108 1069 471
2148 2 2 1 3 467 1069 107
2149 2 2 1 3 1057 1075 472
2150 2 2 1 3 1022 1060 892
2151 2 2 1 3 1011 1065 710
2152 2 2 1 3 1021 1078 460
2153 2 2 1 3 1043 1080 466
2154 2 2 1 3 759 1070 1039
2155 2 2 1 3 768 1082 1054
2156 2 2 1 3 1037 1081 884
2157 2 2 1 3 803 1077 1023
2158 2 2 1 3 94 1080 1031
2159 2 2 1 3 1048 1070 759
2160 2 2 1 3 1023 1077 463
2161 2 2 1 3 1031 1080 1043
2162 2 2 1 3 471 1069 1067
2163 2 2 1 3 1067 1069 467
2164 2 2 1 3 464 1070 1048
2165 2 2 1 3 1063 1073 919
2166 2 2 1 3 1061 1068 447
2167 2 2 1 3 771 1068 1061
2168 2 2 1 3 761 1073 1063
$EndElements
