$MeshFormat
2.2 0 8
$EndMeshFormat
$PhysicalNames
7
0 6 "separation-inf"
0 7 "separation-sup"
1 4 "pressure"
1 5 "fixed"
2 1 "body"
2 2 "cover"
2 3 "scar"
$EndPhysicalNames
$Nodes
1082
1 0.6754664043757063 0.4998629534754574 0
2 0.6341241040120201 0.4976962953229444 0
3 0.5542337412316541 0.4935094188235094 0
4 0.4727903172005901 0.4892411498328348 0
5 0.3657340441691846 0.4358648610726302 0
6 0 0 0
7 0.07832443735993684 -1.734723475976807e-16 0
8 0.411696710756323 0.3972976044914376 0
9 0.4759304745751662 0.4293233777475604 0
10 0.6786065617502824 0.439945181390183 0
11 0.7207 0.4 0
12 0.7206999999999998 0 0
13 0.7806999999999999 0 0
14 0.7806999999999999 0.4 0
15 0.661685637587811 0.4991407340912863 0
16 0.6479048707999155 0.4984185147071153 0
17 0.6310765989729135 0.4801574215050332 7.350273797461224e-20
18 0.62072105326709 0.4656776954059889 1.3244739972934e-19
19 0.6051085137390566 0.4571250188022117 1.651592119115335e-19
20 0.5873312342526699 0.4561933510626364 1.651592119115334e-19
21 0.5709102237075199 0.463067220444526 1.324473997293395e-19
22 0.5590978632469221 0.4763851758100336 7.350273797461232e-20
23 0.5379450564254414 0.4926557650253745 0
24 0.5216563716192286 0.4918021112272396 0
25 0.5053676868130158 0.4909484574291047 0
26 0.4890790020068029 0.4900948036309697 0
27 0.4553304392647099 0.4872959338991283 0
28 0.4382177408617575 0.4833226788186971 0
29 0.4216869558889431 0.4773758855023666 0
30 0.4059648361705108 0.4695371257711422 0
31 0.3912670411160414 0.4599139234402445 0
32 0.3777951795327663 0.4486382794211359 0
33 0.3539361717766302 0.4218047042638357 0
34 0.3421382993840759 0.4077445474550412 0
35 0.3303404269915215 0.3936843906462466 0
36 0.3185425545989671 0.3796242338374521 0
37 0.3067446822064128 0.3655640770286576 0
38 0.2949468098138585 0.351503920219863 0
39 0.2831489374213041 0.3374437634110685 0
40 0.2713510650287497 0.3233836066022739 0
41 0.2595531926361954 0.3093234497934794 0
42 0.247755320243641 0.2952632929846847 0
43 0.2359574478510866 0.2812031361758902 0
44 0.2241595754585322 0.2671429793670956 0
45 0.2123617030659778 0.2530828225583009 0
46 0.2005638306734234 0.2390226657495064 0
47 0.188765958280869 0.2249625089407118 0
48 0.1769680858883146 0.2109023521319172 0
49 0.1651702134957603 0.1968421953231227 0
50 0.153372341103206 0.1827820385143283 0
51 0.1415744687106517 0.1687218817055337 0
52 0.1297765963180974 0.1546617248967392 0
53 0.1179787239255431 0.1406015680879448 0
54 0.1061808515329888 0.1265414112791503 0
55 0.09438297914043453 0.1124812544703558 0
56 0.08258510674788017 0.09842109766156132 0
57 0.07078723435532586 0.0843609408527668 0
58 0.05898936196277155 0.07030078404397233 0
59 0.04719148957021724 0.05624062723517786 0
60 0.03539361717766293 0.04218047042638334 0
61 0.02359574478510867 0.02812031361758888 0
62 0.01179787239255431 0.01406015680879436 0
63 0.01566488747198735 0 0
64 0.03132977494397473 0 0
65 0.04699466241596211 0 0
66 0.0626595498879495 0 0
67 0.09023058998123634 0.01418920016040826 0
68 0.1021367426025359 0.02837840032081673 0
69 0.1140428952238354 0.04256760048122532 0
70 0.1259490478451349 0.0567568006416338 0
71 0.1378552004664345 0.07094600080204233 0
72 0.149761353087734 0.08513520096245086 0
73 0.1616675057090335 0.0993244011228594 0
74 0.173573658330333 0.1135136012832679 0
75 0.1854798109516325 0.1277028014436764 0
76 0.1973859635729321 0.1418920016040849 0
77 0.2092921161942316 0.1560812017644935 0
78 0.2211982688155311 0.1702704019249019 0
79 0.2331044214368306 0.1844596020853105 0
80 0.2450105740581301 0.198648802245719 0
81 0.2569167266794297 0.2128380024061275 0
82 0.2688228793007292 0.227027202566536 0
83 0.2807290319220287 0.2412164027269445 0
84 0.2926351845433281 0.2554056028873529 0
85 0.3045413371646276 0.2695948030477613 0
86 0.316447489785927 0.2837840032081698 0
87 0.3283536424072264 0.2979732033685782 0
88 0.3402597950285259 0.3121624035289866 0
89 0.3521659476498253 0.3263516036893951 0
90 0.3640721002711248 0.3405408038498036 0
91 0.3759782528924244 0.354730004010212 0
92 0.3878844055137239 0.3689192041706206 0
93 0.3997905581350234 0.3831084043310291 0
94 0.4249222551991461 0.4101252433989161 0
95 0.4404829074571483 0.4199908121638312 0
96 0.4577265352985337 0.4264808541219037 0
97 0.4943555734092677 0.4302889962605261 0
98 0.5127806722433692 0.4312546147734918 0
99 0.5312057710774708 0.4322202332864575 0
100 0.5496308699115723 0.4331858517994232 0
101 0.5680559687456738 0.4341514703123889 0
102 0.5864810675797753 0.4351170888253546 0
103 0.6049061664138767 0.4360827073383203 0
104 0.6233312652479782 0.4370483258512859 0
105 0.6417563640820796 0.4380139443642516 0
106 0.660181462916181 0.4389795628772173 0
107 0.6945446822830998 0.4375276534368993 0
108 0.7082341830277502 0.4290149748404914 0
109 0.717451648405956 0.4157897542553707 0
110 0.7207 0.3818181818181818 0
111 0.7207 0.3636363636363637 0
112 0.7207 0.3454545454545456 0
113 0.7207 0.3272727272727274 0
114 0.7207 0.3090909090909092 0
115 0.7207 0.290909090909091 0
116 0.7207 0.2727272727272728 0
117 0.7207 0.2545454545454546 0
118 0.7207 0.2363636363636365 0
119 0.7207 0.2181818181818183 0
120 0.7207 0.2000000000000001 0
121 0.7207 0.1818181818181819 0
122 0.7207 0.1636363636363637 0
123 0.7207 0.1454545454545455 0
124 0.7207 0.1272727272727273 0
125 0.7207 0.1090909090909091 0
126 0.7207 0.09090909090909099 0
127 0.7207 0.07272727272727275 0
128 0.7207 0.05454545454545456 0
129 0.7207 0.03636363636363638 0
130 0.7207 0.01818181818181819 0
131 0.7356999999999998 0 0
132 0.7506999999999998 0 0
133 0.7656999999999998 0 0
134 0.7806999999999999 0.01818181818181816 0
135 0.7806999999999999 0.03636363636363633 0
136 0.7806999999999999 0.05454545454545447 0
137 0.7806999999999999 0.07272727272727263 0
138 0.7806999999999999 0.09090909090909081 0
139 0.7806999999999999 0.109090909090909 0
140 0.7806999999999999 0.1272727272727272 0
141 0.7806999999999999 0.1454545454545454 0
142 0.7806999999999999 0.1636363636363636 0
143 0.7806999999999999 0.1818181818181818 0
144 0.7806999999999999 0.2 0
145 0.7806999999999999 0.2181818181818181 0
146 0.7806999999999999 0.2363636363636363 0
147 0.7806999999999999 0.2545454545454545 0
148 0.7806999999999999 0.2727272727272727 0
149 0.7806999999999999 0.2909090909090909 0
150 0.7806999999999999 0.309090909090909 0
151 0.7806999999999999 0.3272727272727273 0
152 0.7806999999999999 0.3454545454545455 0
153 0.7806999999999999 0.3636363636363636 0
154 0.7806999999999999 0.3818181818181818 0
155 0.7790780848522558 0.4179374585937456 0
156 0.7742649515839531 0.4352930564713867 0
157 0.7664167300702113 0.4515038074910052 0
158 0.7557880032981501 0.4660438623999005 0
159 0.7427235491268263 0.4784415664919572 0
160 0.7276471562785896 0.4882947592858924 0
161 0.7110478773521176 0.4952838199287833 0
162 0.6934641647860601 0.499182035154126 0
163 0.6181460314559469 0.4968589200230574 0
164 0.6021679588998737 0.4960215447231704 0
165 0.5861898863438005 0.4951841694232834 0
166 0.5702118137877275 0.4943467941233964 0
167 0.09667802486393864 0 0
168 0.1150316123679404 0 0
169 0.1333851998719423 0 0
170 0.151738787375944 0 0
171 0.1700923748799458 0 0
172 0.1884459623839476 0 0
173 0.2067995498879495 0 0
174 0.2251531373919513 0 0
175 0.2435067248959531 0 0
176 0.2618603123999549 0 0
177 0.2802138999039567 0 0
178 0.2985674874079585 0 0
179 0.3169210749119603 0 0
180 0.3352746624159621 0 0
181 0.3536282499199639 0 0
182 0.3719818374239657 0 0
183 0.3903354249279674 0 0
184 0.4086890124319691 0 0
185 0.4270425999359708 0 0
186 0.4453961874399726 0 0
187 0.4637497749439743 0 0
188 0.482103362447976 0 0
189 0.5004569499519776 0 0
190 0.5188105374559795 0 0
191 0.5371641249599813 0 0
192 0.5555177124639832 0 0
193 0.5738712999679849 0 0
194 0.5922248874719869 0 0
195 0.6105784749759887 0 0
196 0.6289320624799905 0 0
197 0.6472856499839923 0 0
198 0.6656392374879941 0 0
199 0.683992824991996 0 0
200 0.7023464124959978 0 0
201 0.6689292128761514 0.4852860558493671 0
202 0.6898033397134654 0.4543389856983537 0
203 0.7247231989140057 0.4330048426670103 0
204 0.4813600347858553 0.475469727037053 0
205 0.5151454566042123 0.4772241132151939 0
206 0.735249397516581 0.390196109996029 0
207 0.05187389153973021 0.03951864964188989 0
208 0.4069498763275912 0.4519968607089055 0
209 0.435602303212165 0.4671679810395923 0
210 0.3722845426408666 0.4201023005013625 0
211 0.7364459164324443 0.3545454545454546 0
212 0.7364459164324443 0.1 0
213 0.7364459164324444 0.2272727272727274 0
214 0.7354637943963654 0.04584385495552334 0
215 0.7649540835675557 0.2999999999999999 0
216 0.7652030223433592 0.1545454545454544 0
217 0.7361969776566407 0.2636363636363637 0
218 0.7364459164324444 0.1909090909090909 0
219 0.3484158161654076 0.3904972118480848 0
220 0.3248200713802987 0.3623768982304956 0
221 0.3012243265951901 0.3342565846129066 0
222 0.2776285818100814 0.3061362709953175 0
223 0.727440610491049 0.4699157356466753 0
224 0.2540328370249725 0.2780159573777282 0
225 0.2304370922398638 0.249895643760139 0
226 0.2068413474547549 0.2217753301425498 0
227 0.1832456026696465 0.1936550165249611 0
228 0.1596498578845376 0.1655347029073717 0
229 0.1360541130994289 0.1374143892897829 0
230 0.1124583683143205 0.1092940756721941 0
231 0.08702071412552492 0.08164160080542177 0
232 0.7641902567881956 0.4232200345954141 0
233 0.4643053425844014 0.4434910854438307 0
234 0.406498722388412 0.4148817021089002 0
235 0.09569830939009905 0.0455676758997608 0
236 0.5392906414197965 0.4484650899162361 0
237 0.765204204825338 0.0818165624264896 0
238 0.7364459164324444 0.3181818181818183 0
239 0.7651968515773333 0.02631609846368682 0
240 0.7649540835675556 0.1181818181818179 0
241 0.7652408371829758 0.3728617564899851 0
242 0.7364459164324444 0.1363636363636364 0
243 0.7649540835675556 0.3363636363636364 0
244 0.7649540835675556 0.2454545454545454 0
245 0.7649540835675556 0.209090909090909 0
246 0.381901175201433 0.3863250573118305 0
247 0.5026273922293181 0.4466105574733777 0
248 0.357893371637064 0.3578819794347076 0
249 0.334576563129825 0.3294315267086652 0
250 0.3108113892171908 0.3011601793406701 0
251 0.6496827340998794 0.4558203837057906 0
252 0.7436806260768988 0.01270586544152319 0
253 0.6988800676545228 0.4820049857664053 0
254 0.2870472479147343 0.2728879655098553 0
255 0.2632805206063865 0.2446105727175202 0
256 0.7091197890132808 0.4458900526143418 0
257 0.2395137396284382 0.2163332249593261 0
258 0.2157527479107114 0.1880583683131264 0
259 0.1919964074192322 0.1597869577028085 0
260 0.7500044678201507 0.449035033651951 0
261 0.1682420305551221 0.1315138994134887 0
262 0.7327829731498752 0.4208657623405828 0
263 0.1444840849137335 0.1032364868057568 0
264 0.1207271718825231 0.0749582077352059 0
265 0.05482710615195652 0.01356619049816565 0
266 0.445832713077397 0.438773909354787 0
267 0.4290275882613889 0.431174846140285 0
268 0.7262893171317032 0.450370231484953 0
269 0.6696169254821931 0.454977450224102 0
270 0.6611459813733539 0.4698469215112272 0
271 0.6774570401923028 0.4704172421841304 0
272 0.7036405859108918 0.4652392728257806 0
273 0.6538351891148019 0.4837333614452322 0
274 0.4823892959060581 0.4463634318912493 0
275 0.07051734083435002 0.01668536890892841 0
276 0.4528731010357306 0.4575717372103408 0
277 0.7413727421339034 0.4330498439173117 0
278 0.3944567068495338 0.4007097167782051 0
279 0.4731210430491496 0.4599078637594597 0
280 0.4914446288269461 0.4609649410412908 0
281 0.08375303416065905 0.03089374415698093 0
282 0.07893510628611256 0.04919115481008324 0
283 0.04179221098257646 0.02561979674204895 0
284 0.5210761566781195 0.4472129220075507 0
285 0.5273026905684938 0.4629109559536859 0
286 0.735640705281967 0.3727961358290112 0
287 0.5580976621576168 0.4488748980125178 0
288 0.7650282073810991 0.3909090909090909 0
289 0.3598121014188709 0.4052678616457802 0
290 0.3699800243267138 0.3719807274903261 0
291 0.1083240445419296 0.06041207585218417 0
292 0.2516676113283793 0.2305528061851218 0
293 0.275416106385209 0.258791731456104 0
294 0.1804401173711395 0.1458307324559202 0
295 0.1567003699982658 0.1175881414456114 0
296 0.2279222428474711 0.2023124822184551 0
297 0.3229128829787304 0.3152660867236826 0
298 0.346118454085846 0.3436790876121146 0
299 0.2991641078265235 0.2870298461066648 0
300 0.2041796470578193 0.1740722813136151 0
301 0.1329612325410537 0.08934381384227885 0
302 0.7653630534770708 0.0454981583525001 0
303 0.09075967965614495 0.0638744528216027 0
304 0.7651832779044689 0.06384641376715755 0
305 0.7502838949339506 0.07316985782587204 0
306 0.7653154602109081 0.3546080049567566 0
307 0.7649540835675557 0.3181818181818181 0
308 0.7650944072302444 0.1363636363636361 0
309 0.7652445121393265 0.1727272727272726 0
310 0.7505542199287407 0.1636363636363636 0
311 0.7364459164324444 0.3000000000000001 0
312 0.7361554878606734 0.2818181818181819 0
313 0.7508457800712593 0.2727272727272728 0
314 0.7363055927697554 0.2454545454545455 0
315 0.7364459164324444 0.2090909090909091 0
316 0.7649540835675557 0.2272727272727273 0
317 0.7364459164324444 0.1181818181818182 0
318 0.7650962072526296 0.1909090909090908 0
319 0.7364459164324443 0.3363636363636365 0
320 0.7650944620786664 0.09999992974317568 0
321 0.1714477302770923 0.1795948597161673 0
322 0.2658307094175269 0.2920761141865225 0
323 0.3366179437728533 0.3764370550392904 0
324 0.09991984025938794 0.09572710433385445 0
325 0.2894264542026356 0.3201964278041126 0
326 0.1242562407068742 0.1233542324809888 0
327 0.2186392198473089 0.2358354869513453 0
328 0.3130221989877441 0.348316741421701 0
329 0.1478519854919831 0.1514745460985775 0
330 0.242234964632418 0.2639558005689344 0
331 0.1950434750621988 0.2077151733337561 0
332 0.645144780899055 0.4737838786123281 0
333 0.389922865863558 0.4184008543075218 0
334 0.4023350083048227 0.4336274769425695 0
335 0.4989344637272882 0.4759458910452433 0
336 0.5471697118817804 0.4655419149512457 0
337 0.7361328051444966 0.0263310690187919 0
338 0.6840319642934204 0.4855101773841479 0
339 0.6312190532357298 0.452183385544025 0
340 0.7577328014370024 0.01231343928843592 0
341 0.7503180108509 0.3817551244683954 0
342 0.7496268601120268 0.3988912031531459 0
343 0.5099327053117775 0.4615720607308544 0
344 0.7504627564376418 0.03720525183859752 0
345 0.7504581603814811 0.3640155558709183 0
346 0.7356311318868288 0.08189182593443411 0
347 0.7502853125936559 0.05486652999582153 0
348 0.735737092754946 0.1739549913503075 0
349 0.7656629072450539 0.2624086450133287 0
350 0.7656629072450539 0.2830459004412167 0
351 0.7357370927549461 0.1533177359224195 0
352 0.7355106889684668 0.06384079933072978 0
353 0.7507199228374722 0.3455281692288549 0
354 0.7506999999999999 0.2181818181818182 0
355 0.7506997000350111 0.3090909090909091 0
356 0.7507032704787472 0.3272849979017789 0
357 0.7507 0.1999999999999999 0
358 0.7506999999999998 0.109090909090909 0
359 0.7506999999999999 0.2363636363636365 0
360 0.7507 0.1272727272727271 0
361 0.7507018815421397 0.09090909090909044 0
362 0.7506982002100669 0.290909090909091 0
363 0.7507017997899332 0.1454545454545453 0
364 0.7506982002100669 0.2545454545454545 0
365 0.750701799789933 0.1818181818181817 0
366 0.3772329754544535 0.4032529846174432 0
367 0.5304864395439903 0.479144515717334 0
368 0.4650240978477937 0.4747457668452154 0
369 0.3650659219908202 0.3886627717627545 0
370 0.4195312789003092 0.4595671425029969 0
371 0.3531900004056152 0.3744290045735588 0
372 0.7661765303783671 0.4069832342824894 0
373 0.02641752783028328 0.01377268291408945 0
374 0.06736402339358849 0.03626560382217114 0
375 0.3413471135840561 0.3602970874081377 0
376 0.3295626352672388 0.346201213572478 0
377 0.4319976748908307 0.4499746839633445 0
378 0.3177960904885956 0.3321159875429292 0
379 0.3059679292422903 0.318046486112015 0
380 0.2940892087298673 0.3041018277238699 0
381 0.282252517495131 0.2900533642949962 0
382 0.3846681543343679 0.4343843241633508 0
383 0.2703148432815895 0.2763336055240059 0
384 0.7143753618816416 0.477630691019021 0
385 0.2585328207454963 0.2621314075194965 0
386 0.2466509678124927 0.2482704603382249 0
387 0.7580647132384372 0.4365305535307732 0
388 0.7400038335865269 0.4596063977637166 0
389 0.2348630827415504 0.2340494356237884 0
390 0.4494095364444314 0.4740208195625948 0
391 0.2229901907120047 0.2202047153124844 0
392 0.2112171657448702 0.2058775028801001 0
393 0.1993325119801276 0.1921363704467866 0
394 0.1875571450694949 0.1777789946943471 0
395 0.1756779316168601 0.1640654257411303 0
396 0.1639033251666641 0.1496753578360422 0
397 0.1520264496222025 0.1359918811955161 0
398 0.1402478724907078 0.1215725702832291 0
399 0.06308080504080504 0.05438762886289061 0
400 0.1283780659961554 0.1079157368099455 0
401 0.1165498781279793 0.0934976123865382 0
402 0.1041261907579062 0.07877617096873846 0
403 0.5457865624659577 0.4814473580654994 0
404 0.07492881690444753 0.06729276036612297 0
405 0.5741752312886511 0.4474808057314847 0
406 0.6424171087597412 0.4867578943185307 0
407 0.7481268718099773 0.4190911340997286 0
408 0.6917416485048227 0.4702840147136731 0
409 0.7170587439390639 0.460237955591442 0
410 0.04027225646495058 0.01059173403086083 0
411 0.6182694426161556 0.4507622776894642 0
412 0.4156779050409658 0.4261422687722631 0
413 0.7337913260298594 0.4064516235484428 0
414 0.4161215185845329 0.4412088410022189 0
415 0.3931401393804403 0.4460208615517492 0
416 0.7506579772390535 0.02311702080240996 0
417 0.05650618794989726 0.02636355345323738 0
418 0.7700059306028672 0.01136227118678818 0
419 0.5963416959441519 0.446400788639109 0
420 0.731382686244279 0.01144375052842667 0
421 0.6340780810908198 0.4657117935743329 0
422 0.737114634399229 0.4444346676161107 0
423 0.5949910942086913 0.4801057000105701 0
424 0.5777997168113361 0.4799790708383546 0
425 0.612101531794677 0.481776752787009 0
426 0.5956787104006795 0.4669852014625481 0
427 0.5853421958761793 0.469266108763727 0
428 0.6057201806820389 0.4703340736936655 0
429 0.7047874076784312 0.2092040556270083 0
430 0.5091273057216866 0.0154332847812787 0
431 0.3730441234170703 0.3227203892813735 0
432 0.5228294718230129 0.4157808203724037 0
433 0.3227826212735732 0.2663783724965855 0
434 0.4340774452660813 0.01464029310896642 0
435 0.7034188941868171 0.2819284703925189 0
436 0.5827967790999298 0.01574920176971256 0
437 0.275481033759814 0.2084445492825228 0
438 0.3631627839327128 0.01695059252265563 0
439 0.7051231132256979 0.1381407280520118 0
440 0.5967005855888926 0.4194895171947085 0
441 0.2406255729967736 0.167368780744321 0
442 0.4053037559565451 0.3660945243093878 0
443 0.3089615190125369 0.01645609313776886 0
444 0.7049540835675557 0.3363636363636365 0
445 0.6392890645930774 0.01398717389030923 0
446 0.204138904898138 0.1243419823504236 0
447 0.253303902387865 0.01558924799970401 0
448 0.4691263053583845 0.4117652119265948 0
449 0.7066737688885565 0.08213764449477123 0
450 0.6518313748713048 0.4226081822519213 0
451 0.1691008356298621 0.08244455943493689 0
452 0.5598559346368722 0.4176263291487195 0
453 0.2990264807456929 0.2383309027624035 0
454 0.345655748735981 0.2949605272988748 0
455 0.5450395583588029 0.01869409932818755 0
456 0.4719057845856274 0.01396637169581982 0
457 0.3995122186799682 0.01589467302904607 0
458 0.7054619157995771 0.2451165680259629 0
459 0.7045739132741966 0.171567737679887 0
460 0.2165530482087237 0.01516828364471901 0
461 0.7062973012346285 0.3720692915716236 0
462 0.6750770589420734 0.01480702461436523 0
463 0.1792691686319468 0.01589467302904618 0
464 0.4293458649665158 0.3928407835073868 0
465 0.6940283416315207 0.4213801928353898 0
466 0.1441705582728178 0.05354113410560601 0
467 0.704842839291497 0.04635363253761116 0
468 0.1424188509559775 0.01488031137391599 0
469 0.7055313810269865 0.4039765353003415 0
470 0.1199454609551945 0.02556534523631976 0
471 0.669222422536885 0.4241398329758421 0
472 0.6618346378447131 0.4074322506454544 0
473 0.6435906093727435 0.4062151551171177 0
474 0.6537881228111111 0.3909511501535092 0
475 0.6354639900985161 0.3897271959056319 0
476 0.6456994343086231 0.3744662203824363 0
477 0.6274233199331535 0.373199963748496 0
478 0.6376085559540439 0.3579757992537521 0
479 0.6193542606871498 0.3567192181377173 0
480 0.6295308567787939 0.34151374156541 0
481 0.6112717697837418 0.3402601104427755 0
482 0.6214578431422134 0.3250510080104855 0
483 0.6031988548135245 0.3238007967844788 0
484 0.6133854967587823 0.3085927426842323 0
485 0.5951207225781051 0.3073463214123777 0
486 0.6053154934041198 0.292138674531481 0
487 0.5870361420924555 0.2908966448715473 0
488 0.597241911283817 0.2756816391424455 0
489 0.5789722269840215 0.2744351506078313 0
490 0.5891719092382961 0.2592226150877635 0
491 0.5708888077202074 0.2579818951177797 0
492 0.5810999360004263 0.2427648171603793 0
493 0.562818332072752 0.2415205228216005 0
494 0.5730272824130855 0.2263012375473332 0
495 0.5547384582422041 0.2250601559978228 0
496 0.5649549060957665 0.2098396381507067 0
497 0.5466573850270496 0.2085846237685422 0
498 0.5364454145169464 0.2238315261987118 0
499 0.5283534148270848 0.2073322567849923 0
500 0.5607251969671276 0.2732616359650151 0
501 0.5181308003028409 0.2226000304114396 0
502 0.510036049025397 0.2060967202400828 0
503 0.5568872567984527 0.193358151925809 0
504 0.4997972099288585 0.2213560919134363 0
505 0.4917075810352493 0.2048592410343735 0
506 0.5019495418184378 0.1895984891793706 0
507 0.4836186730915205 0.188360265240535 0
508 0.4938633261792888 0.1731049068191077 0
509 0.4755312634815609 0.1718620016764562 0
510 0.4652832320228154 0.1871211111345735 0
511 0.4571904837777497 0.1706098931121806 0
512 0.4469378974224842 0.1858799139427074 0
513 0.4388407303452294 0.1693567543323531 0
514 0.4857782924375519 0.1566106182256629 0
515 0.5751761299571522 0.1946125861071121 0
516 0.5671090943636631 0.1781513708318323 0
517 0.4285803089956129 0.184632029061477 0
518 0.420483551173037 0.16810669089845 0
519 0.4366829084706125 0.2011605563565618 0
520 0.430745718937815 0.1528325262467289 0
521 0.4123873122516372 0.1515805679392769 0
522 0.5853897900634645 0.1793950483345894 0
523 0.5773238584981093 0.16294250483377 0
524 0.4021219580180672 0.1668552245558971 0
525 0.3940206880296633 0.150322585683728 0
526 0.5849972756867059 0.322671725643903 0
527 0.422653260903084 0.1363107703563 0
528 0.5955990157509381 0.1641827659869955 0
529 0.5875369593545618 0.1477363203337604 0
530 0.3837503977837712 0.1656047483284812 0
531 0.375646176599871 0.1490640214312893 0
532 0.5993872041961359 0.2439415766792956 0
533 0.6058052984600374 0.1489734789488673 0
534 0.5977473505722889 0.1325306281794101 0
535 0.5794753536335447 0.1312921588257521 0
536 0.5896889625126434 0.1160907512315393 0
537 0.5714130821076904 0.1148472458253157 0
538 0.6079563839927831 0.1173297799352669 0
539 0.6138659668795899 0.1654117161691061 0
540 0.3653680870926077 0.1643564024198736 0
541 0.3572658743912708 0.1478094993594707 0
542 0.3675435127551347 0.1325202025427912 0
543 0.3491678936405985 0.1312635047627487 0
544 0.3734739944960997 0.1809002421361607 0
545 0.3594465405241121 0.1159809742034196 0
546 0.3410720798932949 0.1147212007580687 0
547 0.3307921911306325 0.1299999476135087 0
548 0.3226950050884343 0.1134585425125716 0
549 0.5079015815253164 0.2378640619898164 0
550 0.4895526914938161 0.2366167059098499 0
551 0.4976555421079487 0.2531271049631048 0
552 0.4793001574674512 0.2518838643669951 0
553 0.4874052107903436 0.2684030678700091 0
554 0.4690400558998433 0.2671574522635634 0
555 0.4771508573208024 0.2836893603368401 0
556 0.4587728980332012 0.2824415308853924 0
557 0.466890046033369 0.2989802171135843 0
558 0.4852652475476695 0.3002201742157335 0
559 0.4750067688998275 0.3155127401352236 0
560 0.493381234734385 0.3167492594889771 0
561 0.3329756865007623 0.09817913850534565 0
562 0.3145989649237864 0.09690904308751536 0
563 0.5999005845421183 0.1008934990419372 0
564 0.6181599987242971 0.102138292183515 0
565 0.3043177800407607 0.1121972020652107 0
566 0.2962204421600825 0.09564171191742732 0
567 0.6235954497397138 0.2933388767160429 0
568 0.3550837353248035 0.1796541504028508 0
569 0.3631934841643408 0.19621348773947 0
570 0.4485055218550324 0.2977415103513065 0
571 0.4403863451167452 0.2811909712296721 0
572 0.4831271057008046 0.3320411211263963 0
573 0.5014971132572474 0.3332803724590475 0
574 0.6262097194005652 0.1185998844271506 0
575 0.559052418393254 0.1616779452412311 0
576 0.6011850327885202 0.3556079869190151 0
577 0.610113261990255 0.08569500084498693 0
578 0.628370861630515 0.08694428974968249 0
579 0.5918438756336952 0.08444998232442091 0
580 0.2859365364253053 0.1109209643591937 0
581 0.2778399117639375 0.09437874726585349 0
582 0.2940103019145787 0.1274503869168931 0
583 0.6397409171050953 0.3262949749747373 0
584 0.3248817134425623 0.08163333727856836 0
585 0.3432469578062349 0.08290007170558689 0
586 0.4912434402579005 0.3485712992055582 0
587 0.5096131496409323 0.3498084911443574 0
588 0.4647563001081877 0.3308310312992174 0
589 0.5117512612095142 0.3179877988758655 0
590 0.2881236813240384 0.07909055467365622 0
591 0.2697511744813296 0.07782672751998565 0
592 0.2675860858376206 0.1092276795059078 0
593 0.4301096773594899 0.2965007382996563 0
594 0.421987834536663 0.2799409625097397 0
595 0.344791334330472 0.194963920094796 0
596 0.3529130278063702 0.2115370043762435 0
597 0.3713111426988693 0.2127667390726379 0
598 0.4322797445854348 0.2646435791753073 0
599 0.4138695168510598 0.2633778385076011 0
600 0.361034486704731 0.2281114078155875 0
601 0.3351602078660357 0.06637105027769952 0
602 0.3535112793591549 0.06763323796163451 0
603 0.4993576524175881 0.3650833947480617 0
604 0.5177328835106682 0.3663351252076438 0
605 0.5279890743833744 0.35104560036375 0
606 0.5361056357067053 0.3675697995998291 0
607 0.5934542285176572 0.1958450251251336 0
608 0.3778090640031045 0.1172271814560331 0
609 0.6020629802721195 0.06924703476958749 0
610 0.5838134826533478 0.06798630998764565 0
611 0.4410075436105306 0.1375622893595483 0
612 0.4329161460228301 0.1210463903738213 0
613 0.4512607854069957 0.1222984610871181 0
614 0.4431739107782729 0.1057880751262975 0
615 0.4615131846747627 0.107037661546484 0
616 0.4534249308554371 0.09052950989958819 0
617 0.4717582019369232 0.09178565116175774 0
618 0.4350640314791395 0.08924860136207569 0
619 0.463650311333949 0.07525804616837817 0
620 0.4819740523044715 0.07650904635534894 0
621 0.4900777592506009 0.09303159173333087 0
622 0.5003189310748837 0.07778489737596744 0
623 0.508399801393596 0.09427651004314019 0
624 0.5186374132524765 0.07903941970002815 0
625 0.5041054749283947 0.1578549101363157 0
626 0.3366746538262659 0.178393019251569 0
627 0.505760152194216 0.269635886338869 0
628 0.4809843690992389 0.3638703032761696 0
629 0.4035801916311247 0.2786922254704995 0
630 0.2800328497334126 0.06255046552413479 0
631 0.655916914206642 0.3592351299378143 0
632 0.2616657846874135 0.06128134287833542 0
633 0.2513814254524235 0.07655471805536329 0
634 0.2432976322779046 0.06000809035132781 0
635 0.2330061032315629 0.07528663544038511 0
636 0.3263764466455959 0.193710339979356 0
637 0.318256976958464 0.1771268093689115 0
638 0.2249173215428955 0.05873338853553572 0
639 0.4921997758974022 0.06161693491754017 0
640 0.5267142683246585 0.09551847402944436 0
641 0.5164826817746579 0.1107882191308993 0
642 0.5463569710010056 0.3522820930518653 0
643 0.5544740408698677 0.3688038385499033 0
644 0.5369454764395066 0.08028754437121977 0
645 0.5288741494517981 0.06381116720707541 0
646 0.4183130196442393 0.1999131837562498 0
647 0.4712139394874429 0.2353746226533985 0
648 0.426422101360468 0.2164271751413004 0
649 0.3794458340113264 0.2293439942194997 0
650 0.3691618779349759 0.244690480785892 0
651 0.2146148583018397 0.0740194742962082 0
652 0.2070306214358811 0.05779640722736301 0
653 0.3433315937882651 0.2266498802179981 0
654 0.345425545871306 0.05111221111074388 0
655 0.3637715811504622 0.05237216805583078 0
656 0.3718575182067813 0.06888870022726573 0
657 0.3821055243988701 0.05298146839052015 0
658 0.3901974211783509 0.07003286746225679 0
659 0.4004435610598269 0.05411208077981239 0
660 0.3270821055566034 0.04984956537757368 0
661 0.222713212558906 0.09058596814121334 0
662 0.5939372298838376 0.05387017005520561 0
663 0.6122762302519682 0.05422332964710291 0
664 0.5757244562067366 0.05154601233179817 0
665 0.6172311911058058 0.3884952868380291 0
666 0.2043015369595136 0.08931746018082348 0
667 0.5073662699843215 0.381675022911142 0
668 0.4960172832461768 0.1413326594219487 0
669 0.5143464683600816 0.1426111964910434 0
670 0.6240600630501761 0.1502162470830333 0
671 0.6321086003484047 0.1666362451941532 0
672 0.6422947876419512 0.1514643178099375 0
673 0.6503423418233359 0.1678643408268183 0
674 0.6401621612510924 0.1830336618751597 0
675 0.6583811000263347 0.1842614229625798 0
676 0.6482131762427024 0.1994173252787942 0
677 0.6605141015607496 0.1527065046608428 0
678 0.6664235279824423 0.2006458280044591 0
679 0.6562617217529548 0.2158050079573815 0
680 0.6380477727932846 0.2146105861770095 0
681 0.6460941147168845 0.2309641706643251 0
682 0.6643115536253208 0.2321866786454139 0
683 0.6541502037173668 0.2473547165930098 0
684 0.6524798398969665 0.1363121716484853 0
685 0.5382437805716394 0.3357664436028318 0
686 0.4145411147547971 0.1197672107600786 0
687 0.5348172972582943 0.1121388801733181 0
688 0.5224254992006759 0.1590973755305853 0
689 0.5326836399861876 0.1439081070046893 0
690 0.5442219421449817 0.3840955642825131 0
691 0.5625953128660046 0.385327036586351 0
692 0.6359335326625967 0.2461397547102108 0
693 0.6439853212729392 0.2625245775642308 0
694 0.6622077072320113 0.2637422120963692 0
695 0.6520450071840357 0.2789174542676922 0
696 0.573594851555208 0.08311526437873096 0
697 0.4382357452040044 0.3130591189265703 0
698 0.4198226371110177 0.3118197262365188 0
699 0.4279516140742325 0.3283919663242005 0
700 0.4095274088968689 0.3271505714962581 0
701 0.4022738356012517 0.3111547454283001 0
702 0.2719273904642837 0.0462988717076489 0
703 0.2903231573738578 0.04741127296359104 0
704 0.6721192489596319 0.3920970551603036 0
705 0.5646807873708652 0.3534928499821989 0
706 0.6701133956261525 0.2801996889181553 0
707 0.6600838891862872 0.2953066865296137 0
708 0.6773993689964003 0.296120909257328 0
709 0.6680054588601918 0.3116120192235462 0
710 0.3079506124537178 0.1924546379972957 0
711 0.2998302607506236 0.1758643892548856 0
712 0.3101695169587327 0.1605526476404043 0
713 0.2917364627663313 0.1592853874052674 0
714 0.2814014892694214 0.1745997079250415 0
715 0.2737812570991927 0.1583464542551711 0
716 0.6705226475896122 0.1376328118225338 0
717 0.6626319586904551 0.1211825018343969 0
718 0.3371163512472407 0.03470885718781691 0
719 0.3166431400379258 0.2084450677163106 0
720 0.2351952681048697 0.04369224647167519 0
721 0.6038052331084224 0.03737733616476435 0
722 0.6785249117374738 0.1540486944050784 0
723 0.6257533719989941 0.2613099260102761 0
724 0.4085562158603514 0.07126247381198586 0
725 0.4188127727648465 0.05600521765094207 0
726 0.3982888531601858 0.08660938483413938 0
727 0.6798241500072164 0.1230330890860963 0
728 0.6726736712612132 0.1061036734268282 0
729 0.6545964650828164 0.1047451181242913 0
730 0.6648233024069934 0.08956627937448736 0
731 0.4695993657650427 0.1235573398801171 0
732 0.3697006634963494 0.1006842252978234 0
733 0.679039837118679 0.2657400480014658 0
734 0.4080673220593535 0.2151929878936149 0
735 0.5612021654155031 0.1300505212176069 0
736 0.399953059147864 0.1986640109360745 0
737 0.4447889946067422 0.2176651052511094 0
738 0.547210697351765 0.06512018995389302 0
739 0.5381167599288863 0.04908361388707588 0
740 0.5208068468566546 0.04733471516002913 0
741 0.4345134458534162 0.2329015681240316 0
742 0.3875699732499395 0.2458585813626844 0
743 0.377277378212732 0.2611776513457706 0
744 0.358857923960301 0.2600109444166553 0
745 0.6760337239479723 0.1851238436650077 0
746 0.2811745808086683 0.03135149220839534 0
747 0.6910306944742017 0.107485312085818 0
748 0.6879354041681137 0.3109166789430622 0
749 0.6760578934814481 0.3277079050586975 0
750 0.3690922512793394 0.2763737860715528 0
751 0.6216720999307528 0.03921127361650678 0
752 0.6304253119786273 0.05538552354956372 0
753 0.6398065209129988 0.04128811922582487 0
754 0.6486497100395479 0.05675890643870751 0
755 0.6588485392209112 0.04249544752100681 0
756 0.6670294861284325 0.05801441210872721 0
757 0.6757198351612282 0.04216955400543476 0
758 0.6872440773041139 0.05638493971420216 0
759 0.4114626810912749 0.04029595367394384 0
760 0.4290498016277957 0.04152322760357247 0
761 0.437168747176377 0.05750953537699038 0
762 0.4473279529487122 0.04303432265311868 0
763 0.2626786879265978 0.1728933827919843 0
764 0.4177382687796206 0.3426510267739039 0
765 0.4361050489039648 0.3447929228882967 0
766 0.39940382834479 0.341350869202753 0
767 0.3740341443478426 0.03711728418413435 0
768 0.531041629908789 0.03210882109686192 0
769 0.6144563495414748 0.0223780347981945 0
770 0.2970523429771982 0.2078207103446034 0
771 0.6870300018494587 0.2008018138255859 0
772 0.4238887703924691 0.3600965359907559 0
773 0.4442889022683519 0.3613032263777929 0
774 0.3186308396956898 0.03335929967782453 0
775 0.2128416234854618 0.1065122903612461 0
776 0.2310537175466372 0.106251197077987 0
777 0.19178943019547 0.1069335719506354 0
778 0.2696756253761162 0.1880879963614395 0
779 0.3520484372576517 0.2775704516332941 0
780 0.3398344278496593 0.2597546397753369 0
781 0.3271896748689287 0.01742308992434755 0
782 0.6499503560999044 0.3104630773428405 0
783 0.1861058649502866 0.08790497729826485 0
784 0.6750321125292306 0.07359600191012478 0
785 0.4554913632258947 0.0588506394762876 0
786 0.466755148837349 0.04372760270905751 0
787 0.4602748707173318 0.02865691197878806 0
788 0.5523423858551062 0.4006216550862303 0
789 0.5705798784501528 0.4019018126664026 0
790 0.5809299441865683 0.3865201936846656 0
791 0.5337230356875541 0.3996800248544505 0
792 0.4166458204252805 0.08791245358101057 0
793 0.4064227249322199 0.1032019839384817 0
794 0.5245836100600837 0.1273789082865145 0
795 0.5062533879157647 0.1260715504788374 0
796 0.6640069654244533 0.375675755202119 0
797 0.6738789637935382 0.3606019991795053 0
798 0.6660066671380255 0.3437374540430741 0
799 0.6869041726320013 0.3447287339184638 0
800 0.6809538254374876 0.3775353905379842 0
801 0.6904155657210189 0.3943450981423627 0
802 0.6804260909249266 0.4100890239260825 0
803 0.3086435312271008 0.04866710354505832 0
804 0.4740472237072251 0.06011721767032269 0
805 0.4863197766069203 0.04573181504380808 0
806 0.6334624139140286 0.4215788611668288 0
807 0.62527561980894 0.4050319168104191 0
808 0.606977838885986 0.4038831009348177 0
809 0.6150904439006633 0.4204964781821309 0
810 0.4776874260994257 0.1400768107312507 0
811 0.5531302552143488 0.1135992931156429 0
812 0.5552738976674316 0.08163162758003295 0
813 0.5571653195318773 0.04813313147834775 0
814 0.6478002184108453 0.3426028732180736 0
815 0.1313955155895128 0.04010316210238241 0
816 0.1491023117274649 0.03338704398270087 0
817 0.1621309148438285 0.04984883188516331 0
818 0.1686711006297431 0.03295664727520725 0
819 0.1799447736714798 0.04626771381084149 0
820 0.1735412607831236 0.06322152783557528 0
821 0.2561720420371864 0.154814754300932 0
822 0.2389230774739153 0.1477375385017787 0
823 0.2515293709023744 0.1397094569967109 0
824 0.2383280776060264 0.1317555786337108 0
825 0.2207012346579145 0.1402884401357951 0
826 0.6385442842870342 0.07179854263826363 0
827 0.6684237404902789 0.1690593566884373 0
828 0.6859902572475824 0.1699188952797052 0
829 0.6954411311854105 0.1545824983777456 0
830 0.6568809354599241 0.07298706866980781 0
831 0.6818138693067732 0.09038406774885965 0
832 0.4545000478263495 0.3461028072510083 0
833 0.616005936014354 0.133784443440205 0
834 0.4452992356789228 0.07402140772063659 0
835 0.6718719718325969 0.2488350568472634 0
836 0.6810177390903234 0.2338637370650509 0
837 0.6743495470240194 0.2169141472799516 0
838 0.6036585774919384 0.1806241407104474 0
839 0.6117240855072043 0.197045692634435 0
840 0.6015192671909734 0.2122678839931446 0
841 0.6578357604411946 0.01467392838873716 0
842 0.5565671092356509 0.3369834229126717 0
843 0.5484616825847438 0.3204754657521371 0
844 0.5748157629832595 0.3380550802917234 0
845 0.5301454018361338 0.3192532857933459 0
846 0.5403960529711211 0.3039902901667477 0
847 0.5586580041481118 0.3050838709175235 0
848 0.5506163503394942 0.2886985145119255 0
849 0.5322418976889256 0.2874274014715368 0
850 0.298405777158365 0.0638601547655856 0
851 0.3065073904511393 0.08037298124420111 0
852 0.6155246269999841 0.2769250105372232 0
853 0.4981612843814907 0.1095370352511506 0
854 0.6074506394482179 0.2604586576784821 0
855 0.3513406795110003 0.09943784395997352 0
856 0.3859160862173658 0.1337805266121784 0
857 0.3978170184037051 0.2304828903817122 0
858 0.692597992041765 0.01713079533502726 0
859 0.2535435408304039 0.04528463564501339 0
860 0.6176883412935886 0.2449043573170077 0
861 0.3549573347466245 0.03537923376730939 0
862 0.3813489973224647 0.01915185655528667 0
863 0.3933613622445344 0.0349715564230893 0
864 0.5727904028638399 0.3700007898906901 0
865 0.5910879739519265 0.3710720927033027 0
866 0.5036436700882362 0.3014691418314011 0
867 0.449097515357835 0.1540900709365197 0
868 0.2168313483846857 0.04249229559947498 0
869 0.1980770037264413 0.04422232371765267 0
870 0.5913119054314281 0.2274905214295286 0
871 0.4955199980450417 0.2849323055371987 0
872 0.5138892850217095 0.2861826850990118 0
873 0.524107862336389 0.2708845137717214 0
874 0.5160070146738076 0.2543754371003338 0
875 0.5343205379842981 0.2555772183757651 0
876 0.5121885543503431 0.174343266856034 0
877 0.5305091459415804 0.1755928287867548 0
878 0.2872547762389305 0.2239245108974108 0
879 0.6197932954607334 0.2134584746606528 0
880 0.6316523314365036 0.3098229257059461 0
881 0.5644351587513344 0.01631647794996693 0
882 0.5730013302433651 0.03380764772880346 0
883 0.3285804373233996 0.1618308523530826 0
884 0.5450384393318052 0.09693004457853849 0
885 0.3100894362894497 0.2529118951922593 0
886 0.31665219290556 0.2388856605602203 0
887 0.4593497935597693 0.1388246081137601 0
888 0.5407582954784608 0.1604028269080779 0
889 0.3584975040411905 0.3089446717491798 0
890 0.3763883714408663 0.3043222571013257 0
891 0.5413475469105604 0.4166896134009905 0
892 0.5152583222433622 0.3986631853237617 0
893 0.5048403634455061 0.4140393756731723 0
894 0.4970459170651125 0.396938712761354 0
895 0.5202698321525893 0.1908367062935521 0
896 0.6219208496595532 0.1818240582456416 0
897 0.526223982400571 0.2390873721307201 0
898 0.6364028276150425 0.1034046186705614 0
899 0.634252002161491 0.135050815849998 0
900 0.5832406199343438 0.2110594820588265 0
901 0.5198696378820706 0.3345232940160299 0
902 0.3961761477988988 0.1184905755610084 0
903 0.426924470564153 0.0726599482506069 0
904 0.5220330314650686 0.3027344332132544 0
905 0.6337965611799665 0.2777363997310911 0
906 0.4042824349925743 0.1350420394854284 0
907 0.4910259762900898 0.01501984122166999 0
908 0.4977836958654993 0.03056037989234106 0
909 0.4879273143578788 0.1248031883541562 0
910 0.361602148845248 0.08416145328959651 0
911 0.6202988217350865 0.0705489535331979 0
912 0.4674391291189821 0.1553456671326384 0
913 0.4798405197903509 0.1082947639793396 0
914 0.4247939580654233 0.1044941191902943 0
915 0.3168050062147387 0.06510897209336491 0
916 0.5105318621165815 0.0629661464122746 0
917 0.4162472781508079 0.01446929416864873 0
918 0.4506824181439589 0.2659124731483907 0
919 0.6465957248389627 0.08822621285606863 0
920 0.156058880009643 0.06771588330826589 0
921 0.5385869158611416 0.1921007284849985 0
922 0.2594753359847777 0.0930308175234108 0
923 0.4550383857439894 0.2023835348984325 0
924 0.7048997530200953 0.1911996756139701 0
925 0.7053759212754217 0.2624077614088758 0
926 0.706347763671364 0.2272352554573135 0
927 0.2716159815835901 0.01549559825722541 0
928 0.3799487905966086 0.08537880452400937 0
929 0.7049649991680589 0.3009850022806471 0
930 0.5692708940373244 0.1464900586644978 0
931 0.2351289949677993 0.01520707479201439 0
932 0.1974272354956992 0.01527236262971743 0
933 0.581631799572991 0.09963353183391943 0
934 0.7052099328018135 0.06434346314098566 0
935 0.7050173821386169 0.354136487898717 0
936 0.7049540835675557 0.3181818181818183 0
937 0.4566281091668651 0.3142828681694739 0
938 0.4102187564408776 0.183382877028814 0
939 0.2885652274311485 0.1912119985276314 0
940 0.3469756716262073 0.163101955097219 0
941 0.3388849622729128 0.1465460905168178 0
942 0.3508799501683367 0.2436467096660687 0
943 0.3124120763368252 0.1287255830629817 0
944 0.3352988484992477 0.2098619828812219 0
945 0.6444288021412228 0.1198825184258139 0
946 0.4814679866971086 0.2201157651326265 0
947 0.6579269185159184 0.3270697173101615 0
948 0.1609155811279448 0.01589467302904601 0
949 0.5258545349278384 0.3828625917427183 0
950 0.4733754923853102 0.2036153181496908 0
951 0.4609657973925867 0.2506476787767491 0
952 0.3910969997501355 0.325902548734696 0
953 0.2842465748753179 0.1431061337097307 0
954 0.4118511562146683 0.2953513302819031 0
955 0.5633482233085239 0.09834750246201002 0
956 0.1967435170017863 0.07308524871782768 0
957 0.4463628108806007 0.3295767858097945 0
958 0.6299768901524284 0.1982316331452821 0
959 0.5783313971710259 0.4185751901833243 0
960 0.2411375964583384 0.0916804636257606 0
961 0.3918536778195056 0.1821279471571101 0
962 0.6419016401185809 0.2940858282393187 0
963 0.3880520410593137 0.1019144765953593 0
964 0.3815658096929927 0.197439156516595 0
965 0.5488171878060921 0.176880642029784 0
966 0.5445385454002163 0.2402759587082539 0
967 0.4728701383532548 0.347361508807059 0
968 0.4631292447346947 0.2188850621142617 0
969 0.3204967373127712 0.1452737284725478 0
970 0.5526154613464087 0.2567673226810886 0
971 0.4626095671270477 0.362752490684004 0
972 0.4707562358865242 0.3792032997272581 0
973 0.4532227834286963 0.3782432413800436 0
974 0.4616292517631067 0.3949656609184067 0
975 0.3896933643356852 0.2139816298366891 0
976 0.3924211556857459 0.2957980753913032 0
977 0.2493459277449968 0.1066356407918748 0
978 0.5423849058890288 0.2720714357378459 0
979 0.550990393220523 0.1452187245529683 0
980 0.4242154838583565 0.2481478556493742 0
981 0.4528798276573553 0.2341459450912308 0
982 0.3021412398541244 0.1439872496484912 0
983 0.5429012268591568 0.1287157390584567 0
984 0.6278793345344545 0.2297792622246703 0
985 0.5565997338677475 0.03064867121612869 0
986 0.2756564974098898 0.1261466718124425 0
987 0.6095977300203936 0.2285945868882285 0
988 0.4425894529151848 0.2493998499941806 0
989 0.5688386887861699 0.2896444904092381 0
990 0.4161658222099634 0.2316845679173575 0
991 0.4890477909981374 0.3803906299736528 0
992 0.5768997219166971 0.306168711093776 0
993 0.5667332594258615 0.3215730461019558 0
994 0.5930549108224867 0.3391657604597493 0
995 0.565463784161061 0.06625542261840811 0
996 0.5829358117968163 0.3545657600411132 0
997 0.4059595617244811 0.2469549303141116 0
998 0.3956808518640119 0.2622711171844588 0
999 0.6092430824932057 0.37208211570556 0
1000 0.3862271374070207 0.2774965634396646 0
1001 0.7063246443790393 0.1181336057028033 0
1002 0.479089096789294 0.3957792894767361 0
1003 0.5887827267958839 0.4029613267584531 0
1004 0.2995207202956351 0.0320148260534886 0
1005 0.5991276675655223 0.3874361221564809 0
1006 0.4183114900433909 0.3786284444367294 0
1007 0.3337971023670288 0.24096240416346 0
1008 0.4867312884404552 0.4130224939743239 0
1009 0.6866868022599469 0.2815914057087809 0
1010 0.5266812269947316 0.01571443764574976 0
1011 0.1074145716153622 0.01308122639342846 0
1012 0.2900090315020576 0.01588633494281311 0
1013 0.706331758826758 0.02797694333112927 0
1014 0.6877313488860102 0.1392131277443267 0
1015 0.2244104303923997 0.1210555495029165 0
1016 0.7069422719306806 0.09989964452544842 0
1017 0.3455106787814133 0.01815429384577966 0
1018 0.2628170392441745 0.0307628055351935 0
1019 0.6901603861252943 0.2516978243555683 0
1020 0.364314218859268 0.2927655980532364 0
1021 0.7061189502547157 0.3888914826228853 0
1022 0.6914861633366928 0.2207304409364245 0
1023 0.3068969811450037 0.2232669379486869 0
1024 0.599385148942728 0.01588709389959686 0
1025 0.3333883876889978 0.2814196696130222 0
1026 0.6913022805707095 0.3650049689109136 0
1027 0.5039019187990685 0.0463738566570091 0
1028 0.3818690634462974 0.3396154666333953 0
1029 0.4522535810695935 0.4093080274927232 0
1030 0.1886469798859642 0.03065102442636652 0
1031 0.2449021477852839 0.03031226084547373 0
1032 0.2503170577541918 0.1836062587857376 0
1033 0.4356525282840915 0.3778072165700367 0
1034 0.2562025848999593 0.1241746069782318 0
1035 0.5888989838865029 0.0291249268993149 0
1036 0.6920330474454623 0.07641457031304022 0
1037 0.6919142481157768 0.03641262818926216 0
1038 0.4790108754838029 0.02961048709024744 0
1039 0.22639430555819 0.02952281175760307 0
1040 0.6919287814783704 0.3275783317912095 0
1041 0.4449502060515835 0.3940364143453105 0
1042 0.515141613955914 0.03090536329426397 0
1043 0.2674652904250632 0.1425565951703438 0
1044 0.1901158059725718 0.05942074155627147 0
1045 0.2073216535432841 0.02955485029592231 0
1046 0.667380573087744 0.02885948344887279 0
1047 0.4523976524561074 0.01458005074595109 0
1048 0.2261480540276732 0.156349272614258 0
1049 0.326094044627558 0.224446378244548 0
1050 0.691536341744085 0.1843002957810012 0
1051 0.6485489324497379 0.02786526602623951 0
1052 0.3923692000004147 0.3540506176108374 0
1053 0.4401535014711606 0.02912182250473261 0
1054 0.1763152569600778 0.09912330266737146 0
1055 0.1247792704235547 0.01225027177126975 0
1056 0.2594837111276642 0.1985942224855352 0
1057 0.7072354735115093 0.01341914937942001 0
1058 0.378719753482464 0.2901871996776875 0
1059 0.6304157861669479 0.02615116035280884 0
1060 0.6825661723996339 0.4275652319275997 0
1061 0.4230913091895057 0.02777717224091708 0
1062 0.6940131255616104 0.1256613968716804 0
1063 0.6920810937558673 0.2943084933164675 0
1064 0.7100856690457394 0.1545931659502128 0
1065 0.6936431829057043 0.4088446432832463 0
1066 0.6247343475514959 0.01250327380826255 0
1067 0.7049788208413763 0.4168477091953679 0
1068 0.6805379414697175 0.0278758971185924 0
1069 0.6929707970539022 0.2695579627767226 0
1070 0.1829225601580121 0.07442144962352787 0
1071 0.4087349698712183 0.02668172990712903 0
1072 0.3244919291818415 0.2523630460723167 0
1073 0.1337681051637273 0.02602947937240729 0
1074 0.387748891130215 0.3125011273187485 0
1075 0.6948285590271474 0.3805964297255883 0
1076 0.6953845207065598 0.2363636363636364 0
1077 0.6962245238422864 0.0916413048692975 0
1078 0.4382278480117118 0.4057534367257337 0
1079 0.5860774989665325 0.04219907785726884 0
1080 0.4078091660277268 0.3525719450769925 0
1081 0.23939902416022 0.117183808458336 0
1082 0.5444977605481859 0.03600713623104312 0
$EndNodes
$Elements
2164
1 15 2 7 1 1
2 15 2 6 14 14
3 1 2 4 1 1 15
4 1 2 4 1 15 16
5 1 2 4 1 16 2
6 1 2 4 3 3 23
7 1 2 4 3 23 24
8 1 2 4 3 24 25
9 1 2 4 3 25 26
10 1 2 4 3 26 4
11 1 2 4 4 4 27
12 1 2 4 4 27 28
13 1 2 4 4 28 29
14 1 2 4 4 29 30
15 1 2 4 4 30 31
16 1 2 4 4 31 32
17 1 2 4 4 32 5
18 1 2 4 5 5 33
19 1 2 4 5 33 34
20 1 2 4 5 34 35
21 1 2 4 5 35 36
22 1 2 4 5 36 37
23 1 2 4 5 37 38
24 1 2 4 5 38 39
25 1 2 4 5 39 40
26 1 2 4 5 40 41
27 1 2 4 5 41 42
28 1 2 4 5 42 43
29 1 2 4 5 43 44
30 1 2 4 5 44 45
31 1 2 4 5 45 46
32 1 2 4 5 46 47
33 1 2 4 5 47 48
34 1 2 4 5 48 49
35 1 2 4 5 49 50
36 1 2 4 5 50 51
37 1 2 4 5 51 52
38 1 2 4 5 52 53
39 1 2 4 5 53 54
40 1 2 4 5 54 55
41 1 2 4 5 55 56
42 1 2 4 5 56 57
43 1 2 4 5 57 58
44 1 2 4 5 58 59
45 1 2 4 5 59 60
46 1 2 4 5 60 61
47 1 2 4 5 61 62
48 1 2 4 5 62 6
49 1 2 5 6 6 63
50 1 2 5 6 63 64
51 1 2 5 6 64 65
52 1 2 5 6 65 66
53 1 2 5 6 66 7
54 1 2 5 12 12 131
55 1 2 5 12 131 132
56 1 2 5 12 132 133
57 1 2 5 12 133 13
58 1 2 4 13 13 134
59 1 2 4 13 134 135
60 1 2 4 13 135 136
61 1 2 4 13 136 137
62 1 2 4 13 137 138
63 1 2 4 13 138 139
64 1 2 4 13 139 140
65 1 2 4 13 140 141
66 1 2 4 13 141 142
67 1 2 4 13 142 143
68 1 2 4 13 143 144
69 1 2 4 13 144 145
70 1 2 4 13 145 146
71 1 2 4 13 146 147
72 1 2 4 13 147 148
73 1 2 4 13 148 149
74 1 2 4 13 149 150
75 1 2 4 13 150 151
76 1 2 4 13 151 152
77 1 2 4 13 152 153
78 1 2 4 13 153 154
79 1 2 4 13 154 14
80 1 2 4 14 14 155
81 1 2 4 14 155 156
82 1 2 4 14 156 157
83 1 2 4 14 157 158
84 1 2 4 14 158 159
85 1 2 4 14 159 160
86 1 2 4 14 160 161
87 1 2 4 14 161 162
88 1 2 4 14 162 1
89 1 2 4 15 2 163
90 1 2 4 15 163 164
91 1 2 4 15 164 165
92 1 2 4 15 165 166
93 1 2 4 15 166 3
94 1 2 5 16 7 167
95 1 2 5 16 167 168
96 1 2 5 16 168 169
97 1 2 5 16 169 170
98 1 2 5 16 170 171
99 1 2 5 16 171 172
100 1 2 5 16 172 173
101 1 2 5 16 173 174
102 1 2 5 16 174 175
103 1 2 5 16 175 176
104 1 2 5 16 176 177
105 1 2 5 16 177 178
106 1 2 5 16 178 179
107 1 2 5 16 179 180
108 1 2 5 16 180 181
109 1 2 5 16 181 182
110 1 2 5 16 182 183
111 1 2 5 16 183 184
112 1 2 5 16 184 185
113 1 2 5 16 185 186
114 1 2 5 16 186 187
115 1 2 5 16 187 188
116 1 2 5 16 188 189
117 1 2 5 16 189 190
118 1 2 5 16 190 191
119 1 2 5 16 191 192
120 1 2 5 16 192 193
121 1 2 5 16 193 194
122 1 2 5 16 194 195
123 1 2 5 16 195 196
124 1 2 5 16 196 197
125 1 2 5 16 197 198
126 1 2 5 16 198 199
127 1 2 5 16 199 200
128 1 2 5 16 200 12
129 2 2 2 1 269 270 251
130 2 2 2 1 270 271 201
131 2 2 2 1 21 336 287
132 2 2 2 1 22 336 21
133 2 2 2 1 95 267 94
134 2 2 2 1 267 412 94
135 2 2 2 1 256 272 202
136 2 2 2 1 106 269 251
137 2 2 2 1 210 382 5
138 2 2 2 1 372 407 342
139 2 2 2 1 203 268 256
140 2 2 2 1 202 271 269
141 2 2 2 1 107 256 202
142 2 2 2 1 407 413 342
143 2 2 2 1 279 280 204
144 2 2 2 1 201 273 270
145 2 2 2 1 291 402 303
146 2 2 2 1 374 399 207
147 2 2 2 1 202 408 271
148 2 2 2 1 268 388 223
149 2 2 2 1 223 409 268
150 2 2 2 1 203 256 108
151 2 2 2 1 282 399 374
152 2 2 2 1 272 384 253
153 2 2 2 1 272 409 384
154 2 2 2 1 209 377 276
155 2 2 2 1 274 280 279
156 2 2 2 1 276 377 266
157 2 2 2 1 271 338 201
158 2 2 2 1 232 407 372
159 2 2 2 1 262 413 407
160 2 2 2 1 16 273 15
161 2 2 2 1 271 408 338
162 2 2 2 1 62 6 63
163 2 2 2 1 303 402 231
164 2 2 2 1 266 267 95
165 2 2 2 1 15 273 201
166 2 2 2 1 279 368 276
167 2 2 2 1 336 367 285
168 2 2 2 1 336 403 367
169 2 2 2 1 277 407 387
170 2 2 2 1 66 275 265
171 2 2 2 1 333 382 210
172 2 2 2 1 280 343 335
173 2 2 2 1 7 275 66
174 2 2 2 1 247 274 97
175 2 2 2 1 269 271 270
176 2 2 2 1 10 269 106
177 2 2 2 1 205 343 285
178 2 2 2 1 368 390 276
179 2 2 2 1 338 408 253
180 2 2 2 1 96 266 95
181 2 2 2 1 335 343 205
182 2 2 2 1 93 278 246
183 2 2 2 1 247 280 274
184 2 2 2 1 5 382 32
185 2 2 2 1 387 407 232
186 2 2 2 1 253 408 272
187 2 2 2 1 370 414 377
188 2 2 2 1 148 350 349
189 2 2 2 1 122 351 348
190 2 2 2 1 103 411 19
191 2 2 2 1 11 413 109
192 2 2 2 1 210 366 333
193 2 2 2 1 268 422 388
194 2 2 2 1 285 367 205
195 2 2 2 1 333 366 278
196 2 2 2 1 384 409 223
197 2 2 2 1 277 387 260
198 2 2 2 1 97 274 9
199 2 2 2 1 109 413 262
200 2 2 2 1 19 419 103
201 2 2 2 1 67 275 7
202 2 2 2 1 8 278 93
203 2 2 2 1 282 404 399
204 2 2 2 1 63 373 62
205 2 2 2 1 20 405 102
206 2 2 2 1 275 417 265
207 2 2 2 1 236 285 284
208 2 2 2 1 274 279 233
209 2 2 2 1 303 404 282
210 2 2 2 1 235 282 281
211 2 2 2 1 64 373 63
212 2 2 2 1 235 281 68
213 2 2 2 1 110 206 11
214 2 2 2 1 208 414 370
215 2 2 2 1 349 350 313
216 2 2 2 1 348 351 310
217 2 2 2 1 247 343 280
218 2 2 2 1 236 284 99
219 2 2 2 1 233 279 276
220 2 2 2 1 61 373 283
221 2 2 2 1 162 253 161
222 2 2 2 1 291 303 235
223 2 2 2 1 211 286 111
224 2 2 2 1 9 274 233
225 2 2 2 1 60 207 59
226 2 2 2 1 272 408 202
227 2 2 2 1 302 347 344
228 2 2 2 1 100 287 236
229 2 2 2 1 98 284 247
230 2 2 2 1 98 247 97
231 2 2 2 1 102 419 20
232 2 2 2 1 233 276 266
233 2 2 2 1 9 233 96
234 2 2 2 1 158 260 157
235 2 2 2 1 233 266 96
236 2 2 2 1 60 283 207
237 2 2 2 1 156 232 155
238 2 2 2 1 160 223 159
239 2 2 2 1 285 343 284
240 2 2 2 1 1 338 162
241 2 2 2 1 33 210 5
242 2 2 2 1 287 336 236
243 2 2 2 1 61 283 60
244 2 2 2 1 107 202 10
245 2 2 2 1 101 287 100
246 2 2 2 1 106 251 105
247 2 2 2 1 127 352 346
248 2 2 2 1 100 236 99
249 2 2 2 1 14 288 154
250 2 2 2 1 203 422 268
251 2 2 2 1 99 284 98
252 2 2 2 1 270 332 251
253 2 2 2 1 154 288 241
254 2 2 2 1 219 289 34
255 2 2 2 1 235 303 282
256 2 2 2 1 246 290 92
257 2 2 2 1 94 234 8
258 2 2 2 1 69 291 235
259 2 2 2 1 255 292 82
260 2 2 2 1 83 293 255
261 2 2 2 1 75 294 261
262 2 2 2 1 257 296 80
263 2 2 2 1 89 298 249
264 2 2 2 1 87 297 250
265 2 2 2 1 258 300 78
266 2 2 2 1 85 299 254
267 2 2 2 1 73 295 263
268 2 2 2 1 71 301 264
269 2 2 2 1 234 278 8
270 2 2 2 1 135 302 239
271 2 2 2 1 91 290 248
272 2 2 2 1 264 291 70
273 2 2 2 1 79 296 258
274 2 2 2 1 254 293 84
275 2 2 2 1 81 292 257
276 2 2 2 1 259 294 76
277 2 2 2 1 250 299 86
278 2 2 2 1 261 295 74
279 2 2 2 1 263 301 72
280 2 2 2 1 249 297 88
281 2 2 2 1 248 298 90
282 2 2 2 1 77 300 259
283 2 2 2 1 135 239 134
284 2 2 2 1 93 246 92
285 2 2 2 1 81 257 80
286 2 2 2 1 69 235 68
287 2 2 2 1 83 255 82
288 2 2 2 1 77 259 76
289 2 2 2 1 75 261 74
290 2 2 2 1 87 250 86
291 2 2 2 1 79 258 78
292 2 2 2 1 73 263 72
293 2 2 2 1 71 264 70
294 2 2 2 1 91 248 90
295 2 2 2 1 89 249 88
296 2 2 2 1 85 254 84
297 2 2 2 1 282 374 281
298 2 2 2 1 92 290 91
299 2 2 2 1 70 291 69
300 2 2 2 1 82 292 81
301 2 2 2 1 76 294 75
302 2 2 2 1 84 293 83
303 2 2 2 1 90 298 89
304 2 2 2 1 86 299 85
305 2 2 2 1 72 301 71
306 2 2 2 1 80 296 79
307 2 2 2 1 88 297 87
308 2 2 2 1 78 300 77
309 2 2 2 1 74 295 73
310 2 2 2 1 136 302 135
311 2 2 2 1 237 304 137
312 2 2 2 1 237 305 304
313 2 2 2 1 136 304 302
314 2 2 2 1 154 241 153
315 2 2 2 1 152 306 243
316 2 2 2 1 241 306 153
317 2 2 2 1 137 304 136
318 2 2 2 1 153 306 152
319 2 2 2 1 117 314 217
320 2 2 2 1 145 316 245
321 2 2 2 1 217 312 116
322 2 2 2 1 125 317 124
323 2 2 2 1 213 314 118
324 2 2 2 1 117 217 116
325 2 2 2 1 119 213 118
326 2 2 2 1 141 308 140
327 2 2 2 1 151 307 150
328 2 2 2 1 309 310 216
329 2 2 2 1 139 320 138
330 2 2 2 1 244 316 146
331 2 2 2 1 114 238 113
332 2 2 2 1 115 311 114
333 2 2 2 1 116 312 115
334 2 2 2 1 129 214 128
335 2 2 2 1 140 240 139
336 2 2 2 1 120 315 119
337 2 2 2 1 124 242 123
338 2 2 2 1 121 218 120
339 2 2 2 1 144 318 143
340 2 2 2 1 145 245 144
341 2 2 2 1 245 318 144
342 2 2 2 1 147 244 146
343 2 2 2 1 152 243 151
344 2 2 2 1 217 313 312
345 2 2 2 1 216 308 141
346 2 2 2 1 112 319 211
347 2 2 2 1 150 307 215
348 2 2 2 1 218 315 120
349 2 2 2 1 138 320 237
350 2 2 2 1 240 320 139
351 2 2 2 1 142 309 216
352 2 2 2 1 150 215 149
353 2 2 2 1 114 311 238
354 2 2 2 1 115 312 311
355 2 2 2 1 124 317 242
356 2 2 2 1 212 317 125
357 2 2 2 1 140 308 240
358 2 2 2 1 119 315 213
359 2 2 2 1 143 318 309
360 2 2 2 1 113 319 112
361 2 2 2 1 142 216 141
362 2 2 2 1 118 314 117
363 2 2 2 1 138 237 137
364 2 2 2 1 143 309 142
365 2 2 2 1 126 212 125
366 2 2 2 1 243 307 151
367 2 2 2 1 146 316 145
368 2 2 2 1 112 211 111
369 2 2 2 1 238 319 113
370 2 2 2 1 56 324 55
371 2 2 2 1 42 322 41
372 2 2 2 1 47 226 46
373 2 2 2 1 51 228 50
374 2 2 2 1 43 224 42
375 2 2 2 1 45 225 44
376 2 2 2 1 41 222 40
377 2 2 2 1 49 227 48
378 2 2 2 1 57 231 56
379 2 2 2 1 53 229 52
380 2 2 2 1 36 323 35
381 2 2 2 1 55 230 54
382 2 2 2 1 39 221 38
383 2 2 2 1 35 219 34
384 2 2 2 1 38 328 37
385 2 2 2 1 37 220 36
386 2 2 2 1 52 329 51
387 2 2 2 1 50 321 49
388 2 2 2 1 40 325 39
389 2 2 2 1 44 330 43
390 2 2 2 1 54 326 53
391 2 2 2 1 46 327 45
392 2 2 2 1 48 331 47
393 2 2 2 1 68 281 67
394 2 2 2 1 34 289 33
395 2 2 2 1 234 334 333
396 2 2 2 1 228 321 50
397 2 2 2 1 41 322 222
398 2 2 2 1 55 324 230
399 2 2 2 1 231 324 56
400 2 2 2 1 220 323 36
401 2 2 2 1 225 330 44
402 2 2 2 1 222 325 40
403 2 2 2 1 226 327 46
404 2 2 2 1 37 328 220
405 2 2 2 1 35 323 219
406 2 2 2 1 224 322 42
407 2 2 2 1 229 329 52
408 2 2 2 1 51 329 228
409 2 2 2 1 221 328 38
410 2 2 2 1 53 326 229
411 2 2 2 1 39 325 221
412 2 2 2 1 47 331 226
413 2 2 2 1 230 326 54
414 2 2 2 1 49 321 227
415 2 2 2 1 45 327 225
416 2 2 2 1 43 330 224
417 2 2 2 1 227 331 48
418 2 2 2 1 111 286 110
419 2 2 2 1 278 366 246
420 2 2 2 1 264 402 291
421 2 2 2 1 31 208 30
422 2 2 2 1 29 209 28
423 2 2 2 1 204 368 279
424 2 2 2 1 301 401 264
425 2 2 2 1 130 337 129
426 2 2 2 1 33 289 210
427 2 2 2 1 373 410 283
428 2 2 2 1 234 333 278
429 2 2 2 1 280 335 204
430 2 2 2 1 401 402 264
431 2 2 2 1 260 422 277
432 2 2 2 1 109 203 108
433 2 2 2 1 202 269 10
434 2 2 2 1 344 347 214
435 2 2 2 1 263 400 301
436 2 2 2 1 108 256 107
437 2 2 2 1 332 421 251
438 2 2 2 1 105 339 104
439 2 2 2 1 4 204 26
440 2 2 2 1 25 205 24
441 2 2 2 1 15 201 1
442 2 2 2 1 400 401 301
443 2 2 2 1 295 398 263
444 2 2 2 1 26 335 25
445 2 2 2 1 236 336 285
446 2 2 2 1 110 286 206
447 2 2 2 1 266 377 267
448 2 2 2 1 109 262 203
449 2 2 2 1 398 400 263
450 2 2 2 1 66 265 65
451 2 2 2 1 276 390 209
452 2 2 2 1 261 397 295
453 2 2 2 1 346 352 305
454 2 2 2 1 67 281 275
455 2 2 2 1 277 422 203
456 2 2 2 1 294 396 261
457 2 2 2 1 162 338 253
458 2 2 2 1 397 398 295
459 2 2 2 1 104 411 103
460 2 2 2 1 341 345 241
461 2 2 2 1 262 277 203
462 2 2 2 1 62 373 61
463 2 2 2 1 304 347 302
464 2 2 2 1 127 346 126
465 2 2 2 1 123 351 122
466 2 2 2 1 149 350 148
467 2 2 2 1 122 348 121
468 2 2 2 1 148 349 147
469 2 2 2 1 251 421 339
470 2 2 2 1 396 397 261
471 2 2 2 1 259 395 294
472 2 2 2 1 237 361 305
473 2 2 2 1 214 352 128
474 2 2 2 1 309 365 310
475 2 2 2 1 217 364 313
476 2 2 2 1 313 362 312
477 2 2 2 1 310 363 216
478 2 2 2 1 207 399 59
479 2 2 2 1 204 335 26
480 2 2 2 1 25 335 205
481 2 2 2 1 288 341 241
482 2 2 2 1 395 396 294
483 2 2 2 1 300 394 259
484 2 2 2 1 251 339 105
485 2 2 2 1 258 393 300
486 2 2 2 1 268 409 256
487 2 2 2 1 17 406 2
488 2 2 2 1 394 395 259
489 2 2 2 1 273 406 332
490 2 2 2 1 273 332 270
491 2 2 2 1 286 345 341
492 2 2 2 1 129 337 214
493 2 2 2 1 393 394 300
494 2 2 2 1 296 392 258
495 2 2 2 1 256 409 272
496 2 2 2 1 257 391 296
497 2 2 2 1 374 417 275
498 2 2 2 1 345 353 306
499 2 2 2 1 392 393 258
500 2 2 2 1 211 345 286
501 2 2 2 1 341 342 206
502 2 2 2 1 391 392 296
503 2 2 2 1 292 389 257
504 2 2 2 1 286 341 206
505 2 2 2 1 284 343 247
506 2 2 2 1 255 386 292
507 2 2 2 1 133 340 132
508 2 2 2 1 389 391 257
509 2 2 2 1 293 385 255
510 2 2 2 1 132 252 131
511 2 2 2 1 211 353 345
512 2 2 2 1 205 367 24
513 2 2 2 1 386 389 292
514 2 2 2 1 208 415 334
515 2 2 2 1 241 345 306
516 2 2 2 1 27 368 4
517 2 2 2 1 302 344 239
518 2 2 2 1 288 342 341
519 2 2 2 1 231 404 303
520 2 2 2 1 57 404 231
521 2 2 2 1 254 383 293
522 2 2 2 1 94 412 234
523 2 2 2 1 385 386 255
524 2 2 2 1 232 372 155
525 2 2 2 1 299 381 254
526 2 2 2 1 388 422 260
527 2 2 2 1 3 403 22
528 2 2 2 1 383 385 293
529 2 2 2 1 305 361 346
530 2 2 2 1 347 352 214
531 2 2 2 1 350 362 313
532 2 2 2 1 310 365 348
533 2 2 2 1 351 363 310
534 2 2 2 1 313 364 349
535 2 2 2 1 305 347 304
536 2 2 2 1 126 346 212
537 2 2 2 1 250 380 299
538 2 2 2 1 121 348 218
539 2 2 2 1 242 351 123
540 2 2 2 1 147 349 244
541 2 2 2 1 215 350 149
542 2 2 2 1 4 368 204
543 2 2 2 1 332 406 17
544 2 2 2 1 381 383 254
545 2 2 2 1 297 379 250
546 2 2 2 1 334 414 208
547 2 2 2 1 134 418 13
548 2 2 2 1 288 372 342
549 2 2 2 1 306 353 243
550 2 2 2 1 319 356 353
551 2 2 2 1 353 356 243
552 2 2 2 1 319 353 211
553 2 2 2 1 128 352 127
554 2 2 2 1 212 361 358
555 2 2 2 1 218 365 357
556 2 2 2 1 360 363 242
557 2 2 2 1 244 364 359
558 2 2 2 1 355 362 215
559 2 2 2 1 315 357 354
560 2 2 2 1 355 356 238
561 2 2 2 1 354 357 245
562 2 2 2 1 243 356 307
563 2 2 2 1 240 358 320
564 2 2 2 1 240 360 358
565 2 2 2 1 307 356 355
566 2 2 2 1 238 356 319
567 2 2 2 1 317 360 242
568 2 2 2 1 315 354 213
569 2 2 2 1 311 355 238
570 2 2 2 1 316 359 354
571 2 2 2 1 213 359 314
572 2 2 2 1 244 359 316
573 2 2 2 1 316 354 245
574 2 2 2 1 218 357 315
575 2 2 2 1 358 360 317
576 2 2 2 1 307 355 215
577 2 2 2 1 354 359 213
578 2 2 2 1 245 357 318
579 2 2 2 1 308 360 240
580 2 2 2 1 212 358 317
581 2 2 2 1 358 361 320
582 2 2 2 1 357 365 318
583 2 2 2 1 359 364 314
584 2 2 2 1 308 363 360
585 2 2 2 1 311 362 355
586 2 2 2 1 320 361 237
587 2 2 2 1 314 364 217
588 2 2 2 1 318 365 309
589 2 2 2 1 216 363 308
590 2 2 2 1 312 362 311
591 2 2 2 1 12 420 130
592 2 2 2 1 24 367 23
593 2 2 2 1 380 381 299
594 2 2 2 1 249 378 297
595 2 2 2 1 289 366 210
596 2 2 2 1 298 376 249
597 2 2 2 1 379 380 250
598 2 2 2 1 23 403 3
599 2 2 2 1 155 372 14
600 2 2 2 1 337 344 214
601 2 2 2 1 378 379 297
602 2 2 2 1 289 369 366
603 2 2 2 1 246 369 290
604 2 2 2 1 248 375 298
605 2 2 2 1 369 371 290
606 2 2 2 1 201 338 1
607 2 2 2 1 376 378 249
608 2 2 2 1 290 371 248
609 2 2 2 1 366 369 246
610 2 2 2 1 375 376 298
611 2 2 2 1 337 420 252
612 2 2 2 1 130 420 337
613 2 2 2 1 102 405 101
614 2 2 2 1 219 369 289
615 2 2 2 1 371 375 248
616 2 2 2 1 16 406 273
617 2 2 2 1 283 410 265
618 2 2 2 1 287 405 21
619 2 2 2 1 14 372 288
620 2 2 2 1 219 371 369
621 2 2 2 1 253 384 161
622 2 2 2 1 281 374 275
623 2 2 2 1 30 370 29
624 2 2 2 1 323 371 219
625 2 2 2 1 323 375 371
626 2 2 2 1 220 375 323
627 2 2 2 1 328 376 220
628 2 2 2 1 220 376 375
629 2 2 2 1 29 370 209
630 2 2 2 1 208 370 30
631 2 2 2 1 160 384 223
632 2 2 2 1 328 378 376
633 2 2 2 1 221 378 328
634 2 2 2 1 342 413 206
635 2 2 2 1 158 388 260
636 2 2 2 1 260 387 157
637 2 2 2 1 156 387 232
638 2 2 2 1 325 379 221
639 2 2 2 1 223 388 159
640 2 2 2 1 221 379 378
641 2 2 2 1 132 340 252
642 2 2 2 1 325 380 379
643 2 2 2 1 334 382 333
644 2 2 2 1 222 380 325
645 2 2 2 1 209 390 28
646 2 2 2 1 322 381 222
647 2 2 2 1 305 352 347
648 2 2 2 1 346 361 212
649 2 2 2 1 222 381 380
650 2 2 2 1 242 363 351
651 2 2 2 1 348 365 218
652 2 2 2 1 215 362 350
653 2 2 2 1 349 364 244
654 2 2 2 1 322 383 381
655 2 2 2 1 224 383 322
656 2 2 2 1 330 385 224
657 2 2 2 1 224 385 383
658 2 2 2 1 65 410 64
659 2 2 2 1 161 384 160
660 2 2 2 1 330 386 385
661 2 2 2 1 225 386 330
662 2 2 2 1 28 390 27
663 2 2 2 1 101 405 287
664 2 2 2 1 327 389 225
665 2 2 2 1 225 389 386
666 2 2 2 1 159 388 158
667 2 2 2 1 157 387 156
668 2 2 2 1 226 391 327
669 2 2 2 1 327 391 389
670 2 2 2 1 331 392 226
671 2 2 2 1 226 392 391
672 2 2 2 1 227 393 331
673 2 2 2 1 331 393 392
674 2 2 2 1 321 394 227
675 2 2 2 1 227 394 393
676 2 2 2 1 13 418 133
677 2 2 2 1 228 395 321
678 2 2 2 1 321 395 394
679 2 2 2 1 131 420 12
680 2 2 2 1 329 396 228
681 2 2 2 1 228 396 395
682 2 2 2 1 229 397 329
683 2 2 2 1 329 397 396
684 2 2 2 1 59 399 58
685 2 2 2 1 326 398 229
686 2 2 2 1 229 398 397
687 2 2 2 1 32 415 31
688 2 2 2 1 239 418 134
689 2 2 2 1 230 400 326
690 2 2 2 1 326 400 398
691 2 2 2 1 265 417 283
692 2 2 2 1 324 401 230
693 2 2 2 1 230 401 400
694 2 2 2 1 231 402 324
695 2 2 2 1 324 402 401
696 2 2 2 1 265 410 65
697 2 2 2 1 377 414 267
698 2 2 2 1 399 404 58
699 2 2 2 1 21 405 20
700 2 2 2 1 58 404 57
701 2 2 2 1 2 406 16
702 2 2 2 1 252 416 337
703 2 2 2 1 22 403 336
704 2 2 2 1 27 390 368
705 2 2 2 1 19 411 18
706 2 2 2 1 370 377 209
707 2 2 2 1 206 413 11
708 2 2 2 1 339 411 104
709 2 2 2 1 283 417 207
710 2 2 2 1 262 407 277
711 2 2 2 1 340 418 239
712 2 2 2 1 234 412 334
713 2 2 2 1 103 419 102
714 2 2 2 1 367 403 23
715 2 2 2 1 18 411 339
716 2 2 2 1 64 410 373
717 2 2 2 1 18 421 17
718 2 2 2 1 337 416 344
719 2 2 2 1 17 421 332
720 2 2 2 1 382 415 32
721 2 2 2 1 31 415 208
722 2 2 2 1 20 419 19
723 2 2 2 1 334 415 382
724 2 2 2 1 344 416 239
725 2 2 2 1 339 421 18
726 2 2 2 1 239 416 340
727 2 2 2 1 133 418 340
728 2 2 2 1 252 420 131
729 2 2 2 1 340 416 252
730 2 2 2 1 207 417 374
731 2 2 2 1 412 414 334
732 2 2 2 1 267 414 412
733 2 2 3 2 22 424 166
734 2 2 3 2 163 425 17
735 2 2 3 2 166 3 22
736 2 2 3 2 17 2 163
737 2 2 3 2 21 424 22
738 2 2 3 2 17 425 18
739 2 2 3 2 21 427 424
740 2 2 3 2 425 428 18
741 2 2 3 2 165 423 164
742 2 2 3 2 164 425 163
743 2 2 3 2 166 424 165
744 2 2 3 2 423 425 164
745 2 2 3 2 165 424 423
746 2 2 3 2 423 428 425
747 2 2 3 2 424 427 423
748 2 2 3 2 426 428 423
749 2 2 3 2 423 427 426
750 2 2 3 2 19 426 20
751 2 2 3 2 18 428 19
752 2 2 3 2 20 427 21
753 2 2 3 2 19 428 426
754 2 2 3 2 426 427 20
755 2 2 1 3 446 825 76
756 2 2 1 3 787 1038 786
757 2 2 1 3 74 777 75
758 2 2 1 3 75 777 446
759 2 2 1 3 758 1037 467
760 2 2 1 3 767 861 438
761 2 2 1 3 437 939 770
762 2 2 1 3 813 882 664
763 2 2 1 3 444 935 799
764 2 2 1 3 771 924 429
765 2 2 1 3 779 1020 454
766 2 2 1 3 467 934 758
767 2 2 1 3 813 985 882
768 2 2 1 3 76 825 77
769 2 2 1 3 456 1038 787
770 2 2 1 3 780 1025 433
771 2 2 1 3 468 948 816
772 2 2 1 3 438 862 767
773 2 2 1 3 441 821 763
774 2 2 1 3 750 1020 779
775 2 2 1 3 181 1017 180
776 2 2 1 3 763 1032 441
777 2 2 1 3 779 1025 780
778 2 2 1 3 778 939 437
779 2 2 1 3 657 863 659
780 2 2 1 3 183 862 182
781 2 2 1 3 932 1045 1030
782 2 2 1 3 179 781 443
783 2 2 1 3 986 1043 1034
784 2 2 1 3 787 1053 1047
785 2 2 1 3 1047 1053 434
786 2 2 1 3 446 1015 825
787 2 2 1 3 757 1037 758
788 2 2 1 3 929 936 748
789 2 2 1 3 1030 1045 869
790 2 2 1 3 1034 1043 823
791 2 2 1 3 446 777 775
792 2 2 1 3 93 1006 8
793 2 2 1 3 443 781 774
794 2 2 1 3 816 948 818
795 2 2 1 3 721 1024 769
796 2 2 1 3 770 878 437
797 2 2 1 3 771 1050 924
798 2 2 1 3 721 1035 1024
799 2 2 1 3 180 1017 781
800 2 2 1 3 1027 1042 740
801 2 2 1 3 659 863 759
802 2 2 1 3 180 781 179
803 2 2 1 3 935 1026 799
804 2 2 1 3 769 1024 195
805 2 2 1 3 799 1040 444
806 2 2 1 3 753 1059 1051
807 2 2 1 3 9 1008 97
808 2 2 1 3 457 862 183
809 2 2 1 3 182 862 438
810 2 2 1 3 768 1010 455
811 2 2 1 3 1051 1059 445
812 2 2 1 3 778 1032 763
813 2 2 1 3 748 1063 929
814 2 2 1 3 767 863 657
815 2 2 1 3 195 1066 769
816 2 2 1 3 455 1082 768
817 2 2 1 3 719 1049 1023
818 2 2 1 3 778 1056 1032
819 2 2 1 3 7 167 67
820 2 2 1 3 908 1042 1027
821 2 2 1 3 8 1006 464
822 2 2 1 3 106 471 10
823 2 2 1 3 973 1041 1033
824 2 2 1 3 786 1038 805
825 2 2 1 3 824 1034 823
826 2 2 1 3 74 1054 777
827 2 2 1 3 1004 1012 443
828 2 2 1 3 429 1022 771
829 2 2 1 3 438 1017 181
830 2 2 1 3 774 1004 443
831 2 2 1 3 861 1017 438
832 2 2 1 3 448 1008 9
833 2 2 1 3 97 1008 893
834 2 2 1 3 746 1012 1004
835 2 2 1 3 442 1006 93
836 2 2 1 3 457 863 862
837 2 2 1 3 818 948 463
838 2 2 1 3 816 1073 468
839 2 2 1 3 1023 1049 886
840 2 2 1 3 97 893 98
841 2 2 1 3 775 1015 446
842 2 2 1 3 432 892 791
843 2 2 1 3 829 1014 439
844 2 2 1 3 791 891 432
845 2 2 1 3 1033 1041 464
846 2 2 1 3 925 1019 458
847 2 2 1 3 465 1060 802
848 2 2 1 3 824 1081 1034
849 2 2 1 3 788 891 791
850 2 2 1 3 908 1027 805
851 2 2 1 3 974 1002 448
852 2 2 1 3 749 799 798
853 2 2 1 3 952 1028 431
854 2 2 1 3 798 947 749
855 2 2 1 3 814 947 798
856 2 2 1 3 431 1074 952
857 2 2 1 3 452 891 788
858 2 2 1 3 828 829 459
859 2 2 1 3 472 802 471
860 2 2 1 3 805 1038 908
861 2 2 1 3 11 1021 110
862 2 2 1 3 98 893 432
863 2 2 1 3 788 789 452
864 2 2 1 3 772 1006 442
865 2 2 1 3 808 809 440
866 2 2 1 3 789 959 452
867 2 2 1 3 801 802 704
868 2 2 1 3 800 801 704
869 2 2 1 3 667 949 892
870 2 2 1 3 892 949 791
871 2 2 1 3 776 1015 775
872 2 2 1 3 450 471 106
873 2 2 1 3 959 1003 440
874 2 2 1 3 925 1069 1019
875 2 2 1 3 813 995 738
876 2 2 1 3 583 947 814
877 2 2 1 3 583 880 782
878 2 2 1 3 704 802 472
879 2 2 1 3 862 863 767
880 2 2 1 3 730 830 784
881 2 2 1 3 687 983 794
882 2 2 1 3 567 962 880
883 2 2 1 3 782 947 583
884 2 2 1 3 784 831 730
885 2 2 1 3 880 962 782
886 2 2 1 3 812 955 884
887 2 2 1 3 469 1021 11
888 2 2 1 3 696 955 812
889 2 2 1 3 687 884 811
890 2 2 1 3 852 854 723
891 2 2 1 3 432 893 892
892 2 2 1 3 852 905 567
893 2 2 1 3 884 955 811
894 2 2 1 3 892 894 667
895 2 2 1 3 905 962 567
896 2 2 1 3 723 905 852
897 2 2 1 3 620 804 639
898 2 2 1 3 532 860 854
899 2 2 1 3 440 1003 808
900 2 2 1 3 811 983 687
901 2 2 1 3 440 809 103
902 2 2 1 3 728 831 747
903 2 2 1 3 1053 1061 434
904 2 2 1 3 789 1003 959
905 2 2 1 3 854 860 723
906 2 2 1 3 439 1064 829
907 2 2 1 3 664 995 813
908 2 2 1 3 807 809 808
909 2 2 1 3 848 978 500
910 2 2 1 3 730 831 728
911 2 2 1 3 730 919 830
912 2 2 1 3 618 914 792
913 2 2 1 3 864 996 865
914 2 2 1 3 849 978 848
915 2 2 1 3 792 914 793
916 2 2 1 3 865 996 576
917 2 2 1 3 793 914 686
918 2 2 1 3 450 472 471
919 2 2 1 3 687 794 641
920 2 2 1 3 725 903 724
921 2 2 1 3 103 809 104
922 2 2 1 3 872 873 849
923 2 2 1 3 804 805 639
924 2 2 1 3 475 807 665
925 2 2 1 3 786 805 804
926 2 2 1 3 619 804 620
927 2 2 1 3 844 993 526
928 2 2 1 3 619 834 785
929 2 2 1 3 785 804 619
930 2 2 1 3 842 993 844
931 2 2 1 3 794 795 641
932 2 2 1 3 649 975 857
933 2 2 1 3 870 987 532
934 2 2 1 3 686 902 793
935 2 2 1 3 631 796 476
936 2 2 1 3 849 904 872
937 2 2 1 3 631 797 796
938 2 2 1 3 792 903 618
939 2 2 1 3 668 795 669
940 2 2 1 3 451 920 820
941 2 2 1 3 785 834 761
942 2 2 1 3 872 904 866
943 2 2 1 3 796 800 704
944 2 2 1 3 839 958 879
945 2 2 1 3 834 903 761
946 2 2 1 3 953 982 713
947 2 2 1 3 807 808 665
948 2 2 1 3 668 909 795
949 2 2 1 3 830 919 826
950 2 2 1 3 898 919 729
951 2 2 1 3 898 945 574
952 2 2 1 3 473 807 475
953 2 2 1 3 810 909 668
954 2 2 1 3 104 809 806
955 2 2 1 3 873 978 849
956 2 2 1 3 729 919 730
957 2 2 1 3 888 965 877
958 2 2 1 3 576 996 994
959 2 2 1 3 761 903 725
960 2 2 1 3 669 795 794
961 2 2 1 3 731 909 810
962 2 2 1 3 848 989 847
963 2 2 1 3 1013 1037 858
964 2 2 1 3 724 903 792
965 2 2 1 3 526 993 992
966 2 2 1 3 879 958 680
967 2 2 1 3 608 963 902
968 2 2 1 3 729 945 898
969 2 2 1 3 532 987 860
970 2 2 1 3 104 806 105
971 2 2 1 3 499 921 497
972 2 2 1 3 470 815 69
973 2 2 1 3 893 894 892
974 2 2 1 3 722 828 827
975 2 2 1 3 857 975 734
976 2 2 1 3 803 850 703
977 2 2 1 3 501 897 549
978 2 2 1 3 476 796 474
979 2 2 1 3 870 900 840
980 2 2 1 3 722 829 828
981 2 2 1 3 810 887 731
982 2 2 1 3 989 992 847
983 2 2 1 3 832 957 588
984 2 2 1 3 72 920 451
985 2 2 1 3 866 904 589
986 2 2 1 3 722 827 677
987 2 2 1 3 583 814 480
988 2 2 1 3 784 830 756
989 2 2 1 3 482 880 583
990 2 2 1 3 845 901 589
991 2 2 1 3 578 911 826
992 2 2 1 3 895 921 499
993 2 2 1 3 815 816 466
994 2 2 1 3 686 906 902
995 2 2 1 3 771 837 678
996 2 2 1 3 631 798 797
997 2 2 1 3 574 899 833
998 2 2 1 3 549 897 874
999 2 2 1 3 502 895 499
1000 2 2 1 3 533 833 670
1001 2 2 1 3 797 800 796
1002 2 2 1 3 575 965 888
1003 2 2 1 3 627 873 872
1004 2 2 1 3 765 957 832
1005 2 2 1 3 803 915 850
1006 2 2 1 3 199 858 462
1007 2 2 1 3 980 988 598
1008 2 2 1 3 802 1060 471
1009 2 2 1 3 678 837 679
1010 2 2 1 3 631 814 798
1011 2 2 1 3 562 851 584
1012 2 2 1 3 682 836 835
1013 2 2 1 3 574 945 899
1014 2 2 1 3 738 995 812
1015 2 2 1 3 452 959 101
1016 2 2 1 3 902 963 793
1017 2 2 1 3 902 906 856
1018 2 2 1 3 850 915 851
1019 2 2 1 3 539 838 528
1020 2 2 1 3 566 851 562
1021 2 2 1 3 826 919 578
1022 2 2 1 3 816 818 817
1023 2 2 1 3 801 1021 469
1024 2 2 1 3 756 830 754
1025 2 2 1 3 677 827 673
1026 2 2 1 3 618 903 834
1027 2 2 1 3 498 897 501
1028 2 2 1 3 798 799 797
1029 2 2 1 3 474 796 704
1030 2 2 1 3 627 872 871
1031 2 2 1 3 497 921 503
1032 2 2 1 3 582 982 953
1033 2 2 1 3 434 1061 917
1034 2 2 1 3 838 896 839
1035 2 2 1 3 441 822 821
1036 2 2 1 3 549 874 551
1037 2 2 1 3 488 854 852
1038 2 2 1 3 682 835 683
1039 2 2 1 3 197 841 445
1040 2 2 1 3 757 758 756
1041 2 2 1 3 616 834 619
1042 2 2 1 3 68 470 69
1043 2 2 1 3 70 815 466
1044 2 2 1 3 842 844 705
1045 2 2 1 3 887 912 867
1046 2 2 1 3 534 833 533
1047 2 2 1 3 896 958 839
1048 2 2 1 3 816 817 466
1049 2 2 1 3 810 912 887
1050 2 2 1 3 618 834 616
1051 2 2 1 3 486 852 567
1052 2 2 1 3 817 920 466
1053 2 2 1 3 589 904 845
1054 2 2 1 3 478 631 476
1055 2 2 1 3 705 864 643
1056 2 2 1 3 494 900 870
1057 2 2 1 3 642 842 705
1058 2 2 1 3 623 853 621
1059 2 2 1 3 632 859 702
1060 2 2 1 3 478 814 631
1061 2 2 1 3 795 853 641
1062 2 2 1 3 474 704 472
1063 2 2 1 3 820 920 817
1064 2 2 1 3 628 971 967
1065 2 2 1 3 528 838 522
1066 2 2 1 3 506 895 502
1067 2 2 1 3 585 855 561
1068 2 2 1 3 480 814 478
1069 2 2 1 3 200 858 199
1070 2 2 1 3 856 906 525
1071 2 2 1 3 754 830 826
1072 2 2 1 3 482 583 480
1073 2 2 1 3 822 823 821
1074 2 2 1 3 638 868 720
1075 2 2 1 3 621 913 617
1076 2 2 1 3 627 871 553
1077 2 2 1 3 492 870 532
1078 2 2 1 3 758 784 756
1079 2 2 1 3 539 896 838
1080 2 2 1 3 589 901 573
1081 2 2 1 3 674 896 671
1082 2 2 1 3 679 837 682
1083 2 2 1 3 105 450 106
1084 2 2 1 3 671 896 539
1085 2 2 1 3 694 733 706
1086 2 2 1 3 755 756 754
1087 2 2 1 3 577 911 578
1088 2 2 1 3 853 913 621
1089 2 2 1 3 655 861 767
1090 2 2 1 3 864 865 790
1091 2 2 1 3 531 856 525
1092 2 2 1 3 695 905 693
1093 2 2 1 3 553 871 555
1094 2 2 1 3 551 874 627
1095 2 2 1 3 833 899 670
1096 2 2 1 3 70 466 71
1097 2 2 1 3 609 911 577
1098 2 2 1 3 755 757 756
1099 2 2 1 3 462 841 198
1100 2 2 1 3 475 476 474
1101 2 2 1 3 889 890 431
1102 2 2 1 3 672 673 671
1103 2 2 1 3 670 671 539
1104 2 2 1 3 672 677 673
1105 2 2 1 3 840 900 607
1106 2 2 1 3 670 672 671
1107 2 2 1 3 199 462 198
1108 2 2 1 3 607 900 515
1109 2 2 1 3 745 771 678
1110 2 2 1 3 560 866 589
1111 2 2 1 3 533 670 539
1112 2 2 1 3 605 901 685
1113 2 2 1 3 675 745 678
1114 2 2 1 3 685 901 845
1115 2 2 1 3 486 567 484
1116 2 2 1 3 69 815 70
1117 2 2 1 3 533 539 528
1118 2 2 1 3 731 887 613
1119 2 2 1 3 716 722 677
1120 2 2 1 3 641 853 623
1121 2 2 1 3 794 983 689
1122 2 2 1 3 826 911 752
1123 2 2 1 3 765 832 773
1124 2 2 1 3 691 864 790
1125 2 2 1 3 818 819 817
1126 2 2 1 3 561 855 546
1127 2 2 1 3 564 574 538
1128 2 2 1 3 753 754 752
1129 2 2 1 3 685 842 642
1130 2 2 1 3 578 898 564
1131 2 2 1 3 652 868 638
1132 2 2 1 3 683 835 694
1133 2 2 1 3 627 874 873
1134 2 2 1 3 754 826 752
1135 2 2 1 3 855 910 732
1136 2 2 1 3 634 859 632
1137 2 2 1 3 838 839 607
1138 2 2 1 3 522 838 607
1139 2 2 1 3 72 451 73
1140 2 2 1 3 436 882 881
1141 2 2 1 3 477 478 476
1142 2 2 1 3 513 867 511
1143 2 2 1 3 437 878 82
1144 2 2 1 3 590 851 566
1145 2 2 1 3 643 864 691
1146 2 2 1 3 874 875 873
1147 2 2 1 3 488 852 486
1148 2 2 1 3 642 705 643
1149 2 2 1 3 508 876 506
1150 2 2 1 3 682 837 836
1151 2 2 1 3 702 746 703
1152 2 2 1 3 436 881 193
1153 2 2 1 3 812 884 644
1154 2 2 1 3 720 859 634
1155 2 2 1 3 597 975 649
1156 2 2 1 3 532 854 490
1157 2 2 1 3 522 607 515
1158 2 2 1 3 605 685 642
1159 2 2 1 3 827 828 745
1160 2 2 1 3 102 440 103
1161 2 2 1 3 712 883 637
1162 2 2 1 3 490 854 488
1163 2 2 1 3 689 979 888
1164 2 2 1 3 846 847 843
1165 2 2 1 3 492 532 490
1166 2 2 1 3 613 887 611
1167 2 2 1 3 910 928 732
1168 2 2 1 3 632 702 630
1169 2 2 1 3 684 716 677
1170 2 2 1 3 685 843 842
1171 2 2 1 3 871 872 866
1172 2 2 1 3 605 642 606
1173 2 2 1 3 85 885 433
1174 2 2 1 3 708 748 709
1175 2 2 1 3 728 747 727
1176 2 2 1 3 453 886 885
1177 2 2 1 3 529 533 528
1178 2 2 1 3 717 727 716
1179 2 2 1 3 523 528 522
1180 2 2 1 3 637 883 626
1181 2 2 1 3 516 522 515
1182 2 2 1 3 673 675 674
1183 2 2 1 3 638 720 634
1184 2 2 1 3 675 678 676
1185 2 2 1 3 484 880 482
1186 2 2 1 3 673 827 675
1187 2 2 1 3 591 630 590
1188 2 2 1 3 89 889 431
1189 2 2 1 3 691 790 789
1190 2 2 1 3 558 866 560
1191 2 2 1 3 822 824 823
1192 2 2 1 3 649 857 742
1193 2 2 1 3 693 905 723
1194 2 2 1 3 538 833 534
1195 2 2 1 3 563 564 538
1196 2 2 1 3 694 706 695
1197 2 2 1 3 706 708 707
1198 2 2 1 3 560 589 573
1199 2 2 1 3 846 848 847
1200 2 2 1 3 75 446 76
1201 2 2 1 3 694 835 733
1202 2 2 1 3 585 910 855
1203 2 2 1 3 774 781 718
1204 2 2 1 3 702 703 630
1205 2 2 1 3 197 445 196
1206 2 2 1 3 494 870 492
1207 2 2 1 3 654 861 655
1208 2 2 1 3 584 601 585
1209 2 2 1 3 660 718 654
1210 2 2 1 3 555 871 558
1211 2 2 1 3 545 608 542
1212 2 2 1 3 751 752 663
1213 2 2 1 3 876 895 506
1214 2 2 1 3 479 480 478
1215 2 2 1 3 851 915 584
1216 2 2 1 3 617 913 615
1217 2 2 1 3 545 732 608
1218 2 2 1 3 644 884 640
1219 2 2 1 3 669 689 688
1220 2 2 1 3 652 869 868
1221 2 2 1 3 562 584 561
1222 2 2 1 3 584 585 561
1223 2 2 1 3 503 515 496
1224 2 2 1 3 542 856 531
1225 2 2 1 3 500 978 970
1226 2 2 1 3 867 912 511
1227 2 2 1 3 601 654 602
1228 2 2 1 3 765 773 772
1229 2 2 1 3 520 867 513
1230 2 2 1 3 567 880 484
1231 2 2 1 3 688 888 877
1232 2 2 1 3 432 891 99
1233 2 2 1 3 611 887 867
1234 2 2 1 3 718 861 654
1235 2 2 1 3 581 590 566
1236 2 2 1 3 668 669 625
1237 2 2 1 3 558 871 866
1238 2 2 1 3 753 755 754
1239 2 2 1 3 475 477 476
1240 2 2 1 3 612 613 611
1241 2 2 1 3 591 632 630
1242 2 2 1 3 655 767 657
1243 2 2 1 3 601 602 585
1244 2 2 1 3 624 640 623
1245 2 2 1 3 536 538 534
1246 2 2 1 3 527 611 520
1247 2 2 1 3 669 688 625
1248 2 2 1 3 679 682 681
1249 2 2 1 3 683 694 693
1250 2 2 1 3 83 878 453
1251 2 2 1 3 689 888 688
1252 2 2 1 3 92 442 93
1253 2 2 1 3 587 605 604
1254 2 2 1 3 656 910 602
1255 2 2 1 3 654 655 602
1256 2 2 1 3 100 452 101
1257 2 2 1 3 711 712 637
1258 2 2 1 3 751 753 752
1259 2 2 1 3 622 623 621
1260 2 2 1 3 198 841 197
1261 2 2 1 3 564 898 574
1262 2 2 1 3 624 644 640
1263 2 2 1 3 514 625 508
1264 2 2 1 3 738 812 644
1265 2 2 1 3 622 624 623
1266 2 2 1 3 543 545 542
1267 2 2 1 3 614 615 613
1268 2 2 1 3 640 884 687
1269 2 2 1 3 481 482 480
1270 2 2 1 3 675 827 745
1271 2 2 1 3 192 881 455
1272 2 2 1 3 660 774 718
1273 2 2 1 3 897 966 875
1274 2 2 1 3 611 867 520
1275 2 2 1 3 527 612 611
1276 2 2 1 3 642 643 606
1277 2 2 1 3 574 833 538
1278 2 2 1 3 548 561 546
1279 2 2 1 3 620 622 621
1280 2 2 1 3 577 578 564
1281 2 2 1 3 453 885 84
1282 2 2 1 3 78 441 79
1283 2 2 1 3 874 897 875
1284 2 2 1 3 81 437 82
1285 2 2 1 3 883 940 626
1286 2 2 1 3 194 436 193
1287 2 2 1 3 602 910 585
1288 2 2 1 3 616 617 615
1289 2 2 1 3 612 614 613
1290 2 2 1 3 100 891 452
1291 2 2 1 3 601 660 654
1292 2 2 1 3 619 620 617
1293 2 2 1 3 620 621 617
1294 2 2 1 3 454 889 88
1295 2 2 1 3 839 879 840
1296 2 2 1 3 672 684 677
1297 2 2 1 3 659 759 725
1298 2 2 1 3 845 846 843
1299 2 2 1 3 587 901 605
1300 2 2 1 3 83 453 84
1301 2 2 1 3 514 668 625
1302 2 2 1 3 546 855 545
1303 2 2 1 3 615 731 613
1304 2 2 1 3 581 591 590
1305 2 2 1 3 608 902 856
1306 2 2 1 3 608 856 542
1307 2 2 1 3 669 794 689
1308 2 2 1 3 759 760 725
1309 2 2 1 3 503 516 515
1310 2 2 1 3 541 542 531
1311 2 2 1 3 614 616 615
1312 2 2 1 3 616 619 617
1313 2 2 1 3 192 455 191
1314 2 2 1 3 515 900 496
1315 2 2 1 3 483 484 482
1316 2 2 1 3 655 657 656
1317 2 2 1 3 673 674 671
1318 2 2 1 3 640 687 641
1319 2 2 1 3 573 901 587
1320 2 2 1 3 85 433 86
1321 2 2 1 3 89 431 90
1322 2 2 1 3 87 454 88
1323 2 2 1 3 605 606 604
1324 2 2 1 3 558 560 559
1325 2 2 1 3 496 900 494
1326 2 2 1 3 762 786 785
1327 2 2 1 3 762 787 786
1328 2 2 1 3 630 850 590
1329 2 2 1 3 732 963 608
1330 2 2 1 3 657 659 658
1331 2 2 1 3 645 738 644
1332 2 2 1 3 760 762 761
1333 2 2 1 3 555 558 557
1334 2 2 1 3 739 813 738
1335 2 2 1 3 659 725 724
1336 2 2 1 3 485 486 484
1337 2 2 1 3 548 562 561
1338 2 2 1 3 521 527 520
1339 2 2 1 3 688 877 876
1340 2 2 1 3 82 878 83
1341 2 2 1 3 516 523 522
1342 2 2 1 3 193 881 192
1343 2 2 1 3 551 627 553
1344 2 2 1 3 523 529 528
1345 2 2 1 3 529 534 533
1346 2 2 1 3 543 546 545
1347 2 2 1 3 556 918 554
1348 2 2 1 3 560 573 572
1349 2 2 1 3 672 899 684
1350 2 2 1 3 620 639 622
1351 2 2 1 3 477 479 478
1352 2 2 1 3 190 430 189
1353 2 2 1 3 684 717 716
1354 2 2 1 3 850 851 590
1355 2 2 1 3 545 855 732
1356 2 2 1 3 84 885 85
1357 2 2 1 3 839 840 607
1358 2 2 1 3 675 676 674
1359 2 2 1 3 510 923 512
1360 2 2 1 3 88 889 89
1361 2 2 1 3 717 728 727
1362 2 2 1 3 651 956 652
1363 2 2 1 3 536 563 538
1364 2 2 1 3 487 488 486
1365 2 2 1 3 786 804 785
1366 2 2 1 3 932 1030 463
1367 2 2 1 3 473 475 474
1368 2 2 1 3 625 876 508
1369 2 2 1 3 663 911 609
1370 2 2 1 3 762 785 761
1371 2 2 1 3 594 598 571
1372 2 2 1 3 105 806 450
1373 2 2 1 3 518 520 513
1374 2 2 1 3 678 679 676
1375 2 2 1 3 578 919 898
1376 2 2 1 3 430 907 189
1377 2 2 1 3 657 658 656
1378 2 2 1 3 659 724 658
1379 2 2 1 3 670 899 672
1380 2 2 1 3 640 641 623
1381 2 2 1 3 760 761 725
1382 2 2 1 3 699 765 764
1383 2 2 1 3 509 514 508
1384 2 2 1 3 489 490 488
1385 2 2 1 3 571 918 556
1386 2 2 1 3 188 907 456
1387 2 2 1 3 655 656 602
1388 2 2 1 3 711 713 712
1389 2 2 1 3 752 911 663
1390 2 2 1 3 99 891 100
1391 2 2 1 3 624 645 644
1392 2 2 1 3 541 543 542
1393 2 2 1 3 649 742 650
1394 2 2 1 3 98 432 99
1395 2 2 1 3 491 492 490
1396 2 2 1 3 507 508 506
1397 2 2 1 3 992 993 847
1398 2 2 1 3 645 739 738
1399 2 2 1 3 685 845 843
1400 2 2 1 3 597 649 600
1401 2 2 1 3 614 618 616
1402 2 2 1 3 749 947 709
1403 2 2 1 3 639 916 622
1404 2 2 1 3 967 971 832
1405 2 2 1 3 519 737 648
1406 2 2 1 3 682 683 681
1407 2 2 1 3 527 686 612
1408 2 2 1 3 430 908 907
1409 2 2 1 3 703 850 630
1410 2 2 1 3 505 506 502
1411 2 2 1 3 708 709 707
1412 2 2 1 3 479 481 480
1413 2 2 1 3 189 907 188
1414 2 2 1 3 615 913 731
1415 2 2 1 3 694 695 693
1416 2 2 1 3 688 876 625
1417 2 2 1 3 706 707 695
1418 2 2 1 3 877 895 876
1419 2 2 1 3 645 916 740
1420 2 2 1 3 518 521 520
1421 2 2 1 3 527 906 686
1422 2 2 1 3 573 587 586
1423 2 2 1 3 740 768 739
1424 2 2 1 3 512 923 519
1425 2 2 1 3 795 909 853
1426 2 2 1 3 493 494 492
1427 2 2 1 3 188 456 187
1428 2 2 1 3 521 906 527
1429 2 2 1 3 624 916 645
1430 2 2 1 3 497 503 496
1431 2 2 1 3 507 509 508
1432 2 2 1 3 495 496 494
1433 2 2 1 3 563 577 564
1434 2 2 1 3 614 914 618
1435 2 2 1 3 765 772 764
1436 2 2 1 3 560 572 559
1437 2 2 1 3 558 559 557
1438 2 2 1 3 724 792 726
1439 2 2 1 3 845 904 846
1440 2 2 1 3 846 849 848
1441 2 2 1 3 481 483 482
1442 2 2 1 3 569 597 596
1443 2 2 1 3 633 634 632
1444 2 2 1 3 686 914 612
1445 2 2 1 3 598 918 571
1446 2 2 1 3 514 810 668
1447 2 2 1 3 662 663 609
1448 2 2 1 3 573 586 572
1449 2 2 1 3 612 914 614
1450 2 2 1 3 689 983 979
1451 2 2 1 3 645 740 739
1452 2 2 1 3 846 904 849
1453 2 2 1 3 525 906 521
1454 2 2 1 3 594 599 598
1455 2 2 1 3 651 652 638
1456 2 2 1 3 71 920 72
1457 2 2 1 3 748 749 709
1458 2 2 1 3 721 751 663
1459 2 2 1 3 483 485 484
1460 2 2 1 3 565 566 562
1461 2 2 1 3 635 638 634
1462 2 2 1 3 509 912 514
1463 2 2 1 3 535 536 534
1464 2 2 1 3 547 548 546
1465 2 2 1 3 466 920 71
1466 2 2 1 3 495 497 496
1467 2 2 1 3 584 915 601
1468 2 2 1 3 485 487 486
1469 2 2 1 3 540 940 541
1470 2 2 1 3 505 507 506
1471 2 2 1 3 643 691 690
1472 2 2 1 3 622 916 624
1473 2 2 1 3 660 803 774
1474 2 2 1 3 580 581 566
1475 2 2 1 3 587 604 603
1476 2 2 1 3 724 726 658
1477 2 2 1 3 514 912 810
1478 2 2 1 3 731 913 909
1479 2 2 1 3 491 493 492
1480 2 2 1 3 487 489 488
1481 2 2 1 3 737 741 648
1482 2 2 1 3 792 793 726
1483 2 2 1 3 493 495 494
1484 2 2 1 3 524 525 521
1485 2 2 1 3 489 491 490
1486 2 2 1 3 519 923 737
1487 2 2 1 3 530 531 525
1488 2 2 1 3 909 913 853
1489 2 2 1 3 691 789 788
1490 2 2 1 3 186 434 185
1491 2 2 1 3 185 917 184
1492 2 2 1 3 709 947 782
1493 2 2 1 3 937 957 697
1494 2 2 1 3 636 637 626
1495 2 2 1 3 579 696 610
1496 2 2 1 3 184 457 183
1497 2 2 1 3 822 825 824
1498 2 2 1 3 662 721 663
1499 2 2 1 3 540 541 531
1500 2 2 1 3 742 743 650
1501 2 2 1 3 587 603 586
1502 2 2 1 3 610 662 609
1503 2 2 1 3 649 650 600
1504 2 2 1 3 877 921 895
1505 2 2 1 3 710 711 637
1506 2 2 1 3 535 537 536
1507 2 2 1 3 610 664 662
1508 2 2 1 3 516 575 523
1509 2 2 1 3 595 626 568
1510 2 2 1 3 601 915 660
1511 2 2 1 3 182 438 181
1512 2 2 1 3 877 965 921
1513 2 2 1 3 661 776 775
1514 2 2 1 3 529 535 534
1515 2 2 1 3 714 715 713
1516 2 2 1 3 511 912 509
1517 2 2 1 3 656 928 910
1518 2 2 1 3 597 600 596
1519 2 2 1 3 579 610 609
1520 2 2 1 3 510 511 509
1521 2 2 1 3 517 518 513
1522 2 2 1 3 579 609 577
1523 2 2 1 3 588 957 937
1524 2 2 1 3 548 565 562
1525 2 2 1 3 591 633 632
1526 2 2 1 3 658 928 656
1527 2 2 1 3 555 557 556
1528 2 2 1 3 512 513 511
1529 2 2 1 3 721 769 751
1530 2 2 1 3 972 974 973
1531 2 2 1 3 734 736 646
1532 2 2 1 3 553 555 554
1533 2 2 1 3 543 547 546
1534 2 2 1 3 604 667 603
1535 2 2 1 3 535 735 537
1536 2 2 1 3 699 957 765
1537 2 2 1 3 763 821 715
1538 2 2 1 3 179 443 178
1539 2 2 1 3 735 811 537
1540 2 2 1 3 643 690 606
1541 2 2 1 3 119 429 120
1542 2 2 1 3 177 927 176
1543 2 2 1 3 551 553 552
1544 2 2 1 3 518 524 521
1545 2 2 1 3 729 730 728
1546 2 2 1 3 507 510 509
1547 2 2 1 3 120 924 121
1548 2 2 1 3 679 681 680
1549 2 2 1 3 779 780 744
1550 2 2 1 3 549 551 550
1551 2 2 1 3 660 915 803
1552 2 2 1 3 603 628 586
1553 2 2 1 3 568 940 540
1554 2 2 1 3 118 926 119
1555 2 2 1 3 121 459 122
1556 2 2 1 3 683 693 692
1557 2 2 1 3 537 955 933
1558 2 2 1 3 495 498 497
1559 2 2 1 3 504 505 502
1560 2 2 1 3 726 928 658
1561 2 2 1 3 117 458 118
1562 2 2 1 3 123 439 124
1563 2 2 1 3 498 499 497
1564 2 2 1 3 501 502 499
1565 2 2 1 3 552 647 550
1566 2 2 1 3 501 549 504
1567 2 2 1 3 176 447 175
1568 2 2 1 3 519 648 646
1569 2 2 1 3 524 530 525
1570 2 2 1 3 593 594 571
1571 2 2 1 3 711 714 713
1572 2 2 1 3 966 970 875
1573 2 2 1 3 116 925 117
1574 2 2 1 3 434 917 185
1575 2 2 1 3 777 783 666
1576 2 2 1 3 526 994 844
1577 2 2 1 3 512 519 517
1578 2 2 1 3 530 540 531
1579 2 2 1 3 563 579 577
1580 2 2 1 3 565 580 566
1581 2 2 1 3 570 571 556
1582 2 2 1 3 700 701 698
1583 2 2 1 3 184 917 457
1584 2 2 1 3 933 955 696
1585 2 2 1 3 570 697 593
1586 2 2 1 3 115 435 116
1587 2 2 1 3 691 788 690
1588 2 2 1 3 595 636 626
1589 2 2 1 3 636 710 637
1590 2 2 1 3 581 922 591
1591 2 2 1 3 512 517 513
1592 2 2 1 3 175 931 174
1593 2 2 1 3 510 512 511
1594 2 2 1 3 633 635 634
1595 2 2 1 3 743 750 744
1596 2 2 1 3 666 956 651
1597 2 2 1 3 114 929 115
1598 2 2 1 3 537 933 536
1599 2 2 1 3 530 544 540
1600 2 2 1 3 806 807 473
1601 2 2 1 3 594 629 599
1602 2 2 1 3 679 680 676
1603 2 2 1 3 541 941 543
1604 2 2 1 3 648 734 646
1605 2 2 1 3 569 596 595
1606 2 2 1 3 475 665 477
1607 2 2 1 3 544 569 568
1608 2 2 1 3 600 653 596
1609 2 2 1 3 636 719 710
1610 2 2 1 3 717 729 728
1611 2 2 1 3 580 592 581
1612 2 2 1 3 489 500 491
1613 2 2 1 3 517 938 518
1614 2 2 1 3 96 448 9
1615 2 2 1 3 697 699 698
1616 2 2 1 3 519 646 517
1617 2 2 1 3 572 588 559
1618 2 2 1 3 788 791 690
1619 2 2 1 3 819 820 817
1620 2 2 1 3 549 550 504
1621 2 2 1 3 551 552 550
1622 2 2 1 3 101 959 102
1623 2 2 1 3 683 692 681
1624 2 2 1 3 661 960 776
1625 2 2 1 3 743 744 650
1626 2 2 1 3 500 989 848
1627 2 2 1 3 553 554 552
1628 2 2 1 3 557 570 556
1629 2 2 1 3 555 556 554
1630 2 2 1 3 174 460 173
1631 2 2 1 3 710 939 711
1632 2 2 1 3 714 763 715
1633 2 2 1 3 501 504 502
1634 2 2 1 3 483 526 485
1635 2 2 1 3 714 778 763
1636 2 2 1 3 579 933 696
1637 2 2 1 3 994 996 844
1638 2 2 1 3 575 930 523
1639 2 2 1 3 544 568 540
1640 2 2 1 3 699 764 700
1641 2 2 1 3 529 930 535
1642 2 2 1 3 498 501 499
1643 2 2 1 3 569 595 568
1644 2 2 1 3 173 932 172
1645 2 2 1 3 883 941 940
1646 2 2 1 3 523 930 529
1647 2 2 1 3 570 593 571
1648 2 2 1 3 719 770 710
1649 2 2 1 3 113 936 114
1650 2 2 1 3 588 967 832
1651 2 2 1 3 479 576 481
1652 2 2 1 3 570 937 697
1653 2 2 1 3 723 860 692
1654 2 2 1 3 970 978 875
1655 2 2 1 3 548 943 565
1656 2 2 1 3 565 582 580
1657 2 2 1 3 713 982 712
1658 2 2 1 3 536 933 563
1659 2 2 1 3 547 943 548
1660 2 2 1 3 750 779 744
1661 2 2 1 3 172 463 171
1662 2 2 1 3 505 950 507
1663 2 2 1 3 712 969 883
1664 2 2 1 3 626 940 568
1665 2 2 1 3 535 930 735
1666 2 2 1 3 635 651 638
1667 2 2 1 3 126 449 127
1668 2 2 1 3 741 988 980
1669 2 2 1 3 604 949 667
1670 2 2 1 3 697 698 593
1671 2 2 1 3 606 949 604
1672 2 2 1 3 563 933 579
1673 2 2 1 3 764 766 700
1674 2 2 1 3 736 938 646
1675 2 2 1 3 518 938 524
1676 2 2 1 3 693 723 692
1677 2 2 1 3 543 941 547
1678 2 2 1 3 674 958 896
1679 2 2 1 3 112 444 113
1680 2 2 1 3 780 942 744
1681 2 2 1 3 591 922 633
1682 2 2 1 3 699 700 698
1683 2 2 1 3 429 924 120
1684 2 2 1 3 899 945 684
1685 2 2 1 3 860 987 984
1686 2 2 1 3 559 937 557
1687 2 2 1 3 592 922 581
1688 2 2 1 3 711 939 714
1689 2 2 1 3 510 950 923
1690 2 2 1 3 119 926 429
1691 2 2 1 3 507 950 510
1692 2 2 1 3 709 782 707
1693 2 2 1 3 646 938 517
1694 2 2 1 3 972 973 971
1695 2 2 1 3 806 809 807
1696 2 2 1 3 121 924 459
1697 2 2 1 3 940 941 541
1698 2 2 1 3 171 948 170
1699 2 2 1 3 690 949 606
1700 2 2 1 3 840 987 870
1701 2 2 1 3 176 927 447
1702 2 2 1 3 458 926 118
1703 2 2 1 3 647 946 550
1704 2 2 1 3 715 953 713
1705 2 2 1 3 770 939 710
1706 2 2 1 3 557 937 570
1707 2 2 1 3 504 946 505
1708 2 2 1 3 961 964 544
1709 2 2 1 3 565 943 582
1710 2 2 1 3 650 942 600
1711 2 2 1 3 811 955 537
1712 2 2 1 3 635 661 651
1713 2 2 1 3 127 934 128
1714 2 2 1 3 117 925 458
1715 2 2 1 3 661 775 666
1716 2 2 1 3 552 951 647
1717 2 2 1 3 684 945 717
1718 2 2 1 3 928 963 732
1719 2 2 1 3 111 935 112
1720 2 2 1 3 569 964 597
1721 2 2 1 3 946 950 505
1722 2 2 1 3 676 958 674
1723 2 2 1 3 102 959 440
1724 2 2 1 3 791 949 690
1725 2 2 1 3 653 944 596
1726 2 2 1 3 714 939 778
1727 2 2 1 3 596 944 595
1728 2 2 1 3 170 468 169
1729 2 2 1 3 594 954 629
1730 2 2 1 3 918 951 554
1731 2 2 1 3 435 925 116
1732 2 2 1 3 447 931 175
1733 2 2 1 3 661 666 651
1734 2 2 1 3 8 464 94
1735 2 2 1 3 700 952 701
1736 2 2 1 3 593 954 594
1737 2 2 1 3 600 942 653
1738 2 2 1 3 775 777 666
1739 2 2 1 3 595 944 636
1740 2 2 1 3 701 954 698
1741 2 2 1 3 636 944 719
1742 2 2 1 3 783 956 666
1743 2 2 1 3 550 946 504
1744 2 2 1 3 744 942 650
1745 2 2 1 3 115 929 435
1746 2 2 1 3 588 937 559
1747 2 2 1 3 695 962 905
1748 2 2 1 3 473 474 472
1749 2 2 1 3 110 461 111
1750 2 2 1 3 554 951 552
1751 2 2 1 3 128 467 129
1752 2 2 1 3 174 931 460
1753 2 2 1 3 717 945 729
1754 2 2 1 3 736 964 961
1755 2 2 1 3 726 963 928
1756 2 2 1 3 766 952 700
1757 2 2 1 3 114 936 929
1758 2 2 1 3 697 957 699
1759 2 2 1 3 680 958 676
1760 2 2 1 3 503 965 516
1761 2 2 1 3 530 961 544
1762 2 2 1 3 460 932 173
1763 2 2 1 3 698 954 593
1764 2 2 1 3 498 966 897
1765 2 2 1 3 172 932 463
1766 2 2 1 3 921 965 503
1767 2 2 1 3 707 962 695
1768 2 2 1 3 938 961 524
1769 2 2 1 3 971 973 773
1770 2 2 1 3 495 966 498
1771 2 2 1 3 444 936 113
1772 2 2 1 3 628 967 586
1773 2 2 1 3 968 981 737
1774 2 2 1 3 628 972 971
1775 2 2 1 3 524 961 530
1776 2 2 1 3 463 948 171
1777 2 2 1 3 894 991 667
1778 2 2 1 3 793 963 726
1779 2 2 1 3 736 961 938
1780 2 2 1 3 572 967 588
1781 2 2 1 3 449 934 127
1782 2 2 1 3 923 968 737
1783 2 2 1 3 882 985 881
1784 2 2 1 3 576 999 865
1785 2 2 1 3 635 960 661
1786 2 2 1 3 633 960 635
1787 2 2 1 3 112 935 444
1788 2 2 1 3 922 960 633
1789 2 2 1 3 500 970 491
1790 2 2 1 3 782 962 707
1791 2 2 1 3 493 966 495
1792 2 2 1 3 170 948 468
1793 2 2 1 3 586 967 572
1794 2 2 1 3 680 984 879
1795 2 2 1 3 516 965 575
1796 2 2 1 3 941 969 547
1797 2 2 1 3 544 964 569
1798 2 2 1 3 128 934 467
1799 2 2 1 3 461 935 111
1800 2 2 1 3 984 987 879
1801 2 2 1 3 712 982 969
1802 2 2 1 3 832 971 773
1803 2 2 1 3 647 981 968
1804 2 2 1 3 681 984 680
1805 2 2 1 3 960 977 776
1806 2 2 1 3 491 970 493
1807 2 2 1 3 888 979 575
1808 2 2 1 3 737 981 741
1809 2 2 1 3 493 970 966
1810 2 2 1 3 883 969 941
1811 2 2 1 3 860 984 692
1812 2 2 1 3 964 975 597
1813 2 2 1 3 547 969 943
1814 2 2 1 3 598 988 918
1815 2 2 1 3 647 968 946
1816 2 2 1 3 575 979 930
1817 2 2 1 3 875 978 873
1818 2 2 1 3 946 968 950
1819 2 2 1 3 734 975 736
1820 2 2 1 3 922 977 960
1821 2 2 1 3 592 977 922
1822 2 2 1 3 812 995 696
1823 2 2 1 3 582 986 580
1824 2 2 1 3 450 806 473
1825 2 2 1 3 954 976 629
1826 2 2 1 3 953 986 582
1827 2 2 1 3 950 968 923
1828 2 2 1 3 599 980 598
1829 2 2 1 3 701 976 954
1830 2 2 1 3 930 979 735
1831 2 2 1 3 843 993 842
1832 2 2 1 3 741 990 648
1833 2 2 1 3 736 975 964
1834 2 2 1 3 979 983 735
1835 2 2 1 3 980 990 741
1836 2 2 1 3 969 982 943
1837 2 2 1 3 667 991 603
1838 2 2 1 3 735 983 811
1839 2 2 1 3 951 981 647
1840 2 2 1 3 489 989 500
1841 2 2 1 3 943 982 582
1842 2 2 1 3 692 984 681
1843 2 2 1 3 526 992 485
1844 2 2 1 3 705 996 864
1845 2 2 1 3 881 985 455
1846 2 2 1 3 696 995 610
1847 2 2 1 3 879 987 840
1848 2 2 1 3 580 986 592
1849 2 2 1 3 981 988 741
1850 2 2 1 3 483 994 526
1851 2 2 1 3 576 994 481
1852 2 2 1 3 665 1005 999
1853 2 2 1 3 749 1040 799
1854 2 2 1 3 918 988 951
1855 2 2 1 3 734 990 857
1856 2 2 1 3 951 988 981
1857 2 2 1 3 746 1004 703
1858 2 2 1 3 487 989 489
1859 2 2 1 3 790 1005 1003
1860 2 2 1 3 648 990 734
1861 2 2 1 3 124 1001 125
1862 2 2 1 3 603 991 628
1863 2 2 1 3 665 999 477
1864 2 2 1 3 628 991 972
1865 2 2 1 3 485 992 487
1866 2 2 1 3 479 999 576
1867 2 2 1 3 487 992 989
1868 2 2 1 3 857 997 742
1869 2 2 1 3 847 993 843
1870 2 2 1 3 742 998 743
1871 2 2 1 3 997 998 742
1872 2 2 1 3 803 1004 774
1873 2 2 1 3 980 997 990
1874 2 2 1 3 998 1000 743
1875 2 2 1 3 743 1000 750
1876 2 2 1 3 442 1080 772
1877 2 2 1 3 454 1025 779
1878 2 2 1 3 481 994 483
1879 2 2 1 3 610 995 664
1880 2 2 1 3 990 997 857
1881 2 2 1 3 450 473 472
1882 2 2 1 3 844 996 705
1883 2 2 1 3 991 1002 972
1884 2 2 1 3 894 1002 991
1885 2 2 1 3 934 1036 758
1886 2 2 1 3 976 1074 890
1887 2 2 1 3 999 1005 865
1888 2 2 1 3 599 998 997
1889 2 2 1 3 1003 1005 808
1890 2 2 1 3 477 999 479
1891 2 2 1 3 629 998 599
1892 2 2 1 3 629 1000 998
1893 2 2 1 3 599 997 980
1894 2 2 1 3 439 1001 124
1895 2 2 1 3 865 1005 790
1896 2 2 1 3 976 1000 629
1897 2 2 1 3 972 1002 974
1898 2 2 1 3 437 1056 778
1899 2 2 1 3 703 1004 803
1900 2 2 1 3 927 1012 746
1901 2 2 1 3 770 1023 878
1902 2 2 1 3 790 1003 789
1903 2 2 1 3 1002 1008 448
1904 2 2 1 3 808 1005 665
1905 2 2 1 3 985 1082 455
1906 2 2 1 3 733 1009 706
1907 2 2 1 3 722 1014 829
1908 2 2 1 3 455 1010 191
1909 2 2 1 3 190 1010 430
1910 2 2 1 3 68 1011 470
1911 2 2 1 3 927 1018 447
1912 2 2 1 3 942 1007 653
1913 2 2 1 3 727 1014 716
1914 2 2 1 3 109 469 11
1915 2 2 1 3 443 1012 178
1916 2 2 1 3 177 1012 927
1917 2 2 1 3 129 1013 130
1918 2 2 1 3 1001 1016 125
1919 2 2 1 3 107 465 108
1920 2 2 1 3 746 1018 927
1921 2 2 1 3 890 1074 431
1922 2 2 1 3 718 1017 861
1923 2 2 1 3 126 1016 449
1924 2 2 1 3 1010 1042 430
1925 2 2 1 3 747 1016 1001
1926 2 2 1 3 766 1028 952
1927 2 2 1 3 1018 1031 447
1928 2 2 1 3 702 1018 746
1929 2 2 1 3 836 1019 835
1930 2 2 1 3 67 1011 68
1931 2 2 1 3 463 1030 818
1932 2 2 1 3 454 1020 889
1933 2 2 1 3 829 1064 459
1934 2 2 1 3 747 1062 727
1935 2 2 1 3 878 1023 453
1936 2 2 1 3 433 1025 86
1937 2 2 1 3 87 1025 454
1938 2 2 1 3 195 1024 194
1939 2 2 1 3 799 1026 797
1940 2 2 1 3 1037 1068 858
1941 2 2 1 3 974 1041 973
1942 2 2 1 3 805 1027 639
1943 2 2 1 3 893 1008 894
1944 2 2 1 3 1007 1049 653
1945 2 2 1 3 916 1027 740
1946 2 2 1 3 784 1036 831
1947 2 2 1 3 780 1007 942
1948 2 2 1 3 431 1028 90
1949 2 2 1 3 869 1044 819
1950 2 2 1 3 1001 1062 747
1951 2 2 1 3 441 1032 79
1952 2 2 1 3 773 1033 772
1953 2 2 1 3 706 1009 708
1954 2 2 1 3 168 1011 167
1955 2 2 1 3 191 1010 190
1956 2 2 1 3 894 1008 1002
1957 2 2 1 3 787 1047 456
1958 2 2 1 3 178 1012 177
1959 2 2 1 3 467 1013 129
1960 2 2 1 3 716 1014 722
1961 2 2 1 3 986 1034 592
1962 2 2 1 3 447 1031 931
1963 2 2 1 3 908 1038 907
1964 2 2 1 3 1011 1055 470
1965 2 2 1 3 768 1042 1010
1966 2 2 1 3 783 1054 451
1967 2 2 1 3 469 1065 801
1968 2 2 1 3 825 1015 824
1969 2 2 1 3 462 1046 841
1970 2 2 1 3 823 1043 821
1971 2 2 1 3 448 1029 974
1972 2 2 1 3 771 1022 837
1973 2 2 1 3 821 1043 715
1974 2 2 1 3 652 1044 869
1975 2 2 1 3 1031 1039 931
1976 2 2 1 3 886 1049 1007
1977 2 2 1 3 953 1043 986
1978 2 2 1 3 12 1057 200
1979 2 2 1 3 745 1050 771
1980 2 2 1 3 456 1047 187
1981 2 2 1 3 186 1047 434
1982 2 2 1 3 130 1057 12
1983 2 2 1 3 837 1022 836
1984 2 2 1 3 441 1048 822
1985 2 2 1 3 772 1033 1006
1986 2 2 1 3 78 1048 441
1987 2 2 1 3 461 1026 935
1988 2 2 1 3 766 1052 1028
1989 2 2 1 3 944 1049 719
1990 2 2 1 3 167 1011 67
1991 2 2 1 3 125 1016 126
1992 2 2 1 3 95 1029 96
1993 2 2 1 3 96 1029 448
1994 2 2 1 3 815 1073 816
1995 2 2 1 3 451 1054 73
1996 2 2 1 3 92 1052 442
1997 2 2 1 3 802 1065 465
1998 2 2 1 3 762 1053 787
1999 2 2 1 3 1046 1051 841
2000 2 2 1 3 81 1056 437
2001 2 2 1 3 781 1017 718
2002 2 2 1 3 739 1082 813
2003 2 2 1 3 886 1072 885
2004 2 2 1 3 751 1059 753
2005 2 2 1 3 890 1058 976
2006 2 2 1 3 662 1079 721
2007 2 2 1 3 468 1055 169
2008 2 2 1 3 772 1080 764
2009 2 2 1 3 813 1082 985
2010 2 2 1 3 457 1071 863
2011 2 2 1 3 459 1064 122
2012 2 2 1 3 123 1064 439
2013 2 2 1 3 701 1074 976
2014 2 2 1 3 708 1063 748
2015 2 2 1 3 936 1040 748
2016 2 2 1 3 859 1018 702
2017 2 2 1 3 835 1019 733
2018 2 2 1 3 931 1039 460
2019 2 2 1 3 740 1042 768
2020 2 2 1 3 841 1051 445
2021 2 2 1 3 819 1030 869
2022 2 2 1 3 776 1081 1015
2023 2 2 1 3 719 1023 770
2024 2 2 1 3 459 1050 828
2025 2 2 1 3 471 1060 10
2026 2 2 1 3 889 1020 890
2027 2 2 1 3 819 1044 820
2028 2 2 1 3 926 1022 429
2029 2 2 1 3 449 1036 934
2030 2 2 1 3 1000 1058 750
2031 2 2 1 3 777 1054 783
2032 2 2 1 3 924 1050 459
2033 2 2 1 3 453 1023 886
2034 2 2 1 3 825 1048 77
2035 2 2 1 3 1039 1045 460
2036 2 2 1 3 110 1021 461
2037 2 2 1 3 859 1031 1018
2038 2 2 1 3 1007 1072 886
2039 2 2 1 3 1036 1077 831
2040 2 2 1 3 882 1079 664
2041 2 2 1 3 194 1024 436
2042 2 2 1 3 1006 1033 464
2043 2 2 1 3 196 1066 195
2044 2 2 1 3 86 1025 87
2045 2 2 1 3 797 1026 800
2046 2 2 1 3 929 1063 435
2047 2 2 1 3 1019 1069 733
2048 2 2 1 3 639 1027 916
2049 2 2 1 3 90 1028 91
2050 2 2 1 3 461 1075 1026
2051 2 2 1 3 818 1030 819
2052 2 2 1 3 1024 1035 436
2053 2 2 1 3 720 1031 859
2054 2 2 1 3 79 1032 80
2055 2 2 1 3 460 1045 932
2056 2 2 1 3 973 1033 773
2057 2 2 1 3 468 1073 1055
2058 2 2 1 3 863 1071 759
2059 2 2 1 3 1015 1081 824
2060 2 2 1 3 592 1034 977
2061 2 2 1 3 1022 1076 836
2062 2 2 1 3 720 1039 1031
2063 2 2 1 3 721 1079 1035
2064 2 2 1 3 1044 1070 820
2065 2 2 1 3 436 1035 882
2066 2 2 1 3 758 1036 784
2067 2 2 1 3 433 1072 780
2068 2 2 1 3 435 1063 1009
2069 2 2 1 3 444 1040 936
2070 2 2 1 3 907 1038 456
2071 2 2 1 3 10 1060 107
2072 2 2 1 3 1052 1080 442
2073 2 2 1 3 1026 1075 800
2074 2 2 1 3 868 1039 720
2075 2 2 1 3 748 1040 749
2076 2 2 1 3 750 1058 1020
2077 2 2 1 3 1028 1052 91
2078 2 2 1 3 926 1076 1022
2079 2 2 1 3 801 1065 802
2080 2 2 1 3 868 1045 1039
2081 2 2 1 3 435 1069 925
2082 2 2 1 3 1032 1056 80
2083 2 2 1 3 451 1070 783
2084 2 2 1 3 168 1055 1011
2085 2 2 1 3 430 1042 908
2086 2 2 1 3 107 1060 465
2087 2 2 1 3 715 1043 953
2088 2 2 1 3 956 1044 652
2089 2 2 1 3 869 1045 868
2090 2 2 1 3 464 1078 94
2091 2 2 1 3 755 1046 757
2092 2 2 1 3 831 1077 747
2093 2 2 1 3 467 1037 1013
2094 2 2 1 3 1034 1081 977
2095 2 2 1 3 187 1047 186
2096 2 2 1 3 77 1048 78
2097 2 2 1 3 820 1070 451
2098 2 2 1 3 822 1048 825
2099 2 2 1 3 449 1077 1036
2100 2 2 1 3 828 1050 745
2101 2 2 1 3 653 1049 944
2102 2 2 1 3 755 1051 1046
2103 2 2 1 3 1009 1069 435
2104 2 2 1 3 858 1068 462
2105 2 2 1 3 836 1076 1019
2106 2 2 1 3 753 1051 755
2107 2 2 1 3 956 1070 1044
2108 2 2 1 3 1013 1057 130
2109 2 2 1 3 91 1052 92
2110 2 2 1 3 760 1053 762
2111 2 2 1 3 73 1054 74
2112 2 2 1 3 780 1072 1007
2113 2 2 1 3 800 1075 801
2114 2 2 1 3 169 1055 168
2115 2 2 1 3 200 1057 858
2116 2 2 1 3 80 1056 81
2117 2 2 1 3 760 1061 1053
2118 2 2 1 3 917 1071 457
2119 2 2 1 3 769 1059 751
2120 2 2 1 3 727 1062 1014
2121 2 2 1 3 759 1061 760
2122 2 2 1 3 445 1066 196
2123 2 2 1 3 439 1062 1001
2124 2 2 1 3 976 1058 1000
2125 2 2 1 3 122 1064 123
2126 2 2 1 3 733 1069 1009
2127 2 2 1 3 1029 1041 974
2128 2 2 1 3 470 1073 815
2129 2 2 1 3 885 1072 433
2130 2 2 1 3 1016 1077 449
2131 2 2 1 3 783 1070 956
2132 2 2 1 3 952 1074 701
2133 2 2 1 3 94 1078 95
2134 2 2 1 3 458 1076 926
2135 2 2 1 3 768 1082 739
2136 2 2 1 3 664 1079 662
2137 2 2 1 3 764 1080 766
2138 2 2 1 3 747 1077 1016
2139 2 2 1 3 108 1067 109
2140 2 2 1 3 977 1081 776
2141 2 2 1 3 858 1057 1013
2142 2 2 1 3 1014 1062 439
2143 2 2 1 3 109 1067 469
2144 2 2 1 3 465 1067 108
2145 2 2 1 3 1055 1073 470
2146 2 2 1 3 1020 1058 890
2147 2 2 1 3 1009 1063 708
2148 2 2 1 3 1019 1076 458
2149 2 2 1 3 1041 1078 464
2150 2 2 1 3 757 1068 1037
2151 2 2 1 3 766 1080 1052
2152 2 2 1 3 1035 1079 882
2153 2 2 1 3 801 1075 1021
2154 2 2 1 3 95 1078 1029
2155 2 2 1 3 1046 1068 757
2156 2 2 1 3 1021 1075 461
2157 2 2 1 3 1029 1078 1041
2158 2 2 1 3 469 1067 1065
2159 2 2 1 3 1065 1067 465
2160 2 2 1 3 462 1068 1046
2161 2 2 1 3 1061 1071 917
2162 2 2 1 3 1059 1066 445
2163 2 2 1 3 769 1066 1059
2164 2 2 1 3 759 1071 1061
$EndElements
