$MeshFormat
4.1 0 8
$EndMeshFormat
$PhysicalNames
7
0 5 "separation-inf"
0 6 "separation-sup"
1 3 "pressure"
1 4 "fixed"
2 1 "body"
2 2 "cover"
2 7 "scar"
$EndPhysicalNames
$Entities
16 20 5 0
1 0.6511864057808671 0.4389937443513539 0 0 
2 0.6793040201319003 0.4399756330807639 0 0 
3 0.545420822146799 0.4353003287851092 0 0 
4 0.4805568777289847 0.4330352299337695 0 0 
5 0.4147538325515014 0.4009409403738397 0 0 
6 0.07832443735993695 -8.673617379884035e-17 0 0 
7 0.7207000000000001 0 0 0 
8 0.7207000000000001 0.4 0 0 
9 0.6772100503297507 0.4999390827019097 0 1 5 
10 0.676160910323211 0.4999024459255766 0 0 
11 0.7807000000000001 0 0 0 
12 0.7807000000000002 0.4 0 1 6 
13 0.5162583780001556 0.4943185264531777 0 0 
14 0.4784629079268351 0.4929986795549153 0 0 
15 0.368791165964363 0.4395081969550323 0 0 
16 0 0 0 0 
1 0.6511863057808671 0.4389936443513539 -1e-07 0.6793041201319002 0.4399757330807639 1e-07 0 2 1 -2 
2 0.545420722146799 0.4134091200278496 -1e-07 0.651186505780867 0.4389938443513539 1.000000000003388e-07 0 2 1 -3 
3 0.4805567777289847 0.4330351299337695 -1e-07 0.5454209221467989 0.4353004287851091 1e-07 0 2 4 -3 
4 0.4147537325515014 0.4009408403738397 -1e-07 0.4805569777289847 0.4330353299337695 1e-07 0 2 5 -4 
5 0.07832433735993694 -1.000000001138979e-07 -1e-07 0.4147539325515014 0.4009410403738397 1e-07 0 2 6 -5 
6 0.07832433735993694 -1e-07 -1e-07 0.7207001000000001 1e-07 1e-07 1 4 2 6 -7 
7 0.7206999000000001 -1.000000000028756e-07 -1e-07 0.7207001000000001 0.4000001 1e-07 0 2 8 -7 
8 0.6793039201319003 0.3999999 -1e-07 0.7207001000000002 0.4400001000000001 1e-07 0 2 2 -8 
9 0.6761608103232111 0.4999023459255766 -1e-07 0.6772101503297506 0.4999391827019096 1e-07 1 3 2 9 -10 
10 0.6511863057808671 0.4389936443513539 -1e-07 0.6769748739071924 0.4999025459255766 1.000000000003388e-07 0 2 10 -1 
11 0.7206999000000002 -1e-07 -1e-07 0.7807001 1e-07 1e-07 1 4 2 7 -11 
12 0.7806999000000001 -1.000000000028756e-07 -1e-07 0.7807001000000001 0.4000001 1e-07 1 3 2 11 -12 
13 0.6772099503297507 0.3999999 -1e-07 0.7807001000000001 0.5000001000000001 1e-07 1 3 2 12 -9 
14 0.5162582780001557 0.4353002287851092 -1e-07 0.5454209221467989 0.4943186264531777 1.000000000003388e-07 0 2 3 -13 
15 0.4784628079268351 0.4929985795549152 -1e-07 0.5162584780001556 0.4943186264531776 1e-07 1 3 2 13 -14 
16 0.368791065964363 0.4395080969550323 -1e-07 0.4784630079268351 0.4929987795549153 1e-07 1 3 2 14 -15 
17 -1.000000000583867e-07 -1.000000000583867e-07 -1e-07 0.368791265964363 0.4395082969550323 1e-07 1 3 2 15 -16 
18 -1.000000000028756e-07 -1e-07 -1e-07 0.07832453735993695 1e-07 1e-07 1 4 2 16 -6 
19 0.5162582780001557 0.4943184264531776 -1e-07 0.676161010323211 0.4999025459255766 1e-07 1 3 2 10 -13 
20 0.545420722146799 0.4353002287851091 -1e-07 0.651186505780867 0.4389938443513539 1e-07 0 2 3 -1 
1 0.07832433735993694 -1.000000001138979e-07 -1e-07 0.7207001000000002 0.4400001000000001 1.000000000003388e-07 1 1 8 -1 2 -3 -4 -5 6 -7 -8 
2 0.6511863057808671 -1.000000000028756e-07 -1e-07 0.7807001000000001 0.5000001000000001 1.000000000003388e-07 1 2 8 9 10 1 8 7 11 12 13 
3 -1.000000000583867e-07 -1.000000001138979e-07 -1e-07 0.5454209221467989 0.4943186264531777 1.000000000003388e-07 1 2 8 3 14 15 16 17 18 5 4 
4 0.5162582780001557 0.4353002287851091 -1e-07 0.6769748739071924 0.4999025459255766 1.000000000003388e-07 1 7 4 -10 19 -14 20 
5 0.545420722146799 0.4134091200278496 -1e-07 0.651186505780867 0.4389938443513539 1.000000000003388e-07 1 7 2 -2 -20 
$EndEntities
$Nodes
41 989 1 989
0 1 0 1
1
0.6511864057808671 0.4389937443513539 0
0 2 0 1
2
0.6793040201319003 0.4399756330807639 0
0 3 0 1
3
0.545420822146799 0.4353003287851092 0
0 4 0 1
4
0.4805568777289847 0.4330352299337695 0
0 5 0 1
5
0.4147538325515014 0.4009409403738397 0
0 6 0 1
6
0.07832443735993695 -8.673617379884035e-17 0
0 7 0 1
7
0.7207000000000001 0 0
0 8 0 1
8
0.7207000000000001 0.4 0
0 9 0 1
9
0.6772100503297507 0.4999390827019097 0
0 10 0 1
10
0.676160910323211 0.4999024459255766 0
0 11 0 1
11
0.7807000000000001 0 0
0 12 0 1
12
0.7807000000000002 0.4 0
0 13 0 1
13
0.5162583780001556 0.4943185264531777 0
0 14 0 1
14
0.4784629079268351 0.4929986795549153 0
0 15 0 1
15
0.368791165964363 0.4395081969550323 0
0 16 0 1
16
0 0 0
1 1 0 1
17
0.6652452129563836 0.4394846887160589 0
1 2 0 5
18
19
20
21
22
0.6357327820764695 0.4275553169395738 1.317999691269155e-19
0.6179963732530542 0.4201342662542621 2.140533812686636e-19
0.599001603897883 0.4171592200278496 2.420094135012286e-19
0.579845576112207 0.4188020110613803 2.140533812686644e-19
0.5616347059619728 0.424967755103798 1.317999691269163e-19
1 3 0 3
23
24
25
0.4967728638334383 0.4336015046466044 0
0.512988849937892 0.4341677793594393 0
0.5292048360423455 0.4347340540722742 0
1 4 0 3
26
27
28
0.4282882996529003 0.4140110233266561 0
0.4442444292211927 0.4239815196689761 0
0.4619248618282396 0.4304166708668907 0
1 5 0 26
29
30
31
32
33
34
35
36
37
38
39
40
41
42
43
44
45
46
47
48
49
50
51
52
53
54
0.09078478532999484 0.01484966445829028 0
0.1032451333000529 0.02969932891658067 0
0.1157054812701108 0.04454899337487106 0
0.1281658292401688 0.05939865783316151 0
0.1406261772102268 0.0742483222914519 0
0.1530865251802848 0.08909798674974223 0
0.1655468731503428 0.1039476512080327 0
0.1780072211204007 0.1187973156663231 0
0.1904675690904586 0.1336469801246134 0
0.2029279170605166 0.1484966445829038 0
0.2153882650305745 0.1633463090411941 0
0.2278486130006324 0.1781959734994845 0
0.2403089609706904 0.1930456379577748 0
0.2527693089407483 0.2078953024160651 0
0.2652296569108062 0.2227449668743555 0
0.2776900048808641 0.2375946313326459 0
0.2901503528509221 0.2524442957909361 0
0.30261070082098 0.2672939602492265 0
0.315071048791038 0.2821436247075169 0
0.3275313967610959 0.2969932891658073 0
0.3399917447311538 0.3118429536240975 0
0.3524520927012117 0.3266926180823879 0
0.3649124406712696 0.3415422825406782 0
0.3773727886413276 0.3563919469989686 0
0.3898331366113856 0.371241611457259 0
0.4022934845814435 0.3860912759155493 0
1 6 0 32
55
56
57
58
59
60
61
62
63
64
65
66
67
68
69
70
71
72
73
74
75
76
77
78
79
80
81
82
83
84
85
86
0.09779036350054496 0 0
0.117256289641153 0 0
0.136722215781761 0 0
0.156188141922369 0 0
0.175654068062977 0 0
0.195119994203585 0 0
0.214585920344193 0 0
0.2340518464848011 0 0
0.2535177726254091 0 0
0.272983698766017 0 0
0.292449624906625 0 0
0.311915551047233 0 0
0.331381477187841 0 0
0.3508474033284489 0 0
0.3703133294690569 0 0
0.3897792556096649 0 0
0.4092451817502729 0 0
0.4287111078908808 0 0
0.4481770340314888 0 0
0.4676429601720968 0 0
0.4871088863127047 0 0
0.5065748124533127 0 0
0.5260407385939206 0 0
0.5455066647345286 0 0
0.5649725908751365 0 0
0.5844385170157445 0 0
0.6039044431563524 0 0
0.6233703692969603 0 0
0.6428362954375684 0 0
0.6623022215781762 0 0
0.6817681477187842 0 0
0.7012340738593922 0 0
1 7 0 19
87
88
89
90
91
92
93
94
95
96
97
98
99
100
101
102
103
104
105
0.7207000000000001 0.38 0
0.7207000000000001 0.36 0
0.7207000000000001 0.34 0
0.7207000000000001 0.32 0
0.7207000000000001 0.2999999999999999 0
0.7207000000000001 0.2799999999999998 0
0.7207000000000001 0.2599999999999998 0
0.7207000000000001 0.2399999999999997 0
0.7207000000000001 0.2199999999999997 0
0.7207000000000001 0.1999999999999997 0
0.7207000000000001 0.1799999999999997 0
0.7207000000000001 0.1599999999999997 0
0.7207 0.1399999999999997 0
0.7207 0.1199999999999997 0
0.7207 0.09999999999999976 0
0.7207 0.07999999999999974 0
0.7207 0.05999999999999978 0
0.7207 0.03999999999999981 0
0.7207 0.01999999999999991 0
1 8 0 3
106
107
108
0.6950347179818123 0.4373432170598882 0
0.7084863348183601 0.428773592013546 0
0.7175201941380979 0.4156292451395709 0
1 9 0 0
1 10 0 3
109
110
111
0.6749582175454675 0.483015728652662 1.869308354299022e-19
0.6702289703681719 0.4667602086298974 2.501853475435632e-19
0.6621849560681737 0.4518638485370464 1.86930835429902e-19
1 11 0 2
112
113
0.7407000000000001 0 0
0.7607 0 0
1 12 0 19
114
115
116
117
118
119
120
121
122
123
124
125
126
127
128
129
130
131
132
0.7807000000000001 0.02000000000000002 0
0.7807000000000001 0.04000000000000004 0
0.7807000000000001 0.06000000000000007 0
0.7807000000000001 0.0800000000000001 0
0.7807000000000001 0.1000000000000001 0
0.7807000000000001 0.1200000000000002 0
0.7807000000000001 0.1400000000000002 0
0.7807000000000001 0.1600000000000003 0
0.7807000000000001 0.1800000000000003 0
0.7807000000000001 0.2000000000000003 0
0.7807000000000001 0.2200000000000003 0
0.7807000000000001 0.2400000000000003 0
0.7807000000000002 0.2600000000000003 0
0.7807000000000002 0.2800000000000003 0
0.7807000000000002 0.3000000000000003 0
0.7807000000000002 0.3200000000000003 0
0.7807000000000002 0.3400000000000002 0
0.7807000000000002 0.3600000000000002 0
0.7807000000000002 0.3800000000000001 0
1 13 0 8
133
134
135
136
137
138
139
140
0.7791126851461645 0.4177466448187235 0
0.7744011319535617 0.4349298993789168 0
0.7667149147895368 0.4510042589765673 0
0.7562980425875752 0.4654594222165702 0
0.7434812124672103 0.4778364911924158 0
0.7286713113250252 0.4877425397954581 0
0.7123384986823563 0.4948630876638884 0
0.6950012808614562 0.4989720837697266 0
1 14 0 3
141
142
143
0.5335512906904938 0.4473718619595147 1.869308354299016e-19
0.5244877536533399 0.4616708131955529 2.501853475435632e-19
0.5186360989288121 0.4775568399819891 1.86930835429902e-19
1 15 0 1
144
0.4973606429634954 0.4936586030040465 0
1 16 0 6
145
146
147
148
149
150
0.4606021298067301 0.4913013523732255 0
0.4430717622107593 0.4874836925445529 0
0.4261225971602598 0.4816003160728103 0
0.409997111907333 0.4737353914085198 0
0.3949260000195546 0.4640014353225606 0
0.3811248710438117 0.452537703224669 0
1 17 0 28
151
152
153
154
155
156
157
158
159
160
161
162
163
164
165
166
167
168
169
170
171
172
173
174
175
176
177
178
0.3560742292069712 0.4243527418876174 0
0.3433572924495794 0.4091972868202025 0
0.3306403556921876 0.3940418317527876 0
0.3179234189347958 0.3788863766853727 0
0.305206482177404 0.3637309216179579 0
0.2924895454200122 0.348575466550543 0
0.2797726086626204 0.3334200114831282 0
0.2670556719052286 0.3182645564157132 0
0.2543387351478367 0.3031091013482983 0
0.2416217983904449 0.2879536462808834 0
0.2289048616330531 0.2727981912134685 0
0.2161879248756612 0.2576427361460536 0
0.2034709881182694 0.2424872810786387 0
0.1907540513608777 0.2273318260112239 0
0.1780371146034859 0.212176370943809 0
0.1653201778460941 0.1970209158763941 0
0.1526032410887023 0.1818654608089793 0
0.1398863043313104 0.1667100057415644 0
0.1271693675739185 0.1515545506741494 0
0.1144524308165267 0.1363990956067345 0
0.1017354940591348 0.1212436405393195 0
0.08901855730174296 0.1060881854719045 0
0.07630162054435113 0.09093273040448963 0
0.06358468378695925 0.07577727533707462 0
0.05086774702956742 0.06062182026965973 0
0.03815081027217554 0.04546636520224479 0
0.02543387351478371 0.03031091013482984 0
0.01271693675739183 0.01515545506741489 0
1 18 0 3
179
180
181
0.01958110933998424 0 0
0.03916221867996848 0 0
0.05874332801995272 0 0
1 19 0 7
182
183
184
185
186
187
188
0.6561730937828291 0.4992044559915267 0
0.6361852772424472 0.4985064660574769 0
0.6161974607020653 0.497808476123427 0
0.5962096441616833 0.4971104861893771 0
0.5762218276213014 0.4964124962553272 0
0.5562340110809194 0.4957145063212774 0
0.5362461945405376 0.4950165163872275 0
1 20 0 5
189
190
191
192
193
0.5630484194191436 0.4359158980461499 0
0.5806760166914884 0.4365314673071907 0
0.598303613963833 0.4371470365682315 0
0.6159312112361778 0.4377626058292722 0
0.6335588085085224 0.4383781750903131 0
2 1 0 578
194
195
196
197
198
199
200
201
202
203
204
205
206
207
208
209
210
211
212
213
214
215
216
217
218
219
220
221
222
223
224
225
226
227
228
229
230
231
232
233
234
235
236
237
238
239
240
241
242
243
244
245
246
247
248
249
250
251
252
253
254
255
256
257
258
259
260
261
262
263
264
265
266
267
268
269
270
271
272
273
274
275
276
277
278
279
280
281
282
283
284
285
286
287
288
289
290
291
292
293
294
295
296
297
298
299
300
301
302
303
304
305
306
307
308
309
310
311
312
313
314
315
316
317
318
319
320
321
322
323
324
325
326
327
328
329
330
331
332
333
334
335
336
337
338
339
340
341
342
343
344
345
346
347
348
349
350
351
352
353
354
355
356
357
358
359
360
361
362
363
364
365
366
367
368
369
370
371
372
373
374
375
376
377
378
379
380
381
382
383
384
385
386
387
388
389
390
391
392
393
394
395
396
397
398
399
400
401
402
403
404
405
406
407
408
409
410
411
412
413
414
415
416
417
418
419
420
421
422
423
424
425
426
427
428
429
430
431
432
433
434
435
436
437
438
439
440
441
442
443
444
445
446
447
448
449
450
451
452
453
454
455
456
457
458
459
460
461
462
463
464
465
466
467
468
469
470
471
472
473
474
475
476
477
478
479
480
481
482
483
484
485
486
487
488
489
490
491
492
493
494
495
496
497
498
499
500
501
502
503
504
505
506
507
508
509
510
511
512
513
514
515
516
517
518
519
520
521
522
523
524
525
526
527
528
529
530
531
532
533
534
535
536
537
538
539
540
541
542
543
544
545
546
547
548
549
550
551
552
553
554
555
556
557
558
559
560
561
562
563
564
565
566
567
568
569
570
571
572
573
574
575
576
577
578
579
580
581
582
583
584
585
586
587
588
589
590
591
592
593
594
595
596
597
598
599
600
601
602
603
604
605
606
607
608
609
610
611
612
613
614
615
616
617
618
619
620
621
622
623
624
625
626
627
628
629
630
631
632
633
634
635
636
637
638
639
640
641
642
643
644
645
646
647
648
649
650
651
652
653
654
655
656
657
658
659
660
661
662
663
664
665
666
667
668
669
670
671
672
673
674
675
676
677
678
679
680
681
682
683
684
685
686
687
688
689
690
691
692
693
694
695
696
697
698
699
700
701
702
703
704
705
706
707
708
709
710
711
712
713
714
715
716
717
718
719
720
721
722
723
724
725
726
727
728
729
730
731
732
733
734
735
736
737
738
739
740
741
742
743
744
745
746
747
748
749
750
751
752
753
754
755
756
757
758
759
760
761
762
763
764
765
766
767
768
769
770
771
0.5163077755236167 0.01685798654595805 0
0.3850853385118408 0.3382212101999894 0
0.7003796264664833 0.2096999599753873 0
0.3323317600435236 0.2788567639768934 0
0.4383231728609127 0.01727970273262625 0
0.5653499169932228 0.4085926784692508 0
0.2856141337447264 0.2191735493091741 0
0.7037029774339911 0.1299364157351176 0
0.4871914033699383 0.4154342423041656 0
0.3605806381405196 0.01642848378491768 0
0.7045933255683137 0.2897269268378874 0
0.5944635122930279 0.01534742356175861 0
0.2476602784048831 0.1750149782111847 0
0.3018561524413264 0.01751159518075218 0
0.6107218309830158 0.4023769180729617 0
0.2075983063428659 0.1312704534604007 0
0.4207579825028056 0.382397960188651 0
0.2445372790347556 0.01776100085126597 0
0.7033975215152107 0.06996979799638003 0
0.7019694159493715 0.3492805486842301 0
0.6711593011161121 0.4280607509262694 0
0.1722156135197239 0.08394318490840519 0
0.6544990020302315 0.01529533687278417 0
0.7041757191618008 0.2500493239495913 0
0.7043718145181525 0.169992430613935 0
0.4807895448088381 0.01507711141640999 0
0.399502637298989 0.01614904905060027 0
0.5521418682144756 0.01678922848246467 0
0.3092407134945053 0.2490781501380173 0
0.359082105374737 0.3084768079711787 0
0.5215872512769545 0.4204074608019845 0
0.2037695942099975 0.01711271445697682 0
0.7034302441265077 0.3922094207271809 0
0.1657111030775971 0.01652409962564977 0
0.4577822541521626 0.4105505887524664 0
0.1497563898172645 0.05742820962343353 0
0.7038702120238873 0.03082793561164288 0
0.6943390134090466 0.4214089626342922 0
0.6309889585323665 0.4030764713139727 0
0.6231102333572872 0.3874855329712824 0
0.6441776817706351 0.390617086101516 0
0.6360451539928749 0.3730993702314778 0
0.6153605838172893 0.3698530150380202 0
0.627844593205639 0.3543016405234105 0
0.6083382312480553 0.3515630633164071 0
0.6205663372551884 0.3361893985280166 0
0.6011257713850731 0.3333845292689047 0
0.6133611439771445 0.3180004011017187 0
0.5936940363625599 0.3152638384567483 0
0.6061101820226303 0.2997945095720776 0
0.5864116829002838 0.2970562600669499 0
0.5988833081129026 0.2815528498884743 0
0.5793696677721845 0.2787351488968737 0
0.591676252839372 0.2632865581376302 0
0.5721644330531631 0.2604649525959002 0
0.5844624622059923 0.2450205349934029 0
0.5650833421478466 0.2420899739772637 0
0.577242730937601 0.2267560148498092 0
0.5578805782247294 0.2238248273076979 0
0.5700471734008912 0.2085087995087569 0
0.5506551880266884 0.205660754697827 0
0.5384643351775708 0.2209237990026756 0
0.5312708050344868 0.2028149516816783 0
0.5190853971460067 0.2181176375254935 0
0.5119108135518183 0.1999844080073997 0
0.5628117518934073 0.19029376039571 0
0.5665698766656055 0.2940895717188312 0
0.4997855497473103 0.2153227979262246 0
0.4925856875128638 0.1971569877490575 0
0.5047042511501849 0.1818327080148945 0
0.4853804406176599 0.1790063054412177 0
0.4732624827126205 0.1943130307158589 0
0.466065091030633 0.1761703000021979 0
0.4539627900014078 0.1914716527641074 0
0.4467669243497174 0.1733440132926852 0
0.4974937781438443 0.1636884584660335 0
0.4346727275748025 0.1886313233006285 0
0.4274845795864516 0.1705140841321472 0
0.4418583641196392 0.2067520725465818 0
0.4395724758685347 0.15522938802707 0
0.4202946018662559 0.1524064002961224 0
0.4082085133559834 0.167679249649528 0
0.4010233969009706 0.1495801480118804 0
0.5822065134529067 0.1931338140292353 0
0.5749716798109391 0.1749089099569808 0
0.4323744332311605 0.137131015410586 0
0.5069377918136397 0.2334419073258321 0
0.3889436356323007 0.164843281289559 0
0.3817640690452715 0.1467565560435079 0
0.5943943336336334 0.1777510558329035 0
0.5871450037651408 0.1595042394856726 0
0.369693394420131 0.1620168269677236 0
0.3625150971173524 0.143933865996851 0
0.3745825762976531 0.1286727707714092 0
0.355334481383824 0.1258534322816832 0
0.3768660643027245 0.1800963718559454 0
0.6038452691616997 0.2480256984034397 0
0.3432698800933528 0.1411087781957077 0
0.3360916455868709 0.123034036469544 0
0.6065902517118504 0.1623450209547429 0
0.5993232924587958 0.1440866897361393 0
0.5798927384958156 0.1412543916703395 0
0.5920562811642925 0.1258390241722041 0
0.5726354055811617 0.1230178279603023 0
0.6138479278426607 0.1806367124103601 0
0.3674018691753304 0.1105938717825755 0
0.6115042528415496 0.128670776008458 0
0.6042286588954747 0.1104109212129741 0
0.6236757855378443 0.113227476636739 0
0.3240318029872676 0.1382843778032939 0
0.3168551917042659 0.1202152843005018 0
0.6164013142481475 0.09503803524179177 0
0.5808877468379163 0.3303841742162197 0
0.3312016344064685 0.1563524005502071 0
0.5968523110735534 0.09242238161124866 0
0.328913339529344 0.1049632306659003 0
0.3096764789390877 0.1021471206985369 0
0.6182918960230925 0.2846497012086786 0
0.2976206237152652 0.1173954619348045 0
0.2904432328500326 0.09933158858546942 0
0.6309793646385282 0.1314467226469727 0
0.3217349932502029 0.08689583512759858 0
0.6328171606459356 0.3212761225470113 0
0.6358886466270643 0.09779450416122698 0
0.2783906101242329 0.114574849107014 0
0.2712136150796736 0.09651476632145894 0
0.3119706637070598 0.1535237007360306 0
0.2832661099856344 0.08126916408996721 0
0.2640356814473487 0.07845542985843501 0
0.5604846235985497 0.1384104825675228 0
0.5532368456929753 0.120244849566181 0
0.6286016926569202 0.07959485522939158 0
0.3191414148258304 0.1715851382335016 0
0.5527288348506224 0.2574447544204524 0
0.4876623224688676 0.2306252813933198 0
0.494849769523006 0.2487617318628169 0
0.4755718252233951 0.2459115113199228 0
0.4827374553993459 0.2640103720858022 0
0.4635125761536046 0.2611679548424815 0
0.4706468326570153 0.2792254424774138 0
0.451467900594624 0.2763848408970744 0
0.4586066714132495 0.2944188885629368 0
0.4777374322255802 0.2972244717184102 0
0.4657584824646033 0.3123720373083524 0
0.4847681806068409 0.3151964397375113 0
0.4729239016255072 0.3302245166393643 0
0.4917867070492049 0.333061531385603 0
0.4394543089032329 0.2915907359756301 0
0.432283797041652 0.273549232357402 0
0.4548178992393561 0.3271293791264259 0
0.4966935023282265 0.3001648046149035 0
0.480043381699256 0.3479391373484835 0
0.4987046030645427 0.3507035155652382 0
0.5105297662002906 0.3358864596694274 0
0.5174088715262538 0.353554811646229 0
0.4202551194360942 0.2887688308520505 0
0.4130828391142315 0.2707320279884944 0
0.422578594913488 0.203905707181268 0
0.451658203319902 0.1399442280611839 0
0.4444608896915436 0.1218420530415352 0
0.4637466404679638 0.1246582145464404 0
0.4565550081014846 0.106546754810697 0
0.4372655260971096 0.1037442873611418 0
0.4758406340696107 0.1093688232571705 0
0.468653633573342 0.09124191212768396 0
0.4879439535912073 0.0940711826917533 0
0.4951395001698623 0.1121884255213216 0
0.5072124106788709 0.09687611599721163 0
0.5000387897459462 0.07876565401568647 0
0.519307833335567 0.08156996070562683 0
0.4869672262898834 0.3654630864586179 0
0.2519851616037818 0.09370005645473578 0
0.2448083921094119 0.07564425454593193 0
0.6484971304080541 0.3587943555752324 0
0.6480684991399843 0.08237118341896965 0
0.6546701298445574 0.1008585218663368 0
0.2760879876855573 0.06320498682722597 0
0.5292953411723527 0.3387838701283564 0
0.5361940596475642 0.3564773155913175 0
0.2999230627612684 0.1687653598466587 0
0.5945062959685918 0.3665340683390316 0
0.4684366075977846 0.362739247226091 0
0.5241651927650839 0.3711426273992477 0
0.5168374224808252 0.1664544886477229 0
0.425123485188755 0.2555067915081113 0
0.4059126485906673 0.2526871719113057 0
0.3938732102066284 0.2679182699053602 0
0.3867008435622215 0.2498751816341603 0
0.3866511428977029 0.1134128873623624 0
0.3794708704393805 0.09532956582513785 0
0.2328425107457383 0.09085353165120724 0
0.2255992022474426 0.07282858804721942 0
0.6408033628559595 0.06406985560477968 0
0.6212754535564871 0.06149949274110311 0
0.5121395368888789 0.06346755627537404 0
0.5314377191448304 0.06628686279156365 0
0.4928467325765433 0.06064435889780567 0
0.659201612227111 0.0667034621176501 0
0.2135070373345476 0.08850344715995601 0
0.2060959890462816 0.07039047272892351 0
0.3746633633293108 0.2651070661457166 0
0.3674908427160751 0.2470655624570365 0
0.3794748818344132 0.2318107412233132 0
0.3602685807844546 0.2290348516029353 0
0.218336194353434 0.05381684125932307 0
0.1991248234939457 0.0518753125467063 0
0.2400474382668032 0.1089046429483793 0
0.3070648757653728 0.1869848372839286 0
0.3262998985067945 0.1896647895577099 0
0.2878526104035692 0.1841923878498448 0
0.5410678605652322 0.1356235946773821 0
0.4274309840892834 0.3067903663163854 0
0.4091473829207549 0.3036160215939482 0
0.4157029791602203 0.321058680718612 0
0.5141470035267421 0.2516320136878443 0
0.5653268458641376 0.104949800169789 0
0.5483373543010397 0.1538320987925335 0
0.2855648421376268 0.1326341107110348 0
0.2663441305093718 0.1298143416142107 0
0.3987243228386125 0.0981503095425309 0
0.3915404999797586 0.08006375994426984 0
0.3722885073751711 0.07724741871004226 0
0.3843601300237889 0.06197321543636275 0
0.4036215386654149 0.06477442862431043 0
0.3651040035731701 0.05916129065873232 0
0.2953221423615828 0.06601839072615096 0
0.2735883864446102 0.1478519286278702 0
0.5095745633746177 0.1483185158397229 0
0.4563155568251572 0.243057090798656 0
0.6260728998280085 0.1651975178560207 0
0.6333543129740221 0.1835360674444243 0
0.6456187766786395 0.1680404806338686 0
0.6526382692290972 0.1865226011237882 0
0.6405832589740811 0.2019484493200353 0
0.6598868723452277 0.2049503540824639 0
0.6478566996206655 0.220379115226282 0
0.6672334605332793 0.2230866912169842 0
0.6551580402422265 0.2387708990027398 0
0.5224151663957061 0.3210162762392379 0
0.5412130782145972 0.3238665424151629 0
0.5343092348515872 0.3059891611785028 0
0.5427418049111215 0.3752358188576573 0
0.5550185578839268 0.3595694502303408 0
0.628327770055399 0.2173956292650784 0
0.3482736341029229 0.244257070681306 0
0.3410197143875452 0.2261360302898117 0
0.3528641231620375 0.2107569120784599 0
0.3144785993843227 0.2048349331815131 0
0.4754444107713646 0.3800691238233023 0
0.4937125928799283 0.3827421498448683 0
0.6650909257796794 0.1720485657302158 0
0.6578765136194197 0.1526863336574338 0
0.4573436743414858 0.3777465840101413 0
0.4481975104133539 0.3592678956263362 0
0.3822838812293534 0.2854764295494435 0
0.6334507764741708 0.04625285431128173 0
0.5302178342156415 0.3895290257489059 0
0.2554334234232732 0.1446549862004944 0
0.288098406422566 0.04826066509374966 0
0.3073172828858678 0.05118505881820834 0
0.2688960622284572 0.04518805173503498 0
0.3773227650269749 0.04488173709489607 0
0.4179350694828042 0.2374340861234713 0
0.3576232338065223 0.1772711974709376 0
0.3409762304724471 0.08970534894933385 0
0.3337944543208942 0.07163223369500421 0
0.470954336817446 0.1427578786648133 0
0.4059078103986765 0.1162336450327178 0
0.5144052642835084 0.1148926292050079 0
0.5386011142131097 0.08432309547598521 0
0.5507222410996926 0.06906436999146631 0
0.5435236448322484 0.05103372026640696 0
0.5628543342999166 0.05385328011590174 0
0.5700400593242165 0.0718161213326271 0
0.582161954916383 0.05655239804733864 0
0.6136869397760267 0.04434313762214614 0
0.6765538975044066 0.1569317531594796 0
0.6701695983964355 0.1368707979933349 0
0.56188720470007 0.3772710078972902 0
0.5048528007395086 0.04592099021002272 0
0.5864724180684735 0.400617793828506 0
0.6503148731188826 0.4222475547696931 0
0.1271373562304252 0.01559697620130374 0
0.5480531541269771 0.4159990951425374 0
0.5749785136602378 0.03843848606792444 0
0.6748335284665796 0.2416828165753916 0
0.6631632767889011 0.2572022345449575 0
0.6429467220997053 0.2542914220709167 0
0.6503198955498217 0.2726483452994957 0
0.6697782096419078 0.2756564865615946 0
0.6575823040729787 0.2911089393857149 0
0.3626266331726776 0.2803360829731291 0
0.4854791234074357 0.04372095444987295 0
0.4735377092536266 0.05801273843005444 0
0.4659713977435508 0.04081886934382672 0
0.4542228522685023 0.05520121220333951 0
0.6244030839496683 0.03074398129092726 0
0.6758966446766751 0.2945282951074354 0
0.6646616001910184 0.3096093685680598 0
0.6843195826570616 0.3124905453193663 0
0.6721098053789889 0.3279617828564108 0
0.2838689425617363 0.0309977765648517 0
0.3580171497609943 0.04269520068277899 0
0.482146153217922 0.3963781187753246 0
0.4997600712109839 0.4004228220433386 0
0.1871446901346719 0.06721615740114428 0
0.1804737394611952 0.04956187344951879 0
0.6788219555244125 0.2079831903416422 0
0.5746288588617446 0.3628623082416258 0
0.3943801132495615 0.3179764038069705 0
0.1681718005774314 0.06344781357752427 0
0.1940612116588354 0.08604416852800811 0
0.2024773332290428 0.1037516934341247 0
0.6915558313268434 0.3293598958829259 0
0.6796336944324075 0.3464251919619635 0
0.6875749661654236 0.365671768487894 0
0.6686184026099126 0.3624366732380799 0
0.6764617525811671 0.3806343216019355 0
0.5811633233758982 0.3807134072887549 0
0.4468239584089161 0.03675914016337922 0
0.4350287614538774 0.05215505092743272 0
0.4421808750090869 0.0703301025918559 0
0.4968989914386502 0.02827541428575803 0
0.1922020269840152 0.03395141390422851 0
0.327521868057494 0.2426724184394608 0
0.427351348761993 0.03410597030149948 0
0.2654876990065881 0.02691707986757069 0
0.2503439101162495 0.04081088491698226 0
0.2306912175492827 0.03526991352858994 0
0.5676147746201563 0.3448765519062259 0
0.5534710621521967 0.3091308897711317 0
0.5464706914820754 0.2909137897453248 0
0.5273106373393472 0.2880685337860177 0
0.5400015252651136 0.2728039135411034 0
0.5502301644536671 0.3947919089354713 0
0.3219082976174911 0.2223116389214155 0
0.4607466949737519 0.02013199443769642 0
0.6578365034650346 0.378829920419102 0
0.6648685581488584 0.397418310482096 0
0.6842965696162914 0.3951740149029213 0
0.5118573234278551 0.3856814851868662 0
0.5732295439732403 0.3124124812366596 0
0.6005580187521836 0.385637291147796 0
0.6525319311978102 0.3246231173964749 0
0.5171265676552442 0.4036343182730702 0
0.4089234972549688 0.3678754658043401 0
0.4280877670454465 0.363881719409885 0
0.4159194386795884 0.3506404121547473 0
0.4334546245823344 0.3462292550362849 0
0.5878502798202563 0.3482674492147358 0
0.3967816652765928 0.3533830562756957 0
0.5594512228106967 0.275927139512167 0
0.594325312239358 0.04125402012141355 0
0.4355806648305101 0.3267782852165377 0
0.6016176852219202 0.05922367461275391 0
0.4157703794025454 0.04958006135122101 0
0.3336823342800394 0.2076946855700849 0
0.5332043659080079 0.2545523274853019 0
0.7034995479871838 0.05013750915859128 0
0.6866279468237227 0.04021412273581504 0
0.6885288642691469 0.01854202138411093 0
0.6671415067069637 0.03133204183719773 0
0.6876071796933431 0.06002214223692648 0
0.6861211880952103 0.07989250760766997 0
0.703381898783986 0.08992663389931488 0
0.6861733687513858 0.09827669748144513 0
0.7034389774939186 0.1096459377816246 0
0.6836069264164139 0.1197770668273412 0
0.5555757242770246 0.1720811676683469 0
0.6379729041631733 0.287824140376555 0
0.4469415018233726 0.3098466154177114 0
0.635625826445247 0.2358009378593959 0
0.7039913351194704 0.2698413573082192 0
0.684906592515215 0.2591271293641355 0
0.505408977922323 0.3681389093292844 0
0.3647957323609941 0.1953442164927476 0
0.3840624765928891 0.1982631657901869 0
0.5017441598169015 0.2670013753556889 0
0.6529632059419443 0.04859132712452813 0
0.2807742591187507 0.165941220098589 0
0.2684283279965303 0.1798991147356958 0
0.273050175655743 0.2012899770573788 0
0.2952186634493116 0.2024456341997693 0
0.7037435088996251 0.2308330936138213 0
0.7049278294637782 0.1499856126047074 0
0.7035182005167252 0.1891439454549575 0
0.6858808925970237 0.1761758596946219 0
0.4804661294731979 0.2124669391392121 0
0.6210871170798837 0.1990053601716899 0
0.6087985673790081 0.2144717272449285 0
0.5677345207080848 0.156665215023566 0
0.2473404103858121 0.1269237209442392 0
0.2388860278081481 0.143663959443628 0
0.4611537795078675 0.2096132469758345 0
0.4490164749419854 0.2248832020431128 0
0.1464460122335245 0.01658442265934712 0
0.1333217360977563 0.0312802767448373 0
0.152719913352132 0.03577486119048634 0
0.5434216644763648 0.1874739378355053 0
0.4153944531869993 0.1857884761084282 0
0.4033006255732984 0.2010519432358996 0
0.4104870597421241 0.2191664734273472 0
0.5847598186935715 0.1077350623275298 0
0.3047964275255454 0.1354596492291252 0
0.3458722319032161 0.0566276693907844 0
0.3379349285535505 0.03649355266846072 0
0.3504441449468952 0.159182217411433 0
0.4902779853440057 0.1455418539678817 0
0.2927696069491436 0.1506959948748847 0
0.5338430813043915 0.1174357608838279 0
0.3386844525980389 0.2614981151793189 0
0.3567261772389798 0.2622879301270859 0
0.5241296414909083 0.04883673706322711 0
0.535268811782737 0.03163132310687039 0
0.4493691275997655 0.08842715024252235 0
0.430080975188466 0.08561574767112851 0
0.4229131923084379 0.06755658857334207 0
0.3966828493229714 0.04740366467385815 0
0.5361992430015856 0.1692345278835101 0
0.4683401828120167 0.227754365381293 0
0.2592202276616126 0.1117387295650063 0
0.4807499277282949 0.07596999050926845 0
0.3800459725689841 0.01588677491393181 0
0.4179843908591711 0.1009714689619491 0
0.402195837051301 0.2859201892990678 0
0.3222428543811328 0.01709984160697298 0
0.3411166368368621 0.01685671835064451 0
0.3383644029914942 0.1744127577123915 0
0.3961292947740326 0.1829537479882579 0
0.3913641992522328 0.216468985403295 0
0.3483324015155206 0.2924706197607747 0
0.2962778721205883 0.2351389315033879 0
0.2569669647109427 0.06014954588262711 0
0.4614652816136272 0.07314179457536174 0
0.4108108199733103 0.08285538388625519 0
0.3602213642096413 0.0925164129977436 0
0.3481564883929097 0.1077777221911301 0
0.3938382759791402 0.1314959289900078 0
0.3986728138390722 0.2345934132672524 0
0.345604954184647 0.1925240931470553 0
0.3024995111390837 0.08408246027028449 0
0.3728343913261251 0.3229307528940001 0
0.3804301491296488 0.3047248068531679 0
0.5240573666158777 0.1846325036784518 0
0.3530427986424233 0.07448172906694017 0
0.2377909801811273 0.05642000469677899 0
0.4588581364252477 0.1580548342223833 0
0.4297811243080509 0.222009466190452 0
0.5289185478364156 0.1510874535877579 0
0.3145468605751708 0.06889908935617894 0
0.4131006603345664 0.1343195667181692 0
0.4781699131461217 0.1608853819632051 0
0.6233686576406959 0.2512147340586809 0
0.5732573492966881 0.01938866055890276 0
0.3264752337028149 0.0534497199031515 0
0.425182285102038 0.1190403394210165 0
0.2279566100191796 0.1241789295446969 0
0.6505539389902985 0.1341659808405586 0
0.489664060772807 0.2821332534308328 0
0.4830408627183015 0.1274666404263428 0
0.2114071233341954 0.0346386808553219 0
0.4443073313273382 0.2583262630607291 0
0.6187925820629099 0.1469205020096147 0
0.6016290018442447 0.196011443026068 0
0.5894292469665002 0.2113850218549666 0
0.4187293854128137 0.01663747334933158 0
0.4371406721602362 0.2402916679606496 0
0.5023221698642482 0.1302449267743255 0
0.4644953490714264 0.3943795276684973 0
0.4489295294059861 0.3942154937616417 0
0.6383156793029674 0.1497429229407449 0
0.548199539206933 0.3417527025274888 0
0.4620080261317984 0.3446431211108374 0
0.6430892633556675 0.1160448099588535 0
0.5035912522931849 0.318130847747055 0
0.5216885812047356 0.1329338134946708 0
0.5965780460060767 0.2296757953000353 0
0.5264317750199434 0.09957883571214254 0
0.3721383323311702 0.213613145431823 0
0.5459288027058065 0.102295469575552 0
0.6160832620959805 0.2326701853724369 0
0.5262665668610378 0.2362601678135363 0
0.6621588697999038 0.1187753592420709 0
0.5580130787982953 0.08703654589734677 0
0.5456046705283025 0.2391826416678213 0
0.5774594095828091 0.08977041883866038 0
0.668236344036499 0.08589014906478321 0
0.7030039508661715 0.3115238525845712 0
0.6110261491060831 0.2662829680878862 0
0.3169384063242692 0.03528129131660307 0
0.5566005193374808 0.03543189057228785 0
0.2618794462650416 0.1629777861454132 0
0.5895310359765535 0.07449148564186581 0
0.5154737262094125 0.3031865909722883 0
0.630654370763762 0.2694852185170356 0
0.6090547957404389 0.07716391940856571 0
0.625710729982067 0.3029990243834412 0
0.6453551492378576 0.3062998766957512 0
0.2212792119815558 0.1053548380557615 0
0.6404333887460438 0.3397403394908398 0
0.6603431797636354 0.3432574023748931 0
0.5085250138955129 0.2851607112632215 0
0.5607692908341733 0.3270705570121482 0
0.5059045012140753 0.4179446879047671 0
0.1844739897183512 0.01666227509280255 0
0.6796120751909294 0.4139283355517877 0
0.5207312477186674 0.2700156049578054 0
0.2329560820719522 0.1609324991863526 0
0.1081540569490926 0.01423511177596359 0
0.2237346725701302 0.01665172047994301 0
0.4047295450642113 0.3361382303540936 0
0.4079693365174305 0.03246644104193425 0
0.6512923406540467 0.4045810949021172 0
0.6131288099896229 0.015741848065011 0
0.4731213315894961 0.4188223870216699 0
0.6858120089865606 0.225176801050801 0
0.671863752531796 0.1904753101360758 0
0.6884119946383889 0.2813282992051819 0
0.5350531717698557 0.01305570762705865 0
0.2999306156115137 0.03455736170526563 0
0.6713082666893566 0.05199575512230448 0
0.6884868212496911 0.1422479147277656 0
0.1840185166595407 0.1022618575726696 0
0.7048382332452598 0.3724245750669899 0
0.1731751714412759 0.03349769670556502 0
0.7070168976642073 0.4057427302718683 0
0.4396922307108111 0.3775224290615585 0
0.3199039726327218 0.2654357511722986 0
0.6448164449126967 0.03119107836500967 0
0.3042030013878027 0.2197082548413395 0
0.3886397692279797 0.03104669680463773 0
0.5335362942456944 0.4078927126904004 0
0.4311774199209301 0.3975272459160535 0
0.4424002576277058 0.4080663402415468 0
0.5154916041950841 0.03430449024236726 0
0.2193952788345475 0.147331456314005 0
0.2813218389077565 0.01398538030819663 0
0.1648594029298599 0.04794209090930557 0
0.2565198550437784 0.1918293272091296 0
0.6708479484606605 0.01303388001881856 0
0.633842334269458 0.01549537409895541 0
0.4217195340328387 0.3361363843043494 0
0.1944070026560083 0.1179223162056332 0
0.367730102011484 0.2950572104675125 0
0.3695488331793731 0.02973367847370445 0
0.7078530562022309 0.33 0
0.6838898255659601 0.4281433798506003 0
0.5692042643343517 0.3917089253478351 0
0.6709173240275306 0.1048230294610997 0
0.6907322724871947 0.2405171136848012 0
0.6048037774839333 0.02973281396032901 0
0.6916881515544104 0.3812792136112719 0
0.1561786699708128 0.07392357720392495 0
0.4975360021074244 0.01204210244962522 0
0.263250735695713 0.01182502933717444 0
0.1177967313878999 0.02777893853486574 0
0.7061092449727518 0.01472807097201528 0
0.662626978884031 0.416152572879578 0
0.688313089581016 0.1948315493271614 0
0.3117204420103756 0.2343448419327773 0
0.6935702253906338 0.4082866780809849 0
0.3482982203861703 0.2753274657886294 0
0.6919596982831211 0.1599858420466122 0
0.3515224564406423 0.02814597951770359 0
0.6913058603087509 0.2990896000518191 0
0.6395981447114057 0.4142997819722924 0
0.4473310751746934 0.3406500363123764 0
0.6749603629824592 0.06993153660014628 0
0.3943125985936272 0.2991483559663888 0
0.5862148428729714 0.02910665987985994 0
0.2108443422940235 0.1159367835962047 0
0.4724026582470679 0.4063554318896687 0
0.2482469668377597 0.1578878317356482 0
0.7056614738689758 0.4171555456887787 0
0.6601065543712553 0.4289878623285906 0
0.5351154207614477 0.4229032265675959 0
0.4777428547924935 0.0302828779071635 0
0.1359401758119734 0.04667741953431181 0
2 2 0 83
772
773
774
775
776
777
778
779
780
781
782
783
784
785
786
787
788
789
790
791
792
793
794
795
796
797
798
799
800
801
802
803
804
805
806
807
808
809
810
811
812
813
814
815
816
817
818
819
820
821
822
823
824
825
826
827
828
829
830
831
832
833
834
835
836
837
838
839
840
841
842
843
844
845
846
847
848
849
850
851
852
853
854
0.724386602787246 0.4300249702416661 0
0.6864919589016258 0.470392489734608 0
0.7621803533148805 0.4077243251841339 0
0.7274973721547598 0.4699637648772684 0
0.7644062610787872 0.3700809257314074 0
0.7380205080756888 0.04999999999999954 0
0.7638650538762929 0.3301473977692264 0
0.7653621214647723 0.270404459478757 0
0.7376935873711777 0.1494337567297405 0
0.7653621214647722 0.1104044594787568 0
0.7372384140902211 0.2099999999999997 0
0.737071784561106 0.3906591160146792 0
0.7566372196104177 0.4363106198546925 0
0.7091820393911259 0.444707846439142 0
0.7346223194122512 0.4186228003775931 0
0.7506999999999999 0.018764001848321 0
0.7380205080756888 0.08999999999999975 0
0.7380205080756889 0.2499999999999997 0
0.7631890862283638 0.1700000000000001 0
0.7372384140902212 0.3099999999999999 0
0.7380205080756889 0.35 0
0.7633794919243113 0.0699999999999999 0
0.7638650538762928 0.2301473977692264 0
0.7286667829795194 0.4514747995357823 0
0.6915929084955399 0.4511581778800654 0
0.7040319077510431 0.4639629677911014 0
0.7000259226319537 0.4830011722833829 0
0.7372146569112038 0.3706964948316886 0
0.7412239206892182 0.4374843796452352 0
0.7423910940167289 0.4536455063105925 0
0.738020508075689 0.06999999999999951 0
0.7643786606143792 0.2500469266367335 0
0.764063691501766 0.09002456629487099 0
0.7376391005870926 0.1304718693918826 0
0.7530392972468547 0.1399842710202706 0
0.7375632383735998 0.2905662432702592 0
0.7520404447691997 0.3012268604188953 0
0.7368438730622667 0.2706606171486359 0
0.7646046429122425 0.3501031217309315 0
0.7375816425834612 0.3299999999999999 0
0.7368565167645155 0.1106448881689063 0
0.7375816425834612 0.2299999999999997 0
0.7375632383735998 0.1905662432702591 0
0.7520404447691997 0.2012268604188952 0
0.7409435565459663 0.1699999999999999 0
0.7633794919243116 0.05000000000000004 0
0.764980574669919 0.3889159106970755 0
0.6757708737609399 0.4531577504542065 0
0.765373079295489 0.03058491240135419 0
0.7360269207045109 0.03058491240135408 0
0.750083756029132 0.4221711364071505 0
0.7465021879501741 0.4065483433810703 0
0.7645372973281284 0.422987722407407 0
0.6867374860540507 0.4870641114284578 0
0.7177189604796542 0.4601454911904678 0
0.7504180423928041 0.3802427287078694 0
0.7528137952968719 0.1560890155009856 0
0.7660043344535302 0.3102290430313538 0
0.7660043344535302 0.2102290430313538 0
0.7519448486500587 0.1202509146766361 0
0.7517636222511594 0.2804763633860913 0
0.7528601982643817 0.1838878479461861 0
0.7155162925875794 0.4774681534862557 0
0.7508940185617877 0.3601872118336495 0
0.7506999999999998 0.07999999999999968 0
0.7509357197080074 0.3400729552223012 0
0.7507 0.05999999999999955 0
0.7511781309113778 0.2602647277750362 0
0.7509454080499618 0.2400765086968326 0
0.7511579477428001 0.1002208047698616 0
0.7660950871564437 0.2903894543858497 0
0.7675107328073369 0.1902318370555863 0
0.7675488529809524 0.1300388511404073 0
0.7506484522385714 0.3199999999999999 0
0.7506484522385712 0.2199999999999997 0
0.7674378658911954 0.1497638567578758 0
0.7506999999999999 0.04002196690848253 0
0.7353410161513774 0.01464101615137692 0
0.7660589838486227 0.01464101615137697 0
0.7325198863745336 0.4048209733216344 0
0.7541707878497383 0.4488049673287963 0
0.7394301968112711 0.4658989876804527 0
0.7520755809361179 0.3943931691443088 0
2 3 0 110
855
856
857
858
859
860
861
862
863
864
865
866
867
868
869
870
871
872
873
874
875
876
877
878
879
880
881
882
883
884
885
886
887
888
889
890
891
892
893
894
895
896
897
898
899
900
901
902
903
904
905
906
907
908
909
910
911
912
913
914
915
916
917
918
919
920
921
922
923
924
925
926
927
928
929
930
931
932
933
934
935
936
937
938
939
940
941
942
943
944
945
946
947
948
949
950
951
952
953
954
955
956
957
958
959
960
961
962
963
964
0.4890380498858792 0.4469374295585751 0
0.4097336661119834 0.4561480389686618 0
0.4390040775281395 0.4706879676170744 0
0.3861251728217816 0.4356877595402128 0
0.383970232423853 0.3894490599365621 0
0.3582824279977443 0.3597580926518876 0
0.3333617320576284 0.3300587637353066 0
0.3084410361175127 0.3003594348187261 0
0.2835203401773967 0.2706601059021453 0
0.2590793193886528 0.2395951255346561 0
0.2340177263915503 0.2097690550536064 0
0.2079642651458235 0.1795267378446884 0
0.1828586823888343 0.1496537190740376 0
0.1591985920261068 0.1185322363291738 0
0.1348456622715926 0.09212988023895891 0
0.1090754685965855 0.06276480348608038 0
0.0844674028850686 0.03373134752296503 0
0.471762944310904 0.4775013990982896 0
0.3488973326280084 0.39151093765725 0
0.3241529106133627 0.3615091374305105 0
0.2989500647831315 0.3313517681614082 0
0.2737409810132427 0.3011996331451721 0
0.2477221103550563 0.2707638337999306 0
0.5108069773943438 0.4622198015224181 0
0.4097417626440906 0.4198399076510844 0
0.04676489900467906 0.02869962686280025 0
0.223317873666129 0.240918108431955 0
0.4475116411101283 0.4425107990555349 0
0.1975205920764764 0.2087409081872949 0
0.1720867185616931 0.1784299980524654 0
0.4300168440271108 0.4384757228695596 0
0.1466528450469092 0.1481190879176354 0
0.1204416393552064 0.1184620207724097 0
0.09501791261050851 0.08817048463940635 0
0.06945807201281162 0.05641763703993885 0
0.4611233333010419 0.4480168625868284 0
0.06745881196037973 0.01799251695426474 0
0.06468725965988564 0.03701274471438415 0
0.3970640470124486 0.4044143584326992 0
0.378827076407485 0.4065495355291259 0
0.08202139584440427 0.07298290932570684 0
0.08977703944527959 0.05385485988479893 0
0.311427118751835 0.3468656573869264 0
0.1593783528821481 0.1633231519830159 0
0.2097889495108809 0.2257714362531572 0
0.3364734309396794 0.376948536557923 0
0.2350816227659306 0.2562387451035356 0
0.1330349428392572 0.1337121845293242 0
0.1386583039471336 0.1146949917754712 0
0.2862971249984596 0.3167629566705464 0
0.184757273153071 0.1935685713920503 0
0.261024889167434 0.2866190851943423 0
0.1074781544626298 0.1035279003144394 0
0.114736789649464 0.08443303503327643 0
0.3458220800276863 0.3449084281935972 0
0.2475788700900413 0.2245412865552226 0
0.295980688147455 0.2855097703604353 0
0.3209013840875705 0.3152090992770163 0
0.1951173940802746 0.1638816717250308 0
0.2715936842541026 0.2542389384012276 0
0.371043329749396 0.3743831256596401 0
0.2204521001719541 0.1938847275172146 0
0.1701797262563101 0.1337336518507886 0
0.5038947143653335 0.4473334427291281 0
0.4878751732847839 0.4776464149957101 0
0.4811554193624979 0.4615177666660066 0
0.4343643734241897 0.4536051831476021 0
0.03210196844112789 0.01435389370306872 0
0.5190635102390049 0.447697805621189 0
0.4554238540557047 0.4752828106161922 0
0.4513098746856916 0.4591031893079768 0
0.3971022243116586 0.4467531736154348 0
0.4123766085082236 0.4382556974038428 0
0.5038293359966788 0.4785101151994566 0
0.3614450550091875 0.4076995188948211 0
0.4235486524838882 0.4644291066033322 0
0.3743820498181697 0.4242967779625598 0
0.390886947898374 0.4208007743666546 0
0.4960999450482529 0.4623608284452158 0
0.3668077146792881 0.3905612203851545 0
0.4664418328704216 0.4615504127378877 0
0.3539895731220045 0.3755944192852602 0
0.3414646045936301 0.360699063888663 0
0.328987491783323 0.3457653219972238 0
0.3164916855807756 0.3308132543577922 0
0.3043804726218589 0.3157998530866389 0
0.2919592456265249 0.3008500324739535 0
0.2800145497627499 0.2858550193936239 0
0.04895277334996029 0.01195737015336706 0
0.265805111392815 0.2703976550161017 0
0.2537806199303485 0.2553824919133195 0
0.2416356072206766 0.240476395561146 0
0.2281723135399757 0.2250740266394552 0
0.2138564816301196 0.2092430453733917 0
0.2004176982113341 0.1938393661365022 0
0.1876672851251472 0.1787202036090186 0
0.1744112078887153 0.1635757963508053 0
0.162205441872489 0.1485135771742477 0
0.1498887495775235 0.133144908682349 0
0.1234444104891221 0.1030373004439672 0
0.09798904666651431 0.07274446864853218 0
0.1507668751960375 0.1036969731181391 0
0.1258759908535119 0.07397262930101417 0
0.1009684010972549 0.04426230299039191 0
0.05283486328984055 0.04605809773605829 0
0.4218441659516743 0.4493696127971144 0
0.4748605077617604 0.4456959666069352 0
0.07709744350076142 0.0452541472905218 0
0.4240435402716368 0.426531433254002 0
0.3992279819366663 0.4327671323922457 0
2 4 0 21
965
966
967
968
969
970
971
972
973
974
975
976
977
978
979
980
981
982
983
984
985
0.6065971366507763 0.4523535750578886 0
0.570462945781692 0.4509664836140954 0
0.5415064388469183 0.4626154676506797 0
0.6531858460726725 0.4665153984873845 0
0.6262078134330206 0.4823573658038345 0
0.5872286590965484 0.4807150492834586 0
0.6063422864230574 0.4818133975356684 0
0.5674416322057533 0.4804779979772384 0
0.5888324961023069 0.4514412260457018 0
0.625114552073021 0.4528152007044927 0
0.5517816764176574 0.4496523572052635 0
0.6438402467193992 0.4528571534759672 0
0.5486479859154336 0.4791898781742207 0
0.6449288581912715 0.4825232815811037 0
0.5972682744303054 0.4663061876658171 0
0.5599196290854231 0.4646731694356727 0
0.6165568291372199 0.4673703800754856 0
0.5785256061170049 0.4657633523369973 0
0.6349723576044342 0.4674064633547114 0
0.5339048943770083 0.475209903077934 0
0.6598949971920824 0.4796038146685149 0
2 5 0 4
986
987
988
989
0.5721081650140052 0.4291806832734849 0
0.6249909568310392 0.4310273910566071 0
0.6066095398121699 0.4278473253016492 0
0.5906227048663812 0.4272912655311028 0
$EndNodes
$Elements
17 1978 1 1978
0 9 15 1
1 9 
0 12 15 1
2 12 
1 6 1 33
3 6 55 
4 55 56 
5 56 57 
6 57 58 
7 58 59 
8 59 60 
9 60 61 
10 61 62 
11 62 63 
12 63 64 
13 64 65 
14 65 66 
15 66 67 
16 67 68 
17 68 69 
18 69 70 
19 70 71 
20 71 72 
21 72 73 
22 73 74 
23 74 75 
24 75 76 
25 76 77 
26 77 78 
27 78 79 
28 79 80 
29 80 81 
30 81 82 
31 82 83 
32 83 84 
33 84 85 
34 85 86 
35 86 7 
1 9 1 1
36 9 10 
1 11 1 3
37 7 112 
38 112 113 
39 113 11 
1 12 1 20
40 11 114 
41 114 115 
42 115 116 
43 116 117 
44 117 118 
45 118 119 
46 119 120 
47 120 121 
48 121 122 
49 122 123 
50 123 124 
51 124 125 
52 125 126 
53 126 127 
54 127 128 
55 128 129 
56 129 130 
57 130 131 
58 131 132 
59 132 12 
1 13 1 9
60 12 133 
61 133 134 
62 134 135 
63 135 136 
64 136 137 
65 137 138 
66 138 139 
67 139 140 
68 140 9 
1 15 1 2
69 13 144 
70 144 14 
1 16 1 7
71 14 145 
72 145 146 
73 146 147 
74 147 148 
75 148 149 
76 149 150 
77 150 15 
1 17 1 29
78 15 151 
79 151 152 
80 152 153 
81 153 154 
82 154 155 
83 155 156 
84 156 157 
85 157 158 
86 158 159 
87 159 160 
88 160 161 
89 161 162 
90 162 163 
91 163 164 
92 164 165 
93 165 166 
94 166 167 
95 167 168 
96 168 169 
97 169 170 
98 170 171 
99 171 172 
100 172 173 
101 173 174 
102 174 175 
103 175 176 
104 176 177 
105 177 178 
106 178 16 
1 18 1 4
107 16 179 
108 179 180 
109 180 181 
110 181 6 
1 19 1 8
111 10 182 
112 182 183 
113 183 184 
114 184 185 
115 185 186 
116 186 187 
117 187 188 
118 188 13 
2 1 2 1254
119 619 620 599 
120 472 528 435 
121 42 575 43 
122 599 683 619 
123 478 684 647 
124 231 740 699 
125 522 639 398 
126 497 498 202 
127 647 684 221 
128 521 522 211 
129 367 531 235 
130 532 706 234 
131 43 575 200 
132 531 532 234 
133 520 521 211 
134 470 580 444 
135 518 721 222 
136 195 635 503 
137 510 531 367 
138 635 636 503 
139 521 639 522 
140 472 741 528 
141 699 754 231 
142 619 683 207 
143 604 721 518 
144 202 765 497 
145 435 528 450 
146 572 722 555 
147 86 554 85 
148 683 713 207 
149 194 712 607 
150 498 697 202 
151 699 740 214 
152 607 728 194 
153 213 509 508 
154 470 756 580 
155 225 703 654 
156 229 771 591 
157 538 697 498 
158 213 508 507 
159 233 536 236 
160 215 504 499 
161 499 505 215 
162 650 729 209 
163 235 531 234 
164 480 567 483 
165 221 684 607 
166 471 676 561 
167 228 663 662 
168 520 730 495 
169 207 713 495 
170 520 748 730 
171 86 750 554 
172 398 654 522 
173 654 703 522 
174 74 530 73 
175 232 759 19 
176 495 730 207 
177 607 712 221 
178 720 726 210 
179 42 732 575 
180 82 734 707 
181 196 709 501 
182 586 729 650 
183 479 567 480 
184 591 771 590 
185 19 759 18 
186 477 528 199 
187 367 694 510 
188 555 714 572 
189 226 754 533 
190 540 542 447 
191 228 727 663 
192 374 512 502 
193 555 722 216 
194 708 765 202 
195 493 681 507 
196 532 751 706 
197 474 536 208 
198 663 726 720 
199 223 636 635 
200 224 697 538 
201 199 474 21 
202 20 474 208 
203 22 477 199 
204 208 536 233 
205 502 543 374 
206 719 754 226 
207 699 751 532 
208 559 680 557 
209 707 734 490 
210 591 731 229 
211 242 535 244 
212 236 536 374 
213 199 741 474 
214 512 536 474 
215 392 505 393 
216 523 696 306 
217 73 530 198 
218 219 530 74 
219 6 55 29 
220 18 475 1 
221 393 505 499 
222 681 739 507 
223 206 685 574 
224 590 771 31 
225 447 720 540 
226 225 654 517 
227 306 543 523 
228 88 717 213 
229 513 519 198 
230 31 749 590 
231 561 715 471 
232 503 704 195 
233 198 530 513 
234 306 696 535 
235 213 717 509 
236 575 576 200 
237 524 525 260 
238 8 226 87 
239 474 741 512 
240 577 709 196 
241 523 543 502 
242 676 742 561 
243 559 742 680 
244 510 694 508 
245 306 535 242 
246 509 510 508 
247 501 752 196 
248 244 535 260 
249 525 545 260 
250 528 741 199 
251 392 506 505 
252 450 534 376 
253 374 536 512 
254 234 706 232 
255 574 732 206 
256 580 710 444 
257 513 530 488 
258 219 747 516 
259 551 700 408 
260 547 760 542 
261 327 545 527 
262 450 538 534 
263 516 770 219 
264 401 576 403 
265 238 543 240 
266 517 698 225 
267 3 477 22 
268 246 545 248 
269 567 711 483 
270 530 770 488 
271 260 535 524 
272 387 548 469 
273 469 548 546 
274 706 759 232 
275 522 703 211 
276 511 533 532 
277 485 737 624 
278 537 694 693 
279 504 746 229 
280 509 511 510 
281 534 568 376 
282 527 551 327 
283 527 700 551 
284 439 550 440 
285 693 694 367 
286 550 633 440 
287 533 745 226 
288 527 545 525 
289 374 543 238 
290 240 543 306 
291 403 576 575 
292 441 576 401 
293 511 532 531 
294 260 545 246 
295 248 545 327 
296 376 568 348 
297 507 739 213 
298 563 691 690 
299 441 550 529 
300 52 544 53 
301 570 672 569 
302 195 544 52 
303 519 659 198 
304 529 550 439 
305 440 633 569 
306 690 691 316 
307 208 232 19 
308 404 669 603 
309 54 210 5 
310 563 688 482 
311 443 498 497 
312 325 689 387 
313 27 228 28 
314 443 497 442 
315 346 364 345 
316 539 540 210 
317 595 632 623 
318 54 539 210 
319 646 674 565 
320 435 450 376 
321 229 731 504 
322 511 531 510 
323 623 632 396 
324 542 735 547 
325 327 678 250 
326 377 642 612 
327 201 561 560 
328 340 346 345 
329 387 689 548 
330 340 345 339 
331 364 568 443 
332 547 564 343 
333 215 746 504 
334 405 564 547 
335 219 770 530 
336 364 443 442 
337 569 672 440 
338 364 442 375 
339 595 641 456 
340 372 376 348 
341 53 544 539 
342 341 564 405 
343 552 553 230 
344 311 688 563 
345 553 554 230 
346 456 632 595 
347 549 610 417 
348 338 340 339 
349 612 642 410 
350 201 560 100 
351 104 552 230 
352 443 568 534 
353 603 669 462 
354 588 660 641 
355 552 556 553 
356 417 611 549 
357 562 612 410 
358 290 674 646 
359 588 613 422 
360 421 642 377 
361 53 539 54 
362 641 660 456 
363 101 560 558 
364 553 555 554 
365 338 339 337 
366 346 568 364 
367 551 678 327 
368 534 538 498 
369 364 375 345 
370 566 567 217 
371 429 565 437 
372 608 609 515 
373 212 556 552 
374 101 558 102 
375 609 628 610 
376 560 561 559 
377 100 560 101 
378 329 571 331 
379 610 628 417 
380 104 230 105 
381 93 566 217 
382 410 584 562 
383 295 584 323 
384 609 610 515 
385 558 560 559 
386 583 657 582 
387 335 564 341 
388 515 627 608 
389 330 613 328 
390 608 627 358 
391 339 343 337 
392 301 596 308 
393 212 552 103 
394 514 610 549 
395 445 664 651 
396 405 547 407 
397 331 333 332 
398 333 335 334 
399 494 537 492 
400 570 622 594 
401 88 213 89 
402 594 622 593 
403 316 691 537 
404 329 331 330 
405 353 649 356 
406 336 337 335 
407 595 623 594 
408 651 664 314 
409 218 578 98 
410 323 584 410 
411 515 610 514 
412 325 387 386 
413 422 660 588 
414 95 577 196 
415 469 490 449 
416 422 613 330 
417 333 336 335 
418 484 563 482 
419 356 617 609 
420 571 652 331 
421 455 611 416 
422 373 602 320 
423 416 611 417 
424 348 568 346 
425 204 566 92 
426 284 584 295 
427 103 552 104 
428 194 728 516 
429 592 637 612 
430 387 469 449 
431 437 583 582 
432 424 582 298 
433 431 565 429 
434 579 580 218 
435 581 587 265 
436 91 204 92 
437 387 449 386 
438 196 579 96 
439 262 581 265 
440 480 481 431 
441 427 582 424 
442 340 347 346 
443 244 260 246 
444 587 613 588 
445 481 565 431 
446 420 602 573 
447 617 628 609 
448 102 212 103 
449 240 306 242 
450 267 587 272 
451 358 627 615 
452 437 582 427 
453 589 590 476 
454 400 614 585 
455 341 405 349 
456 212 557 556 
457 248 327 250 
458 280 329 328 
459 480 482 481 
460 593 622 275 
461 408 571 329 
462 198 659 72 
463 265 587 267 
464 589 591 590 
465 331 332 330 
466 429 437 427 
467 57 589 476 
468 587 588 272 
469 328 613 581 
470 612 637 377 
471 259 592 562 
472 573 602 373 
473 269 645 601 
474 217 577 94 
475 329 330 328 
476 569 633 457 
477 280 328 261 
478 93 217 94 
479 301 308 305 
480 99 578 201 
481 323 324 297 
482 271 593 275 
483 356 649 617 
484 323 404 324 
485 358 615 359 
486 623 672 570 
487 601 645 460 
488 295 297 296 
489 99 201 100 
490 291 600 307 
491 257 280 261 
492 438 605 604 
493 97 579 218 
494 442 446 375 
495 312 597 411 
496 598 638 459 
497 320 602 597 
498 594 623 570 
499 295 323 297 
500 208 233 232 
501 252 255 254 
502 457 621 600 
503 284 295 294 
504 252 254 253 
505 606 607 465 
506 336 338 337 
507 250 252 251 
508 248 250 249 
509 296 596 301 
510 418 638 598 
511 227 591 589 
512 491 492 484 
513 405 407 406 
514 592 612 562 
515 255 256 254 
516 97 218 98 
517 92 566 93 
518 261 581 262 
519 286 600 291 
520 255 257 256 
521 102 558 212 
522 257 261 258 
523 395 605 438 
524 257 258 256 
525 259 562 278 
526 389 606 465 
527 404 603 324 
528 493 494 492 
529 255 678 675 
530 483 484 482 
531 57 476 56 
532 333 652 336 
533 325 386 368 
534 261 262 258 
535 236 374 238 
536 265 267 266 
537 304 597 312 
538 95 196 96 
539 412 614 318 
540 227 589 58 
541 585 614 412 
542 380 618 448 
543 333 334 332 
544 351 595 594 
545 328 581 261 
546 272 351 270 
547 270 593 271 
548 351 594 593 
549 362 390 388 
550 365 614 400 
551 507 508 494 
552 662 663 446 
553 267 270 268 
554 265 266 264 
555 390 473 388 
556 359 615 362 
557 256 637 592 
558 324 409 297 
559 98 578 99 
560 486 516 473 
561 267 268 266 
562 457 633 621 
563 295 296 294 
564 262 265 264 
565 390 486 473 
566 372 435 376 
567 351 593 270 
568 275 281 276 
569 289 457 285 
570 94 577 95 
571 581 613 587 
572 597 602 411 
573 254 592 259 
574 270 271 268 
575 598 648 599 
576 254 259 253 
577 262 264 263 
578 351 641 595 
579 365 400 384 
580 289 569 457 
581 96 579 97 
582 326 373 320 
583 252 253 251 
584 307 320 303 
585 420 451 412 
586 271 275 274 
587 59 227 58 
588 411 412 318 
589 281 285 282 
590 401 403 373 
591 275 276 274 
592 411 420 412 
593 58 589 57 
594 326 401 373 
595 499 504 500 
596 281 289 285 
597 267 272 270 
598 307 326 320 
599 403 575 574 
600 312 411 318 
601 466 478 468 
602 355 608 358 
603 285 600 286 
604 438 604 518 
605 291 303 292 
606 384 392 385 
607 291 307 303 
608 487 488 486 
609 403 574 573 
610 362 388 363 
611 438 518 439 
612 246 248 247 
613 278 584 284 
614 262 263 258 
615 353 356 355 
616 451 586 585 
617 264 269 263 
618 312 318 313 
619 280 408 329 
620 281 282 276 
621 61 225 60 
622 69 616 203 
623 394 605 395 
624 350 618 380 
625 269 601 421 
626 393 499 399 
627 365 384 366 
628 67 620 619 
629 395 438 397 
630 448 485 394 
631 356 609 608 
632 323 410 404 
633 390 615 487 
634 66 619 207 
635 285 286 282 
636 457 600 285 
637 583 658 657 
638 286 291 288 
639 256 592 254 
640 271 274 273 
641 489 513 488 
642 318 614 319 
643 279 649 353 
644 402 441 401 
645 305 325 317 
646 319 614 365 
647 600 621 307 
648 303 597 304 
649 304 312 310 
650 319 365 322 
651 291 292 288 
652 485 605 394 
653 380 448 394 
654 405 406 349 
655 390 487 486 
656 63 211 62 
657 320 597 303 
658 514 519 513 
659 487 489 488 
660 454 626 521 
661 362 615 390 
662 356 608 355 
663 558 559 557 
664 299 630 629 
665 403 573 373 
666 451 585 412 
667 518 529 439 
668 303 304 292 
669 489 514 513 
670 438 439 397 
671 66 207 65 
672 380 394 381 
673 203 620 68 
674 514 549 519 
675 220 616 70 
676 389 465 464 
677 392 393 385 
678 318 319 313 
679 350 380 379 
680 479 480 431 
681 402 633 550 
682 271 273 268 
683 250 251 249 
684 312 313 310 
685 69 203 68 
686 274 279 273 
687 71 220 70 
688 67 619 66 
689 415 638 418 
690 73 198 72 
691 394 395 381 
692 418 598 496 
693 286 288 287 
694 75 219 74 
695 335 341 334 
696 411 602 420 
697 77 194 76 
698 359 362 361 
699 454 521 520 
700 326 402 401 
701 383 415 414 
702 621 633 402 
703 430 431 429 
704 70 616 69 
705 588 641 272 
706 384 385 366 
707 68 620 67 
708 365 366 322 
709 415 418 416 
710 355 358 357 
711 629 630 458 
712 402 550 441 
713 598 599 496 
714 562 584 278 
715 499 500 399 
716 383 629 415 
717 458 638 629 
718 418 496 455 
719 415 416 414 
720 473 606 388 
721 286 287 282 
722 275 622 281 
723 459 638 458 
724 289 570 569 
725 548 689 686 
726 353 355 354 
727 418 455 416 
728 337 564 335 
729 642 669 404 
730 326 621 402 
731 304 310 309 
732 248 249 247 
733 288 299 287 
734 489 515 514 
735 416 417 414 
736 307 621 326 
737 586 650 585 
738 395 397 396 
739 319 322 321 
740 615 627 487 
741 380 381 379 
742 383 414 413 
743 304 309 292 
744 279 353 352 
745 47 197 48 
746 45 222 46 
747 388 606 389 
748 44 625 45 
749 288 630 299 
750 43 200 44 
751 297 596 296 
752 299 383 382 
753 388 389 363 
754 362 363 361 
755 640 645 266 
756 281 622 289 
757 310 315 309 
758 40 206 41 
759 370 454 452 
760 626 639 521 
761 319 321 313 
762 585 650 400 
763 417 628 414 
764 478 546 468 
765 289 622 570 
766 37 209 38 
767 315 458 309 
768 454 520 495 
769 299 629 383 
770 315 459 458 
771 264 645 269 
772 299 382 287 
773 414 628 413 
774 393 399 398 
775 45 625 222 
776 349 618 350 
777 383 413 382 
778 465 466 464 
779 322 370 321 
780 200 625 44 
781 366 626 322 
782 370 626 454 
783 269 421 377 
784 439 440 397 
785 452 453 419 
786 349 350 342 
787 336 652 344 
788 274 644 279 
789 48 624 49 
790 34 215 35 
791 279 352 273 
792 624 737 223 
793 454 495 452 
794 489 627 515 
795 370 419 321 
796 395 396 381 
797 341 349 342 
798 487 627 489 
799 370 452 419 
800 629 638 415 
801 292 630 288 
802 358 359 357 
803 331 652 333 
804 350 379 378 
805 428 429 427 
806 413 461 382 
807 443 534 498 
808 309 630 292 
809 413 617 461 
810 282 631 276 
811 310 634 315 
812 355 357 354 
813 339 666 343 
814 413 628 617 
815 322 626 370 
816 296 301 300 
817 278 284 283 
818 631 644 276 
819 269 377 263 
820 287 631 282 
821 460 645 640 
822 197 624 48 
823 458 630 309 
824 258 637 256 
825 393 398 385 
826 268 640 266 
827 313 634 310 
828 332 422 330 
829 353 354 352 
830 284 294 293 
831 244 246 245 
832 321 634 313 
833 382 631 287 
834 301 305 302 
835 49 223 50 
836 392 692 506 
837 259 278 277 
838 500 517 399 
839 461 644 631 
840 32 229 33 
841 481 646 565 
842 449 572 386 
843 419 634 321 
844 459 648 598 
845 381 632 379 
846 480 483 482 
847 354 460 352 
848 634 643 315 
849 347 348 346 
850 315 643 459 
851 385 639 366 
852 461 631 382 
853 273 640 268 
854 359 360 357 
855 272 641 351 
856 359 361 360 
857 366 639 626 
858 50 635 51 
859 263 637 258 
860 379 632 456 
861 379 456 378 
862 410 642 404 
863 350 378 342 
864 409 596 297 
865 352 640 273 
866 445 471 470 
867 396 632 381 
868 419 643 634 
869 49 624 223 
870 79 221 78 
871 426 427 424 
872 398 639 385 
873 463 673 671 
874 276 644 274 
875 242 244 243 
876 541 542 540 
877 483 491 484 
878 51 195 52 
879 361 462 360 
880 453 643 419 
881 460 640 352 
882 425 445 444 
883 377 637 263 
884 266 645 264 
885 643 648 459 
886 389 464 463 
887 389 463 363 
888 22 199 21 
889 407 503 406 
890 246 247 245 
891 466 468 467 
892 223 635 50 
893 386 572 391 
894 430 479 431 
895 644 649 279 
896 491 493 492 
897 460 653 601 
898 259 277 253 
899 80 647 79 
900 453 648 643 
901 296 300 294 
902 240 242 241 
903 406 618 349 
904 466 467 464 
905 386 391 368 
906 212 558 557 
907 428 430 429 
908 325 368 317 
909 342 655 334 
910 244 245 243 
911 399 654 398 
912 617 649 461 
913 51 635 195 
914 448 762 636 
915 493 507 494 
916 546 548 468 
917 72 659 71 
918 445 651 471 
919 334 655 332 
920 278 283 277 
921 81 205 80 
922 461 649 644 
923 249 290 247 
924 354 653 460 
925 467 679 677 
926 426 428 427 
927 284 293 283 
928 360 653 357 
929 301 302 300 
930 238 240 239 
931 242 243 241 
932 336 344 338 
933 539 541 540 
934 305 317 302 
935 445 470 444 
936 79 647 221 
937 360 661 653 
938 582 657 298 
939 21 474 20 
940 341 342 334 
941 233 234 232 
942 245 311 243 
943 378 655 342 
944 332 655 422 
945 20 208 19 
946 517 654 399 
947 357 653 354 
948 240 241 239 
949 300 656 294 
950 428 501 430 
951 293 298 283 
952 293 423 298 
953 253 658 251 
954 423 424 298 
955 425 426 424 
956 565 674 437 
957 423 425 424 
958 294 656 293 
959 302 314 300 
960 425 444 426 
961 375 666 345 
962 653 661 601 
963 205 647 80 
964 277 658 253 
965 241 316 239 
966 497 662 442 
967 505 716 215 
968 84 216 83 
969 434 526 525 
970 236 238 237 
971 343 564 337 
972 71 659 220 
973 601 661 421 
974 368 369 317 
975 283 657 277 
976 238 239 237 
977 682 688 311 
978 378 660 655 
979 456 660 378 
980 442 662 446 
981 314 656 300 
982 425 664 445 
983 657 658 277 
984 106 231 107 
985 298 657 283 
986 293 656 423 
987 408 675 551 
988 526 527 525 
989 655 660 422 
990 462 661 360 
991 447 666 375 
992 502 512 472 
993 223 737 636 
994 436 523 502 
995 314 664 656 
996 656 664 423 
997 340 668 347 
998 237 367 235 
999 91 681 204 
1000 596 679 308 
1001 537 693 316 
1002 369 676 667 
1003 236 237 235 
1004 371 372 348 
1005 675 678 551 
1006 324 673 409 
1007 434 525 524 
1008 539 544 541 
1009 436 665 523 
1010 462 671 603 
1011 434 524 433 
1012 396 672 623 
1013 397 672 396 
1014 423 664 425 
1015 670 674 290 
1016 436 472 435 
1017 671 673 603 
1018 250 678 252 
1019 280 675 408 
1020 361 671 462 
1021 436 502 472 
1022 255 675 257 
1023 463 671 363 
1024 249 670 290 
1025 420 685 451 
1026 345 666 339 
1027 607 684 465 
1028 347 371 348 
1029 314 667 651 
1030 432 434 433 
1031 302 667 314 
1032 658 670 251 
1033 482 688 481 
1034 369 667 317 
1035 677 679 409 
1036 408 700 571 
1037 574 685 573 
1038 537 691 492 
1039 648 683 599 
1040 347 668 432 
1041 686 689 308 
1042 466 684 478 
1043 446 447 375 
1044 305 689 325 
1045 432 433 371 
1046 344 668 338 
1047 484 691 563 
1048 195 704 544 
1049 347 432 371 
1050 494 694 537 
1051 467 677 464 
1052 667 676 651 
1053 583 670 658 
1054 421 669 642 
1055 338 668 340 
1056 646 682 290 
1057 290 682 247 
1058 317 667 302 
1059 372 436 435 
1060 516 747 194 
1061 563 690 311 
1062 245 682 311 
1063 661 669 421 
1064 251 670 249 
1065 391 680 368 
1066 687 695 526 
1067 384 692 392 
1068 650 692 400 
1069 233 236 235 
1070 371 665 372 
1071 646 688 682 
1072 583 674 670 
1073 372 665 436 
1074 548 686 468 
1075 433 665 371 
1076 363 671 361 
1077 462 669 661 
1078 538 725 224 
1079 540 720 210 
1080 440 672 397 
1081 535 696 524 
1082 311 690 243 
1083 437 674 583 
1084 434 687 526 
1085 603 673 324 
1086 59 698 227 
1087 257 675 280 
1088 225 698 60 
1089 241 690 316 
1090 571 695 652 
1091 464 677 463 
1092 673 677 409 
1093 651 676 471 
1094 252 678 255 
1095 316 693 239 
1096 573 685 420 
1097 368 680 369 
1098 409 679 596 
1099 237 693 367 
1100 247 682 245 
1101 90 681 91 
1102 233 235 234 
1103 344 695 687 
1104 453 683 648 
1105 468 686 467 
1106 465 684 466 
1107 524 696 433 
1108 479 743 567 
1109 679 686 308 
1110 39 701 40 
1111 201 715 561 
1112 463 677 673 
1113 308 689 305 
1114 344 687 668 
1115 481 688 646 
1116 61 703 225 
1117 211 703 62 
1118 243 690 241 
1119 432 687 434 
1120 492 691 484 
1121 400 692 384 
1122 476 702 56 
1123 636 737 448 
1124 467 686 679 
1125 239 693 237 
1126 636 762 503 
1127 665 696 523 
1128 508 694 494 
1129 668 687 432 
1130 533 699 532 
1131 652 695 344 
1132 571 700 695 
1133 60 698 59 
1134 469 744 490 
1135 572 714 391 
1136 529 723 441 
1137 433 696 665 
1138 506 716 505 
1139 211 748 520 
1140 28 708 4 
1141 575 732 574 
1142 82 707 81 
1143 553 714 555 
1144 17 214 2 
1145 39 729 701 
1146 475 768 1 
1147 611 705 549 
1148 526 700 527 
1149 77 712 194 
1150 495 713 452 
1151 221 712 78 
1152 430 709 479 
1153 698 718 227 
1154 444 710 426 
1155 428 710 501 
1156 215 716 35 
1157 561 742 559 
1158 40 701 206 
1159 56 702 55 
1160 695 700 526 
1161 4 202 23 
1162 446 720 447 
1163 216 733 555 
1164 23 697 24 
1165 87 717 88 
1166 222 753 518 
1167 544 704 541 
1168 24 224 25 
1169 490 722 449 
1170 197 721 604 
1171 47 721 197 
1172 222 721 46 
1173 542 760 447 
1174 29 702 30 
1175 476 749 702 
1176 62 703 61 
1177 343 760 547 
1178 453 713 683 
1179 105 750 7 
1180 7 750 86 
1181 549 705 519 
1182 533 754 699 
1183 519 705 659 
1184 517 718 698 
1185 566 711 567 
1186 407 704 503 
1187 701 729 586 
1188 490 734 722 
1189 8 719 226 
1190 554 750 230 
1191 516 728 473 
1192 606 728 607 
1193 207 730 65 
1194 209 729 38 
1195 451 766 586 
1196 206 732 41 
1197 490 744 707 
1198 611 724 705 
1199 213 739 89 
1200 204 711 566 
1201 576 723 200 
1202 200 723 625 
1203 83 734 82 
1204 647 763 478 
1205 37 736 209 
1206 620 757 599 
1207 659 705 220 
1208 580 756 218 
1209 196 752 579 
1210 75 747 219 
1211 194 747 76 
1212 63 748 211 
1213 34 746 215 
1214 604 755 197 
1215 229 746 33 
1216 605 755 604 
1217 567 743 217 
1218 618 762 448 
1219 486 770 516 
1220 81 707 205 
1221 31 771 32 
1222 55 702 29 
1223 471 715 470 
1224 624 755 485 
1225 450 725 538 
1226 704 735 541 
1227 227 718 591 
1228 706 751 475 
1229 506 736 716 
1230 90 739 681 
1231 503 762 406 
1232 714 761 391 
1233 586 766 701 
1234 556 714 553 
1235 210 726 5 
1236 447 760 666 
1237 501 709 430 
1238 528 725 450 
1239 202 697 23 
1240 78 712 77 
1241 108 719 8 
1242 426 710 428 
1243 483 711 491 
1244 452 713 453 
1245 554 733 85 
1246 24 697 224 
1247 578 715 201 
1248 407 735 704 
1249 35 716 36 
1250 680 742 369 
1251 705 724 220 
1252 725 769 224 
1253 500 718 517 
1254 228 708 28 
1255 455 724 611 
1256 511 745 533 
1257 4 708 202 
1258 2 740 106 
1259 84 733 216 
1260 718 731 591 
1261 46 721 47 
1262 663 720 446 
1263 449 722 572 
1264 441 723 576 
1265 3 769 477 
1266 448 737 485 
1267 477 725 528 
1268 590 749 476 
1269 25 769 3 
1270 500 731 718 
1271 722 734 216 
1272 204 758 711 
1273 455 738 724 
1274 518 753 529 
1275 650 764 692 
1276 220 724 616 
1277 715 756 470 
1278 209 764 650 
1279 716 736 36 
1280 226 717 87 
1281 85 733 84 
1282 556 761 714 
1283 710 752 501 
1284 27 727 228 
1285 578 756 715 
1286 5 726 26 
1287 197 755 624 
1288 529 753 723 
1289 711 758 491 
1290 702 749 30 
1291 509 745 511 
1292 724 738 616 
1293 473 728 606 
1294 26 727 27 
1295 38 729 39 
1296 65 730 64 
1297 504 731 500 
1298 496 738 455 
1299 555 733 554 
1300 41 732 42 
1301 736 764 209 
1302 547 735 407 
1303 216 734 83 
1304 17 768 214 
1305 106 740 231 
1306 36 736 37 
1307 730 748 64 
1308 541 735 542 
1309 496 757 738 
1310 214 751 699 
1311 616 738 203 
1312 546 744 469 
1313 89 739 90 
1314 217 743 577 
1315 512 741 472 
1316 391 761 680 
1317 681 758 204 
1318 709 743 479 
1319 205 763 647 
1320 580 752 710 
1321 738 757 203 
1322 230 750 105 
1323 33 746 34 
1324 369 742 676 
1325 599 757 496 
1326 744 763 205 
1327 76 747 75 
1328 680 761 557 
1329 64 748 63 
1330 30 749 31 
1331 206 766 685 
1332 493 758 681 
1333 666 760 343 
1334 579 752 580 
1335 214 740 2 
1336 625 753 222 
1337 218 756 578 
1338 485 755 605 
1339 723 753 625 
1340 662 765 228 
1341 707 744 205 
1342 203 757 620 
1343 557 761 556 
1344 491 758 493 
1345 406 762 618 
1346 478 763 546 
1347 685 766 451 
1348 497 765 662 
1349 701 766 206 
1350 488 770 486 
1351 214 768 751 
1352 32 771 229 
1353 546 763 744 
1354 107 767 108 
1355 231 767 107 
1356 663 727 726 
1357 726 727 26 
1358 717 745 509 
1359 477 769 725 
1360 18 759 475 
1361 692 764 506 
1362 577 743 709 
1363 1 768 17 
1364 475 759 706 
1365 226 745 717 
1366 224 769 25 
1367 228 765 708 
1368 754 767 231 
1369 506 764 736 
1370 108 767 719 
1371 719 767 754 
1372 751 768 475 
2 2 2 227
1373 773 819 796 
1374 795 853 775 
1375 775 826 795 
1376 826 834 797 
1377 774 824 822 
1378 822 823 774 
1379 785 797 796 
1380 772 795 785 
1381 796 797 773 
1382 1 17 111 
1383 772 785 107 
1384 801 853 795 
1385 785 796 106 
1386 797 834 798 
1387 17 819 111 
1388 110 819 773 
1389 798 825 773 
1390 140 798 139 
1391 2 819 17 
1392 786 800 772 
1393 816 828 790 
1394 790 833 816 
1395 140 825 798 
1396 797 798 773 
1397 786 822 800 
1398 8 851 108 
1399 774 818 12 
1400 9 825 140 
1401 12 818 132 
1402 108 851 786 
1403 87 783 8 
1404 812 841 831 
1405 809 839 832 
1406 829 842 128 
1407 830 843 123 
1408 111 819 110 
1409 109 825 9 
1410 775 834 826 
1411 772 800 795 
1412 792 799 88 
1413 808 842 829 
1414 815 843 830 
1415 831 841 781 
1416 832 839 779 
1417 106 796 2 
1418 133 774 12 
1419 135 784 134 
1420 138 775 137 
1421 773 825 109 
1422 110 773 109 
1423 820 848 787 
1424 787 848 821 
1425 102 802 788 
1426 100 812 805 
1427 788 812 101 
1428 781 804 118 
1429 94 813 789 
1430 89 811 792 
1431 92 809 807 
1432 91 807 791 
1433 779 803 126 
1434 118 804 117 
1435 103 802 102 
1436 777 802 103 
1437 101 812 100 
1438 776 810 131 
1439 99 780 98 
1440 131 810 130 
1441 91 791 90 
1442 92 807 91 
1443 127 779 126 
1444 94 789 93 
1445 102 788 101 
1446 104 777 103 
1447 132 776 131 
1448 130 810 778 
1449 805 806 780 
1450 807 808 791 
1451 95 813 94 
1452 122 790 121 
1453 119 781 118 
1454 89 792 88 
1455 90 811 89 
1456 93 809 92 
1457 98 816 97 
1458 100 805 99 
1459 125 794 124 
1460 117 793 116 
1461 789 809 93 
1462 99 805 780 
1463 96 782 95 
1464 782 813 95 
1465 96 814 782 
1466 814 815 782 
1467 97 816 814 
1468 780 816 98 
1469 117 804 793 
1470 130 778 129 
1471 126 803 125 
1472 113 787 112 
1473 97 814 96 
1474 791 811 90 
1475 793 817 116 
1476 116 817 115 
1477 125 803 794 
1478 88 799 87 
1479 800 801 795 
1480 108 772 107 
1481 107 785 106 
1482 795 826 785 
1483 115 820 114 
1484 105 821 104 
1485 785 826 797 
1486 132 818 776 
1487 87 799 783 
1488 108 786 772 
1489 817 820 115 
1490 104 821 777 
1491 798 834 139 
1492 800 852 801 
1493 784 852 800 
1494 129 829 128 
1495 809 832 807 
1496 780 828 816 
1497 812 831 805 
1498 816 833 814 
1499 124 830 123 
1500 119 844 781 
1501 790 847 121 
1502 815 846 782 
1503 808 845 791 
1504 127 842 779 
1505 122 843 790 
1506 114 850 11 
1507 7 849 105 
1508 11 850 113 
1509 112 849 7 
1510 796 819 2 
1511 823 851 783 
1512 786 823 822 
1513 774 854 818 
1514 783 854 823 
1515 827 835 776 
1516 800 822 784 
1517 823 854 774 
1518 133 824 774 
1519 784 824 134 
1520 801 852 136 
1521 136 853 801 
1522 799 835 827 
1523 134 824 133 
1524 822 824 784 
1525 792 835 799 
1526 139 834 138 
1527 835 837 810 
1528 818 827 776 
1529 137 853 136 
1530 136 852 135 
1531 829 845 808 
1532 830 846 815 
1533 779 842 832 
1534 790 843 833 
1535 781 844 831 
1536 828 847 790 
1537 783 851 8 
1538 792 837 835 
1539 799 827 783 
1540 138 834 775 
1541 806 828 780 
1542 794 830 124 
1543 778 829 129 
1544 807 832 808 
1545 805 831 806 
1546 814 833 815 
1547 776 835 810 
1548 844 847 806 
1549 837 845 778 
1550 840 846 794 
1551 789 840 839 
1552 839 840 803 
1553 789 839 809 
1554 781 841 804 
1555 836 838 793 
1556 810 837 778 
1557 802 836 788 
1558 811 837 792 
1559 804 836 793 
1560 803 840 794 
1561 836 841 788 
1562 788 841 812 
1563 793 838 817 
1564 777 838 802 
1565 779 839 803 
1566 813 840 789 
1567 802 838 836 
1568 804 841 836 
1569 811 845 837 
1570 813 846 840 
1571 120 847 844 
1572 128 842 127 
1573 120 844 119 
1574 123 843 122 
1575 791 845 811 
1576 121 847 120 
1577 782 846 813 
1578 820 850 114 
1579 105 849 821 
1580 838 848 817 
1581 777 848 838 
1582 787 849 112 
1583 113 850 787 
1584 135 852 784 
1585 775 853 137 
1586 817 848 820 
1587 821 848 777 
1588 787 850 820 
1589 821 849 787 
1590 786 851 823 
1591 827 854 783 
1592 794 846 830 
1593 806 847 828 
1594 778 845 829 
1595 832 842 808 
1596 831 844 806 
1597 833 843 815 
1598 818 854 827 
1599 109 9 10 
2 3 2 299
1600 891 892 880 
1601 880 943 891 
1602 947 948 865 
1603 919 933 928 
1604 918 923 878 
1605 878 923 142 
1606 899 948 947 
1607 929 931 151 
1608 871 891 29 
1609 3 141 25 
1610 894 931 929 
1611 928 933 878 
1612 871 892 891 
1613 935 961 920 
1614 141 923 25 
1615 54 893 859 
1616 16 179 178 
1617 944 945 914 
1618 25 923 24 
1619 877 945 944 
1620 890 961 935 
1621 893 894 859 
1622 894 932 931 
1623 29 891 6 
1624 885 963 27 
1625 893 932 894 
1626 142 923 141 
1627 27 963 26 
1628 903 954 869 
1629 144 928 13 
1630 13 928 143 
1631 869 956 903 
1632 5 893 54 
1633 4 961 28 
1634 882 925 921 
1635 952 953 917 
1636 920 933 919 
1637 917 953 868 
1638 28 890 882 
1639 908 955 870 
1640 870 957 908 
1641 951 952 867 
1642 921 925 857 
1643 867 952 917 
1644 145 872 14 
1645 882 885 27 
1646 889 896 895 
1647 888 908 907 
1648 889 895 174 
1649 155 897 874 
1650 886 898 168 
1651 153 900 873 
1652 883 899 164 
1653 161 901 877 
1654 169 902 886 
1655 157 904 875 
1656 888 907 172 
1657 165 905 883 
1658 159 906 876 
1659 26 879 5 
1660 28 882 27 
1661 887 903 902 
1662 950 951 913 
1663 875 897 156 
1664 173 895 888 
1665 876 904 158 
1666 163 899 881 
1667 171 907 887 
1668 167 898 884 
1669 887 902 170 
1670 874 900 154 
1671 881 901 162 
1672 877 906 160 
1673 884 905 166 
1674 143 878 142 
1675 171 887 170 
1676 155 874 154 
1677 153 873 152 
1678 173 888 172 
1679 169 886 168 
1680 167 884 166 
1681 159 876 158 
1682 161 877 160 
1683 163 881 162 
1684 175 889 174 
1685 165 883 164 
1686 157 875 156 
1687 177 880 176 
1688 6 891 181 
1689 174 895 173 
1690 156 897 155 
1691 158 904 157 
1692 172 907 171 
1693 154 900 153 
1694 170 902 169 
1695 168 898 167 
1696 166 905 165 
1697 162 901 161 
1698 164 899 163 
1699 160 906 159 
1700 913 951 867 
1701 920 961 855 
1702 28 961 890 
1703 43 910 42 
1704 51 909 50 
1705 36 868 35 
1706 32 870 31 
1707 30 871 29 
1708 52 860 51 
1709 38 867 37 
1710 54 859 53 
1711 42 865 41 
1712 48 862 47 
1713 40 866 39 
1714 44 864 43 
1715 34 869 33 
1716 49 912 48 
1717 50 861 49 
1718 46 863 45 
1719 39 913 38 
1720 53 915 52 
1721 47 911 46 
1722 41 916 40 
1723 45 914 44 
1724 37 917 36 
1725 879 893 5 
1726 872 919 14 
1727 42 910 865 
1728 36 917 868 
1729 50 909 861 
1730 860 909 51 
1731 38 913 867 
1732 861 912 49 
1733 864 910 43 
1734 859 915 53 
1735 48 912 862 
1736 862 911 47 
1737 40 916 866 
1738 866 913 39 
1739 46 911 863 
1740 44 914 864 
1741 52 915 860 
1742 865 916 41 
1743 863 914 45 
1744 867 917 37 
1745 149 856 148 
1746 147 857 146 
1747 15 858 150 
1748 892 959 880 
1749 949 950 866 
1750 24 918 23 
1751 871 958 896 
1752 870 955 896 
1753 23 855 4 
1754 14 919 144 
1755 866 950 913 
1756 889 959 892 
1757 177 922 880 
1758 948 949 916 
1759 872 920 919 
1760 896 958 870 
1761 23 918 855 
1762 890 925 882 
1763 916 949 866 
1764 894 934 859 
1765 869 954 908 
1766 178 922 177 
1767 882 921 885 
1768 865 948 916 
1769 931 932 858 
1770 151 931 15 
1771 922 943 880 
1772 908 957 869 
1773 152 929 151 
1774 180 922 179 
1775 899 947 881 
1776 868 953 903 
1777 888 955 908 
1778 881 946 901 
1779 887 954 903 
1780 908 954 907 
1781 896 955 895 
1782 903 953 902 
1783 892 962 889 
1784 903 956 868 
1785 175 959 889 
1786 880 959 176 
1787 24 923 918 
1788 881 947 946 
1789 896 962 871 
1790 179 922 178 
1791 891 943 181 
1792 914 945 864 
1793 145 924 872 
1794 34 956 869 
1795 868 956 35 
1796 32 957 870 
1797 869 957 33 
1798 30 958 871 
1799 870 958 31 
1800 926 927 856 
1801 877 944 906 
1802 146 924 145 
1803 906 942 876 
1804 929 934 894 
1805 857 924 146 
1806 927 964 879 
1807 150 926 149 
1808 906 944 942 
1809 876 941 904 
1810 149 926 856 
1811 858 926 150 
1812 904 940 875 
1813 925 935 924 
1814 856 930 148 
1815 147 930 857 
1816 924 935 872 
1817 876 942 941 
1818 873 929 152 
1819 143 928 878 
1820 148 930 147 
1821 878 933 918 
1822 875 939 897 
1823 904 941 940 
1824 897 938 874 
1825 15 931 858 
1826 875 940 939 
1827 874 937 900 
1828 857 930 921 
1829 900 936 873 
1830 897 939 938 
1831 857 925 924 
1832 856 960 930 
1833 918 933 855 
1834 879 932 893 
1835 874 938 937 
1836 180 943 922 
1837 855 933 920 
1838 900 937 936 
1839 930 960 921 
1840 879 963 927 
1841 919 928 144 
1842 873 936 934 
1843 871 962 892 
1844 859 934 915 
1845 934 936 915 
1846 915 936 860 
1847 927 963 885 
1848 860 937 909 
1849 936 937 860 
1850 889 962 896 
1851 909 938 861 
1852 937 938 909 
1853 901 945 877 
1854 872 935 920 
1855 883 949 948 
1856 861 939 912 
1857 938 939 861 
1858 883 948 899 
1859 886 953 952 
1860 905 949 883 
1861 912 940 862 
1862 181 943 180 
1863 939 940 912 
1864 879 964 932 
1865 886 952 898 
1866 905 950 949 
1867 862 941 911 
1868 884 951 950 
1869 902 953 886 
1870 940 941 862 
1871 898 952 951 
1872 911 942 863 
1873 884 950 905 
1874 941 942 911 
1875 898 951 884 
1876 863 944 914 
1877 942 944 863 
1878 907 954 887 
1879 895 955 888 
1880 885 960 927 
1881 864 946 910 
1882 910 947 865 
1883 946 947 910 
1884 35 956 34 
1885 33 957 32 
1886 26 963 879 
1887 31 958 30 
1888 176 959 175 
1889 873 934 929 
1890 890 935 925 
1891 855 961 4 
1892 926 964 927 
1893 927 960 856 
1894 921 960 885 
1895 858 964 926 
1896 945 946 864 
1897 901 946 945 
1898 932 964 858 
2 4 2 62
1899 109 10 182 
1900 188 13 143 
1901 143 984 188 
1902 182 985 109 
1903 974 983 981 
1904 966 982 980 
1905 981 983 969 
1906 3 975 141 
1907 111 976 1 
1908 980 982 972 
1909 141 975 967 
1910 968 976 111 
1911 970 971 185 
1912 186 972 970 
1913 184 971 969 
1914 184 969 183 
1915 187 972 186 
1916 186 970 185 
1917 966 980 975 
1918 185 971 184 
1919 976 983 974 
1920 189 975 3 
1921 188 977 187 
1922 1 976 193 
1923 183 978 182 
1924 193 974 192 
1925 190 966 189 
1926 192 965 191 
1927 191 973 190 
1928 188 984 977 
1929 141 967 142 
1930 978 985 182 
1931 110 968 111 
1932 966 975 189 
1933 192 974 965 
1934 193 976 974 
1935 965 973 191 
1936 190 973 966 
1937 969 978 183 
1938 187 977 972 
1939 972 982 970 
1940 971 981 969 
1941 970 979 971 
1942 142 984 143 
1943 109 985 110 
1944 967 984 142 
1945 110 985 968 
1946 965 979 973 
1947 977 984 967 
1948 967 980 977 
1949 965 981 979 
1950 975 980 967 
1951 974 981 965 
1952 978 983 968 
1953 979 982 973 
1954 968 985 978 
1955 973 982 966 
1956 969 983 978 
1957 968 983 976 
1958 977 980 972 
1959 979 981 971 
1960 970 982 979 
2 5 2 18
1961 21 986 22 
1962 18 987 19 
1963 189 986 190 
1964 192 987 193 
1965 190 986 21 
1966 19 987 192 
1967 22 986 189 
1968 193 987 18 
1969 20 989 21 
1970 19 988 20 
1971 192 988 19 
1972 21 989 190 
1973 191 988 192 
1974 190 989 191 
1975 191 989 988 
1976 988 989 20 
1977 18 1 193 
1978 189 3 22 
$EndElements
