$MeshFormat
2.2 0 8
$EndMeshFormat
$PhysicalNames
7
0 6 "separation-inf"
0 7 "separation-sup"
1 4 "pressure"
1 5 "fixed"
2 1 "body"
2 2 "cover"
2 3 "scar"
$EndPhysicalNames
$Nodes
740
1 0.7806999999999999 0.4 0
2 0.7150232168611965 0.4939250594053539 0
3 0.6355212229855233 0.4977695152257399 0
4 0.4727903172005901 0.4892411498328348 0
5 0.3657340441691846 0.4358648610726302 0
6 0 0 0
7 0.06527036446661391 -1.301042606982605e-16 0
8 0.4040362663251333 0.4037254805883031 0
9 0.4754071150127369 0.4393096730951061 0
10 0.6780832021878531 0.4499314767377288 0
11 0.7306999999999999 0.4 0
12 0.7306999999999998 0 0
13 0.7806999999999999 0 0
14 0.6754664043757063 0.4998629534754574 0
15 0.7786384079733663 0.4202006990879635 0
16 0.7725386351271509 0.4395684861724836 0
17 0.7626521863226345 0.4573047917450205 0
18 0.7493866980403595 0.4726783152825687 0
19 0.7332891307777685 0.4850551781142027 0
20 0.7075732198340815 0.4760060383118861 0
21 0.6925662060811437 0.4637022457717258 0
22 0.6735343930557969 0.4599096390665158 0
23 0.6549573196753071 0.4655208882383192 0
24 0.6412074922829212 0.479215267352823 0
25 0.6151798597624067 0.4967034695516268 0
26 0.5948384965392901 0.4956374238775136 0
27 0.5744971333161736 0.4945713782034005 0
28 0.5541557700930569 0.4935053325292874 0
29 0.5338144068699403 0.4924392868551742 0
30 0.5134730436468236 0.4913732411810611 0
31 0.4931316804237069 0.490307195506948 0
32 0.4524477974770149 0.4867734301902434 0
33 0.4326314298734859 0.4815562159967983 0
34 0.4137110386705602 0.4736868738599528 0
35 0.3960397269295293 0.4633122659015873 0
36 0.3799472866830139 0.4506260089338758 0
37 0.3511046824024172 0.4184302666297251 0
38 0.3364753206356498 0.4009956721868199 0
39 0.3218459588688825 0.3835610777439147 0
40 0.3072165971021151 0.3661264833010095 0
41 0.2925872353353478 0.3486918888581043 0
42 0.2779578735685805 0.3312572944151992 0
43 0.2633285118018131 0.313822699972294 0
44 0.2486991500350458 0.2963881055293889 0
45 0.2340697882682784 0.2789535110864836 0
46 0.219440426501511 0.2615189166435784 0
47 0.2048110647347436 0.2440843222006732 0
48 0.1901817029679762 0.2266497277577679 0
49 0.1755523412012088 0.2092151333148627 0
50 0.1609229794344414 0.1917805388719575 0
51 0.146293617667674 0.1743459444290522 0
52 0.1316642559009066 0.156911349986147 0
53 0.1170348941341392 0.1394767555432417 0
54 0.1024055323673718 0.1220421611003365 0
55 0.08777617060060444 0.1046075666574313 0
56 0.07314680883383701 0.08717297221452608 0
57 0.05851744706706957 0.06973837777162079 0
58 0.04388808530030225 0.05230378332871566 0
59 0.02925872353353487 0.03486918888581042 0
60 0.01462936176676743 0.01743459444290513 0
61 0.02175678815553795 0 0
62 0.04351357631107589 0 0
63 0.07999931672133226 0.01755328176470861 0
64 0.09472826897605052 0.03510656352941743 0
65 0.1094572212307687 0.05265984529412632 0
66 0.124186173485487 0.07021312705883515 0
67 0.1389151257402052 0.08776640882354403 0
68 0.1536440779949235 0.1053196905882529 0
69 0.1683730302496417 0.1228729723529617 0
70 0.1831019825043599 0.1404262541176706 0
71 0.1978309347590781 0.1579795358823794 0
72 0.2125598870137964 0.1755328176470882 0
73 0.2272888392685146 0.193086099411797 0
74 0.2420177915232327 0.2106393811765058 0
75 0.2567467437779509 0.2281926629412146 0
76 0.2714756960326691 0.2457459447059234 0
77 0.2862046482873873 0.2632992264706322 0
78 0.3009336005421055 0.280852508235341 0
79 0.3156625527968239 0.29840579000005 0
80 0.3303915050515422 0.3159590717647589 0
81 0.3451204573062605 0.3335123535294678 0
82 0.3598494095609788 0.3510656352941767 0
83 0.3745783618156969 0.3686189170588855 0
84 0.3893073140704152 0.3861721988235943 0
85 0.4187313157060478 0.4179784127077235 0
86 0.4360209293260504 0.4289401557798515 0
87 0.4551805158164786 0.4361513135110431 0
88 0.4979266802544164 0.440489873499842 0
89 0.520446245496096 0.4416700739045778 0
90 0.5429658107377755 0.4428502743093137 0
91 0.5654853759794551 0.4440304747140495 0
92 0.5880049412211348 0.4452106751187854 0
93 0.6105245064628143 0.4463908755235212 0
94 0.6330440717044939 0.4475710759282571 0
95 0.6555636369461734 0.4487512763329929 0
96 0.6980058528538748 0.4469095667961241 0
97 0.7151177287846878 0.4362687185506142 0
98 0.7266395605074449 0.4197371928192132 0
99 0.7306999999999999 0.3777777777777778 0
100 0.7306999999999999 0.3555555555555555 0
101 0.7306999999999999 0.3333333333333333 0
102 0.7306999999999999 0.3111111111111111 0
103 0.7306999999999999 0.2888888888888889 0
104 0.7306999999999999 0.2666666666666666 0
105 0.7306999999999999 0.2444444444444443 0
106 0.7306999999999999 0.222222222222222 0
107 0.7306999999999999 0.1999999999999998 0
108 0.7306999999999999 0.1777777777777776 0
109 0.7306999999999999 0.1555555555555554 0
110 0.7306999999999999 0.1333333333333332 0
111 0.7306999999999999 0.1111111111111111 0
112 0.7306999999999999 0.08888888888888891 0
113 0.7306999999999999 0.06666666666666676 0
114 0.7306999999999999 0.04444444444444462 0
115 0.7306999999999999 0.02222222222222242 0
116 0.7473666666666665 0 0
117 0.7640333333333332 0 0
118 0.7806999999999999 0.02222222222222225 0
119 0.7806999999999999 0.04444444444444449 0
120 0.7806999999999999 0.06666666666666672 0
121 0.7806999999999999 0.08888888888888896 0
122 0.7806999999999999 0.1111111111111112 0
123 0.7806999999999999 0.1333333333333334 0
124 0.7806999999999999 0.1555555555555557 0
125 0.7806999999999999 0.177777777777778 0
126 0.7806999999999999 0.2000000000000003 0
127 0.7806999999999999 0.2222222222222225 0
128 0.7806999999999999 0.2444444444444447 0
129 0.7806999999999999 0.2666666666666668 0
130 0.7806999999999999 0.2888888888888889 0
131 0.7806999999999999 0.3111111111111111 0
132 0.7806999999999999 0.3333333333333333 0
133 0.7806999999999999 0.3555555555555554 0
134 0.7806999999999999 0.3777777777777776 0
135 0.6955447351752585 0.4988920312137254 0
136 0.6554938136806147 0.4988162343505986 0
137 0.08821621396776522 0 0
138 0.1111620634689165 0 0
139 0.1341079129700678 0 0
140 0.1570537624712191 0 0
141 0.1799996119723704 0 0
142 0.2029454614735217 0 0
143 0.225891310974673 0 0
144 0.2488371604758243 0 0
145 0.2717830099769756 0 0
146 0.2947288594781268 0 0
147 0.317674708979278 0 0
148 0.3406205584804292 0 0
149 0.3635664079815804 0 0
150 0.3865122574827317 0 0
151 0.4094581069838829 0 0
152 0.432403956485034 0 0
153 0.4553498059861853 0 0
154 0.4782956554873365 0 0
155 0.5012415049884876 0 0
156 0.5241873544896389 0 0
157 0.5471332039907901 0 0
158 0.5700790534919413 0 0
159 0.5930249029930925 0 0
160 0.6159707524942437 0 0
161 0.638916601995395 0 0
162 0.6618624514965461 0 0
163 0.6848083009976974 0 0
164 0.7077541504988486 0 0
165 0.7548997343987959 0.01500890214539807 0
166 0.4840334906495334 0.4718812277698054 0
167 0.7360111753816044 0.4372119946771841 0
168 0.7441816770354668 0.413860182751228 0
169 0.4180113616065091 0.4382300302297777 0
170 0.3701529704959917 0.4132689725914174 0
171 0.7645223181777079 0.3847488633589414 0
172 0.4468981649599806 0.4673946067948596 0
173 0.5233299564417755 0.4758789795121132 0
174 0.6061581471924516 0.4796177642752742 0
175 0.5652358230401091 0.476686516613881 0
176 0.7614549910270125 0.2777777777777779 0
177 0.7493220374777695 0.3247036269287794 0
178 0.7499450089729873 0.1222222222222222 0
179 0.7499450089729873 0.07777777777777772 0
180 0.7614549910270125 0.2333333333333336 0
181 0.7614549910270124 0.1888888888888892 0
182 0.7261390504488326 0.4643099273462156 0
183 0.4025645196175718 0.4254153062092765 0
184 0.3442594414445011 0.379608976034194 0
185 0.3150007179109664 0.3447397871483837 0
186 0.2857419943774315 0.3098705982625732 0
187 0.255762960488981 0.2753373152606666 0
188 0.05673837601525067 0.01770399041596377 0
189 0.2257529527418013 0.2407169338893858 0
190 0.1958222405973345 0.2059782096916382 0
191 0.1664847937517352 0.1710017172249359 0
192 0.1390043031921536 0.1397702706372542 0
193 0.11138512236457 0.1033905062959065 0
194 0.08020718028307305 0.06512432895343589 0
195 0.7490450566008678 0.3660752344481027 0
196 0.7499450089729873 0.1666666666666664 0
197 0.7616799948443453 0.3447474690146674 0
198 0.7614549910270124 0.09999999999999992 0
199 0.7641453897058919 0.05945334658984264 0
200 0.7499450089729874 0.2555555555555554 0
201 0.7614549910270124 0.1444444444444445 0
202 0.7499450089729874 0.2111111111111109 0
203 0.366915227020104 0.3891616611442668 0
204 0.3377580471566168 0.3547252916873744 0
205 0.308322161128475 0.3196453795624972 0
206 0.2788593990988973 0.2845780341683757 0
207 0.2498092274249799 0.2493232798907777 0
208 0.4374666848018223 0.4495762870443651 0
209 0.22109515995032 0.2139885476081114 0
210 0.1916132156068291 0.1789888360360878 0
211 0.07311361851230347 0.03933934558206953 0
212 0.1624825069976021 0.1444891537801641 0
213 0.7492330415498812 0.2978730816800939 0
214 0.1261764549598972 0.1220251346278289 0
215 0.09679743998749146 0.08626500650032165 0
216 0.5073194590921076 0.4600504110669688 0
217 0.7570192455991041 0.4287021173653302 0
218 0.5856010153132596 0.4781930357427438 0
219 0.5446624293742564 0.4763788171693291 0
220 0.7630504659579871 0.03444698791455825 0
221 0.4634415851651218 0.4552715466271184 0
222 0.619884872231539 0.4639436767314931 0
223 0.7421531588699357 0.4546382976201187 0
224 0.7615999559644999 0.4060667919087254 0
225 0.03465129459292982 0.01667414027971759 0
226 0.7105923202758402 0.4560168254778123 0
227 0.4639222710904483 0.4741123922429724 0
228 0.5761379431062806 0.4610600802680006 0
229 0.3997768766632782 0.4444958891298666 0
230 0.4176811749861727 0.4561960720050069 0
231 0.5973981352596249 0.4623111459303109 0
232 0.3843493746543939 0.4312712606617719 0
233 0.555003757510063 0.4601019117321187 0
234 0.4856256660347832 0.4534005464117681 0
235 0.5322879431086791 0.4594884112824035 0
236 0.6385635153688881 0.4633540581805966 0
237 0.6254512321515041 0.4805051732554902 0
238 0.5042575260507894 0.4778982110073793 0
239 0.7456877881723082 0.3901810246806782 0
240 0.390000691378554 0.4138112448754201 0
241 0.7437423212490434 0.03046487056554842 0
242 0.767329511716376 0.3660340333554825 0
243 0.7440703938041442 0.3444444444444444 0
244 0.7440703938041442 0.2777777777777777 0
245 0.7673296061958556 0.1666666666666669 0
246 0.7673890779411783 0.07855733598463521 0
247 0.7673296061958557 0.1222222222222224 0
248 0.7440703938041442 0.2333333333333331 0
249 0.7633154027771317 0.3111111111111111 0
250 0.7440703938041443 0.09999999999999992 0
251 0.7673296061958557 0.2555555555555556 0
252 0.7461966822637923 0.05316516991573478 0
253 0.7440703938041441 0.1444444444444444 0
254 0.7440703938041442 0.1888888888888886 0
255 0.7673296061958557 0.2111111111111114 0
256 0.04981655547818942 0.03558025680591992 0
257 0.7246336480911334 0.4491087190651315 0
258 0.4304734338689364 0.4657455253504758 0
259 0.3830049982393199 0.4009416803157503 0
260 0.06124923491481482 0.0525910923432425 0
261 0.0928541448787692 0.05242112286845119 0
262 0.1041678470528006 0.06901709409543216 0
263 0.1204521391870651 0.08724302758148056 0
264 0.1352783411085274 0.1048705080405121 0
265 0.1492029751825205 0.1228735586316098 0
266 0.1489685642604136 0.1572463544767849 0
267 0.1804196416242759 0.1578533407799775 0
268 0.3536962171103522 0.4014006675592344 0
269 0.2099350958137633 0.1926914490595887 0
270 0.1781987575725478 0.1921394830608513 0
271 0.2394069635080116 0.2277862960857803 0
272 0.2074422361995815 0.2270214639420838 0
273 0.2688764028222927 0.2628831807647074 0
274 0.2983434137566068 0.297982103096369 0
275 0.2366881540116547 0.2619013981040492 0
276 0.3278079963109536 0.3330830630807654 0
277 0.3572701504853328 0.3681860607178972 0
278 0.2659365110087692 0.2967792855467474 0
279 0.2951873071909232 0.3316551262701773 0
280 0.3244405425581173 0.3665289202743395 0
281 0.741481744462901 0.01353919898663386 0
282 0.7686767067380232 0.01433562245643571 0
283 0.7671434870198492 0.3250013302998004 0
284 0.7670806870708051 0.2973523941137965 0
285 0.7538689379887136 0.4447185016373595 0
286 0.6675198113655343 0.4816191249354742 0
287 0.6853674616479202 0.4799986721291307 0
288 0.6541133372920843 0.4841543040950924 0
289 0.7114549910270124 0.2111111111111109 0
290 0.3670559369387989 0.3300778024429427 0
291 0.5127167114259195 0.02092577680866237 0
292 0.5326940225988446 0.4228134577209622 0
293 0.4211044849269722 0.0202617559681092 0
294 0.3049186819595796 0.2576986129292483 0
295 0.7114365529940392 0.3004646976650435 0
296 0.6045085006590685 0.01913221331806608 0
297 0.3518166644155772 0.01951819741558447 0
298 0.7110902749245985 0.144978311424679 0
299 0.2680085734481784 0.206135537802503 0
300 0.4082275919376427 0.3812118260092655 0
301 0.6005580655260161 0.4263799588156074 0
302 0.2832476267603314 0.01987592483860579 0
303 0.219755314988668 0.1543466160334694 0
304 0.713037274839764 0.3659309053649942 0
305 0.7115066051031492 0.07952765236882692 0
306 0.2144183862240974 0.01987168857941152 0
307 0.4673394991769576 0.4186033246075892 0
308 0.6493109277053237 0.01889221042264122 0
309 0.645359831314063 0.4287331704826204 0
310 0.3382286168522071 0.2944267840586903 0
311 0.4667215063955412 0.02091070373923093 0
312 0.5586061410391986 0.01930338114855001 0
313 0.1894800711001382 0.1190459932746729 0
314 0.7095461396676996 0.2557465301550349 0
315 0.1609699722500357 0.08311491638380936 0
316 0.6973465459208547 0.4267698234108777 0
317 0.1685224955729235 0.01986912009580089 0
318 0.4367119903238068 0.4089292962869898 0
319 0.6977523177754116 0.01808335603718381 0
320 0.1307055150406694 0.04931832161028737 0
321 0.7118106967436277 0.4050181207033056 0
322 0.1226872010234181 0.01915759723839916 0
323 0.6665842880666135 0.4305623985852677 0
324 0.6575869619847968 0.4101401288387641 0
325 0.6352759327974139 0.4086998961072603 0
326 0.6478566098017746 0.3898901522568845 0
327 0.6253179746495575 0.3885462246145632 0
328 0.6377982875913767 0.3698713013820388 0
329 0.6153947528846001 0.3684216212193415 0
330 0.6278524516670405 0.3497738461383643 0
331 0.6054599050498336 0.3483027971605844 0
332 0.6181197105362535 0.3295408542444354 0
333 0.5956308750696555 0.328205313353986 0
334 0.6082403099507583 0.309379681831662 0
335 0.5856805587885092 0.308267763176829 0
336 0.5981206899404753 0.2893392028000458 0
337 0.5756071853998256 0.288103429550875 0
338 0.5881276040524394 0.2691733911873332 0
339 0.5656453044093726 0.2677052312321149 0
340 0.5783315845648827 0.2487909840002509 0
341 0.5556893144413413 0.2474243580853061 0
342 0.5684387332430136 0.2284562857853125 0
343 0.5457015589963777 0.2271522948555365 0
344 0.5583115105559979 0.208299459064104 0
345 0.5356714210969438 0.2068867363466512 0
346 0.5230912262716038 0.2258162792978237 0
347 0.5130576274321459 0.2054283294233369 0
348 0.553050133080766 0.2870187309277702 0
349 0.5004651666567196 0.2243916102309156 0
350 0.4904197148421705 0.2039419067385829 0
351 0.5482464399209341 0.1880726442565206 0
352 0.4778095333725962 0.2228375556650415 0
353 0.4677492549470502 0.2024462891156636 0
354 0.4803784719062019 0.1835388602355651 0
355 0.4576777822364055 0.1820465095221731 0
356 0.5708737237532074 0.1894813408949771 0
357 0.5608198933083811 0.1692773113889842 0
358 0.4450396016519079 0.2009726781248156 0
359 0.4349520004611762 0.1805522643006086 0
360 0.4703234046652654 0.1631212639507844 0
361 0.5834150567658586 0.1707411725182678 0
362 0.5734036191484477 0.1504532962045474 0
363 0.4222981023192189 0.1995115087516389 0
364 0.4122026416096928 0.1790579020183981 0
365 0.5959907174578871 0.1519427638998868 0
366 0.6007759221057182 0.2502601567669868 0
367 0.4878728785070783 0.2434693490005856 0
368 0.6059781953391576 0.1722411699540124 0
369 0.5860007943544348 0.1316281991444634 0
370 0.5633756638490107 0.1301272766942776 0
371 0.6087227909508585 0.1330596666485788 0
372 0.3995359277652178 0.1980308577026263 0
373 0.3894319318476486 0.1775673042926542 0
374 0.4021204904761509 0.1585843454664798 0
375 0.3793264189025033 0.1570892004642057 0
376 0.3920289956817071 0.1380919614566359 0
377 0.3692154969606858 0.1365961651667408 0
378 0.4096411763559419 0.2184926480875098 0
379 0.3666502594175454 0.1760961274140229 0
380 0.3819152645881262 0.1175915021399253 0
381 0.3590967687554621 0.1160956546169847 0
382 0.4047306931960324 0.1190924437737502 0
383 0.5830421712823324 0.347135137583127 0
384 0.3463951014085251 0.1351096184847885 0
385 0.3362683565124323 0.1145976247553274 0
386 0.6211256321514811 0.2902633845526302 0
387 0.3235583498122483 0.1336285951185571 0
388 0.3138774282834849 0.1135362234421138 0
389 0.5760106042220347 0.1112537808959107 0
390 0.5533906361566755 0.1097983578241413 0
391 0.3868634816284718 0.2170138385840102 0
392 0.3969793242143971 0.2374790712115725 0
393 0.3946200792299731 0.09857616729391783 0
394 0.4174540962289113 0.1000764519098991 0
395 0.3007865953838529 0.1322111379869315 0
396 0.2914928030855731 0.113671801826089 0
397 0.3264138768831167 0.09529106189103781 0
398 0.3108608903344715 0.1526840312318099 0
399 0.6409657179924295 0.3304812852949587 0
400 0.5407495208303295 0.1286390613405723 0
401 0.5309515185470471 0.1081489685800194 0
402 0.4197518901875753 0.2389346205439444 0
403 0.4070950659325775 0.2579333594281439 0
404 0.4298628316015027 0.2593946830044436 0
405 0.4172087629791099 0.2783781197193057 0
406 0.4399586908367824 0.2798357782233638 0
407 0.427315567067015 0.2988056654138697 0
408 0.4500383649828996 0.3002978536785254 0
409 0.5660440132743285 0.0909113029984352 0
410 0.5886835744409546 0.0923842782352654 0
411 0.4374499540576048 0.3192401935337564 0
412 0.4601518675761456 0.3206988779759431 0
413 0.472723233454618 0.3017935800992638 0
414 0.4827594214052989 0.3221420649061333 0
415 0.4702474506946154 0.3409859846871787 0
416 0.4927502178145877 0.3423810352145028 0
417 0.3741880783323841 0.236006288688536 0
418 0.2880105934396348 0.1511979315889868 0
419 0.4802798038082734 0.3611612493654429 0
420 0.5027002225767119 0.3625977627566727 0
421 0.5152746990626008 0.3438390302288428 0
422 0.5251934694509509 0.3640881187174809 0
423 0.4073331622986848 0.07955230900559562 0
424 0.4301685773408208 0.08105639604268688 0
425 0.440285780775671 0.1015754089325231 0
426 0.4529970333752855 0.08256862564923301 0
427 0.4630682820540368 0.1031178495773113 0
428 0.4758034416636161 0.08408816152583032 0
429 0.3844937655834524 0.07805082707904987 0
430 0.4953276279895311 0.3032747928728256 0
431 0.4930116350053015 0.1646284547514831 0
432 0.3944398354511636 0.2769223160735241 0
433 0.5785957793406746 0.0728088399681926 0
434 0.6012843269198573 0.07448366738523093 0
435 0.5560790088303229 0.07057111500806335 0
436 0.660655006250606 0.3707858132235233 0
437 0.2981405986570933 0.1717215399239134 0
438 0.4578222822283451 0.3597904335736349 0
439 0.4426400825471195 0.06168747281192655 0
440 0.4146836507841868 0.3177680078167942 0
441 0.6029344500402563 0.3875135449372544 0
442 0.490200943473579 0.3812341313445523 0
443 0.6113734720321369 0.0940464785687623 0
444 0.6239764554214777 0.07576731000122666 0
445 0.6340268062144493 0.09553811306377891 0
446 0.6465942492023048 0.07728175709990603 0
447 0.6565864846866474 0.09703844672286388 0
448 0.6440384767874731 0.1156904812473626 0
449 0.6665508928287188 0.1171707466205526 0
450 0.6540180942590437 0.1358827034285685 0
451 0.3209851651954237 0.1732077399897764 0
452 0.308275991745333 0.1922475893758226 0
453 0.3311432885998323 0.1936809701372925 0
454 0.4829899910089421 0.1442042306435484 0
455 0.4603133097486252 0.1426788915817679 0
456 0.5377950289331805 0.3453323366542389 0
457 0.5477469531948824 0.3655908462863035 0
458 0.5278442669169141 0.3250677574056266 0
459 0.5382233300018745 0.1677707606811898 0
460 0.3184482652354355 0.2127067841727983 0
461 0.3972106879715678 0.0590133778610038 0
462 0.4248375497822002 0.3382058518691948 0
463 0.4857304450842514 0.104764306975791 0
464 0.4985059389964862 0.08572498227437086 0
465 0.4884971858270288 0.06510886971582119 0
466 0.5111664517831145 0.06810384669968134 0
467 0.3743406685353823 0.05776786075130957 0
468 0.6689516755240749 0.0783955849833799 0
469 0.2761543899193811 0.1698041689748377 0
470 0.2661868438977265 0.1502263520493031 0
471 0.5504848764372434 0.3263995017572396 0
472 0.48532902026153 0.2829399689664329 0
473 0.5079221762454049 0.2844440945779353 0
474 0.6571345492228027 0.05561037367119309 0
475 0.6798756327296126 0.05997884615047894 0
476 0.465207596830354 0.2418322476872286 0
477 0.364078804357204 0.2155300206567822 0
478 0.3513803362456179 0.2345318676917341 0
479 0.3615067473894144 0.2550300392583489 0
480 0.3616338028484981 0.07656282094917971 0
481 0.3507359859099084 0.05752646397131422 0
482 0.5056357194453835 0.1458067686949961 0
483 0.5351112082638451 0.384268842241154 0
484 0.5577330417107347 0.3857956911788659 0
485 0.3864906699265714 0.03906222908089535 0
486 0.6757915347075457 0.1369272832054109 0
487 0.6638485233631914 0.1559737327112248 0
488 0.6882202959771544 0.1184993388113087 0
489 0.6414308530242153 0.1546151276266777 0
490 0.651460466094764 0.1747065029634853 0
491 0.6738578823307126 0.1761652022223591 0
492 0.6614286744013432 0.1948285698217908 0
493 0.6390501570326261 0.1933891543982465 0
494 0.6490021270979507 0.213502575237632 0
495 0.6266052008681763 0.2120671504992356 0
496 0.6363919908091132 0.2322613541435931 0
497 0.6589169195349032 0.2336221239166167 0
498 0.6463201360974216 0.252364994539292 0
499 0.6686614728054366 0.2537987740680362 0
500 0.6564139405901961 0.2723561604813707 0
501 0.6776657592459736 0.2732764164661207 0
502 0.6662219529898613 0.2922806943575851 0
503 0.6796105253454752 0.2360057782664648 0
504 0.4010386686923887 0.3385071300851844 0
505 0.6143784089064434 0.05464691832517926 0
506 0.2558090380149867 0.1693221853769135 0
507 0.5688151969532667 0.05108056633885993 0
508 0.5422648853880057 0.05312287845465014 0
509 0.2955685795897129 0.2112907107502225 0
510 0.6823692712570896 0.1968645354909898 0
511 0.6944781929649086 0.1810542480822926 0
512 0.67180240307754 0.04213665291834012 0
513 0.3393561161148414 0.2537568154896361 0
514 0.3929716185415691 0.3152956487485921 0
515 0.5040495439073587 0.04489589148096862 0
516 0.3057101532843972 0.2318213592427311 0
517 0.4782318418624896 0.04250212158711708 0
518 0.6799373223998121 0.4118123998489747 0
519 0.4152111166809679 0.3597829719288658 0
520 0.6336077476730164 0.2713158138844509 0
521 0.5703424635222241 0.3666056468781159 0
522 0.6141572739090557 0.2307537546670851 0
523 0.604116335569378 0.2106519571585616 0
524 0.6906061102746247 0.291364351016211 0
525 0.6761042547698231 0.3116106288664067 0
526 0.6538262629268641 0.3111157552656634 0
527 0.6635554301005193 0.3313020331355427 0
528 0.6894136496723164 0.3324364538897091 0
529 0.6739247060050221 0.3509892826471971 0
530 0.5404538615853169 0.3061802366052705 0
531 0.5914155105543139 0.2295466794222001 0
532 0.4979156052566437 0.2640345869422045 0
533 0.5205425149620833 0.2655825795250208 0
534 0.4752806308884919 0.2624593239733759 0
535 0.4364904106631602 0.3585559644236841 0
536 0.4679881432573541 0.3797763827451865 0
537 0.4784104138356938 0.3996453831352771 0
538 0.5001867567627413 0.4011407260268526 0
539 0.5210463976875235 0.08781921379918334 0
540 0.4471517244608099 0.3773087192101889 0
541 0.4478332525003452 0.3395795510105654 0
542 0.5804294903621651 0.3865655927242024 0
543 0.5679800658237273 0.4055088033526409 0
544 0.6312075520748529 0.3103174363914946 0
545 0.5125938617224608 0.3826954938085755 0
546 0.6786933367946035 0.09858756545791403 0
547 0.6997397206839515 0.09986381810193068 0
548 0.6229039912657106 0.4274264743030738 0
549 0.6272727382879745 0.01884204180160909 0
550 0.6365605051971154 0.03982579574666095 0
551 0.5105277448920552 0.2451709157635755 0
552 0.6214080376828272 0.1142461816080587 0
553 0.5631448102588302 0.3071662653687156 0
554 0.6894865334459076 0.1566114108231122 0
555 0.6186236460592822 0.1533822016245868 0
556 0.6705264684588244 0.2153641034657517 0
557 0.6129786782179257 0.4075076466126633 0
558 0.5815512973661466 0.01862770088418869 0
559 0.5923313177294189 0.03866357587979585 0
560 0.6507919332678324 0.3505339269702709 0
561 0.6818984737128693 0.3725899286045157 0
562 0.6704387249102332 0.3910324625380343 0
563 0.693061029485735 0.3934362620813906 0
564 0.5604494556317163 0.3464862889271568 0
565 0.3488888185300137 0.274623704209702 0
566 0.5224818424032525 0.4027968047661023 0
567 0.4525943582044319 0.2608270768067269 0
568 0.4956482057281922 0.1253908678876256 0
569 0.5305050589032695 0.2857017183055635 0
570 0.3519059279436753 0.3129082666864827 0
571 0.6106584023072779 0.2704878385374493 0
572 0.5356631726657209 0.01878682954120103 0
573 0.5275711295928263 0.03774260370557242 0
574 0.4503034546334888 0.1221672063972937 0
575 0.4275322918312498 0.120619853088814 0
576 0.4148070075811714 0.1396166907187325 0
577 0.4323983469670451 0.2199299628609979 0
578 0.3336904640552754 0.1541555520041636 0
579 0.145588108696198 0.01847171000404241 0
580 0.1534439597774906 0.0407652866103228 0
581 0.1793853657747472 0.03990849660555351 0
582 0.1685148681653326 0.05959768064026577 0
583 0.1916587870704535 0.05945038822550675 0
584 0.2028591801616849 0.03974464986067416 0
585 0.2144007802426434 0.05958568398276187 0
586 0.2035954893733247 0.0790613161696222 0
587 0.2259516904284041 0.07940156085724054 0
588 0.2373272400175088 0.05960603538305453 0
589 0.2487813703907352 0.07946768998986053 0
590 0.2373121143772299 0.09931521254242248 0
591 0.2602315395124956 0.05963361553373081 0
592 0.2487764481445791 0.03977273222919481 0
593 0.2709745938578805 0.07907891350448065 0
594 0.283036103812431 0.05957662735079738 0
595 0.2932468346111179 0.07802805823861347 0
596 0.3055004320731776 0.05926465048727203 0
597 0.2593738729525694 0.09791497249443998 0
598 0.2463705228126443 0.1211793099912268 0
599 0.225821331553058 0.1191756416320075 0
600 0.3243238732327804 0.2726693901461446 0
601 0.2149744326556348 0.09897190102503683 0
602 0.2373577029165624 0.0198725288247682 0
603 0.2602944862569333 0.01987848964310768 0
604 0.4902094606778555 0.02153908226932982 0
605 0.454736456068667 0.04106796802769003 0
606 0.4437638258421216 0.02066500013224037 0
607 0.2945398845230807 0.03969735441867994 0
608 0.3170237255950036 0.0394842531733689 0
609 0.3060588512774086 0.01984451997921288 0
610 0.328666297177503 0.01963334421178137 0
611 0.1913550835298909 0.01989899252357341 0
612 0.2074615238976922 0.134899071429204 0
613 0.3438385235622335 0.174634770607995 0
614 0.1749070919177546 0.1009866411736081 0
615 0.2258566229511794 0.03974221980997755 0
616 0.2788064252254707 0.1314673116457418 0
617 0.2716876815016419 0.03973912400235285 0
618 0.3716840536717881 0.2751752890142929 0
619 0.2854227465466428 0.1907629543057605 0
620 0.5986998789472078 0.1127697641835066 0
621 0.3565193773844615 0.1556135723569861 0
622 0.5030431458832871 0.1850360616628284 0
623 0.4248742224842832 0.1601096035000412 0
624 0.6233773070696288 0.2513006553141038 0
625 0.7115302365507052 0.3222462106275116 0
626 0.7114378182938713 0.2791378044714511 0
627 0.3717898296134198 0.09707908027733342 0
628 0.4199264212512532 0.06050589189096733 0
629 0.4092801594624458 0.04001037313665068 0
630 0.7115510183714578 0.344050300226971 0
631 0.3843155174986208 0.2564243939457364 0
632 0.3767683146761521 0.196548974023818 0
633 0.510434928252155 0.4213008254164264 0
634 0.6313736497939499 0.1344793936973055 0
635 0.4551212483111969 0.2213897322402179 0
636 0.404741244155042 0.2971752664724494 0
637 0.7118296064915391 0.2319205233924344 0
638 0.5331188233353914 0.2459839938247109 0
639 0.4476101421691188 0.1616326005091376 0
640 0.6437338480677119 0.2912748741555325 0
641 0.4654843402240344 0.06283720321960307 0
642 0.5178945881295537 0.304703292492229 0
643 0.5053145371368855 0.3235511551861524 0
644 0.4626813228283379 0.281404206592894 0
645 0.7105108554193553 0.1205697444277731 0
646 0.5256426923077289 0.1866014485072186 0
647 0.6290064439344335 0.173312513685513 0
648 0.3490049904560584 0.09577808553210554 0
649 0.7127809527070658 0.05505866000209803 0
650 0.4424893786836844 0.2403847205239266 0
651 0.5431320088953703 0.2663833754964622 0
652 0.5508195495356304 0.1489692836303313 0
653 0.5929338721902353 0.3674240567504377 0
654 0.3381680017605267 0.07687874601328304 0
655 0.6165598532164663 0.1920064192185901 0
656 0.3539696166469141 0.1950966290559677 0
657 0.382412633888801 0.2946736847719825 0
658 0.4550016669316422 0.3993948483002649 0
659 0.1465368916869711 0.065989693437563 0
660 0.4375734047413229 0.1411374742992978 0
661 0.5156382820424084 0.166224306254854 0
662 0.5935144585920616 0.1908463086481384 0
663 0.341278896668304 0.2141095726249001 0
664 0.3297420822304147 0.2326413192203574 0
665 0.4730089480429228 0.1237205588438897 0
666 0.5811117120446621 0.2095470051622156 0
667 0.5282229956599012 0.1474091713786668 0
668 0.2440597024981758 0.1479356897061403 0
669 0.5451954538715205 0.404255662397693 0
670 0.5182436031540261 0.1270156396125455 0
671 0.3807541722545552 0.3475727487430815 0
672 0.5083543515329211 0.1064773298549226 0
673 0.5554254648207378 0.4241464313376457 0
674 0.375198438173978 0.01942502458997697 0
675 0.5435456741601623 0.08931344103118466 0
676 0.578232059913104 0.4254199155312148 0
677 0.4320109069708775 0.04099969491759192 0
678 0.5730721245780479 0.327276711694509 0
679 0.5905188016471991 0.4064825769955972 0
680 0.5329499048132865 0.07081542951774711 0
681 0.398200094163778 0.01970071060486578 0
682 0.1009387192076828 0.01725009687371576 0
683 0.2805500935373232 0.2270830478052105 0
684 0.6890318145646842 0.2554268875552634 0
685 0.6933231056247942 0.04121868333801865 0
686 0.2488543810157479 0.1893963165010536 0
687 0.6896696518909796 0.08027920932464028 0
688 0.4882842322157835 0.4200816342968489 0
689 0.3628976168797898 0.03870881175193375 0
690 0.7132863441574201 0.03284317332156089 0
691 0.6734575511772403 0.02232711692597739 0
692 0.339020580647117 0.03893074849903416 0
693 0.7126832283783955 0.1900213173199435 0
694 0.7117820220202898 0.166898540565763 0
695 0.6931455256404698 0.2188782289990409 0
696 0.1820113342572555 0.07877036154101968 0
697 0.6947396192463103 0.3570833019972259 0
698 0.7129869323242599 0.3864443345295728 0
699 0.3607741811403131 0.2938595043110177 0
700 0.3266881799054001 0.05833242663923949 0
701 0.2340035570756221 0.1712858617998397 0
702 0.6357288335900287 0.06062643096883324 0
703 0.3948528709086111 0.3636442987748129 0
704 0.3155823620621363 0.07734070834119861 0
705 0.6954762256108638 0.3116872233214282 0
706 0.4216220474414875 0.3980413829761361 0
707 0.2897718546202713 0.2451296382307491 0
708 0.6150102941560042 0.03422210901426231 0
709 0.3032459590206449 0.09579171667651998 0
710 0.1954365592292394 0.09834478870858565 0
711 0.4500509203149872 0.4184037876971477 0
712 0.6950198988949123 0.1355172177384568 0
713 0.2816510648416189 0.09634138728044561 0
714 0.5910810059699322 0.05833671357945169 0
715 0.3727330417902046 0.3124967726480923 0
716 0.4275877626499305 0.377850348613141 0
717 0.2281487391536746 0.1366621671758954 0
718 0.2696575246444891 0.1155389114590566 0
719 0.2677925785748519 0.1867023975543554 0
720 0.1137291845722728 0.03469277096537338 0
721 0.5696878812454786 0.03208747761712538 0
722 0.2610162038157012 0.1332695149702938 0
723 0.2075017102824016 0.1150218132019342 0
724 0.716038562486336 0.0146297503161934 0
725 0.6832449088949527 0.434633019293591 0
726 0.6958982797879936 0.4105926110534386 0
727 0.6956575284093707 0.2709903979328162 0
728 0.5504347344807494 0.03535395613432657 0
729 0.6976247210676936 0.06516117986129794 0
730 0.7174074765523223 0.09999604233658471 0
731 0.3217435419893257 0.2492115974798192 0
732 0.7110004674561983 0.4210403133420805 0
733 0.4368236847155151 0.3922012271307059 0
734 0.6565218391718565 0.03585662707754778 0
735 0.6967452151383385 0.2406377943607786 0
736 0.6991446659217877 0.3750969465155398 0
737 0.1341072015800508 0.0320674350201855 0
738 0.69948260176501 0.2002437569057559 0
739 0.3841771662916162 0.3309196701830637 0
740 0.523599419649396 0.0552292591551512 0
$EndNodes
$Elements
1480
1 15 2 6 1 1
2 15 2 7 14 14
3 1 2 4 1 1 15
4 1 2 4 1 15 16
5 1 2 4 1 16 17
6 1 2 4 1 17 18
7 1 2 4 1 18 19
8 1 2 4 1 19 2
9 1 2 4 3 3 25
10 1 2 4 3 25 26
11 1 2 4 3 26 27
12 1 2 4 3 27 28
13 1 2 4 3 28 29
14 1 2 4 3 29 30
15 1 2 4 3 30 31
16 1 2 4 3 31 4
17 1 2 4 4 4 32
18 1 2 4 4 32 33
19 1 2 4 4 33 34
20 1 2 4 4 34 35
21 1 2 4 4 35 36
22 1 2 4 4 36 5
23 1 2 4 5 5 37
24 1 2 4 5 37 38
25 1 2 4 5 38 39
26 1 2 4 5 39 40
27 1 2 4 5 40 41
28 1 2 4 5 41 42
29 1 2 4 5 42 43
30 1 2 4 5 43 44
31 1 2 4 5 44 45
32 1 2 4 5 45 46
33 1 2 4 5 46 47
34 1 2 4 5 47 48
35 1 2 4 5 48 49
36 1 2 4 5 49 50
37 1 2 4 5 50 51
38 1 2 4 5 51 52
39 1 2 4 5 52 53
40 1 2 4 5 53 54
41 1 2 4 5 54 55
42 1 2 4 5 55 56
43 1 2 4 5 56 57
44 1 2 4 5 57 58
45 1 2 4 5 58 59
46 1 2 4 5 59 60
47 1 2 4 5 60 6
48 1 2 5 6 6 61
49 1 2 5 6 61 62
50 1 2 5 6 62 7
51 1 2 5 12 12 116
52 1 2 5 12 116 117
53 1 2 5 12 117 13
54 1 2 4 13 13 118
55 1 2 4 13 118 119
56 1 2 4 13 119 120
57 1 2 4 13 120 121
58 1 2 4 13 121 122
59 1 2 4 13 122 123
60 1 2 4 13 123 124
61 1 2 4 13 124 125
62 1 2 4 13 125 126
63 1 2 4 13 126 127
64 1 2 4 13 127 128
65 1 2 4 13 128 129
66 1 2 4 13 129 130
67 1 2 4 13 130 131
68 1 2 4 13 131 132
69 1 2 4 13 132 133
70 1 2 4 13 133 134
71 1 2 4 13 134 1
72 1 2 4 14 2 135
73 1 2 4 14 135 14
74 1 2 4 15 14 136
75 1 2 4 15 136 3
76 1 2 5 16 7 137
77 1 2 5 16 137 138
78 1 2 5 16 138 139
79 1 2 5 16 139 140
80 1 2 5 16 140 141
81 1 2 5 16 141 142
82 1 2 5 16 142 143
83 1 2 5 16 143 144
84 1 2 5 16 144 145
85 1 2 5 16 145 146
86 1 2 5 16 146 147
87 1 2 5 16 147 148
88 1 2 5 16 148 149
89 1 2 5 16 149 150
90 1 2 5 16 150 151
91 1 2 5 16 151 152
92 1 2 5 16 152 153
93 1 2 5 16 153 154
94 1 2 5 16 154 155
95 1 2 5 16 155 156
96 1 2 5 16 156 157
97 1 2 5 16 157 158
98 1 2 5 16 158 159
99 1 2 5 16 159 160
100 1 2 5 16 160 161
101 1 2 5 16 161 162
102 1 2 5 16 162 163
103 1 2 5 16 163 164
104 1 2 5 16 164 12
105 2 2 2 1 20 182 19
106 2 2 2 1 87 221 208
107 2 2 2 1 19 2 20
108 2 2 2 1 217 224 15
109 2 2 2 1 208 221 172
110 2 2 2 1 168 239 224
111 2 2 2 1 166 227 221
112 2 2 2 1 221 234 166
113 2 2 2 1 16 217 15
114 2 2 2 1 98 168 167
115 2 2 2 1 168 217 167
116 2 2 2 1 224 239 171
117 2 2 2 1 166 234 216
118 2 2 2 1 216 238 166
119 2 2 2 1 97 226 96
120 2 2 2 1 89 235 216
121 2 2 2 1 19 182 18
122 2 2 2 1 220 252 241
123 2 2 2 1 216 235 173
124 2 2 2 1 199 252 220
125 2 2 2 1 165 282 220
126 2 2 2 1 188 225 62
127 2 2 2 1 168 224 217
128 2 2 2 1 60 6 61
129 2 2 2 1 194 260 211
130 2 2 2 1 211 261 194
131 2 2 2 1 182 223 18
132 2 2 2 1 87 208 86
133 2 2 2 1 97 257 226
134 2 2 2 1 23 236 95
135 2 2 2 1 7 188 62
136 2 2 2 1 85 183 8
137 2 2 2 1 220 282 118
138 2 2 2 1 188 256 225
139 2 2 2 1 11 239 168
140 2 2 2 1 171 239 195
141 2 2 2 1 212 267 191
142 2 2 2 1 191 266 212
143 2 2 2 1 95 236 94
144 2 2 2 1 210 269 190
145 2 2 2 1 190 270 210
146 2 2 2 1 229 230 35
147 2 2 2 1 35 230 34
148 2 2 2 1 12 281 115
149 2 2 2 1 118 282 13
150 2 2 2 1 209 271 189
151 2 2 2 1 195 242 171
152 2 2 2 1 189 272 209
153 2 2 2 1 37 170 5
154 2 2 2 1 170 268 203
155 2 2 2 1 241 281 165
156 2 2 2 1 207 273 187
157 2 2 2 1 187 275 207
158 2 2 2 1 24 237 236
159 2 2 2 1 203 259 170
160 2 2 2 1 1 171 134
161 2 2 2 1 264 265 214
162 2 2 2 1 214 265 192
163 2 2 2 1 206 274 186
164 2 2 2 1 186 278 206
165 2 2 2 1 263 264 193
166 2 2 2 1 197 242 195
167 2 2 2 1 193 264 214
168 2 2 2 1 195 243 197
169 2 2 2 1 262 263 215
170 2 2 2 1 174 231 222
171 2 2 2 1 215 263 193
172 2 2 2 1 222 231 93
173 2 2 2 1 205 276 185
174 2 2 2 1 197 243 177
175 2 2 2 1 181 254 196
176 2 2 2 1 200 251 176
177 2 2 2 1 202 255 180
178 2 2 2 1 196 245 181
179 2 2 2 1 201 253 178
180 2 2 2 1 176 244 200
181 2 2 2 1 198 247 178
182 2 2 2 1 198 250 179
183 2 2 2 1 180 248 202
184 2 2 2 1 178 250 198
185 2 2 2 1 199 246 179
186 2 2 2 1 178 247 201
187 2 2 2 1 213 244 176
188 2 2 2 1 201 245 196
189 2 2 2 1 179 252 199
190 2 2 2 1 179 246 198
191 2 2 2 1 196 253 201
192 2 2 2 1 200 248 180
193 2 2 2 1 180 251 200
194 2 2 2 1 202 254 181
195 2 2 2 1 181 255 202
196 2 2 2 1 9 234 221
197 2 2 2 1 185 279 205
198 2 2 2 1 261 262 194
199 2 2 2 1 63 188 7
200 2 2 2 1 194 262 215
201 2 2 2 1 84 203 83
202 2 2 2 1 36 232 229
203 2 2 2 1 204 277 184
204 2 2 2 1 100 195 99
205 2 2 2 1 184 280 204
206 2 2 2 1 64 211 63
207 2 2 2 1 20 226 182
208 2 2 2 1 211 256 188
209 2 2 2 1 78 206 77
210 2 2 2 1 72 210 71
211 2 2 2 1 74 209 73
212 2 2 2 1 82 204 81
213 2 2 2 1 80 205 79
214 2 2 2 1 76 207 75
215 2 2 2 1 133 197 132
216 2 2 2 1 70 212 69
217 2 2 2 1 33 172 32
218 2 2 2 1 102 213 177
219 2 2 2 1 102 177 101
220 2 2 2 1 107 202 106
221 2 2 2 1 126 181 125
222 2 2 2 1 111 178 110
223 2 2 2 1 130 176 129
224 2 2 2 1 113 179 112
225 2 2 2 1 120 199 119
226 2 2 2 1 122 198 121
227 2 2 2 1 124 201 123
228 2 2 2 1 105 200 104
229 2 2 2 1 103 213 102
230 2 2 2 1 109 196 108
231 2 2 2 1 128 180 127
232 2 2 2 1 86 169 85
233 2 2 2 1 86 208 169
234 2 2 2 1 183 240 8
235 2 2 2 1 4 166 31
236 2 2 2 1 11 168 98
237 2 2 2 1 98 167 97
238 2 2 2 1 57 194 56
239 2 2 2 1 51 191 50
240 2 2 2 1 39 184 38
241 2 2 2 1 53 192 52
242 2 2 2 1 47 189 46
243 2 2 2 1 49 190 48
244 2 2 2 1 41 185 40
245 2 2 2 1 55 193 54
246 2 2 2 1 45 187 44
247 2 2 2 1 43 186 42
248 2 2 2 1 56 215 55
249 2 2 2 1 54 214 53
250 2 2 2 1 63 211 188
251 2 2 2 1 193 214 54
252 2 2 2 1 194 215 56
253 2 2 2 1 55 215 193
254 2 2 2 1 53 214 192
255 2 2 2 1 119 220 118
256 2 2 2 1 211 260 256
257 2 2 2 1 8 259 84
258 2 2 2 1 89 216 88
259 2 2 2 1 184 277 203
260 2 2 2 1 169 183 85
261 2 2 2 1 203 268 184
262 2 2 2 1 177 283 197
263 2 2 2 1 176 284 213
264 2 2 2 1 36 229 35
265 2 2 2 1 60 225 59
266 2 2 2 1 30 173 29
267 2 2 2 1 26 174 25
268 2 2 2 1 29 219 28
269 2 2 2 1 28 175 27
270 2 2 2 1 27 218 26
271 2 2 2 1 236 237 222
272 2 2 2 1 185 276 204
273 2 2 2 1 9 221 87
274 2 2 2 1 204 280 185
275 2 2 2 1 199 220 119
276 2 2 2 1 186 274 205
277 2 2 2 1 216 234 88
278 2 2 2 1 240 259 8
279 2 2 2 1 205 279 186
280 2 2 2 1 170 232 5
281 2 2 2 1 225 256 59
282 2 2 2 1 18 223 17
283 2 2 2 1 175 218 27
284 2 2 2 1 26 218 174
285 2 2 2 1 173 219 29
286 2 2 2 1 28 219 175
287 2 2 2 1 90 235 89
288 2 2 2 1 187 273 206
289 2 2 2 1 195 239 99
290 2 2 2 1 206 278 187
291 2 2 2 1 1 224 171
292 2 2 2 1 189 271 207
293 2 2 2 1 220 241 165
294 2 2 2 1 207 275 189
295 2 2 2 1 25 237 3
296 2 2 2 1 190 269 209
297 2 2 2 1 3 237 24
298 2 2 2 1 209 272 190
299 2 2 2 1 191 267 210
300 2 2 2 1 94 222 93
301 2 2 2 1 203 277 83
302 2 2 2 1 100 243 195
303 2 2 2 1 210 270 191
304 2 2 2 1 133 242 197
305 2 2 2 1 64 261 211
306 2 2 2 1 192 265 212
307 2 2 2 1 177 243 101
308 2 2 2 1 210 267 71
309 2 2 2 1 72 269 210
310 2 2 2 1 209 269 73
311 2 2 2 1 207 271 75
312 2 2 2 1 74 271 209
313 2 2 2 1 76 273 207
314 2 2 2 1 206 273 77
315 2 2 2 1 78 274 206
316 2 2 2 1 205 274 79
317 2 2 2 1 204 276 81
318 2 2 2 1 80 276 205
319 2 2 2 1 82 277 204
320 2 2 2 1 120 246 199
321 2 2 2 1 105 248 200
322 2 2 2 1 202 248 106
323 2 2 2 1 178 253 110
324 2 2 2 1 176 251 129
325 2 2 2 1 111 250 178
326 2 2 2 1 198 246 121
327 2 2 2 1 128 251 180
328 2 2 2 1 181 245 125
329 2 2 2 1 179 250 112
330 2 2 2 1 103 244 213
331 2 2 2 1 122 247 198
332 2 2 2 1 107 254 202
333 2 2 2 1 126 255 181
334 2 2 2 1 200 244 104
335 2 2 2 1 124 245 201
336 2 2 2 1 196 254 108
337 2 2 2 1 180 255 127
338 2 2 2 1 201 247 123
339 2 2 2 1 109 253 196
340 2 2 2 1 113 252 179
341 2 2 2 1 212 265 69
342 2 2 2 1 70 267 212
343 2 2 2 1 166 238 31
344 2 2 2 1 184 268 38
345 2 2 2 1 15 224 1
346 2 2 2 1 132 283 131
347 2 2 2 1 131 284 130
348 2 2 2 1 37 268 170
349 2 2 2 1 212 266 192
350 2 2 2 1 57 260 194
351 2 2 2 1 4 227 166
352 2 2 2 1 51 266 191
353 2 2 2 1 192 266 52
354 2 2 2 1 191 270 50
355 2 2 2 1 49 270 190
356 2 2 2 1 47 272 189
357 2 2 2 1 190 272 48
358 2 2 2 1 45 275 187
359 2 2 2 1 189 275 46
360 2 2 2 1 187 278 44
361 2 2 2 1 43 278 186
362 2 2 2 1 186 279 42
363 2 2 2 1 41 279 185
364 2 2 2 1 39 280 184
365 2 2 2 1 185 280 40
366 2 2 2 1 173 238 216
367 2 2 2 1 62 225 61
368 2 2 2 1 171 242 134
369 2 2 2 1 21 226 20
370 2 2 2 1 91 233 90
371 2 2 2 1 229 232 183
372 2 2 2 1 30 238 173
373 2 2 2 1 93 231 92
374 2 2 2 1 88 234 9
375 2 2 2 1 32 227 4
376 2 2 2 1 115 281 241
377 2 2 2 1 96 226 21
378 2 2 2 1 61 225 60
379 2 2 2 1 172 227 32
380 2 2 2 1 117 165 116
381 2 2 2 1 24 236 23
382 2 2 2 1 170 240 232
383 2 2 2 1 92 228 91
384 2 2 2 1 99 239 11
385 2 2 2 1 169 230 229
386 2 2 2 1 221 227 172
387 2 2 2 1 208 230 169
388 2 2 2 1 169 229 183
389 2 2 2 1 5 232 36
390 2 2 2 1 175 228 218
391 2 2 2 1 217 285 167
392 2 2 2 1 17 285 16
393 2 2 2 1 34 258 33
394 2 2 2 1 233 235 90
395 2 2 2 1 16 285 217
396 2 2 2 1 131 283 249
397 2 2 2 1 249 284 131
398 2 2 2 1 218 231 174
399 2 2 2 1 174 237 25
400 2 2 2 1 172 258 208
401 2 2 2 1 228 231 218
402 2 2 2 1 219 233 175
403 2 2 2 1 31 238 30
404 2 2 2 1 226 257 182
405 2 2 2 1 175 233 228
406 2 2 2 1 182 257 223
407 2 2 2 1 167 285 223
408 2 2 2 1 222 237 174
409 2 2 2 1 223 257 167
410 2 2 2 1 232 240 183
411 2 2 2 1 173 235 219
412 2 2 2 1 115 241 114
413 2 2 2 1 228 233 91
414 2 2 2 1 219 235 233
415 2 2 2 1 241 252 114
416 2 2 2 1 92 231 228
417 2 2 2 1 134 242 133
418 2 2 2 1 101 243 100
419 2 2 2 1 125 245 124
420 2 2 2 1 112 250 111
421 2 2 2 1 213 249 177
422 2 2 2 1 129 251 128
423 2 2 2 1 106 248 105
424 2 2 2 1 104 244 103
425 2 2 2 1 123 247 122
426 2 2 2 1 108 254 107
427 2 2 2 1 114 252 113
428 2 2 2 1 127 255 126
429 2 2 2 1 121 246 120
430 2 2 2 1 110 253 109
431 2 2 2 1 84 259 203
432 2 2 2 1 59 256 58
433 2 2 2 1 33 258 172
434 2 2 2 1 167 257 97
435 2 2 2 1 256 260 58
436 2 2 2 1 65 262 261
437 2 2 2 1 66 263 262
438 2 2 2 1 67 264 263
439 2 2 2 1 68 265 264
440 2 2 2 1 65 261 64
441 2 2 2 1 58 260 57
442 2 2 2 1 66 262 65
443 2 2 2 1 67 263 66
444 2 2 2 1 68 264 67
445 2 2 2 1 69 265 68
446 2 2 2 1 38 268 37
447 2 2 2 1 71 267 70
448 2 2 2 1 73 269 72
449 2 2 2 1 75 271 74
450 2 2 2 1 52 266 51
451 2 2 2 1 77 273 76
452 2 2 2 1 79 274 78
453 2 2 2 1 81 276 80
454 2 2 2 1 83 277 82
455 2 2 2 1 50 270 49
456 2 2 2 1 48 272 47
457 2 2 2 1 46 275 45
458 2 2 2 1 44 278 43
459 2 2 2 1 42 279 41
460 2 2 2 1 40 280 39
461 2 2 2 1 230 258 34
462 2 2 2 1 197 283 132
463 2 2 2 1 130 284 176
464 2 2 2 1 223 285 17
465 2 2 2 1 94 236 222
466 2 2 2 1 116 281 12
467 2 2 2 1 13 282 117
468 2 2 2 1 117 282 165
469 2 2 2 1 165 281 116
470 2 2 2 1 208 258 230
471 2 2 2 1 170 259 240
472 2 2 2 1 249 283 177
473 2 2 2 1 213 284 249
474 2 2 2 1 22 10 21
475 2 2 2 1 10 96 21
476 2 2 2 1 22 95 10
477 2 2 2 1 23 95 22
478 2 2 3 2 21 287 22
479 2 2 3 2 22 287 286
480 2 2 3 2 20 2 135
481 2 2 3 2 135 287 20
482 2 2 3 2 286 287 14
483 2 2 3 2 136 288 286
484 2 2 3 2 136 286 14
485 2 2 3 2 24 288 3
486 2 2 3 2 3 288 136
487 2 2 3 2 14 287 135
488 2 2 3 2 22 286 23
489 2 2 3 2 20 287 21
490 2 2 3 2 23 288 24
491 2 2 3 2 286 288 23
492 2 2 1 3 299 619 509
493 2 2 1 3 509 683 299
494 2 2 1 3 515 604 291
495 2 2 1 3 504 703 671
496 2 2 1 3 519 703 504
497 2 2 1 3 685 691 319
498 2 2 1 3 512 691 685
499 2 2 1 3 625 630 528
500 2 2 1 3 298 694 554
501 2 2 1 3 517 604 515
502 2 2 1 3 668 717 598
503 2 2 1 3 580 659 320
504 2 2 1 3 311 604 517
505 2 2 1 3 598 722 668
506 2 2 1 3 524 626 295
507 2 2 1 3 565 600 513
508 2 2 1 3 291 573 515
509 2 2 1 3 550 702 505
510 2 2 1 3 600 731 513
511 2 2 1 3 630 697 528
512 2 2 1 3 505 708 550
513 2 2 1 3 582 659 580
514 2 2 1 3 517 605 311
515 2 2 1 3 554 712 298
516 2 2 1 3 516 683 509
517 2 2 1 3 9 688 88
518 2 2 1 3 524 727 626
519 2 2 1 3 507 728 721
520 2 2 1 3 508 728 507
521 2 2 1 3 554 694 511
522 2 2 1 3 516 707 683
523 2 2 1 3 307 658 537
524 2 2 1 3 73 701 686
525 2 2 1 3 528 705 625
526 2 2 1 3 63 7 137
527 2 2 1 3 474 702 550
528 2 2 1 3 605 641 439
529 2 2 1 3 294 707 516
530 2 2 1 3 294 731 600
531 2 2 1 3 693 694 108
532 2 2 1 3 517 641 605
533 2 2 1 3 436 560 529
534 2 2 1 3 529 561 436
535 2 2 1 3 529 560 527
536 2 2 1 3 527 560 399
537 2 2 1 3 516 731 294
538 2 2 1 3 598 717 599
539 2 2 1 3 526 527 399
540 2 2 1 3 95 323 10
541 2 2 1 3 709 713 595
542 2 2 1 3 606 677 293
543 2 2 1 3 559 714 507
544 2 2 1 3 550 734 474
545 2 2 1 3 520 640 386
546 2 2 1 3 507 721 559
547 2 2 1 3 386 571 520
548 2 2 1 3 310 600 565
549 2 2 1 3 562 563 518
550 2 2 1 3 307 688 9
551 2 2 1 3 547 645 488
552 2 2 1 3 396 713 709
553 2 2 1 3 326 562 324
554 2 2 1 3 315 659 582
555 2 2 1 3 399 544 526
556 2 2 1 3 334 544 332
557 2 2 1 3 689 692 297
558 2 2 1 3 342 531 340
559 2 2 1 3 337 553 348
560 2 2 1 3 637 695 289
561 2 2 1 3 348 553 530
562 2 2 1 3 386 640 544
563 2 2 1 3 471 678 564
564 2 2 1 3 686 701 506
565 2 2 1 3 498 624 496
566 2 2 1 3 521 653 542
567 2 2 1 3 307 711 658
568 2 2 1 3 542 653 441
569 2 2 1 3 324 562 518
570 2 2 1 3 316 725 518
571 2 2 1 3 521 564 383
572 2 2 1 3 366 531 522
573 2 2 1 3 383 653 521
574 2 2 1 3 340 531 366
575 2 2 1 3 571 624 520
576 2 2 1 3 547 687 305
577 2 2 1 3 320 737 580
578 2 2 1 3 522 624 366
579 2 2 1 3 559 708 505
580 2 2 1 3 300 703 519
581 2 2 1 3 293 677 629
582 2 2 1 3 332 544 399
583 2 2 1 3 511 694 693
584 2 2 1 3 386 544 334
585 2 2 1 3 335 553 337
586 2 2 1 3 342 666 531
587 2 2 1 3 519 716 300
588 2 2 1 3 605 606 311
589 2 2 1 3 436 562 326
590 2 2 1 3 539 672 464
591 2 2 1 3 89 633 292
592 2 2 1 3 150 681 674
593 2 2 1 3 530 569 348
594 2 2 1 3 582 696 315
595 2 2 1 3 439 677 605
596 2 2 1 3 564 678 383
597 2 2 1 3 520 624 498
598 2 2 1 3 496 624 522
599 2 2 1 3 533 651 569
600 2 2 1 3 637 735 695
601 2 2 1 3 605 677 606
602 2 2 1 3 346 551 349
603 2 2 1 3 371 634 555
604 2 2 1 3 599 717 612
605 2 2 1 3 483 669 566
606 2 2 1 3 555 634 489
607 2 2 1 3 532 534 367
608 2 2 1 3 505 714 559
609 2 2 1 3 569 651 348
610 2 2 1 3 367 534 476
611 2 2 1 3 153 606 152
612 2 2 1 3 309 323 95
613 2 2 1 3 544 640 526
614 2 2 1 3 11 698 99
615 2 2 1 3 401 672 539
616 2 2 1 3 84 300 8
617 2 2 1 3 552 634 371
618 2 2 1 3 551 638 533
619 2 2 1 3 481 700 692
620 2 2 1 3 561 562 436
621 2 2 1 3 638 651 533
622 2 2 1 3 566 669 292
623 2 2 1 3 367 551 532
624 2 2 1 3 555 647 368
625 2 2 1 3 561 563 562
626 2 2 1 3 344 666 342
627 2 2 1 3 567 644 406
628 2 2 1 3 523 662 655
629 2 2 1 3 462 541 535
630 2 2 1 3 349 551 367
631 2 2 1 3 483 545 422
632 2 2 1 3 438 540 535
633 2 2 1 3 411 541 462
634 2 2 1 3 655 662 368
635 2 2 1 3 292 633 566
636 2 2 1 3 534 567 476
637 2 2 1 3 543 679 676
638 2 2 1 3 324 518 323
639 2 2 1 3 463 665 427
640 2 2 1 3 371 620 552
641 2 2 1 3 531 666 523
642 2 2 1 3 535 541 438
643 2 2 1 3 366 624 571
644 2 2 1 3 88 633 89
645 2 2 1 3 442 537 536
646 2 2 1 3 523 666 662
647 2 2 1 3 311 606 153
648 2 2 1 3 152 606 293
649 2 2 1 3 647 655 368
650 2 2 1 3 346 638 551
651 2 2 1 3 489 647 555
652 2 2 1 3 442 536 419
653 2 2 1 3 536 540 438
654 2 2 1 3 483 566 545
655 2 2 1 3 534 644 567
656 2 2 1 3 309 324 323
657 2 2 1 3 301 557 548
658 2 2 1 3 416 419 415
659 2 2 1 3 449 546 488
660 2 2 1 3 546 547 488
661 2 2 1 3 537 688 307
662 2 2 1 3 574 660 575
663 2 2 1 3 568 665 463
664 2 2 1 3 412 541 411
665 2 2 1 3 612 723 599
666 2 2 1 3 301 548 93
667 2 2 1 3 414 415 412
668 2 2 1 3 654 700 481
669 2 2 1 3 420 442 419
670 2 2 1 3 419 536 438
671 2 2 1 3 673 676 91
672 2 2 1 3 148 610 147
673 2 2 1 3 536 658 540
674 2 2 1 3 481 692 689
675 2 2 1 3 404 567 406
676 2 2 1 3 164 319 163
677 2 2 1 3 447 546 449
678 2 2 1 3 552 620 443
679 2 2 1 3 160 549 296
680 2 2 1 3 553 678 471
681 2 2 1 3 542 679 543
682 2 2 1 3 308 550 549
683 2 2 1 3 468 546 447
684 2 2 1 3 327 557 441
685 2 2 1 3 674 681 485
686 2 2 1 3 486 554 487
687 2 2 1 3 455 660 574
688 2 2 1 3 389 620 369
689 2 2 1 3 446 447 445
690 2 2 1 3 532 551 533
691 2 2 1 3 402 650 404
692 2 2 1 3 296 559 558
693 2 2 1 3 446 468 447
694 2 2 1 3 365 555 368
695 2 2 1 3 510 556 492
696 2 2 1 3 93 548 94
697 2 2 1 3 563 698 321
698 2 2 1 3 369 620 371
699 2 2 1 3 462 535 519
700 2 2 1 3 422 545 420
701 2 2 1 3 447 449 448
702 2 2 1 3 419 438 415
703 2 2 1 3 297 610 148
704 2 2 1 3 449 488 486
705 2 2 1 3 449 486 450
706 2 2 1 3 444 445 443
707 2 2 1 3 308 549 161
708 2 2 1 3 328 560 436
709 2 2 1 3 162 308 161
710 2 2 1 3 296 558 159
711 2 2 1 3 497 556 503
712 2 2 1 3 414 416 415
713 2 2 1 3 444 446 445
714 2 2 1 3 147 610 609
715 2 2 1 3 325 557 327
716 2 2 1 3 442 538 537
717 2 2 1 3 302 609 607
718 2 2 1 3 578 621 613
719 2 2 1 3 607 609 608
720 2 2 1 3 457 564 521
721 2 2 1 3 447 448 445
722 2 2 1 3 356 666 344
723 2 2 1 3 302 617 603
724 2 2 1 3 491 511 510
725 2 2 1 3 371 555 365
726 2 2 1 3 449 450 448
727 2 2 1 3 365 368 361
728 2 2 1 3 533 569 473
729 2 2 1 3 404 650 567
730 2 2 1 3 575 576 382
731 2 2 1 3 491 510 492
732 2 2 1 3 336 571 386
733 2 2 1 3 434 443 410
734 2 2 1 3 497 503 499
735 2 2 1 3 492 556 494
736 2 2 1 3 607 617 302
737 2 2 1 3 494 556 497
738 2 2 1 3 408 412 411
739 2 2 1 3 613 621 379
740 2 2 1 3 406 408 407
741 2 2 1 3 487 491 490
742 2 2 1 3 394 575 382
743 2 2 1 3 456 564 457
744 2 2 1 3 497 499 498
745 2 2 1 3 486 487 450
746 2 2 1 3 572 573 291
747 2 2 1 3 569 642 473
748 2 2 1 3 408 413 412
749 2 2 1 3 406 644 408
750 2 2 1 3 376 576 374
751 2 2 1 3 602 603 592
752 2 2 1 3 499 501 500
753 2 2 1 3 328 436 326
754 2 2 1 3 434 444 443
755 2 2 1 3 399 560 330
756 2 2 1 3 413 414 412
757 2 2 1 3 81 570 290
758 2 2 1 3 501 524 502
759 2 2 1 3 494 497 496
760 2 2 1 3 382 576 376
761 2 2 1 3 160 296 159
762 2 2 1 3 330 560 328
763 2 2 1 3 603 617 592
764 2 2 1 3 413 430 414
765 2 2 1 3 321 698 11
766 2 2 1 3 471 564 456
767 2 2 1 3 530 642 569
768 2 2 1 3 158 558 312
769 2 2 1 3 94 309 95
770 2 2 1 3 456 457 422
771 2 2 1 3 491 492 490
772 2 2 1 3 415 541 412
773 2 2 1 3 464 672 463
774 2 2 1 3 366 571 338
775 2 2 1 3 332 399 330
776 2 2 1 3 445 552 443
777 2 2 1 3 457 521 484
778 2 2 1 3 161 549 160
779 2 2 1 3 428 463 427
780 2 2 1 3 487 554 491
781 2 2 1 3 338 571 336
782 2 2 1 3 521 542 484
783 2 2 1 3 457 484 483
784 2 2 1 3 404 406 405
785 2 2 1 3 479 631 618
786 2 2 1 3 336 386 334
787 2 2 1 3 602 615 306
788 2 2 1 3 592 615 602
789 2 2 1 3 421 456 422
790 2 2 1 3 525 528 527
791 2 2 1 3 426 427 425
792 2 2 1 3 497 498 496
793 2 2 1 3 466 539 464
794 2 2 1 3 408 411 407
795 2 2 1 3 358 577 363
796 2 2 1 3 499 500 498
797 2 2 1 3 584 611 306
798 2 2 1 3 92 301 93
799 2 2 1 3 530 553 471
800 2 2 1 3 362 365 361
801 2 2 1 3 159 558 158
802 2 2 1 3 402 404 403
803 2 2 1 3 156 572 291
804 2 2 1 3 458 471 456
805 2 2 1 3 532 533 473
806 2 2 1 3 357 361 356
807 2 2 1 3 81 290 82
808 2 2 1 3 158 312 157
809 2 2 1 3 378 577 402
810 2 2 1 3 472 473 430
811 2 2 1 3 457 483 422
812 2 2 1 3 501 502 500
813 2 2 1 3 310 570 80
814 2 2 1 3 618 631 432
815 2 2 1 3 327 328 326
816 2 2 1 3 410 620 389
817 2 2 1 3 363 577 378
818 2 2 1 3 425 575 394
819 2 2 1 3 312 572 157
820 2 2 1 3 578 613 451
821 2 2 1 3 524 525 502
822 2 2 1 3 427 574 425
823 2 2 1 3 378 402 392
824 2 2 1 3 491 554 511
825 2 2 1 3 317 580 579
826 2 2 1 3 474 475 468
827 2 2 1 3 441 679 542
828 2 2 1 3 369 371 365
829 2 2 1 3 350 622 347
830 2 2 1 3 428 464 463
831 2 2 1 3 426 428 427
832 2 2 1 3 424 425 394
833 2 2 1 3 398 578 451
834 2 2 1 3 80 570 81
835 2 2 1 3 340 366 338
836 2 2 1 3 451 453 452
837 2 2 1 3 317 579 140
838 2 2 1 3 427 665 574
839 2 2 1 3 384 578 387
840 2 2 1 3 306 615 584
841 2 2 1 3 79 310 80
842 2 2 1 3 89 292 90
843 2 2 1 3 306 611 142
844 2 2 1 3 302 603 145
845 2 2 1 3 398 451 437
846 2 2 1 3 317 611 581
847 2 2 1 3 387 578 398
848 2 2 1 3 406 407 405
849 2 2 1 3 597 598 590
850 2 2 1 3 581 582 580
851 2 2 1 3 581 611 584
852 2 2 1 3 587 601 586
853 2 2 1 3 589 597 590
854 2 2 1 3 317 581 580
855 2 2 1 3 402 403 392
856 2 2 1 3 351 356 344
857 2 2 1 3 528 529 527
858 2 2 1 3 79 600 310
859 2 2 1 3 294 600 78
860 2 2 1 3 94 548 309
861 2 2 1 3 424 426 425
862 2 2 1 3 139 579 322
863 2 2 1 3 593 597 589
864 2 2 1 3 404 405 403
865 2 2 1 3 139 322 138
866 2 2 1 3 585 587 586
867 2 2 1 3 291 604 155
868 2 2 1 3 585 586 583
869 2 2 1 3 487 490 489
870 2 2 1 3 589 590 587
871 2 2 1 3 451 452 437
872 2 2 1 3 594 595 593
873 2 2 1 3 421 422 420
874 2 2 1 3 454 482 431
875 2 2 1 3 157 572 156
876 2 2 1 3 141 317 140
877 2 2 1 3 144 603 602
878 2 2 1 3 384 621 578
879 2 2 1 3 143 602 306
880 2 2 1 3 146 609 302
881 2 2 1 3 609 610 608
882 2 2 1 3 591 593 589
883 2 2 1 3 143 306 142
884 2 2 1 3 588 589 587
885 2 2 1 3 145 603 144
886 2 2 1 3 581 583 582
887 2 2 1 3 413 472 430
888 2 2 1 3 140 579 139
889 2 2 1 3 154 604 311
890 2 2 1 3 492 494 493
891 2 2 1 3 156 291 155
892 2 2 1 3 598 599 590
893 2 2 1 3 147 609 146
894 2 2 1 3 421 458 456
895 2 2 1 3 458 530 471
896 2 2 1 3 146 302 145
897 2 2 1 3 144 602 143
898 2 2 1 3 154 311 153
899 2 2 1 3 155 604 154
900 2 2 1 3 149 297 148
901 2 2 1 3 152 293 151
902 2 2 1 3 584 585 583
903 2 2 1 3 542 543 484
904 2 2 1 3 141 611 317
905 2 2 1 3 590 601 587
906 2 2 1 3 78 600 79
907 2 2 1 3 142 611 141
908 2 2 1 3 354 622 350
909 2 2 1 3 585 588 587
910 2 2 1 3 453 460 452
911 2 2 1 3 451 613 453
912 2 2 1 3 594 596 595
913 2 2 1 3 591 594 593
914 2 2 1 3 574 575 425
915 2 2 1 3 588 591 589
916 2 2 1 3 387 398 395
917 2 2 1 3 77 294 78
918 2 2 1 3 599 601 590
919 2 2 1 3 74 299 75
920 2 2 1 3 494 496 495
921 2 2 1 3 472 532 473
922 2 2 1 3 576 623 374
923 2 2 1 3 585 615 588
924 2 2 1 3 71 303 72
925 2 2 1 3 473 642 430
926 2 2 1 3 70 612 71
927 2 2 1 3 443 620 410
928 2 2 1 3 69 313 70
929 2 2 1 3 68 614 69
930 2 2 1 3 67 315 68
931 2 2 1 3 429 480 467
932 2 2 1 3 360 431 354
933 2 2 1 3 581 584 583
934 2 2 1 3 469 506 470
935 2 2 1 3 416 643 421
936 2 2 1 3 398 437 418
937 2 2 1 3 329 330 328
938 2 2 1 3 65 320 66
939 2 2 1 3 417 631 479
940 2 2 1 3 588 615 592
941 2 2 1 3 325 327 326
942 2 2 1 3 71 612 303
943 2 2 1 3 469 470 418
944 2 2 1 3 380 382 376
945 2 2 1 3 575 660 576
946 2 2 1 3 584 615 585
947 2 2 1 3 448 552 445
948 2 2 1 3 313 612 70
949 2 2 1 3 398 418 395
950 2 2 1 3 69 614 313
951 2 2 1 3 452 619 437
952 2 2 1 3 349 367 352
953 2 2 1 3 437 469 418
954 2 2 1 3 315 614 68
955 2 2 1 3 465 466 464
956 2 2 1 3 613 656 453
957 2 2 1 3 588 592 591
958 2 2 1 3 418 616 395
959 2 2 1 3 607 608 596
960 2 2 1 3 470 616 418
961 2 2 1 3 395 616 396
962 2 2 1 3 594 607 596
963 2 2 1 3 509 619 452
964 2 2 1 3 393 394 382
965 2 2 1 3 395 396 388
966 2 2 1 3 358 635 577
967 2 2 1 3 377 384 381
968 2 2 1 3 331 332 330
969 2 2 1 3 460 516 509
970 2 2 1 3 387 395 388
971 2 2 1 3 591 617 594
972 2 2 1 3 423 424 394
973 2 2 1 3 429 627 480
974 2 2 1 3 460 509 452
975 2 2 1 3 378 392 391
976 2 2 1 3 363 378 372
977 2 2 1 3 480 481 467
978 2 2 1 3 327 329 328
979 2 2 1 3 335 336 334
980 2 2 1 3 433 434 410
981 2 2 1 3 479 565 513
982 2 2 1 3 592 617 591
983 2 2 1 3 351 357 356
984 2 2 1 3 333 334 332
985 2 2 1 3 373 379 375
986 2 2 1 3 417 479 478
987 2 2 1 3 437 619 469
988 2 2 1 3 454 568 482
989 2 2 1 3 446 474 468
990 2 2 1 3 424 439 426
991 2 2 1 3 594 617 607
992 2 2 1 3 409 410 389
993 2 2 1 3 431 622 354
994 2 2 1 3 411 462 440
995 2 2 1 3 380 393 382
996 2 2 1 3 377 381 380
997 2 2 1 3 360 454 431
998 2 2 1 3 357 362 361
999 2 2 1 3 388 397 385
1000 2 2 1 3 384 387 385
1001 2 2 1 3 416 420 419
1002 2 2 1 3 525 527 526
1003 2 2 1 3 429 467 461
1004 2 2 1 3 375 377 376
1005 2 2 1 3 373 374 364
1006 2 2 1 3 467 485 461
1007 2 2 1 3 387 388 385
1008 2 2 1 3 453 663 460
1009 2 2 1 3 479 618 565
1010 2 2 1 3 384 385 381
1011 2 2 1 3 337 338 336
1012 2 2 1 3 393 429 423
1013 2 2 1 3 577 650 402
1014 2 2 1 3 377 380 376
1015 2 2 1 3 364 623 359
1016 2 2 1 3 417 477 391
1017 2 2 1 3 375 376 374
1018 2 2 1 3 393 423 394
1019 2 2 1 3 428 465 464
1020 2 2 1 3 405 432 403
1021 2 2 1 3 423 628 424
1022 2 2 1 3 492 493 490
1023 2 2 1 3 373 375 374
1024 2 2 1 3 392 417 391
1025 2 2 1 3 429 461 423
1026 2 2 1 3 378 391 372
1027 2 2 1 3 479 513 478
1028 2 2 1 3 102 295 103
1029 2 2 1 3 656 663 453
1030 2 2 1 3 487 489 450
1031 2 2 1 3 377 621 384
1032 2 2 1 3 375 621 377
1033 2 2 1 3 372 373 364
1034 2 2 1 3 417 478 477
1035 2 2 1 3 361 662 356
1036 2 2 1 3 379 621 375
1037 2 2 1 3 424 628 439
1038 2 2 1 3 367 476 352
1039 2 2 1 3 537 658 536
1040 2 2 1 3 363 372 364
1041 2 2 1 3 101 625 102
1042 2 2 1 3 362 369 365
1043 2 2 1 3 103 626 104
1044 2 2 1 3 500 520 498
1045 2 2 1 3 374 623 364
1046 2 2 1 3 353 358 355
1047 2 2 1 3 567 650 476
1048 2 2 1 3 462 519 504
1049 2 2 1 3 100 630 101
1050 2 2 1 3 363 364 359
1051 2 2 1 3 381 627 380
1052 2 2 1 3 461 628 423
1053 2 2 1 3 353 354 350
1054 2 2 1 3 325 326 324
1055 2 2 1 3 355 360 354
1056 2 2 1 3 329 331 330
1057 2 2 1 3 370 400 390
1058 2 2 1 3 99 304 100
1059 2 2 1 3 411 440 407
1060 2 2 1 3 494 495 493
1061 2 2 1 3 104 314 105
1062 2 2 1 3 496 522 495
1063 2 2 1 3 460 664 516
1064 2 2 1 3 373 632 379
1065 2 2 1 3 343 346 345
1066 2 2 1 3 358 363 359
1067 2 2 1 3 434 505 444
1068 2 2 1 3 353 355 354
1069 2 2 1 3 333 335 334
1070 2 2 1 3 476 650 635
1071 2 2 1 3 360 455 454
1072 2 2 1 3 341 638 343
1073 2 2 1 3 525 526 502
1074 2 2 1 3 335 337 336
1075 2 2 1 3 392 631 417
1076 2 2 1 3 380 627 393
1077 2 2 1 3 485 629 461
1078 2 2 1 3 331 333 332
1079 2 2 1 3 635 650 577
1080 2 2 1 3 393 627 429
1081 2 2 1 3 403 631 392
1082 2 2 1 3 465 515 466
1083 2 2 1 3 408 644 413
1084 2 2 1 3 439 641 426
1085 2 2 1 3 548 557 325
1086 2 2 1 3 105 637 106
1087 2 2 1 3 358 359 355
1088 2 2 1 3 477 632 391
1089 2 2 1 3 461 629 628
1090 2 2 1 3 372 632 373
1091 2 2 1 3 472 534 532
1092 2 2 1 3 339 340 338
1093 2 2 1 3 458 642 530
1094 2 2 1 3 331 383 333
1095 2 2 1 3 409 433 410
1096 2 2 1 3 465 517 515
1097 2 2 1 3 337 339 338
1098 2 2 1 3 448 634 552
1099 2 2 1 3 432 631 403
1100 2 2 1 3 391 632 372
1101 2 2 1 3 426 641 428
1102 2 2 1 3 343 345 344
1103 2 2 1 3 504 514 440
1104 2 2 1 3 106 289 107
1105 2 2 1 3 352 353 350
1106 2 2 1 3 462 504 440
1107 2 2 1 3 397 654 648
1108 2 2 1 3 341 343 342
1109 2 2 1 3 349 352 350
1110 2 2 1 3 341 342 340
1111 2 2 1 3 345 351 344
1112 2 2 1 3 343 344 342
1113 2 2 1 3 627 648 480
1114 2 2 1 3 397 648 385
1115 2 2 1 3 414 643 416
1116 2 2 1 3 400 401 390
1117 2 2 1 3 346 349 347
1118 2 2 1 3 482 661 431
1119 2 2 1 3 381 648 627
1120 2 2 1 3 490 647 489
1121 2 2 1 3 663 664 460
1122 2 2 1 3 339 341 340
1123 2 2 1 3 102 625 295
1124 2 2 1 3 337 348 339
1125 2 2 1 3 405 636 432
1126 2 2 1 3 295 626 103
1127 2 2 1 3 407 636 405
1128 2 2 1 3 327 441 329
1129 2 2 1 3 428 641 465
1130 2 2 1 3 346 347 345
1131 2 2 1 3 343 638 346
1132 2 2 1 3 476 635 352
1133 2 2 1 3 623 639 359
1134 2 2 1 3 353 635 358
1135 2 2 1 3 351 459 357
1136 2 2 1 3 355 639 360
1137 2 2 1 3 349 350 347
1138 2 2 1 3 352 635 353
1139 2 2 1 3 385 648 381
1140 2 2 1 3 421 643 458
1141 2 2 1 3 359 639 355
1142 2 2 1 3 409 435 433
1143 2 2 1 3 101 630 625
1144 2 2 1 3 370 389 369
1145 2 2 1 3 390 409 389
1146 2 2 1 3 435 507 433
1147 2 2 1 3 435 508 507
1148 2 2 1 3 88 688 633
1149 2 2 1 3 440 636 407
1150 2 2 1 3 110 645 111
1151 2 2 1 3 522 531 523
1152 2 2 1 3 413 644 472
1153 2 2 1 3 104 626 314
1154 2 2 1 3 522 523 495
1155 2 2 1 3 502 640 500
1156 2 2 1 3 465 641 517
1157 2 2 1 3 648 654 480
1158 2 2 1 3 360 639 455
1159 2 2 1 3 304 630 100
1160 2 2 1 3 450 634 448
1161 2 2 1 3 370 390 389
1162 2 2 1 3 430 643 414
1163 2 2 1 3 514 636 440
1164 2 2 1 3 67 659 315
1165 2 2 1 3 493 647 490
1166 2 2 1 3 109 298 110
1167 2 2 1 3 320 659 66
1168 2 2 1 3 362 370 369
1169 2 2 1 3 500 640 520
1170 2 2 1 3 314 637 105
1171 2 2 1 3 458 643 642
1172 2 2 1 3 646 661 459
1173 2 2 1 3 622 646 347
1174 2 2 1 3 526 640 502
1175 2 2 1 3 112 305 113
1176 2 2 1 3 472 644 534
1177 2 2 1 3 489 634 450
1178 2 2 1 3 345 646 351
1179 2 2 1 3 370 652 400
1180 2 2 1 3 106 637 289
1181 2 2 1 3 347 646 345
1182 2 2 1 3 474 512 475
1183 2 2 1 3 341 651 638
1184 2 2 1 3 351 646 459
1185 2 2 1 3 331 653 383
1186 2 2 1 3 480 654 481
1187 2 2 1 3 113 649 114
1188 2 2 1 3 622 661 646
1189 2 2 1 3 357 652 362
1190 2 2 1 3 339 651 341
1191 2 2 1 3 329 653 331
1192 2 2 1 3 420 545 442
1193 2 2 1 3 348 651 339
1194 2 2 1 3 557 679 441
1195 2 2 1 3 379 656 613
1196 2 2 1 3 636 657 432
1197 2 2 1 3 459 652 357
1198 2 2 1 3 309 548 325
1199 2 2 1 3 362 652 370
1200 2 2 1 3 432 657 618
1201 2 2 1 3 441 653 329
1202 2 2 1 3 642 643 430
1203 2 2 1 3 495 655 493
1204 2 2 1 3 574 665 455
1205 2 2 1 3 632 656 379
1206 2 2 1 3 66 659 67
1207 2 2 1 3 514 657 636
1208 2 2 1 3 523 655 495
1209 2 2 1 3 623 660 639
1210 2 2 1 3 639 660 455
1211 2 2 1 3 298 645 110
1212 2 2 1 3 477 656 632
1213 2 2 1 3 477 663 656
1214 2 2 1 3 493 655 647
1215 2 2 1 3 539 675 401
1216 2 2 1 3 455 665 454
1217 2 2 1 3 416 421 420
1218 2 2 1 3 368 662 361
1219 2 2 1 3 576 660 623
1220 2 2 1 3 485 681 629
1221 2 2 1 3 528 697 529
1222 2 2 1 3 629 681 293
1223 2 2 1 3 478 663 477
1224 2 2 1 3 431 661 622
1225 2 2 1 3 662 666 356
1226 2 2 1 3 305 649 113
1227 2 2 1 3 484 669 483
1228 2 2 1 3 478 664 663
1229 2 2 1 3 438 541 415
1230 2 2 1 3 513 664 478
1231 2 2 1 3 482 667 661
1232 2 2 1 3 654 704 700
1233 2 2 1 3 543 676 673
1234 2 2 1 3 566 633 538
1235 2 2 1 3 675 680 435
1236 2 2 1 3 290 671 82
1237 2 2 1 3 454 665 568
1238 2 2 1 3 506 668 470
1239 2 2 1 3 545 566 538
1240 2 2 1 3 652 667 400
1241 2 2 1 3 459 667 652
1242 2 2 1 3 442 545 538
1243 2 2 1 3 568 670 482
1244 2 2 1 3 150 674 149
1245 2 2 1 3 482 670 667
1246 2 2 1 3 309 325 324
1247 2 2 1 3 661 667 459
1248 2 2 1 3 292 673 90
1249 2 2 1 3 667 670 400
1250 2 2 1 3 91 676 92
1251 2 2 1 3 401 675 390
1252 2 2 1 3 409 675 435
1253 2 2 1 3 299 719 619
1254 2 2 1 3 335 678 553
1255 2 2 1 3 543 669 484
1256 2 2 1 3 628 677 439
1257 2 2 1 3 568 672 670
1258 2 2 1 3 400 670 401
1259 2 2 1 3 518 725 323
1260 2 2 1 3 333 678 335
1261 2 2 1 3 691 734 308
1262 2 2 1 3 539 680 675
1263 2 2 1 3 82 671 83
1264 2 2 1 3 151 681 150
1265 2 2 1 3 669 673 292
1266 2 2 1 3 463 672 568
1267 2 2 1 3 506 701 668
1268 2 2 1 3 668 701 303
1269 2 2 1 3 90 673 91
1270 2 2 1 3 670 672 401
1271 2 2 1 3 305 730 547
1272 2 2 1 3 149 674 297
1273 2 2 1 3 676 679 301
1274 2 2 1 3 546 687 547
1275 2 2 1 3 685 690 649
1276 2 2 1 3 397 704 654
1277 2 2 1 3 390 675 409
1278 2 2 1 3 503 684 499
1279 2 2 1 3 98 321 11
1280 2 2 1 3 466 680 539
1281 2 2 1 3 315 696 614
1282 2 2 1 3 92 676 301
1283 2 2 1 3 96 316 97
1284 2 2 1 3 299 683 75
1285 2 2 1 3 547 730 645
1286 2 2 1 3 301 679 557
1287 2 2 1 3 475 687 468
1288 2 2 1 3 543 673 669
1289 2 2 1 3 73 686 74
1290 2 2 1 3 629 677 628
1291 2 2 1 3 538 688 537
1292 2 2 1 3 383 678 333
1293 2 2 1 3 319 691 163
1294 2 2 1 3 87 307 9
1295 2 2 1 3 297 692 610
1296 2 2 1 3 322 682 138
1297 2 2 1 3 162 691 308
1298 2 2 1 3 467 689 485
1299 2 2 1 3 435 680 508
1300 2 2 1 3 85 318 86
1301 2 2 1 3 649 729 685
1302 2 2 1 3 510 695 556
1303 2 2 1 3 293 681 151
1304 2 2 1 3 649 690 114
1305 2 2 1 3 107 693 108
1306 2 2 1 3 512 734 691
1307 2 2 1 3 108 694 109
1308 2 2 1 3 583 696 582
1309 2 2 1 3 485 689 674
1310 2 2 1 3 657 699 618
1311 2 2 1 3 138 682 137
1312 2 2 1 3 75 683 76
1313 2 2 1 3 63 682 64
1314 2 2 1 3 573 728 508
1315 2 2 1 3 499 684 501
1316 2 2 1 3 573 740 515
1317 2 2 1 3 322 720 682
1318 2 2 1 3 512 685 475
1319 2 2 1 3 696 710 614
1320 2 2 1 3 72 701 73
1321 2 2 1 3 535 716 519
1322 2 2 1 3 74 686 299
1323 2 2 1 3 505 702 444
1324 2 2 1 3 468 687 546
1325 2 2 1 3 446 702 474
1326 2 2 1 3 296 708 559
1327 2 2 1 3 525 705 528
1328 2 2 1 3 550 708 549
1329 2 2 1 3 674 689 297
1330 2 2 1 3 486 712 554
1331 2 2 1 3 114 690 115
1332 2 2 1 3 77 707 294
1333 2 2 1 3 481 689 467
1334 2 2 1 3 671 703 83
1335 2 2 1 3 633 688 538
1336 2 2 1 3 321 726 563
1337 2 2 1 3 595 713 593
1338 2 2 1 3 685 729 475
1339 2 2 1 3 518 726 316
1340 2 2 1 3 515 740 466
1341 2 2 1 3 559 721 558
1342 2 2 1 3 529 697 561
1343 2 2 1 3 563 726 518
1344 2 2 1 3 434 714 505
1345 2 2 1 3 507 714 433
1346 2 2 1 3 304 697 630
1347 2 2 1 3 658 711 318
1348 2 2 1 3 469 719 506
1349 2 2 1 3 163 691 162
1350 2 2 1 3 65 720 320
1351 2 2 1 3 572 728 573
1352 2 2 1 3 597 718 598
1353 2 2 1 3 580 737 579
1354 2 2 1 3 610 692 608
1355 2 2 1 3 137 682 63
1356 2 2 1 3 84 703 300
1357 2 2 1 3 289 693 107
1358 2 2 1 3 501 727 524
1359 2 2 1 3 645 730 111
1360 2 2 1 3 556 695 503
1361 2 2 1 3 112 730 305
1362 2 2 1 3 668 722 470
1363 2 2 1 3 664 731 516
1364 2 2 1 3 657 715 699
1365 2 2 1 3 295 705 524
1366 2 2 1 3 109 694 298
1367 2 2 1 3 396 709 388
1368 2 2 1 3 586 696 583
1369 2 2 1 3 508 740 573
1370 2 2 1 3 12 724 164
1371 2 2 1 3 645 712 488
1372 2 2 1 3 115 724 12
1373 2 2 1 3 565 699 310
1374 2 2 1 3 310 699 570
1375 2 2 1 3 683 707 76
1376 2 2 1 3 692 700 608
1377 2 2 1 3 319 690 685
1378 2 2 1 3 8 706 85
1379 2 2 1 3 614 710 313
1380 2 2 1 3 99 698 304
1381 2 2 1 3 618 699 565
1382 2 2 1 3 626 727 314
1383 2 2 1 3 695 735 503
1384 2 2 1 3 506 719 686
1385 2 2 1 3 511 738 510
1386 2 2 1 3 718 722 598
1387 2 2 1 3 298 712 645
1388 2 2 1 3 608 700 596
1389 2 2 1 3 323 725 10
1390 2 2 1 3 612 717 303
1391 2 2 1 3 700 704 596
1392 2 2 1 3 586 710 696
1393 2 2 1 3 303 701 72
1394 2 2 1 3 710 723 313
1395 2 2 1 3 314 727 684
1396 2 2 1 3 85 706 318
1397 2 2 1 3 444 702 446
1398 2 2 1 3 716 733 706
1399 2 2 1 3 720 737 320
1400 2 2 1 3 83 703 84
1401 2 2 1 3 474 734 512
1402 2 2 1 3 625 705 295
1403 2 2 1 3 596 704 595
1404 2 2 1 3 300 716 706
1405 2 2 1 3 680 740 508
1406 2 2 1 3 514 715 657
1407 2 2 1 3 388 709 397
1408 2 2 1 3 699 715 570
1409 2 2 1 3 300 706 8
1410 2 2 1 3 682 720 64
1411 2 2 1 3 10 725 96
1412 2 2 1 3 693 738 511
1413 2 2 1 3 524 705 525
1414 2 2 1 3 304 736 697
1415 2 2 1 3 549 708 296
1416 2 2 1 3 514 739 715
1417 2 2 1 3 658 733 540
1418 2 2 1 3 76 707 77
1419 2 2 1 3 314 735 637
1420 2 2 1 3 318 733 658
1421 2 2 1 3 601 710 586
1422 2 2 1 3 313 723 612
1423 2 2 1 3 96 725 316
1424 2 2 1 3 697 736 561
1425 2 2 1 3 488 712 486
1426 2 2 1 3 86 711 87
1427 2 2 1 3 593 713 597
1428 2 2 1 3 601 723 710
1429 2 2 1 3 540 716 535
1430 2 2 1 3 570 715 290
1431 2 2 1 3 616 718 396
1432 2 2 1 3 433 714 434
1433 2 2 1 3 684 735 314
1434 2 2 1 3 715 739 290
1435 2 2 1 3 164 724 319
1436 2 2 1 3 510 738 695
1437 2 2 1 3 87 711 307
1438 2 2 1 3 318 711 86
1439 2 2 1 3 619 719 469
1440 2 2 1 3 305 729 649
1441 2 2 1 3 64 720 65
1442 2 2 1 3 303 717 668
1443 2 2 1 3 558 721 312
1444 2 2 1 3 686 719 299
1445 2 2 1 3 721 728 312
1446 2 2 1 3 504 739 514
1447 2 2 1 3 470 722 616
1448 2 2 1 3 599 723 601
1449 2 2 1 3 475 729 687
1450 2 2 1 3 561 736 563
1451 2 2 1 3 312 728 572
1452 2 2 1 3 503 735 684
1453 2 2 1 3 308 734 550
1454 2 2 1 3 111 730 112
1455 2 2 1 3 671 739 504
1456 2 2 1 3 290 739 671
1457 2 2 1 3 579 737 322
1458 2 2 1 3 397 709 704
1459 2 2 1 3 513 731 664
1460 2 2 1 3 97 732 98
1461 2 2 1 3 616 722 718
1462 2 2 1 3 687 729 305
1463 2 2 1 3 319 724 690
1464 2 2 1 3 704 709 595
1465 2 2 1 3 98 732 321
1466 2 2 1 3 466 740 680
1467 2 2 1 3 316 732 97
1468 2 2 1 3 684 727 501
1469 2 2 1 3 690 724 115
1470 2 2 1 3 695 738 289
1471 2 2 1 3 563 736 698
1472 2 2 1 3 322 737 720
1473 2 2 1 3 698 736 304
1474 2 2 1 3 321 732 726
1475 2 2 1 3 726 732 316
1476 2 2 1 3 396 718 713
1477 2 2 1 3 289 738 693
1478 2 2 1 3 540 733 716
1479 2 2 1 3 713 718 597
1480 2 2 1 3 706 733 318
$EndElements
