$MeshFormat
2.2 0 8
$EndMeshFormat
$PhysicalNames
6
0 5 "separation-inf"
0 6 "separation-sup"
1 3 "pressure"
1 4 "fixed"
2 1 "body"
2 2 "cover"
$EndPhysicalNames
$Nodes
225
1 0 0 0
2 0.06527036446661391 -1.301042606982605e-16 0
3 0.4040362663251333 0.4037254805883031 0
4 0.4754071150127369 0.4393096730951061 0
5 0.6780832021878531 0.4499314767377288 0
6 0.7306999999999999 0.4 0
7 0.7306999999999998 0 0
8 0.7806999999999999 0 0
9 0.7806999999999999 0.4 0
10 0.6754664043757063 0.4998629534754574 0
11 0.4727903172005901 0.4892411498328348 0
12 0.3657340441691846 0.4358648610726302 0
13 0.03263518223330691 0 0
14 0.0935008562881573 0.03364379004902507 0
15 0.1217313481097007 0.06728758009805041 0
16 0.149961839931244 0.1009313701470757 0
17 0.1781923317527872 0.1345751601961009 0
18 0.2064228235743304 0.1682189502451262 0
19 0.2346533153958736 0.2018627402941514 0
20 0.2628838072174169 0.2355065303431766 0
21 0.2911142990389601 0.2691503203922018 0
22 0.3193447908605034 0.3027941104412272 0
23 0.3475752826820468 0.3364379004902526 0
24 0.3758057745035902 0.370081690539278 0
25 0.4360209293260504 0.4289401557798515 0
26 0.5159423324477601 0.4414340338236307 0
27 0.5564775498827833 0.4435583945521552 0
28 0.5970127673178066 0.4456827552806797 0
29 0.6375479847528298 0.4478071160092043 0
30 0.7151177287846878 0.4362687185506142 0
31 0.7306999999999999 0.3555555555555555 0
32 0.7306999999999999 0.3111111111111111 0
33 0.7306999999999999 0.2666666666666666 0
34 0.7306999999999999 0.222222222222222 0
35 0.7306999999999999 0.1777777777777776 0
36 0.7306999999999999 0.1333333333333332 0
37 0.7306999999999999 0.08888888888888891 0
38 0.7306999999999999 0.04444444444444462 0
39 0.7556999999999999 0 0
40 0.7806999999999999 0.04444444444444449 0
41 0.7806999999999999 0.08888888888888896 0
42 0.7806999999999999 0.1333333333333334 0
43 0.7806999999999999 0.177777777777778 0
44 0.7806999999999999 0.2222222222222225 0
45 0.7806999999999999 0.2666666666666668 0
46 0.7806999999999999 0.3111111111111111 0
47 0.7806999999999999 0.3555555555555554 0
48 0.7725791210148898 0.4394743856384267 0
49 0.7495354575693756 0.4725374371012285 0
50 0.7153117057077496 0.4938191335922482 0
51 0.6349311869406832 0.4977385927469328 0
52 0.59439596950566 0.4956142320184084 0
53 0.5538607520706368 0.4934898712898839 0
54 0.5133255346356135 0.4913655105613594 0
55 0.4326314298734859 0.4815562159967983 0
56 0.3960397269295293 0.4633122659015873 0
57 0.3376006561561704 0.4023367948362742 0
58 0.3094672681431563 0.368808728599918 0
59 0.2813338801301422 0.3352806623635619 0
60 0.253200492117128 0.3017525961272058 0
61 0.2250671041041138 0.2682245298908497 0
62 0.1969337160910996 0.2346964636544934 0
63 0.1688003280780853 0.2011683974181372 0
64 0.1406669400650711 0.167640331181781 0
65 0.1125335520520569 0.1341122649454247 0
66 0.08440016403904266 0.1005841987090685 0
67 0.05626677602602848 0.06705613247271236 0
68 0.02813338801301424 0.03352806623635607 0
69 0.1096323401688398 0 0
70 0.1539943158710656 0 0
71 0.1983562915732915 0 0
72 0.2427182672755173 0 0
73 0.287080242977743 0 0
74 0.3314422186799688 0 0
75 0.3758041943821944 0 0
76 0.4201661700844201 0 0
77 0.4645281457866458 0 0
78 0.5088901214888715 0 0
79 0.5532520971910971 0 0
80 0.5976140728933228 0 0
81 0.6419760485955485 0 0
82 0.6863380242977741 0 0
83 0.06080035544864804 0.03373146613116385 0
84 0.7556999999999999 0.3745383867832847 0
85 0.6574198877349228 0.4725397895753012 0
86 0.3719458664632959 0.4026424925532855 0
87 0.6161240926576874 0.4714947998193014 0
88 0.4937092708413542 0.4641771734452385 0
89 0.5754621122822954 0.4695503342528643 0
90 0.5347962586934072 0.467262552987522 0
91 0.746362492567284 0.4282108331572005 0
92 0.7030899253451477 0.4665753920785719 0
93 0.3428076554918761 0.3693945043098428 0
94 0.3144661331087265 0.3358815042556915 0
95 0.2862574504303402 0.3023242866692463 0
96 0.2580709659761328 0.2687596505969094 0
97 0.2298882394993401 0.2351937292130815 0
98 0.7557 0.06666666666666676 0
99 0.7556999999999999 0.02592592592592602 0
100 0.7556999999999999 0.1111111111111112 0
101 0.7556999999999999 0.3333333333333333 0
102 0.7556999999999999 0.2888888888888889 0
103 0.7556999999999998 0.2444444444444444 0
104 0.7556999999999998 0.1555555555555555 0
105 0.7556999999999998 0.1999999999999999 0
106 0.4513420335453627 0.4562524849730779 0
107 0.2017061976255015 0.2016275447134961 0
108 0.4058638593240269 0.4343007033155316 0
109 0.1735243281255404 0.1680612674641085 0
110 0.1453425456279437 0.1344949258592446 0
111 0.117160835904126 0.1009285246312923 0
112 0.08897672263595047 0.0672052820152188 0
113 0.3926524438970527 0.3326672637231023 0
114 0.5310541005789535 0.0384087392505979 0
115 0.6922801694762367 0.2444956382089968 0
116 0.538046308727358 0.4139625354256451 0
117 0.398911526196253 0.03786993735287025 0
118 0.3050545908643557 0.229381629793007 0
119 0.6911705789856533 0.1539130655535613 0
120 0.6191201263930225 0.411640407598286 0
121 0.3073373946355552 0.03734888442264406 0
122 0.6193911362629452 0.03822890437966914 0
123 0.2473328153319342 0.1586946091873641 0
124 0.4361916653460754 0.390571396819915 0
125 0.6928535778983971 0.3323704173557215 0
126 0.2205388350807542 0.03585588347755647 0
127 0.6926102296205277 0.06517659869431985 0
128 0.688956357556857 0.4105381712861156 0
129 0.1911819190026584 0.09461054964824195 0
130 0.692458670968718 0.2887336167566563 0
131 0.6540556520510616 0.266679581494033 0
132 0.6539239251275455 0.2224481964501072 0
133 0.6157041487312175 0.2446382748469499 0
134 0.6155421399247927 0.2004876211809313 0
135 0.5774362340867139 0.2227091279606249 0
136 0.5772795515331276 0.2668652431529882 0
137 0.5392602528237351 0.2449827038188949 0
138 0.5390884381679378 0.2008702614740495 0
139 0.5011001932456938 0.2231938709598979 0
140 0.5007318213479376 0.1790777801346826 0
141 0.4627414144548003 0.2014492393266288 0
142 0.5013605722461243 0.2671941338446309 0
143 0.4623394991234011 0.1573197729736292 0
144 0.4242792466837518 0.1797765638485742 0
145 0.5445042232750248 0.1526208292959316 0
146 0.4248353424790816 0.2239695761476603 0
147 0.4233658536170162 0.1331288902093494 0
148 0.3857617696595667 0.1576497214336778 0
149 0.461621047232047 0.1131510517071486 0
150 0.3842099088099224 0.1115632392487102 0
151 0.3472286830612835 0.1357740663458101 0
152 0.3493052575563123 0.09075134481658431 0
153 0.3087916566975669 0.1141295294826895 0
154 0.3117063736502448 0.1599978828463064 0
155 0.6543419852969165 0.3106799726300389 0
156 0.6555227910757696 0.3512781838796804 0
157 0.6148162151491527 0.3314291960870054 0
158 0.4632170159347789 0.2455023890749908 0
159 0.4640785508323692 0.2893044922662322 0
160 0.5014762485256687 0.3108457317310905 0
161 0.4666651086273998 0.332432492302628 0
162 0.5035661583547089 0.3548291693445018 0
163 0.5396279284993211 0.3317018050159979 0
164 0.5391212163735508 0.2889999021277528 0
165 0.5767984222224471 0.3105887218223223 0
166 0.5771490307194087 0.354283739769099 0
167 0.6526145719097114 0.1760200659940206 0
168 0.6153464984053285 0.1562771015792738 0
169 0.6154993291639872 0.2884801650055563 0
170 0.4276892309644724 0.2680675818236771 0
171 0.3833136119630982 0.2521718202950656 0
172 0.3861004327233281 0.2025782974709779 0
173 0.3491426396739519 0.1786454485902713 0
174 0.2645129559363827 0.03774772611822175 0
175 0.2353200321060313 0.0784169541524718 0
176 0.3520790092004232 0.04433193391610218 0
177 0.1763454946159546 0.03419851508408883 0
178 0.4425070655394467 0.03759997710131274 0
179 0.4223637036185415 0.0827797383761199 0
180 0.4867356299589597 0.03755577722698061 0
181 0.5104520936328878 0.07373849150921008 0
182 0.5540618499166964 0.0759470610891273 0
183 0.5754800293062469 0.03823864346082467 0
184 0.5963907566513138 0.07591403491264676 0
185 0.5709986163147704 0.1125225284538551 0
186 0.6439987436090379 0.07858787601451622 0
187 0.6914914618798641 0.1100678826727775 0
188 0.6487810684926038 0.125828332517746 0
189 0.3625964136333211 0.2951676823869545 0
190 0.335094764500048 0.261830807262784 0
191 0.2793720461019882 0.1891887875371425 0
192 0.5772144037509883 0.1785706477957135 0
193 0.2214439545256044 0.1269487321418283 0
194 0.2645121383822521 0.115576243083815 0
195 0.4993975518183514 0.1365499411726794 0
196 0.6918982075831911 0.199479494367781 0
197 0.2834733909601665 0.07566043251432164 0
198 0.5772674989325588 0.4016563573493389 0
199 0.4999614199681011 0.4030450568121664 0
200 0.4297393600876805 0.3108636776048149 0
201 0.3466151728059691 0.2204437760991081 0
202 0.6628908885030826 0.03645026330701928 0
203 0.133032566887301 0.0322574775626957 0
204 0.6177720423819631 0.3728069461837453 0
205 0.6950773535090924 0.372811344733428 0
206 0.4345633569743169 0.3528524927744577 0
207 0.5286549890947931 0.1092452942372205 0
208 0.4679882458521952 0.07416688736532095 0
209 0.5399675967888291 0.3747103770529366 0
210 0.3813738810762905 0.07345923874207738 0
211 0.4700051178823155 0.3749291646031765 0
212 0.6099416411060943 0.1159630127200429 0
213 0.399198212109125 0.2917876051667229 0
214 0.6572928525824857 0.4212941928100793 0
215 0.3161762589178621 0.1942743111782689 0
216 0.655623587249865 0.3900615410818891 0
217 0.1602382876273581 0.06563848545781348 0
218 0.6981724742468761 0.03254956163997336 0
219 0.3203661680032108 0.07074325782608715 0
220 0.4635172495070559 0.4073590894220431 0
221 0.2799143877320108 0.1458954635906671 0
222 0.584134163163511 0.1466482028422195 0
223 0.4072118717774652 0.3720802499690737 0
224 0.1983656594763739 0.06162541935726656 0
225 0.4933064466931901 0.1021482133995169 0
$EndNodes
$Elements
450
1 15 2 6 9 9
2 15 2 5 10 10
3 1 2 4 1 1 13
4 1 2 4 1 13 2
5 1 2 4 7 7 39
6 1 2 4 7 39 8
7 1 2 3 8 8 40
8 1 2 3 8 40 41
9 1 2 3 8 41 42
10 1 2 3 8 42 43
11 1 2 3 8 43 44
12 1 2 3 8 44 45
13 1 2 3 8 45 46
14 1 2 3 8 46 47
15 1 2 3 8 47 9
16 1 2 3 9 9 48
17 1 2 3 9 48 49
18 1 2 3 9 49 50
19 1 2 3 9 50 10
20 1 2 3 10 10 51
21 1 2 3 10 51 52
22 1 2 3 10 52 53
23 1 2 3 10 53 54
24 1 2 3 10 54 11
25 1 2 3 11 11 55
26 1 2 3 11 55 56
27 1 2 3 11 56 12
28 1 2 3 12 12 57
29 1 2 3 12 57 58
30 1 2 3 12 58 59
31 1 2 3 12 59 60
32 1 2 3 12 60 61
33 1 2 3 12 61 62
34 1 2 3 12 62 63
35 1 2 3 12 63 64
36 1 2 3 12 64 65
37 1 2 3 12 65 66
38 1 2 3 12 66 67
39 1 2 3 12 67 68
40 1 2 3 12 68 1
41 1 2 4 13 2 69
42 1 2 4 13 69 70
43 1 2 4 13 70 71
44 1 2 4 13 71 72
45 1 2 4 13 72 73
46 1 2 4 13 73 74
47 1 2 4 13 74 75
48 1 2 4 13 75 76
49 1 2 4 13 76 77
50 1 2 4 13 77 78
51 1 2 4 13 78 79
52 1 2 4 13 79 80
53 1 2 4 13 80 81
54 1 2 4 13 81 82
55 1 2 4 13 82 7
56 2 2 2 1 55 108 106
57 2 2 2 1 56 108 55
58 2 2 2 1 1 13 68
59 2 2 2 1 39 99 7
60 2 2 2 1 8 99 39
61 2 2 2 1 30 91 49
62 2 2 2 1 9 91 6
63 2 2 2 1 49 92 30
64 2 2 2 1 5 92 85
65 2 2 2 1 106 108 25
66 2 2 2 1 85 92 10
67 2 2 2 1 7 99 38
68 2 2 2 1 40 99 8
69 2 2 2 1 2 83 13
70 2 2 2 1 13 83 68
71 2 2 2 1 6 84 9
72 2 2 2 1 86 108 12
73 2 2 2 1 10 92 50
74 2 2 2 1 49 91 48
75 2 2 2 1 50 92 49
76 2 2 2 1 48 91 9
77 2 2 2 1 14 83 2
78 2 2 2 1 11 106 88
79 2 2 2 1 68 83 67
80 2 2 2 1 3 108 86
81 2 2 2 1 88 106 4
82 2 2 2 1 83 112 67
83 2 2 2 1 14 112 83
84 2 2 2 1 55 106 11
85 2 2 2 1 12 108 56
86 2 2 2 1 31 84 6
87 2 2 2 1 9 84 47
88 2 2 2 1 3 86 24
89 2 2 2 1 57 86 12
90 2 2 2 1 5 85 29
91 2 2 2 1 51 85 10
92 2 2 2 1 51 87 85
93 2 2 2 1 85 87 29
94 2 2 2 1 84 101 47
95 2 2 2 1 31 101 84
96 2 2 2 1 88 90 54
97 2 2 2 1 26 90 88
98 2 2 2 1 52 87 51
99 2 2 2 1 89 90 27
100 2 2 2 1 27 90 26
101 2 2 2 1 28 89 27
102 2 2 2 1 11 88 54
103 2 2 2 1 53 89 52
104 2 2 2 1 29 87 28
105 2 2 2 1 53 90 89
106 2 2 2 1 54 90 53
107 2 2 2 1 26 88 4
108 2 2 2 1 87 89 28
109 2 2 2 1 52 89 87
110 2 2 2 1 57 93 86
111 2 2 2 1 86 93 24
112 2 2 2 1 15 112 14
113 2 2 2 1 16 111 15
114 2 2 2 1 17 110 16
115 2 2 2 1 18 109 17
116 2 2 2 1 6 91 30
117 2 2 2 1 30 92 5
118 2 2 2 1 19 107 18
119 2 2 2 1 20 97 19
120 2 2 2 1 21 96 20
121 2 2 2 1 111 112 15
122 2 2 2 1 22 95 21
123 2 2 2 1 110 111 16
124 2 2 2 1 23 94 22
125 2 2 2 1 109 110 17
126 2 2 2 1 24 93 23
127 2 2 2 1 107 109 18
128 2 2 2 1 97 107 19
129 2 2 2 1 96 97 20
130 2 2 2 1 58 93 57
131 2 2 2 1 95 96 21
132 2 2 2 1 4 106 25
133 2 2 2 1 59 94 58
134 2 2 2 1 94 95 22
135 2 2 2 1 60 95 59
136 2 2 2 1 58 94 93
137 2 2 2 1 93 94 23
138 2 2 2 1 61 96 60
139 2 2 2 1 103 105 44
140 2 2 2 1 34 105 103
141 2 2 2 1 34 103 33
142 2 2 2 1 33 103 102
143 2 2 2 1 43 104 42
144 2 2 2 1 44 105 43
145 2 2 2 1 33 102 32
146 2 2 2 1 102 103 45
147 2 2 2 1 35 105 34
148 2 2 2 1 37 100 36
149 2 2 2 1 42 100 41
150 2 2 2 1 100 104 36
151 2 2 2 1 38 98 37
152 2 2 2 1 41 98 40
153 2 2 2 1 98 100 37
154 2 2 2 1 47 101 46
155 2 2 2 1 101 102 46
156 2 2 2 1 46 102 45
157 2 2 2 1 32 101 31
158 2 2 2 1 36 104 35
159 2 2 2 1 45 103 44
160 2 2 2 1 104 105 35
161 2 2 2 1 41 100 98
162 2 2 2 1 43 105 104
163 2 2 2 1 42 104 100
164 2 2 2 1 32 102 101
165 2 2 2 1 59 95 94
166 2 2 2 1 62 97 61
167 2 2 2 1 60 96 95
168 2 2 2 1 63 107 62
169 2 2 2 1 61 97 96
170 2 2 2 1 25 108 3
171 2 2 2 1 64 109 63
172 2 2 2 1 62 107 97
173 2 2 2 1 65 110 64
174 2 2 2 1 63 109 107
175 2 2 2 1 66 111 65
176 2 2 2 1 64 110 109
177 2 2 2 1 67 112 66
178 2 2 2 1 65 111 110
179 2 2 2 1 66 112 111
180 2 2 2 1 38 99 98
181 2 2 2 1 98 99 40
182 2 2 1 2 162 209 199
183 2 2 1 2 147 179 149
184 2 2 1 2 127 187 186
185 2 2 1 2 198 209 166
186 2 2 1 2 187 188 186
187 2 2 1 2 150 179 147
188 2 2 1 2 167 188 119
189 2 2 1 2 199 209 116
190 2 2 1 2 166 204 198
191 2 2 1 2 189 190 171
192 2 2 1 2 204 216 120
193 2 2 1 2 175 193 129
194 2 2 1 2 116 209 198
195 2 2 1 2 168 188 167
196 2 2 1 2 161 211 206
197 2 2 1 2 119 188 187
198 2 2 1 2 175 194 193
199 2 2 1 2 190 201 171
200 2 2 1 2 156 216 204
201 2 2 1 2 179 208 149
202 2 2 1 2 206 211 124
203 2 2 1 2 145 207 185
204 2 2 1 2 128 205 6
205 2 2 1 2 185 222 145
206 2 2 1 2 171 213 189
207 2 2 1 2 30 128 6
208 2 2 1 2 176 210 152
209 2 2 1 2 2 69 14
210 2 2 1 2 152 219 176
211 2 2 1 2 120 216 214
212 2 2 1 2 199 211 162
213 2 2 1 2 198 204 120
214 2 2 1 2 157 166 165
215 2 2 1 2 186 202 127
216 2 2 1 2 165 169 157
217 2 2 1 2 129 224 175
218 2 2 1 2 136 169 165
219 2 2 1 2 193 194 123
220 2 2 1 2 6 205 31
221 2 2 1 2 156 204 157
222 2 2 1 2 136 165 164
223 2 2 1 2 157 169 155
224 2 2 1 2 155 169 131
225 2 2 1 2 191 221 154
226 2 2 1 2 136 164 137
227 2 2 1 2 160 162 161
228 2 2 1 2 125 130 32
229 2 2 1 2 150 210 179
230 2 2 1 2 125 156 155
231 2 2 1 2 125 155 130
232 2 2 1 2 133 169 136
233 2 2 1 2 144 172 148
234 2 2 1 2 130 155 131
235 2 2 1 2 156 157 155
236 2 2 1 2 160 161 159
237 2 2 1 2 194 197 153
238 2 2 1 2 175 197 194
239 2 2 1 2 165 166 163
240 2 2 1 2 164 165 163
241 2 2 1 2 142 160 159
242 2 2 1 2 31 125 32
243 2 2 1 2 172 173 148
244 2 2 1 2 160 164 163
245 2 2 1 2 133 136 135
246 2 2 1 2 142 164 160
247 2 2 1 2 137 164 142
248 2 2 1 2 141 158 146
249 2 2 1 2 131 169 133
250 2 2 1 2 160 163 162
251 2 2 1 2 119 196 167
252 2 2 1 2 130 131 115
253 2 2 1 2 137 142 139
254 2 2 1 2 33 130 115
255 2 2 1 2 146 172 144
256 2 2 1 2 32 130 33
257 2 2 1 2 151 173 154
258 2 2 1 2 142 158 139
259 2 2 1 2 148 173 151
260 2 2 1 2 142 159 158
261 2 2 1 2 158 170 146
262 2 2 1 2 35 196 119
263 2 2 1 2 121 174 73
264 2 2 1 2 174 175 126
265 2 2 1 2 136 137 135
266 2 2 1 2 131 133 132
267 2 2 1 2 126 177 71
268 2 2 1 2 117 176 75
269 2 2 1 2 178 179 117
270 2 2 1 2 139 158 141
271 2 2 1 2 72 174 126
272 2 2 1 2 72 126 71
273 2 2 1 2 77 180 178
274 2 2 1 2 122 183 80
275 2 2 1 2 76 178 117
276 2 2 1 2 151 154 153
277 2 2 1 2 122 184 183
278 2 2 1 2 167 196 132
279 2 2 1 2 131 132 115
280 2 2 1 2 122 186 184
281 2 2 1 2 114 181 180
282 2 2 1 2 132 196 115
283 2 2 1 2 71 177 70
284 2 2 1 2 74 176 121
285 2 2 1 2 80 183 79
286 2 2 1 2 141 146 144
287 2 2 1 2 119 187 36
288 2 2 1 2 74 121 73
289 2 2 1 2 76 117 75
290 2 2 1 2 114 180 78
291 2 2 1 2 77 178 76
292 2 2 1 2 33 115 34
293 2 2 1 2 184 185 182
294 2 2 1 2 73 174 72
295 2 2 1 2 79 114 78
296 2 2 1 2 75 176 74
297 2 2 1 2 114 182 181
298 2 2 1 2 37 187 127
299 2 2 1 2 35 119 36
300 2 2 1 2 78 180 77
301 2 2 1 2 170 171 146
302 2 2 1 2 37 127 38
303 2 2 1 2 148 151 150
304 2 2 1 2 36 187 37
305 2 2 1 2 144 148 147
306 2 2 1 2 141 144 143
307 2 2 1 2 139 141 140
308 2 2 1 2 151 153 152
309 2 2 1 2 79 183 114
310 2 2 1 2 133 135 134
311 2 2 1 2 81 122 80
312 2 2 1 2 183 184 182
313 2 2 1 2 133 134 132
314 2 2 1 2 34 196 35
315 2 2 1 2 22 189 23
316 2 2 1 2 141 143 140
317 2 2 1 2 144 147 143
318 2 2 1 2 171 172 146
319 2 2 1 2 148 150 147
320 2 2 1 2 114 183 182
321 2 2 1 2 21 190 22
322 2 2 1 2 23 113 24
323 2 2 1 2 145 192 138
324 2 2 1 2 139 140 138
325 2 2 1 2 151 152 150
326 2 2 1 2 20 118 21
327 2 2 1 2 137 139 138
328 2 2 1 2 121 197 174
329 2 2 1 2 19 191 20
330 2 2 1 2 140 145 138
331 2 2 1 2 18 123 19
332 2 2 1 2 147 149 143
333 2 2 1 2 22 190 189
334 2 2 1 2 23 189 113
335 2 2 1 2 115 196 34
336 2 2 1 2 135 192 134
337 2 2 1 2 17 193 18
338 2 2 1 2 118 190 21
339 2 2 1 2 134 192 168
340 2 2 1 2 16 129 17
341 2 2 1 2 143 195 140
342 2 2 1 2 20 191 118
343 2 2 1 2 140 195 145
344 2 2 1 2 134 168 167
345 2 2 1 2 149 195 143
346 2 2 1 2 134 167 132
347 2 2 1 2 123 191 19
348 2 2 1 2 159 170 158
349 2 2 1 2 138 192 135
350 2 2 1 2 18 193 123
351 2 2 1 2 129 193 17
352 2 2 1 2 125 205 156
353 2 2 1 2 157 204 166
354 2 2 1 2 137 138 135
355 2 2 1 2 174 197 175
356 2 2 1 2 162 211 161
357 2 2 1 2 26 116 27
358 2 2 1 2 4 199 26
359 2 2 1 2 5 128 30
360 2 2 1 2 27 198 28
361 2 2 1 2 171 201 172
362 2 2 1 2 28 120 29
363 2 2 1 2 177 203 70
364 2 2 1 2 3 124 25
365 2 2 1 2 26 199 116
366 2 2 1 2 116 198 27
367 2 2 1 2 123 221 191
368 2 2 1 2 122 202 186
369 2 2 1 2 82 202 81
370 2 2 1 2 28 198 120
371 2 2 1 2 159 200 170
372 2 2 1 2 168 212 188
373 2 2 1 2 118 201 190
374 2 2 1 2 178 208 179
375 2 2 1 2 188 212 186
376 2 2 1 2 181 208 180
377 2 2 1 2 182 207 181
378 2 2 1 2 70 203 69
379 2 2 1 2 163 209 162
380 2 2 1 2 206 223 113
381 2 2 1 2 170 213 171
382 2 2 1 2 195 207 145
383 2 2 1 2 177 217 203
384 2 2 1 2 161 200 159
385 2 2 1 2 172 201 173
386 2 2 1 2 117 210 176
387 2 2 1 2 81 202 122
388 2 2 1 2 14 203 15
389 2 2 1 2 29 214 5
390 2 2 1 2 113 223 24
391 2 2 1 2 200 206 113
392 2 2 1 2 186 212 184
393 2 2 1 2 176 219 121
394 2 2 1 2 5 214 128
395 2 2 1 2 175 224 126
396 2 2 1 2 38 218 7
397 2 2 1 2 7 218 82
398 2 2 1 2 31 205 125
399 2 2 1 2 16 217 129
400 2 2 1 2 145 222 192
401 2 2 1 2 69 203 14
402 2 2 1 2 168 222 212
403 2 2 1 2 180 208 178
404 2 2 1 2 185 207 182
405 2 2 1 2 153 219 152
406 2 2 1 2 118 215 201
407 2 2 1 2 197 219 153
408 2 2 1 2 154 215 191
409 2 2 1 2 201 215 173
410 2 2 1 2 152 210 150
411 2 2 1 2 166 209 163
412 2 2 1 2 161 206 200
413 2 2 1 2 194 221 123
414 2 2 1 2 153 221 194
415 2 2 1 2 217 224 129
416 2 2 1 2 154 221 153
417 2 2 1 2 179 210 117
418 2 2 1 2 205 216 156
419 2 2 1 2 207 225 181
420 2 2 1 2 181 225 208
421 2 2 1 2 203 217 15
422 2 2 1 2 189 213 113
423 2 2 1 2 184 212 185
424 2 2 1 2 212 222 185
425 2 2 1 2 25 220 4
426 2 2 1 2 24 223 3
427 2 2 1 2 191 215 118
428 2 2 1 2 3 223 124
429 2 2 1 2 200 213 170
430 2 2 1 2 173 215 154
431 2 2 1 2 82 218 202
432 2 2 1 2 195 225 207
433 2 2 1 2 124 220 25
434 2 2 1 2 120 214 29
435 2 2 1 2 15 217 16
436 2 2 1 2 113 213 200
437 2 2 1 2 127 218 38
438 2 2 1 2 208 225 149
439 2 2 1 2 121 219 197
440 2 2 1 2 128 216 205
441 2 2 1 2 4 220 199
442 2 2 1 2 126 224 177
443 2 2 1 2 124 223 206
444 2 2 1 2 192 222 168
445 2 2 1 2 149 225 195
446 2 2 1 2 202 218 127
447 2 2 1 2 177 224 217
448 2 2 1 2 214 216 128
449 2 2 1 2 199 220 211
450 2 2 1 2 211 220 124
$EndElements
