$MeshFormat
2.2 0 8
$EndMeshFormat
$PhysicalNames
7
0 6 "separation-inf"
0 7 "separation-sup"
1 4 "pressure"
1 5 "fixed"
2 1 "body"
2 2 "cover"
2 3 "scar"
$EndPhysicalNames
$Nodes
227
1 0.7806999999999999 0.4 0
2 0.7150232168611965 0.4939250594053539 0
3 0.6355212229855233 0.4977695152257399 0
4 0.4727903172005901 0.4892411498328348 0
5 0.3657340441691846 0.4358648610726302 0
6 0 0 0
7 0.06527036446661391 -1.301042606982605e-16 0
8 0.4040362663251333 0.4037254805883031 0
9 0.4754071150127369 0.4393096730951061 0
10 0.6780832021878531 0.4499314767377288 0
11 0.7306999999999999 0.4 0
12 0.7306999999999998 0 0
13 0.7806999999999999 0 0
14 0.6754664043757063 0.4998629534754574 0
15 0.7725386351271509 0.4395684861724836 0
16 0.7493866980403595 0.4726783152825687 0
17 0.6925662060811437 0.4637022457717258 0
18 0.6549573196753071 0.4655208882383192 0
19 0.5948384965392901 0.4956374238775136 0
20 0.5541557700930569 0.4935053325292874 0
21 0.5134730436468236 0.4913732411810611 0
22 0.4326314298734859 0.4815562159967983 0
23 0.3960397269295293 0.4633122659015873 0
24 0.3376006561561704 0.4023367948362742 0
25 0.3094672681431563 0.368808728599918 0
26 0.2813338801301422 0.3352806623635619 0
27 0.253200492117128 0.3017525961272058 0
28 0.2250671041041138 0.2682245298908497 0
29 0.1969337160910996 0.2346964636544934 0
30 0.1688003280780853 0.2011683974181372 0
31 0.1406669400650711 0.167640331181781 0
32 0.1125335520520569 0.1341122649454247 0
33 0.08440016403904266 0.1005841987090685 0
34 0.05626677602602848 0.06705613247271236 0
35 0.02813338801301424 0.03352806623635607 0
36 0.03263518223330691 0 0
37 0.0935008562881573 0.03364379004902507 0
38 0.1217313481097007 0.06728758009805041 0
39 0.149961839931244 0.1009313701470757 0
40 0.1781923317527872 0.1345751601961009 0
41 0.2064228235743304 0.1682189502451262 0
42 0.2346533153958736 0.2018627402941514 0
43 0.2628838072174169 0.2355065303431766 0
44 0.2911142990389601 0.2691503203922018 0
45 0.3193447908605034 0.3027941104412272 0
46 0.3475752826820468 0.3364379004902526 0
47 0.3758057745035902 0.370081690539278 0
48 0.4360209293260504 0.4289401557798515 0
49 0.5159423324477601 0.4414340338236307 0
50 0.5564775498827833 0.4435583945521552 0
51 0.5970127673178066 0.4456827552806797 0
52 0.6375479847528298 0.4478071160092043 0
53 0.7151177287846878 0.4362687185506142 0
54 0.7306999999999999 0.3555555555555555 0
55 0.7306999999999999 0.3111111111111111 0
56 0.7306999999999999 0.2666666666666666 0
57 0.7306999999999999 0.222222222222222 0
58 0.7306999999999999 0.1777777777777776 0
59 0.7306999999999999 0.1333333333333332 0
60 0.7306999999999999 0.08888888888888891 0
61 0.7306999999999999 0.04444444444444462 0
62 0.7556999999999999 0 0
63 0.7806999999999999 0.04444444444444449 0
64 0.7806999999999999 0.08888888888888896 0
65 0.7806999999999999 0.1333333333333334 0
66 0.7806999999999999 0.177777777777778 0
67 0.7806999999999999 0.2222222222222225 0
68 0.7806999999999999 0.2666666666666668 0
69 0.7806999999999999 0.3111111111111111 0
70 0.7806999999999999 0.3555555555555554 0
71 0.1096323401688398 0 0
72 0.1539943158710656 0 0
73 0.1983562915732915 0 0
74 0.2427182672755173 0 0
75 0.287080242977743 0 0
76 0.3314422186799688 0 0
77 0.3758041943821944 0 0
78 0.4201661700844201 0 0
79 0.4645281457866458 0 0
80 0.5088901214888715 0 0
81 0.5532520971910971 0 0
82 0.5976140728933228 0 0
83 0.6419760485955485 0 0
84 0.6863380242977741 0 0
85 0.6164758440009172 0.4719746171514641 0
86 0.06080035544864815 0.0337314661311639 0
87 0.7227496739165391 0.4607828472143523 0
88 0.7556999999999999 0.3745383867832847 0
89 0.7446328391810406 0.4293346964720133 0
90 0.3719458664632959 0.4026424925532855 0
91 0.4937343767607076 0.464168519003929 0
92 0.5348710104495258 0.4672511592692685 0
93 0.57563857304723 0.469601613776728 0
94 0.3428076554918761 0.3693945043098428 0
95 0.3144661331087265 0.3358815042556914 0
96 0.2862574504303402 0.3023242866692463 0
97 0.2580709659761329 0.2687596505969094 0
98 0.2298882394993401 0.2351937292130815 0
99 0.7556999999999998 0.3333333333333333 0
100 0.7556999999999999 0.2888888888888889 0
101 0.7557 0.06666666666666671 0
102 0.7556999999999999 0.02592592592592596 0
103 0.7556999999999999 0.1111111111111112 0
104 0.7556999999999998 0.2444444444444444 0
105 0.7556999999999999 0.1555555555555556 0
106 0.7556999999999999 0.2 0
107 0.4513441684024506 0.4562517490511979 0
108 0.2017061976255016 0.2016275447134961 0
109 0.4058638593240269 0.4343007033155316 0
110 0.1735243281255404 0.1680612674641085 0
111 0.1453425456279437 0.1344949258592446 0
112 0.117160835904126 0.1009285246312923 0
113 0.08897672263595047 0.0672052820152188 0
114 0.6354676780240579 0.4672636206226131 0
115 0.3926524438970528 0.3326672637231023 0
116 0.5310541005789535 0.0384087392505979 0
117 0.6922801694762367 0.2444956382089968 0
118 0.538046308727358 0.4139625354256451 0
119 0.398911526196253 0.03786993735287036 0
120 0.3050545908643556 0.229381629793007 0
121 0.6911705789856533 0.1539130655535613 0
122 0.6191201263930225 0.411640407598286 0
123 0.3073489564011792 0.03735594404301534 0
124 0.6193911362629452 0.03822890437966914 0
125 0.2473332808391798 0.1586993745612886 0
126 0.4361916653460755 0.390571396819915 0
127 0.6928535778983971 0.3323704173557215 0
128 0.2205547567551621 0.03585926076755452 0
129 0.6926102296205277 0.06517659869431985 0
130 0.688956357556857 0.4105381712861156 0
131 0.1911859263698168 0.09461167601655829 0
132 0.692458670968718 0.2887336167566563 0
133 0.6540556520510616 0.266679581494033 0
134 0.6539239251275455 0.2224481964501072 0
135 0.6157041487312175 0.2446382748469499 0
136 0.6155421399247927 0.2004876211809313 0
137 0.5774362340867139 0.2227091279606249 0
138 0.5772795515331276 0.2668652431529882 0
139 0.5392602528237351 0.2449827038188949 0
140 0.5390884381679378 0.2008702614740495 0
141 0.5011001932456938 0.2231938709598979 0
142 0.5007318213479375 0.1790777801346827 0
143 0.4627414144548003 0.2014492393266288 0
144 0.5013605722461243 0.2671941338446309 0
145 0.462339499123401 0.1573197729736293 0
146 0.4242792466837518 0.1797765638485743 0
147 0.5445042232750248 0.1526208292959315 0
148 0.4248353424790816 0.2239695761476604 0
149 0.4233658536170161 0.1331288902093495 0
150 0.3857617696595666 0.157649721433678 0
151 0.4616210472320469 0.1131510517071488 0
152 0.3842099088099223 0.1115632392487104 0
153 0.3472286830612834 0.1357740663458101 0
154 0.3493048007965088 0.0907516673114821 0
155 0.3087916649171301 0.1141316776549753 0
156 0.3117064231332963 0.1599995579268891 0
157 0.6543419852969165 0.3106799726300389 0
158 0.6555227910757696 0.3512781838796804 0
159 0.6148162151491527 0.3314291960870054 0
160 0.4632170159347789 0.2455023890749908 0
161 0.4640785508323692 0.2893044922662323 0
162 0.5014762485256689 0.3108457317310905 0
163 0.4666651086274 0.3324324923026281 0
164 0.5035661583547089 0.3548291693445018 0
165 0.5396279284993211 0.3317018050159979 0
166 0.5391212163735508 0.2889999021277528 0
167 0.5767984222224471 0.3105887218223223 0
168 0.5771490307194087 0.354283739769099 0
169 0.6526145719097114 0.1760200659940206 0
170 0.6153464984053285 0.1562771015792738 0
171 0.6154993291639872 0.2884801650055563 0
172 0.4276892309644724 0.2680675818236772 0
173 0.3833136119630982 0.2521718202950657 0
174 0.3861004327233279 0.202578297470978 0
175 0.3491426479211269 0.1786457277703684 0
176 0.264521648095058 0.03775507817539131 0
177 0.2353245509795616 0.07842487453492503 0
178 0.3520802041214231 0.04433326492819595 0
179 0.1763745954596956 0.0342119615578324 0
180 0.4425070655394468 0.0375999771013128 0
181 0.4223637036185415 0.08277973837612007 0
182 0.4867356299589597 0.03755577722698061 0
183 0.5104520936328878 0.07373849150921008 0
184 0.5540618499166963 0.0759470610891273 0
185 0.5754800293062469 0.03823864346082467 0
186 0.5963907566513137 0.07591403491264681 0
187 0.5709986163147703 0.1125225284538551 0
188 0.6439987436090379 0.07858787601451622 0
189 0.6914914618798641 0.1100678826727775 0
190 0.6487810684926038 0.125828332517746 0
191 0.3625964136333211 0.2951676823869545 0
192 0.335094764500048 0.2618308072627841 0
193 0.2793721778774692 0.1891914108170162 0
194 0.5772144037509883 0.1785706477957135 0
195 0.2214439545256044 0.1269487321418283 0
196 0.2645145239876541 0.1155929128227537 0
197 0.4993975518183513 0.1365499411726794 0
198 0.6918982075831911 0.199479494367781 0
199 0.2834774619708289 0.07566761333775579 0
200 0.5772674989325588 0.4016563573493389 0
201 0.4999614199681011 0.4030450568121664 0
202 0.4297393600876807 0.310863677604815 0
203 0.3466151737877755 0.220443809334834 0
204 0.6628908885030826 0.03645026330701928 0
205 0.133146972263382 0.03231228942230119 0
206 0.6177720423819631 0.3728069461837453 0
207 0.6950773535090924 0.372811344733428 0
208 0.4345633569743171 0.3528524927744577 0
209 0.5286549890947931 0.1092452942372205 0
210 0.4679882458521952 0.07416688736532101 0
211 0.5399675967888291 0.3747103770529366 0
212 0.3813740287085298 0.07345956944347576 0
213 0.4700051178823156 0.3749291646031765 0
214 0.6099416411060942 0.1159630127200429 0
215 0.399198212109125 0.291787605166723 0
216 0.6572928525824857 0.4212941928100793 0
217 0.3161762728017913 0.1942746472406799 0
218 0.655623587249865 0.3900615410818891 0
219 0.1602558487686653 0.06564674554134509 0
220 0.6981724742468761 0.03254956163997336 0
221 0.3203634274443899 0.07074519279547375 0
222 0.4635172495070559 0.4073590894220431 0
223 0.2799148474087526 0.1459057341337267 0
224 0.5841341631635109 0.1466482028422195 0
225 0.4072118717774653 0.3720802499690737 0
226 0.1983656594763739 0.06162541935726656 0
227 0.49330644669319 0.1021482133995169 0
$EndNodes
$Elements
454
1 15 2 6 1 1
2 15 2 7 14 14
3 1 2 4 1 1 15
4 1 2 4 1 15 16
5 1 2 4 1 16 2
6 1 2 4 3 3 19
7 1 2 4 3 19 20
8 1 2 4 3 20 21
9 1 2 4 3 21 4
10 1 2 4 4 4 22
11 1 2 4 4 22 23
12 1 2 4 4 23 5
13 1 2 4 5 5 24
14 1 2 4 5 24 25
15 1 2 4 5 25 26
16 1 2 4 5 26 27
17 1 2 4 5 27 28
18 1 2 4 5 28 29
19 1 2 4 5 29 30
20 1 2 4 5 30 31
21 1 2 4 5 31 32
22 1 2 4 5 32 33
23 1 2 4 5 33 34
24 1 2 4 5 34 35
25 1 2 4 5 35 6
26 1 2 5 6 6 36
27 1 2 5 6 36 7
28 1 2 5 12 12 62
29 1 2 5 12 62 13
30 1 2 4 13 13 63
31 1 2 4 13 63 64
32 1 2 4 13 64 65
33 1 2 4 13 65 66
34 1 2 4 13 66 67
35 1 2 4 13 67 68
36 1 2 4 13 68 69
37 1 2 4 13 69 70
38 1 2 4 13 70 1
39 1 2 4 14 2 14
40 1 2 4 15 14 3
41 1 2 5 16 7 71
42 1 2 5 16 71 72
43 1 2 5 16 72 73
44 1 2 5 16 73 74
45 1 2 5 16 74 75
46 1 2 5 16 75 76
47 1 2 5 16 76 77
48 1 2 5 16 77 78
49 1 2 5 16 78 79
50 1 2 5 16 79 80
51 1 2 5 16 80 81
52 1 2 5 16 81 82
53 1 2 5 16 82 83
54 1 2 5 16 83 84
55 1 2 5 16 84 12
56 2 2 2 1 22 109 107
57 2 2 2 1 23 109 22
58 2 2 2 1 35 6 36
59 2 2 2 1 62 102 12
60 2 2 2 1 13 102 62
61 2 2 2 1 87 89 16
62 2 2 2 1 17 87 2
63 2 2 2 1 1 89 11
64 2 2 2 1 53 87 17
65 2 2 2 1 53 89 87
66 2 2 2 1 52 85 51
67 2 2 2 1 107 109 48
68 2 2 2 1 12 102 61
69 2 2 2 1 63 102 13
70 2 2 2 1 7 86 36
71 2 2 2 1 3 114 18
72 2 2 2 1 36 86 35
73 2 2 2 1 11 88 1
74 2 2 2 1 52 114 85
75 2 2 2 1 16 89 15
76 2 2 2 1 15 89 1
77 2 2 2 1 90 109 5
78 2 2 2 1 37 86 7
79 2 2 2 1 35 86 34
80 2 2 2 1 4 107 91
81 2 2 2 1 8 109 90
82 2 2 2 1 19 85 3
83 2 2 2 1 91 107 9
84 2 2 2 1 2 87 16
85 2 2 2 1 85 93 51
86 2 2 2 1 19 93 85
87 2 2 2 1 86 113 34
88 2 2 2 1 37 113 86
89 2 2 2 1 22 107 4
90 2 2 2 1 5 109 23
91 2 2 2 1 54 88 11
92 2 2 2 1 11 89 53
93 2 2 2 1 1 88 70
94 2 2 2 1 8 90 47
95 2 2 2 1 24 90 5
96 2 2 2 1 20 93 19
97 2 2 2 1 88 99 70
98 2 2 2 1 54 99 88
99 2 2 2 1 21 92 20
100 2 2 2 1 4 91 21
101 2 2 2 1 49 91 9
102 2 2 2 1 50 92 49
103 2 2 2 1 49 92 91
104 2 2 2 1 51 93 50
105 2 2 2 1 92 93 20
106 2 2 2 1 24 94 90
107 2 2 2 1 50 93 92
108 2 2 2 1 91 92 21
109 2 2 2 1 90 94 47
110 2 2 2 1 38 113 37
111 2 2 2 1 39 112 38
112 2 2 2 1 40 111 39
113 2 2 2 1 41 110 40
114 2 2 2 1 42 108 41
115 2 2 2 1 43 98 42
116 2 2 2 1 44 97 43
117 2 2 2 1 112 113 38
118 2 2 2 1 45 96 44
119 2 2 2 1 111 112 39
120 2 2 2 1 46 95 45
121 2 2 2 1 110 111 40
122 2 2 2 1 47 94 46
123 2 2 2 1 108 110 41
124 2 2 2 1 98 108 42
125 2 2 2 1 97 98 43
126 2 2 2 1 25 94 24
127 2 2 2 1 96 97 44
128 2 2 2 1 9 107 48
129 2 2 2 1 26 95 25
130 2 2 2 1 95 96 45
131 2 2 2 1 27 96 26
132 2 2 2 1 25 95 94
133 2 2 2 1 94 95 46
134 2 2 2 1 28 97 27
135 2 2 2 1 105 106 58
136 2 2 2 1 100 104 68
137 2 2 2 1 56 104 100
138 2 2 2 1 66 106 105
139 2 2 2 1 66 105 65
140 2 2 2 1 57 104 56
141 2 2 2 1 58 106 57
142 2 2 2 1 103 105 59
143 2 2 2 1 99 100 69
144 2 2 2 1 56 100 55
145 2 2 2 1 60 103 59
146 2 2 2 1 65 103 64
147 2 2 2 1 67 106 66
148 2 2 2 1 61 101 60
149 2 2 2 1 68 104 67
150 2 2 2 1 70 99 69
151 2 2 2 1 101 103 60
152 2 2 2 1 64 101 63
153 2 2 2 1 69 100 68
154 2 2 2 1 59 105 58
155 2 2 2 1 55 99 54
156 2 2 2 1 55 100 99
157 2 2 2 1 64 103 101
158 2 2 2 1 65 105 103
159 2 2 2 1 57 106 104
160 2 2 2 1 104 106 67
161 2 2 2 1 26 96 95
162 2 2 2 1 29 98 28
163 2 2 2 1 27 97 96
164 2 2 2 1 30 108 29
165 2 2 2 1 28 98 97
166 2 2 2 1 48 109 8
167 2 2 2 1 31 110 30
168 2 2 2 1 29 108 98
169 2 2 2 1 32 111 31
170 2 2 2 1 30 110 108
171 2 2 2 1 33 112 32
172 2 2 2 1 31 111 110
173 2 2 2 1 34 113 33
174 2 2 2 1 32 112 111
175 2 2 2 1 33 113 112
176 2 2 2 1 85 114 3
177 2 2 2 1 18 114 52
178 2 2 2 1 61 102 101
179 2 2 2 1 101 102 63
180 2 2 2 1 18 10 17
181 2 2 2 1 10 53 17
182 2 2 2 1 18 52 10
183 2 2 3 2 14 3 18
184 2 2 3 2 18 17 14
185 2 2 3 2 17 2 14
186 2 2 1 3 164 211 201
187 2 2 1 3 149 181 151
188 2 2 1 3 129 189 188
189 2 2 1 3 200 211 168
190 2 2 1 3 189 190 188
191 2 2 1 3 152 181 149
192 2 2 1 3 169 190 121
193 2 2 1 3 201 211 118
194 2 2 1 3 168 206 200
195 2 2 1 3 191 192 173
196 2 2 1 3 206 218 122
197 2 2 1 3 177 195 131
198 2 2 1 3 118 211 200
199 2 2 1 3 170 190 169
200 2 2 1 3 163 213 208
201 2 2 1 3 121 190 189
202 2 2 1 3 177 196 195
203 2 2 1 3 192 203 173
204 2 2 1 3 158 218 206
205 2 2 1 3 181 210 151
206 2 2 1 3 208 213 126
207 2 2 1 3 147 209 187
208 2 2 1 3 130 207 11
209 2 2 1 3 187 224 147
210 2 2 1 3 173 215 191
211 2 2 1 3 53 130 11
212 2 2 1 3 178 212 154
213 2 2 1 3 37 7 71
214 2 2 1 3 154 221 178
215 2 2 1 3 122 218 216
216 2 2 1 3 201 213 164
217 2 2 1 3 200 206 122
218 2 2 1 3 159 168 167
219 2 2 1 3 188 204 129
220 2 2 1 3 167 171 159
221 2 2 1 3 131 226 177
222 2 2 1 3 138 171 167
223 2 2 1 3 195 196 125
224 2 2 1 3 11 207 54
225 2 2 1 3 158 206 159
226 2 2 1 3 138 167 166
227 2 2 1 3 159 171 157
228 2 2 1 3 157 171 133
229 2 2 1 3 138 166 139
230 2 2 1 3 193 223 156
231 2 2 1 3 162 164 163
232 2 2 1 3 127 132 55
233 2 2 1 3 152 212 181
234 2 2 1 3 127 158 157
235 2 2 1 3 127 157 132
236 2 2 1 3 135 171 138
237 2 2 1 3 146 174 150
238 2 2 1 3 132 157 133
239 2 2 1 3 158 159 157
240 2 2 1 3 162 163 161
241 2 2 1 3 196 199 155
242 2 2 1 3 167 168 165
243 2 2 1 3 177 199 196
244 2 2 1 3 166 167 165
245 2 2 1 3 144 162 161
246 2 2 1 3 54 127 55
247 2 2 1 3 174 175 150
248 2 2 1 3 162 166 165
249 2 2 1 3 135 138 137
250 2 2 1 3 144 166 162
251 2 2 1 3 139 166 144
252 2 2 1 3 143 160 148
253 2 2 1 3 133 171 135
254 2 2 1 3 162 165 164
255 2 2 1 3 121 198 169
256 2 2 1 3 132 133 117
257 2 2 1 3 139 144 141
258 2 2 1 3 56 132 117
259 2 2 1 3 148 174 146
260 2 2 1 3 55 132 56
261 2 2 1 3 153 175 156
262 2 2 1 3 144 160 141
263 2 2 1 3 150 175 153
264 2 2 1 3 176 177 128
265 2 2 1 3 144 161 160
266 2 2 1 3 160 172 148
267 2 2 1 3 74 176 128
268 2 2 1 3 58 198 121
269 2 2 1 3 138 139 137
270 2 2 1 3 133 135 134
271 2 2 1 3 128 179 73
272 2 2 1 3 119 178 77
273 2 2 1 3 180 181 119
274 2 2 1 3 141 160 143
275 2 2 1 3 74 128 73
276 2 2 1 3 79 182 180
277 2 2 1 3 124 185 82
278 2 2 1 3 78 180 119
279 2 2 1 3 153 156 155
280 2 2 1 3 124 186 185
281 2 2 1 3 169 198 134
282 2 2 1 3 123 176 75
283 2 2 1 3 133 134 117
284 2 2 1 3 124 188 186
285 2 2 1 3 116 183 182
286 2 2 1 3 134 198 117
287 2 2 1 3 73 179 72
288 2 2 1 3 76 178 123
289 2 2 1 3 82 185 81
290 2 2 1 3 143 148 146
291 2 2 1 3 121 189 59
292 2 2 1 3 75 176 74
293 2 2 1 3 76 123 75
294 2 2 1 3 78 119 77
295 2 2 1 3 116 182 80
296 2 2 1 3 79 180 78
297 2 2 1 3 56 117 57
298 2 2 1 3 186 187 184
299 2 2 1 3 81 116 80
300 2 2 1 3 77 178 76
301 2 2 1 3 116 184 183
302 2 2 1 3 60 189 129
303 2 2 1 3 58 121 59
304 2 2 1 3 80 182 79
305 2 2 1 3 172 173 148
306 2 2 1 3 60 129 61
307 2 2 1 3 150 153 152
308 2 2 1 3 59 189 60
309 2 2 1 3 146 150 149
310 2 2 1 3 143 146 145
311 2 2 1 3 141 143 142
312 2 2 1 3 153 155 154
313 2 2 1 3 81 185 116
314 2 2 1 3 135 137 136
315 2 2 1 3 83 124 82
316 2 2 1 3 185 186 184
317 2 2 1 3 135 136 134
318 2 2 1 3 57 198 58
319 2 2 1 3 45 191 46
320 2 2 1 3 143 145 142
321 2 2 1 3 146 149 145
322 2 2 1 3 173 174 148
323 2 2 1 3 150 152 149
324 2 2 1 3 116 185 184
325 2 2 1 3 44 192 45
326 2 2 1 3 46 115 47
327 2 2 1 3 147 194 140
328 2 2 1 3 141 142 140
329 2 2 1 3 153 154 152
330 2 2 1 3 43 120 44
331 2 2 1 3 139 141 140
332 2 2 1 3 42 193 43
333 2 2 1 3 142 147 140
334 2 2 1 3 41 125 42
335 2 2 1 3 149 151 145
336 2 2 1 3 45 192 191
337 2 2 1 3 46 191 115
338 2 2 1 3 117 198 57
339 2 2 1 3 137 194 136
340 2 2 1 3 40 195 41
341 2 2 1 3 120 192 44
342 2 2 1 3 136 194 170
343 2 2 1 3 39 131 40
344 2 2 1 3 145 197 142
345 2 2 1 3 43 193 120
346 2 2 1 3 142 197 147
347 2 2 1 3 123 199 176
348 2 2 1 3 136 170 169
349 2 2 1 3 151 197 145
350 2 2 1 3 136 169 134
351 2 2 1 3 125 193 42
352 2 2 1 3 161 172 160
353 2 2 1 3 140 194 137
354 2 2 1 3 41 195 125
355 2 2 1 3 131 195 40
356 2 2 1 3 127 207 158
357 2 2 1 3 159 206 168
358 2 2 1 3 139 140 137
359 2 2 1 3 176 199 177
360 2 2 1 3 164 213 163
361 2 2 1 3 49 118 50
362 2 2 1 3 9 201 49
363 2 2 1 3 10 130 53
364 2 2 1 3 50 200 51
365 2 2 1 3 173 203 174
366 2 2 1 3 51 122 52
367 2 2 1 3 8 126 48
368 2 2 1 3 49 201 118
369 2 2 1 3 179 205 72
370 2 2 1 3 118 200 50
371 2 2 1 3 125 223 193
372 2 2 1 3 124 204 188
373 2 2 1 3 84 204 83
374 2 2 1 3 51 200 122
375 2 2 1 3 161 202 172
376 2 2 1 3 170 214 190
377 2 2 1 3 120 203 192
378 2 2 1 3 180 210 181
379 2 2 1 3 190 214 188
380 2 2 1 3 183 210 182
381 2 2 1 3 72 205 71
382 2 2 1 3 184 209 183
383 2 2 1 3 165 211 164
384 2 2 1 3 208 225 115
385 2 2 1 3 172 215 173
386 2 2 1 3 197 209 147
387 2 2 1 3 163 202 161
388 2 2 1 3 174 203 175
389 2 2 1 3 119 212 178
390 2 2 1 3 37 205 38
391 2 2 1 3 83 204 124
392 2 2 1 3 179 219 205
393 2 2 1 3 52 216 10
394 2 2 1 3 115 225 47
395 2 2 1 3 202 208 115
396 2 2 1 3 188 214 186
397 2 2 1 3 178 221 123
398 2 2 1 3 10 216 130
399 2 2 1 3 177 226 128
400 2 2 1 3 71 205 37
401 2 2 1 3 61 220 12
402 2 2 1 3 12 220 84
403 2 2 1 3 54 207 127
404 2 2 1 3 39 219 131
405 2 2 1 3 147 224 194
406 2 2 1 3 170 224 214
407 2 2 1 3 182 210 180
408 2 2 1 3 187 209 184
409 2 2 1 3 120 217 203
410 2 2 1 3 155 221 154
411 2 2 1 3 156 217 193
412 2 2 1 3 199 221 155
413 2 2 1 3 203 217 175
414 2 2 1 3 154 212 152
415 2 2 1 3 168 211 165
416 2 2 1 3 163 208 202
417 2 2 1 3 196 223 125
418 2 2 1 3 155 223 196
419 2 2 1 3 219 226 131
420 2 2 1 3 156 223 155
421 2 2 1 3 181 212 119
422 2 2 1 3 207 218 158
423 2 2 1 3 209 227 183
424 2 2 1 3 183 227 210
425 2 2 1 3 191 215 115
426 2 2 1 3 205 219 38
427 2 2 1 3 186 214 187
428 2 2 1 3 214 224 187
429 2 2 1 3 48 222 9
430 2 2 1 3 47 225 8
431 2 2 1 3 193 217 120
432 2 2 1 3 8 225 126
433 2 2 1 3 202 215 172
434 2 2 1 3 175 217 156
435 2 2 1 3 84 220 204
436 2 2 1 3 197 227 209
437 2 2 1 3 126 222 48
438 2 2 1 3 122 216 52
439 2 2 1 3 38 219 39
440 2 2 1 3 115 215 202
441 2 2 1 3 129 220 61
442 2 2 1 3 210 227 151
443 2 2 1 3 123 221 199
444 2 2 1 3 130 218 207
445 2 2 1 3 9 222 201
446 2 2 1 3 128 226 179
447 2 2 1 3 126 225 208
448 2 2 1 3 194 224 170
449 2 2 1 3 151 227 197
450 2 2 1 3 204 220 129
451 2 2 1 3 179 226 219
452 2 2 1 3 216 218 130
453 2 2 1 3 201 222 213
454 2 2 1 3 213 222 126
$EndElements
